M48
;Layer_Color=9474304
;FILE_FORMAT=4:3
METRIC,LZ
;TYPE=PLATED
T1F00S00C0.500
T2F00S00C0.711
T3F00S00C0.800
T4F00S00C3.000
%
T01
X0047411Y0040005
X004626Y0064135
T02
X0029845Y0004292
X0066802Y0005207
X0086122Y0022733
X0075565Y0046002
X0058674Y0048766
X0045301Y00508
X0040259Y0041119
X0041529Y0025146
X0048641Y0020701
X0023876Y0046736
X0019431Y0042545
X001143Y0035024
X0006985Y0023644
X0008382Y0050292
X0020701Y0068929
X0038989Y0065532
X0044322Y0088138
X0058547Y008763
X0076454Y0069723
T03
X0004191Y0028512
X0006191
Y0030512
X0004191
Y0032512
X0006191
Y0034512
X0004191
Y0036512
X0006191
X0005323Y0066599
Y0068599
X0007323
Y0066599
X0086265Y0066421
Y0068421
X0088265
Y0066421
T04
X0008925Y00022
X00022Y0008925
X008775Y0004725
X0064012Y0024
Y0046179
X0032512
Y0024
X0004725Y008775
X0032512Y0068358
X0064012
X008775Y008775
M30
