%TF.GenerationSoftware,Altium Limited,Altium Designer,18.1.7 (191)*%
G04 Layer_Physical_Order=1*
G04 Layer_Color=255*
%FSLAX43Y43*%
%MOMM*%
%TF.FileFunction,Copper,L1,Top,Signal*%
%TF.Part,Single*%
G01*
G75*
%TA.AperFunction,NonConductor*%
%ADD10C,0.254*%
%TA.AperFunction,SMDPad,CuDef*%
%ADD11R,0.850X0.450*%
%TA.AperFunction,Conductor*%
%ADD12C,0.700*%
%ADD13C,0.254*%
%ADD14C,0.500*%
%TA.AperFunction,ComponentPad*%
%ADD15C,1.524*%
%TA.AperFunction,ViaPad*%
%ADD16C,3.000*%
%ADD17C,1.270*%
%ADD18C,1.000*%
G36*
X2709Y11549D02*
X3201Y11400D01*
X3653Y11158D01*
X4050Y10832D01*
X4376Y10435D01*
X4618Y9982D01*
X4767Y9491D01*
X4817Y8980D01*
X4767Y8469D01*
X4618Y7978D01*
X4376Y7525D01*
X4050Y7128D01*
X3653Y6803D01*
X3201Y6561D01*
X2709Y6412D01*
X2198Y6361D01*
X1687Y6412D01*
X1196Y6561D01*
X1075Y6626D01*
X1009Y6724D01*
Y7485D01*
X1123Y7539D01*
X1221Y7460D01*
X1526Y7297D01*
X1856Y7196D01*
X2200Y7163D01*
X2544Y7196D01*
X2874Y7297D01*
X3179Y7460D01*
X3446Y7679D01*
X3665Y7946D01*
X3828Y8251D01*
X3929Y8581D01*
X3962Y8925D01*
X3929Y9269D01*
X3828Y9599D01*
X3665Y9904D01*
X3446Y10171D01*
X3179Y10390D01*
X2874Y10553D01*
X2544Y10654D01*
X2200Y10687D01*
X1856Y10654D01*
X1526Y10553D01*
X1221Y10390D01*
X1123Y10311D01*
X1009Y10365D01*
Y11277D01*
X1102Y11350D01*
X1102Y11350D01*
Y11350D01*
X1215Y11405D01*
X1687Y11549D01*
X2198Y11599D01*
X2709Y11549D01*
D02*
G37*
G36*
X91447Y1009D02*
X12389D01*
X12319Y1136D01*
X12441Y1643D01*
X12485Y2200D01*
X12441Y2757D01*
X12310Y3300D01*
X12097Y3816D01*
X11805Y4292D01*
X11442Y4717D01*
X11017Y5080D01*
X10541Y5372D01*
X10025Y5585D01*
X9482Y5716D01*
X8925Y5760D01*
X8368Y5716D01*
X7825Y5585D01*
X7309Y5372D01*
X6833Y5080D01*
X6408Y4717D01*
X6045Y4292D01*
X5753Y3816D01*
X5540Y3300D01*
X5409Y2757D01*
X5365Y2200D01*
X5409Y1643D01*
X5531Y1136D01*
X5461Y1009D01*
X1009D01*
Y5699D01*
X1114Y5770D01*
X1150Y5755D01*
X1668Y5631D01*
X2198Y5589D01*
X2729Y5631D01*
X3246Y5755D01*
X3738Y5958D01*
X4192Y6236D01*
X4596Y6582D01*
X4942Y6987D01*
X5220Y7441D01*
X5424Y7932D01*
X5548Y8450D01*
X5590Y8980D01*
X5548Y9511D01*
X5424Y10028D01*
X5220Y10520D01*
X4942Y10974D01*
X4596Y11378D01*
X4192Y11724D01*
X3738Y12002D01*
X3246Y12206D01*
X2729Y12330D01*
X2198Y12372D01*
X1668Y12330D01*
X1150Y12206D01*
X1114Y12191D01*
X1009Y12261D01*
Y91447D01*
X91447D01*
Y1009D01*
D02*
G37*
G36*
X9360Y4948D02*
X9785Y4846D01*
X10188Y4679D01*
X10561Y4451D01*
X10893Y4168D01*
X11176Y3836D01*
X11404Y3463D01*
X11571Y3060D01*
X11673Y2635D01*
X11707Y2200D01*
X11673Y1765D01*
X11571Y1340D01*
X11452Y1052D01*
X11333Y1009D01*
X10365D01*
X10311Y1123D01*
X10390Y1221D01*
X10553Y1526D01*
X10654Y1856D01*
X10687Y2200D01*
X10654Y2544D01*
X10553Y2874D01*
X10390Y3179D01*
X10171Y3446D01*
X9904Y3665D01*
X9599Y3828D01*
X9269Y3929D01*
X8925Y3962D01*
X8581Y3929D01*
X8251Y3828D01*
X7946Y3665D01*
X7679Y3446D01*
X7460Y3179D01*
X7297Y2874D01*
X7196Y2544D01*
X7163Y2200D01*
X7196Y1856D01*
X7297Y1526D01*
X7460Y1221D01*
X7539Y1123D01*
X7485Y1009D01*
X6524D01*
X6406Y1033D01*
X6279Y1340D01*
X6177Y1765D01*
X6143Y2200D01*
X6177Y2635D01*
X6279Y3060D01*
X6446Y3463D01*
X6674Y3836D01*
X6957Y4168D01*
X7289Y4451D01*
X7662Y4679D01*
X8065Y4846D01*
X8490Y4948D01*
X8925Y4982D01*
X9360Y4948D01*
D02*
G37*
%LPC*%
G36*
X87750Y91210D02*
X87209Y91168D01*
X86681Y91041D01*
X86179Y90833D01*
X85716Y90549D01*
X85303Y90197D01*
X84951Y89784D01*
X84667Y89321D01*
X84459Y88819D01*
X84332Y88291D01*
X84290Y87750D01*
X84332Y87209D01*
X84459Y86681D01*
X84667Y86179D01*
X84951Y85716D01*
X85303Y85303D01*
X85716Y84951D01*
X86179Y84667D01*
X86681Y84459D01*
X87209Y84332D01*
X87750Y84290D01*
X88291Y84332D01*
X88819Y84459D01*
X89321Y84667D01*
X89784Y84951D01*
X90197Y85303D01*
X90549Y85716D01*
X90833Y86179D01*
X91041Y86681D01*
X91168Y87209D01*
X91210Y87750D01*
X91168Y88291D01*
X91041Y88819D01*
X90833Y89321D01*
X90549Y89784D01*
X90197Y90197D01*
X89784Y90549D01*
X89321Y90833D01*
X88819Y91041D01*
X88291Y91168D01*
X87750Y91210D01*
D02*
G37*
G36*
X4725D02*
X4184Y91168D01*
X3656Y91041D01*
X3154Y90833D01*
X2691Y90549D01*
X2278Y90197D01*
X1926Y89784D01*
X1642Y89321D01*
X1434Y88819D01*
X1307Y88291D01*
X1265Y87750D01*
X1307Y87209D01*
X1434Y86681D01*
X1642Y86179D01*
X1926Y85716D01*
X2278Y85303D01*
X2691Y84951D01*
X3154Y84667D01*
X3656Y84459D01*
X4184Y84332D01*
X4725Y84290D01*
X5266Y84332D01*
X5794Y84459D01*
X6296Y84667D01*
X6759Y84951D01*
X7172Y85303D01*
X7524Y85716D01*
X7808Y86179D01*
X8016Y86681D01*
X8143Y87209D01*
X8185Y87750D01*
X8143Y88291D01*
X8016Y88819D01*
X7808Y89321D01*
X7524Y89784D01*
X7172Y90197D01*
X6759Y90549D01*
X6296Y90833D01*
X5794Y91041D01*
X5266Y91168D01*
X4725Y91210D01*
D02*
G37*
G36*
X7323Y69624D02*
X7058Y69589D01*
X6811Y69486D01*
X6598Y69324D01*
X6436Y69111D01*
X6392Y69006D01*
X6254D01*
X6210Y69111D01*
X6048Y69324D01*
X5835Y69486D01*
X5588Y69589D01*
X5323Y69624D01*
X5058Y69589D01*
X4811Y69486D01*
X4598Y69324D01*
X4436Y69111D01*
X4333Y68864D01*
X4298Y68599D01*
X4333Y68334D01*
X4436Y68087D01*
X4598Y67874D01*
X4811Y67712D01*
X4916Y67668D01*
Y67530D01*
X4811Y67486D01*
X4598Y67324D01*
X4436Y67111D01*
X4333Y66864D01*
X4298Y66599D01*
X4333Y66334D01*
X4436Y66087D01*
X4598Y65874D01*
X4811Y65712D01*
X5058Y65609D01*
X5323Y65574D01*
X5588Y65609D01*
X5835Y65712D01*
X6048Y65874D01*
X6210Y66087D01*
X6254Y66192D01*
X6392D01*
X6436Y66087D01*
X6598Y65874D01*
X6811Y65712D01*
X7058Y65609D01*
X7323Y65574D01*
X7588Y65609D01*
X7835Y65712D01*
X8048Y65874D01*
X8210Y66087D01*
X8313Y66334D01*
X8348Y66599D01*
X8313Y66864D01*
X8210Y67111D01*
X8048Y67324D01*
X7835Y67486D01*
X7730Y67530D01*
Y67668D01*
X7835Y67712D01*
X8048Y67874D01*
X8210Y68087D01*
X8313Y68334D01*
X8348Y68599D01*
X8313Y68864D01*
X8210Y69111D01*
X8048Y69324D01*
X7835Y69486D01*
X7588Y69589D01*
X7323Y69624D01*
D02*
G37*
G36*
X85644Y81642D02*
X28956D01*
X28720Y81595D01*
X28521Y81461D01*
X25473Y78413D01*
X25339Y78214D01*
X25292Y77978D01*
Y60094D01*
X11407Y46209D01*
X7704D01*
X7468Y46162D01*
X7268Y46028D01*
X1647Y40407D01*
X1514Y40208D01*
X1467Y39972D01*
Y35052D01*
X1514Y34816D01*
X1647Y34617D01*
X2187Y34077D01*
X2387Y33943D01*
X2623Y33896D01*
X3383D01*
X3466Y33787D01*
X3679Y33625D01*
X3784Y33581D01*
Y33443D01*
X3679Y33399D01*
X3466Y33237D01*
X3304Y33024D01*
X3201Y32777D01*
X3166Y32512D01*
X3201Y32247D01*
X3304Y32000D01*
X3466Y31787D01*
X3679Y31625D01*
X3926Y31522D01*
X4191Y31487D01*
X4456Y31522D01*
X4703Y31625D01*
X4916Y31787D01*
X5078Y32000D01*
X5122Y32105D01*
X5260D01*
X5304Y32000D01*
X5466Y31787D01*
X5679Y31625D01*
X5784Y31581D01*
Y31443D01*
X5679Y31399D01*
X5466Y31237D01*
X5304Y31024D01*
X5201Y30777D01*
X5166Y30512D01*
X5201Y30247D01*
X5304Y30000D01*
X5466Y29787D01*
X5679Y29625D01*
X5784Y29581D01*
Y29443D01*
X5679Y29399D01*
X5466Y29237D01*
X5304Y29024D01*
X5201Y28777D01*
X5166Y28512D01*
X5201Y28247D01*
X5304Y28000D01*
X5466Y27787D01*
X5679Y27625D01*
X5926Y27522D01*
X6191Y27487D01*
X6456Y27522D01*
X6703Y27625D01*
X6916Y27787D01*
X7078Y28000D01*
X7181Y28247D01*
X7216Y28512D01*
X7181Y28777D01*
X7078Y29024D01*
X6916Y29237D01*
X6703Y29399D01*
X6598Y29443D01*
Y29581D01*
X6703Y29625D01*
X6916Y29787D01*
X7078Y30000D01*
X7181Y30247D01*
X7216Y30512D01*
X7181Y30777D01*
X7078Y31024D01*
X6916Y31237D01*
X6703Y31399D01*
X6598Y31443D01*
Y31581D01*
X6703Y31625D01*
X6916Y31787D01*
X7078Y32000D01*
X7181Y32247D01*
X7216Y32512D01*
X7181Y32777D01*
X7078Y33024D01*
X6916Y33237D01*
X6703Y33399D01*
X6598Y33443D01*
Y33581D01*
X6703Y33625D01*
X6916Y33787D01*
X7078Y34000D01*
X7181Y34247D01*
X7216Y34512D01*
X7181Y34777D01*
X7078Y35024D01*
X6916Y35237D01*
X6703Y35399D01*
X6598Y35443D01*
Y35581D01*
X6703Y35625D01*
X6916Y35787D01*
X7078Y36000D01*
X7181Y36247D01*
X7216Y36512D01*
X7181Y36777D01*
X7078Y37024D01*
X6916Y37237D01*
X6703Y37399D01*
X6456Y37502D01*
X6191Y37537D01*
X5926Y37502D01*
X5679Y37399D01*
X5466Y37237D01*
X5304Y37024D01*
X5260Y36919D01*
X5122D01*
X5078Y37024D01*
X4916Y37237D01*
X4703Y37399D01*
X4456Y37502D01*
X4191Y37537D01*
X3926Y37502D01*
X3679Y37399D01*
X3466Y37237D01*
X3304Y37024D01*
X3201Y36777D01*
X3166Y36512D01*
X3201Y36247D01*
X3304Y36000D01*
X3466Y35787D01*
X3679Y35625D01*
X3784Y35581D01*
Y35443D01*
X3679Y35399D01*
X3466Y35237D01*
X3383Y35128D01*
X2878D01*
X2699Y35307D01*
Y39717D01*
X7959Y44977D01*
X11662D01*
X11898Y45024D01*
X12098Y45158D01*
X26343Y59403D01*
X26477Y59603D01*
X26524Y59839D01*
Y77723D01*
X29211Y80410D01*
X85389D01*
X88278Y77521D01*
Y76171D01*
X88215D01*
Y75213D01*
X88278D01*
Y74860D01*
X85830Y72411D01*
X85696Y72212D01*
X85649Y71976D01*
Y69229D01*
X85540Y69146D01*
X85378Y68933D01*
X85275Y68686D01*
X85240Y68421D01*
X85275Y68156D01*
X85378Y67909D01*
X85540Y67696D01*
X85753Y67534D01*
X85858Y67490D01*
Y67352D01*
X85753Y67308D01*
X85540Y67146D01*
X85379Y66935D01*
X83837D01*
X83757Y67015D01*
Y71965D01*
X87004Y75213D01*
X87323D01*
Y76171D01*
X85965D01*
Y75627D01*
X82880Y72542D01*
X82768Y72375D01*
X82729Y72178D01*
Y66802D01*
X82768Y66605D01*
X82880Y66439D01*
X83261Y66058D01*
X83427Y65946D01*
X83624Y65907D01*
X85379D01*
X85540Y65696D01*
X85753Y65534D01*
X86000Y65431D01*
X86265Y65396D01*
X86530Y65431D01*
X86777Y65534D01*
X86990Y65696D01*
X87152Y65909D01*
X87196Y66014D01*
X87334D01*
X87378Y65909D01*
X87540Y65696D01*
X87753Y65534D01*
X88000Y65431D01*
X88265Y65396D01*
X88530Y65431D01*
X88777Y65534D01*
X88990Y65696D01*
X89152Y65909D01*
X89255Y66156D01*
X89290Y66421D01*
X89255Y66686D01*
X89152Y66933D01*
X88990Y67146D01*
X88777Y67308D01*
X88672Y67352D01*
Y67490D01*
X88777Y67534D01*
X88990Y67696D01*
X89152Y67909D01*
X89255Y68156D01*
X89290Y68421D01*
X89255Y68686D01*
X89152Y68933D01*
X88990Y69146D01*
X88777Y69308D01*
X88530Y69411D01*
X88265Y69446D01*
X88000Y69411D01*
X87753Y69308D01*
X87540Y69146D01*
X87457Y69037D01*
X87073D01*
X86990Y69146D01*
X86881Y69229D01*
Y71721D01*
X89329Y74170D01*
X89463Y74369D01*
X89510Y74605D01*
Y75213D01*
X89573D01*
Y76171D01*
X89510D01*
Y77776D01*
X89463Y78012D01*
X89329Y78212D01*
X86080Y81461D01*
X85880Y81595D01*
X85644Y81642D01*
D02*
G37*
G36*
X64012Y70120D02*
X63668Y70087D01*
X63338Y69986D01*
X63033Y69823D01*
X62766Y69604D01*
X62547Y69337D01*
X62384Y69032D01*
X62283Y68702D01*
X62250Y68358D01*
X62283Y68014D01*
X62384Y67684D01*
X62547Y67379D01*
X62766Y67112D01*
X63033Y66893D01*
X63338Y66730D01*
X63668Y66629D01*
X64012Y66596D01*
X64356Y66629D01*
X64686Y66730D01*
X64991Y66893D01*
X65258Y67112D01*
X65477Y67379D01*
X65640Y67684D01*
X65741Y68014D01*
X65774Y68358D01*
X65741Y68702D01*
X65640Y69032D01*
X65477Y69337D01*
X65258Y69604D01*
X64991Y69823D01*
X64686Y69986D01*
X64356Y70087D01*
X64012Y70120D01*
D02*
G37*
G36*
X32512D02*
X32168Y70087D01*
X31838Y69986D01*
X31533Y69823D01*
X31266Y69604D01*
X31047Y69337D01*
X30884Y69032D01*
X30783Y68702D01*
X30750Y68358D01*
X30783Y68014D01*
X30884Y67684D01*
X31047Y67379D01*
X31266Y67112D01*
X31533Y66893D01*
X31838Y66730D01*
X32168Y66629D01*
X32512Y66596D01*
X32856Y66629D01*
X33186Y66730D01*
X33491Y66893D01*
X33758Y67112D01*
X33977Y67379D01*
X34140Y67684D01*
X34241Y68014D01*
X34274Y68358D01*
X34241Y68702D01*
X34140Y69032D01*
X33977Y69337D01*
X33758Y69604D01*
X33491Y69823D01*
X33186Y69986D01*
X32856Y70087D01*
X32512Y70120D01*
D02*
G37*
G36*
X46260Y64896D02*
X46063Y64870D01*
X45880Y64794D01*
X45722Y64673D01*
X45601Y64515D01*
X45525Y64332D01*
X45500Y64135D01*
X45524Y63948D01*
X41381Y59806D01*
X41297Y59680D01*
X41268Y59531D01*
Y45760D01*
X41297Y45612D01*
X41381Y45486D01*
X45242Y41625D01*
X45194Y41507D01*
X41060D01*
X41036Y41567D01*
X40893Y41753D01*
X40707Y41895D01*
X40491Y41985D01*
X40259Y42015D01*
X40027Y41985D01*
X39811Y41895D01*
X39625Y41753D01*
X39482Y41567D01*
X39393Y41351D01*
X39362Y41119D01*
X39393Y40887D01*
X39482Y40670D01*
X39625Y40485D01*
X39811Y40342D01*
X40027Y40253D01*
X40259Y40222D01*
X40491Y40253D01*
X40707Y40342D01*
X40893Y40485D01*
X41036Y40670D01*
X41060Y40730D01*
X45628D01*
X46628Y39730D01*
X46740Y39656D01*
X46753Y39625D01*
X46873Y39467D01*
X47031Y39346D01*
X47214Y39270D01*
X47411Y39244D01*
X47608Y39270D01*
X47791Y39346D01*
X47949Y39467D01*
X48070Y39625D01*
X48146Y39808D01*
X48172Y40005D01*
X48146Y40202D01*
X48070Y40385D01*
X47949Y40543D01*
X47791Y40664D01*
X47608Y40740D01*
X47411Y40766D01*
X47225Y40741D01*
X42044Y45921D01*
Y59370D01*
X46073Y63399D01*
X46260Y63374D01*
X46457Y63400D01*
X46640Y63476D01*
X46798Y63597D01*
X46919Y63755D01*
X46995Y63938D01*
X47021Y64135D01*
X46995Y64332D01*
X46919Y64515D01*
X46798Y64673D01*
X46640Y64794D01*
X46457Y64870D01*
X46260Y64896D01*
D02*
G37*
G36*
X64012Y47941D02*
X63668Y47908D01*
X63338Y47807D01*
X63033Y47644D01*
X62766Y47425D01*
X62547Y47158D01*
X62384Y46853D01*
X62283Y46523D01*
X62250Y46179D01*
X62283Y45835D01*
X62384Y45505D01*
X62547Y45200D01*
X62766Y44933D01*
X63033Y44714D01*
X63338Y44551D01*
X63668Y44450D01*
X64012Y44417D01*
X64356Y44450D01*
X64686Y44551D01*
X64991Y44714D01*
X65258Y44933D01*
X65477Y45200D01*
X65640Y45505D01*
X65741Y45835D01*
X65774Y46179D01*
X65741Y46523D01*
X65640Y46853D01*
X65477Y47158D01*
X65258Y47425D01*
X64991Y47644D01*
X64686Y47807D01*
X64356Y47908D01*
X64012Y47941D01*
D02*
G37*
G36*
X32512D02*
X32168Y47908D01*
X31838Y47807D01*
X31533Y47644D01*
X31266Y47425D01*
X31047Y47158D01*
X30884Y46853D01*
X30783Y46523D01*
X30750Y46179D01*
X30783Y45835D01*
X30884Y45505D01*
X31047Y45200D01*
X31266Y44933D01*
X31533Y44714D01*
X31838Y44551D01*
X32168Y44450D01*
X32512Y44417D01*
X32856Y44450D01*
X33186Y44551D01*
X33491Y44714D01*
X33758Y44933D01*
X33977Y45200D01*
X34140Y45505D01*
X34241Y45835D01*
X34274Y46179D01*
X34241Y46523D01*
X34140Y46853D01*
X33977Y47158D01*
X33758Y47425D01*
X33491Y47644D01*
X33186Y47807D01*
X32856Y47908D01*
X32512Y47941D01*
D02*
G37*
G36*
X19431Y43442D02*
X19199Y43411D01*
X18983Y43322D01*
X18797Y43179D01*
X18654Y42993D01*
X18565Y42777D01*
X18534Y42545D01*
X18565Y42313D01*
X18654Y42097D01*
X18797Y41911D01*
X18983Y41768D01*
X19199Y41679D01*
X19431Y41648D01*
X19663Y41679D01*
X19879Y41768D01*
X20065Y41911D01*
X20208Y42097D01*
X20232Y42157D01*
X23969D01*
X40688Y25438D01*
X40663Y25378D01*
X40632Y25146D01*
X40663Y24914D01*
X40752Y24698D01*
X40895Y24512D01*
X41081Y24369D01*
X41297Y24280D01*
X41529Y24249D01*
X41761Y24280D01*
X41977Y24369D01*
X42163Y24512D01*
X42306Y24698D01*
X42395Y24914D01*
X42426Y25146D01*
X42395Y25378D01*
X42306Y25594D01*
X42163Y25780D01*
X41977Y25923D01*
X41761Y26012D01*
X41529Y26043D01*
X41297Y26012D01*
X41237Y25987D01*
X24405Y42820D01*
X24279Y42904D01*
X24130Y42933D01*
X20232D01*
X20208Y42993D01*
X20065Y43179D01*
X19879Y43322D01*
X19663Y43411D01*
X19431Y43442D01*
D02*
G37*
G36*
X64012Y25762D02*
X63668Y25729D01*
X63338Y25628D01*
X63033Y25465D01*
X62766Y25246D01*
X62547Y24979D01*
X62384Y24674D01*
X62283Y24344D01*
X62250Y24000D01*
X62283Y23656D01*
X62384Y23326D01*
X62547Y23021D01*
X62766Y22754D01*
X63033Y22535D01*
X63338Y22372D01*
X63668Y22271D01*
X64012Y22238D01*
X64356Y22271D01*
X64686Y22372D01*
X64991Y22535D01*
X65258Y22754D01*
X65477Y23021D01*
X65640Y23326D01*
X65741Y23656D01*
X65774Y24000D01*
X65741Y24344D01*
X65640Y24674D01*
X65477Y24979D01*
X65258Y25246D01*
X64991Y25465D01*
X64686Y25628D01*
X64356Y25729D01*
X64012Y25762D01*
D02*
G37*
G36*
X32512D02*
X32168Y25729D01*
X31838Y25628D01*
X31533Y25465D01*
X31266Y25246D01*
X31047Y24979D01*
X30884Y24674D01*
X30783Y24344D01*
X30750Y24000D01*
X30783Y23656D01*
X30884Y23326D01*
X31047Y23021D01*
X31266Y22754D01*
X31533Y22535D01*
X31838Y22372D01*
X32168Y22271D01*
X32512Y22238D01*
X32856Y22271D01*
X33186Y22372D01*
X33491Y22535D01*
X33758Y22754D01*
X33977Y23021D01*
X34140Y23326D01*
X34241Y23656D01*
X34274Y24000D01*
X34241Y24344D01*
X34140Y24674D01*
X33977Y24979D01*
X33758Y25246D01*
X33491Y25465D01*
X33186Y25628D01*
X32856Y25729D01*
X32512Y25762D01*
D02*
G37*
G36*
X11430Y35921D02*
X11198Y35890D01*
X10982Y35801D01*
X10796Y35658D01*
X10653Y35473D01*
X10564Y35256D01*
X10533Y35024D01*
X10564Y34792D01*
X10653Y34576D01*
X10796Y34390D01*
X10982Y34248D01*
X11198Y34158D01*
X11430Y34128D01*
X11662Y34158D01*
X11878Y34248D01*
X12064Y34390D01*
X12156Y34511D01*
X28232D01*
X41031Y21711D01*
X41198Y21599D01*
X41395Y21560D01*
X47055D01*
X47764Y20851D01*
X47744Y20701D01*
X47775Y20469D01*
X47864Y20253D01*
X48007Y20067D01*
X48193Y19924D01*
X48409Y19835D01*
X48641Y19804D01*
X48873Y19835D01*
X49089Y19924D01*
X49275Y20067D01*
X49418Y20253D01*
X49507Y20469D01*
X49538Y20701D01*
X49507Y20933D01*
X49418Y21149D01*
X49275Y21335D01*
X49089Y21478D01*
X48873Y21567D01*
X48641Y21598D01*
X48491Y21578D01*
X47631Y22438D01*
X47464Y22549D01*
X47268Y22588D01*
X41608D01*
X28808Y35388D01*
X28641Y35499D01*
X28445Y35538D01*
X12156D01*
X12064Y35658D01*
X11878Y35801D01*
X11662Y35890D01*
X11430Y35921D01*
D02*
G37*
G36*
X87750Y8185D02*
X87209Y8143D01*
X86681Y8016D01*
X86179Y7808D01*
X85716Y7524D01*
X85303Y7172D01*
X84951Y6759D01*
X84667Y6296D01*
X84459Y5794D01*
X84332Y5266D01*
X84290Y4725D01*
X84332Y4184D01*
X84459Y3656D01*
X84667Y3154D01*
X84951Y2691D01*
X85303Y2278D01*
X85716Y1926D01*
X86179Y1642D01*
X86681Y1434D01*
X87209Y1307D01*
X87750Y1265D01*
X88291Y1307D01*
X88819Y1434D01*
X89321Y1642D01*
X89784Y1926D01*
X90197Y2278D01*
X90549Y2691D01*
X90833Y3154D01*
X91041Y3656D01*
X91168Y4184D01*
X91210Y4725D01*
X91168Y5266D01*
X91041Y5794D01*
X90833Y6296D01*
X90549Y6759D01*
X90197Y7172D01*
X89784Y7524D01*
X89321Y7808D01*
X88819Y8016D01*
X88291Y8143D01*
X87750Y8185D01*
D02*
G37*
%LPD*%
G36*
X88170Y90400D02*
X88579Y90302D01*
X88968Y90141D01*
X89327Y89921D01*
X89647Y89647D01*
X89921Y89327D01*
X90141Y88968D01*
X90302Y88579D01*
X90400Y88170D01*
X90433Y87750D01*
X90400Y87330D01*
X90302Y86921D01*
X90141Y86532D01*
X89921Y86173D01*
X89647Y85853D01*
X89327Y85579D01*
X88968Y85359D01*
X88579Y85198D01*
X88170Y85100D01*
X87750Y85067D01*
X87330Y85100D01*
X86921Y85198D01*
X86532Y85359D01*
X86173Y85579D01*
X85853Y85853D01*
X85579Y86173D01*
X85359Y86532D01*
X85198Y86921D01*
X85100Y87330D01*
X85067Y87750D01*
X85100Y88170D01*
X85198Y88579D01*
X85359Y88968D01*
X85579Y89327D01*
X85853Y89647D01*
X86173Y89921D01*
X86532Y90141D01*
X86921Y90302D01*
X87330Y90400D01*
X87750Y90433D01*
X88170Y90400D01*
D02*
G37*
%LPC*%
G36*
X87750Y89512D02*
X87406Y89479D01*
X87076Y89378D01*
X86771Y89215D01*
X86504Y88996D01*
X86285Y88729D01*
X86122Y88424D01*
X86021Y88094D01*
X85988Y87750D01*
X86021Y87406D01*
X86122Y87076D01*
X86285Y86771D01*
X86504Y86504D01*
X86771Y86285D01*
X87076Y86122D01*
X87406Y86021D01*
X87750Y85988D01*
X88094Y86021D01*
X88424Y86122D01*
X88729Y86285D01*
X88996Y86504D01*
X89215Y86771D01*
X89378Y87076D01*
X89479Y87406D01*
X89512Y87750D01*
X89479Y88094D01*
X89378Y88424D01*
X89215Y88729D01*
X88996Y88996D01*
X88729Y89215D01*
X88424Y89378D01*
X88094Y89479D01*
X87750Y89512D01*
D02*
G37*
%LPD*%
G36*
X5145Y90400D02*
X5554Y90302D01*
X5943Y90141D01*
X6302Y89921D01*
X6622Y89647D01*
X6896Y89327D01*
X7116Y88968D01*
X7277Y88579D01*
X7375Y88170D01*
X7408Y87750D01*
X7375Y87330D01*
X7277Y86921D01*
X7116Y86532D01*
X6896Y86173D01*
X6622Y85853D01*
X6302Y85579D01*
X5943Y85359D01*
X5554Y85198D01*
X5145Y85100D01*
X4725Y85067D01*
X4305Y85100D01*
X3896Y85198D01*
X3507Y85359D01*
X3148Y85579D01*
X2828Y85853D01*
X2554Y86173D01*
X2334Y86532D01*
X2173Y86921D01*
X2075Y87330D01*
X2042Y87750D01*
X2075Y88170D01*
X2173Y88579D01*
X2334Y88968D01*
X2554Y89327D01*
X2828Y89647D01*
X3148Y89921D01*
X3507Y90141D01*
X3896Y90302D01*
X4305Y90400D01*
X4725Y90433D01*
X5145Y90400D01*
D02*
G37*
%LPC*%
G36*
X4725Y89512D02*
X4381Y89479D01*
X4051Y89378D01*
X3746Y89215D01*
X3479Y88996D01*
X3260Y88729D01*
X3097Y88424D01*
X2996Y88094D01*
X2963Y87750D01*
X2996Y87406D01*
X3097Y87076D01*
X3260Y86771D01*
X3479Y86504D01*
X3746Y86285D01*
X4051Y86122D01*
X4381Y86021D01*
X4725Y85988D01*
X5069Y86021D01*
X5399Y86122D01*
X5704Y86285D01*
X5971Y86504D01*
X6190Y86771D01*
X6353Y87076D01*
X6454Y87406D01*
X6487Y87750D01*
X6454Y88094D01*
X6353Y88424D01*
X6190Y88729D01*
X5971Y88996D01*
X5704Y89215D01*
X5399Y89378D01*
X5069Y89479D01*
X4725Y89512D01*
D02*
G37*
%LPD*%
G36*
X88170Y7375D02*
X88579Y7277D01*
X88968Y7116D01*
X89327Y6896D01*
X89647Y6622D01*
X89921Y6302D01*
X90141Y5943D01*
X90302Y5554D01*
X90400Y5145D01*
X90433Y4725D01*
X90400Y4305D01*
X90302Y3896D01*
X90141Y3507D01*
X89921Y3148D01*
X89647Y2828D01*
X89327Y2554D01*
X88968Y2334D01*
X88579Y2173D01*
X88170Y2075D01*
X87750Y2042D01*
X87330Y2075D01*
X86921Y2173D01*
X86532Y2334D01*
X86173Y2554D01*
X85853Y2828D01*
X85579Y3148D01*
X85359Y3507D01*
X85198Y3896D01*
X85100Y4305D01*
X85067Y4725D01*
X85100Y5145D01*
X85198Y5554D01*
X85359Y5943D01*
X85579Y6302D01*
X85853Y6622D01*
X86173Y6896D01*
X86532Y7116D01*
X86921Y7277D01*
X87330Y7375D01*
X87750Y7408D01*
X88170Y7375D01*
D02*
G37*
%LPC*%
G36*
X87750Y6487D02*
X87406Y6454D01*
X87076Y6353D01*
X86771Y6190D01*
X86504Y5971D01*
X86285Y5704D01*
X86122Y5399D01*
X86021Y5069D01*
X85988Y4725D01*
X86021Y4381D01*
X86122Y4051D01*
X86285Y3746D01*
X86504Y3479D01*
X86771Y3260D01*
X87076Y3097D01*
X87406Y2996D01*
X87750Y2963D01*
X88094Y2996D01*
X88424Y3097D01*
X88729Y3260D01*
X88996Y3479D01*
X89215Y3746D01*
X89378Y4051D01*
X89479Y4381D01*
X89512Y4725D01*
X89479Y5069D01*
X89378Y5399D01*
X89215Y5704D01*
X88996Y5971D01*
X88729Y6190D01*
X88424Y6353D01*
X88094Y6454D01*
X87750Y6487D01*
D02*
G37*
%LPD*%
D10*
X11809Y890D02*
G03*
X6051Y868I-2884J1310D01*
G01*
X906Y6273D02*
G03*
X939Y11703I1292J2707D01*
G01*
X7793Y87750D02*
G03*
X7793Y87750I-3068J0D01*
G01*
X90818Y4725D02*
G03*
X90818Y4725I-3068J0D01*
G01*
Y87750D02*
G03*
X90818Y87750I-3068J0D01*
G01*
D11*
X88894Y75692D02*
D03*
X86644D02*
D03*
D12*
X85644Y81026D02*
X88894Y77776D01*
Y75692D02*
Y77776D01*
X28956Y81026D02*
X85644D01*
X25908Y77978D02*
X28956Y81026D01*
X25908Y59839D02*
Y77978D01*
X11662Y45593D02*
X25908Y59839D01*
X7704Y45593D02*
X11662D01*
X2083Y39972D02*
X7704Y45593D01*
X2083Y35052D02*
Y39972D01*
Y35052D02*
X2623Y34512D01*
X4191D01*
X86265Y68421D02*
X88265D01*
X88894Y74605D02*
Y75692D01*
X86265Y71976D02*
X88894Y74605D01*
X86265Y68421D02*
Y71976D01*
D13*
X45789Y41119D02*
X46903Y40005D01*
X40259Y41119D02*
X45789D01*
X24130Y42545D02*
X41529Y25146D01*
X19431Y42545D02*
X24130D01*
X46903Y40005D02*
X47411D01*
X41656Y59531D02*
X46260Y64135D01*
X41656Y45760D02*
Y59531D01*
Y45760D02*
X47411Y40005D01*
D14*
X83243Y66802D02*
X83624Y66421D01*
X86265D01*
X83243Y66802D02*
Y72178D01*
X47268Y22074D02*
X48641Y20701D01*
X41395Y22074D02*
X47268D01*
X28445Y35024D02*
X41395Y22074D01*
X11430Y35024D02*
X28445D01*
X83243Y72178D02*
X86700Y75636D01*
D15*
X32512Y46179D02*
D03*
X64012Y24000D02*
D03*
Y68358D02*
D03*
X32512D02*
D03*
Y24000D02*
D03*
X64012Y46179D02*
D03*
X6191Y28512D02*
D03*
X4191D02*
D03*
X6191Y30512D02*
D03*
X4191D02*
D03*
X6191Y32512D02*
D03*
X4191D02*
D03*
X6191Y34512D02*
D03*
X4191D02*
D03*
X6191Y36512D02*
D03*
X4191D02*
D03*
X5323Y68599D02*
D03*
Y66599D02*
D03*
X7323Y68599D02*
D03*
Y66599D02*
D03*
X88265Y68421D02*
D03*
X86265D02*
D03*
X88265Y66421D02*
D03*
X86265D02*
D03*
D16*
X8925Y2200D02*
D03*
X4725Y87750D02*
D03*
X87750D02*
D03*
Y4725D02*
D03*
X2200Y8925D02*
D03*
D17*
X40259Y41119D02*
D03*
X19431Y42545D02*
D03*
X11430Y35024D02*
D03*
X6985Y23644D02*
D03*
X66802Y5207D02*
D03*
X58547Y87630D02*
D03*
X44322Y88138D02*
D03*
X76454Y69723D02*
D03*
X20701Y68929D02*
D03*
X8382Y50292D02*
D03*
X29845Y4292D02*
D03*
X86122Y22733D02*
D03*
X41529Y25146D02*
D03*
X48641Y20701D02*
D03*
X23876Y46736D02*
D03*
X75565Y46002D02*
D03*
X58674Y48766D02*
D03*
X45301Y50800D02*
D03*
X38989Y65532D02*
D03*
D18*
X46260Y64135D02*
D03*
X47411Y40005D02*
D03*
%TF.MD5,2fec9250c55d866be28f0014be68ad43*%
M02*
