%TF.GenerationSoftware,Altium Limited,Altium Designer,18.1.7 (191)*%
G04 Layer_Color=32896*
%FSLAX43Y43*%
%MOMM*%
%TF.FileFunction,Legend,Bot*%
%TF.Part,Single*%
G01*
G75*
%TA.AperFunction,NonConductor*%
%ADD10C,0.254*%
%ADD28C,0.250*%
%ADD29C,0.025*%
%ADD30C,0.200*%
%ADD31C,0.150*%
G36*
X87607Y35808D02*
X87646Y35801D01*
X87705Y35769D01*
X87731Y35749D01*
X87750Y35736D01*
X87763Y35730D01*
X87769Y35723D01*
X87802Y35684D01*
X87828Y35652D01*
X87841Y35620D01*
X87854Y35587D01*
X87860Y35561D01*
X87867Y35542D01*
Y35367D01*
X87860Y35218D01*
X87847Y35075D01*
X87834Y34939D01*
X87815Y34816D01*
X87802Y34700D01*
X87782Y34596D01*
X87756Y34499D01*
X87737Y34414D01*
X87718Y34337D01*
X87705Y34272D01*
X87685Y34214D01*
X87672Y34175D01*
X87659Y34142D01*
X87653Y34123D01*
Y34116D01*
X87614Y34026D01*
X87569Y33941D01*
X87517Y33857D01*
X87471Y33792D01*
X87426Y33734D01*
X87394Y33689D01*
X87368Y33663D01*
X87361Y33650D01*
X87309Y33592D01*
X87258Y33540D01*
X87206Y33501D01*
X87154Y33462D01*
X87057Y33404D01*
X86972Y33365D01*
X86895Y33345D01*
X86843Y33332D01*
X86804Y33326D01*
X86791D01*
X86707Y33332D01*
X86629Y33352D01*
X86558Y33384D01*
X86499Y33417D01*
X86448Y33455D01*
X86409Y33481D01*
X86383Y33507D01*
X86376Y33514D01*
X86305Y33592D01*
X86240Y33676D01*
X86175Y33766D01*
X86124Y33851D01*
X86078Y33935D01*
X86046Y34000D01*
X86033Y34026D01*
X86026Y34045D01*
X86020Y34052D01*
Y34058D01*
X85949Y33974D01*
X85871Y33896D01*
X85793Y33831D01*
X85709Y33773D01*
X85631Y33728D01*
X85547Y33689D01*
X85463Y33650D01*
X85385Y33624D01*
X85314Y33604D01*
X85249Y33592D01*
X85184Y33579D01*
X85132Y33572D01*
X85087Y33566D01*
X85055D01*
X85035D01*
X85029D01*
X84938Y33572D01*
X84847Y33585D01*
X84763Y33611D01*
X84685Y33637D01*
X84543Y33708D01*
X84426Y33792D01*
X84322Y33883D01*
X84283Y33922D01*
X84251Y33954D01*
X84225Y33980D01*
X84206Y34006D01*
X84199Y34019D01*
X84193Y34026D01*
X84141Y34103D01*
X84096Y34175D01*
X84018Y34324D01*
X83966Y34466D01*
X83934Y34589D01*
X83908Y34700D01*
X83901Y34745D01*
Y34784D01*
X83895Y34810D01*
Y34855D01*
X83901Y35011D01*
X83908Y35153D01*
X83927Y35283D01*
X83947Y35393D01*
X83966Y35484D01*
X83979Y35555D01*
X83985Y35581D01*
X83992Y35600D01*
X83998Y35607D01*
Y35613D01*
X84018Y35633D01*
X84037Y35652D01*
X84096Y35678D01*
X84121Y35684D01*
X84141D01*
X84154Y35691D01*
X84160D01*
X84316Y35704D01*
X84452Y35710D01*
X84569Y35717D01*
X84666D01*
X84737Y35723D01*
X84789D01*
X84821D01*
X84834D01*
X84899D01*
X84970D01*
X85126Y35730D01*
X85294Y35736D01*
X85463Y35749D01*
X85540Y35756D01*
X85612D01*
X85677Y35762D01*
X85735Y35769D01*
X85787D01*
X85819Y35775D01*
X85845D01*
X85851D01*
X85968Y35782D01*
X86078Y35788D01*
X86182Y35795D01*
X86279D01*
X86370Y35801D01*
X86454Y35808D01*
X86525D01*
X86590D01*
X86655D01*
X86707Y35814D01*
X86746D01*
X86785D01*
X86810D01*
X86830D01*
X86843D01*
X86849D01*
X87569D01*
X87607Y35808D01*
D02*
G37*
G36*
X86849Y32989D02*
X86947Y32976D01*
X87037Y32963D01*
X87121Y32944D01*
X87199Y32924D01*
X87271Y32905D01*
X87329Y32879D01*
X87387Y32853D01*
X87433Y32833D01*
X87471Y32814D01*
X87504Y32795D01*
X87530Y32775D01*
X87549Y32769D01*
X87556Y32756D01*
X87562D01*
X87620Y32704D01*
X87666Y32646D01*
X87711Y32581D01*
X87744Y32516D01*
X87802Y32380D01*
X87841Y32237D01*
X87860Y32114D01*
X87867Y32062D01*
X87873Y32011D01*
X87880Y31972D01*
Y31920D01*
X87867Y31823D01*
X87847Y31725D01*
X87834Y31687D01*
X87828Y31654D01*
X87815Y31628D01*
Y31622D01*
X87756Y31479D01*
X87724Y31408D01*
X87692Y31343D01*
X87666Y31291D01*
X87640Y31246D01*
X87627Y31220D01*
X87620Y31207D01*
X87685Y31162D01*
X87744Y31103D01*
X87769Y31084D01*
X87782Y31065D01*
X87795Y31052D01*
X87802Y31045D01*
X87841Y31000D01*
X87867Y30967D01*
X87886Y30935D01*
X87899Y30915D01*
X87912Y30883D01*
Y30877D01*
X87899Y30812D01*
X87880Y30760D01*
X87860Y30728D01*
X87847Y30715D01*
X87821Y30689D01*
X87795Y30676D01*
X87744Y30650D01*
X87705Y30643D01*
X87698D01*
X87692D01*
X87646Y30663D01*
X87588Y30689D01*
X87549Y30702D01*
X87523Y30715D01*
X87517D01*
X87407Y30760D01*
X87316Y30792D01*
X87238Y30818D01*
X87180Y30838D01*
X87141Y30857D01*
X87109Y30864D01*
X87096Y30870D01*
X87089D01*
X87018Y30883D01*
X86934Y30896D01*
X86856Y30903D01*
X86778Y30909D01*
X86707D01*
X86655D01*
X86616D01*
X86610D01*
X86603D01*
X86486D01*
X86376D01*
X86286Y30903D01*
X86208D01*
X86143D01*
X86098Y30896D01*
X86065D01*
X86059D01*
X85981Y30890D01*
X85923Y30883D01*
X85871Y30877D01*
X85826Y30870D01*
X85793Y30864D01*
X85774D01*
X85761Y30857D01*
X85754D01*
X85715Y30831D01*
X85677Y30818D01*
X85651Y30812D01*
X85638D01*
X85599Y30818D01*
X85566Y30825D01*
X85502Y30864D01*
X85450Y30915D01*
X85398Y30974D01*
X85359Y31039D01*
X85333Y31090D01*
X85314Y31129D01*
X85307Y31136D01*
Y31142D01*
X85268Y31239D01*
X85242Y31330D01*
X85216Y31408D01*
X85204Y31479D01*
X85197Y31538D01*
X85191Y31583D01*
Y31622D01*
X85197Y31725D01*
X85210Y31823D01*
X85229Y31920D01*
X85255Y32011D01*
X85327Y32179D01*
X85366Y32250D01*
X85404Y32322D01*
X85443Y32380D01*
X85482Y32432D01*
X85521Y32484D01*
X85553Y32522D01*
X85579Y32555D01*
X85599Y32574D01*
X85612Y32587D01*
X85618Y32594D01*
X85696Y32665D01*
X85780Y32730D01*
X85871Y32782D01*
X85955Y32827D01*
X86039Y32866D01*
X86124Y32905D01*
X86279Y32950D01*
X86357Y32969D01*
X86422Y32982D01*
X86480Y32989D01*
X86532Y32995D01*
X86571Y33002D01*
X86603D01*
X86623D01*
X86629D01*
X86746D01*
X86849Y32989D01*
D02*
G37*
G36*
X85482Y30391D02*
X85540Y30365D01*
X85579Y30332D01*
X85612Y30287D01*
X85631Y30248D01*
X85644Y30216D01*
X85651Y30190D01*
Y30183D01*
X85664Y30054D01*
X85670Y29944D01*
X85677Y29846D01*
X85683Y29769D01*
Y29710D01*
X85690Y29665D01*
Y29633D01*
X87128Y29587D01*
X87167D01*
X87212D01*
X87303Y29594D01*
X87342D01*
X87374Y29600D01*
X87400D01*
X87407D01*
X87471D01*
X87530Y29607D01*
X87575D01*
X87614D01*
X87646D01*
X87666D01*
X87679D01*
X87685D01*
X87718Y29600D01*
X87750Y29594D01*
X87795Y29568D01*
X87828Y29548D01*
X87841Y29535D01*
X87880Y29477D01*
X87899Y29419D01*
X87906Y29373D01*
Y29360D01*
X87899Y29315D01*
X87880Y29270D01*
X87854Y29237D01*
X87821Y29205D01*
X87737Y29160D01*
X87633Y29134D01*
X87536Y29114D01*
X87452Y29101D01*
X87420D01*
X87394D01*
X87374D01*
X87368D01*
X87245D01*
X87134Y29108D01*
X85683Y29147D01*
X85670Y29056D01*
X85664Y28978D01*
X85657Y28920D01*
Y28881D01*
X85651Y28848D01*
Y28738D01*
X85657Y28712D01*
Y28576D01*
X85644Y28505D01*
X85625Y28447D01*
X85605Y28414D01*
X85592Y28401D01*
X85566Y28375D01*
X85534Y28363D01*
X85476Y28337D01*
X85450D01*
X85430Y28330D01*
X85417D01*
X85411D01*
X85353Y28337D01*
X85301Y28356D01*
X85262Y28382D01*
X85229Y28408D01*
X85210Y28434D01*
X85197Y28460D01*
X85184Y28479D01*
Y28486D01*
X85178Y28525D01*
X85171Y28570D01*
X85158Y28680D01*
Y28842D01*
X85165Y28887D01*
X85171Y28946D01*
X85178Y29010D01*
X85184Y29069D01*
X85191Y29121D01*
X85197Y29153D01*
Y29166D01*
X85048D01*
X84905Y29160D01*
X84815D01*
X84743D01*
X84718Y29166D01*
X84698D01*
X84692D01*
X84685D01*
X84620Y29172D01*
X84562Y29185D01*
X84517Y29205D01*
X84478Y29224D01*
X84413Y29263D01*
X84368Y29309D01*
X84342Y29354D01*
X84329Y29393D01*
X84322Y29412D01*
Y29464D01*
X84335Y29496D01*
X84355Y29548D01*
X84381Y29587D01*
X84387Y29594D01*
X84394Y29600D01*
X84420Y29626D01*
X84445Y29639D01*
X84504Y29665D01*
X84543Y29671D01*
X84556D01*
X84562D01*
X84601D01*
X84653D01*
X84750Y29665D01*
X84795D01*
X84834Y29658D01*
X84860D01*
X84867D01*
X84938Y29652D01*
X85003D01*
X85061Y29645D01*
X85106D01*
X85145D01*
X85171D01*
X85191D01*
X85197D01*
X85158Y30164D01*
Y30203D01*
X85171Y30235D01*
X85191Y30287D01*
X85216Y30319D01*
X85223Y30332D01*
X85229D01*
X85288Y30371D01*
X85346Y30391D01*
X85372D01*
X85391Y30397D01*
X85404D01*
X85411D01*
X85482Y30391D01*
D02*
G37*
G36*
X87646Y27935D02*
X87698Y27909D01*
X87731Y27890D01*
X87744Y27883D01*
X87782Y27831D01*
X87802Y27779D01*
X87808Y27734D01*
Y27721D01*
X87795Y27656D01*
X87776Y27604D01*
X87756Y27572D01*
X87744Y27559D01*
X87692Y27520D01*
X87640Y27501D01*
X87594Y27494D01*
X87588D01*
X87582D01*
X87413D01*
X87258D01*
X87115D01*
X86985Y27488D01*
X86869D01*
X86765D01*
X86668D01*
X86584Y27481D01*
X86512D01*
X86454D01*
X86402D01*
X86357Y27475D01*
X86325D01*
X86305D01*
X86292D01*
X86286D01*
X86292Y27397D01*
X86299Y27332D01*
X86305Y27280D01*
Y27242D01*
X86312Y27209D01*
Y27177D01*
X86305Y27073D01*
X86299Y26969D01*
X86260Y26782D01*
X86208Y26613D01*
X86182Y26535D01*
X86150Y26471D01*
X86117Y26406D01*
X86091Y26354D01*
X86065Y26302D01*
X86039Y26263D01*
X86020Y26231D01*
X86001Y26211D01*
X85994Y26198D01*
X85988Y26192D01*
X85916Y26108D01*
X85845Y26036D01*
X85767Y25978D01*
X85683Y25920D01*
X85605Y25874D01*
X85528Y25842D01*
X85450Y25810D01*
X85372Y25784D01*
X85301Y25764D01*
X85236Y25751D01*
X85171Y25738D01*
X85126Y25732D01*
X85080Y25725D01*
X85048D01*
X85029D01*
X85022D01*
X84931Y25732D01*
X84847Y25745D01*
X84769Y25764D01*
X84692Y25790D01*
X84556Y25861D01*
X84432Y25939D01*
X84335Y26023D01*
X84296Y26056D01*
X84264Y26088D01*
X84238Y26121D01*
X84219Y26140D01*
X84212Y26153D01*
X84206Y26159D01*
X84154Y26231D01*
X84102Y26309D01*
X84024Y26458D01*
X83972Y26600D01*
X83934Y26730D01*
X83908Y26840D01*
X83901Y26885D01*
Y26924D01*
X83895Y26956D01*
Y27144D01*
X83901Y27209D01*
Y27300D01*
X83908Y27332D01*
Y27358D01*
X83921Y27455D01*
X83927Y27488D01*
X83934Y27520D01*
X83940Y27546D01*
Y27566D01*
X83947Y27572D01*
Y27643D01*
X83966Y27695D01*
X83992Y27734D01*
X84031Y27766D01*
X84070Y27792D01*
X84102Y27805D01*
X84128Y27818D01*
X84134D01*
X84180Y27825D01*
X84238Y27831D01*
X84348Y27838D01*
X84400Y27844D01*
X84445D01*
X84471D01*
X84484D01*
X84828D01*
X84886D01*
X84957Y27851D01*
X85113Y27857D01*
X85281Y27864D01*
X85450Y27877D01*
X85528Y27883D01*
X85599D01*
X85664Y27890D01*
X85722Y27896D01*
X85774D01*
X85806Y27902D01*
X85832D01*
X85839D01*
X85962Y27909D01*
X86072Y27915D01*
X86175Y27922D01*
X86279D01*
X86370Y27928D01*
X86448Y27935D01*
X86525D01*
X86597D01*
X86655D01*
X86707Y27941D01*
X86752D01*
X86791D01*
X86817D01*
X86836D01*
X86849D01*
X86856D01*
X87582D01*
X87646Y27935D01*
D02*
G37*
G36*
X87601Y25246D02*
X87640Y25239D01*
X87692Y25213D01*
X87731Y25194D01*
X87737Y25181D01*
X87744D01*
X87782Y25123D01*
X87802Y25064D01*
X87808Y25019D01*
Y25006D01*
X87802Y24961D01*
X87789Y24915D01*
X87737Y24851D01*
X87718Y24825D01*
X87692Y24805D01*
X87679Y24799D01*
X87672Y24792D01*
X87562Y24734D01*
X87452Y24689D01*
X87355Y24637D01*
X87264Y24598D01*
X87180Y24559D01*
X87102Y24520D01*
X87037Y24494D01*
X86972Y24462D01*
X86914Y24442D01*
X86869Y24416D01*
X86823Y24404D01*
X86791Y24391D01*
X86765Y24378D01*
X86746Y24371D01*
X86739Y24365D01*
X86733D01*
X86597Y23717D01*
X86564Y23574D01*
X86545Y23445D01*
X86525Y23334D01*
X86506Y23244D01*
X86493Y23166D01*
X86486Y23114D01*
X86480Y23082D01*
Y23069D01*
X86577Y23049D01*
X86668Y23036D01*
X86759Y23017D01*
X86830Y23004D01*
X86901Y22991D01*
X86966Y22972D01*
X87024Y22965D01*
X87070Y22952D01*
X87154Y22933D01*
X87206Y22920D01*
X87238Y22907D01*
X87251D01*
X87348Y22874D01*
X87439Y22842D01*
X87517Y22810D01*
X87582Y22771D01*
X87633Y22738D01*
X87679Y22706D01*
X87718Y22673D01*
X87750Y22648D01*
X87776Y22615D01*
X87789Y22589D01*
X87815Y22550D01*
X87821Y22524D01*
Y22511D01*
X87815Y22479D01*
X87808Y22440D01*
X87782Y22388D01*
X87763Y22350D01*
X87750Y22343D01*
Y22337D01*
X87724Y22311D01*
X87698Y22291D01*
X87640Y22265D01*
X87614D01*
X87594Y22259D01*
X87582D01*
X87575D01*
X87543D01*
X87504Y22272D01*
X87420Y22291D01*
X87381Y22304D01*
X87348Y22317D01*
X87322Y22324D01*
X87316Y22330D01*
X86927Y22473D01*
X85223Y22842D01*
X84400Y22991D01*
X84309Y23023D01*
X84245Y23062D01*
X84193Y23108D01*
X84160Y23153D01*
X84141Y23192D01*
X84134Y23224D01*
X84128Y23250D01*
Y23257D01*
X84141Y23289D01*
X84167Y23328D01*
X84212Y23373D01*
X84270Y23432D01*
X84342Y23490D01*
X84426Y23548D01*
X84594Y23671D01*
X84763Y23788D01*
X84847Y23840D01*
X84912Y23892D01*
X84977Y23931D01*
X85022Y23956D01*
X85048Y23976D01*
X85061Y23982D01*
X85307Y24138D01*
X85534Y24274D01*
X85644Y24332D01*
X85741Y24391D01*
X85832Y24449D01*
X85916Y24494D01*
X85994Y24540D01*
X86065Y24578D01*
X86124Y24611D01*
X86175Y24637D01*
X86214Y24663D01*
X86240Y24676D01*
X86260Y24682D01*
X86266Y24689D01*
X86292Y24766D01*
X86331Y24825D01*
X86370Y24870D01*
X86415Y24896D01*
X86454Y24915D01*
X86486Y24922D01*
X86512Y24928D01*
X86519D01*
X86577Y24922D01*
X86623Y24902D01*
X86655Y24889D01*
X86668Y24883D01*
X86804Y24948D01*
X86927Y25006D01*
X87037Y25051D01*
X87134Y25097D01*
X87219Y25129D01*
X87290Y25162D01*
X87355Y25188D01*
X87407Y25207D01*
X87452Y25220D01*
X87484Y25233D01*
X87510Y25239D01*
X87530Y25246D01*
X87556Y25252D01*
X87562D01*
X87601Y25246D01*
D02*
G37*
G36*
X86629Y21676D02*
X86720Y21669D01*
X86888Y21630D01*
X87037Y21578D01*
X87167Y21514D01*
X87225Y21481D01*
X87271Y21449D01*
X87316Y21423D01*
X87355Y21397D01*
X87381Y21378D01*
X87400Y21358D01*
X87413Y21352D01*
X87420Y21345D01*
X87491Y21280D01*
X87549Y21209D01*
X87601Y21138D01*
X87646Y21067D01*
X87679Y20989D01*
X87711Y20918D01*
X87756Y20788D01*
X87789Y20665D01*
X87795Y20619D01*
X87802Y20574D01*
X87808Y20542D01*
Y20490D01*
X87802Y20367D01*
X87782Y20244D01*
X87756Y20121D01*
X87718Y20004D01*
X87672Y19894D01*
X87627Y19784D01*
X87575Y19680D01*
X87517Y19589D01*
X87465Y19499D01*
X87413Y19421D01*
X87368Y19349D01*
X87322Y19291D01*
X87283Y19246D01*
X87258Y19207D01*
X87238Y19188D01*
X87232Y19181D01*
X87199Y19149D01*
X87167Y19123D01*
X87134Y19110D01*
X87102Y19097D01*
X87076Y19090D01*
X87057Y19084D01*
X87044D01*
X87037D01*
X87005D01*
X86966Y19097D01*
X86914Y19116D01*
X86875Y19142D01*
X86869Y19149D01*
X86862Y19155D01*
X86836Y19181D01*
X86810Y19213D01*
X86791Y19272D01*
X86785Y19298D01*
X86778Y19317D01*
Y19337D01*
X86785Y19369D01*
X86791Y19401D01*
X86830Y19466D01*
X86849Y19499D01*
X86862Y19524D01*
X86875Y19537D01*
X86882Y19544D01*
X86960Y19648D01*
X87018Y19738D01*
X87070Y19810D01*
X87109Y19874D01*
X87141Y19920D01*
X87160Y19952D01*
X87167Y19972D01*
X87173Y19978D01*
X87219Y20075D01*
X87251Y20166D01*
X87271Y20257D01*
X87283Y20328D01*
X87296Y20399D01*
X87303Y20445D01*
Y20490D01*
X87290Y20594D01*
X87264Y20691D01*
X87232Y20775D01*
X87186Y20846D01*
X87141Y20905D01*
X87109Y20950D01*
X87083Y20982D01*
X87070Y20989D01*
X86979Y21054D01*
X86888Y21105D01*
X86798Y21138D01*
X86713Y21164D01*
X86636Y21177D01*
X86577Y21183D01*
X86538Y21190D01*
X86532D01*
X86525D01*
X86402Y21183D01*
X86279Y21164D01*
X86156Y21138D01*
X86033Y21099D01*
X85916Y21054D01*
X85806Y21002D01*
X85696Y20950D01*
X85592Y20898D01*
X85495Y20846D01*
X85411Y20788D01*
X85333Y20743D01*
X85268Y20697D01*
X85216Y20658D01*
X85178Y20632D01*
X85152Y20613D01*
X85145Y20607D01*
X85048Y20529D01*
X84964Y20445D01*
X84893Y20373D01*
X84828Y20302D01*
X84776Y20231D01*
X84731Y20166D01*
X84698Y20108D01*
X84666Y20049D01*
X84627Y19952D01*
X84620Y19913D01*
X84607Y19881D01*
Y19848D01*
X84601Y19829D01*
Y19745D01*
X84607Y19693D01*
X84614Y19648D01*
Y19615D01*
X84620Y19589D01*
X84627Y19576D01*
X84633Y19563D01*
X84653Y19544D01*
X84679Y19518D01*
X84737Y19479D01*
X84769Y19460D01*
X84795Y19447D01*
X84815Y19434D01*
X84821D01*
X84880Y19401D01*
X84925Y19362D01*
X84957Y19324D01*
X84977Y19285D01*
X84990Y19252D01*
X85003Y19226D01*
Y19200D01*
X84996Y19155D01*
X84990Y19116D01*
X84957Y19058D01*
X84925Y19026D01*
X84918Y19013D01*
X84912D01*
X84854Y18980D01*
X84789Y18961D01*
X84769Y18954D01*
X84750D01*
X84737D01*
X84731D01*
X84627D01*
X84536Y18961D01*
X84452Y18967D01*
X84381Y18974D01*
X84322Y18987D01*
X84277Y18993D01*
X84251Y19000D01*
X84245D01*
X84167Y19019D01*
X84115Y19045D01*
X84076Y19084D01*
X84044Y19116D01*
X84031Y19149D01*
X84024Y19181D01*
X84018Y19200D01*
Y19207D01*
X84024Y19259D01*
X84037Y19304D01*
X84057Y19343D01*
X84083Y19375D01*
X84108Y19401D01*
X84128Y19421D01*
X84141Y19427D01*
X84147Y19434D01*
X84128Y19492D01*
X84115Y19544D01*
X84108Y19583D01*
Y19602D01*
X84102Y19673D01*
X84096Y19745D01*
Y19816D01*
X84102Y19926D01*
X84128Y20036D01*
X84160Y20140D01*
X84212Y20250D01*
X84264Y20347D01*
X84329Y20445D01*
X84394Y20535D01*
X84458Y20626D01*
X84530Y20704D01*
X84594Y20775D01*
X84659Y20833D01*
X84711Y20885D01*
X84763Y20931D01*
X84795Y20963D01*
X84821Y20982D01*
X84828Y20989D01*
X84990Y21112D01*
X85152Y21216D01*
X85307Y21313D01*
X85463Y21391D01*
X85605Y21455D01*
X85748Y21514D01*
X85884Y21559D01*
X86007Y21598D01*
X86117Y21624D01*
X86221Y21643D01*
X86312Y21663D01*
X86389Y21669D01*
X86448Y21676D01*
X86493Y21682D01*
X86519D01*
X86532D01*
X86629Y21676D01*
D02*
G37*
G36*
X87763Y18339D02*
X87834Y18319D01*
X87860Y18306D01*
X87880Y18300D01*
X87893Y18287D01*
X87899D01*
X87938Y18254D01*
X87970Y18216D01*
X87990Y18177D01*
X88009Y18144D01*
X88016Y18112D01*
X88022Y18086D01*
Y18060D01*
X88009Y17989D01*
X87983Y17937D01*
X87944Y17898D01*
X87899Y17872D01*
X87854Y17859D01*
X87815Y17846D01*
X87789D01*
X87776D01*
X86499D01*
X86461D01*
X87199Y17114D01*
X87316Y16991D01*
X87413Y16874D01*
X87504Y16764D01*
X87575Y16660D01*
X87640Y16563D01*
X87692Y16479D01*
X87737Y16401D01*
X87769Y16330D01*
X87802Y16265D01*
X87821Y16213D01*
X87834Y16162D01*
X87841Y16129D01*
X87847Y16097D01*
X87854Y16077D01*
Y16058D01*
X87847Y16019D01*
X87841Y15987D01*
X87802Y15928D01*
X87769Y15896D01*
X87763Y15883D01*
X87756D01*
X87705Y15851D01*
X87653Y15838D01*
X87614Y15831D01*
X87607D01*
X87601D01*
X87543Y15838D01*
X87491Y15863D01*
X87445Y15889D01*
X87413Y15928D01*
X87394Y15961D01*
X87374Y15993D01*
X87361Y16019D01*
Y16025D01*
X87316Y16142D01*
X87290Y16194D01*
X87258Y16239D01*
X87238Y16278D01*
X87219Y16304D01*
X87206Y16324D01*
X87199Y16330D01*
X86985Y16589D01*
X86882Y16706D01*
X86778Y16810D01*
X86687Y16907D01*
X86603Y16997D01*
X86519Y17082D01*
X86448Y17159D01*
X86383Y17224D01*
X86325Y17283D01*
X86273Y17341D01*
X86227Y17386D01*
X86188Y17425D01*
X86156Y17451D01*
X86130Y17477D01*
X86111Y17496D01*
X86104Y17503D01*
X86098Y17509D01*
X85923Y17334D01*
X85754Y17172D01*
X85599Y17017D01*
X85456Y16881D01*
X85391Y16822D01*
X85333Y16771D01*
X85281Y16725D01*
X85242Y16686D01*
X85204Y16654D01*
X85178Y16628D01*
X85165Y16615D01*
X85158Y16609D01*
X85035Y16498D01*
X84918Y16401D01*
X84821Y16317D01*
X84731Y16239D01*
X84646Y16181D01*
X84575Y16129D01*
X84517Y16084D01*
X84465Y16051D01*
X84420Y16025D01*
X84387Y16006D01*
X84355Y15993D01*
X84335Y15980D01*
X84303Y15974D01*
X84296D01*
X84258D01*
X84219Y15987D01*
X84167Y16013D01*
X84128Y16038D01*
X84115Y16045D01*
Y16051D01*
X84089Y16084D01*
X84070Y16110D01*
X84044Y16168D01*
X84037Y16207D01*
Y16226D01*
X84044Y16265D01*
X84050Y16298D01*
X84083Y16356D01*
X84121Y16395D01*
X84128Y16401D01*
X84134Y16408D01*
X84951Y17108D01*
X85119Y17257D01*
X85275Y17399D01*
X85404Y17522D01*
X85521Y17632D01*
X85612Y17723D01*
X85677Y17788D01*
X85702Y17814D01*
X85722Y17833D01*
X85728Y17840D01*
X85735Y17846D01*
X85631D01*
X85515D01*
X85391Y17840D01*
X85268D01*
X85165Y17833D01*
X85119D01*
X85074D01*
X85042Y17827D01*
X85016D01*
X85003D01*
X84996D01*
X84821Y17820D01*
X84666Y17814D01*
X84536Y17807D01*
X84432Y17801D01*
X84355D01*
X84296D01*
X84264D01*
X84251D01*
X84212D01*
X84180Y17814D01*
X84121Y17833D01*
X84089Y17859D01*
X84076Y17866D01*
Y17872D01*
X84050Y17898D01*
X84031Y17930D01*
X84005Y17989D01*
Y18008D01*
X83998Y18028D01*
Y18086D01*
X84011Y18118D01*
X84037Y18170D01*
X84063Y18209D01*
X84070Y18216D01*
X84076Y18222D01*
X84134Y18261D01*
X84193Y18280D01*
X84212D01*
X84232Y18287D01*
X84245D01*
X84251D01*
X84368D01*
X84491D01*
X84620D01*
X84763Y18293D01*
X85048Y18300D01*
X85191D01*
X85327D01*
X85456Y18306D01*
X85579D01*
X85683Y18313D01*
X85780D01*
X85858Y18319D01*
X85916D01*
X85955D01*
X85962D01*
X85968D01*
X86175Y18326D01*
X86370Y18332D01*
X86551D01*
X86720Y18339D01*
X86869D01*
X87011Y18345D01*
X87141D01*
X87251D01*
X87355Y18352D01*
X87445D01*
X87517D01*
X87575D01*
X87627D01*
X87659D01*
X87679D01*
X87685D01*
X87763Y18339D01*
D02*
G37*
%LPC*%
G36*
X85800Y35283D02*
X84847Y35231D01*
X84413Y35224D01*
X84407Y35179D01*
X84400Y35121D01*
X84394Y34998D01*
Y34855D01*
X84400Y34751D01*
X84426Y34648D01*
X84458Y34557D01*
X84491Y34473D01*
X84530Y34408D01*
X84562Y34356D01*
X84588Y34324D01*
X84594Y34311D01*
X84672Y34227D01*
X84750Y34162D01*
X84821Y34116D01*
X84886Y34084D01*
X84944Y34065D01*
X84990Y34058D01*
X85016Y34052D01*
X85029D01*
X85152Y34065D01*
X85262Y34090D01*
X85366Y34129D01*
X85443Y34175D01*
X85508Y34227D01*
X85560Y34265D01*
X85586Y34291D01*
X85599Y34304D01*
X85664Y34401D01*
X85722Y34499D01*
X85761Y34602D01*
X85787Y34700D01*
X85806Y34784D01*
X85819Y34849D01*
Y34874D01*
X85826Y34894D01*
Y34985D01*
X85819Y35043D01*
X85813Y35108D01*
X85806Y35173D01*
Y35231D01*
X85800Y35270D01*
Y35283D01*
D02*
G37*
G36*
X87361Y35328D02*
X86862D01*
X86772D01*
X86674D01*
X86584Y35322D01*
X86499D01*
X86422D01*
X86363Y35315D01*
X86325D01*
X86318D01*
X86312D01*
X86325Y35211D01*
Y35160D01*
X86331Y35121D01*
Y34939D01*
X86325Y34894D01*
Y34842D01*
X86370Y34583D01*
X86415Y34421D01*
X86441Y34343D01*
X86467Y34272D01*
X86493Y34214D01*
X86512Y34168D01*
X86525Y34142D01*
X86532Y34129D01*
X86558Y34071D01*
X86584Y34026D01*
X86610Y33980D01*
X86629Y33948D01*
X86674Y33890D01*
X86713Y33851D01*
X86746Y33831D01*
X86772Y33818D01*
X86785Y33812D01*
X86791D01*
X86817Y33818D01*
X86849Y33838D01*
X86882Y33857D01*
X86908Y33883D01*
X86934Y33915D01*
X86960Y33935D01*
X86972Y33954D01*
X86979Y33961D01*
X87031Y34019D01*
X87070Y34077D01*
X87109Y34136D01*
X87134Y34188D01*
X87160Y34227D01*
X87173Y34265D01*
X87180Y34285D01*
X87186Y34291D01*
X87238Y34453D01*
X87277Y34622D01*
X87309Y34797D01*
X87329Y34959D01*
X87342Y35036D01*
X87348Y35108D01*
X87355Y35166D01*
Y35224D01*
X87361Y35270D01*
Y35328D01*
D02*
G37*
G36*
X86720Y32516D02*
X86694D01*
X86674D01*
X86661D01*
X86655D01*
X86506Y32503D01*
X86370Y32471D01*
X86247Y32432D01*
X86143Y32380D01*
X86052Y32328D01*
X85988Y32289D01*
X85968Y32270D01*
X85949Y32257D01*
X85942Y32244D01*
X85936D01*
X85884Y32192D01*
X85832Y32140D01*
X85754Y32023D01*
X85702Y31920D01*
X85664Y31816D01*
X85638Y31725D01*
X85631Y31654D01*
X85625Y31628D01*
Y31589D01*
X85631Y31557D01*
X85638Y31525D01*
X85644Y31499D01*
X85651Y31486D01*
X85670Y31434D01*
X85690Y31382D01*
X85709Y31343D01*
X85715Y31337D01*
Y31330D01*
X85819Y31350D01*
X85864Y31356D01*
X85903D01*
X85936Y31363D01*
X85962Y31369D01*
X85975D01*
X85981D01*
X86065Y31376D01*
X86143Y31382D01*
X86169D01*
X86188D01*
X86201D01*
X86208D01*
X86273D01*
X86344Y31376D01*
X86499Y31369D01*
X86661Y31356D01*
X86817Y31343D01*
X86895Y31337D01*
X86960Y31330D01*
X87024Y31324D01*
X87076Y31317D01*
X87121Y31311D01*
X87160Y31304D01*
X87180D01*
X87186D01*
X87232Y31363D01*
X87271Y31414D01*
X87303Y31453D01*
X87329Y31492D01*
X87348Y31518D01*
X87361Y31538D01*
X87368Y31550D01*
Y31557D01*
X87394Y31622D01*
X87413Y31687D01*
X87433Y31751D01*
X87439Y31816D01*
X87445Y31868D01*
X87452Y31913D01*
Y31952D01*
X87445Y32049D01*
X87420Y32140D01*
X87387Y32211D01*
X87348Y32270D01*
X87316Y32322D01*
X87283Y32354D01*
X87258Y32373D01*
X87251Y32380D01*
X87167Y32425D01*
X87076Y32458D01*
X86972Y32484D01*
X86875Y32496D01*
X86791Y32509D01*
X86720Y32516D01*
D02*
G37*
G36*
X85819Y27449D02*
X84834Y27397D01*
X84387Y27391D01*
X84381Y27345D01*
X84374Y27300D01*
X84368Y27261D01*
Y27248D01*
X84361Y27183D01*
Y27060D01*
X84368Y26944D01*
X84387Y26833D01*
X84420Y26736D01*
X84452Y26645D01*
X84491Y26574D01*
X84517Y26516D01*
X84543Y26483D01*
X84549Y26471D01*
X84588Y26419D01*
X84627Y26373D01*
X84705Y26296D01*
X84782Y26244D01*
X84860Y26211D01*
X84925Y26185D01*
X84977Y26179D01*
X85009Y26172D01*
X85016D01*
X85022D01*
X85093Y26179D01*
X85158Y26185D01*
X85281Y26218D01*
X85385Y26270D01*
X85476Y26328D01*
X85547Y26386D01*
X85599Y26432D01*
X85625Y26471D01*
X85638Y26477D01*
Y26483D01*
X85709Y26594D01*
X85754Y26710D01*
X85793Y26827D01*
X85819Y26937D01*
X85832Y27034D01*
X85839Y27080D01*
Y27112D01*
X85845Y27144D01*
Y27183D01*
X85819Y27449D01*
D02*
G37*
G36*
X86156Y24080D02*
X85029Y23380D01*
X85968Y23179D01*
X85988Y23289D01*
X86007Y23393D01*
X86026Y23483D01*
X86046Y23574D01*
X86059Y23652D01*
X86078Y23730D01*
X86091Y23794D01*
X86104Y23853D01*
X86117Y23905D01*
X86124Y23956D01*
X86137Y23989D01*
X86143Y24021D01*
X86150Y24047D01*
Y24067D01*
X86156Y24073D01*
Y24080D01*
D02*
G37*
%LPD*%
D10*
X68522Y24000D02*
G03*
X68522Y24000I-4510J0D01*
G01*
X68522Y68579D02*
G03*
X68522Y68579I-4510J0D01*
G01*
X37022Y24000D02*
G03*
X37022Y24000I-4510J0D01*
G01*
X37052Y68579D02*
G03*
X37052Y68579I-4540J0D01*
G01*
X37022Y46179D02*
G03*
X37022Y46179I-4510J0D01*
G01*
X68522D02*
G03*
X68522Y46179I-4510J0D01*
G01*
X2691Y26512D02*
Y38512D01*
Y26512D02*
X7691D01*
Y38512D01*
X2691D02*
X7691D01*
X3323Y64599D02*
X9323D01*
X3323D02*
Y70599D01*
X9323D01*
Y64599D02*
Y70599D01*
X84265Y64421D02*
Y70421D01*
X90265D01*
Y64421D02*
Y70421D01*
X84265Y64421D02*
X90265D01*
X90830Y37846D02*
X89307D01*
X89815Y37338D01*
X89307Y36830D01*
X90830D01*
X89561Y35307D02*
X89307Y35561D01*
Y36069D01*
X89561Y36322D01*
X90576D01*
X90830Y36069D01*
Y35561D01*
X90576Y35307D01*
X89561Y33783D02*
X89307Y34037D01*
Y34545D01*
X89561Y34799D01*
X90576D01*
X90830Y34545D01*
Y34037D01*
X90576Y33783D01*
X90069D01*
Y34291D01*
X89307Y33275D02*
Y32768D01*
Y33022D01*
X90830D01*
Y33275D01*
Y32768D01*
X89307Y32006D02*
X90830D01*
Y30990D01*
X89307Y30482D02*
X90830D01*
Y29467D01*
X89561Y26420D02*
X89307Y26674D01*
Y27181D01*
X89561Y27435D01*
X89815D01*
X90069Y27181D01*
Y26674D01*
X90323Y26420D01*
X90576D01*
X90830Y26674D01*
Y27181D01*
X90576Y27435D01*
X90830Y25912D02*
X89307D01*
Y25150D01*
X89561Y24896D01*
X90069D01*
X90323Y25150D01*
Y25912D01*
X90830Y24388D02*
X89815D01*
X89307Y23881D01*
X89815Y23373D01*
X90830D01*
X90069D01*
Y24388D01*
X89561Y21849D02*
X89307Y22103D01*
Y22611D01*
X89561Y22865D01*
X90576D01*
X90830Y22611D01*
Y22103D01*
X90576Y21849D01*
X89307Y20326D02*
Y21341D01*
X90830D01*
Y20326D01*
X90069Y21341D02*
Y20833D01*
X89561Y17279D02*
X89307Y17533D01*
Y18040D01*
X89561Y18294D01*
X90576D01*
X90830Y18040D01*
Y17533D01*
X90576Y17279D01*
X90069D01*
Y17786D01*
X90830Y16771D02*
X89307D01*
Y16009D01*
X89561Y15755D01*
X90069D01*
X90323Y16009D01*
Y16771D01*
Y16263D02*
X90830Y15755D01*
X89307Y14486D02*
Y14993D01*
X89561Y15247D01*
X90576D01*
X90830Y14993D01*
Y14486D01*
X90576Y14232D01*
X89561D01*
X89307Y14486D01*
Y13724D02*
X90576D01*
X90830Y13470D01*
Y12962D01*
X90576Y12708D01*
X89307D01*
X90830Y12200D02*
X89307D01*
Y11439D01*
X89561Y11185D01*
X90069D01*
X90323Y11439D01*
Y12200D01*
D28*
X90901Y58420D02*
G03*
X90901Y58420I-125J0D01*
G01*
X86888Y58388D02*
G03*
X86888Y58388I-125J0D01*
G01*
X49986Y49062D02*
G03*
X49986Y49062I-125J0D01*
G01*
X53747Y26611D02*
G03*
X53747Y26611I-125J0D01*
G01*
X47847Y26761D02*
G03*
X47847Y26761I-125J0D01*
G01*
X47135Y71929D02*
G03*
X47135Y71929I-125J0D01*
G01*
D29*
X2769Y47320D02*
X3556D01*
X4674D02*
X5613D01*
X6198D02*
X7264D01*
X7544D02*
X8306D01*
X2769Y47346D02*
X3658D01*
X4572D02*
X5613D01*
X6121D02*
X7264D01*
X7544D02*
X8407D01*
X2769Y47371D02*
X3708D01*
X4521D02*
X5613D01*
X6071D02*
X7264D01*
X7544D02*
X8458D01*
X2769Y47396D02*
X3759D01*
X4470D02*
X5613D01*
X6020D02*
X7264D01*
X7544D02*
X8509D01*
X2769Y47422D02*
X3785D01*
X4445D02*
X5613D01*
X5994D02*
X7264D01*
X7544D02*
X8560D01*
X2769Y47447D02*
X3835D01*
X4394D02*
X5613D01*
X5969D02*
X7264D01*
X7544D02*
X8585D01*
X2769Y47473D02*
X3861D01*
X4369D02*
X5613D01*
X5944D02*
X7264D01*
X7544D02*
X8611D01*
X2769Y47498D02*
X3886D01*
X4343D02*
X5613D01*
X5918D02*
X7264D01*
X7544D02*
X8636D01*
X2769Y47523D02*
X3912D01*
X4318D02*
X5613D01*
X5918D02*
X7264D01*
X7544D02*
X8661D01*
X2769Y47549D02*
X3912D01*
X4318D02*
X5613D01*
X5893D02*
X7264D01*
X7544D02*
X8661D01*
X3378Y47574D02*
X3937D01*
X4293D02*
X4851D01*
X5283D02*
X5613D01*
X5893D02*
X7264D01*
X8128D02*
X8687D01*
X3505Y47600D02*
X3962D01*
X4267D02*
X4724D01*
X5283D02*
X5613D01*
X5893D02*
X6299D01*
X8255D02*
X8712D01*
X3556Y47625D02*
X3962D01*
X4267D02*
X4674D01*
X5283D02*
X5613D01*
X5867D02*
X6248D01*
X8306D02*
X8712D01*
X3581Y47650D02*
X3988D01*
X4242D02*
X4648D01*
X5283D02*
X5613D01*
X5867D02*
X6223D01*
X8331D02*
X8738D01*
X3607Y47676D02*
X3988D01*
X4242D02*
X4623D01*
X5283D02*
X5613D01*
X5867D02*
X6223D01*
X6579D02*
X6680D01*
X8357D02*
X8738D01*
X3632Y47701D02*
X3988D01*
X4242D02*
X4597D01*
X5283D02*
X5613D01*
X5867D02*
X6223D01*
X6528D02*
X6629D01*
X8382D02*
X8763D01*
X3632Y47727D02*
X4013D01*
X4216D02*
X4597D01*
X5283D02*
X5613D01*
X5867D02*
X6198D01*
X6477D02*
X6604D01*
X8407D02*
X8763D01*
X3658Y47752D02*
X4013D01*
X4216D02*
X4572D01*
X5283D02*
X5613D01*
X5867D02*
X6198D01*
X6426D02*
X6579D01*
X8407D02*
X8763D01*
X3658Y47777D02*
X4013D01*
X4216D02*
X4572D01*
X5283D02*
X5613D01*
X5867D02*
X6198D01*
X6401D02*
X6553D01*
X8407D02*
X8763D01*
X3658Y47803D02*
X4039D01*
X4191D02*
X4572D01*
X5283D02*
X5613D01*
X5867D02*
X6198D01*
X6350D02*
X6528D01*
X8433D02*
X8788D01*
X3683Y47828D02*
X4039D01*
X4191D02*
X4547D01*
X5283D02*
X5613D01*
X5867D02*
X6223D01*
X6299D02*
X6502D01*
X8433D02*
X8788D01*
X3683Y47854D02*
X4039D01*
X4191D02*
X4547D01*
X5283D02*
X5613D01*
X5867D02*
X6223D01*
X6375D02*
X6477D01*
X8433D02*
X8788D01*
X3683Y47879D02*
X4039D01*
X4191D02*
X4547D01*
X5283D02*
X5613D01*
X5867D02*
X6248D01*
X8433D02*
X8788D01*
X3683Y47904D02*
X4039D01*
X4191D02*
X4547D01*
X5283D02*
X5613D01*
X5867D02*
X6274D01*
X8433D02*
X8788D01*
X3683Y47930D02*
X4039D01*
X4191D02*
X4547D01*
X5283D02*
X5613D01*
X5893D02*
X6375D01*
X8433D02*
X8788D01*
X3683Y47955D02*
X4039D01*
X4191D02*
X4547D01*
X5283D02*
X5613D01*
X5893D02*
X7036D01*
X8458D02*
X8814D01*
X3683Y47981D02*
X4039D01*
X4191D02*
X4547D01*
X5283D02*
X5613D01*
X5893D02*
X7112D01*
X8458D02*
X8814D01*
X3683Y48006D02*
X4064D01*
X4191D02*
X4547D01*
X5283D02*
X5613D01*
X5918D02*
X7163D01*
X8458D02*
X8814D01*
X3683Y48031D02*
X4064D01*
X4191D02*
X4547D01*
X5283D02*
X5613D01*
X5918D02*
X7214D01*
X8458D02*
X8814D01*
X3683Y48057D02*
X4064D01*
X4191D02*
X4547D01*
X5283D02*
X5613D01*
X5944D02*
X7239D01*
X8458D02*
X8814D01*
X3683Y48082D02*
X4064D01*
X4191D02*
X4547D01*
X5283D02*
X5613D01*
X5969D02*
X7264D01*
X8458D02*
X8814D01*
X3683Y48108D02*
X4064D01*
X4191D02*
X4547D01*
X5283D02*
X5613D01*
X5994D02*
X7264D01*
X8458D02*
X8814D01*
X3683Y48133D02*
X4039D01*
X4191D02*
X4547D01*
X5283D02*
X5613D01*
X5867D02*
X5893D01*
X6020D02*
X7290D01*
X8458D02*
X8814D01*
X3683Y48158D02*
X4039D01*
X4191D02*
X4547D01*
X5283D02*
X5613D01*
X5817D02*
X5918D01*
X6071D02*
X7290D01*
X8433D02*
X8814D01*
X3683Y48184D02*
X4039D01*
X4191D02*
X4547D01*
X5283D02*
X5613D01*
X5791D02*
X5969D01*
X6147D02*
X7315D01*
X8433D02*
X8788D01*
X3683Y48209D02*
X4039D01*
X4191D02*
X4547D01*
X5283D02*
X5613D01*
X5766D02*
X5994D01*
X6858D02*
X7315D01*
X8433D02*
X8788D01*
X3683Y48235D02*
X4039D01*
X4191D02*
X4547D01*
X5283D02*
X5613D01*
X5740D02*
X6045D01*
X6934D02*
X7315D01*
X8433D02*
X8788D01*
X3683Y48260D02*
X4039D01*
X4191D02*
X4547D01*
X5283D02*
X5613D01*
X5715D02*
X6071D01*
X6960D02*
X7341D01*
X8433D02*
X8788D01*
X3683Y48285D02*
X4039D01*
X4191D02*
X4547D01*
X5283D02*
X5613D01*
X5690D02*
X6045D01*
X6985D02*
X7341D01*
X8433D02*
X8788D01*
X3658Y48311D02*
X4039D01*
X4191D02*
X4547D01*
X5283D02*
X5613D01*
X5690D02*
X6020D01*
X6985D02*
X7341D01*
X8433D02*
X8788D01*
X3658Y48336D02*
X4013D01*
X4216D02*
X4572D01*
X5283D02*
X5613D01*
X5690D02*
X5994D01*
X6985D02*
X7341D01*
X8407D02*
X8788D01*
X3658Y48362D02*
X4013D01*
X4216D02*
X4572D01*
X5283D02*
X5613D01*
X5690D02*
X5969D01*
X6985D02*
X7341D01*
X8407D02*
X8763D01*
X3632Y48387D02*
X4013D01*
X4216D02*
X4572D01*
X5283D02*
X5613D01*
X5690D02*
X5944D01*
X6985D02*
X7341D01*
X8407D02*
X8763D01*
X3632Y48412D02*
X4013D01*
X4216D02*
X4572D01*
X5283D02*
X5613D01*
X5690D02*
X5918D01*
X6985D02*
X7341D01*
X8382D02*
X8763D01*
X3607Y48438D02*
X3988D01*
X4242D02*
X4597D01*
X5283D02*
X5613D01*
X5690D02*
X5918D01*
X6985D02*
X7341D01*
X8382D02*
X8763D01*
X3607Y48463D02*
X3988D01*
X4242D02*
X4623D01*
X5283D02*
X5613D01*
X5690D02*
X5893D01*
X6985D02*
X7341D01*
X8357D02*
X8738D01*
X9550D02*
X9627D01*
X3581Y48489D02*
X3988D01*
X4242D02*
X4623D01*
X5283D02*
X5613D01*
X5690D02*
X5867D01*
X6960D02*
X7341D01*
X8331D02*
X8738D01*
X9423D02*
X9550D01*
X3556Y48514D02*
X3962D01*
X4267D02*
X4648D01*
X5283D02*
X5613D01*
X5690D02*
X5842D01*
X6960D02*
X7315D01*
X8306D02*
X8712D01*
X9296D02*
X9474D01*
X3531Y48539D02*
X3962D01*
X4267D02*
X4699D01*
X5283D02*
X5613D01*
X5690D02*
X5817D01*
X6909D02*
X7315D01*
X8280D02*
X8712D01*
X9195D02*
X9398D01*
X3480Y48565D02*
X3937D01*
X4293D02*
X4750D01*
X5283D02*
X5613D01*
X5690D02*
X5791D01*
X6858D02*
X7315D01*
X8230D02*
X8687D01*
X9068D02*
X9322D01*
X2794Y48590D02*
X3937D01*
X4293D02*
X5613D01*
X5690D02*
X5791D01*
X5944D02*
X7315D01*
X7544D02*
X8687D01*
X8966D02*
X9246D01*
X2769Y48616D02*
X3912D01*
X4318D02*
X5613D01*
X5690D02*
X5766D01*
X5944D02*
X7290D01*
X7544D02*
X8661D01*
X8865D02*
X9169D01*
X2769Y48641D02*
X3886D01*
X4343D02*
X5613D01*
X5690D02*
X5740D01*
X5944D02*
X7290D01*
X7544D02*
X8636D01*
X8763D02*
X9093D01*
X2769Y48666D02*
X3861D01*
X4369D02*
X5613D01*
X5690D02*
X5715D01*
X5944D02*
X7264D01*
X7544D02*
X8611D01*
X8712D02*
X9017D01*
X2769Y48692D02*
X3835D01*
X4394D02*
X5613D01*
X5944D02*
X7264D01*
X7544D02*
X8585D01*
X8687D02*
X8941D01*
X2769Y48717D02*
X3810D01*
X4420D02*
X5613D01*
X5944D02*
X7239D01*
X7544D02*
X8560D01*
X8661D02*
X8865D01*
X2769Y48743D02*
X3785D01*
X4445D02*
X5613D01*
X5944D02*
X7214D01*
X7544D02*
X8534D01*
X8636D02*
X8788D01*
X2769Y48768D02*
X3734D01*
X4496D02*
X5613D01*
X5944D02*
X7163D01*
X7544D02*
X8484D01*
X8611D02*
X8712D01*
X2769Y48793D02*
X3683D01*
X4547D02*
X5613D01*
X5944D02*
X7137D01*
X7544D02*
X8433D01*
X8585D02*
X8636D01*
X2769Y48819D02*
X3607D01*
X4623D02*
X5613D01*
X5944D02*
X7061D01*
X7544D02*
X8357D01*
X2769Y48844D02*
X3480D01*
X4750D02*
X5613D01*
X5944D02*
X6934D01*
X7544D02*
X8230D01*
X1397Y48895D02*
X1422D01*
X3607D02*
X3632D01*
X1397Y48920D02*
X1473D01*
X3480D02*
X3734D01*
X8230D02*
X8255D01*
X1372Y48946D02*
X1524D01*
X3353D02*
X3835D01*
X5080D02*
X5512D01*
X7798D02*
X8230D01*
X1372Y48971D02*
X1575D01*
X3429D02*
X3937D01*
X5080D02*
X5512D01*
X7722D02*
X8179D01*
X1346Y48997D02*
X1626D01*
X3480D02*
X4064D01*
X5055D02*
X5486D01*
X7671D02*
X8153D01*
X1346Y49022D02*
X1676D01*
X3531D02*
X4191D01*
X5029D02*
X5486D01*
X7620D02*
X8128D01*
X1346Y49047D02*
X1727D01*
X3556D02*
X4343D01*
X5029D02*
X5461D01*
X7544D02*
X8128D01*
X1321Y49073D02*
X1778D01*
X3581D02*
X4547D01*
X5004D02*
X5436D01*
X7493D02*
X8128D01*
X10338D02*
X10414D01*
X1321Y49098D02*
X1829D01*
X3581D02*
X5436D01*
X7442D02*
X8128D01*
X10287D02*
X10414D01*
X1295Y49124D02*
X1880D01*
X3607D02*
X5410D01*
X7366D02*
X8128D01*
X10236D02*
X10439D01*
X1295Y49149D02*
X1930D01*
X3607D02*
X5385D01*
X7315D02*
X8153D01*
X10185D02*
X10439D01*
X1295Y49174D02*
X1981D01*
X3581D02*
X5385D01*
X7264D02*
X8179D01*
X10135D02*
X10439D01*
X1270Y49200D02*
X2032D01*
X3556D02*
X5359D01*
X7214D02*
X8204D01*
X10058D02*
X10465D01*
X1270Y49225D02*
X2083D01*
X3404D02*
X5359D01*
X7163D02*
X8357D01*
X10008D02*
X10465D01*
X1245Y49251D02*
X2057D01*
X3302D02*
X5334D01*
X7112D02*
X8484D01*
X9957D02*
X10490D01*
X1245Y49276D02*
X2057D01*
X3251D02*
X5334D01*
X7061D02*
X8534D01*
X9906D02*
X10490D01*
X1245Y49301D02*
X2032D01*
X3226D02*
X5309D01*
X7010D02*
X8560D01*
X9855D02*
X10490D01*
X1219Y49327D02*
X2032D01*
X3175D02*
X5309D01*
X6985D02*
X8585D01*
X9804D02*
X10516D01*
X1219Y49352D02*
X2007D01*
X3175D02*
X5283D01*
X6934D02*
X8611D01*
X9728D02*
X10516D01*
X1219Y49378D02*
X2007D01*
X3150D02*
X5283D01*
X6883D02*
X8636D01*
X9728D02*
X10516D01*
X1194Y49403D02*
X2007D01*
X3124D02*
X5258D01*
X6858D02*
X8636D01*
X9728D02*
X10541D01*
X1194Y49428D02*
X1981D01*
X3124D02*
X5258D01*
X6807D02*
X8661D01*
X9754D02*
X10541D01*
X1194Y49454D02*
X1981D01*
X3124D02*
X5232D01*
X6756D02*
X8661D01*
X9754D02*
X10541D01*
X1168Y49479D02*
X1981D01*
X3099D02*
X5232D01*
X6731D02*
X8661D01*
X9754D02*
X10566D01*
X1168Y49505D02*
X1956D01*
X3099D02*
X5207D01*
X6680D02*
X8687D01*
X9779D02*
X10566D01*
X1168Y49530D02*
X1956D01*
X3099D02*
X5207D01*
X6655D02*
X8687D01*
X9779D02*
X10566D01*
X1143Y49555D02*
X1930D01*
X3099D02*
X5182D01*
X6604D02*
X8687D01*
X9779D02*
X10566D01*
X1143Y49581D02*
X1930D01*
X3073D02*
X5182D01*
X6579D02*
X8712D01*
X9804D02*
X10592D01*
X1143Y49606D02*
X1930D01*
X3023D02*
X5156D01*
X6528D02*
X8763D01*
X9804D02*
X10592D01*
X1143Y49632D02*
X1905D01*
X2972D02*
X5156D01*
X6502D02*
X8814D01*
X9804D02*
X10592D01*
X1118Y49657D02*
X1905D01*
X2921D02*
X5156D01*
X6477D02*
X8865D01*
X9830D02*
X10617D01*
X1118Y49682D02*
X1905D01*
X2896D02*
X5131D01*
X6426D02*
X8890D01*
X9830D02*
X10617D01*
X1118Y49708D02*
X1880D01*
X2845D02*
X5131D01*
X6401D02*
X8941D01*
X9830D02*
X10617D01*
X1092Y49733D02*
X1880D01*
X2819D02*
X5105D01*
X6375D02*
X8966D01*
X9855D02*
X10617D01*
X1092Y49759D02*
X1880D01*
X2769D02*
X5105D01*
X6350D02*
X8992D01*
X9855D02*
X10643D01*
X1092Y49784D02*
X1880D01*
X2743D02*
X5105D01*
X6325D02*
X9042D01*
X9855D02*
X10643D01*
X1092Y49809D02*
X1854D01*
X2718D02*
X5080D01*
X6274D02*
X9068D01*
X9881D02*
X10643D01*
X1067Y49835D02*
X1854D01*
X2692D02*
X5080D01*
X6248D02*
X9093D01*
X9881D02*
X10643D01*
X1067Y49860D02*
X1854D01*
X2642D02*
X5080D01*
X6223D02*
X9119D01*
X9881D02*
X10668D01*
X1067Y49886D02*
X1829D01*
X2616D02*
X5055D01*
X6198D02*
X9144D01*
X9881D02*
X10668D01*
X1067Y49911D02*
X1829D01*
X2591D02*
X5055D01*
X6172D02*
X9195D01*
X9906D02*
X10668D01*
X1067Y49936D02*
X1829D01*
X2565D02*
X5055D01*
X6147D02*
X9220D01*
X9906D02*
X10668D01*
X1041Y49962D02*
X1829D01*
X2540D02*
X5029D01*
X6121D02*
X9246D01*
X9906D02*
X10668D01*
X1041Y49987D02*
X1803D01*
X2515D02*
X5029D01*
X6096D02*
X9246D01*
X9906D02*
X10693D01*
X1041Y50013D02*
X1803D01*
X2515D02*
X5029D01*
X6071D02*
X9271D01*
X9931D02*
X10693D01*
X1041Y50038D02*
X1803D01*
X2515D02*
X5029D01*
X6045D02*
X9271D01*
X9931D02*
X10693D01*
X1041Y50063D02*
X1803D01*
X2515D02*
X5004D01*
X6020D02*
X9271D01*
X9931D02*
X10693D01*
X1016Y50089D02*
X1803D01*
X2540D02*
X5004D01*
X5994D02*
X9246D01*
X9931D02*
X10693D01*
X1016Y50114D02*
X1778D01*
X2565D02*
X5004D01*
X5969D02*
X9220D01*
X9957D02*
X10719D01*
X1016Y50140D02*
X1778D01*
X2642D02*
X5004D01*
X5969D02*
X9144D01*
X9957D02*
X10719D01*
X1016Y50165D02*
X1778D01*
X2692D02*
X4978D01*
X5944D02*
X9093D01*
X9957D02*
X10719D01*
X1016Y50190D02*
X1778D01*
X2718D02*
X4978D01*
X5918D02*
X9068D01*
X9957D02*
X10719D01*
X1016Y50216D02*
X1778D01*
X2743D02*
X4978D01*
X5893D02*
X9042D01*
X9957D02*
X10719D01*
X991Y50241D02*
X1753D01*
X2743D02*
X4978D01*
X5867D02*
X9017D01*
X9957D02*
X10719D01*
X991Y50267D02*
X1753D01*
X2769D02*
X4953D01*
X5867D02*
X9017D01*
X9982D02*
X10744D01*
X991Y50292D02*
X1753D01*
X2769D02*
X4953D01*
X5842D02*
X9017D01*
X9982D02*
X10744D01*
X991Y50317D02*
X1753D01*
X2769D02*
X4953D01*
X5817D02*
X9017D01*
X9982D02*
X10744D01*
X991Y50343D02*
X1753D01*
X2769D02*
X4953D01*
X5817D02*
X9017D01*
X9982D02*
X10744D01*
X991Y50368D02*
X1753D01*
X2743D02*
X4953D01*
X5791D02*
X9017D01*
X9982D02*
X10744D01*
X991Y50394D02*
X1727D01*
X2718D02*
X4953D01*
X5766D02*
X9042D01*
X9982D02*
X10744D01*
X991Y50419D02*
X1727D01*
X2692D02*
X4953D01*
X5766D02*
X9068D01*
X10008D02*
X10744D01*
X991Y50444D02*
X1727D01*
X2692D02*
X4928D01*
X5740D02*
X9093D01*
X10008D02*
X10744D01*
X965Y50470D02*
X1727D01*
X2667D02*
X4928D01*
X5715D02*
X9119D01*
X10008D02*
X10744D01*
X965Y50495D02*
X1727D01*
X2642D02*
X4928D01*
X5715D02*
X9144D01*
X10008D02*
X10770D01*
X965Y50521D02*
X1727D01*
X2642D02*
X4928D01*
X5690D02*
X9144D01*
X10008D02*
X10770D01*
X965Y50546D02*
X1727D01*
X2616D02*
X4928D01*
X5690D02*
X9169D01*
X10008D02*
X10770D01*
X965Y50571D02*
X1727D01*
X2616D02*
X4928D01*
X5664D02*
X9169D01*
X10008D02*
X10770D01*
X965Y50597D02*
X1727D01*
X2616D02*
X4928D01*
X5664D02*
X6680D01*
X6706D02*
X9169D01*
X10008D02*
X10770D01*
X965Y50622D02*
X1727D01*
X2616D02*
X4928D01*
X5639D02*
X6680D01*
X6706D02*
X9169D01*
X10008D02*
X10770D01*
X965Y50648D02*
X1702D01*
X2616D02*
X4928D01*
X5639D02*
X6680D01*
X6706D02*
X9169D01*
X10008D02*
X10770D01*
X965Y50673D02*
X1702D01*
X2616D02*
X4928D01*
X5613D02*
X6655D01*
X6706D02*
X9144D01*
X10008D02*
X10770D01*
X965Y50698D02*
X1702D01*
X2642D02*
X4928D01*
X5613D02*
X6655D01*
X6706D02*
X9144D01*
X10033D02*
X10770D01*
X965Y50724D02*
X1702D01*
X2642D02*
X4928D01*
X5588D02*
X6655D01*
X6706D02*
X9144D01*
X10033D02*
X10770D01*
X965Y50749D02*
X1702D01*
X2642D02*
X4928D01*
X5588D02*
X6629D01*
X6731D02*
X9144D01*
X10033D02*
X10770D01*
X965Y50775D02*
X1702D01*
X2616D02*
X4928D01*
X5563D02*
X6604D01*
X6782D02*
X9169D01*
X10033D02*
X10770D01*
X965Y50800D02*
X1702D01*
X2591D02*
X4928D01*
X5563D02*
X6477D01*
X6883D02*
X9195D01*
X10033D02*
X10770D01*
X965Y50825D02*
X1702D01*
X2565D02*
X4928D01*
X5563D02*
X6579D01*
X6756D02*
X9220D01*
X10033D02*
X10770D01*
X965Y50851D02*
X1702D01*
X2540D02*
X4928D01*
X5537D02*
X6629D01*
X6731D02*
X9246D01*
X10033D02*
X10770D01*
X965Y50876D02*
X1702D01*
X2540D02*
X4928D01*
X5537D02*
X6655D01*
X6706D02*
X9246D01*
X10033D02*
X10770D01*
X965Y50902D02*
X1702D01*
X2515D02*
X4928D01*
X5537D02*
X6655D01*
X6706D02*
X9271D01*
X10033D02*
X10770D01*
X965Y50927D02*
X1702D01*
X2515D02*
X4928D01*
X5512D02*
X6655D01*
X6706D02*
X9271D01*
X10033D02*
X10770D01*
X965Y50952D02*
X1702D01*
X2489D02*
X4928D01*
X5512D02*
X6680D01*
X6706D02*
X9271D01*
X10033D02*
X10770D01*
X965Y50978D02*
X1702D01*
X2489D02*
X4928D01*
X5512D02*
X6680D01*
X6706D02*
X9296D01*
X10033D02*
X10770D01*
X965Y51003D02*
X1702D01*
X2489D02*
X4928D01*
X5486D02*
X6680D01*
X6706D02*
X9296D01*
X10033D02*
X10770D01*
X965Y51029D02*
X1702D01*
X2489D02*
X4928D01*
X5486D02*
X5994D01*
X6020D02*
X9296D01*
X10033D02*
X10770D01*
X965Y51054D02*
X1702D01*
X2464D02*
X4928D01*
X5486D02*
X5994D01*
X6020D02*
X9296D01*
X10033D02*
X10770D01*
X965Y51079D02*
X1702D01*
X2464D02*
X4928D01*
X5486D02*
X5994D01*
X6020D02*
X9296D01*
X10033D02*
X10770D01*
X965Y51105D02*
X1702D01*
X2464D02*
X4928D01*
X5461D02*
X5994D01*
X6020D02*
X9296D01*
X10033D02*
X10770D01*
X965Y51130D02*
X1702D01*
X2464D02*
X4928D01*
X5461D02*
X5969D01*
X6020D02*
X9296D01*
X10033D02*
X10770D01*
X965Y51156D02*
X1702D01*
X2438D02*
X4953D01*
X5461D02*
X5969D01*
X6020D02*
X9322D01*
X10033D02*
X10770D01*
X965Y51181D02*
X1702D01*
X2438D02*
X4953D01*
X5461D02*
X5969D01*
X6045D02*
X9347D01*
X10033D02*
X10770D01*
X965Y51206D02*
X1702D01*
X2413D02*
X4953D01*
X5461D02*
X5969D01*
X6045D02*
X9373D01*
X10008D02*
X10770D01*
X965Y51232D02*
X1702D01*
X2413D02*
X4953D01*
X5436D02*
X5969D01*
X6045D02*
X9373D01*
X10008D02*
X10770D01*
X965Y51257D02*
X1727D01*
X2413D02*
X4953D01*
X5436D02*
X5944D01*
X6071D02*
X9373D01*
X10008D02*
X10770D01*
X965Y51283D02*
X1727D01*
X2438D02*
X4953D01*
X5436D02*
X5918D01*
X6096D02*
X9347D01*
X10008D02*
X10770D01*
X965Y51308D02*
X1727D01*
X2464D02*
X4978D01*
X5436D02*
X5817D01*
X6223D02*
X9322D01*
X10008D02*
X10770D01*
X965Y51333D02*
X1727D01*
X2489D02*
X4978D01*
X5436D02*
X5690D01*
X6299D02*
X9296D01*
X10008D02*
X10770D01*
X965Y51359D02*
X1727D01*
X2540D02*
X4978D01*
X5436D02*
X5842D01*
X6147D02*
X9246D01*
X10008D02*
X10770D01*
X965Y51384D02*
X1727D01*
X2565D02*
X4978D01*
X5436D02*
X5918D01*
X6071D02*
X9220D01*
X10008D02*
X10770D01*
X965Y51410D02*
X1727D01*
X2565D02*
X4978D01*
X5410D02*
X5944D01*
X6045D02*
X9220D01*
X10008D02*
X10770D01*
X965Y51435D02*
X1727D01*
X2565D02*
X4699D01*
X4826D02*
X5004D01*
X5410D02*
X5969D01*
X6045D02*
X6960D01*
X7087D02*
X9220D01*
X10008D02*
X10744D01*
X991Y51460D02*
X1727D01*
X2565D02*
X4648D01*
X4851D02*
X5004D01*
X5410D02*
X5969D01*
X6020D02*
X6934D01*
X7137D02*
X9220D01*
X10008D02*
X10744D01*
X991Y51486D02*
X1727D01*
X2565D02*
X4597D01*
X4851D02*
X5004D01*
X5410D02*
X5969D01*
X6020D02*
X6909D01*
X7188D02*
X9220D01*
X9982D02*
X10744D01*
X991Y51511D02*
X1753D01*
X2540D02*
X4547D01*
X4877D02*
X5004D01*
X5410D02*
X5969D01*
X6020D02*
X6909D01*
X7239D02*
X9246D01*
X9982D02*
X10744D01*
X991Y51537D02*
X1753D01*
X2540D02*
X4496D01*
X4877D02*
X5029D01*
X5410D02*
X5969D01*
X6020D02*
X6909D01*
X7264D02*
X9246D01*
X9982D02*
X10744D01*
X991Y51562D02*
X1753D01*
X2515D02*
X4470D01*
X4877D02*
X5029D01*
X5410D02*
X5994D01*
X6020D02*
X6883D01*
X7315D02*
X9246D01*
X9982D02*
X10744D01*
X991Y51587D02*
X1753D01*
X2515D02*
X4420D01*
X4877D02*
X5029D01*
X5410D02*
X5994D01*
X6020D02*
X6883D01*
X7341D02*
X9246D01*
X9982D02*
X10744D01*
X991Y51613D02*
X1753D01*
X2515D02*
X4394D01*
X4877D02*
X5029D01*
X5410D02*
X5994D01*
X6020D02*
X6909D01*
X7391D02*
X9246D01*
X9982D02*
X10744D01*
X991Y51638D02*
X1753D01*
X2540D02*
X4343D01*
X4877D02*
X5055D01*
X5410D02*
X6909D01*
X7417D02*
X9246D01*
X9982D02*
X10719D01*
X1016Y51664D02*
X1753D01*
X2540D02*
X4318D01*
X4877D02*
X5055D01*
X5410D02*
X6909D01*
X7468D02*
X9246D01*
X9957D02*
X10719D01*
X1016Y51689D02*
X1778D01*
X2540D02*
X3861D01*
X3886D02*
X4293D01*
X4877D02*
X5055D01*
X5410D02*
X6909D01*
X7493D02*
X7899D01*
X7925D02*
X9246D01*
X9957D02*
X10719D01*
X1016Y51714D02*
X1778D01*
X2540D02*
X3835D01*
X3912D02*
X4242D01*
X4851D02*
X5080D01*
X5410D02*
X6909D01*
X7544D02*
X7874D01*
X7950D02*
X9246D01*
X9957D02*
X10719D01*
X1016Y51740D02*
X1778D01*
X2540D02*
X3810D01*
X3912D02*
X4216D01*
X4851D02*
X5080D01*
X5410D02*
X6934D01*
X7569D02*
X7874D01*
X7976D02*
X9246D01*
X9957D02*
X10719D01*
X1016Y51765D02*
X1778D01*
X2540D02*
X3785D01*
X3912D02*
X4191D01*
X4851D02*
X5080D01*
X5410D02*
X6934D01*
X7595D02*
X7849D01*
X8001D02*
X9246D01*
X9957D02*
X10719D01*
X1016Y51791D02*
X1778D01*
X2540D02*
X3759D01*
X3912D02*
X4140D01*
X4826D02*
X5105D01*
X5410D02*
X6960D01*
X7620D02*
X7849D01*
X8026D02*
X9246D01*
X9931D02*
X10719D01*
X1041Y51816D02*
X1803D01*
X2540D02*
X3734D01*
X3937D02*
X4115D01*
X4826D02*
X5105D01*
X5410D02*
X6960D01*
X7671D02*
X7849D01*
X8052D02*
X9246D01*
X9931D02*
X10693D01*
X1041Y51841D02*
X1803D01*
X2515D02*
X3708D01*
X3937D02*
X4089D01*
X4801D02*
X5131D01*
X5436D02*
X6350D01*
X6401D02*
X6960D01*
X7696D02*
X7823D01*
X8077D02*
X9246D01*
X9931D02*
X10693D01*
X1041Y51867D02*
X1803D01*
X2515D02*
X3658D01*
X3962D02*
X4039D01*
X4801D02*
X5131D01*
X5436D02*
X6350D01*
X6401D02*
X6985D01*
X7722D02*
X7823D01*
X8103D02*
X9246D01*
X9931D02*
X10693D01*
X1041Y51892D02*
X1803D01*
X2515D02*
X3632D01*
X3988D02*
X4013D01*
X4775D02*
X5131D01*
X5436D02*
X6350D01*
X6401D02*
X6985D01*
X7772D02*
X7798D01*
X8153D02*
X9246D01*
X9931D02*
X10693D01*
X1041Y51918D02*
X1829D01*
X2515D02*
X3607D01*
X4775D02*
X5156D01*
X5436D02*
X6350D01*
X6401D02*
X7010D01*
X8179D02*
X9246D01*
X9906D02*
X10693D01*
X1041Y51943D02*
X1829D01*
X2515D02*
X3581D01*
X4750D02*
X5156D01*
X5436D02*
X6350D01*
X6401D02*
X7036D01*
X8204D02*
X9271D01*
X9906D02*
X10668D01*
X1067Y51968D02*
X1829D01*
X2515D02*
X3531D01*
X4750D02*
X5182D01*
X5436D02*
X6350D01*
X6401D02*
X7036D01*
X8230D02*
X9271D01*
X9906D02*
X10668D01*
X1067Y51994D02*
X1829D01*
X2515D02*
X3505D01*
X4724D02*
X5182D01*
X5436D02*
X6350D01*
X6401D02*
X7061D01*
X8280D02*
X9271D01*
X9906D02*
X10668D01*
X1067Y52019D02*
X1854D01*
X2489D02*
X3454D01*
X4699D02*
X5207D01*
X5436D02*
X6350D01*
X6426D02*
X7061D01*
X8306D02*
X9296D01*
X9881D02*
X10668D01*
X1067Y52045D02*
X1854D01*
X2464D02*
X3429D01*
X4724D02*
X5207D01*
X5461D02*
X6325D01*
X6426D02*
X7061D01*
X8357D02*
X9296D01*
X9881D02*
X10668D01*
X1092Y52070D02*
X1854D01*
X2464D02*
X3378D01*
X4724D02*
X5207D01*
X5461D02*
X6325D01*
X6426D02*
X7061D01*
X8382D02*
X9322D01*
X9881D02*
X10643D01*
X1092Y52095D02*
X1854D01*
X2438D02*
X3353D01*
X4750D02*
X5232D01*
X5461D02*
X6325D01*
X6452D02*
X7036D01*
X8433D02*
X9347D01*
X9881D02*
X10643D01*
X1092Y52121D02*
X1880D01*
X2413D02*
X3302D01*
X4750D02*
X5232D01*
X5461D02*
X6325D01*
X6452D02*
X7036D01*
X8484D02*
X9373D01*
X9855D02*
X10643D01*
X1092Y52146D02*
X1880D01*
X2388D02*
X3251D01*
X4750D02*
X5258D01*
X5461D02*
X6299D01*
X6477D02*
X7010D01*
X8509D02*
X9373D01*
X9855D02*
X10643D01*
X1118Y52172D02*
X1880D01*
X2388D02*
X3200D01*
X4750D02*
X5258D01*
X5486D02*
X6274D01*
X6502D02*
X7010D01*
X8560D02*
X9398D01*
X9855D02*
X10617D01*
X1118Y52197D02*
X1905D01*
X2362D02*
X3175D01*
X4775D02*
X5283D01*
X5486D02*
X6223D01*
X6528D02*
X7010D01*
X8611D02*
X9423D01*
X9830D02*
X10617D01*
X1118Y52222D02*
X1905D01*
X2337D02*
X3124D01*
X4775D02*
X5283D01*
X5486D02*
X6147D01*
X6629D02*
X7010D01*
X8661D02*
X9423D01*
X9830D02*
X10617D01*
X1118Y52248D02*
X1905D01*
X2337D02*
X3073D01*
X3327D02*
X3353D01*
X4750D02*
X5309D01*
X5486D02*
X5944D01*
X6833D02*
X7010D01*
X8712D02*
X9449D01*
X9830D02*
X10617D01*
X1143Y52273D02*
X1905D01*
X2311D02*
X3023D01*
X3277D02*
X3378D01*
X4750D02*
X5334D01*
X5486D02*
X5918D01*
X6807D02*
X7010D01*
X8763D02*
X9474D01*
X9804D02*
X10592D01*
X1143Y52299D02*
X1930D01*
X2311D02*
X2946D01*
X3251D02*
X3378D01*
X4750D02*
X5334D01*
X5512D02*
X6096D01*
X6629D02*
X7036D01*
X8814D02*
X9474D01*
X9804D02*
X10592D01*
X1143Y52324D02*
X1930D01*
X2286D02*
X2896D01*
X3200D02*
X3404D01*
X4750D02*
X5359D01*
X5512D02*
X6198D01*
X6528D02*
X7036D01*
X8865D02*
X9500D01*
X9804D02*
X10592D01*
X1143Y52349D02*
X1956D01*
X2286D02*
X2845D01*
X3150D02*
X3404D01*
X4724D02*
X5359D01*
X5512D02*
X6248D01*
X6477D02*
X7036D01*
X8585D02*
X8636D01*
X8941D02*
X9500D01*
X9779D02*
X10566D01*
X1168Y52375D02*
X1956D01*
X2261D02*
X2794D01*
X3099D02*
X3429D01*
X4724D02*
X5385D01*
X5537D02*
X6274D01*
X6452D02*
X7061D01*
X8585D02*
X8687D01*
X8992D02*
X9500D01*
X9779D02*
X10566D01*
X1168Y52400D02*
X1956D01*
X2261D02*
X2718D01*
X3048D02*
X3429D01*
X4699D02*
X5385D01*
X5537D02*
X6299D01*
X6452D02*
X7061D01*
X8560D02*
X8738D01*
X9068D02*
X9525D01*
X9779D02*
X10566D01*
X1168Y52426D02*
X1981D01*
X2261D02*
X2642D01*
X2997D02*
X3454D01*
X4699D02*
X5410D01*
X5537D02*
X6299D01*
X6426D02*
X7087D01*
X8560D02*
X8788D01*
X9119D02*
X9525D01*
X9754D02*
X10541D01*
X1194Y52451D02*
X1981D01*
X2261D02*
X2591D01*
X2997D02*
X3454D01*
X4674D02*
X5436D01*
X5563D02*
X6325D01*
X6426D02*
X7087D01*
X8534D02*
X8839D01*
X9195D02*
X9525D01*
X9754D02*
X10541D01*
X1194Y52476D02*
X1981D01*
X2261D02*
X2515D01*
X3023D02*
X3480D01*
X4648D02*
X5436D01*
X5563D02*
X6325D01*
X6426D02*
X7112D01*
X8534D02*
X8890D01*
X9271D02*
X9525D01*
X9728D02*
X10541D01*
X1194Y52502D02*
X2007D01*
X2261D02*
X2438D01*
X3023D02*
X3480D01*
X4648D02*
X5461D01*
X5563D02*
X6325D01*
X6401D02*
X7137D01*
X8509D02*
X8966D01*
X9347D02*
X9525D01*
X9728D02*
X10516D01*
X1219Y52527D02*
X2007D01*
X2261D02*
X2362D01*
X3023D02*
X3505D01*
X4623D02*
X5461D01*
X5588D02*
X6350D01*
X6401D02*
X7137D01*
X8484D02*
X8966D01*
X9423D02*
X9525D01*
X9728D02*
X10516D01*
X1219Y52553D02*
X2032D01*
X2261D02*
X2286D01*
X3048D02*
X3505D01*
X4648D02*
X5486D01*
X5588D02*
X6350D01*
X6401D02*
X7137D01*
X8484D02*
X8941D01*
X9703D02*
X10516D01*
X1219Y52578D02*
X2032D01*
X3048D02*
X3531D01*
X4648D02*
X5512D01*
X5588D02*
X6350D01*
X6401D02*
X7137D01*
X8458D02*
X8941D01*
X9703D02*
X10490D01*
X1245Y52603D02*
X2032D01*
X3073D02*
X3556D01*
X4674D02*
X5512D01*
X5613D02*
X6350D01*
X6401D02*
X7087D01*
X8458D02*
X8915D01*
X9677D02*
X10490D01*
X1245Y52629D02*
X2057D01*
X3073D02*
X3556D01*
X4699D02*
X5537D01*
X5613D02*
X6350D01*
X6401D02*
X7061D01*
X8433D02*
X8915D01*
X9677D02*
X10490D01*
X1245Y52654D02*
X2057D01*
X3099D02*
X3581D01*
X4724D02*
X5563D01*
X5613D02*
X6350D01*
X6401D02*
X7061D01*
X8407D02*
X8890D01*
X9677D02*
X10465D01*
X1270Y52680D02*
X2083D01*
X3099D02*
X3581D01*
X4724D02*
X5588D01*
X5639D02*
X6350D01*
X6401D02*
X7061D01*
X8407D02*
X8890D01*
X9652D02*
X10465D01*
X1270Y52705D02*
X2083D01*
X3124D02*
X3607D01*
X4699D02*
X5588D01*
X5639D02*
X6375D01*
X6401D02*
X7061D01*
X8382D02*
X8865D01*
X9652D02*
X10465D01*
X1295Y52730D02*
X2108D01*
X3150D02*
X3632D01*
X4674D02*
X5613D01*
X5664D02*
X7087D01*
X8357D02*
X8865D01*
X9627D02*
X10439D01*
X1295Y52756D02*
X2108D01*
X3150D02*
X3632D01*
X4674D02*
X5639D01*
X5664D02*
X7112D01*
X8357D02*
X8839D01*
X9627D02*
X10439D01*
X1295Y52781D02*
X2134D01*
X3175D02*
X3658D01*
X4648D02*
X5639D01*
X5690D02*
X7137D01*
X8331D02*
X8839D01*
X9601D02*
X10414D01*
X1321Y52807D02*
X2134D01*
X3175D02*
X3683D01*
X4648D02*
X5664D01*
X5690D02*
X7137D01*
X8306D02*
X8814D01*
X9601D02*
X10414D01*
X1321Y52832D02*
X2159D01*
X3200D02*
X3708D01*
X4623D02*
X5690D01*
X5715D02*
X7163D01*
X8306D02*
X8788D01*
X9576D02*
X10414D01*
X1346Y52857D02*
X2159D01*
X3200D02*
X3708D01*
X4623D02*
X7163D01*
X8280D02*
X8788D01*
X9576D02*
X10389D01*
X1346Y52883D02*
X2184D01*
X3226D02*
X3734D01*
X4597D02*
X7163D01*
X8255D02*
X8763D01*
X9550D02*
X10389D01*
X1372Y52908D02*
X2184D01*
X3251D02*
X3759D01*
X4597D02*
X7188D01*
X8230D02*
X8763D01*
X9550D02*
X10363D01*
X1372Y52934D02*
X2210D01*
X3251D02*
X3785D01*
X4597D02*
X7188D01*
X8204D02*
X8738D01*
X9525D02*
X10363D01*
X1372Y52959D02*
X2210D01*
X3277D02*
X3810D01*
X4597D02*
X7188D01*
X8204D02*
X8712D01*
X9500D02*
X10338D01*
X1397Y52984D02*
X2235D01*
X3302D02*
X3810D01*
X4572D02*
X7188D01*
X8179D02*
X8712D01*
X9500D02*
X10338D01*
X1397Y53010D02*
X2261D01*
X3302D02*
X3835D01*
X4572D02*
X7188D01*
X8153D02*
X8687D01*
X9474D02*
X10338D01*
X1422Y53035D02*
X2261D01*
X3327D02*
X3861D01*
X4572D02*
X7214D01*
X8128D02*
X8661D01*
X9474D02*
X10312D01*
X1422Y53061D02*
X2286D01*
X3353D02*
X3886D01*
X4572D02*
X7214D01*
X8103D02*
X8636D01*
X9449D02*
X10312D01*
X1448Y53086D02*
X2286D01*
X3378D02*
X3912D01*
X4572D02*
X5131D01*
X5258D02*
X6502D01*
X6629D02*
X7214D01*
X8077D02*
X8636D01*
X9449D02*
X10287D01*
X1448Y53111D02*
X2311D01*
X3378D02*
X3937D01*
X4572D02*
X5105D01*
X5309D02*
X6477D01*
X6680D02*
X7214D01*
X8052D02*
X8611D01*
X9423D02*
X10287D01*
X1473Y53137D02*
X2337D01*
X3404D02*
X3962D01*
X4572D02*
X5055D01*
X5309D02*
X6452D01*
X6731D02*
X7214D01*
X8026D02*
X8585D01*
X9398D02*
X10262D01*
X1473Y53162D02*
X2337D01*
X3429D02*
X3988D01*
X4572D02*
X5004D01*
X5309D02*
X6477D01*
X6782D02*
X7214D01*
X8001D02*
X8560D01*
X9398D02*
X10262D01*
X1499Y53188D02*
X2362D01*
X3454D02*
X4013D01*
X4572D02*
X4775D01*
X4801D02*
X4877D01*
X5309D02*
X6477D01*
X6909D02*
X6960D01*
X6985D02*
X7214D01*
X7976D02*
X8534D01*
X9373D02*
X10236D01*
X1499Y53213D02*
X2362D01*
X3480D02*
X4039D01*
X4572D02*
X4750D01*
X5309D02*
X6477D01*
X7036D02*
X7214D01*
X7950D02*
X8534D01*
X9347D02*
X10236D01*
X1524Y53238D02*
X2388D01*
X3480D02*
X4064D01*
X4547D02*
X4724D01*
X5309D02*
X6477D01*
X7061D02*
X7214D01*
X7925D02*
X8509D01*
X9347D02*
X10211D01*
X1524Y53264D02*
X2413D01*
X3505D02*
X4089D01*
X4547D02*
X4699D01*
X5309D02*
X6477D01*
X7061D02*
X7239D01*
X7899D02*
X8484D01*
X9322D02*
X10211D01*
X1549Y53289D02*
X2413D01*
X3531D02*
X4140D01*
X4547D02*
X4699D01*
X5309D02*
X6477D01*
X7087D02*
X7239D01*
X7874D02*
X8458D01*
X9296D02*
X10185D01*
X1549Y53315D02*
X2438D01*
X3556D02*
X4166D01*
X4547D02*
X4674D01*
X5309D02*
X6477D01*
X7112D02*
X7239D01*
X7823D02*
X8433D01*
X9296D02*
X10185D01*
X1575Y53340D02*
X2464D01*
X3581D02*
X4191D01*
X4521D02*
X4648D01*
X5309D02*
X6452D01*
X7112D02*
X7239D01*
X7798D02*
X8407D01*
X9271D02*
X10160D01*
X1575Y53365D02*
X2464D01*
X3607D02*
X4216D01*
X4521D02*
X4648D01*
X5334D02*
X6452D01*
X7137D02*
X7264D01*
X7772D02*
X8382D01*
X9246D02*
X10135D01*
X1600Y53391D02*
X2489D01*
X3632D02*
X4267D01*
X4521D02*
X4597D01*
X5334D02*
X6452D01*
X7163D02*
X7264D01*
X7722D02*
X8357D01*
X9246D02*
X10135D01*
X1626Y53416D02*
X2515D01*
X3658D02*
X4293D01*
X5334D02*
X6426D01*
X7696D02*
X8331D01*
X9220D02*
X10109D01*
X1626Y53442D02*
X2540D01*
X3683D02*
X4343D01*
X5359D02*
X6426D01*
X7671D02*
X8306D01*
X9195D02*
X10109D01*
X1651Y53467D02*
X2540D01*
X3708D02*
X4369D01*
X5359D02*
X6426D01*
X7620D02*
X8280D01*
X9169D02*
X10084D01*
X1651Y53492D02*
X2565D01*
X3734D02*
X4420D01*
X5385D02*
X6401D01*
X7595D02*
X8255D01*
X9169D02*
X10058D01*
X1676Y53518D02*
X2591D01*
X3759D02*
X4445D01*
X5385D02*
X6401D01*
X7544D02*
X8230D01*
X9144D02*
X10058D01*
X1702Y53543D02*
X2616D01*
X3785D02*
X4496D01*
X5385D02*
X6401D01*
X7518D02*
X8204D01*
X9119D02*
X10033D01*
X1702Y53569D02*
X2642D01*
X3810D02*
X4521D01*
X5385D02*
X6401D01*
X7468D02*
X8179D01*
X9093D02*
X10033D01*
X1727Y53594D02*
X2642D01*
X3835D02*
X4572D01*
X5385D02*
X6401D01*
X7417D02*
X8153D01*
X9068D02*
X10008D01*
X1753Y53619D02*
X2667D01*
X3886D02*
X4623D01*
X5385D02*
X6401D01*
X7366D02*
X8128D01*
X9068D02*
X9982D01*
X1753Y53645D02*
X2692D01*
X3912D02*
X4674D01*
X5410D02*
X6375D01*
X7315D02*
X8077D01*
X9042D02*
X9982D01*
X1778Y53670D02*
X2718D01*
X3937D02*
X4724D01*
X5436D02*
X6350D01*
X7264D02*
X8052D01*
X9017D02*
X9957D01*
X1778Y53696D02*
X2743D01*
X3962D02*
X4775D01*
X5461D02*
X6325D01*
X7214D02*
X8026D01*
X8992D02*
X9931D01*
X1803Y53721D02*
X2769D01*
X4013D02*
X4826D01*
X5461D02*
X6325D01*
X7163D02*
X7976D01*
X8966D02*
X9931D01*
X1829Y53746D02*
X2794D01*
X4039D02*
X4902D01*
X5486D02*
X6299D01*
X7112D02*
X7950D01*
X8941D02*
X9906D01*
X1854Y53772D02*
X2794D01*
X4064D02*
X4953D01*
X5486D02*
X6299D01*
X7036D02*
X7925D01*
X8915D02*
X9881D01*
X1854Y53797D02*
X2819D01*
X4115D02*
X5029D01*
X5486D02*
X6299D01*
X6960D02*
X7874D01*
X8890D02*
X9881D01*
X1880Y53823D02*
X2845D01*
X4140D02*
X5105D01*
X5486D02*
X6274D01*
X6883D02*
X7849D01*
X8890D02*
X9855D01*
X1905Y53848D02*
X2870D01*
X4191D02*
X5182D01*
X5486D02*
X6274D01*
X6807D02*
X7798D01*
X8865D02*
X9830D01*
X1905Y53873D02*
X2896D01*
X4216D02*
X5283D01*
X5486D02*
X6274D01*
X6706D02*
X7772D01*
X8839D02*
X9804D01*
X1930Y53899D02*
X2921D01*
X4267D02*
X5385D01*
X5486D02*
X6274D01*
X6604D02*
X7722D01*
X8814D02*
X9804D01*
X1956Y53924D02*
X2946D01*
X4318D02*
X6274D01*
X6452D02*
X7671D01*
X8788D02*
X9779D01*
X1981Y53950D02*
X2972D01*
X4369D02*
X7645D01*
X8763D02*
X9754D01*
X2007Y53975D02*
X2997D01*
X4394D02*
X7595D01*
X8738D02*
X9728D01*
X2007Y54000D02*
X3023D01*
X4445D02*
X7544D01*
X8687D02*
X9728D01*
X2032Y54026D02*
X3073D01*
X4496D02*
X7493D01*
X8661D02*
X9703D01*
X2057Y54051D02*
X3099D01*
X4547D02*
X7442D01*
X8636D02*
X9677D01*
X2083Y54077D02*
X3124D01*
X4597D02*
X7391D01*
X8611D02*
X9652D01*
X2108Y54102D02*
X3150D01*
X4674D02*
X7315D01*
X8585D02*
X9627D01*
X2108Y54127D02*
X3175D01*
X4724D02*
X7264D01*
X8560D02*
X9601D01*
X2134Y54153D02*
X3200D01*
X4801D02*
X7214D01*
X8534D02*
X9601D01*
X2159Y54178D02*
X3251D01*
X4851D02*
X7137D01*
X8484D02*
X9576D01*
X2184Y54204D02*
X3277D01*
X4928D02*
X7061D01*
X8458D02*
X9550D01*
X2210Y54229D02*
X3302D01*
X5004D02*
X6985D01*
X8433D02*
X9525D01*
X2235Y54254D02*
X3327D01*
X5105D02*
X6883D01*
X8407D02*
X9500D01*
X2261Y54280D02*
X3378D01*
X5207D02*
X6807D01*
X8357D02*
X9474D01*
X2286Y54305D02*
X3404D01*
X5309D02*
X6680D01*
X8331D02*
X9449D01*
X2311Y54331D02*
X3429D01*
X5436D02*
X6553D01*
X8280D02*
X9423D01*
X2337Y54356D02*
X3480D01*
X5613D02*
X6350D01*
X8255D02*
X9398D01*
X2362Y54381D02*
X3505D01*
X5613D02*
X6147D01*
X8230D02*
X9373D01*
X2388Y54407D02*
X3556D01*
X5639D02*
X6147D01*
X8179D02*
X9347D01*
X2413Y54432D02*
X3581D01*
X5639D02*
X6121D01*
X8153D02*
X9322D01*
X2438Y54458D02*
X3632D01*
X5664D02*
X6121D01*
X8103D02*
X9296D01*
X2464Y54483D02*
X3658D01*
X5664D02*
X6121D01*
X8077D02*
X9271D01*
X2489Y54508D02*
X3708D01*
X5690D02*
X6096D01*
X8026D02*
X9246D01*
X2515Y54534D02*
X3759D01*
X5690D02*
X6096D01*
X7976D02*
X9220D01*
X2540Y54559D02*
X3785D01*
X5715D02*
X6071D01*
X7950D02*
X9195D01*
X2565Y54585D02*
X3835D01*
X5715D02*
X6071D01*
X7899D02*
X9169D01*
X2591Y54610D02*
X3886D01*
X5715D02*
X6045D01*
X7849D02*
X9144D01*
X2616Y54635D02*
X3937D01*
X5740D02*
X6045D01*
X7798D02*
X9119D01*
X2642Y54661D02*
X3988D01*
X5740D02*
X6020D01*
X7747D02*
X9093D01*
X2667Y54686D02*
X4039D01*
X5766D02*
X6020D01*
X7696D02*
X9042D01*
X2718Y54712D02*
X4089D01*
X5766D02*
X5994D01*
X7645D02*
X9017D01*
X2743Y54737D02*
X4140D01*
X5791D02*
X5994D01*
X7595D02*
X8992D01*
X2769Y54762D02*
X4191D01*
X5791D02*
X5969D01*
X7544D02*
X8966D01*
X2794Y54788D02*
X4242D01*
X5817D02*
X5969D01*
X7468D02*
X8941D01*
X2819Y54813D02*
X4318D01*
X5817D02*
X5944D01*
X7417D02*
X8890D01*
X2870Y54839D02*
X4369D01*
X5842D02*
X5944D01*
X7341D02*
X8865D01*
X2896Y54864D02*
X4445D01*
X5842D02*
X5944D01*
X7290D02*
X8839D01*
X2921Y54889D02*
X4521D01*
X5842D02*
X5944D01*
X7214D02*
X8814D01*
X2972Y54915D02*
X4597D01*
X5867D02*
X5918D01*
X7137D02*
X8763D01*
X2997Y54940D02*
X4674D01*
X5867D02*
X5918D01*
X7061D02*
X8738D01*
X3023Y54966D02*
X4775D01*
X6960D02*
X8687D01*
X3073Y54991D02*
X4877D01*
X6858D02*
X8661D01*
X3099Y55016D02*
X4978D01*
X6756D02*
X8636D01*
X3150Y55042D02*
X5105D01*
X6629D02*
X8585D01*
X3175Y55067D02*
X5258D01*
X6477D02*
X8560D01*
X3226Y55093D02*
X5486D01*
X6248D02*
X8509D01*
X3277Y55118D02*
X8458D01*
X3302Y55143D02*
X8433D01*
X3353Y55169D02*
X8382D01*
X3404Y55194D02*
X8331D01*
X3429Y55220D02*
X8306D01*
X3480Y55245D02*
X8255D01*
X3531Y55270D02*
X8204D01*
X3581Y55296D02*
X8153D01*
X3632Y55321D02*
X8103D01*
X3683Y55347D02*
X8052D01*
X3734Y55372D02*
X8001D01*
X3785Y55397D02*
X7950D01*
X3835Y55423D02*
X7899D01*
X3886Y55448D02*
X7849D01*
X3962Y55474D02*
X7772D01*
X4013Y55499D02*
X7722D01*
X4064Y55524D02*
X7645D01*
X4140Y55550D02*
X7595D01*
X4216Y55575D02*
X7518D01*
X4293Y55601D02*
X7442D01*
X4369Y55626D02*
X7366D01*
X4445Y55651D02*
X7290D01*
X4521Y55677D02*
X7214D01*
X4623Y55702D02*
X7112D01*
X4724Y55728D02*
X7010D01*
X4826Y55753D02*
X6883D01*
X4953Y55778D02*
X6756D01*
X5105Y55804D02*
X6604D01*
X5309Y55829D02*
X6426D01*
X5613Y55855D02*
X6121D01*
X4724Y19482D02*
X5232D01*
X4724Y19456D02*
X5232D01*
X4724Y19431D02*
X5232D01*
X4699Y19406D02*
X5232D01*
X4699Y19380D02*
X5232D01*
X4699Y19355D02*
X5258D01*
X4699Y19329D02*
X5258D01*
X4699Y19304D02*
X5258D01*
X4699Y19279D02*
X5258D01*
X4674Y19253D02*
X5258D01*
X4674Y19228D02*
X5283D01*
X4674Y19202D02*
X5283D01*
X4674Y19177D02*
X5283D01*
X5969Y19152D02*
X6045D01*
X4674D02*
X5283D01*
X3912D02*
X3988D01*
X5944Y19126D02*
X6071D01*
X4648D02*
X5283D01*
X3886D02*
X4013D01*
X5893Y19101D02*
X6096D01*
X4648D02*
X5309D01*
X3861D02*
X4064D01*
X5867Y19075D02*
X6121D01*
X4648D02*
X5309D01*
X3835D02*
X4089D01*
X5817Y19050D02*
X6147D01*
X4648D02*
X5309D01*
X3810D02*
X4140D01*
X5791Y19025D02*
X6172D01*
X4597D02*
X5334D01*
X3785D02*
X4166D01*
X5740Y18999D02*
X6198D01*
X4547D02*
X5410D01*
X3759D02*
X4216D01*
X5715Y18974D02*
X6223D01*
X4496D02*
X5461D01*
X3734D02*
X4242D01*
X5664Y18948D02*
X6248D01*
X4420D02*
X5537D01*
X3708D02*
X4267D01*
X5639Y18923D02*
X6274D01*
X4369D02*
X5588D01*
X3683D02*
X4318D01*
X3658Y18898D02*
X6299D01*
X3632Y18872D02*
X6325D01*
X3607Y18847D02*
X6350D01*
X3607Y18821D02*
X6350D01*
X3607Y18796D02*
X6350D01*
X3632Y18771D02*
X6325D01*
X3658Y18745D02*
X6299D01*
X3658Y18720D02*
X6274D01*
X3683Y18694D02*
X6274D01*
X3708Y18669D02*
X6248D01*
X3708Y18644D02*
X6223D01*
X3734Y18618D02*
X6223D01*
X3759Y18593D02*
X6198D01*
X3759Y18567D02*
X6172D01*
X3785Y18542D02*
X6172D01*
X3810Y18517D02*
X6147D01*
X3810Y18491D02*
X6121D01*
X3835Y18466D02*
X6121D01*
X3861Y18440D02*
X6096D01*
X3835Y18415D02*
X6121D01*
X3835Y18390D02*
X6121D01*
X3810Y18364D02*
X6121D01*
X3810Y18339D02*
X6147D01*
X3785Y18313D02*
X6147D01*
X3785Y18288D02*
X6172D01*
X3785Y18263D02*
X6172D01*
X5080Y18237D02*
X6198D01*
X3759D02*
X4851D01*
X5156Y18212D02*
X6198D01*
X3759D02*
X4801D01*
X5207Y18186D02*
X6198D01*
X3734D02*
X4750D01*
X5258Y18161D02*
X6223D01*
X3734D02*
X4699D01*
X5283Y18136D02*
X6223D01*
X3708D02*
X4674D01*
X5309Y18110D02*
X6299D01*
X3632D02*
X4648D01*
X5334Y18085D02*
X6452D01*
X3505D02*
X4623D01*
X5359Y18059D02*
X6579D01*
X3378D02*
X4597D01*
X5359Y18034D02*
X6680D01*
X3277D02*
X4597D01*
X5385Y18009D02*
X6680D01*
X3251D02*
X4572D01*
X5385Y17983D02*
X6680D01*
X3251D02*
X4547D01*
X5410Y17958D02*
X6680D01*
X3251D02*
X4547D01*
X5410Y17932D02*
X6680D01*
X3251D02*
X4547D01*
X5410Y17907D02*
X6680D01*
X3251D02*
X4521D01*
X5436Y17882D02*
X6680D01*
X3251D02*
X4521D01*
X5436Y17856D02*
X6680D01*
X3251D02*
X4521D01*
X5436Y17831D02*
X6680D01*
X3251D02*
X4521D01*
X5436Y17805D02*
X6680D01*
X3251D02*
X4521D01*
X5436Y17780D02*
X6680D01*
X3251D02*
X4521D01*
X5436Y17755D02*
X6680D01*
X3251D02*
X4521D01*
X5436Y17729D02*
X6680D01*
X3251D02*
X4521D01*
X5436Y17704D02*
X6680D01*
X3251D02*
X4521D01*
X5410Y17678D02*
X6680D01*
X3251D02*
X4521D01*
X5410Y17653D02*
X6680D01*
X3251D02*
X4547D01*
X5410Y17628D02*
X6680D01*
X3251D02*
X4547D01*
X5385Y17602D02*
X6680D01*
X3251D02*
X4547D01*
X5385Y17577D02*
X6680D01*
X3251D02*
X4572D01*
X5359Y17551D02*
X6680D01*
X3277D02*
X4597D01*
X5359Y17526D02*
X6579D01*
X3378D02*
X4597D01*
X5334Y17501D02*
X6426D01*
X3531D02*
X4623D01*
X5309Y17475D02*
X6299D01*
X3658D02*
X4648D01*
X5283Y17450D02*
X6248D01*
X3708D02*
X4674D01*
X5258Y17424D02*
X6223D01*
X3734D02*
X4699D01*
X5207Y17399D02*
X6223D01*
X3734D02*
X4724D01*
X5182Y17374D02*
X6198D01*
X3734D02*
X4775D01*
X5156Y17348D02*
X6198D01*
X3759D02*
X4801D01*
X5156Y17323D02*
X6198D01*
X3759D02*
X4801D01*
X5156Y17297D02*
X6172D01*
X3785D02*
X4801D01*
X5156Y17272D02*
X6172D01*
X3785D02*
X4775D01*
X5182Y17247D02*
X6147D01*
X3785D02*
X4775D01*
X5182Y17221D02*
X6147D01*
X3810D02*
X4750D01*
X5207Y17196D02*
X6147D01*
X3810D02*
X4750D01*
X5207Y17170D02*
X6121D01*
X3835D02*
X4750D01*
X5232Y17145D02*
X6121D01*
X3835D02*
X4724D01*
X5232Y17120D02*
X6121D01*
X3835D02*
X4724D01*
X5232Y17094D02*
X6121D01*
X3810D02*
X4699D01*
X5258Y17069D02*
X6147D01*
X3810D02*
X4699D01*
X5258Y17043D02*
X6172D01*
X3785D02*
X4699D01*
X5283Y17018D02*
X6172D01*
X3759D02*
X4674D01*
X5283Y16993D02*
X6198D01*
X3759D02*
X4674D01*
X5283Y16967D02*
X6223D01*
X3734D02*
X4648D01*
X5309Y16942D02*
X6248D01*
X3708D02*
X4648D01*
X5309Y16916D02*
X6248D01*
X3708D02*
X4648D01*
X5334Y16891D02*
X6274D01*
X3683D02*
X4623D01*
X5334Y16866D02*
X6299D01*
X3658D02*
X4623D01*
X5334Y16840D02*
X6299D01*
X3632D02*
X4597D01*
X5359Y16815D02*
X6325D01*
X3632D02*
X4597D01*
X5359Y16789D02*
X6350D01*
X3607D02*
X4572D01*
X5385Y16764D02*
X6350D01*
X3607D02*
X4572D01*
X5385Y16739D02*
X6350D01*
X3607D02*
X4572D01*
X5410Y16713D02*
X6325D01*
X3632D02*
X4547D01*
X5410Y16688D02*
X6299D01*
X3658D02*
X4547D01*
X5410Y16662D02*
X6274D01*
X3683D02*
X4521D01*
X5664Y16637D02*
X6248D01*
X5436D02*
X5613D01*
X4343D02*
X4521D01*
X3708D02*
X4267D01*
X5715Y16612D02*
X6223D01*
X5436D02*
X5563D01*
X4394D02*
X4521D01*
X3734D02*
X4242D01*
X5740Y16586D02*
X6198D01*
X5461D02*
X5512D01*
X4420D02*
X4496D01*
X3759D02*
X4191D01*
X5791Y16561D02*
X6172D01*
X3785D02*
X4166D01*
X5817Y16535D02*
X6147D01*
X3810D02*
X4115D01*
X5867Y16510D02*
X6121D01*
X3835D02*
X4089D01*
X5893Y16485D02*
X6096D01*
X3861D02*
X4064D01*
X5944Y16459D02*
X6071D01*
X3886D02*
X4013D01*
X5969Y16434D02*
X6045D01*
X3912D02*
X3988D01*
X6883Y16078D02*
X7061D01*
X6604D02*
X6731D01*
X6401D02*
X6579D01*
X5994D02*
X6198D01*
X5537D02*
X5842D01*
X4902D02*
X5131D01*
X4496D02*
X4674D01*
X4216D02*
X4343D01*
X3937D02*
X4064D01*
X3759D02*
X3861D01*
X3556D02*
X3734D01*
X3251D02*
X3454D01*
X2896D02*
X3073D01*
X6833Y16053D02*
X7112D01*
X6375D02*
X6731D01*
X5969D02*
X6223D01*
X5486D02*
X5842D01*
X4851D02*
X5156D01*
X4445D02*
X4724D01*
X4216D02*
X4343D01*
X3937D02*
X4064D01*
X3531D02*
X3861D01*
X3226D02*
X3505D01*
X2845D02*
X3099D01*
X6807Y16027D02*
X7137D01*
X6350D02*
X6731D01*
X5944D02*
X6248D01*
X5486D02*
X5842D01*
X4826D02*
X5182D01*
X4420D02*
X4750D01*
X4216D02*
X4343D01*
X3937D02*
X4064D01*
X3556D02*
X3861D01*
X3175D02*
X3531D01*
X2819D02*
X3124D01*
X6807Y16002D02*
X7163D01*
X6350D02*
X6731D01*
X5918D02*
X6274D01*
X5461D02*
X5842D01*
X4826D02*
X5182D01*
X4420D02*
X4750D01*
X4216D02*
X4343D01*
X3937D02*
X4064D01*
X3556D02*
X3861D01*
X3175D02*
X3531D01*
X2794D02*
X3150D01*
X6985Y15977D02*
X7163D01*
X6782D02*
X6960D01*
X6553D02*
X6731D01*
X6350D02*
X6502D01*
X6121D02*
X6274D01*
X5918D02*
X6071D01*
X5664D02*
X5842D01*
X5461D02*
X5639D01*
X5055D02*
X5207D01*
X4851D02*
X4978D01*
X4597D02*
X4775D01*
X4394D02*
X4572D01*
X4216D02*
X4343D01*
X3937D02*
X4064D01*
X3683D02*
X3861D01*
X3581D02*
X3658D01*
X3378D02*
X3556D01*
X3200D02*
X3327D01*
X2997D02*
X3150D01*
X2794D02*
X2946D01*
X7036Y15951D02*
X7163D01*
X6782D02*
X6909D01*
X6579D02*
X6731D01*
X6325D02*
X6477D01*
X6147D02*
X6274D01*
X5893D02*
X6045D01*
X5690D02*
X5842D01*
X5461D02*
X5588D01*
X5080D02*
X5207D01*
X4877D02*
X4928D01*
X4648D02*
X4775D01*
X4394D02*
X4521D01*
X4216D02*
X4343D01*
X3937D02*
X4064D01*
X3734D02*
X3861D01*
X3429D02*
X3556D01*
X3226D02*
X3277D01*
X3048D02*
X3175D01*
X2794D02*
X2921D01*
X7061Y15926D02*
X7163D01*
X6782D02*
X6909D01*
X6604D02*
X6731D01*
X6325D02*
X6452D01*
X6172D02*
X6299D01*
X5893D02*
X6020D01*
X5715D02*
X5842D01*
X5461D02*
X5563D01*
X5055D02*
X5207D01*
X4648D02*
X4775D01*
X4394D02*
X4521D01*
X4216D02*
X4343D01*
X3937D02*
X4064D01*
X3734D02*
X3861D01*
X3429D02*
X3556D01*
X3048D02*
X3175D01*
X2794D02*
X2896D01*
X7061Y15900D02*
X7163D01*
X6782D02*
X6883D01*
X6604D02*
X6731D01*
X6325D02*
X6452D01*
X5893D02*
X6299D01*
X5715D02*
X5842D01*
X5461D02*
X5563D01*
X4902D02*
X5182D01*
X4674D02*
X4775D01*
X4394D02*
X4496D01*
X4216D02*
X4343D01*
X3937D02*
X4064D01*
X3759D02*
X3861D01*
X3454D02*
X3556D01*
X2794D02*
X3175D01*
X7061Y15875D02*
X7163D01*
X6782D02*
X6883D01*
X6604D02*
X6731D01*
X6325D02*
X6452D01*
X5893D02*
X6299D01*
X5715D02*
X5842D01*
X5461D02*
X5563D01*
X4851D02*
X5182D01*
X4674D02*
X4775D01*
X4394D02*
X4496D01*
X4216D02*
X4343D01*
X3937D02*
X4064D01*
X3759D02*
X3861D01*
X3454D02*
X3581D01*
X2794D02*
X3175D01*
X7061Y15850D02*
X7163D01*
X6782D02*
X6883D01*
X6604D02*
X6731D01*
X6325D02*
X6452D01*
X5893D02*
X6299D01*
X5715D02*
X5842D01*
X5461D02*
X5563D01*
X4826D02*
X5156D01*
X4674D02*
X4775D01*
X4394D02*
X4496D01*
X4216D02*
X4343D01*
X3937D02*
X4064D01*
X3759D02*
X3861D01*
X3454D02*
X3581D01*
X2794D02*
X3175D01*
X7061Y15824D02*
X7163D01*
X6782D02*
X6883D01*
X6604D02*
X6731D01*
X6325D02*
X6452D01*
X5893D02*
X6299D01*
X5715D02*
X5842D01*
X5461D02*
X5563D01*
X4826D02*
X5131D01*
X4674D02*
X4775D01*
X4394D02*
X4496D01*
X4216D02*
X4343D01*
X3937D02*
X4064D01*
X3759D02*
X3861D01*
X3454D02*
X3581D01*
X2794D02*
X3175D01*
X7061Y15799D02*
X7163D01*
X6782D02*
X6883D01*
X6604D02*
X6731D01*
X6325D02*
X6452D01*
X6172D02*
X6299D01*
X5715D02*
X5842D01*
X5461D02*
X5563D01*
X4826D02*
X5029D01*
X4674D02*
X4775D01*
X4394D02*
X4496D01*
X4216D02*
X4343D01*
X3937D02*
X4064D01*
X3759D02*
X3861D01*
X3454D02*
X3556D01*
X3048D02*
X3175D01*
X7036Y15773D02*
X7163D01*
X6782D02*
X6909D01*
X6604D02*
X6731D01*
X6325D02*
X6452D01*
X6172D02*
X6299D01*
X5715D02*
X5842D01*
X5461D02*
X5563D01*
X5131D02*
X5156D01*
X4826D02*
X4928D01*
X4648D02*
X4775D01*
X4394D02*
X4521D01*
X4216D02*
X4343D01*
X3937D02*
X4064D01*
X3759D02*
X3861D01*
X3429D02*
X3556D01*
X3048D02*
X3175D01*
X7036Y15748D02*
X7163D01*
X6782D02*
X6909D01*
X6579D02*
X6731D01*
X6325D02*
X6477D01*
X6147D02*
X6274D01*
X5944D02*
X6020D01*
X5715D02*
X5842D01*
X5461D02*
X5563D01*
X5105D02*
X5182D01*
X4826D02*
X4928D01*
X4648D02*
X4775D01*
X4394D02*
X4521D01*
X4191D02*
X4318D01*
X3937D02*
X4089D01*
X3759D02*
X3861D01*
X3404D02*
X3556D01*
X3226D02*
X3277D01*
X3023D02*
X3175D01*
X2845D02*
X2896D01*
X6782Y15723D02*
X7163D01*
X6350D02*
X6731D01*
X6121D02*
X6274D01*
X5918D02*
X6045D01*
X5715D02*
X5842D01*
X5461D02*
X5563D01*
X5055D02*
X5207D01*
X4826D02*
X4978D01*
X4394D02*
X4775D01*
X3937D02*
X4318D01*
X3759D02*
X3861D01*
X3200D02*
X3556D01*
X2997D02*
X3150D01*
X2819D02*
X2946D01*
X6807Y15697D02*
X7137D01*
X6350D02*
X6731D01*
X5893D02*
X6274D01*
X5715D02*
X5842D01*
X5461D02*
X5563D01*
X4826D02*
X5232D01*
X4420D02*
X4750D01*
X3937D02*
X4318D01*
X3759D02*
X3861D01*
X3175D02*
X3531D01*
X2794D02*
X3150D01*
X6807Y15672D02*
X7137D01*
X6350D02*
X6731D01*
X5918D02*
X6248D01*
X5715D02*
X5842D01*
X5461D02*
X5563D01*
X4851D02*
X5207D01*
X4420D02*
X4750D01*
X3937D02*
X4293D01*
X3759D02*
X3861D01*
X3200D02*
X3505D01*
X2794D02*
X3124D01*
X6833Y15646D02*
X7112D01*
X6375D02*
X6731D01*
X5944D02*
X6223D01*
X5715D02*
X5842D01*
X5461D02*
X5563D01*
X4877D02*
X5182D01*
X4445D02*
X4724D01*
X3937D02*
X4293D01*
X3759D02*
X3861D01*
X3226D02*
X3480D01*
X2819D02*
X3099D01*
X6883Y15621D02*
X7061D01*
X6604D02*
X6731D01*
X6426D02*
X6579D01*
X5994D02*
X6172D01*
X5715D02*
X5842D01*
X5461D02*
X5563D01*
X4902D02*
X5105D01*
X4496D02*
X4674D01*
X4089D02*
X4242D01*
X3937D02*
X4064D01*
X3759D02*
X3861D01*
X3277D02*
X3454D01*
X2870D02*
X3048D01*
X6604Y15596D02*
X6731D01*
X6604Y15570D02*
X6731D01*
X6604Y15545D02*
X6731D01*
X5131D02*
X5232D01*
X6604Y15519D02*
X6731D01*
X5131D02*
X5232D01*
X6604Y15494D02*
X6731D01*
X5131D02*
X5232D01*
X6604Y15469D02*
X6731D01*
X5131D02*
X5232D01*
X6604Y15443D02*
X6731D01*
X5131D02*
X5232D01*
X6604Y15418D02*
X6731D01*
X5131D02*
X5232D01*
X6604Y15392D02*
X6731D01*
X5131D02*
X5232D01*
X6604Y15367D02*
X6731D01*
X6426D02*
X6553D01*
X6020D02*
X6172D01*
X5715D02*
X5817D01*
X5537D02*
X5664D01*
X5283D02*
X5410D01*
X5131D02*
X5232D01*
X4978D02*
X5105D01*
X4724D02*
X4801D01*
X4420D02*
X4547D01*
X4166D02*
X4343D01*
X3861D02*
X3988D01*
X3683D02*
X3810D01*
X3404D02*
X3531D01*
X6401Y15342D02*
X6731D01*
X5944D02*
X6248D01*
X5486D02*
X5817D01*
X5131D02*
X5461D01*
X4978D02*
X5105D01*
X4699D02*
X4826D01*
X4445D02*
X4572D01*
X4115D02*
X4394D01*
X3658D02*
X3988D01*
X3353D02*
X3581D01*
X6375Y15316D02*
X6731D01*
X5918D02*
X6274D01*
X5131D02*
X5817D01*
X4953D02*
X5080D01*
X4699D02*
X4826D01*
X4445D02*
X4572D01*
X4089D02*
X4420D01*
X3658D02*
X3988D01*
X3327D02*
X3607D01*
X6350Y15291D02*
X6731D01*
X5918D02*
X6274D01*
X5512D02*
X5817D01*
X5131D02*
X5486D01*
X4953D02*
X5080D01*
X4699D02*
X4826D01*
X4445D02*
X4572D01*
X4064D02*
X4420D01*
X3683D02*
X3988D01*
X3302D02*
X3632D01*
X6350Y15265D02*
X6731D01*
X5893D02*
X6248D01*
X5537D02*
X5817D01*
X5131D02*
X5512D01*
X4953D02*
X5080D01*
X4699D02*
X4851D01*
X4445D02*
X4572D01*
X4064D02*
X4394D01*
X3683D02*
X3988D01*
X3277D02*
X3658D01*
X6579Y15240D02*
X6731D01*
X6325D02*
X6477D01*
X6172D02*
X6198D01*
X5893D02*
X6020D01*
X5690D02*
X5817D01*
X5563D02*
X5588D01*
X5359D02*
X5512D01*
X5131D02*
X5283D01*
X4953D02*
X5055D01*
X4674D02*
X4851D01*
X4470D02*
X4597D01*
X4318D02*
X4369D01*
X4064D02*
X4191D01*
X3835D02*
X3988D01*
X3708D02*
X3734D01*
X3531D02*
X3658D01*
X3277D02*
X3429D01*
X6604Y15215D02*
X6731D01*
X6325D02*
X6452D01*
X5893D02*
X6020D01*
X5690D02*
X5817D01*
X5385D02*
X5512D01*
X5131D02*
X5258D01*
X4928D02*
X5055D01*
X4674D02*
X4851D01*
X4470D02*
X4597D01*
X4064D02*
X4166D01*
X3861D02*
X3988D01*
X3531D02*
X3658D01*
X3277D02*
X3404D01*
X6604Y15189D02*
X6731D01*
X6325D02*
X6452D01*
X5893D02*
X6020D01*
X5715D02*
X5817D01*
X5385D02*
X5512D01*
X5131D02*
X5258D01*
X4928D02*
X5055D01*
X4674D02*
X4877D01*
X4470D02*
X4597D01*
X4064D02*
X4166D01*
X3861D02*
X3988D01*
X3556D02*
X3658D01*
X3277D02*
X3404D01*
X6604Y15164D02*
X6731D01*
X6325D02*
X6452D01*
X5893D02*
X6223D01*
X5715D02*
X5817D01*
X5385D02*
X5512D01*
X5131D02*
X5232D01*
X4928D02*
X5055D01*
X4648D02*
X4877D01*
X4496D02*
X4597D01*
X4064D02*
X4394D01*
X3861D02*
X3988D01*
X3277D02*
X3658D01*
X6604Y15138D02*
X6731D01*
X6325D02*
X6452D01*
X5893D02*
X6248D01*
X5715D02*
X5817D01*
X5410D02*
X5512D01*
X5131D02*
X5232D01*
X4928D02*
X5029D01*
X4775D02*
X4877D01*
X4648D02*
X4750D01*
X4496D02*
X4623D01*
X4064D02*
X4420D01*
X3861D02*
X3988D01*
X3277D02*
X3683D01*
X6604Y15113D02*
X6731D01*
X6325D02*
X6452D01*
X5893D02*
X6274D01*
X5715D02*
X5817D01*
X5385D02*
X5512D01*
X5131D02*
X5232D01*
X4775D02*
X5029D01*
X4648D02*
X4750D01*
X4496D02*
X4623D01*
X4064D02*
X4445D01*
X3861D02*
X3988D01*
X3277D02*
X3683D01*
X6604Y15088D02*
X6731D01*
X6325D02*
X6452D01*
X5893D02*
X6274D01*
X5715D02*
X5817D01*
X5385D02*
X5512D01*
X5131D02*
X5258D01*
X4801D02*
X5029D01*
X4521D02*
X4750D01*
X4064D02*
X4445D01*
X3861D02*
X3988D01*
X3277D02*
X3658D01*
X6604Y15062D02*
X6731D01*
X6325D02*
X6452D01*
X6172D02*
X6299D01*
X5893D02*
X6020D01*
X5715D02*
X5817D01*
X5385D02*
X5512D01*
X5131D02*
X5258D01*
X4801D02*
X5004D01*
X4521D02*
X4724D01*
X4318D02*
X4445D01*
X4064D02*
X4166D01*
X3861D02*
X3988D01*
X3556D02*
X3658D01*
X6604Y15037D02*
X6731D01*
X6325D02*
X6452D01*
X6172D02*
X6299D01*
X5893D02*
X6020D01*
X5715D02*
X5817D01*
X5385D02*
X5512D01*
X5131D02*
X5258D01*
X4801D02*
X5004D01*
X4521D02*
X4724D01*
X4343D02*
X4445D01*
X4064D02*
X4166D01*
X3861D02*
X3988D01*
X3531D02*
X3658D01*
X3353D02*
X3378D01*
X6604Y15011D02*
X6731D01*
X6325D02*
X6452D01*
X6147D02*
X6299D01*
X5893D02*
X6045D01*
X5715D02*
X5817D01*
X5359D02*
X5512D01*
X5131D02*
X5283D01*
X4826D02*
X5004D01*
X4547D02*
X4724D01*
X4318D02*
X4445D01*
X4064D02*
X4191D01*
X3861D02*
X3988D01*
X3505D02*
X3658D01*
X3302D02*
X3404D01*
X6604Y14986D02*
X6731D01*
X6325D02*
X6452D01*
X5893D02*
X6274D01*
X5715D02*
X5817D01*
X5131D02*
X5512D01*
X4826D02*
X4978D01*
X4547D02*
X4699D01*
X4064D02*
X4445D01*
X3861D02*
X3988D01*
X3277D02*
X3632D01*
X6604Y14961D02*
X6731D01*
X6325D02*
X6452D01*
X5893D02*
X6274D01*
X5715D02*
X5817D01*
X5131D02*
X5486D01*
X4826D02*
X4978D01*
X4547D02*
X4699D01*
X4064D02*
X4420D01*
X3861D02*
X3988D01*
X3277D02*
X3632D01*
X6604Y14935D02*
X6731D01*
X6325D02*
X6452D01*
X5893D02*
X6248D01*
X5715D02*
X5817D01*
X5131D02*
X5461D01*
X4826D02*
X4978D01*
X4572D02*
X4699D01*
X4064D02*
X4420D01*
X3861D02*
X3988D01*
X3302D02*
X3607D01*
X6604Y14910D02*
X6731D01*
X6325D02*
X6452D01*
X5893D02*
X6223D01*
X5715D02*
X5817D01*
X5258D02*
X5436D01*
X5131D02*
X5232D01*
X4851D02*
X4953D01*
X4572D02*
X4699D01*
X4064D02*
X4394D01*
X3861D02*
X3988D01*
X3353D02*
X3581D01*
X3124Y75921D02*
X3302D01*
X3150Y75895D02*
X3302D01*
X3175Y75870D02*
X3327D01*
X3175Y75844D02*
X3353D01*
X3200Y75819D02*
X3378D01*
X3226Y75794D02*
X3404D01*
X3251Y75768D02*
X3429D01*
X3277Y75743D02*
X3429D01*
X3277Y75717D02*
X3454D01*
X3302Y75692D02*
X3480D01*
X3327Y75667D02*
X3505D01*
X3353Y75641D02*
X3531D01*
X3378Y75616D02*
X3556D01*
X3404Y75590D02*
X3581D01*
X3429Y75565D02*
X3607D01*
X3454Y75540D02*
X3632D01*
X3454Y75514D02*
X3658D01*
X3480Y75489D02*
X3683D01*
X3531Y75463D02*
X3708D01*
X3531Y75438D02*
X3734D01*
X3556Y75413D02*
X3759D01*
X3607Y75387D02*
X3785D01*
X2362Y77953D02*
X2489D01*
X2362Y77927D02*
X2489D01*
X2362Y77902D02*
X2489D01*
X2362Y77876D02*
X2515D01*
X2362Y77851D02*
X2515D01*
X2362Y77826D02*
X2515D01*
X2362Y77800D02*
X2515D01*
X2362Y77775D02*
X2515D01*
X2388Y77749D02*
X2515D01*
X2388Y77724D02*
X2515D01*
X2388Y77699D02*
X2515D01*
X2388Y77673D02*
X2540D01*
X2388Y77648D02*
X2540D01*
X2413Y77622D02*
X2540D01*
X2413Y77597D02*
X2540D01*
X2413Y77572D02*
X2540D01*
X2413Y77546D02*
X2540D01*
X2413Y77521D02*
X2565D01*
X2413Y77495D02*
X2565D01*
X2438Y77470D02*
X2565D01*
X2438Y77445D02*
X2565D01*
X2438Y77419D02*
X2591D01*
X2438Y77394D02*
X2591D01*
X2438Y77368D02*
X2591D01*
X2464Y77343D02*
X2591D01*
X2464Y77318D02*
X2616D01*
X2464Y77292D02*
X2616D01*
X2489Y77267D02*
X2616D01*
X2489Y77241D02*
X2616D01*
X2489Y77216D02*
X2642D01*
X2489Y77191D02*
X2642D01*
X2515Y77165D02*
X2642D01*
X2515Y77140D02*
X2667D01*
X2515Y77114D02*
X2667D01*
X2540Y77089D02*
X2667D01*
X2540Y77064D02*
X2692D01*
X2540Y77038D02*
X2692D01*
X2565Y77013D02*
X2692D01*
X2565Y76987D02*
X2718D01*
X2565Y76962D02*
X2718D01*
X2591Y76937D02*
X2743D01*
X2591Y76911D02*
X2743D01*
X2591Y76886D02*
X2743D01*
X2616Y76860D02*
X2769D01*
X2616Y76835D02*
X2769D01*
X2642Y76810D02*
X2769D01*
X2642Y76784D02*
X2794D01*
X2642Y76759D02*
X2794D01*
X2667Y76733D02*
X2819D01*
X2667Y76708D02*
X2819D01*
X2692Y76683D02*
X2845D01*
X2692Y76657D02*
X2845D01*
X2718Y76632D02*
X2845D01*
X2718Y76606D02*
X2870D01*
X2743Y76581D02*
X2896D01*
X2743Y76556D02*
X2896D01*
X2743Y76530D02*
X2921D01*
X2769Y76505D02*
X2921D01*
X2794Y76479D02*
X2921D01*
X2794Y76454D02*
X2946D01*
X2819Y76429D02*
X2972D01*
X2819Y76403D02*
X2972D01*
X2819Y76378D02*
X2997D01*
X2845Y76352D02*
X2997D01*
X2870Y76327D02*
X3023D01*
X2870Y76302D02*
X3048D01*
X2896Y76276D02*
X3048D01*
X2896Y76251D02*
X3073D01*
X2921Y76225D02*
X3073D01*
X2946Y76200D02*
X3099D01*
X2946Y76175D02*
X3124D01*
X2972Y76149D02*
X3124D01*
X2997Y76124D02*
X3150D01*
X2997Y76098D02*
X3175D01*
X3023Y76073D02*
X3175D01*
X3048Y76048D02*
X3200D01*
X3048Y76022D02*
X3226D01*
X3073Y75997D02*
X3226D01*
X3099Y75971D02*
X3251D01*
X2667Y79985D02*
X2845D01*
X2667Y79959D02*
X2819D01*
X2667Y79934D02*
X2819D01*
X2642Y79908D02*
X2794D01*
X2642Y79883D02*
X2794D01*
X2642Y79858D02*
X2769D01*
X2616Y79832D02*
X2769D01*
X2616Y79807D02*
X2769D01*
X2591Y79781D02*
X2743D01*
X2591Y79756D02*
X2743D01*
X2591Y79731D02*
X2743D01*
X2565Y79705D02*
X2718D01*
X2565Y79680D02*
X2718D01*
X2565Y79654D02*
X2692D01*
X2540Y79629D02*
X2692D01*
X2540Y79604D02*
X2692D01*
X2515Y79578D02*
X2667D01*
X2515Y79553D02*
X2667D01*
X2515Y79527D02*
X2667D01*
X2515Y79502D02*
X2642D01*
X2489Y79477D02*
X2642D01*
X2489Y79451D02*
X2642D01*
X2489Y79426D02*
X2616D01*
X2489Y79400D02*
X2616D01*
X2464Y79375D02*
X2616D01*
X2464Y79350D02*
X2616D01*
X2464Y79324D02*
X2591D01*
X2438Y79299D02*
X2591D01*
X2438Y79273D02*
X2591D01*
X2438Y79248D02*
X2591D01*
X2438Y79223D02*
X2565D01*
X2438Y79197D02*
X2565D01*
X2413Y79172D02*
X2565D01*
X2413Y79146D02*
X2565D01*
X2413Y79121D02*
X2540D01*
X2413Y79096D02*
X2540D01*
X2413Y79070D02*
X2540D01*
X2413Y79045D02*
X2540D01*
X2388Y79019D02*
X2540D01*
X2388Y78994D02*
X2540D01*
X2388Y78969D02*
X2515D01*
X2388Y78943D02*
X2515D01*
X2388Y78918D02*
X2515D01*
X2362Y78892D02*
X2515D01*
X2362Y78867D02*
X2515D01*
X2362Y78842D02*
X2515D01*
X2362Y78816D02*
X2515D01*
X2362Y78791D02*
X2515D01*
X2362Y78765D02*
X2489D01*
X2362Y78740D02*
X2489D01*
X2362Y78715D02*
X2489D01*
X2362Y78689D02*
X2489D01*
X2362Y78664D02*
X2489D01*
X2362Y78638D02*
X2489D01*
X2337Y78613D02*
X2489D01*
X2337Y78588D02*
X2489D01*
X2337Y78562D02*
X2464D01*
X2337Y78537D02*
X2464D01*
X2337Y78511D02*
X2464D01*
X2337Y78486D02*
X2464D01*
X2337Y78461D02*
X2464D01*
X2337Y78435D02*
X2464D01*
X2337Y78410D02*
X2464D01*
X2337Y78384D02*
X2464D01*
X2337Y78359D02*
X2464D01*
X2337Y78334D02*
X2464D01*
X2337Y78308D02*
X2464D01*
X2337Y78283D02*
X2464D01*
X2337Y78257D02*
X2464D01*
X2337Y78232D02*
X2464D01*
X2337Y78207D02*
X2464D01*
X2337Y78181D02*
X2464D01*
X2337Y78156D02*
X2464D01*
X2337Y78130D02*
X2464D01*
X2337Y78105D02*
X2464D01*
X2337Y78080D02*
X2489D01*
X2337Y78054D02*
X2489D01*
X2362Y78029D02*
X2489D01*
X2362Y78003D02*
X2489D01*
X3505Y81864D02*
X3556D01*
X3480Y81839D02*
X3581D01*
X3480Y81813D02*
X3581D01*
X3505Y81788D02*
X3607D01*
X3531Y81763D02*
X3632D01*
X3556Y81737D02*
X3658D01*
X3581Y81712D02*
X3683D01*
X3327D02*
X3353D01*
X3581Y81686D02*
X3683D01*
X3302D02*
X3378D01*
X3607Y81661D02*
X3708D01*
X3302D02*
X3404D01*
X3632Y81636D02*
X3734D01*
X3327D02*
X3429D01*
X3658Y81610D02*
X3734D01*
X3353D02*
X3454D01*
X3658Y81585D02*
X3734D01*
X3378D02*
X3480D01*
X3658Y81559D02*
X3734D01*
X3378D02*
X3505D01*
X3658Y81534D02*
X3734D01*
X3404D02*
X3531D01*
X3632Y81509D02*
X3734D01*
X3429D02*
X3556D01*
X3124D02*
X3175D01*
X3454Y81483D02*
X3708D01*
X3099D02*
X3200D01*
X3480Y81458D02*
X3683D01*
X3073D02*
X3226D01*
X3556Y81432D02*
X3632D01*
X3048D02*
X3251D01*
X3150Y81407D02*
X3277D01*
X3023D02*
X3124D01*
X3175Y81382D02*
X3302D01*
X3023D02*
X3099D01*
X3226Y81356D02*
X3327D01*
X3023D02*
X3099D01*
X3226Y81331D02*
X3353D01*
X3023D02*
X3099D01*
X3175Y81305D02*
X3378D01*
X3023D02*
X3124D01*
X3581Y81280D02*
X3785D01*
X3302D02*
X3404D01*
X3023D02*
X3277D01*
X3556Y81255D02*
X3759D01*
X3327D02*
X3429D01*
X3048D02*
X3226D01*
X3531Y81229D02*
X3734D01*
X3353D02*
X3429D01*
X3099D02*
X3200D01*
X3505Y81204D02*
X3708D01*
X3480Y81178D02*
X3683D01*
X3454Y81153D02*
X3658D01*
X3429Y81128D02*
X3632D01*
X3404Y81102D02*
X3607D01*
X3378Y81077D02*
X3581D01*
X3353Y81051D02*
X3556D01*
X3327Y81026D02*
X3531D01*
X3302Y81001D02*
X3505D01*
X3302Y80975D02*
X3480D01*
X3277Y80950D02*
X3454D01*
X3251Y80924D02*
X3429D01*
X3226Y80899D02*
X3429D01*
X3200Y80874D02*
X3404D01*
X3200Y80848D02*
X3378D01*
X3175Y80823D02*
X3353D01*
X3150Y80797D02*
X3353D01*
X3124Y80772D02*
X3302D01*
X3124Y80747D02*
X3302D01*
X3099Y80721D02*
X3277D01*
X3073Y80696D02*
X3251D01*
X3048Y80670D02*
X3251D01*
X3048Y80645D02*
X3226D01*
X3023Y80620D02*
X3200D01*
X3023Y80594D02*
X3175D01*
X2997Y80569D02*
X3175D01*
X2972Y80543D02*
X3150D01*
X2972Y80518D02*
X3124D01*
X2946Y80493D02*
X3124D01*
X2946Y80467D02*
X3099D01*
X2921Y80442D02*
X3073D01*
X2896Y80416D02*
X3073D01*
X2896Y80391D02*
X3048D01*
X2870Y80366D02*
X3048D01*
X2845Y80340D02*
X3023D01*
X2845Y80315D02*
X2997D01*
X2819Y80289D02*
X2997D01*
X2819Y80264D02*
X2972D01*
X2794Y80239D02*
X2972D01*
X2794Y80213D02*
X2946D01*
X2769Y80188D02*
X2921D01*
X2769Y80162D02*
X2921D01*
X2743Y80137D02*
X2921D01*
X2743Y80112D02*
X2896D01*
X2718Y80086D02*
X2896D01*
X2718Y80061D02*
X2870D01*
X2692Y80035D02*
X2845D01*
X5410Y75667D02*
X5486D01*
X5410Y75641D02*
X5486D01*
X5410Y75616D02*
X5486D01*
X5639Y75260D02*
X5664D01*
X5613Y75235D02*
X5690D01*
X5588Y75209D02*
X5690D01*
X5639Y75184D02*
X5664D01*
X3835D02*
X4039D01*
X3861Y75159D02*
X4064D01*
X3886Y75133D02*
X4115D01*
X3912Y75108D02*
X4140D01*
X3962Y75082D02*
X4166D01*
X3988Y75057D02*
X4216D01*
X4013Y75032D02*
X4267D01*
X4064Y75006D02*
X4293D01*
X4089Y74981D02*
X4318D01*
X4140Y74955D02*
X4369D01*
X4166Y74930D02*
X4394D01*
X4191Y74905D02*
X4470D01*
X5588Y74879D02*
X5664D01*
X4242D02*
X4496D01*
X5588Y74854D02*
X5690D01*
X4293D02*
X4547D01*
X5588Y74828D02*
X5664D01*
X4318D02*
X4597D01*
X4369Y74803D02*
X4648D01*
X4420Y74778D02*
X4699D01*
X4445Y74752D02*
X4750D01*
X4521Y74727D02*
X4801D01*
X4547Y74701D02*
X4851D01*
X4597Y74676D02*
X4928D01*
X4674Y74651D02*
X4978D01*
X4699Y74625D02*
X5029D01*
X4775Y74600D02*
X5105D01*
X4826Y74574D02*
X5182D01*
X4877Y74549D02*
X5258D01*
X4953Y74524D02*
X5359D01*
X5029Y74498D02*
X5436D01*
X5080Y74473D02*
X5537D01*
X5156Y74447D02*
X5664D01*
X5258Y74422D02*
X5766D01*
X4623Y77953D02*
X5385D01*
X3861D02*
X4293D01*
X4623Y77927D02*
X5436D01*
X3861D02*
X4293D01*
X4623Y77902D02*
X5537D01*
X3861D02*
X4293D01*
X4623Y77876D02*
X5639D01*
X3861D02*
X4293D01*
X4623Y77851D02*
X5690D01*
X3861D02*
X4293D01*
X4597Y77826D02*
X5766D01*
X3861D02*
X4293D01*
X4547Y77800D02*
X5766D01*
X3861D02*
X4293D01*
X4470Y77775D02*
X5791D01*
X3861D02*
X4343D01*
X3861Y77749D02*
X5817D01*
X4775Y76962D02*
X4801D01*
X4775Y76937D02*
X4877D01*
X4775Y76911D02*
X4953D01*
X4801Y76886D02*
X5029D01*
X4801Y76860D02*
X5131D01*
X4826Y76835D02*
X5232D01*
X4826Y76810D02*
X5283D01*
X4851Y76784D02*
X5410D01*
X4851Y76759D02*
X5512D01*
X4877Y76733D02*
X5613D01*
X5791Y76708D02*
X5817D01*
X4902D02*
X5740D01*
X5309Y76276D02*
X5359D01*
X5309Y76251D02*
X5461D01*
X5359Y76225D02*
X5537D01*
X5410Y76200D02*
X5613D01*
X5436Y76175D02*
X5690D01*
X5486Y76149D02*
X5791D01*
X4496Y79985D02*
X4724D01*
X4470Y79959D02*
X4775D01*
X4445Y79934D02*
X4801D01*
X4293D02*
X4318D01*
X4445Y79908D02*
X4775D01*
X4267D02*
X4343D01*
X4470Y79883D02*
X4750D01*
X4267D02*
X4318D01*
X4521Y79858D02*
X4724D01*
X4547Y79832D02*
X4699D01*
X4572Y79807D02*
X4699D01*
X4597Y79781D02*
X4674D01*
X4597Y79756D02*
X4674D01*
X4597Y79731D02*
X4648D01*
X4623Y79705D02*
X4648D01*
X4750Y79629D02*
X4826D01*
X4750Y79604D02*
X4851D01*
X4750Y79578D02*
X4826D01*
X4775Y79553D02*
X4801D01*
X5436Y79223D02*
X5791D01*
X5410Y79197D02*
X5715D01*
X5359Y79172D02*
X5690D01*
X5334Y79146D02*
X5613D01*
X5309Y79121D02*
X5588D01*
X5258Y79096D02*
X5537D01*
X5232Y79070D02*
X5486D01*
X5207Y79045D02*
X5461D01*
X5182Y79019D02*
X5436D01*
X5156Y78994D02*
X5385D01*
X4216D02*
X4750D01*
X3861D02*
X3937D01*
X5182Y78969D02*
X5359D01*
X4140D02*
X4826D01*
X3861D02*
X3937D01*
X5232Y78943D02*
X5334D01*
X5105D02*
X5182D01*
X4039D02*
X4877D01*
X3861D02*
X3962D01*
X5080Y78918D02*
X5232D01*
X3861D02*
X4953D01*
X5055Y78892D02*
X5283D01*
X4445D02*
X4978D01*
X3861D02*
X4343D01*
X4521Y78867D02*
X5258D01*
X3861D02*
X4267D01*
X4572Y78842D02*
X5232D01*
X3861D02*
X4191D01*
X4623Y78816D02*
X5207D01*
X3861D02*
X4140D01*
X4648Y78791D02*
X5182D01*
X3861D02*
X4115D01*
X4674Y78765D02*
X5156D01*
X3861D02*
X4089D01*
X5690Y78740D02*
X5715D01*
X4699D02*
X5156D01*
X3861D02*
X4064D01*
X4724Y78715D02*
X5182D01*
X3861D02*
X4039D01*
X5664Y78689D02*
X5715D01*
X4724D02*
X5207D01*
X3861D02*
X4039D01*
X5690Y78664D02*
X5766D01*
X4750D02*
X5207D01*
X3861D02*
X4013D01*
X4750Y78638D02*
X5232D01*
X3861D02*
X4013D01*
X4775Y78613D02*
X5258D01*
X3861D02*
X3988D01*
X4775Y78588D02*
X5258D01*
X3861D02*
X3988D01*
X4775Y78562D02*
X5258D01*
X3861D02*
X3962D01*
X4801Y78537D02*
X5258D01*
X4801Y78511D02*
X5283D01*
X4801Y78486D02*
X5283D01*
X4801Y78461D02*
X5283D01*
X4826Y78435D02*
X5283D01*
X4826Y78410D02*
X5309D01*
X4826Y78384D02*
X5309D01*
X4826Y78359D02*
X5715D01*
X4826Y78308D02*
X5309D01*
X4826Y78283D02*
X5309D01*
X4216D02*
X4521D01*
X4826Y78257D02*
X5309D01*
X4826Y78232D02*
X5309D01*
X4826Y78207D02*
X5283D01*
X4801Y78181D02*
X5283D01*
X4801Y78156D02*
X5283D01*
X4801Y78130D02*
X5283D01*
X4674D02*
X4775D01*
X3835D02*
X4318D01*
X4648Y78105D02*
X5283D01*
X3835D02*
X4293D01*
X4648Y78080D02*
X5258D01*
X3861D02*
X4293D01*
X4648Y78054D02*
X5258D01*
X3861D02*
X4293D01*
X4648Y78029D02*
X5232D01*
X3861D02*
X4293D01*
X4623Y78003D02*
X5232D01*
X3861D02*
X4293D01*
X4623Y82017D02*
X4978D01*
X4293D02*
X4369D01*
X4013D02*
X4115D01*
X4572Y81991D02*
X4928D01*
X4293D02*
X4369D01*
X4039D02*
X4140D01*
X4521Y81966D02*
X4851D01*
X4318D02*
X4369D01*
X4064D02*
X4140D01*
X4470Y81940D02*
X4801D01*
X4318D02*
X4343D01*
X4064D02*
X4140D01*
X4420Y81915D02*
X4750D01*
X4064D02*
X4140D01*
X4394Y81890D02*
X4699D01*
X4064D02*
X4140D01*
X4343Y81864D02*
X4648D01*
X4064D02*
X4140D01*
X4293Y81839D02*
X4597D01*
X4039D02*
X4140D01*
X4267Y81813D02*
X4547D01*
X4013D02*
X4115D01*
X4216Y81788D02*
X4496D01*
X4166Y81763D02*
X4470D01*
X3835D02*
X4089D01*
X4140Y81737D02*
X4420D01*
X3912D02*
X4013D01*
X4089Y81712D02*
X4369D01*
X4064Y81686D02*
X4318D01*
X4039Y81661D02*
X4293D01*
X3988Y81636D02*
X4267D01*
X3962Y81610D02*
X4216D01*
X3937Y81585D02*
X4166D01*
X3912Y81559D02*
X4140D01*
X3861Y81534D02*
X4115D01*
X3835Y81509D02*
X4064D01*
X4267Y80391D02*
X4343D01*
X4267Y80366D02*
X4343D01*
X4267Y80340D02*
X4343D01*
X4902Y80239D02*
X5004D01*
X4902Y80213D02*
X5004D01*
X4902Y80188D02*
X5004D01*
X4597Y80162D02*
X4623D01*
X4597Y80137D02*
X4623D01*
X4572Y80112D02*
X4648D01*
X4572Y80086D02*
X4648D01*
X4547Y80061D02*
X4648D01*
X4547Y80035D02*
X4674D01*
X5436Y82804D02*
X5512D01*
X5359Y82779D02*
X5512D01*
X5283Y82753D02*
X5512D01*
X5283Y82728D02*
X5512D01*
X5436Y82702D02*
X5537D01*
X5461Y82677D02*
X5537D01*
X5461Y82652D02*
X5537D01*
X5436Y82626D02*
X5537D01*
X5334Y82601D02*
X5537D01*
X5309Y82575D02*
X5563D01*
X4699D02*
X4801D01*
X5486Y82550D02*
X5563D01*
X5334D02*
X5385D01*
X4623D02*
X4851D01*
X5486Y82525D02*
X5563D01*
X4597D02*
X4902D01*
X5486Y82499D02*
X5588D01*
X4801D02*
X4928D01*
X4572D02*
X4699D01*
X5512Y82474D02*
X5588D01*
X4826D02*
X4928D01*
X4572D02*
X4648D01*
X5461Y82448D02*
X5588D01*
X4851D02*
X4953D01*
X5359Y82423D02*
X5588D01*
X4851D02*
X4953D01*
X5359Y82398D02*
X5512D01*
X4877D02*
X4953D01*
X4318D02*
X4394D01*
X5359Y82372D02*
X5436D01*
X4877D02*
X4953D01*
X4674D02*
X4775D01*
X4267D02*
X4394D01*
X4877Y82347D02*
X4953D01*
X4623D02*
X4775D01*
X4216D02*
X4420D01*
X4877Y82321D02*
X4953D01*
X4623D02*
X4724D01*
X4343D02*
X4420D01*
X4191D02*
X4318D01*
X4851Y82296D02*
X4953D01*
X4623D02*
X4724D01*
X4343D02*
X4445D01*
X4166D02*
X4267D01*
X4851Y82271D02*
X4953D01*
X4648D02*
X4724D01*
X4369D02*
X4445D01*
X4166D02*
X4242D01*
X5207Y82245D02*
X5766D01*
X4826D02*
X4928D01*
X4648D02*
X4724D01*
X4369D02*
X4470D01*
X4166D02*
X4242D01*
X5131Y82220D02*
X5664D01*
X4674D02*
X4902D01*
X4369D02*
X4470D01*
X4166D02*
X4267D01*
X5029Y82194D02*
X5537D01*
X4674D02*
X4877D01*
X4191D02*
X4496D01*
X4978Y82169D02*
X5436D01*
X4674D02*
X4801D01*
X4420D02*
X4496D01*
X4216D02*
X4394D01*
X4902Y82144D02*
X5359D01*
X4420D02*
X4521D01*
X4242D02*
X4369D01*
X4851Y82118D02*
X5258D01*
X4445D02*
X4521D01*
X4293D02*
X4343D01*
X3835D02*
X4039D01*
X4801Y82093D02*
X5182D01*
X4445D02*
X4547D01*
X4293D02*
X4343D01*
X4724Y82067D02*
X5105D01*
X4470D02*
X4547D01*
X4293D02*
X4369D01*
X3937D02*
X4089D01*
X6045Y75921D02*
X6655D01*
X6172Y75895D02*
X6604D01*
X5994Y75387D02*
X6045D01*
X5969Y75362D02*
X6071D01*
X6604Y75336D02*
X6680D01*
X5969D02*
X6071D01*
X6604Y75311D02*
X6680D01*
X5994D02*
X6045D01*
X6604Y75286D02*
X6680D01*
X6350Y75032D02*
X6375D01*
X6350Y75006D02*
X6401D01*
X6325Y74981D02*
X6426D01*
X6299Y74955D02*
X6477D01*
X6274Y74930D02*
X6502D01*
X6274Y74905D02*
X6452D01*
X6299Y74879D02*
X6426D01*
X6325Y74854D02*
X6401D01*
X6350Y74828D02*
X6401D01*
X6350Y74803D02*
X6375D01*
X6909Y74701D02*
X6960D01*
X6909Y74676D02*
X6985D01*
X6909Y74651D02*
X6985D01*
X6934Y74625D02*
X6960D01*
X7442Y74498D02*
X7823D01*
X7341Y74473D02*
X7772D01*
X7214Y74447D02*
X7671D01*
X7087Y74422D02*
X7595D01*
X6909Y74397D02*
X7518D01*
X6071Y74270D02*
X6782D01*
X7391Y77953D02*
X7823D01*
X7290D02*
X7366D01*
X6452D02*
X6985D01*
X7391Y77927D02*
X7849D01*
X7341D02*
X7366D01*
X6553D02*
X7010D01*
X7264Y77902D02*
X7849D01*
X6604D02*
X7036D01*
X7315Y77876D02*
X7823D01*
X6604D02*
X7036D01*
X7315Y77851D02*
X7849D01*
X6579D02*
X7061D01*
X6858Y77826D02*
X7087D01*
X6553D02*
X6782D01*
X7214Y77800D02*
X7290D01*
X6934D02*
X7112D01*
X6528D02*
X6782D01*
X7036Y77775D02*
X7112D01*
X6477D02*
X6782D01*
X5867D02*
X6248D01*
X5893Y77749D02*
X6756D01*
X5918Y77724D02*
X6756D01*
X5969Y77699D02*
X6756D01*
X7823Y77673D02*
X7849D01*
X7595D02*
X7747D01*
X7417D02*
X7569D01*
X7214D02*
X7264D01*
X6655D02*
X6756D01*
X6579D02*
X6604D01*
X6020D02*
X6553D01*
X7468Y77648D02*
X7671D01*
X7569Y77622D02*
X7595D01*
X5918Y76683D02*
X7391D01*
X6121Y76657D02*
X7391D01*
X6071D02*
X6096D01*
X6172Y76632D02*
X7391D01*
X6350Y76606D02*
X7391D01*
X7671Y76581D02*
X7849D01*
X6477D02*
X7391D01*
X6325D02*
X6350D01*
X7620Y76556D02*
X7823D01*
X6629D02*
X7391D01*
X6477D02*
X6502D01*
X7595Y76530D02*
X7798D01*
X6782D02*
X7417D01*
X7595Y76505D02*
X7798D01*
X6960D02*
X7417D01*
X6883D02*
X6934D01*
X7544Y76479D02*
X7772D01*
X7061D02*
X7417D01*
X7010D02*
X7036D01*
X7518Y76454D02*
X7747D01*
X7239D02*
X7417D01*
X7188D02*
X7214D01*
X7087D02*
X7112D01*
X7518Y76429D02*
X7722D01*
X7544Y76403D02*
X7696D01*
X7391D02*
X7417D01*
X5867D02*
X7366D01*
X7595Y76378D02*
X7620D01*
X6020D02*
X7544D01*
X6147Y76352D02*
X7620D01*
X6248Y76327D02*
X7620D01*
X6401Y76302D02*
X7569D01*
X6579Y76276D02*
X7544D01*
X6680Y76251D02*
X7518D01*
X6858Y76225D02*
X7493D01*
X7010Y76200D02*
X7442D01*
X7137Y76175D02*
X7417D01*
X7315Y76149D02*
X7366D01*
X6706Y79985D02*
X6883D01*
X6731Y79959D02*
X6833D01*
X6756Y79934D02*
X6807D01*
X6756Y79908D02*
X6807D01*
X7036Y79781D02*
X7112D01*
X7036Y79756D02*
X7112D01*
X7036Y79731D02*
X7112D01*
X7061Y79705D02*
X7087D01*
X6248Y79502D02*
X6579D01*
X6096Y79477D02*
X6731D01*
X5969Y79451D02*
X6883D01*
X5893Y79426D02*
X6960D01*
X6528Y79350D02*
X7137D01*
X6680Y79324D02*
X7214D01*
X6807Y79299D02*
X7264D01*
X6934Y79273D02*
X7290D01*
X6985Y79248D02*
X7341D01*
X7061Y79223D02*
X7391D01*
X7112Y79197D02*
X7417D01*
X7163Y79172D02*
X7468D01*
X7214Y79146D02*
X7518D01*
X7264Y79121D02*
X7544D01*
X7290Y79096D02*
X7569D01*
X7341Y79070D02*
X7595D01*
X7366Y79045D02*
X7620D01*
X7391Y79019D02*
X7645D01*
X6426D02*
X6477D01*
X6223D02*
X6401D01*
X6147D02*
X6198D01*
X7722Y78994D02*
X7849D01*
X7264D02*
X7671D01*
X6045D02*
X6528D01*
X7264Y78892D02*
X7315D01*
X6223D02*
X6680D01*
X6274Y78842D02*
X6731D01*
X6096D02*
X6248D01*
X6198Y78816D02*
X6756D01*
X6248Y78791D02*
X6756D01*
X6274Y78765D02*
X6756D01*
X6325Y78740D02*
X6782D01*
X6325Y78715D02*
X6782D01*
X6325Y78689D02*
X6782D01*
X6299Y78664D02*
X6807D01*
X6274Y78638D02*
X6807D01*
X6223Y78613D02*
X6807D01*
X6172Y78588D02*
X6807D01*
X6121Y78562D02*
X6807D01*
X6096Y78537D02*
X6807D01*
X6071Y78511D02*
X6782D01*
X7341Y78486D02*
X7849D01*
X5994D02*
X6782D01*
X7341Y78461D02*
X7849D01*
X5944D02*
X6756D01*
X5918Y78435D02*
X6756D01*
X5893Y78410D02*
X6756D01*
X5867Y78384D02*
X6731D01*
X7341Y78359D02*
X7849D01*
X7341Y78334D02*
X7849D01*
X7341Y78308D02*
X7849D01*
X7341Y78283D02*
X7849D01*
X7341Y78257D02*
X7849D01*
X7341Y78232D02*
X7849D01*
X7341Y78207D02*
X7849D01*
X7341Y78181D02*
X7849D01*
X7341Y78156D02*
X7849D01*
X7341Y78130D02*
X7849D01*
X7315Y78105D02*
X7849D01*
X7315Y78080D02*
X7849D01*
X7315Y78054D02*
X7849D01*
X7315Y78029D02*
X7823D01*
X7341Y78003D02*
X7823D01*
X6299D02*
X6934D01*
X7595Y81051D02*
X7798D01*
X6858D02*
X6934D01*
X7569Y81026D02*
X7747D01*
X6858D02*
X6934D01*
X7544Y81001D02*
X7696D01*
X6858D02*
X6934D01*
X7518Y80975D02*
X7645D01*
X7493Y80950D02*
X7645D01*
X7493Y80924D02*
X7595D01*
X7468Y80899D02*
X7569D01*
X7442Y80874D02*
X7620D01*
X7442Y80848D02*
X7772D01*
X6375Y80594D02*
X6452D01*
X6375Y80569D02*
X6452D01*
X6375Y80543D02*
X6452D01*
X6401Y80518D02*
X6452D01*
X6782Y80112D02*
X6833D01*
X6756Y80086D02*
X6833D01*
X6731Y80061D02*
X6833D01*
X6680Y80035D02*
X6858D01*
X6655Y82880D02*
X6858D01*
X6274D02*
X6375D01*
X6629Y82855D02*
X6858D01*
X6274D02*
X6375D01*
X7061Y82829D02*
X7214D01*
X6604D02*
X6858D01*
X6248D02*
X6375D01*
X7061Y82804D02*
X7264D01*
X6782D02*
X6858D01*
X6579D02*
X6680D01*
X6248D02*
X6401D01*
X7163Y82779D02*
X7264D01*
X6782D02*
X6858D01*
X6579D02*
X6655D01*
X6325D02*
X6401D01*
X6248D02*
X6299D01*
X5893D02*
X5994D01*
X7188Y82753D02*
X7264D01*
X6782D02*
X6858D01*
X6579D02*
X6655D01*
X6325D02*
X6426D01*
X6223D02*
X6299D01*
X5918D02*
X5994D01*
X7188Y82728D02*
X7264D01*
X6782D02*
X6833D01*
X6579D02*
X6680D01*
X6350D02*
X6426D01*
X6223D02*
X6299D01*
X5944D02*
X6020D01*
X7188Y82702D02*
X7264D01*
X6782D02*
X6833D01*
X6604D02*
X6706D01*
X6350D02*
X6426D01*
X6223D02*
X6299D01*
X5944D02*
X6020D01*
X7112Y82677D02*
X7264D01*
X6629D02*
X6833D01*
X6350D02*
X6426D01*
X6198D02*
X6274D01*
X5944D02*
X6020D01*
X7036Y82652D02*
X7264D01*
X6655D02*
X6833D01*
X6198D02*
X6452D01*
X5944D02*
X6020D01*
X7010Y82626D02*
X7214D01*
X6782D02*
X6833D01*
X6198D02*
X6452D01*
X5944D02*
X6020D01*
X7010Y82601D02*
X7137D01*
X6756D02*
X6833D01*
X6375D02*
X6452D01*
X6172D02*
X6274D01*
X5944D02*
X6020D01*
X7010Y82575D02*
X7087D01*
X6756D02*
X6833D01*
X6401D02*
X6477D01*
X6172D02*
X6248D01*
X5918D02*
X6020D01*
X7010Y82550D02*
X7061D01*
X6756D02*
X6833D01*
X6401D02*
X6477D01*
X6172D02*
X6248D01*
X5918D02*
X5994D01*
X7010Y82525D02*
X7087D01*
X6756D02*
X6833D01*
X6401D02*
X6502D01*
X6147D02*
X6223D01*
X5867D02*
X5994D01*
X7214Y82499D02*
X7239D01*
X7010D02*
X7112D01*
X6756D02*
X6833D01*
X6426D02*
X6502D01*
X6147D02*
X6223D01*
X7036Y82474D02*
X7239D01*
X7061Y82448D02*
X7239D01*
X7772Y82423D02*
X7849D01*
X6121D02*
X6731D01*
X7772Y82398D02*
X7849D01*
X5918D02*
X6934D01*
X7747Y82372D02*
X7849D01*
X7595D02*
X7671D01*
X7595Y82347D02*
X7823D01*
X7620Y82321D02*
X7823D01*
X7671Y82296D02*
X7823D01*
X7772Y82271D02*
X7798D01*
X6883D02*
X7569D01*
X7087Y82245D02*
X7645D01*
X7188Y82220D02*
X7722D01*
X7315Y82194D02*
X7823D01*
X9576Y75921D02*
X9728D01*
X9550Y75895D02*
X9703D01*
X9525Y75870D02*
X9677D01*
X9525Y75844D02*
X9677D01*
X9500Y75819D02*
X9652D01*
X9474Y75794D02*
X9627D01*
X9449Y75768D02*
X9601D01*
X9423Y75743D02*
X9576D01*
X9398Y75717D02*
X9576D01*
X9373Y75692D02*
X9550D01*
X9347Y75667D02*
X9525D01*
X9347Y75641D02*
X9500D01*
X9322Y75616D02*
X9474D01*
X9296Y75590D02*
X9449D01*
X9271Y75565D02*
X9423D01*
X9246Y75540D02*
X9398D01*
X9220Y75514D02*
X9398D01*
X9195Y75489D02*
X9373D01*
X9169Y75463D02*
X9322D01*
X9144Y75438D02*
X9322D01*
X9093Y75413D02*
X9296D01*
X9068Y75387D02*
X9246D01*
X9042Y75362D02*
X9246D01*
X9017Y75336D02*
X9195D01*
X8992Y75311D02*
X9169D01*
X8966Y75286D02*
X9144D01*
X8941Y75260D02*
X9119D01*
X8890Y75235D02*
X9093D01*
X8865Y75209D02*
X9068D01*
X8839Y75184D02*
X9017D01*
X8814Y75159D02*
X8992D01*
X8763Y75133D02*
X8966D01*
X8738Y75108D02*
X8941D01*
X8687Y75082D02*
X8890D01*
X8661Y75057D02*
X8865D01*
X8611Y75032D02*
X8839D01*
X8585Y75006D02*
X8788D01*
X8534Y74981D02*
X8763D01*
X8484Y74955D02*
X8712D01*
X8458Y74930D02*
X8687D01*
X8407Y74905D02*
X8661D01*
X8357Y74879D02*
X8611D01*
X8331Y74854D02*
X8560D01*
X8280Y74828D02*
X8534D01*
X8230Y74803D02*
X8484D01*
X8179Y74778D02*
X8433D01*
X8128Y74752D02*
X8407D01*
X8077Y74727D02*
X8331D01*
X8026Y74701D02*
X8306D01*
X7950Y74676D02*
X8255D01*
X7899Y74651D02*
X8179D01*
X9474Y77953D02*
X9652D01*
X8839D02*
X8941D01*
X8153D02*
X8484D01*
X8052D02*
X8128D01*
X9474Y77927D02*
X9627D01*
X8839D02*
X8941D01*
X8179D02*
X8484D01*
X8052D02*
X8128D01*
X9500Y77902D02*
X9601D01*
X8839D02*
X8966D01*
X8179D02*
X8484D01*
X8052D02*
X8153D01*
X9525Y77876D02*
X9601D01*
X8814D02*
X8966D01*
X8204D02*
X8458D01*
X8077D02*
X8153D01*
X9550Y77851D02*
X9601D01*
X8814D02*
X8966D01*
X8204D02*
X8458D01*
X8077D02*
X8153D01*
X8814Y77826D02*
X8992D01*
X8204D02*
X8433D01*
X8077D02*
X8179D01*
X8788Y77800D02*
X9042D01*
X8230D02*
X8433D01*
X8077D02*
X8179D01*
X7925D02*
X8001D01*
X8661Y77775D02*
X9119D01*
X8230D02*
X8407D01*
X8077D02*
X8204D01*
X8661Y77749D02*
X9119D01*
X8255D02*
X8407D01*
X8077D02*
X8204D01*
X9703Y77724D02*
X9779D01*
X8661D02*
X9119D01*
X8255D02*
X8407D01*
X8077D02*
X8230D01*
X9703Y77699D02*
X9779D01*
X8661D02*
X9119D01*
X8280D02*
X8382D01*
X8077D02*
X8230D01*
X9703Y77673D02*
X9779D01*
X9093D02*
X9119D01*
X8661D02*
X8712D01*
X8280D02*
X8382D01*
X8077D02*
X8230D01*
X7925D02*
X8001D01*
X8077Y77648D02*
X8230D01*
X8077Y77622D02*
X8230D01*
X8103Y77597D02*
X8230D01*
X8153Y77572D02*
X8230D01*
X8077D02*
X8128D01*
X8077Y77546D02*
X8179D01*
X8077Y77521D02*
X8230D01*
X8077Y77495D02*
X8230D01*
X8077Y77470D02*
X8204D01*
X8153Y77445D02*
X8204D01*
X8001Y77216D02*
X8077D01*
X8001Y77191D02*
X8153D01*
X8001Y77165D02*
X8153D01*
X9576Y77140D02*
X9652D01*
X7976D02*
X8153D01*
X9576Y77114D02*
X9652D01*
X7976D02*
X8128D01*
X9576Y77089D02*
X9652D01*
X7976D02*
X8128D01*
X7950Y77064D02*
X8103D01*
X7950Y77038D02*
X8103D01*
X7925Y77013D02*
X8103D01*
X7925Y76987D02*
X8077D01*
X7925Y76962D02*
X8077D01*
X7899Y76937D02*
X8077D01*
X7899Y76911D02*
X8052D01*
X9728Y76149D02*
X9881D01*
X9728Y76124D02*
X9855D01*
X9703Y76098D02*
X9855D01*
X9677Y76073D02*
X9830D01*
X9677Y76048D02*
X9804D01*
X9652Y76022D02*
X9804D01*
X9627Y75997D02*
X9779D01*
X9627Y75971D02*
X9754D01*
X8661Y79985D02*
X8738D01*
X8026D02*
X8077D01*
X8661Y79959D02*
X8738D01*
X8001D02*
X8103D01*
X8636Y79934D02*
X8763D01*
X8001D02*
X8103D01*
X8611Y79908D02*
X8788D01*
X8026D02*
X8103D01*
X8611Y79883D02*
X8814D01*
X8585Y79858D02*
X8839D01*
X8509Y79832D02*
X8890D01*
X8509Y79807D02*
X8890D01*
X8560Y79781D02*
X8839D01*
X8585Y79756D02*
X8814D01*
X8636Y79731D02*
X8788D01*
X8661Y79705D02*
X8788D01*
X8661Y79680D02*
X8763D01*
X8687Y79654D02*
X8763D01*
X8687Y79629D02*
X8763D01*
X8687Y79604D02*
X8738D01*
X8179D02*
X8255D01*
X8179Y79578D02*
X8255D01*
X8204Y79553D02*
X8255D01*
X7899Y79502D02*
X7950D01*
X9246Y79451D02*
X9296D01*
X9220Y79426D02*
X9322D01*
X7899D02*
X7950D01*
X9220Y79400D02*
X9322D01*
X9017Y79223D02*
X9093D01*
X9017Y79197D02*
X9093D01*
X9017Y79172D02*
X9093D01*
X8382Y79146D02*
X8407D01*
X8357Y79121D02*
X8433D01*
X8357Y79096D02*
X8458D01*
X9322Y79070D02*
X9398D01*
X8306D02*
X8534D01*
X9296Y79045D02*
X9398D01*
X8280D02*
X8560D01*
X9296Y79019D02*
X9398D01*
X8230D02*
X8560D01*
X9322Y78994D02*
X9373D01*
X8941D02*
X9042D01*
X8255D02*
X8560D01*
X8331Y78969D02*
X9042D01*
X8357Y78943D02*
X9042D01*
X8382Y78918D02*
X9042D01*
X8407Y78892D02*
X8992D01*
X8382Y78867D02*
X8941D01*
X8382Y78842D02*
X8915D01*
X8382Y78816D02*
X8915D01*
X8357Y78791D02*
X8915D01*
X8357Y78765D02*
X8915D01*
X8357Y78740D02*
X8915D01*
X8331Y78715D02*
X8915D01*
X8331Y78689D02*
X8915D01*
X8306Y78664D02*
X8915D01*
X8306Y78638D02*
X8915D01*
X8788Y78613D02*
X8915D01*
X8280D02*
X8763D01*
X8788Y78588D02*
X8915D01*
X8280D02*
X8763D01*
X8788Y78562D02*
X8915D01*
X8280D02*
X8763D01*
X8788Y78537D02*
X8915D01*
X8255D02*
X8738D01*
X8788Y78511D02*
X8915D01*
X8255D02*
X8712D01*
X8788Y78486D02*
X8915D01*
X8230D02*
X8712D01*
X8788Y78461D02*
X8915D01*
X8230D02*
X8712D01*
X8788Y78435D02*
X8915D01*
X8230D02*
X8687D01*
X7899D02*
X8077D01*
X8814Y78410D02*
X8915D01*
X8204D02*
X8687D01*
X7899D02*
X8103D01*
X8814Y78384D02*
X8915D01*
X8204D02*
X8687D01*
X7925D02*
X8103D01*
X8814Y78359D02*
X8915D01*
X8179D02*
X8661D01*
X7925D02*
X8128D01*
X8814Y78334D02*
X8941D01*
X8179D02*
X8661D01*
X7950D02*
X8128D01*
X8814Y78308D02*
X8941D01*
X7950D02*
X8636D01*
X8814Y78283D02*
X8941D01*
X7976D02*
X8636D01*
X8814Y78257D02*
X8941D01*
X7976D02*
X8611D01*
X8814Y78232D02*
X8941D01*
X7976D02*
X8611D01*
X9500Y78207D02*
X9576D01*
X8814D02*
X8941D01*
X8001D02*
X8611D01*
X9500Y78181D02*
X9576D01*
X8814D02*
X8941D01*
X7976D02*
X8585D01*
X9500Y78156D02*
X9576D01*
X8814D02*
X8941D01*
X7976D02*
X8585D01*
X9525Y78130D02*
X9550D01*
X8814D02*
X8941D01*
X7976D02*
X8560D01*
X8814Y78105D02*
X8941D01*
X8103D02*
X8560D01*
X8001D02*
X8077D01*
X8814Y78080D02*
X8941D01*
X8103D02*
X8560D01*
X8001D02*
X8077D01*
X9525Y78054D02*
X9576D01*
X8814D02*
X8941D01*
X8128D02*
X8534D01*
X8001D02*
X8077D01*
X9525Y78029D02*
X9576D01*
X8814D02*
X8941D01*
X8128D02*
X8534D01*
X8026D02*
X8103D01*
X9500Y78003D02*
X9601D01*
X8814D02*
X8941D01*
X8153D02*
X8509D01*
X8052D02*
X8103D01*
X8865Y82017D02*
X8941D01*
X8687D02*
X8738D01*
X8560D02*
X8636D01*
X8357D02*
X8382D01*
X7899D02*
X8230D01*
X9119Y81991D02*
X9169D01*
X8839D02*
X8941D01*
X8534D02*
X8636D01*
X7950D02*
X8280D01*
X9119Y81966D02*
X9220D01*
X8839D02*
X8915D01*
X8534D02*
X8611D01*
X8026D02*
X8331D01*
X9119Y81940D02*
X9246D01*
X8814D02*
X8915D01*
X8534D02*
X8636D01*
X8077D02*
X8382D01*
X9169Y81915D02*
X9271D01*
X8763D02*
X8915D01*
X8534D02*
X8661D01*
X8128D02*
X8433D01*
X9195Y81890D02*
X9296D01*
X8585D02*
X8865D01*
X8179D02*
X8458D01*
X9220Y81864D02*
X9296D01*
X8611D02*
X8865D01*
X8230D02*
X8509D01*
X9220Y81839D02*
X9296D01*
X8661D02*
X8814D01*
X8280D02*
X8560D01*
X9246Y81813D02*
X9296D01*
X8331D02*
X8585D01*
X9246Y81788D02*
X9296D01*
X8357D02*
X8636D01*
X9220Y81763D02*
X9296D01*
X8407D02*
X8687D01*
X9220Y81737D02*
X9296D01*
X8458D02*
X8712D01*
X9195Y81712D02*
X9296D01*
X8890D02*
X8966D01*
X8484D02*
X8738D01*
X9169Y81686D02*
X9296D01*
X8890D02*
X8992D01*
X8534D02*
X8788D01*
X9525Y81661D02*
X9576D01*
X9144D02*
X9271D01*
X8915D02*
X9017D01*
X8585D02*
X8814D01*
X9500Y81636D02*
X9601D01*
X8941D02*
X9246D01*
X8611D02*
X8865D01*
X9449Y81610D02*
X9601D01*
X8966D02*
X9220D01*
X8661D02*
X8890D01*
X9423Y81585D02*
X9576D01*
X9017D02*
X9169D01*
X8687D02*
X8915D01*
X9398Y81559D02*
X9576D01*
X8738D02*
X8941D01*
X9373Y81534D02*
X9576D01*
X8763D02*
X8992D01*
X9474Y81509D02*
X9550D01*
X9347D02*
X9449D01*
X8814D02*
X9017D01*
X9474Y81483D02*
X9550D01*
X9322D02*
X9449D01*
X8814D02*
X9042D01*
X9677Y81458D02*
X9779D01*
X9449D02*
X9525D01*
X9271D02*
X9398D01*
X8865D02*
X9093D01*
X9652Y81432D02*
X9804D01*
X9449D02*
X9525D01*
X9271D02*
X9373D01*
X8890D02*
X9093D01*
X9576Y81407D02*
X9804D01*
X9423D02*
X9500D01*
X9246D02*
X9347D01*
X8941D02*
X9144D01*
X9525Y81382D02*
X9779D01*
X9423D02*
X9500D01*
X9271D02*
X9322D01*
X8966D02*
X9169D01*
X9398Y81356D02*
X9754D01*
X8992D02*
X9195D01*
X9627Y81331D02*
X9728D01*
X9398D02*
X9601D01*
X9017D02*
X9220D01*
X9601Y81305D02*
X9703D01*
X9373D02*
X9550D01*
X9042D02*
X9246D01*
X9576Y81280D02*
X9677D01*
X9373D02*
X9500D01*
X9068D02*
X9271D01*
X9550Y81255D02*
X9677D01*
X9398D02*
X9449D01*
X9093D02*
X9296D01*
X9525Y81229D02*
X9652D01*
X9119D02*
X9322D01*
X9525Y81204D02*
X9601D01*
X9169D02*
X9347D01*
X9500Y81178D02*
X9601D01*
X9195D02*
X9373D01*
X9500Y81153D02*
X9576D01*
X9220D02*
X9398D01*
X9246Y81128D02*
X9423D01*
X9271Y81102D02*
X9449D01*
X9296Y81077D02*
X9474D01*
X9322Y81051D02*
X9500D01*
X8001D02*
X8204D01*
X9322Y81026D02*
X9525D01*
X8052D02*
X8255D01*
X9347Y81001D02*
X9550D01*
X8128D02*
X8280D01*
X9373Y80975D02*
X9550D01*
X8153D02*
X8306D01*
X9398Y80950D02*
X9576D01*
X8179D02*
X8306D01*
X9423Y80924D02*
X9601D01*
X8204D02*
X8331D01*
X9449Y80899D02*
X9627D01*
X8230D02*
X8331D01*
X9474Y80874D02*
X9652D01*
X8230D02*
X8357D01*
X9500Y80848D02*
X9652D01*
X8255D02*
X8382D01*
X9525Y80823D02*
X9677D01*
X8280D02*
X8382D01*
X9525Y80797D02*
X9703D01*
X8280D02*
X8382D01*
X9550Y80772D02*
X9728D01*
X8306D02*
X8382D01*
X9576Y80747D02*
X9728D01*
X8306D02*
X8407D01*
X9576Y80721D02*
X9754D01*
X8306D02*
X8407D01*
X9627Y80696D02*
X9779D01*
X8306D02*
X8407D01*
X9627Y80670D02*
X9804D01*
X8306D02*
X8407D01*
X9652Y80645D02*
X9804D01*
X8306D02*
X8407D01*
X9652Y80620D02*
X9830D01*
X8306D02*
X8407D01*
X9677Y80594D02*
X9830D01*
X8306D02*
X8407D01*
X9703Y80569D02*
X9855D01*
X8306D02*
X8407D01*
X9728Y80543D02*
X9881D01*
X8306D02*
X8407D01*
X9728Y80518D02*
X9881D01*
X8306D02*
X8407D01*
X8280Y80493D02*
X8382D01*
X8280Y80467D02*
X8382D01*
X8255Y80442D02*
X8382D01*
X8230Y80416D02*
X8357D01*
X8230Y80391D02*
X8331D01*
X8204Y80366D02*
X8331D01*
X8382Y80086D02*
X8458D01*
X8687Y80061D02*
X8712D01*
X8382D02*
X8458D01*
X8687Y80035D02*
X8712D01*
X8382D02*
X8458D01*
X8230Y82499D02*
X8306D01*
X8230Y82474D02*
X8306D01*
X8204Y82448D02*
X8306D01*
X8204Y82423D02*
X8280D01*
X8484Y82398D02*
X8534D01*
X8179D02*
X8255D01*
X8458Y82372D02*
X8560D01*
X8179D02*
X8255D01*
X8458Y82347D02*
X8534D01*
X8153D02*
X8255D01*
X8433Y82321D02*
X8534D01*
X8153D02*
X8230D01*
X8433Y82296D02*
X8534D01*
X8153D02*
X8230D01*
X8407Y82271D02*
X8509D01*
X8128D02*
X8230D01*
X8712Y82245D02*
X8788D01*
X8407D02*
X8484D01*
X8128D02*
X8204D01*
X7950D02*
X8026D01*
X8712Y82220D02*
X8839D01*
X8382D02*
X8484D01*
X7925D02*
X8204D01*
X8738Y82194D02*
X8890D01*
X8382D02*
X8458D01*
X7976D02*
X8179D01*
X8788Y82169D02*
X8890D01*
X8357D02*
X8458D01*
X8052D02*
X8179D01*
X8814Y82144D02*
X8915D01*
X8357D02*
X8433D01*
X8077D02*
X8153D01*
X8839Y82118D02*
X8941D01*
X8611D02*
X8661D01*
X8331D02*
X8433D01*
X8865Y82093D02*
X8941D01*
X8611D02*
X8687D01*
X8331D02*
X8407D01*
X8865Y82067D02*
X8941D01*
X8585D02*
X8738D01*
X8306D02*
X8407D01*
X10389Y77953D02*
X10490D01*
X10389Y77927D02*
X10490D01*
X10363Y77902D02*
X10490D01*
X10363Y77876D02*
X10490D01*
X10363Y77851D02*
X10490D01*
X10363Y77826D02*
X10490D01*
X10363Y77800D02*
X10490D01*
X10363Y77775D02*
X10490D01*
X10338Y77749D02*
X10465D01*
X10338Y77724D02*
X10465D01*
X10338Y77699D02*
X10465D01*
X10338Y77673D02*
X10465D01*
X10338Y77648D02*
X10465D01*
X10338Y77622D02*
X10439D01*
X10338Y77597D02*
X10439D01*
X10312Y77572D02*
X10439D01*
X10312Y77546D02*
X10439D01*
X10312Y77521D02*
X10439D01*
X10312Y77495D02*
X10439D01*
X10312Y77470D02*
X10414D01*
X10287Y77445D02*
X10414D01*
X10287Y77419D02*
X10414D01*
X10287Y77394D02*
X10414D01*
X10262Y77368D02*
X10414D01*
X10262Y77343D02*
X10389D01*
X10262Y77318D02*
X10389D01*
X10262Y77292D02*
X10389D01*
X10236Y77267D02*
X10363D01*
X10236Y77241D02*
X10363D01*
X10236Y77216D02*
X10363D01*
X10236Y77191D02*
X10363D01*
X10211Y77165D02*
X10338D01*
X10211Y77140D02*
X10338D01*
X10211Y77114D02*
X10338D01*
X10185Y77089D02*
X10312D01*
X10185Y77064D02*
X10312D01*
X10185Y77038D02*
X10312D01*
X10160Y77013D02*
X10287D01*
X10160Y76987D02*
X10287D01*
X10160Y76962D02*
X10287D01*
X10135Y76937D02*
X10262D01*
X10135Y76911D02*
X10262D01*
X10109Y76886D02*
X10262D01*
X10109Y76860D02*
X10236D01*
X10109Y76835D02*
X10236D01*
X10084Y76810D02*
X10211D01*
X10084Y76784D02*
X10211D01*
X10058Y76759D02*
X10211D01*
X10058Y76733D02*
X10185D01*
X10033Y76708D02*
X10185D01*
X10033Y76683D02*
X10160D01*
X10033Y76657D02*
X10160D01*
X10008Y76632D02*
X10135D01*
X10008Y76606D02*
X10135D01*
X9982Y76581D02*
X10109D01*
X9957Y76556D02*
X10109D01*
X9957Y76530D02*
X10109D01*
X9957Y76505D02*
X10084D01*
X9931Y76479D02*
X10058D01*
X9931Y76454D02*
X10058D01*
X10033Y79985D02*
X10185D01*
X10033Y79959D02*
X10185D01*
X10058Y79934D02*
X10185D01*
X10058Y79908D02*
X10211D01*
X10084Y79883D02*
X10211D01*
X10084Y79858D02*
X10211D01*
X10109Y79832D02*
X10236D01*
X10109Y79807D02*
X10236D01*
X10109Y79781D02*
X10262D01*
X10135Y79756D02*
X10262D01*
X10135Y79731D02*
X10287D01*
X10160Y79705D02*
X10287D01*
X10160Y79680D02*
X10287D01*
X10160Y79654D02*
X10287D01*
X10185Y79629D02*
X10312D01*
X10185Y79604D02*
X10312D01*
X10185Y79578D02*
X10338D01*
X10211Y79553D02*
X10338D01*
X10211Y79527D02*
X10338D01*
X10211Y79502D02*
X10338D01*
X10236Y79477D02*
X10363D01*
X10236Y79451D02*
X10363D01*
X10236Y79426D02*
X10363D01*
X10236Y79400D02*
X10363D01*
X10262Y79375D02*
X10389D01*
X10262Y79350D02*
X10389D01*
X10262Y79324D02*
X10389D01*
X10262Y79299D02*
X10414D01*
X10287Y79273D02*
X10414D01*
X10287Y79248D02*
X10414D01*
X10287Y79223D02*
X10414D01*
X10312Y79197D02*
X10414D01*
X10312Y79172D02*
X10439D01*
X10312Y79146D02*
X10439D01*
X10312Y79121D02*
X10439D01*
X10312Y79096D02*
X10439D01*
X10338Y79070D02*
X10439D01*
X10338Y79045D02*
X10439D01*
X10338Y79019D02*
X10465D01*
X10338Y78994D02*
X10465D01*
X10338Y78969D02*
X10465D01*
X10338Y78943D02*
X10465D01*
X10338Y78918D02*
X10465D01*
X10363Y78892D02*
X10490D01*
X10363Y78867D02*
X10490D01*
X10363Y78842D02*
X10490D01*
X10363Y78816D02*
X10490D01*
X10363Y78791D02*
X10490D01*
X10363Y78765D02*
X10490D01*
X10389Y78740D02*
X10490D01*
X10389Y78715D02*
X10490D01*
X10389Y78689D02*
X10490D01*
X10389Y78664D02*
X10490D01*
X10389Y78638D02*
X10490D01*
X10389Y78613D02*
X10516D01*
X10389Y78588D02*
X10516D01*
X10389Y78562D02*
X10516D01*
X10389Y78537D02*
X10516D01*
X10389Y78511D02*
X10516D01*
X10389Y78486D02*
X10516D01*
X10389Y78461D02*
X10516D01*
X10389Y78435D02*
X10516D01*
X10389Y78410D02*
X10516D01*
X10389Y78384D02*
X10516D01*
X10389Y78359D02*
X10516D01*
X10389Y78334D02*
X10516D01*
X10389Y78308D02*
X10516D01*
X10389Y78283D02*
X10516D01*
X10389Y78257D02*
X10516D01*
X10389Y78232D02*
X10516D01*
X10389Y78207D02*
X10516D01*
X10389Y78181D02*
X10516D01*
X10389Y78156D02*
X10516D01*
X10389Y78130D02*
X10516D01*
X10389Y78105D02*
X10516D01*
X10389Y78080D02*
X10516D01*
X10389Y78054D02*
X10516D01*
X10389Y78029D02*
X10490D01*
X10389Y78003D02*
X10490D01*
X9931Y80213D02*
X10058D01*
X9931Y80188D02*
X10084D01*
X9957Y80162D02*
X10084D01*
X9957Y80137D02*
X10109D01*
X9957Y80112D02*
X10109D01*
X9982Y80086D02*
X10135D01*
X10008Y80061D02*
X10135D01*
X10008Y80035D02*
X10160D01*
X2362Y77978D02*
X2489D01*
X3099Y75946D02*
X3277D01*
X2692Y80010D02*
X2845D01*
X4623Y77978D02*
X5283D01*
X3861D02*
X4293D01*
X4674Y82042D02*
X5029D01*
X4470D02*
X4521D01*
X4293D02*
X4369D01*
X3988D02*
X4115D01*
X4521Y80010D02*
X4699D01*
X7341Y77978D02*
X7823D01*
X7290D02*
X7315D01*
X6375D02*
X6960D01*
X5944Y75946D02*
X6579D01*
X6706Y80010D02*
X6883D01*
X9474Y77978D02*
X9652D01*
X8814D02*
X8941D01*
X8153D02*
X8509D01*
X8052D02*
X8103D01*
X9576Y75946D02*
X9754D01*
X8865Y82042D02*
X8941D01*
X8560D02*
X8763D01*
X8306D02*
X8382D01*
X8661Y80010D02*
X8712D01*
X10389Y77978D02*
X10490D01*
X10033Y80010D02*
X10160D01*
X3607Y75362D02*
X3810D01*
X3658Y75336D02*
X3835D01*
X3683Y75311D02*
X3886D01*
X3708Y75286D02*
X3912D01*
X3734Y75260D02*
X3937D01*
X3759Y75235D02*
X3962D01*
X3785Y75209D02*
X4013D01*
X5334Y74397D02*
X5969D01*
X5740Y77953D02*
X6172D01*
X5766Y77927D02*
X6147D01*
X5766Y77902D02*
X6147D01*
X5791Y77876D02*
X6172D01*
X5791Y77851D02*
X6172D01*
X5817Y77826D02*
X6198D01*
X5817Y77800D02*
X6223D01*
X3861Y77724D02*
X5842D01*
X3962Y77699D02*
X5867D01*
X4039Y77673D02*
X5918D01*
X4242Y77648D02*
X6401D01*
X4623Y77622D02*
X6477D01*
X4623Y77597D02*
X6579D01*
X4623Y77572D02*
X6680D01*
X4623Y77546D02*
X6756D01*
X4902Y76683D02*
X5867D01*
X4928Y76657D02*
X5918D01*
X4978Y76632D02*
X6121D01*
X5029Y76606D02*
X6248D01*
X5131Y76581D02*
X6299D01*
X5207Y76556D02*
X6452D01*
X5334Y76530D02*
X6680D01*
X5436Y76505D02*
X6731D01*
X5512Y76124D02*
X5867D01*
X5563Y76098D02*
X5969D01*
X5613Y76073D02*
X6071D01*
X5664Y76048D02*
X6147D01*
X5715Y76022D02*
X6274D01*
X5791Y75997D02*
X6375D01*
X5842Y75971D02*
X6452D01*
X5690Y79350D02*
X6299D01*
X5613Y79324D02*
X6147D01*
X5563Y79299D02*
X6020D01*
X5537Y79273D02*
X5918D01*
X5486Y79248D02*
X5867D01*
X5817Y78994D02*
X5944D01*
X5817Y78969D02*
X6579D01*
X5817Y78943D02*
X6629D01*
X5817Y78918D02*
X6680D01*
X5817Y78892D02*
X6198D01*
X5817Y78867D02*
X6731D01*
X5766Y78842D02*
X6071D01*
X5791Y78816D02*
X6020D01*
X5766Y78791D02*
X5994D01*
X5766Y78765D02*
X5969D01*
X5766Y78740D02*
X5969D01*
X5690Y78715D02*
X5944D01*
X5740Y78689D02*
X5944D01*
X5791Y78664D02*
X5944D01*
X5715Y78638D02*
X5918D01*
X5791Y78613D02*
X5867D01*
X5842Y78588D02*
X5893D01*
X5842Y78359D02*
X6706D01*
X4826Y78334D02*
X6680D01*
X5359Y78308D02*
X6629D01*
X5436Y78283D02*
X6604D01*
X3708D02*
X4013D01*
X5512Y78257D02*
X6579D01*
X3708D02*
X4521D01*
X5588Y78232D02*
X6553D01*
X3708D02*
X4521D01*
X5639Y78207D02*
X6604D01*
X3708D02*
X4521D01*
X5740Y78181D02*
X6680D01*
X3759D02*
X4394D01*
X5740Y78156D02*
X6731D01*
X3810D02*
X4343D01*
X5740Y78130D02*
X6756D01*
X5740Y78105D02*
X6807D01*
X5740Y78080D02*
X6833D01*
X5740Y78003D02*
X6198D01*
X3759Y82017D02*
X3835D01*
X3759Y81991D02*
X3810D01*
X3759Y81966D02*
X3810D01*
X3759Y81940D02*
X3810D01*
X3759Y81915D02*
X3835D01*
X3759Y81890D02*
X3835D01*
X3759Y81864D02*
X3861D01*
X3785Y81839D02*
X3886D01*
X3785Y81813D02*
X3912D01*
X3810Y81788D02*
X4115D01*
X3810Y81483D02*
X4039D01*
X3759Y81458D02*
X4013D01*
X3759Y81432D02*
X3962D01*
X3708Y81407D02*
X3937D01*
X3683Y81382D02*
X3912D01*
X3658Y81356D02*
X3886D01*
X3632Y81331D02*
X3835D01*
X3607Y81305D02*
X3810D01*
X5740Y82855D02*
X5893D01*
X5690Y82829D02*
X5944D01*
X5690Y82804D02*
X5969D01*
X5740Y82499D02*
X5969D01*
X5740Y82474D02*
X5918D01*
X5740Y82448D02*
X5867D01*
X5283Y82271D02*
X5969D01*
X3785Y82093D02*
X4064D01*
X3785Y82067D02*
X3886D01*
X7823Y74625D02*
X8153D01*
X7747Y74600D02*
X8077D01*
X7696Y74574D02*
X8026D01*
X7620Y74549D02*
X7976D01*
X7518Y74524D02*
X7899D01*
X7315Y77826D02*
X7874D01*
X7315Y77800D02*
X7899D01*
X7188Y77775D02*
X8001D01*
X7188Y77749D02*
X8001D01*
X7188Y77724D02*
X8001D01*
X7188Y77699D02*
X8001D01*
X7874Y76886D02*
X8026D01*
X7849Y76860D02*
X8026D01*
X7849Y76835D02*
X8026D01*
X7823Y76810D02*
X8001D01*
X7823Y76784D02*
X7976D01*
X7798Y76759D02*
X7976D01*
X7772Y76733D02*
X7950D01*
X7747Y76708D02*
X7950D01*
X7747Y76683D02*
X7925D01*
X7722Y76657D02*
X7899D01*
X7696Y76632D02*
X7899D01*
X7671Y76606D02*
X7874D01*
X9906Y76429D02*
X10033D01*
X9881Y76403D02*
X10033D01*
X9881Y76378D02*
X10008D01*
X9855Y76352D02*
X10008D01*
X9855Y76327D02*
X9982D01*
X9830Y76302D02*
X9982D01*
X9804Y76276D02*
X9957D01*
X9804Y76251D02*
X9931D01*
X9779Y76225D02*
X9931D01*
X9779Y76200D02*
X9906D01*
X9754Y76175D02*
X9906D01*
X7874Y79477D02*
X7950D01*
X7874Y79451D02*
X7950D01*
X7264Y78969D02*
X7874D01*
X7264Y78943D02*
X7874D01*
X7264Y78918D02*
X7874D01*
X7341Y78892D02*
X7899D01*
X7290Y78867D02*
X7899D01*
X7264Y78842D02*
X7925D01*
X7264Y78816D02*
X7925D01*
X7290Y78791D02*
X7950D01*
X7290Y78765D02*
X7950D01*
X7315Y78740D02*
X7950D01*
X7315Y78715D02*
X7976D01*
X7341Y78689D02*
X7976D01*
X7341Y78664D02*
X8001D01*
X7341Y78638D02*
X8001D01*
X7341Y78613D02*
X8026D01*
X7341Y78588D02*
X8026D01*
X7341Y78562D02*
X8026D01*
X7341Y78537D02*
X8052D01*
X7341Y78511D02*
X8052D01*
X7874Y78486D02*
X8077D01*
X7874Y78461D02*
X8077D01*
X7341Y78435D02*
X7874D01*
X7341Y78410D02*
X7874D01*
X7341Y78384D02*
X7874D01*
X7747Y81128D02*
X8052D01*
X7671Y81102D02*
X8128D01*
X7645Y81077D02*
X8179D01*
X7417Y80823D02*
X7874D01*
X7417Y80797D02*
X7950D01*
X7417Y80772D02*
X8001D01*
X7417Y80747D02*
X8026D01*
X7391Y80721D02*
X8052D01*
X7391Y80696D02*
X8077D01*
X7391Y80670D02*
X8077D01*
X7391Y80645D02*
X8103D01*
X7391Y80620D02*
X8103D01*
X7391Y80594D02*
X8128D01*
X7391Y80569D02*
X8153D01*
X7417Y80543D02*
X8153D01*
X7417Y80518D02*
X8153D01*
X9754Y80493D02*
X9906D01*
X7417D02*
X8153D01*
X9779Y80467D02*
X9906D01*
X7417D02*
X8153D01*
X9779Y80442D02*
X9931D01*
X7442D02*
X8179D01*
X9804Y80416D02*
X9957D01*
X7442D02*
X8179D01*
X9804Y80391D02*
X9957D01*
X7468D02*
X8179D01*
X9830Y80366D02*
X9982D01*
X7468D02*
X8179D01*
X9855Y80340D02*
X10008D01*
X7493D02*
X8306D01*
X9855Y80315D02*
X10008D01*
X7518D02*
X8306D01*
X9881Y80289D02*
X10033D01*
X7544D02*
X8280D01*
X9881Y80264D02*
X10033D01*
X7569D02*
X8255D01*
X9906Y80239D02*
X10058D01*
X7595D02*
X8204D01*
X7620Y80213D02*
X8179D01*
X7671Y80188D02*
X8128D01*
X7772Y80162D02*
X8052D01*
X7849Y82652D02*
X7925D01*
X7849Y82626D02*
X7925D01*
X7823Y82601D02*
X7925D01*
X7823Y82575D02*
X7899D01*
X7823Y82550D02*
X7899D01*
X7823Y82525D02*
X7874D01*
X7798Y82499D02*
X7874D01*
X7798Y82474D02*
X7874D01*
X7772Y82448D02*
X7874D01*
X7442Y82169D02*
X7874D01*
X7518Y82144D02*
X7950D01*
X7620Y82118D02*
X8001D01*
X7696Y82093D02*
X8052D01*
X7747Y82067D02*
X8128D01*
X5740Y77978D02*
X6172D01*
X3759Y82042D02*
X3861D01*
X7823D02*
X8179D01*
X5436Y74371D02*
X7417D01*
X5563Y74346D02*
X7290D01*
X5664Y74320D02*
X7188D01*
X5817Y74295D02*
X7036D01*
X4623Y77521D02*
X6858D01*
X4623Y77495D02*
X6960D01*
X4623Y77470D02*
X7036D01*
X4623Y77445D02*
X7137D01*
X4623Y77419D02*
X7239D01*
X4648Y77394D02*
X7264D01*
X4623Y77368D02*
X7290D01*
X4648Y77343D02*
X7290D01*
X4648Y77318D02*
X7290D01*
X4648Y77292D02*
X7315D01*
X4674Y77267D02*
X7315D01*
X4674Y77241D02*
X7315D01*
X4674Y77216D02*
X7315D01*
X4674Y77191D02*
X7315D01*
X4699Y77165D02*
X7341D01*
X4699Y77140D02*
X7341D01*
X4699Y77114D02*
X7341D01*
X4699Y77089D02*
X7341D01*
X4724Y77064D02*
X7341D01*
X4724Y77038D02*
X7341D01*
X4750Y77013D02*
X7341D01*
X4801Y76987D02*
X7366D01*
X4877Y76962D02*
X7366D01*
X4953Y76937D02*
X7366D01*
X5004Y76911D02*
X7366D01*
X5131Y76886D02*
X7366D01*
X5207Y76860D02*
X7366D01*
X5309Y76835D02*
X7391D01*
X5385Y76810D02*
X7391D01*
X5461Y76784D02*
X7391D01*
X5588Y76759D02*
X7391D01*
X5715Y76733D02*
X7391D01*
X5842Y76708D02*
X7391D01*
X5512Y76479D02*
X6960D01*
X5664Y76454D02*
X7061D01*
X5791Y76429D02*
X7188D01*
X5817Y79400D02*
X7036D01*
X5740Y79375D02*
X7112D01*
X5740Y78054D02*
X6883D01*
X5740Y78029D02*
X6909D01*
X5715Y82372D02*
X7137D01*
X5588Y82347D02*
X7264D01*
X5486Y82321D02*
X7366D01*
X5359Y82296D02*
X7493D01*
D30*
X22125Y24607D02*
Y25007D01*
X21425Y24607D02*
Y25007D01*
X23550Y24607D02*
Y25007D01*
X22850Y24607D02*
Y25007D01*
X90476Y59495D02*
Y60295D01*
X89676D02*
X90476D01*
X87476Y59495D02*
Y60295D01*
X88276D01*
X89603Y54391D02*
Y54791D01*
X90303Y54391D02*
Y54791D01*
X86463Y59463D02*
Y60263D01*
X85663D02*
X86463D01*
X83463Y59463D02*
Y60263D01*
X84263D01*
X86669Y53491D02*
X87069D01*
X86669Y54191D02*
X87069D01*
X48411Y48787D02*
X48911D01*
X48411Y45687D02*
X48911D01*
Y48787D01*
X48411Y45687D02*
Y48787D01*
X45286Y46687D02*
X45686D01*
X45286Y47387D02*
X45686D01*
X48061Y45087D02*
X48461D01*
X48061Y44387D02*
X48461D01*
X51747Y26311D02*
X52547D01*
X51747Y25511D02*
Y26311D01*
Y23311D02*
X52547D01*
X51747D02*
Y24111D01*
X46272Y26486D02*
X46772D01*
X46272Y23386D02*
X46772D01*
Y26486D01*
X46272Y23386D02*
Y26486D01*
X45210Y67954D02*
X45610D01*
X45210Y67254D02*
X45610D01*
X42435Y69554D02*
X42835D01*
X42435Y70254D02*
X42835D01*
X45560Y71654D02*
X46060D01*
X45560Y68554D02*
X46060D01*
Y71654D01*
X45560Y68554D02*
Y71654D01*
D31*
X20574Y24511D02*
Y25361D01*
X20149D01*
X20008Y25219D01*
Y24936D01*
X20149Y24794D01*
X20574D01*
X20291D02*
X20008Y24511D01*
X19158Y25361D02*
X19724D01*
Y24936D01*
X19441Y25077D01*
X19299D01*
X19158Y24936D01*
Y24653D01*
X19299Y24511D01*
X19583D01*
X19724Y24653D01*
X18875Y25219D02*
X18733Y25361D01*
X18450D01*
X18308Y25219D01*
Y25077D01*
X18450Y24936D01*
X18308Y24794D01*
Y24653D01*
X18450Y24511D01*
X18733D01*
X18875Y24653D01*
Y24794D01*
X18733Y24936D01*
X18875Y25077D01*
Y25219D01*
X18733Y24936D02*
X18450D01*
X26670Y24511D02*
Y25361D01*
X26245D01*
X26104Y25219D01*
Y24936D01*
X26245Y24794D01*
X26670D01*
X26387D02*
X26104Y24511D01*
X25254Y25361D02*
X25820D01*
Y24936D01*
X25537Y25077D01*
X25395D01*
X25254Y24936D01*
Y24653D01*
X25395Y24511D01*
X25679D01*
X25820Y24653D01*
X24971Y25361D02*
X24404D01*
Y25219D01*
X24971Y24653D01*
Y24511D01*
X7408Y63715D02*
Y62865D01*
X6983D01*
X6842Y63007D01*
Y63148D01*
X6983Y63290D01*
X7408D01*
X6983D01*
X6842Y63431D01*
Y63573D01*
X6983Y63715D01*
X7408D01*
X6558Y62865D02*
Y63431D01*
X6275Y63715D01*
X5992Y63431D01*
Y62865D01*
Y63290D01*
X6558D01*
X5709Y63715D02*
X5142D01*
X5425D01*
Y62865D01*
X90805Y62699D02*
Y61849D01*
Y62274D01*
X90239D01*
Y62699D01*
Y61849D01*
X89389Y62699D02*
X89955D01*
Y61849D01*
X89389D01*
X89955Y62274D02*
X89672D01*
X89106Y61849D02*
Y62415D01*
X88822Y62699D01*
X88539Y62415D01*
Y61849D01*
Y62274D01*
X89106D01*
X88256Y62699D02*
X87689D01*
X87973D01*
Y61849D01*
X86840D02*
X87406D01*
X86840Y62415D01*
Y62557D01*
X86981Y62699D01*
X87264D01*
X87406Y62557D01*
X90161Y52705D02*
X89311D01*
Y52280D01*
X89453Y52139D01*
X89736D01*
X89877Y52280D01*
Y52705D01*
Y52422D02*
X90161Y52139D01*
Y51289D02*
Y51855D01*
X89594Y51289D01*
X89453D01*
X89311Y51430D01*
Y51714D01*
X89453Y51855D01*
X89311Y50439D02*
Y51006D01*
X89736D01*
X89594Y50722D01*
Y50581D01*
X89736Y50439D01*
X90019D01*
X90161Y50581D01*
Y50864D01*
X90019Y51006D01*
X81700Y62103D02*
X82550D01*
X82125D01*
Y61537D01*
X81700D01*
X82550D01*
X81700Y60687D02*
Y61253D01*
X82550D01*
Y60687D01*
X82125Y61253D02*
Y60970D01*
X82550Y60404D02*
X81984D01*
X81700Y60120D01*
X81984Y59837D01*
X82550D01*
X82125D01*
Y60404D01*
X81700Y59554D02*
Y58987D01*
Y59271D01*
X82550D01*
Y58704D02*
Y58421D01*
Y58562D01*
X81700D01*
X81842Y58704D01*
X86888Y52705D02*
X86038D01*
Y52280D01*
X86180Y52139D01*
X86463D01*
X86605Y52280D01*
Y52705D01*
Y52422D02*
X86888Y52139D01*
Y51430D02*
X86038D01*
X86463Y51855D01*
Y51289D01*
X86746Y51006D02*
X86888Y50864D01*
Y50581D01*
X86746Y50439D01*
X86180D01*
X86038Y50581D01*
Y50864D01*
X86180Y51006D01*
X86322D01*
X86463Y50864D01*
Y50439D01*
X89789Y72351D02*
Y71501D01*
Y71926D01*
X89223D01*
Y72351D01*
Y71501D01*
X88514D02*
X88798D01*
X88939Y71643D01*
Y71926D01*
X88798Y72067D01*
X88514D01*
X88373Y71926D01*
Y71784D01*
X88939D01*
X87948Y72067D02*
X87665D01*
X87523Y71926D01*
Y71501D01*
X87948D01*
X88090Y71643D01*
X87948Y71784D01*
X87523D01*
X87098Y72209D02*
Y72067D01*
X87240D01*
X86957D01*
X87098D01*
Y71643D01*
X86957Y71501D01*
X86107D02*
X86390D01*
X86532Y71643D01*
Y71926D01*
X86390Y72067D01*
X86107D01*
X85965Y71926D01*
Y71784D01*
X86532D01*
X85682Y72067D02*
Y71501D01*
Y71784D01*
X85540Y71926D01*
X85399Y72067D01*
X85257D01*
X84832Y71501D02*
X84407D01*
X84266Y71643D01*
X84407Y71784D01*
X84691D01*
X84832Y71926D01*
X84691Y72067D01*
X84266D01*
X8786Y36205D02*
X9636D01*
Y35780D01*
X9494Y35639D01*
X9353D01*
X9211Y35780D01*
Y36205D01*
Y35780D01*
X9069Y35639D01*
X8928D01*
X8786Y35780D01*
Y36205D01*
X9636Y35355D02*
X9069D01*
X8786Y35072D01*
X9069Y34789D01*
X9636D01*
X9211D01*
Y35355D01*
X8786Y34506D02*
Y33939D01*
Y34222D01*
X9636D01*
Y33656D02*
X8786D01*
Y33231D01*
X8928Y33089D01*
X9211D01*
X9353Y33231D01*
Y33656D01*
X9636Y32806D02*
X9069D01*
X8786Y32523D01*
X9069Y32240D01*
X9636D01*
X9211D01*
Y32806D01*
X8928Y31390D02*
X8786Y31532D01*
Y31815D01*
X8928Y31956D01*
X9494D01*
X9636Y31815D01*
Y31532D01*
X9494Y31390D01*
X8786Y31107D02*
X9636D01*
X9353D01*
X8786Y30540D01*
X9211Y30965D01*
X9636Y30540D01*
X49367Y50831D02*
Y50122D01*
X49226Y49981D01*
X48942D01*
X48801Y50122D01*
Y50831D01*
X47951D02*
X48234Y50689D01*
X48518Y50406D01*
Y50122D01*
X48376Y49981D01*
X48093D01*
X47951Y50122D01*
Y50264D01*
X48093Y50406D01*
X48518D01*
X47668Y49839D02*
X47101D01*
X46818Y49981D02*
X46535D01*
X46676D01*
Y50831D01*
X46818Y50689D01*
X46599Y48304D02*
Y49154D01*
X46174D01*
X46032Y49013D01*
Y48729D01*
X46174Y48588D01*
X46599D01*
X46315D02*
X46032Y48304D01*
X45182Y49154D02*
X45749D01*
Y48729D01*
X45466Y48871D01*
X45324D01*
X45182Y48729D01*
Y48446D01*
X45324Y48304D01*
X45607D01*
X45749Y48446D01*
X44899D02*
X44758Y48304D01*
X44474D01*
X44333Y48446D01*
Y49013D01*
X44474Y49154D01*
X44758D01*
X44899Y49013D01*
Y48871D01*
X44758Y48729D01*
X44333D01*
X44049Y48163D02*
X43483D01*
X43200Y48304D02*
X42916D01*
X43058D01*
Y49154D01*
X43200Y49013D01*
X46161Y44737D02*
Y45587D01*
X45736D01*
X45595Y45445D01*
Y45162D01*
X45736Y45020D01*
X46161D01*
X45878D02*
X45595Y44737D01*
X44745Y45587D02*
X45028Y45445D01*
X45311Y45162D01*
Y44879D01*
X45170Y44737D01*
X44887D01*
X44745Y44879D01*
Y45020D01*
X44887Y45162D01*
X45311D01*
X44462Y45445D02*
X44320Y45587D01*
X44037D01*
X43895Y45445D01*
Y44879D01*
X44037Y44737D01*
X44320D01*
X44462Y44879D01*
Y45445D01*
X43612Y44595D02*
X43046D01*
X42762Y44737D02*
X42479D01*
X42621D01*
Y45587D01*
X42762Y45445D01*
X54186Y27663D02*
Y28230D01*
X54328Y28372D01*
X54611D01*
X54753Y28230D01*
Y27663D01*
X54611Y27522D01*
X54328D01*
X54469Y27805D02*
X54186Y27522D01*
X54328D02*
X54186Y27663D01*
X53903Y28372D02*
X53336D01*
Y28230D01*
X53903Y27663D01*
Y27522D01*
X49881Y22869D02*
X50022Y23011D01*
X50306D01*
X50447Y22869D01*
Y22303D01*
X50306Y22161D01*
X50022D01*
X49881Y22303D01*
X49031Y23011D02*
X49314Y22869D01*
X49598Y22586D01*
Y22303D01*
X49456Y22161D01*
X49173D01*
X49031Y22303D01*
Y22444D01*
X49173Y22586D01*
X49598D01*
X48748Y22869D02*
X48606Y23011D01*
X48323D01*
X48181Y22869D01*
Y22303D01*
X48323Y22161D01*
X48606D01*
X48748Y22303D01*
Y22869D01*
X47172Y22786D02*
Y22078D01*
X47031Y21936D01*
X46747D01*
X46606Y22078D01*
Y22786D01*
X46323D02*
X45756D01*
Y22644D01*
X46323Y22078D01*
Y21936D01*
X43310Y67604D02*
Y68454D01*
X42885D01*
X42743Y68312D01*
Y68029D01*
X42885Y67887D01*
X43310D01*
X43027D02*
X42743Y67604D01*
X41894Y68454D02*
X42177Y68312D01*
X42460Y68029D01*
Y67746D01*
X42319Y67604D01*
X42035D01*
X41894Y67746D01*
Y67887D01*
X42035Y68029D01*
X42460D01*
X41611Y68312D02*
X41469Y68454D01*
X41186D01*
X41044Y68312D01*
Y67746D01*
X41186Y67604D01*
X41469D01*
X41611Y67746D01*
Y68312D01*
X43747Y71171D02*
Y72021D01*
X43323D01*
X43181Y71880D01*
Y71596D01*
X43323Y71455D01*
X43747D01*
X43464D02*
X43181Y71171D01*
X42331Y72021D02*
X42898D01*
Y71596D01*
X42614Y71738D01*
X42473D01*
X42331Y71596D01*
Y71313D01*
X42473Y71171D01*
X42756D01*
X42898Y71313D01*
X42048D02*
X41906Y71171D01*
X41623D01*
X41481Y71313D01*
Y71880D01*
X41623Y72021D01*
X41906D01*
X42048Y71880D01*
Y71738D01*
X41906Y71596D01*
X41481D01*
X50112Y72066D02*
X50253Y72208D01*
X50536D01*
X50678Y72066D01*
Y71500D01*
X50536Y71358D01*
X50253D01*
X50112Y71500D01*
X49262Y72208D02*
X49828D01*
Y71783D01*
X49545Y71924D01*
X49403D01*
X49262Y71783D01*
Y71500D01*
X49403Y71358D01*
X49687D01*
X49828Y71500D01*
X48412Y72208D02*
X48979D01*
Y71783D01*
X48695Y71924D01*
X48554D01*
X48412Y71783D01*
Y71500D01*
X48554Y71358D01*
X48837D01*
X48979Y71500D01*
X46516Y73698D02*
Y72989D01*
X46374Y72848D01*
X46091D01*
X45950Y72989D01*
Y73698D01*
X45100D02*
X45383Y73556D01*
X45666Y73273D01*
Y72989D01*
X45525Y72848D01*
X45241D01*
X45100Y72989D01*
Y73131D01*
X45241Y73273D01*
X45666D01*
%TF.MD5,259d6dd58c0aa56a0461656572da7e40*%
M02*
