%TF.GenerationSoftware,Altium Limited,Altium Designer,18.1.7 (191)*%
G04 Layer_Color=8388736*
%FSLAX43Y43*%
%MOMM*%
%TF.FileFunction,Soldermask,Top*%
%TF.Part,Single*%
G01*
G75*
%TA.AperFunction,ComponentPad*%
%ADD38C,1.664*%
%TA.AperFunction,ViaPad*%
%ADD39C,3.140*%
%ADD40C,1.410*%
%ADD41C,1.140*%
%TA.AperFunction,SMDPad,CuDef*%
%ADD43R,0.990X0.590*%
D38*
X32512Y46179D02*
D03*
X64012Y24000D02*
D03*
Y68358D02*
D03*
X32512D02*
D03*
Y24000D02*
D03*
X64012Y46179D02*
D03*
X6191Y28512D02*
D03*
X4191D02*
D03*
X6191Y30512D02*
D03*
X4191D02*
D03*
X6191Y32512D02*
D03*
X4191D02*
D03*
X6191Y34512D02*
D03*
X4191D02*
D03*
X6191Y36512D02*
D03*
X4191D02*
D03*
X5323Y68599D02*
D03*
Y66599D02*
D03*
X7323Y68599D02*
D03*
Y66599D02*
D03*
X88265Y68421D02*
D03*
X86265D02*
D03*
X88265Y66421D02*
D03*
X86265D02*
D03*
D39*
X8925Y2200D02*
D03*
X4725Y87750D02*
D03*
X87750D02*
D03*
Y4725D02*
D03*
X2200Y8925D02*
D03*
D40*
X40259Y41119D02*
D03*
X19431Y42545D02*
D03*
X11430Y35024D02*
D03*
X6985Y23644D02*
D03*
X66802Y5207D02*
D03*
X58547Y87630D02*
D03*
X44322Y88138D02*
D03*
X76454Y69723D02*
D03*
X20701Y68929D02*
D03*
X8382Y50292D02*
D03*
X29845Y4292D02*
D03*
X86122Y22733D02*
D03*
X41529Y25146D02*
D03*
X48641Y20701D02*
D03*
X23876Y46736D02*
D03*
X75565Y46002D02*
D03*
X58674Y48766D02*
D03*
X45301Y50800D02*
D03*
X38989Y65532D02*
D03*
D41*
X46260Y64135D02*
D03*
X47411Y40005D02*
D03*
D43*
X88894Y75692D02*
D03*
X86644D02*
D03*
%TF.MD5,23546635c3c68dee16c902915e36d927*%
M02*
