%TF.GenerationSoftware,Altium Limited,Altium Designer,18.1.7 (191)*%
G04 Layer_Color=255*
%FSLAX43Y43*%
%MOMM*%
%TF.FileFunction,Pads,Bot*%
%TF.Part,Single*%
G01*
G75*
%TA.AperFunction,ComponentPad*%
%ADD15C,1.524*%
%TA.AperFunction,ViaPad*%
%ADD16C,3.000*%
%TA.AperFunction,SMDPad,CuDef*%
%ADD19R,0.900X0.700*%
%ADD20R,0.600X1.450*%
%ADD21R,0.700X0.900*%
%ADD22R,1.100X0.650*%
%ADD23R,1.450X0.600*%
%ADD24R,0.900X0.800*%
D15*
X32512Y46179D02*
D03*
X64012Y24000D02*
D03*
Y68358D02*
D03*
X32512D02*
D03*
Y24000D02*
D03*
X64012Y46179D02*
D03*
X6191Y28512D02*
D03*
X4191D02*
D03*
X6191Y30512D02*
D03*
X4191D02*
D03*
X6191Y32512D02*
D03*
X4191D02*
D03*
X6191Y34512D02*
D03*
X4191D02*
D03*
X6191Y36512D02*
D03*
X4191D02*
D03*
X5323Y68599D02*
D03*
Y66599D02*
D03*
X7323Y68599D02*
D03*
Y66599D02*
D03*
X88265Y68421D02*
D03*
X86265D02*
D03*
X88265Y66421D02*
D03*
X86265D02*
D03*
D16*
X8925Y2200D02*
D03*
X4725Y87750D02*
D03*
X87750D02*
D03*
Y4725D02*
D03*
X2200Y8925D02*
D03*
D19*
X21775Y24057D02*
D03*
Y25557D02*
D03*
X23200Y24057D02*
D03*
Y25557D02*
D03*
X89953Y55341D02*
D03*
Y53841D02*
D03*
D20*
X89926Y58420D02*
D03*
X88026D02*
D03*
X88976Y60770D02*
D03*
X85913Y58388D02*
D03*
X84013D02*
D03*
X84963Y60738D02*
D03*
D21*
X86119Y53841D02*
D03*
X87619D02*
D03*
X44736Y47037D02*
D03*
X46236D02*
D03*
X49011Y44737D02*
D03*
X47511D02*
D03*
X46160Y67604D02*
D03*
X44660D02*
D03*
X41885Y69904D02*
D03*
X43385D02*
D03*
D22*
X49861Y48187D02*
D03*
Y47237D02*
D03*
Y46287D02*
D03*
X47461D02*
D03*
Y48187D02*
D03*
X47722Y25886D02*
D03*
Y24936D02*
D03*
Y23986D02*
D03*
X45322D02*
D03*
Y25886D02*
D03*
X47010Y71054D02*
D03*
Y70104D02*
D03*
Y69154D02*
D03*
X44610D02*
D03*
Y71054D02*
D03*
D23*
X53622Y25761D02*
D03*
Y23861D02*
D03*
X51272Y24811D02*
D03*
D24*
X49447Y25511D02*
D03*
Y24111D02*
D03*
X48903Y68958D02*
D03*
Y70358D02*
D03*
%TF.MD5,ccf3a9b8eebdcd1b5a75353d9039d1bc*%
M02*
