%TF.GenerationSoftware,Altium Limited,Altium Designer,18.1.7 (191)*%
G04 Layer_Physical_Order=3*
G04 Layer_Color=16711833*
%FSLAX45Y45*%
%MOMM*%
%TF.FileFunction,Copper,L3,Inr,Plane*%
%TF.Part,Single*%
G01*
G75*
%TA.AperFunction,ViaPad*%
%ADD55C,3.00000*%
%TA.AperFunction,NonConductor*%
%ADD61C,1.01600*%
%TA.AperFunction,ViaPad*%
%ADD62C,4.00000*%
%TA.AperFunction,ComponentPad*%
%ADD63C,1.80000*%
%ADD64C,1.55000*%
%ADD65C,1.60000*%
%ADD66C,1.90000*%
%ADD67C,4.00000*%
%TA.AperFunction,ViaPad*%
%ADD68C,1.50000*%
D55*
X8594999Y10310002D02*
D03*
X4212499Y10387498D02*
D03*
D61*
X1657500Y1660000D02*
Y10910000D01*
Y1660000D02*
X10907500D01*
Y10910000D01*
X1657500D02*
X10907500D01*
D62*
X2130000Y2130000D02*
D03*
X10435001Y2132498D02*
D03*
X10435000Y10435001D02*
D03*
X2129998D02*
D03*
D63*
X3970000Y2109196D02*
D03*
Y2309195D02*
D03*
X4169999Y2109196D02*
D03*
Y2309195D02*
D03*
X4369999Y2109196D02*
D03*
Y2309195D02*
D03*
X4569998Y2109196D02*
D03*
Y2309195D02*
D03*
X4769998Y2109196D02*
D03*
Y2309195D02*
D03*
X2710002Y2049998D02*
D03*
Y2249998D02*
D03*
X2910002Y2049998D02*
D03*
Y2249998D02*
D03*
X3110001Y2049998D02*
D03*
Y2249998D02*
D03*
X3310001Y2049998D02*
D03*
Y2249998D02*
D03*
X3510001Y2049998D02*
D03*
Y2249998D02*
D03*
X2240001Y3102498D02*
D03*
X2040001D02*
D03*
X2240001Y3302498D02*
D03*
X2040001D02*
D03*
X2240001Y3502503D02*
D03*
X2040001D02*
D03*
X2240001Y3702502D02*
D03*
X2040001D02*
D03*
X2240001Y3902502D02*
D03*
X2040001D02*
D03*
X2184999Y8914999D02*
D03*
Y9114998D02*
D03*
X1985000Y8914999D02*
D03*
Y9114998D02*
D03*
X8967500Y2162500D02*
D03*
Y2362500D02*
D03*
X9167500Y2162500D02*
D03*
Y2362500D02*
D03*
X9367500Y2162500D02*
D03*
Y2362500D02*
D03*
X9567499Y2162500D02*
D03*
Y2362500D02*
D03*
X9767499Y2162500D02*
D03*
Y2362500D02*
D03*
X10459999Y3147502D02*
D03*
Y2947502D02*
D03*
X10659999Y3147502D02*
D03*
Y2947502D02*
D03*
X2027499Y4987498D02*
D03*
Y5187498D02*
D03*
Y5587502D02*
D03*
X2227499Y5187498D02*
D03*
X2027499Y5387503D02*
D03*
X2227499Y4987498D02*
D03*
Y5387503D02*
D03*
X2027499Y5787502D02*
D03*
X2227499Y5587502D02*
D03*
Y5787502D02*
D03*
X10490002Y5455001D02*
D03*
X10290002D02*
D03*
X10490002Y5655000D02*
D03*
X10290002D02*
D03*
X10490002Y5855000D02*
D03*
X10290002D02*
D03*
X10490002Y6054999D02*
D03*
X10290002D02*
D03*
X10490002Y6254999D02*
D03*
X10290002D02*
D03*
X5310002Y2300000D02*
D03*
Y2100001D02*
D03*
X5510002Y2300000D02*
D03*
Y2100001D02*
D03*
X5710001Y2300000D02*
D03*
Y2100001D02*
D03*
X5910001Y2300000D02*
D03*
Y2100001D02*
D03*
X6110000Y2300000D02*
D03*
Y2100001D02*
D03*
X6889999Y10557500D02*
D03*
Y10357500D02*
D03*
X6689999Y10557500D02*
D03*
Y10357500D02*
D03*
X6490000Y10557500D02*
D03*
Y10357500D02*
D03*
X6290000Y10557500D02*
D03*
Y10357500D02*
D03*
X6090001Y10557500D02*
D03*
Y10357500D02*
D03*
X10462499Y3874999D02*
D03*
Y3674999D02*
D03*
X10662498Y3874999D02*
D03*
Y3674999D02*
D03*
D64*
X7612502Y1982500D02*
D03*
X7487498D02*
D03*
X7362500D02*
D03*
X7237501D02*
D03*
X7112498D02*
D03*
X6862501D02*
D03*
X6737502D02*
D03*
D65*
X6987499D02*
D03*
D66*
X2760000Y8915999D02*
D03*
Y9169999D02*
D03*
Y9423999D02*
D03*
X2777500Y9824999D02*
D03*
Y10077501D02*
D03*
X3439998Y10432501D02*
D03*
X3692500D02*
D03*
D67*
X8124998Y5850001D02*
D03*
Y8090002D02*
D03*
X4975001D02*
D03*
Y5850001D02*
D03*
D68*
X2647498Y3052501D02*
D03*
X2755001Y3130001D02*
D03*
X3647501Y3007502D02*
D03*
X5067498Y3750000D02*
D03*
X4964999D02*
D03*
X4687499Y3747501D02*
D03*
X4782500Y3750000D02*
D03*
X4592498D02*
D03*
X4869998D02*
D03*
X8882502Y7722499D02*
D03*
X8439998Y8559998D02*
D03*
X9545000Y5642498D02*
D03*
X7145000Y4807499D02*
D03*
X7135002Y7257501D02*
D03*
X7772502Y3980002D02*
D03*
X7515001Y4182501D02*
D03*
X6377498Y2850002D02*
D03*
X1932498Y8754999D02*
D03*
X6197498Y4020002D02*
D03*
X6230000Y4637502D02*
D03*
X8990000Y3337499D02*
D03*
X7509998Y7887503D02*
D03*
X7420000Y8004998D02*
D03*
X9867499Y4417502D02*
D03*
X7344999Y2125000D02*
D03*
X6667500Y3790000D02*
D03*
X5912500Y1785000D02*
D03*
X8630001Y2664998D02*
D03*
X7395002Y4172499D02*
D03*
X5539999Y7347499D02*
D03*
X8175000Y2235002D02*
D03*
X9132499Y7020001D02*
D03*
X3867501Y8590001D02*
D03*
X3652500Y4812502D02*
D03*
X4462501Y8954999D02*
D03*
X7612502Y9047500D02*
D03*
X9010000Y7195002D02*
D03*
X9907499Y4294998D02*
D03*
X9417502Y6995003D02*
D03*
X2122500Y8362498D02*
D03*
X7217501Y4709998D02*
D03*
X3882502Y9675002D02*
D03*
X8499998Y4157502D02*
D03*
X7067499Y8722502D02*
D03*
X8107502Y4309999D02*
D03*
X8077500Y4709998D02*
D03*
X6997502Y5180000D02*
D03*
X6825000Y3087502D02*
D03*
X3487501Y3417499D02*
D03*
X2950002Y4234998D02*
D03*
X2547498Y3507501D02*
D03*
X8175000Y4069999D02*
D03*
X9735002Y3055000D02*
D03*
X6507500Y4884999D02*
D03*
X6849999Y5555000D02*
D03*
X5927501Y7115002D02*
D03*
X7735001Y7102500D02*
D03*
X8807501Y3277499D02*
D03*
X8690000Y3255000D02*
D03*
X10197501Y7372502D02*
D03*
X7690002Y8602502D02*
D03*
X3147502Y4340001D02*
D03*
X3499998Y6290000D02*
D03*
X2704998Y4877501D02*
D03*
X9745000Y7180001D02*
D03*
X6357498Y1785000D02*
D03*
X6239998D02*
D03*
X6132500D02*
D03*
X6027501D02*
D03*
X7025000Y4045001D02*
D03*
X7178751Y3898753D02*
D03*
X7102500Y3970000D02*
D03*
X9312499Y3672500D02*
D03*
X3305002Y4552498D02*
D03*
X3422498Y4555002D02*
D03*
X3542502Y4552498D02*
D03*
X3677498D02*
D03*
%TF.MD5,b616ffb5aaf200e550608a77f534a0eb*%
M02*
