M48
;Layer_Color=9474304
;FILE_FORMAT=4:3
METRIC,LZ
;TYPE=PLATED
T1F00S00C0.500
T2F00S00C0.550
T3F00S00C0.600
T4F00S00C0.800
T5F00S00C0.900
T6F00S00C2.000
T7F00S00C3.000
%
T01
X0026475Y0030525
X002755Y00313
X0025475Y0035075
X0034875Y0034175
X0036475Y0030075
X0045925Y00375
X0046875Y0037475
X0047825Y00375
X00487
X004965
X0050675
X0066675Y00379
X0071788Y0038988
X006825Y0030875
X0063775Y00285
X0063575Y001785
X00624
X0061325
X0060275
X0059125
X007345Y002125
X008175Y002235
X00863Y002665
X00869Y003255
X0088075Y0032775
X00899Y0033375
X0093125Y0036725
X009735Y003055
X0099075Y004295
X0098675Y0044175
X009545Y0056425
X0094175Y006995
X0091325Y00702
X00901Y007195
X0088825Y0077225
X009745Y00718
X0101975Y0073725
X0080775Y00471
X0081075Y00431
X008175Y00407
X0085Y0041575
X0077725Y00398
X007515Y0041825
X007395Y0041725
X0071025Y00397
X007025Y004045
X0061975Y00402
X00623Y0046375
X0065075Y004885
X007145Y0048075
X0072175Y00471
X0069975Y00518
X00685Y005555
X007135Y0072575
X007735Y0071025
X00751Y0078875
X0059275Y007115
X00554Y0073475
X0035Y00629
X0036525Y0048125
X0036775Y0045525
X0035425
X0034225Y004555
X003305Y0045525
X0031475Y00434
X00295Y004235
X002705Y0048775
X0021225Y0083625
X0019325Y008755
X0038675Y00859
X0038825Y009675
X0044625Y008955
X0070675Y0087225
X00769Y0086025
X0076125Y0090475
X00742Y008005
X00844Y00856
T02
X0067375Y0019825
X0068625
X0071125
X0072375
X0073625
X0074875
X0076125
T03
X0069875Y0019825
T04
X00271Y00205
Y00225
X00291
Y00205
X00311
Y00225
X00331
Y00205
X00351
Y00225
X00224Y0031025
X00204
Y0033025
X00224
Y0035025
X00204
Y0037025
X00224
Y0039025
X00204
X00397Y0023092
Y0021092
X00417
Y0023092
X00437
Y0021092
X00457
Y0023092
X00477
Y0021092
X00531Y0021
Y0023
X00551
Y0021
X00571
Y0023
X00591
Y0021
X00611
Y0023
X0089675Y0023625
Y0021625
X0091675
Y0023625
X0093675
Y0021625
X0095675
Y0023625
X0097675
Y0021625
X01046Y0029475
Y0031475
X01066
Y0029475
X0106625Y003675
X0104625
Y003875
X0106625
X01049Y005455
X01029
Y005655
X01049
Y005855
X01029
Y006055
X01049
Y006255
X01029
X0022275Y0057875
X0020275
Y0055875
Y0053875
X0022275
Y0055875
Y0051875
X0020275
Y0049875
X0022275
X002185Y008915
Y009115
X001985
Y008915
X00609Y0103575
X00629
X00649
X00669
X00689
Y0105575
X00669
X00649
X00629
X00609
T05
X00276Y008916
Y00917
Y009424
X0027775Y009825
Y0100775
X00344Y0104325
X0036925
T06
X0042125Y0103875
X008595Y01031
T07
X00213Y00213
X010435Y0021325
X008125Y00585
X004975
X00213Y010435
X004975Y00809
X008125
X010435Y010435
M30
