%TF.GenerationSoftware,Altium Limited,Altium Designer,18.1.7 (191)*%
G04 Layer_Color=8388736*
%FSLAX45Y45*%
%MOMM*%
%TF.FileFunction,Soldermask,Top*%
%TF.Part,Single*%
G01*
G75*
%TA.AperFunction,SMDPad,CuDef*%
%ADD76R,1.65320X0.80320*%
%ADD77R,1.60320X1.30320*%
%ADD78R,0.80320X1.65320*%
%ADD79R,1.10320X0.90320*%
%ADD80R,1.30320X1.60320*%
%ADD83R,0.90320X1.10320*%
%ADD84R,1.30320X0.85320*%
%ADD85R,1.00320X1.10320*%
%ADD86R,1.10320X1.00320*%
%TA.AperFunction,ViaPad*%
%ADD87C,3.20320*%
%TA.AperFunction,ComponentPad*%
%ADD88C,1.72720*%
%TA.AperFunction,ViaPad*%
%ADD89C,2.20320*%
%TA.AperFunction,ComponentPad*%
%ADD90C,1.15320*%
%ADD91C,1.10320*%
%TA.AperFunction,ViaPad*%
%ADD92C,1.10320*%
%TA.AperFunction,SMDPad,CuDef*%
%ADD98R,4.20320X1.95320*%
%ADD99O,0.90320X1.90320*%
%ADD100R,0.85320X1.30320*%
%ADD101R,2.15320X2.10320*%
%ADD102O,0.90320X2.70320*%
%ADD103O,2.70320X0.90320*%
%ADD104R,3.90320X3.50320*%
%ADD105R,3.50320X8.40320*%
%ADD106R,8.40320X3.50320*%
%ADD107R,1.30320X2.80320*%
%ADD108R,1.70320X3.00320*%
%ADD109R,3.00320X1.70320*%
%ADD110R,6.50320X2.40320*%
%ADD111R,1.80320X2.40320*%
%ADD112R,2.40320X1.80320*%
%ADD113R,3.50320X3.90320*%
%ADD114R,1.05320X0.65320*%
%ADD115R,0.65320X1.05320*%
%ADD116R,1.30320X1.90320*%
%ADD117R,1.90320X1.30320*%
G04:AMPARAMS|DCode=118|XSize=1.9032mm|YSize=1.3032mm|CornerRadius=0mm|HoleSize=0mm|Usage=FLASHONLY|Rotation=45.000|XOffset=0mm|YOffset=0mm|HoleType=Round|Shape=Rectangle|*
%AMROTATEDRECTD118*
4,1,4,-0.21213,-1.13364,-1.13364,-0.21213,0.21213,1.13364,1.13364,0.21213,-0.21213,-1.13364,0.0*
%
%ADD118ROTATEDRECTD118*%

%ADD119R,2.80320X1.30320*%
D76*
X2752501Y3699998D02*
D03*
X2987502Y3794999D02*
D03*
Y3605002D02*
D03*
X2752501Y3319998D02*
D03*
X2987502Y3415000D02*
D03*
Y3225002D02*
D03*
X8574999Y2067499D02*
D03*
X8339999Y1972498D02*
D03*
Y2162500D02*
D03*
D77*
X4289999Y9847499D02*
D03*
Y9997501D02*
D03*
X8395000Y6669999D02*
D03*
Y6820002D02*
D03*
X8980002Y8627501D02*
D03*
Y8477499D02*
D03*
X3577499Y8355000D02*
D03*
Y8204998D02*
D03*
X2514529Y3707501D02*
D03*
Y3857498D02*
D03*
X6087501Y7384999D02*
D03*
Y7535001D02*
D03*
D78*
X4540001Y3007502D02*
D03*
X4349999D02*
D03*
X4445000Y2772501D02*
D03*
X5407503Y2990002D02*
D03*
X5217500D02*
D03*
X5312501Y2755001D02*
D03*
X4194998Y3019999D02*
D03*
X4005001D02*
D03*
X4100002Y2784998D02*
D03*
X10290002Y5064999D02*
D03*
X10384998Y4829998D02*
D03*
X10195001D02*
D03*
X5785002Y2990002D02*
D03*
X5595000D02*
D03*
X5690001Y2755001D02*
D03*
D79*
X4320002Y4877501D02*
D03*
Y5027498D02*
D03*
X8219999Y4824999D02*
D03*
Y4975001D02*
D03*
X3825001Y2872501D02*
D03*
Y3022498D02*
D03*
X6374999Y2577501D02*
D03*
Y2727498D02*
D03*
X7844998Y2062500D02*
D03*
Y1912498D02*
D03*
X10384998Y4477502D02*
D03*
Y4627499D02*
D03*
X6700002Y4442501D02*
D03*
Y4292498D02*
D03*
X7280001Y4555002D02*
D03*
Y4405000D02*
D03*
X3745001Y8437499D02*
D03*
Y8587501D02*
D03*
X3707501Y5184999D02*
D03*
Y5035001D02*
D03*
X3732500Y9715002D02*
D03*
Y9864999D02*
D03*
X9182501Y6492499D02*
D03*
Y6342502D02*
D03*
X8894999Y3004998D02*
D03*
Y3155000D02*
D03*
X9582501Y6880001D02*
D03*
Y7029999D02*
D03*
X9592498Y3265002D02*
D03*
Y3415000D02*
D03*
X10195001Y4480001D02*
D03*
Y4629998D02*
D03*
X5350002Y8732500D02*
D03*
Y8882502D02*
D03*
X8587501Y9642500D02*
D03*
Y9492498D02*
D03*
X8439998Y9492503D02*
D03*
Y9642500D02*
D03*
X2462500Y8035000D02*
D03*
Y7884998D02*
D03*
X2000001Y8362498D02*
D03*
Y8212501D02*
D03*
X9532498Y7515001D02*
D03*
Y7664999D02*
D03*
X8819998Y7120001D02*
D03*
Y7269998D02*
D03*
X10027498Y5787502D02*
D03*
Y5937499D02*
D03*
Y6099998D02*
D03*
Y6250000D02*
D03*
X10595000Y6732499D02*
D03*
Y6882501D02*
D03*
X6079998Y6572499D02*
D03*
Y6722501D02*
D03*
X7852501Y6607500D02*
D03*
Y6757502D02*
D03*
X8077500Y4824999D02*
D03*
Y4975001D02*
D03*
D80*
X4729998Y2537501D02*
D03*
X4580001D02*
D03*
X6537503Y6287501D02*
D03*
X6687500D02*
D03*
X4222501Y6865000D02*
D03*
X4372498D02*
D03*
X5477500Y2549997D02*
D03*
X5327498D02*
D03*
X7724999Y7380000D02*
D03*
X7575001D02*
D03*
X4457502Y6547500D02*
D03*
X4607499D02*
D03*
X6872498Y6092500D02*
D03*
X6722501D02*
D03*
D83*
X5175001Y6385001D02*
D03*
X5324998D02*
D03*
X5322499Y6540002D02*
D03*
X5172502D02*
D03*
X7157502Y6205002D02*
D03*
X7307499D02*
D03*
Y6052500D02*
D03*
X7157502D02*
D03*
X5785002Y3150001D02*
D03*
X5935000D02*
D03*
X8897498Y2627498D02*
D03*
X9047500D02*
D03*
X9172499D02*
D03*
X9322501D02*
D03*
X7995001Y2057502D02*
D03*
X8144998D02*
D03*
X8067497Y9780001D02*
D03*
X7917500D02*
D03*
X2697500Y4347500D02*
D03*
X2847503D02*
D03*
X2752501Y5089997D02*
D03*
X2902499D02*
D03*
X9889998Y6530000D02*
D03*
X10040000D02*
D03*
X2027499Y4667499D02*
D03*
X2177501D02*
D03*
Y4527499D02*
D03*
X2027499D02*
D03*
X8110002Y8962502D02*
D03*
X7959999D02*
D03*
X4884999Y9130000D02*
D03*
X4735002D02*
D03*
X3527501Y9169999D02*
D03*
X3677498D02*
D03*
X3024998Y3017500D02*
D03*
X2875001D02*
D03*
X7684999Y8750000D02*
D03*
X7835001D02*
D03*
X7684999Y8894999D02*
D03*
X7835001D02*
D03*
D84*
X9534997Y7362500D02*
D03*
Y7172503D02*
D03*
X9294998D02*
D03*
Y7267499D02*
D03*
Y7362500D02*
D03*
X7864998Y9375003D02*
D03*
Y9565000D02*
D03*
X8104998D02*
D03*
Y9469999D02*
D03*
Y9375003D02*
D03*
X9417502Y6645001D02*
D03*
Y6740002D02*
D03*
Y6834998D02*
D03*
X9177498D02*
D03*
Y6645001D02*
D03*
X3867501Y5027498D02*
D03*
Y4932502D02*
D03*
Y4837501D02*
D03*
X4107500D02*
D03*
Y5027498D02*
D03*
D85*
X8017500Y6420002D02*
D03*
X7877500D02*
D03*
X5632501Y6192500D02*
D03*
X5492501D02*
D03*
X6030001Y6185002D02*
D03*
X5890001D02*
D03*
X8004998Y9205001D02*
D03*
X7864998D02*
D03*
X9052499Y3590000D02*
D03*
X9192499D02*
D03*
X10337500Y7132498D02*
D03*
X10197501D02*
D03*
X2227499Y8610001D02*
D03*
X2367498D02*
D03*
X9197497Y2792501D02*
D03*
X9057498D02*
D03*
X8172501Y7207499D02*
D03*
X8312501D02*
D03*
X5767502Y7327499D02*
D03*
X5907502D02*
D03*
X4362501Y7037502D02*
D03*
X4222501D02*
D03*
X4457502Y6720002D02*
D03*
X4597502D02*
D03*
X6729999Y5805002D02*
D03*
X6869999D02*
D03*
X6667500Y5939998D02*
D03*
X6527500D02*
D03*
D86*
X7460000Y6192500D02*
D03*
Y6052500D02*
D03*
X7872501Y6937502D02*
D03*
Y7077502D02*
D03*
X6087501Y6935003D02*
D03*
Y7075002D02*
D03*
X9632498Y6614998D02*
D03*
Y6754998D02*
D03*
X2704998Y4605000D02*
D03*
Y4744999D02*
D03*
X9132499Y7407499D02*
D03*
Y7267499D02*
D03*
X4554997Y8712500D02*
D03*
Y8852499D02*
D03*
X9025001Y3010002D02*
D03*
Y3150001D02*
D03*
X7437501Y4314998D02*
D03*
Y4455003D02*
D03*
X7272498Y4182501D02*
D03*
Y4042501D02*
D03*
D87*
X2130000Y2130000D02*
D03*
X10435001Y2132498D02*
D03*
X10435000Y10435001D02*
D03*
X2129998D02*
D03*
D88*
X3970000Y2109196D02*
D03*
Y2309195D02*
D03*
X4169999Y2109196D02*
D03*
Y2309195D02*
D03*
X4369999Y2109196D02*
D03*
Y2309195D02*
D03*
X4569998Y2109196D02*
D03*
Y2309195D02*
D03*
X4769998Y2109196D02*
D03*
Y2309195D02*
D03*
X2710002Y2049998D02*
D03*
Y2249998D02*
D03*
X2910002Y2049998D02*
D03*
Y2249998D02*
D03*
X3110001Y2049998D02*
D03*
Y2249998D02*
D03*
X3310001Y2049998D02*
D03*
Y2249998D02*
D03*
X3510001Y2049998D02*
D03*
Y2249998D02*
D03*
X2240001Y3102498D02*
D03*
X2040001D02*
D03*
X2240001Y3302498D02*
D03*
X2040001D02*
D03*
X2240001Y3502503D02*
D03*
X2040001D02*
D03*
X2240001Y3702502D02*
D03*
X2040001D02*
D03*
X2240001Y3902502D02*
D03*
X2040001D02*
D03*
X2184999Y8914999D02*
D03*
Y9114998D02*
D03*
X1985000Y8914999D02*
D03*
Y9114998D02*
D03*
X2760000Y8915999D02*
D03*
Y9169999D02*
D03*
Y9423999D02*
D03*
X8967500Y2162500D02*
D03*
Y2362500D02*
D03*
X9167500Y2162500D02*
D03*
Y2362500D02*
D03*
X9367500Y2162500D02*
D03*
Y2362500D02*
D03*
X9567499Y2162500D02*
D03*
Y2362500D02*
D03*
X9767499Y2162500D02*
D03*
Y2362500D02*
D03*
X10459999Y3147502D02*
D03*
Y2947502D02*
D03*
X10659999Y3147502D02*
D03*
Y2947502D02*
D03*
X2777500Y9824999D02*
D03*
Y10077501D02*
D03*
X2027499Y4987498D02*
D03*
Y5187498D02*
D03*
Y5587502D02*
D03*
X2227499Y5187498D02*
D03*
X2027499Y5387503D02*
D03*
X2227499Y4987498D02*
D03*
Y5387503D02*
D03*
X2027499Y5787502D02*
D03*
X2227499Y5587502D02*
D03*
Y5787502D02*
D03*
X10490002Y5455001D02*
D03*
X10290002D02*
D03*
X10490002Y5655000D02*
D03*
X10290002D02*
D03*
X10490002Y5855000D02*
D03*
X10290002D02*
D03*
X10490002Y6054999D02*
D03*
X10290002D02*
D03*
X10490002Y6254999D02*
D03*
X10290002D02*
D03*
X5310002Y2300000D02*
D03*
Y2100001D02*
D03*
X5510002Y2300000D02*
D03*
Y2100001D02*
D03*
X5710001Y2300000D02*
D03*
Y2100001D02*
D03*
X5910001Y2300000D02*
D03*
Y2100001D02*
D03*
X6110000Y2300000D02*
D03*
Y2100001D02*
D03*
X3439998Y10432501D02*
D03*
X3692500D02*
D03*
X6889999Y10557500D02*
D03*
Y10357500D02*
D03*
X6689999Y10557500D02*
D03*
Y10357500D02*
D03*
X6490000Y10557500D02*
D03*
Y10357500D02*
D03*
X6290000Y10557500D02*
D03*
Y10357500D02*
D03*
X6090001Y10557500D02*
D03*
Y10357500D02*
D03*
X10462499Y3874999D02*
D03*
Y3674999D02*
D03*
X10662498Y3874999D02*
D03*
Y3674999D02*
D03*
X8124998Y5850001D02*
D03*
Y8090002D02*
D03*
X4975001D02*
D03*
Y5850001D02*
D03*
D89*
X8594999Y10310002D02*
D03*
X4212499Y10387498D02*
D03*
D90*
X7612502Y1982500D02*
D03*
X7487498D02*
D03*
X7362500D02*
D03*
X7237501D02*
D03*
X7112498D02*
D03*
X6862501D02*
D03*
X6737502D02*
D03*
D91*
X6987499D02*
D03*
D92*
X2647498Y3052501D02*
D03*
X2755001Y3130001D02*
D03*
X3647501Y3007502D02*
D03*
X5067498Y3750000D02*
D03*
X4964999D02*
D03*
X4687499Y3747501D02*
D03*
X4782500Y3750000D02*
D03*
X4592498D02*
D03*
X4869998D02*
D03*
X8882502Y7722499D02*
D03*
X8439998Y8559998D02*
D03*
X9545000Y5642498D02*
D03*
X7145000Y4807499D02*
D03*
X7135002Y7257501D02*
D03*
X7772502Y3980002D02*
D03*
X7515001Y4182501D02*
D03*
X6377498Y2850002D02*
D03*
X1932498Y8754999D02*
D03*
X6197498Y4020002D02*
D03*
X6230000Y4637502D02*
D03*
X8990000Y3337499D02*
D03*
X7509998Y7887503D02*
D03*
X7420000Y8004998D02*
D03*
X9867499Y4417502D02*
D03*
X7344999Y2125000D02*
D03*
X6667500Y3790000D02*
D03*
X5912500Y1785000D02*
D03*
X8630001Y2664998D02*
D03*
X7395002Y4172499D02*
D03*
X5539999Y7347499D02*
D03*
X8175000Y2235002D02*
D03*
X9132499Y7020001D02*
D03*
X3867501Y8590001D02*
D03*
X3652500Y4812502D02*
D03*
X4462501Y8954999D02*
D03*
X7612502Y9047500D02*
D03*
X9010000Y7195002D02*
D03*
X9907499Y4294998D02*
D03*
X9417502Y6995003D02*
D03*
X2122500Y8362498D02*
D03*
X7217501Y4709998D02*
D03*
X3882502Y9675002D02*
D03*
X8499998Y4157502D02*
D03*
X7067499Y8722502D02*
D03*
X8107502Y4309999D02*
D03*
X8077500Y4709998D02*
D03*
X6997502Y5180000D02*
D03*
X6825000Y3087502D02*
D03*
X3487501Y3417499D02*
D03*
X2950002Y4234998D02*
D03*
X2547498Y3507501D02*
D03*
X8175000Y4069999D02*
D03*
X9735002Y3055000D02*
D03*
X6507500Y4884999D02*
D03*
X6849999Y5555000D02*
D03*
X5927501Y7115002D02*
D03*
X7735001Y7102500D02*
D03*
X8807501Y3277499D02*
D03*
X8690000Y3255000D02*
D03*
X10197501Y7372502D02*
D03*
X7690002Y8602502D02*
D03*
X3147502Y4340001D02*
D03*
X3499998Y6290000D02*
D03*
X2704998Y4877501D02*
D03*
X9745000Y7180001D02*
D03*
X6357498Y1785000D02*
D03*
X6239998D02*
D03*
X6132500D02*
D03*
X6027501D02*
D03*
X7025000Y4045001D02*
D03*
X7178751Y3898753D02*
D03*
X7102500Y3970000D02*
D03*
X9312499Y3672500D02*
D03*
X3305002Y4552498D02*
D03*
X3422498Y4555002D02*
D03*
X3542502Y4552498D02*
D03*
X3677498D02*
D03*
D98*
X7502500Y6689999D02*
D03*
X5702498Y6692499D02*
D03*
D99*
X7309201Y6439042D02*
D03*
X7436201D02*
D03*
X7563201D02*
D03*
X7690201D02*
D03*
X7309201Y6934043D02*
D03*
X7436201D02*
D03*
X7563201D02*
D03*
X7690201D02*
D03*
X5890199Y6936542D02*
D03*
X5763199D02*
D03*
X5636199D02*
D03*
X5509199D02*
D03*
X5890199Y6441542D02*
D03*
X5763199D02*
D03*
X5636199D02*
D03*
X5509199D02*
D03*
D100*
X3822502Y3177499D02*
D03*
X3632500D02*
D03*
Y3417499D02*
D03*
X3727501D02*
D03*
X3822502D02*
D03*
X3722502Y9342501D02*
D03*
X3532500D02*
D03*
Y9582501D02*
D03*
X3627501D02*
D03*
X3722502D02*
D03*
X3532500Y8994999D02*
D03*
X3722502D02*
D03*
Y8754999D02*
D03*
X3627501D02*
D03*
X3532500D02*
D03*
X9192499Y3450001D02*
D03*
X9382501D02*
D03*
Y3210001D02*
D03*
X9287500D02*
D03*
X9192499D02*
D03*
X2847503Y4742500D02*
D03*
X3037500D02*
D03*
Y4502501D02*
D03*
X2942499D02*
D03*
X2847503D02*
D03*
X10197501Y6925000D02*
D03*
X10387498D02*
D03*
Y6685001D02*
D03*
X10292502D02*
D03*
X10197501D02*
D03*
X4729998Y8730000D02*
D03*
X4824999D02*
D03*
X4920000D02*
D03*
Y8970000D02*
D03*
X4729998D02*
D03*
X2460000Y8435000D02*
D03*
X2364999D02*
D03*
X2269998D02*
D03*
Y8195000D02*
D03*
X2460000D02*
D03*
X6054999Y2730002D02*
D03*
X6150000D02*
D03*
X6245001D02*
D03*
Y2970002D02*
D03*
X6054999D02*
D03*
X7100001Y4169999D02*
D03*
X6909999D02*
D03*
Y4409999D02*
D03*
X7005000D02*
D03*
X7100001D02*
D03*
X3195000Y3019999D02*
D03*
X3385002D02*
D03*
Y2780000D02*
D03*
X3290001D02*
D03*
X3195000D02*
D03*
D101*
X6592499Y7942499D02*
D03*
Y7567498D02*
D03*
D102*
X9535500Y8439998D02*
D03*
X9408500D02*
D03*
X9281500D02*
D03*
X9154500D02*
D03*
X9535500Y7950002D02*
D03*
X9408500D02*
D03*
X9281500D02*
D03*
X9154500D02*
D03*
X8970498Y6840002D02*
D03*
X8843498D02*
D03*
X8716498D02*
D03*
X8589498D02*
D03*
X8970498Y6350000D02*
D03*
X8843498D02*
D03*
X8716498D02*
D03*
X8589498D02*
D03*
X4882998Y10007503D02*
D03*
X4755998D02*
D03*
X4628998D02*
D03*
X4501998D02*
D03*
X4882998Y9517502D02*
D03*
X4755998D02*
D03*
X4628998D02*
D03*
X4501998D02*
D03*
D103*
X3250001Y7879502D02*
D03*
Y8006502D02*
D03*
Y8133502D02*
D03*
Y8260502D02*
D03*
X2760000Y7879502D02*
D03*
Y8006502D02*
D03*
Y8133502D02*
D03*
Y8260502D02*
D03*
D104*
X9207500Y5090003D02*
D03*
Y5930001D02*
D03*
D105*
X7515001Y9589999D02*
D03*
X7054997D02*
D03*
D106*
X2924998Y5410002D02*
D03*
Y5870001D02*
D03*
X10290002Y8207502D02*
D03*
Y7747498D02*
D03*
D107*
X4334998Y4337502D02*
D03*
X4605000D02*
D03*
X4382501Y6217498D02*
D03*
X4112499D02*
D03*
X4385000Y5890001D02*
D03*
X4114998D02*
D03*
X4385000Y5547502D02*
D03*
X4114998D02*
D03*
D108*
X9349999Y4680001D02*
D03*
X9660001D02*
D03*
X2404999Y6450000D02*
D03*
X2095002D02*
D03*
X10282499Y8610001D02*
D03*
X9972502D02*
D03*
D109*
X6545001Y9542501D02*
D03*
Y9232499D02*
D03*
D110*
X9349999Y3872499D02*
D03*
Y4332498D02*
D03*
D111*
X5272502Y7215002D02*
D03*
X4592498D02*
D03*
D112*
X6700002Y7152498D02*
D03*
Y6472499D02*
D03*
D113*
X10242499Y9352498D02*
D03*
X9402501D02*
D03*
X2317501Y7167499D02*
D03*
X3157499D02*
D03*
X6065002Y9602500D02*
D03*
X5224998D02*
D03*
D114*
X2012498Y6010001D02*
D03*
X2237501D02*
D03*
X8717498Y1917502D02*
D03*
X8942502D02*
D03*
X10464998Y3337499D02*
D03*
X10690001D02*
D03*
X10462499Y2697500D02*
D03*
X10687502D02*
D03*
D115*
X5779999Y10337500D02*
D03*
Y10562499D02*
D03*
X10579999Y5044999D02*
D03*
Y5270002D02*
D03*
D116*
X4389999Y8432500D02*
D03*
X4120002D02*
D03*
X7297501Y7172498D02*
D03*
X7567498D02*
D03*
X8430001Y7504999D02*
D03*
X8159999D02*
D03*
X5501198Y7155002D02*
D03*
X5771200D02*
D03*
X3785001Y7847498D02*
D03*
X4054998D02*
D03*
X6432499Y5635000D02*
D03*
X6702501D02*
D03*
X6430000Y5410002D02*
D03*
X6700002D02*
D03*
X6427500Y5197500D02*
D03*
X6697502D02*
D03*
X6714998Y4792502D02*
D03*
X6985000D02*
D03*
D117*
X4334998Y7862499D02*
D03*
Y7592502D02*
D03*
X5762498Y7877500D02*
D03*
Y7607498D02*
D03*
D118*
X6272042Y4252961D02*
D03*
X6462959Y4062039D02*
D03*
D119*
X3925001Y4560001D02*
D03*
Y4289999D02*
D03*
%TF.MD5,a2b104754d4170015506d69e79fd3720*%
M02*
