%TF.GenerationSoftware,Altium Limited,Altium Designer,18.1.7 (191)*%
G04 Layer_Physical_Order=4*
G04 Layer_Color=16711680*
%FSLAX45Y45*%
%MOMM*%
%TF.FileFunction,Copper,L4,Bot,Signal*%
%TF.Part,Single*%
G01*
G75*
%TA.AperFunction,NonConductor*%
%ADD10C,0.25400*%
%TA.AperFunction,SMDPad,CuDef*%
%ADD11R,1.45000X0.60000*%
%ADD12R,0.90000X0.70000*%
%ADD15R,0.60000X1.45000*%
%ADD17R,1.10000X1.40000*%
%ADD19R,0.70000X0.90000*%
%ADD20R,0.90000X0.80000*%
%ADD21R,0.80000X0.90000*%
%ADD24R,1.10000X0.65000*%
%ADD29R,1.40000X1.10000*%
%TA.AperFunction,Conductor*%
%ADD42C,1.60000*%
%ADD43C,1.50000*%
%ADD44C,0.30000*%
%ADD45C,1.80000*%
%ADD46C,0.50000*%
%ADD47C,1.00000*%
%ADD48C,2.00000*%
%ADD51C,1.70000*%
%ADD52C,0.80000*%
%ADD53C,0.30480*%
%TA.AperFunction,ViaPad*%
%ADD55C,3.00000*%
%TA.AperFunction,ComponentPad*%
%ADD56C,1.52400*%
%TA.AperFunction,ViaPad*%
%ADD57C,2.00000*%
%TA.AperFunction,ComponentPad*%
%ADD58C,0.95000*%
%ADD59C,0.90000*%
%TA.AperFunction,ViaPad*%
%ADD60C,0.90000*%
%TA.AperFunction,SMDPad,CuDef*%
%ADD69O,2.10000X0.30000*%
%ADD70O,0.30000X2.10000*%
%TA.AperFunction,Conductor*%
%ADD71C,0.20000*%
G36*
X2171824Y10699081D02*
X2212621Y10689287D01*
X2251383Y10673231D01*
X2287156Y10651310D01*
X2319059Y10624062D01*
X2346307Y10592158D01*
X2368229Y10556385D01*
X2384285Y10517623D01*
X2393972Y10477273D01*
X2306946Y10390247D01*
X2296053Y10396777D01*
X2297538Y10401675D01*
X2300821Y10435001D01*
X2297538Y10468327D01*
X2287818Y10500372D01*
X2272032Y10529905D01*
X2250788Y10555790D01*
X2224902Y10577034D01*
X2195369Y10592820D01*
X2163324Y10602541D01*
X2129998Y10605823D01*
X2096672Y10602541D01*
X2064627Y10592820D01*
X2035094Y10577034D01*
X2009209Y10555790D01*
X1987965Y10529905D01*
X1972179Y10500372D01*
X1962458Y10468327D01*
X1959176Y10435001D01*
X1962458Y10401675D01*
X1972179Y10369630D01*
X1987965Y10340097D01*
X2009209Y10314211D01*
X2035094Y10292967D01*
X2064627Y10277181D01*
X2096672Y10267461D01*
X2129998Y10264178D01*
X2163324Y10267461D01*
X2168222Y10268946D01*
X2174752Y10258053D01*
X2087726Y10171027D01*
X2047376Y10180714D01*
X2008614Y10196770D01*
X1972841Y10218692D01*
X1940937Y10245940D01*
X1913689Y10277843D01*
X1891768Y10313616D01*
X1875712Y10352378D01*
X1865918Y10393175D01*
X1862626Y10435001D01*
X1865918Y10476827D01*
X1875712Y10517623D01*
X1891768Y10556385D01*
X1913689Y10592158D01*
X1940937Y10624062D01*
X1972841Y10651310D01*
X2008614Y10673231D01*
X2047376Y10689287D01*
X2088172Y10699081D01*
X2129998Y10702373D01*
X2171824Y10699081D01*
D02*
G37*
G36*
X10907500Y1660000D02*
X1657500D01*
Y7764636D01*
X1670200Y7768697D01*
X1686913Y7746916D01*
X2366463Y7067367D01*
Y5883321D01*
X2236694D01*
X2227499Y5884532D01*
X2202385Y5881225D01*
X2178984Y5871532D01*
X2158888Y5856112D01*
X2143468Y5836017D01*
X2136019Y5818032D01*
X2123319Y5820558D01*
Y6114999D01*
X2120054Y6139799D01*
X2110481Y6162909D01*
X2095254Y6182754D01*
X2079998Y6194460D01*
Y6205000D01*
X2058465D01*
X2052299Y6207554D01*
X2027499Y6210819D01*
X2002699Y6207554D01*
X1996533Y6205000D01*
X1979999D01*
Y6198151D01*
X1979589Y6197981D01*
X1959745Y6182754D01*
X1944517Y6162909D01*
X1934945Y6139799D01*
X1931680Y6114999D01*
Y5796697D01*
X1930469Y5787502D01*
X1933775Y5762389D01*
X1943469Y5738987D01*
X1958889Y5718891D01*
X1978984Y5703471D01*
X2002386Y5693778D01*
X2027499Y5690472D01*
X2052612Y5693778D01*
X2076014Y5703471D01*
X2096110Y5718891D01*
X2111530Y5738987D01*
X2121223Y5762388D01*
X2133775D01*
X2143468Y5738987D01*
X2158888Y5718891D01*
X2178984Y5703471D01*
X2202385Y5693778D01*
X2227499Y5690472D01*
X2236694Y5691682D01*
X2366463D01*
Y4635002D01*
X2370587Y4603676D01*
X2382678Y4574484D01*
X2401913Y4549417D01*
X2481913Y4469417D01*
X2506980Y4450182D01*
X2536172Y4438091D01*
X2567498Y4433967D01*
X3677498D01*
X3708825Y4438091D01*
X3738016Y4450182D01*
X3763083Y4469417D01*
X3782318Y4494485D01*
X3794410Y4523676D01*
X3798534Y4555002D01*
X3794410Y4586329D01*
X3782318Y4615520D01*
X3763083Y4640587D01*
X3759706Y4643179D01*
X3762580Y4656500D01*
X3762930Y4656713D01*
X3774998Y4654313D01*
X5035221D01*
X5827267Y3862267D01*
X5838844Y3854531D01*
X5852500Y3851815D01*
X6312719D01*
X6400002Y3764531D01*
Y3652499D01*
X6389089Y3648185D01*
X6287281D01*
X6219998Y3715469D01*
Y3770001D01*
X6165465D01*
X6112735Y3822732D01*
X6101157Y3830467D01*
X6087501Y3833184D01*
X5807282D01*
X5275236Y4365235D01*
X5263659Y4372971D01*
X5250002Y4375687D01*
X3202050D01*
X3193860Y4386360D01*
X3180282Y4396779D01*
X3164470Y4403328D01*
X3147502Y4405562D01*
X3130533Y4403328D01*
X3114722Y4396779D01*
X3101144Y4386360D01*
X3090725Y4372782D01*
X3084175Y4356970D01*
X3081941Y4340001D01*
X3084175Y4323033D01*
X3090725Y4307221D01*
X3101144Y4293643D01*
X3114514Y4283384D01*
X3114603Y4282712D01*
X3111811Y4270684D01*
X3004549D01*
X2996360Y4281356D01*
X2982782Y4291775D01*
X2966970Y4298325D01*
X2950002Y4300559D01*
X2933033Y4298325D01*
X2917221Y4291775D01*
X2903643Y4281356D01*
X2893225Y4267778D01*
X2886675Y4251966D01*
X2884441Y4234998D01*
X2886675Y4218029D01*
X2893225Y4202218D01*
X2903643Y4188640D01*
X2910493Y4183384D01*
X2906182Y4170684D01*
X2507284D01*
X2410233Y4267735D01*
X2398655Y4275470D01*
X2384999Y4278187D01*
X2007280D01*
X1890688Y4394782D01*
Y5487503D01*
X1887972Y5501159D01*
X1880236Y5512736D01*
X1814999Y5577970D01*
Y5622502D01*
X1795687D01*
Y6027503D01*
X1825001D01*
Y6137502D01*
X1695002D01*
Y6027503D01*
X1724316D01*
Y5622502D01*
X1684999D01*
Y5512502D01*
X1779533D01*
X1819317Y5472720D01*
Y4380001D01*
X1822033Y4366345D01*
X1829769Y4354768D01*
X1967264Y4217267D01*
X1978842Y4209532D01*
X1992497Y4206815D01*
X2370218D01*
X2467268Y4109764D01*
X2478846Y4102029D01*
X2492502Y4099312D01*
X2619999D01*
Y4075688D01*
X2604999D01*
X2591342Y4072971D01*
X2579765Y4065236D01*
X2552031Y4037501D01*
X2482498D01*
Y3927502D01*
X2612498D01*
Y3982907D01*
X2619999Y3992500D01*
X2749998D01*
Y4004316D01*
X3322255D01*
X3327116Y3992583D01*
X3291008Y3956475D01*
X3282501Y3959999D01*
Y3959998D01*
X3172502D01*
Y3829999D01*
X3282502D01*
Y3857809D01*
X3291155Y3859530D01*
X3302733Y3867266D01*
X3389781Y3954314D01*
X5192716D01*
X5203646Y3943384D01*
X5198385Y3930684D01*
X3697502D01*
Y3935000D01*
X3587502D01*
Y3805000D01*
X3697502D01*
Y3852035D01*
X3704781Y3859313D01*
X4363839D01*
X4366365Y3846613D01*
X4354547Y3841717D01*
X4332613Y3824887D01*
X4332612Y3824886D01*
X4272613Y3764887D01*
X4271528Y3763473D01*
X4270113Y3762388D01*
X3818634Y3310908D01*
X3337499D01*
X3335818Y3312383D01*
Y3537499D01*
X3333884Y3552188D01*
X3332554Y3562294D01*
X3332553Y3562296D01*
X3332553Y3562298D01*
X3327841Y3573674D01*
X3322983Y3585404D01*
X3322982Y3585406D01*
X3322981Y3585408D01*
X3316634Y3593679D01*
X3307757Y3605250D01*
X3260259Y3652753D01*
X3260256Y3652755D01*
X3260255Y3652756D01*
X3252418Y3658770D01*
X3240415Y3667981D01*
X3240412Y3667982D01*
X3240410Y3667984D01*
X3228238Y3673026D01*
X3217305Y3677555D01*
X3217303Y3677555D01*
X3217300Y3677556D01*
X3200605Y3679754D01*
X3192506Y3680821D01*
X3192504Y3680821D01*
X3192501Y3680821D01*
X2987502D01*
X2962702Y3677556D01*
X2939593Y3667984D01*
X2925886Y3657466D01*
X2913186Y3663729D01*
Y3724999D01*
X3080002D01*
Y3824998D01*
X3090631Y3829999D01*
X3132499D01*
Y3959998D01*
X3022500D01*
Y3928185D01*
X2907497D01*
X2893841Y3925468D01*
X2882264Y3917733D01*
X2854766Y3890235D01*
X2847030Y3878657D01*
X2844314Y3865001D01*
Y3790063D01*
X2841814Y3777498D01*
Y3740519D01*
X2829114Y3736208D01*
X2820256Y3747752D01*
X2800411Y3762980D01*
X2777301Y3772552D01*
X2752501Y3775817D01*
X2727702Y3772552D01*
X2704592Y3762980D01*
X2684747Y3747752D01*
X2671123Y3729998D01*
X2660002D01*
Y3704929D01*
X2659947Y3704798D01*
X2656682Y3679998D01*
Y3395818D01*
X2335820D01*
Y3493308D01*
X2337031Y3502503D01*
X2333724Y3527616D01*
X2324031Y3551018D01*
X2308611Y3571113D01*
X2288516Y3586533D01*
X2265114Y3596226D01*
Y3608778D01*
X2288516Y3618472D01*
X2308611Y3633892D01*
X2324031Y3653987D01*
X2333724Y3677389D01*
X2337031Y3702502D01*
X2333724Y3727615D01*
X2324031Y3751017D01*
X2308611Y3771113D01*
X2288516Y3786533D01*
X2265114Y3796226D01*
X2240001Y3799532D01*
X2214887Y3796226D01*
X2191486Y3786533D01*
X2171390Y3771113D01*
X2155970Y3751017D01*
X2146277Y3727616D01*
X2133725D01*
X2124032Y3751017D01*
X2108611Y3771113D01*
X2088516Y3786533D01*
X2065114Y3796226D01*
X2040001Y3799532D01*
X2014888Y3796226D01*
X1991486Y3786533D01*
X1971391Y3771113D01*
X1955970Y3751017D01*
X1946277Y3727615D01*
X1942971Y3702502D01*
X1946277Y3677389D01*
X1955970Y3653987D01*
X1971391Y3633892D01*
X1991486Y3618472D01*
X2014888Y3608778D01*
Y3596226D01*
X1991486Y3586533D01*
X1971391Y3571113D01*
X1955970Y3551018D01*
X1946277Y3527616D01*
X1942971Y3502503D01*
X1946277Y3477389D01*
X1955970Y3453988D01*
X1971391Y3433892D01*
X1991486Y3418472D01*
X2014888Y3408779D01*
Y3396222D01*
X1991486Y3386528D01*
X1971391Y3371108D01*
X1955970Y3351013D01*
X1946277Y3327611D01*
X1942971Y3302498D01*
X1946277Y3277385D01*
X1955970Y3253983D01*
X1971391Y3233887D01*
X1991486Y3218467D01*
X2014888Y3208774D01*
X2040001Y3205468D01*
X2065114Y3208774D01*
X2068552Y3210198D01*
X2075201Y3207444D01*
X2100001Y3204179D01*
X2731042D01*
X2733568Y3191479D01*
X2722221Y3186778D01*
X2708643Y3176360D01*
X2698224Y3162782D01*
X2691674Y3146970D01*
X2689440Y3130001D01*
X2691160Y3116936D01*
X2680990Y3109741D01*
X2679941Y3109418D01*
X2664466Y3115828D01*
X2647498Y3118062D01*
X2630529Y3115828D01*
X2614718Y3109278D01*
X2601140Y3098859D01*
X2590721Y3085281D01*
X2584171Y3069469D01*
X2581937Y3052501D01*
X2584171Y3035532D01*
X2590721Y3019721D01*
X2601140Y3006143D01*
X2611812Y2997953D01*
Y2896747D01*
X2609663Y2893531D01*
X2609661Y2893520D01*
X2609655Y2893511D01*
X2608310Y2886734D01*
X2606946Y2879874D01*
X2606948Y2879864D01*
X2606946Y2879854D01*
X2608317Y2872979D01*
X2609661Y2866218D01*
X2609667Y2866209D01*
X2609669Y2866199D01*
X2613592Y2860335D01*
X2617396Y2854640D01*
X2659763Y2812268D01*
X2659764Y2812267D01*
X2659765Y2812266D01*
X2665079Y2808716D01*
X2671340Y2804532D01*
X2671341Y2804531D01*
X2671342Y2804531D01*
X2677752Y2803256D01*
X2684996Y2801814D01*
X2684997Y2801815D01*
X2684998Y2801814D01*
X2795823D01*
X2797015Y2798303D01*
X2798874Y2789114D01*
X2784520Y2770409D01*
X2774948Y2747299D01*
X2771683Y2722499D01*
X2774948Y2697699D01*
X2784520Y2674589D01*
X2799748Y2654744D01*
X2802247Y2652245D01*
X2817503Y2640539D01*
Y2629999D01*
X2839036D01*
X2845202Y2627445D01*
X2870002Y2624180D01*
X2888987Y2626680D01*
X3016681D01*
Y2276084D01*
X3016278Y2275111D01*
X3012971Y2249998D01*
X3016278Y2224885D01*
X3016681Y2223912D01*
Y2076084D01*
X3016278Y2075112D01*
X3012971Y2049998D01*
X3016278Y2024885D01*
X3025971Y2001483D01*
X3041391Y1981388D01*
X3061486Y1965968D01*
X3084888Y1956275D01*
X3110001Y1952968D01*
X3135115Y1956275D01*
X3158516Y1965968D01*
X3159265Y1966542D01*
X3160410Y1967016D01*
X3180254Y1982244D01*
X3195482Y2002089D01*
X3205055Y2025199D01*
X3208319Y2049998D01*
Y2626680D01*
X3245002D01*
X3269802Y2629944D01*
X3269934Y2629999D01*
X3295002D01*
Y2641121D01*
X3312757Y2654744D01*
X3327984Y2674589D01*
X3337557Y2697699D01*
X3340822Y2722499D01*
X3337557Y2747299D01*
X3327984Y2770409D01*
X3312757Y2790253D01*
X3295002Y2803877D01*
Y2814999D01*
X3269934D01*
X3269802Y2815054D01*
X3245002Y2818318D01*
X3182961D01*
X3177741Y2831018D01*
X3182971Y2838845D01*
X3185687Y2852501D01*
Y2865000D01*
X3200001D01*
Y3050000D01*
X3100001D01*
Y2873186D01*
X3036641D01*
X3032559Y2885212D01*
X3033819Y2886179D01*
X3049848Y2907069D01*
X3059924Y2931395D01*
X3063361Y2957500D01*
Y3104140D01*
X3239136D01*
Y2957500D01*
X3242573Y2931395D01*
X3252649Y2907069D01*
X3268678Y2886179D01*
X3289567Y2870150D01*
X3289999Y2869972D01*
Y2865000D01*
X3302001D01*
X3313893Y2860074D01*
X3339998Y2856637D01*
X3366104Y2860074D01*
X3377996Y2865000D01*
X3389998D01*
Y2869972D01*
X3390430Y2870150D01*
X3411319Y2886179D01*
X3427348Y2907069D01*
X3437424Y2931395D01*
X3440861Y2957500D01*
Y3099097D01*
X3862500D01*
X3862502Y3099096D01*
X3889912Y3102705D01*
X3915455Y3113285D01*
X3937389Y3130116D01*
X4234904Y3427631D01*
X4246637Y3422770D01*
Y3019999D01*
X4250074Y2993894D01*
X4260150Y2969568D01*
X4272568Y2953384D01*
X4266559Y2940684D01*
X4202499D01*
Y3112499D01*
X4102499D01*
Y3043188D01*
X3902498D01*
Y3065001D01*
X3772498D01*
Y3043188D01*
X3702049D01*
X3693859Y3053861D01*
X3680281Y3064279D01*
X3664469Y3070829D01*
X3647501Y3073063D01*
X3630532Y3070829D01*
X3614721Y3064279D01*
X3601143Y3053861D01*
X3590724Y3040282D01*
X3584174Y3024471D01*
X3581940Y3007502D01*
X3584174Y2990534D01*
X3590724Y2974722D01*
X3601143Y2961144D01*
X3614721Y2950725D01*
X3630532Y2944175D01*
X3647501Y2941942D01*
X3664469Y2944175D01*
X3680281Y2950725D01*
X3693859Y2961144D01*
X3702049Y2971817D01*
X3772498D01*
Y2955002D01*
X3902498D01*
Y2971817D01*
X4102499D01*
Y2927499D01*
X4118305D01*
X4119529Y2921344D01*
X4127265Y2909767D01*
X4157268Y2879764D01*
X4168845Y2872029D01*
X4174360Y2870932D01*
X4177527Y2857353D01*
X4176179Y2856319D01*
X4160150Y2835429D01*
X4150074Y2811103D01*
X4146637Y2784998D01*
X4149136Y2766014D01*
Y2478380D01*
X4152573Y2452274D01*
X4162650Y2427948D01*
X4169997Y2418373D01*
X4163924Y2405425D01*
X4144886Y2402919D01*
X4132057Y2397605D01*
X4036930Y2492732D01*
X4025353Y2500467D01*
X4011696Y2503184D01*
X3907500D01*
X3893844Y2500467D01*
X3882267Y2492732D01*
X3786798Y2397263D01*
X3779063Y2385686D01*
X3776346Y2372030D01*
Y2062968D01*
X3779063Y2049311D01*
X3786798Y2037734D01*
X3934735Y1889798D01*
X3939767Y1882266D01*
X3951345Y1874530D01*
X3965001Y1871814D01*
X5841615D01*
X5845697Y1859787D01*
X5841180Y1856321D01*
X5825151Y1835431D01*
X5815074Y1811105D01*
X5811638Y1785000D01*
X5815074Y1758895D01*
X5825151Y1734569D01*
X5841180Y1713680D01*
X5862069Y1697651D01*
X5886395Y1687574D01*
X5912500Y1684138D01*
X8841062D01*
X8856286Y1677832D01*
X8885001Y1674051D01*
X9897501D01*
X9926217Y1677832D01*
X9952976Y1688916D01*
X9975954Y1706548D01*
X10058453Y1789047D01*
X10076085Y1812025D01*
X10087169Y1838784D01*
X10090949Y1867499D01*
Y2067699D01*
X10103649Y2069203D01*
X10113531Y2028044D01*
X10133828Y1979041D01*
X10161542Y1933816D01*
X10195990Y1893484D01*
X10236322Y1859036D01*
X10281547Y1831322D01*
X10330550Y1811025D01*
X10382126Y1798643D01*
X10435003Y1794481D01*
X10487880Y1798643D01*
X10539455Y1811025D01*
X10588459Y1831322D01*
X10633684Y1859036D01*
X10674016Y1893484D01*
X10708463Y1933816D01*
X10736177Y1979041D01*
X10756475Y2028044D01*
X10768857Y2079620D01*
X10773019Y2132497D01*
X10768857Y2185374D01*
X10756475Y2236950D01*
X10736177Y2285953D01*
X10708463Y2331178D01*
X10674016Y2371510D01*
X10633684Y2405957D01*
X10588459Y2433671D01*
X10539455Y2453969D01*
X10487880Y2466351D01*
X10435003Y2470513D01*
X10382126Y2466351D01*
X10330550Y2453969D01*
X10281547Y2433671D01*
X10241492Y2409126D01*
X10233575Y2419169D01*
X10303457Y2489051D01*
X10695000D01*
X10723716Y2492831D01*
X10750475Y2503915D01*
X10773453Y2521547D01*
X10835952Y2584046D01*
X10853584Y2607025D01*
X10864668Y2633783D01*
X10868448Y2662499D01*
Y2913849D01*
X10869412Y2916176D01*
X10873536Y2947502D01*
X10869412Y2978829D01*
X10868448Y2981155D01*
Y4197502D01*
Y5464998D01*
Y6840002D01*
X10864668Y6868718D01*
X10853584Y6895476D01*
X10835952Y6918455D01*
X10483450Y7270951D01*
X10460473Y7288582D01*
X10433713Y7299666D01*
X10404998Y7303447D01*
X10235146D01*
X10230725Y7314863D01*
X10230830Y7316147D01*
X10243859Y7326144D01*
X10254278Y7339722D01*
X10260827Y7355534D01*
X10263061Y7372502D01*
X10260827Y7389471D01*
X10254278Y7405283D01*
X10243859Y7418861D01*
X10243382Y7419226D01*
Y7477501D01*
X10239890Y7495059D01*
X10229944Y7509944D01*
X10187444Y7552443D01*
X10172560Y7562389D01*
X10155001Y7565882D01*
X10099999D01*
Y7585000D01*
X9989999D01*
Y7455000D01*
X10099999D01*
Y7474119D01*
X10135996D01*
X10151619Y7458496D01*
Y7419226D01*
X10151142Y7418861D01*
X10150776Y7418384D01*
X10099999D01*
Y7437502D01*
X9989999D01*
X9989999Y7307503D01*
X9978979Y7303447D01*
X9961022D01*
X9950002Y7307503D01*
Y7437502D01*
X9840002D01*
Y7307503D01*
X9828982Y7303447D01*
X9705038D01*
X9705000Y7303452D01*
X9012499D01*
X8983783Y7299671D01*
X8957025Y7288587D01*
X8934046Y7270955D01*
X8916414Y7247977D01*
X8905331Y7221218D01*
X8901550Y7192503D01*
X8905331Y7163787D01*
X8916414Y7137028D01*
X8934046Y7114050D01*
X8957025Y7096418D01*
X8983783Y7085334D01*
X9012499Y7081554D01*
X9085080D01*
X9089391Y7068854D01*
X9086141Y7066360D01*
X9075722Y7052781D01*
X9069172Y7036970D01*
X9066938Y7020001D01*
X9068694Y7006664D01*
X8347267Y6285236D01*
X8339531Y6273659D01*
X8336815Y6260003D01*
Y5227283D01*
X7934766Y4825234D01*
X7927030Y4813657D01*
X7924314Y4800001D01*
Y4142749D01*
X7912580Y4137888D01*
X7848187Y4202281D01*
Y6215219D01*
X8005233Y6372264D01*
X8012968Y6383842D01*
X8015685Y6397498D01*
Y7810002D01*
X8012968Y7823658D01*
X8005233Y7835236D01*
X7131304Y8709165D01*
X7133060Y8722502D01*
X7130826Y8739471D01*
X7124276Y8755282D01*
X7113858Y8768861D01*
X7100279Y8779279D01*
X7084468Y8785829D01*
X7067499Y8788063D01*
X7050531Y8785829D01*
X7034719Y8779279D01*
X7021141Y8768861D01*
X7010722Y8755282D01*
X7004172Y8739471D01*
X7002111Y8723816D01*
X6998293Y8721247D01*
X6989684Y8718283D01*
X5752736Y9955232D01*
X5741158Y9962967D01*
X5727502Y9965684D01*
X5427283D01*
X5312199Y10080767D01*
X5317059Y10092501D01*
X5394999D01*
Y10121815D01*
X5427499D01*
Y10107501D01*
X5612499D01*
Y10207501D01*
X5427499D01*
Y10193186D01*
X5394999D01*
Y10222501D01*
X5285000D01*
Y10124560D01*
X5273266Y10119700D01*
X5245002Y10147964D01*
Y10222501D01*
X5135002D01*
Y10193186D01*
X5117499D01*
Y10222501D01*
X5007500D01*
Y10092501D01*
X5117499D01*
Y10121815D01*
X5135002D01*
Y10092501D01*
X5199531D01*
X5387268Y9904764D01*
X5398845Y9897029D01*
X5412501Y9894312D01*
X5712720D01*
X7891817Y7715216D01*
Y6455490D01*
X7724769Y6288442D01*
X7717033Y6276865D01*
X7714317Y6263208D01*
Y4573967D01*
X7701617Y4568852D01*
X7183185Y5087283D01*
Y5979998D01*
X7180468Y5993655D01*
X7172733Y6005231D01*
X7147499Y6030466D01*
Y6135000D01*
X7053188D01*
Y7380220D01*
X7496660Y7823698D01*
X7509998Y7821942D01*
X7526966Y7824176D01*
X7542778Y7830726D01*
X7556356Y7841144D01*
X7566775Y7854722D01*
X7573324Y7870534D01*
X7575558Y7887503D01*
X7573324Y7904471D01*
X7566775Y7920283D01*
X7556356Y7933861D01*
X7542778Y7944280D01*
X7526966Y7950829D01*
X7509998Y7953063D01*
X7493029Y7950829D01*
X7477217Y7944280D01*
X7463639Y7933861D01*
X7453221Y7920283D01*
X7446671Y7904471D01*
X7444437Y7887503D01*
X7446193Y7874165D01*
X6995885Y7423852D01*
X6983185Y7428966D01*
Y7515216D01*
X7280471Y7812502D01*
X7337497D01*
Y7869528D01*
X7408871Y7940902D01*
X7420000Y7939437D01*
X7436969Y7941671D01*
X7452781Y7948221D01*
X7466359Y7958640D01*
X7476778Y7972218D01*
X7483327Y7988029D01*
X7485561Y8004998D01*
X7483327Y8021966D01*
X7476778Y8037778D01*
X7466359Y8051356D01*
X7452781Y8061775D01*
X7436969Y8068325D01*
X7420000Y8070559D01*
X7403032Y8068325D01*
X7387220Y8061775D01*
X7373642Y8051356D01*
X7363223Y8037778D01*
X7356674Y8021966D01*
X7354440Y8004998D01*
X7356486Y7989452D01*
X7299536Y7932501D01*
X7207498D01*
Y7840463D01*
X6922266Y7555231D01*
X6914530Y7543654D01*
X6911814Y7529998D01*
Y6059998D01*
X6914530Y6046342D01*
X6922266Y6034764D01*
X6970295Y5986735D01*
X6965435Y5975002D01*
X6812500D01*
Y5875002D01*
X6914184D01*
X6991487Y5797700D01*
X6991370Y5785000D01*
X6946137D01*
X6942558Y5787392D01*
X6925000Y5790884D01*
X6907442Y5787392D01*
X6903863Y5785000D01*
X6812500D01*
Y5685000D01*
X6879119D01*
Y5646507D01*
X6852803Y5620192D01*
X6849999Y5620561D01*
X6833031Y5618327D01*
X6817219Y5611777D01*
X6803641Y5601359D01*
X6793222Y5587781D01*
X6786672Y5571969D01*
X6784438Y5555000D01*
X6784808Y5552196D01*
X6475057Y5242445D01*
X6465111Y5227561D01*
X6461619Y5210002D01*
Y4931723D01*
X6461142Y4931357D01*
X6450723Y4917779D01*
X6444174Y4901968D01*
X6441940Y4884999D01*
X6444174Y4868031D01*
X6450238Y4853391D01*
X6446872Y4844057D01*
X6445212Y4840691D01*
X6407621D01*
X6110930Y5137382D01*
Y5695002D01*
X6149999D01*
Y5771688D01*
X6217906Y5839596D01*
X6225695Y5851252D01*
X6228430Y5865002D01*
Y5882268D01*
X6239999Y5884999D01*
X6241130Y5884999D01*
X6389999D01*
Y5989999D01*
X6241130D01*
X6239999Y5989999D01*
X6228430Y5992730D01*
Y7785002D01*
X6257502D01*
Y7915002D01*
X6228430D01*
Y7952498D01*
X6272498D01*
Y8017478D01*
X6274526Y8018848D01*
X6291777Y8015496D01*
X6292265Y8014766D01*
X6327266Y7979764D01*
X6338843Y7972029D01*
X6352499Y7969312D01*
X6362498D01*
Y7952498D01*
X6401812D01*
Y7915002D01*
X6297499D01*
Y7785002D01*
X6407499D01*
Y7814316D01*
X6417498D01*
X6431154Y7817033D01*
X6442732Y7824768D01*
X6462732Y7844768D01*
X6470467Y7856346D01*
X6473184Y7870002D01*
Y7952498D01*
X6512498D01*
Y7974316D01*
X6562500D01*
Y7930002D01*
X6614533D01*
X6654314Y7890222D01*
Y5880001D01*
X6577499D01*
Y5795684D01*
X6552500D01*
Y5819999D01*
X6422500D01*
Y5783188D01*
X6389999D01*
Y5800002D01*
X6239999D01*
Y5695002D01*
X6389999D01*
Y5711816D01*
X6422500D01*
Y5699999D01*
X6552500D01*
Y5724313D01*
X6609999D01*
X6623656Y5727029D01*
X6635233Y5734765D01*
X6680469Y5780001D01*
X6762499D01*
Y5880001D01*
X6725685D01*
Y7905003D01*
X6722969Y7918660D01*
X6715233Y7930237D01*
X6692500Y7952970D01*
Y8050002D01*
X6562500D01*
Y8045687D01*
X6512498D01*
Y8057498D01*
X6362498D01*
X6353184Y8065672D01*
Y8134326D01*
X6362498Y8142500D01*
X6365884Y8142500D01*
X6512498D01*
Y8247500D01*
X6364641D01*
X6362498Y8247500D01*
X6351077Y8250589D01*
X6350467Y8253655D01*
X6342732Y8265232D01*
X6262732Y8345232D01*
X6251155Y8352968D01*
X6237498Y8355684D01*
X6047501D01*
X6033845Y8352968D01*
X6022268Y8345233D01*
X5892265Y8215235D01*
X5884530Y8203658D01*
X5881813Y8190002D01*
Y8144999D01*
X5870002D01*
Y8014999D01*
X5980002D01*
Y8144999D01*
X5953185D01*
Y8175219D01*
X6062282Y8284313D01*
X6222717D01*
X6247796Y8259233D01*
X6242936Y8247500D01*
X6122499D01*
Y8232070D01*
X6112265Y8225232D01*
X6064767Y8177734D01*
X6057031Y8166157D01*
X6054315Y8152501D01*
Y8144999D01*
X6019999D01*
Y8014999D01*
X6054315D01*
Y5989999D01*
X5999999D01*
Y5960464D01*
X5932266Y5892736D01*
X5932266Y5892736D01*
X5932265Y5892735D01*
X5928418Y5886977D01*
X5924530Y5881159D01*
X5924530Y5881158D01*
X5924530Y5881158D01*
X5921813Y5867503D01*
Y5844632D01*
X5909997Y5842498D01*
Y5842498D01*
X5800468D01*
X4620685Y7022281D01*
Y8312501D01*
X4617969Y8326157D01*
X4610233Y8337734D01*
X4225685Y8722283D01*
Y9367500D01*
X4222968Y9381156D01*
X4215233Y9392733D01*
X3946307Y9661664D01*
X3948062Y9675002D01*
X3945829Y9691971D01*
X3939279Y9707782D01*
X3928860Y9721361D01*
X3915282Y9731779D01*
X3899470Y9738329D01*
X3882502Y9740563D01*
X3865533Y9738329D01*
X3849722Y9731779D01*
X3836143Y9721361D01*
X3825725Y9707782D01*
X3819175Y9691971D01*
X3816941Y9675002D01*
X3819175Y9658034D01*
X3825725Y9642222D01*
X3836143Y9628644D01*
X3849722Y9618225D01*
X3865533Y9611675D01*
X3882502Y9609442D01*
X3895839Y9611197D01*
X4154314Y9352718D01*
Y8707501D01*
X4157030Y8693845D01*
X4164766Y8682267D01*
X4549314Y8297719D01*
Y7007499D01*
X4552031Y6993843D01*
X4559766Y6982266D01*
X5779997Y5762034D01*
Y5722498D01*
X5819534D01*
X5824313Y5717719D01*
Y4749998D01*
X5827029Y4736342D01*
X5834765Y4724764D01*
X6082268Y4477267D01*
X6093845Y4469531D01*
X6107501Y4466815D01*
X6732718D01*
X7424315Y3775219D01*
Y3670000D01*
Y3602168D01*
X7412581Y3597307D01*
X7349998Y3659891D01*
Y3709089D01*
X7351174Y3714999D01*
Y3780003D01*
X7346517Y3803414D01*
X7333256Y3823260D01*
X7242273Y3914243D01*
X7242078Y3915721D01*
X7235528Y3931533D01*
X7225110Y3945111D01*
X7211531Y3955530D01*
X7195720Y3962079D01*
X7194242Y3962274D01*
X7163196Y3993319D01*
X7159278Y4002780D01*
X7148859Y4016358D01*
X7135281Y4026777D01*
X7125820Y4030696D01*
X7083928Y4072587D01*
X7081777Y4077781D01*
X7071358Y4091359D01*
X7057780Y4101778D01*
X7041968Y4108328D01*
X7025000Y4110562D01*
X7008031Y4108328D01*
X6992220Y4101778D01*
X6978642Y4091359D01*
X6968223Y4077781D01*
X6961673Y4061969D01*
X6959439Y4045001D01*
X6961673Y4028032D01*
X6968223Y4012221D01*
X6978642Y3998642D01*
X6992220Y3988224D01*
X6997413Y3986072D01*
X7045339Y3938147D01*
X7045723Y3937219D01*
X7056142Y3923641D01*
X7069720Y3913223D01*
X7070647Y3912839D01*
X7228823Y3754663D01*
Y3714999D01*
X7229998Y3709089D01*
Y3649999D01*
X7251620D01*
Y3647501D01*
X7255112Y3629943D01*
X7265058Y3615058D01*
X7347695Y3532421D01*
X7342835Y3520688D01*
X7254782D01*
X6934998Y3840468D01*
Y3919999D01*
X6820466D01*
X6407736Y4332733D01*
X6396158Y4340469D01*
X6382502Y4343185D01*
X5989781D01*
X5613185Y4719781D01*
Y5722498D01*
X5610469Y5736154D01*
X5602733Y5747732D01*
X4325685Y7024780D01*
Y8312501D01*
X4322968Y8326157D01*
X4315233Y8337734D01*
X4037733Y8615234D01*
X4026155Y8622970D01*
X4012499Y8625686D01*
X3922048D01*
X3913859Y8636359D01*
X3900281Y8646778D01*
X3884469Y8653327D01*
X3867501Y8655561D01*
X3850532Y8653327D01*
X3834720Y8646778D01*
X3821142Y8636359D01*
X3810723Y8622781D01*
X3804174Y8606969D01*
X3801940Y8590001D01*
X3804174Y8573032D01*
X3810723Y8557220D01*
X3821142Y8543642D01*
X3834720Y8533223D01*
X3850532Y8526674D01*
X3867501Y8524440D01*
X3884469Y8526674D01*
X3900281Y8533223D01*
X3913859Y8543642D01*
X3922048Y8554315D01*
X3997717D01*
X4254313Y8297719D01*
Y7009999D01*
X4257030Y6996342D01*
X4264765Y6984765D01*
X5541814Y5707717D01*
Y4704999D01*
X5544530Y4691343D01*
X5552266Y4679766D01*
X5936868Y4295163D01*
X5932008Y4283430D01*
X5917381D01*
X4408429Y5792382D01*
Y6159998D01*
X4405694Y6173747D01*
X4397905Y6185404D01*
X4158432Y6424883D01*
Y7235002D01*
X4155697Y7248752D01*
X4147908Y7260409D01*
X2856011Y8552301D01*
X2859660Y8565001D01*
X2932500D01*
Y8695000D01*
X2822500D01*
Y8668430D01*
X2805002D01*
Y8697500D01*
X2695002D01*
Y8567500D01*
X2781570D01*
Y8539998D01*
X2784305Y8526248D01*
X2792093Y8514592D01*
X4086571Y7220119D01*
Y6410000D01*
X4089306Y6396250D01*
X4097094Y6384594D01*
X4336568Y6145115D01*
Y5779358D01*
X4332154Y5776072D01*
X4324402Y5773564D01*
X4243186Y5854780D01*
Y6127501D01*
X4240469Y6141157D01*
X4232733Y6152735D01*
X2158186Y8227282D01*
Y8307950D01*
X2168859Y8316140D01*
X2179277Y8329718D01*
X2185827Y8345529D01*
X2188061Y8362498D01*
X2185827Y8379466D01*
X2179277Y8395278D01*
X2168859Y8408856D01*
X2155280Y8419275D01*
X2139469Y8425825D01*
X2122500Y8428059D01*
X2105532Y8425825D01*
X2089720Y8419275D01*
X2076142Y8408856D01*
X2075885Y8408521D01*
X2063185Y8412832D01*
Y8817498D01*
X2061997Y8823472D01*
X2060470Y8831152D01*
X2060469Y8831153D01*
X2060468Y8831155D01*
X2056838Y8836588D01*
X2052735Y8842730D01*
X2052941Y8845875D01*
X2053610Y8846388D01*
X2069030Y8866484D01*
X2078724Y8889885D01*
X2091276D01*
X2100969Y8866484D01*
X2116389Y8846388D01*
X2136484Y8830968D01*
X2159886Y8821275D01*
X2184999Y8817969D01*
X2210113Y8821275D01*
X2233514Y8830968D01*
X2253610Y8846388D01*
X2269030Y8866484D01*
X2274344Y8879313D01*
X2302720D01*
X2545000Y8637033D01*
Y8567500D01*
X2655000D01*
Y8697500D01*
X2585467D01*
X2342735Y8940232D01*
X2331157Y8947968D01*
X2317501Y8950684D01*
X2274344D01*
X2269030Y8963514D01*
X2253610Y8983609D01*
X2233514Y8999029D01*
X2210113Y9008722D01*
Y9021275D01*
X2233514Y9030968D01*
X2253610Y9046388D01*
X2269030Y9066483D01*
X2278723Y9089885D01*
X2282029Y9114998D01*
X2278723Y9140112D01*
X2269030Y9163513D01*
X2253610Y9183609D01*
X2233514Y9199029D01*
X2210113Y9208722D01*
X2184999Y9212028D01*
X2159886Y9208722D01*
X2136484Y9199029D01*
X2116389Y9183609D01*
X2100969Y9163513D01*
X2091276Y9140112D01*
X2087969Y9114998D01*
X2091276Y9089885D01*
X2100969Y9066483D01*
X2116389Y9046388D01*
X2136484Y9030968D01*
X2159886Y9021275D01*
Y9008722D01*
X2136484Y8999029D01*
X2116389Y8983609D01*
X2100969Y8963514D01*
X2091276Y8940112D01*
X2078724D01*
X2069030Y8963514D01*
X2053610Y8983609D01*
X2033515Y8999029D01*
X2010113Y9008722D01*
X1985000Y9012029D01*
X1959887Y9008722D01*
X1936485Y8999029D01*
X1916389Y8983609D01*
X1906234Y8970375D01*
X1893534Y8974686D01*
Y9544868D01*
X2987634Y10638963D01*
X4416619D01*
Y9001723D01*
X4416142Y9001357D01*
X4405723Y8987779D01*
X4399174Y8971967D01*
X4396940Y8954999D01*
X4399174Y8938030D01*
X4405723Y8922218D01*
X4416142Y8908640D01*
X4429720Y8898221D01*
X4445532Y8891672D01*
X4462501Y8889438D01*
X4479469Y8891672D01*
X4495281Y8898221D01*
X4508859Y8908640D01*
X4519278Y8922218D01*
X4525827Y8938030D01*
X4528061Y8954999D01*
X4525827Y8971967D01*
X4519278Y8987779D01*
X4508859Y9001357D01*
X4508382Y9001723D01*
Y10638963D01*
X5112365D01*
X5276914Y10474414D01*
X5301981Y10455179D01*
X5331172Y10443088D01*
X5362499Y10438964D01*
X5393825Y10443088D01*
X5408220Y10449050D01*
X6030423D01*
X6034734Y10436350D01*
X6021390Y10426111D01*
X6005970Y10406015D01*
X5996277Y10382613D01*
X5993398Y10360747D01*
X5955757Y10323106D01*
X5722498D01*
X5704225Y10320700D01*
X5687196Y10313646D01*
X5672672Y10302502D01*
X5662500D01*
Y10289298D01*
X5661353Y10287804D01*
X5654300Y10270775D01*
X5651894Y10252502D01*
X5654300Y10234228D01*
X5661353Y10217200D01*
X5662500Y10215706D01*
Y10202502D01*
X5672672D01*
X5687196Y10191357D01*
X5704225Y10184304D01*
X5722498Y10181898D01*
X5985002D01*
X6003276Y10184304D01*
X6020304Y10191357D01*
X6034926Y10202577D01*
X6093247Y10260898D01*
X6115114Y10263777D01*
X6138516Y10273470D01*
X6158611Y10288890D01*
X6174031Y10308985D01*
X6183724Y10332387D01*
X6187031Y10357500D01*
X6183724Y10382613D01*
X6174031Y10406015D01*
X6158611Y10426111D01*
X6138516Y10441531D01*
X6131569Y10444408D01*
Y10458155D01*
X6145475Y10463915D01*
X6168453Y10481546D01*
X6186085Y10504525D01*
X6197169Y10531283D01*
X6200949Y10559999D01*
X6197169Y10588715D01*
X6186085Y10615474D01*
X6168453Y10638452D01*
X6160604Y10644475D01*
Y10693254D01*
X6204245Y10736898D01*
X7223253D01*
X7541898Y10418257D01*
Y9047500D01*
X7544304Y9029227D01*
X7551357Y9012198D01*
X7562577Y8997576D01*
X7577200Y8986356D01*
X7594228Y8979302D01*
X7612502Y8976896D01*
X7630775Y8979302D01*
X7647804Y8986356D01*
X7662426Y8997576D01*
X7673647Y9012198D01*
X7680700Y9029227D01*
X7683106Y9047500D01*
Y10447503D01*
X7680700Y10465776D01*
X7673647Y10482805D01*
X7662426Y10497427D01*
X7302422Y10857427D01*
X7287799Y10868647D01*
X7270771Y10875700D01*
X7252498Y10878106D01*
X6174999D01*
X6174998Y10878105D01*
X6174997Y10878106D01*
X6156726Y10875700D01*
X6156725Y10875700D01*
X6156724Y10875699D01*
X6147458Y10871861D01*
X6139697Y10868647D01*
X6139696Y10868646D01*
X6139695Y10868646D01*
X6132450Y10863085D01*
X6125075Y10857426D01*
X6125074Y10857426D01*
X6125073Y10857425D01*
X6040075Y10772421D01*
X6034414Y10765044D01*
X6028856Y10757800D01*
X6028855Y10757799D01*
X6028855Y10757798D01*
X6025640Y10750036D01*
X6021803Y10740772D01*
X6021802Y10740770D01*
X6021802Y10740770D01*
X6019397Y10722498D01*
Y10670948D01*
X5422720D01*
X5248084Y10845584D01*
X5223017Y10864819D01*
X5193826Y10876910D01*
X5162499Y10881034D01*
X2937500D01*
X2906174Y10876910D01*
X2876982Y10864819D01*
X2851915Y10845584D01*
X2474658Y10468328D01*
X2470240Y10468369D01*
X2461312Y10472872D01*
X2460649Y10480718D01*
X2460132Y10487289D01*
X2447888Y10538289D01*
X2427816Y10586746D01*
X2400411Y10631467D01*
X2366348Y10671350D01*
X2326465Y10705414D01*
X2281744Y10732819D01*
X2233287Y10752890D01*
X2182286Y10765134D01*
X2129998Y10769249D01*
X2077710Y10765134D01*
X2026710Y10752890D01*
X1978253Y10732819D01*
X1933532Y10705414D01*
X1893649Y10671350D01*
X1859585Y10631467D01*
X1832180Y10586746D01*
X1812109Y10538289D01*
X1799865Y10487289D01*
X1795750Y10435001D01*
X1799865Y10382713D01*
X1812109Y10331712D01*
X1832180Y10283255D01*
X1859585Y10238534D01*
X1893649Y10198651D01*
X1933532Y10164588D01*
X1978253Y10137183D01*
X2026710Y10117111D01*
X2077710Y10104867D01*
X2092101Y10103734D01*
X2096942Y10090614D01*
X1686914Y9680588D01*
X1670200Y9658807D01*
X1657500Y9662868D01*
Y10910000D01*
X10907500D01*
Y1660000D01*
D02*
G37*
G36*
X1991813Y8704665D02*
Y8137500D01*
X1994530Y8123843D01*
X2002265Y8112266D01*
X4096813Y6017718D01*
Y5807502D01*
X4099530Y5793845D01*
X4107265Y5782268D01*
X5782268Y4107265D01*
X5793845Y4099530D01*
X5796208Y4099060D01*
X5804999Y4090000D01*
Y4002063D01*
X5793265Y3997203D01*
X5075236Y4715232D01*
X5063659Y4722967D01*
X5050003Y4725684D01*
X3789781D01*
X3716304Y4799163D01*
X3718060Y4812502D01*
X3715826Y4829471D01*
X3709277Y4845283D01*
X3698858Y4858861D01*
X3685280Y4869280D01*
X3669468Y4875829D01*
X3652500Y4878063D01*
X3635531Y4875829D01*
X3619719Y4869280D01*
X3606141Y4858861D01*
X3595723Y4845283D01*
X3589173Y4829471D01*
X3586939Y4812502D01*
X3589173Y4795534D01*
X3595723Y4779722D01*
X3606141Y4766144D01*
X3619719Y4755725D01*
X3635531Y4749176D01*
X3652500Y4746942D01*
X3665836Y4748697D01*
X3744224Y4670306D01*
X3738016Y4659822D01*
X3708825Y4671914D01*
X3677498Y4676038D01*
X2617633D01*
X2608534Y4685137D01*
Y5770001D01*
Y7117502D01*
X2604410Y7148828D01*
X2592318Y7178019D01*
X2573083Y7203087D01*
X1893534Y7882636D01*
Y8687812D01*
X1906234Y8695523D01*
X1915530Y8691672D01*
X1932498Y8689438D01*
X1949467Y8691672D01*
X1965278Y8698222D01*
X1978856Y8708641D01*
X1979113Y8708975D01*
X1991813Y8704665D01*
D02*
G37*
G36*
X7944314Y7795221D02*
Y7780247D01*
X7932580Y7775387D01*
X7063280Y8644687D01*
X7066244Y8653296D01*
X7068800Y8657095D01*
X7081059Y8658475D01*
X7944314Y7795221D01*
D02*
G37*
G36*
X9705000Y7081549D02*
X10359042D01*
X10646550Y6794045D01*
Y5550820D01*
X10499197D01*
X10490002Y5552031D01*
X10464889Y5548724D01*
X10441487Y5539031D01*
X10421391Y5523611D01*
X10405971Y5503516D01*
X10396278Y5480114D01*
X10383726D01*
X10374033Y5503516D01*
X10358613Y5523611D01*
X10338517Y5539031D01*
X10315116Y5548724D01*
X10290002Y5552031D01*
X10264889Y5548724D01*
X10241487Y5539031D01*
X10221392Y5523611D01*
X10205972Y5503516D01*
X10196279Y5480114D01*
X10192972Y5455001D01*
X10196279Y5429887D01*
X10205972Y5406486D01*
X10221392Y5386390D01*
X10241487Y5370970D01*
X10264889Y5361277D01*
X10290002Y5357970D01*
X10315116Y5361277D01*
X10338517Y5370970D01*
X10358613Y5386390D01*
X10374033Y5406486D01*
X10383726Y5429887D01*
X10396278D01*
X10405971Y5406486D01*
X10421391Y5386390D01*
X10441487Y5370970D01*
X10464889Y5361277D01*
X10490002Y5357970D01*
X10499197Y5359181D01*
X10646550D01*
Y4225883D01*
X10285002D01*
Y4245002D01*
X10175003D01*
Y4115002D01*
X10285002D01*
Y4134120D01*
X10646550D01*
Y3969929D01*
X10637385Y3968722D01*
X10613983Y3959029D01*
X10593888Y3943609D01*
X10578468Y3923514D01*
X10568775Y3900112D01*
X10556222D01*
X10546529Y3923514D01*
X10531109Y3943609D01*
X10523754Y3949253D01*
X10462758Y4010254D01*
X10462756Y4010255D01*
X10462755Y4010256D01*
X10454050Y4016936D01*
X10442914Y4025482D01*
X10442912Y4025483D01*
X10442911Y4025484D01*
X10431981Y4030011D01*
X10419804Y4035055D01*
X10419803Y4035055D01*
X10419801Y4035056D01*
X10401974Y4037403D01*
X10395004Y4038321D01*
X10395004D01*
X10395001Y4038321D01*
X10095001D01*
X10070202Y4035056D01*
X10047092Y4025484D01*
X10027247Y4010256D01*
X10004488Y3987498D01*
X9974998D01*
Y3939930D01*
X9974944Y3939798D01*
X9971679Y3914999D01*
Y3545002D01*
X9974944Y3520202D01*
X9974998Y3520070D01*
Y3495002D01*
X9986120D01*
X9999744Y3477247D01*
X10019589Y3462020D01*
X10042698Y3452447D01*
X10067498Y3449182D01*
X10092298Y3452447D01*
X10115408Y3462020D01*
X10135253Y3477247D01*
X10148877Y3495002D01*
X10159998D01*
Y3520070D01*
X10160053Y3520202D01*
X10163318Y3545002D01*
Y3846682D01*
X10355309D01*
X10366679Y3835311D01*
Y3684194D01*
X10365469Y3674999D01*
X10368775Y3649886D01*
X10378468Y3626484D01*
X10393888Y3606389D01*
X10413984Y3590968D01*
X10437386Y3581275D01*
X10462499Y3577969D01*
X10487612Y3581275D01*
X10511014Y3590968D01*
X10531109Y3606389D01*
X10546529Y3626484D01*
X10556222Y3649886D01*
X10568775D01*
X10578468Y3626484D01*
X10593888Y3606389D01*
X10613983Y3590968D01*
X10637385Y3581275D01*
X10646550Y3580069D01*
Y3242761D01*
X10634886Y3241226D01*
X10611484Y3231533D01*
X10591389Y3216112D01*
X10575968Y3196017D01*
X10566275Y3172615D01*
X10553723D01*
X10544030Y3196017D01*
X10528610Y3216112D01*
X10521243Y3221765D01*
X10512741Y3230264D01*
X10502238Y3238321D01*
X10492908Y3245480D01*
X10492901Y3245483D01*
X10492894Y3245488D01*
X10481369Y3250260D01*
X10469798Y3255053D01*
X10469790Y3255054D01*
X10469782Y3255057D01*
X10458420Y3256551D01*
X10444998Y3258318D01*
X10142499D01*
X10117700Y3255053D01*
X10094590Y3245480D01*
X10074745Y3230253D01*
X10061121Y3212498D01*
X10049999D01*
Y3187430D01*
X10049945Y3187298D01*
X10046680Y3162498D01*
Y3040381D01*
X10034946Y3035521D01*
X9999999Y3070471D01*
Y3117502D01*
X9814999D01*
Y3017502D01*
X9952033D01*
X9986814Y2982719D01*
Y2812282D01*
X9907031Y2732499D01*
X9817969D01*
X9717731Y2832736D01*
X9712502Y2836231D01*
Y2872503D01*
X9602502D01*
Y2742503D01*
X9707030D01*
X9792268Y2657265D01*
X9803845Y2649530D01*
X9814999Y2647311D01*
Y2632499D01*
X9999999D01*
Y2724532D01*
X10037259Y2761792D01*
X10049285Y2757710D01*
X10049945Y2752700D01*
X10049999Y2752569D01*
Y2727500D01*
X10061121D01*
X10074745Y2709746D01*
X10094590Y2694518D01*
X10117700Y2684946D01*
X10142499Y2681681D01*
X10167299Y2684946D01*
X10167779Y2685144D01*
X10174973Y2674378D01*
X9901548Y2400953D01*
X9883916Y2377974D01*
X9878783Y2365584D01*
X9876852Y2365258D01*
X9862803Y2375606D01*
X9861223Y2387613D01*
X9851529Y2411015D01*
X9836109Y2431110D01*
X9816014Y2446530D01*
X9792612Y2456223D01*
X9767499Y2459530D01*
X9742386Y2456223D01*
X9718984Y2446530D01*
X9698888Y2431110D01*
X9683468Y2411015D01*
X9673775Y2387613D01*
X9661223D01*
X9651530Y2411015D01*
X9636110Y2431110D01*
X9616014Y2446530D01*
X9592613Y2456223D01*
X9567499Y2459530D01*
X9542386Y2456223D01*
X9518984Y2446530D01*
X9498889Y2431110D01*
X9483469Y2411015D01*
X9473776Y2387613D01*
X9470469Y2362500D01*
X9473776Y2337386D01*
X9483469Y2313985D01*
X9498889Y2293889D01*
X9518984Y2278469D01*
X9542386Y2268776D01*
Y2256224D01*
X9518984Y2246531D01*
X9498889Y2231111D01*
X9483469Y2211015D01*
X9473776Y2187613D01*
X9470469Y2162500D01*
X9473776Y2137387D01*
X9483469Y2113985D01*
X9498889Y2093890D01*
X9518984Y2078470D01*
X9542386Y2068776D01*
X9567499Y2065470D01*
X9592613Y2068776D01*
X9616014Y2078470D01*
X9636110Y2093890D01*
X9651530Y2113985D01*
X9661223Y2137387D01*
X9673775D01*
X9683468Y2113985D01*
X9698888Y2093890D01*
X9718984Y2078470D01*
X9742386Y2068776D01*
X9767499Y2065470D01*
X9792612Y2068776D01*
X9816014Y2078470D01*
X9836109Y2093890D01*
X9851529Y2113985D01*
X9856351Y2125626D01*
X9869051Y2123100D01*
Y1913456D01*
X9851545Y1895949D01*
X9038104D01*
Y2096488D01*
X9051531Y2113985D01*
X9061224Y2137387D01*
X9064531Y2162500D01*
X9061224Y2187613D01*
X9051531Y2211015D01*
X9036111Y2231111D01*
X9016015Y2246531D01*
X8992614Y2256224D01*
Y2268776D01*
X9016015Y2278469D01*
X9036111Y2293889D01*
X9051531Y2313985D01*
X9061224Y2337386D01*
X9064531Y2362500D01*
X9061224Y2387613D01*
X9051531Y2411015D01*
X9036111Y2431110D01*
X9016015Y2446530D01*
X8992614Y2456223D01*
X8967500Y2459530D01*
X8942387Y2456223D01*
X8918985Y2446530D01*
X8898890Y2431110D01*
X8883470Y2411015D01*
X8873777Y2387613D01*
X8870470Y2362500D01*
X8873777Y2337386D01*
X8883470Y2313985D01*
X8898890Y2293889D01*
X8918985Y2278469D01*
X8942387Y2268776D01*
Y2256224D01*
X8918985Y2246531D01*
X8898890Y2231111D01*
X8883470Y2211015D01*
X8873777Y2187613D01*
X8870470Y2162500D01*
X8873777Y2137387D01*
X8883470Y2113985D01*
X8896897Y2096488D01*
Y1896744D01*
X8896101Y1895949D01*
X8885001D01*
X8856286Y1892169D01*
X8841062Y1885863D01*
X7398186D01*
Y1924801D01*
X7410642Y1934359D01*
X7417329Y1943074D01*
X7418342Y1943561D01*
X7431656D01*
X7432669Y1943074D01*
X7439357Y1934359D01*
X7453457Y1923539D01*
X7469877Y1916738D01*
X7487498Y1914418D01*
X7505119Y1916738D01*
X7521539Y1923539D01*
X7535640Y1934359D01*
X7542330Y1943077D01*
X7543348Y1943566D01*
X7556652D01*
X7557671Y1943077D01*
X7564360Y1934359D01*
X7578461Y1923539D01*
X7594881Y1916738D01*
X7612502Y1914418D01*
X7630123Y1916738D01*
X7646543Y1923539D01*
X7660644Y1934359D01*
X7671463Y1948459D01*
X7678265Y1964879D01*
X7679836Y1976812D01*
X8432500D01*
X8446157Y1979529D01*
X8457734Y1987264D01*
X8845231Y2374767D01*
X8852967Y2386344D01*
X8855683Y2400000D01*
Y2780711D01*
X8852967Y2794367D01*
X8845231Y2805944D01*
X8633592Y3017584D01*
X8638452Y3029317D01*
X9290218D01*
X9402266Y2917265D01*
X9413842Y2909530D01*
X9427499Y2906813D01*
X9447501D01*
Y2865002D01*
X9452500D01*
Y2742503D01*
X9562499D01*
Y2872503D01*
X9557501D01*
Y2995002D01*
X9447501D01*
Y2990926D01*
X9434801Y2985665D01*
X9412886Y3007581D01*
X9417746Y3019315D01*
X9680454D01*
X9688644Y3008642D01*
X9702222Y2998223D01*
X9718034Y2991673D01*
X9735002Y2989440D01*
X9751971Y2991673D01*
X9767782Y2998223D01*
X9781360Y3008642D01*
X9791779Y3022220D01*
X9798329Y3038032D01*
X9800563Y3055000D01*
X9798329Y3071969D01*
X9791779Y3087780D01*
X9781360Y3101359D01*
X9767782Y3111777D01*
X9751971Y3118327D01*
X9735002Y3120561D01*
X9718034Y3118327D01*
X9702222Y3111777D01*
X9688644Y3101359D01*
X9680454Y3090686D01*
X9400493D01*
X9350945Y3140234D01*
X9339368Y3147969D01*
X9325712Y3150686D01*
X9197745D01*
X9192885Y3162419D01*
X9437300Y3406835D01*
X9450000Y3401574D01*
Y3387500D01*
X9560000D01*
Y3517500D01*
X9570000Y3519999D01*
Y3629999D01*
X9440000D01*
Y3519999D01*
X9450000Y3517500D01*
Y3483187D01*
X9427500D01*
X9413843Y3480471D01*
X9402266Y3472735D01*
X9130219Y3200688D01*
X8819346D01*
X8818513Y3213388D01*
X8824469Y3214172D01*
X8840281Y3220722D01*
X8853859Y3231141D01*
X8864278Y3244719D01*
X8870828Y3260531D01*
X8873062Y3277499D01*
X8871204Y3291609D01*
X8876620Y3298981D01*
X8881220Y3302566D01*
X8885001Y3301813D01*
X8935452D01*
X8943641Y3291141D01*
X8957220Y3280722D01*
X8973031Y3274172D01*
X8990000Y3271938D01*
X9006968Y3274172D01*
X9022780Y3280722D01*
X9036358Y3291141D01*
X9046777Y3304719D01*
X9053327Y3320531D01*
X9055561Y3337499D01*
X9053327Y3354468D01*
X9046777Y3370279D01*
X9036358Y3383857D01*
X9022780Y3394276D01*
X9006968Y3400826D01*
X8990000Y3403060D01*
X8973031Y3400826D01*
X8957220Y3394276D01*
X8943641Y3383857D01*
X8935452Y3373185D01*
X8899783D01*
X8862732Y3410236D01*
X8851155Y3417971D01*
X8837498Y3420688D01*
X8807748D01*
X8802888Y3432421D01*
X8887969Y3517502D01*
X8925001D01*
Y3647502D01*
X8925001Y3647502D01*
X8925002D01*
X8932273Y3656807D01*
X9534783Y4259312D01*
X9852951D01*
X9861140Y4248639D01*
X9874718Y4238221D01*
X9890530Y4231671D01*
X9907499Y4229437D01*
X9924467Y4231671D01*
X9940279Y4238221D01*
X9953857Y4248639D01*
X9964276Y4262218D01*
X9970825Y4278029D01*
X9973059Y4294998D01*
X9970825Y4311966D01*
X9964276Y4327778D01*
X9953857Y4341356D01*
X9940279Y4351775D01*
X9924467Y4358325D01*
X9918958Y4359050D01*
X9915698Y4366780D01*
X9914824Y4372404D01*
X9924276Y4384722D01*
X9930825Y4400533D01*
X9933059Y4417502D01*
X9930825Y4434470D01*
X9924276Y4450282D01*
X9913857Y4463860D01*
X9900279Y4474279D01*
X9884467Y4480829D01*
X9867499Y4483063D01*
X9850530Y4480829D01*
X9834718Y4474279D01*
X9821140Y4463860D01*
X9812951Y4453188D01*
X9527499D01*
X9513843Y4450471D01*
X9502266Y4442736D01*
X8719534Y3659999D01*
X8645002D01*
Y3532970D01*
X8632720Y3520688D01*
X8305000D01*
X8291343Y3517971D01*
X8279766Y3510236D01*
X8272030Y3498658D01*
X8269314Y3485002D01*
X8272030Y3471346D01*
X8279611Y3460001D01*
X8272030Y3448656D01*
X8269314Y3434999D01*
X8272030Y3421343D01*
X8279609Y3410001D01*
X8272030Y3398658D01*
X8269314Y3385002D01*
X8272030Y3371346D01*
X8279611Y3360001D01*
X8272030Y3348656D01*
X8269314Y3335000D01*
X8272030Y3321343D01*
X8279609Y3310001D01*
X8272030Y3298659D01*
X8269314Y3285002D01*
X8272030Y3271346D01*
X8279611Y3260001D01*
X8272030Y3248656D01*
X8269314Y3235000D01*
X8272030Y3221344D01*
X8279609Y3210001D01*
X8272030Y3198659D01*
X8269314Y3185003D01*
X8272030Y3171346D01*
X8279611Y3160001D01*
X8272030Y3148656D01*
X8269314Y3135000D01*
X8272030Y3121344D01*
X8279611Y3109999D01*
X8272030Y3098654D01*
X8269314Y3084998D01*
X8272030Y3071341D01*
X8279609Y3059999D01*
X8272030Y3048657D01*
X8269314Y3035000D01*
X8272030Y3021344D01*
X8279611Y3009999D01*
X8272030Y2998654D01*
X8269314Y2984998D01*
X8272030Y2971342D01*
X8279609Y2959999D01*
X8272030Y2948657D01*
X8269314Y2935000D01*
X8272030Y2921344D01*
X8279611Y2909999D01*
X8272030Y2898654D01*
X8269314Y2884998D01*
X8272030Y2871342D01*
X8279609Y2859999D01*
X8272030Y2848657D01*
X8269314Y2835001D01*
X8272030Y2821344D01*
X8279766Y2809767D01*
X8291343Y2802031D01*
X8305000Y2799315D01*
X8512720D01*
X8586472Y2725563D01*
X8585641Y2712890D01*
X8583642Y2711357D01*
X8573223Y2697779D01*
X8566674Y2681967D01*
X8564440Y2664998D01*
X8566674Y2648030D01*
X8573223Y2632218D01*
X8583642Y2618640D01*
X8597220Y2608221D01*
X8613032Y2601672D01*
X8630001Y2599438D01*
X8645553Y2601485D01*
X8648233Y2598784D01*
X8652064Y2590035D01*
X8332720Y2270688D01*
X8229548D01*
X8221358Y2281360D01*
X8207780Y2291779D01*
X8191969Y2298329D01*
X8175000Y2300563D01*
X8158032Y2298329D01*
X8147319Y2293891D01*
X8140125Y2304658D01*
X8235235Y2399765D01*
X8242971Y2411343D01*
X8245687Y2424998D01*
Y2550003D01*
Y2640003D01*
X8242971Y2653659D01*
X8235235Y2665236D01*
X8223658Y2672972D01*
X8210001Y2675688D01*
X8196345Y2672972D01*
X8185000Y2665391D01*
X8173655Y2672972D01*
X8159999Y2675688D01*
X8146343Y2672972D01*
X8135000Y2665393D01*
X8123658Y2672972D01*
X8110002Y2675688D01*
X8096345Y2672972D01*
X8085000Y2665391D01*
X8073655Y2672972D01*
X8059999Y2675688D01*
X8046343Y2672972D01*
X8035000Y2665393D01*
X8023658Y2672972D01*
X8010002Y2675688D01*
X7996345Y2672972D01*
X7985001Y2665391D01*
X7973656Y2672972D01*
X7959999Y2675688D01*
X7946343Y2672972D01*
X7935001Y2665393D01*
X7923658Y2672972D01*
X7910002Y2675688D01*
X7896346Y2672972D01*
X7885001Y2665391D01*
X7873656Y2672972D01*
X7860000Y2675688D01*
X7846343Y2672972D01*
X7835001Y2665393D01*
X7823658Y2672972D01*
X7810002Y2675688D01*
X7796346Y2672972D01*
X7785001Y2665391D01*
X7773656Y2672972D01*
X7760000Y2675688D01*
X7746343Y2672972D01*
X7735001Y2665393D01*
X7723659Y2672972D01*
X7710002Y2675688D01*
X7696346Y2672972D01*
X7684769Y2665236D01*
X7677033Y2653659D01*
X7674317Y2640003D01*
Y2460002D01*
X7677033Y2446346D01*
X7684769Y2434769D01*
X7696346Y2427033D01*
X7710002Y2424317D01*
X7723659Y2427033D01*
X7735001Y2434612D01*
X7746343Y2427033D01*
X7760000Y2424317D01*
X7773656Y2427033D01*
X7785001Y2434614D01*
X7796346Y2427033D01*
X7810002Y2424317D01*
X7823658Y2427033D01*
X7835001Y2434612D01*
X7846343Y2427033D01*
X7860000Y2424317D01*
X7873656Y2427033D01*
X7885001Y2434614D01*
X7896346Y2427033D01*
X7910002Y2424317D01*
X7923658Y2427033D01*
X7935001Y2434612D01*
X7946343Y2427033D01*
X7959999Y2424317D01*
X7973656Y2427033D01*
X7985001Y2434614D01*
X7996345Y2427033D01*
X8001216Y2426064D01*
X8005396Y2412284D01*
X7941297Y2348188D01*
X7063415D01*
X7052502Y2352501D01*
Y2404537D01*
X7132965Y2484998D01*
X7162034D01*
X7212269Y2434766D01*
X7216588Y2431880D01*
X7223845Y2427031D01*
X7237501Y2424314D01*
X7427498D01*
X7441155Y2427031D01*
X7443751Y2428766D01*
X7446344Y2427033D01*
X7460000Y2424317D01*
X7473657Y2427033D01*
X7485234Y2434769D01*
X7492970Y2446346D01*
X7495686Y2460002D01*
Y2640003D01*
Y2682719D01*
X7517088Y2704121D01*
X8178960D01*
X8192443Y2695111D01*
X8210001Y2691619D01*
X8227559Y2695111D01*
X8233851Y2699315D01*
X8485000D01*
X8498656Y2702032D01*
X8510233Y2709767D01*
X8517969Y2721345D01*
X8520686Y2735001D01*
X8517969Y2748657D01*
X8510233Y2760235D01*
X8498656Y2767970D01*
X8485000Y2770687D01*
X8255883D01*
Y3472500D01*
X8252390Y3490058D01*
X8245687Y3500090D01*
Y3670000D01*
Y3797502D01*
X8319999D01*
Y3927502D01*
X8199999D01*
Y3867967D01*
X8184766Y3852733D01*
X8179956Y3845534D01*
X8177032Y3841157D01*
Y3841156D01*
X8177031Y3841155D01*
X8175396Y3832932D01*
X8174316Y3827501D01*
Y3760000D01*
Y3670000D01*
Y3580000D01*
Y3518382D01*
X7595686D01*
Y3534213D01*
X7608386Y3544636D01*
X7610003Y3544314D01*
X7623659Y3547031D01*
X7635001Y3554610D01*
X7646344Y3547031D01*
X7660000Y3544314D01*
X7673656Y3547031D01*
X7685001Y3554611D01*
X7696346Y3547031D01*
X7710002Y3544314D01*
X7723659Y3547031D01*
X7735001Y3554610D01*
X7746343Y3547031D01*
X7760000Y3544314D01*
X7773656Y3547031D01*
X7785001Y3554611D01*
X7796346Y3547031D01*
X7810002Y3544314D01*
X7823658Y3547031D01*
X7835001Y3554610D01*
X7846343Y3547031D01*
X7860000Y3544314D01*
X7873656Y3547031D01*
X7885001Y3554611D01*
X7896346Y3547031D01*
X7910002Y3544314D01*
X7923658Y3547031D01*
X7935001Y3554610D01*
X7946343Y3547031D01*
X7959999Y3544314D01*
X7973656Y3547031D01*
X7985001Y3554611D01*
X7996345Y3547031D01*
X8010002Y3544314D01*
X8023658Y3547031D01*
X8035000Y3554610D01*
X8046343Y3547031D01*
X8059999Y3544314D01*
X8073655Y3547031D01*
X8085000Y3554611D01*
X8096345Y3547031D01*
X8110002Y3544314D01*
X8123658Y3547031D01*
X8135235Y3554767D01*
X8142971Y3566344D01*
X8145687Y3580000D01*
Y3760000D01*
Y3990219D01*
X8161663Y4006195D01*
X8175000Y4004439D01*
X8191969Y4006673D01*
X8207780Y4013222D01*
X8221358Y4023641D01*
X8231777Y4037219D01*
X8238327Y4053031D01*
X8240561Y4069999D01*
X8238327Y4086968D01*
X8231777Y4102780D01*
X8221358Y4116358D01*
X8207780Y4126777D01*
X8191969Y4133326D01*
X8175000Y4135560D01*
X8158032Y4133326D01*
X8142220Y4126777D01*
X8128642Y4116358D01*
X8118223Y4102780D01*
X8111673Y4086968D01*
X8109439Y4069999D01*
X8111195Y4056662D01*
X8102320Y4047787D01*
X8090587Y4052647D01*
Y4237034D01*
X8100135Y4245408D01*
X8107502Y4244438D01*
X8124471Y4246672D01*
X8140282Y4253222D01*
X8153861Y4263641D01*
X8164279Y4277219D01*
X8170829Y4293031D01*
X8173063Y4309999D01*
X8170829Y4326967D01*
X8164279Y4342779D01*
X8153861Y4356357D01*
X8140282Y4366776D01*
X8124471Y4373326D01*
X8107502Y4375560D01*
X8090534Y4373326D01*
X8074722Y4366776D01*
X8061144Y4356357D01*
X8058387Y4352765D01*
X8045687Y4357076D01*
Y4627719D01*
X8064162Y4646193D01*
X8077500Y4644437D01*
X8094468Y4646671D01*
X8110280Y4653221D01*
X8123858Y4663640D01*
X8134277Y4677218D01*
X8140826Y4693030D01*
X8143060Y4709998D01*
X8140826Y4726967D01*
X8134277Y4742778D01*
X8123858Y4756357D01*
X8110280Y4766775D01*
X8094468Y4773325D01*
X8077500Y4775559D01*
X8060531Y4773325D01*
X8044719Y4766775D01*
X8031141Y4756357D01*
X8020723Y4742778D01*
X8014173Y4726967D01*
X8011939Y4709998D01*
X8013082Y4701314D01*
X8008385Y4697297D01*
X7995685Y4703148D01*
Y4785219D01*
X8397734Y5187268D01*
X8405470Y5198845D01*
X8408186Y5212502D01*
Y6245221D01*
X9119161Y6956196D01*
X9132499Y6954440D01*
X9149467Y6956674D01*
X9165279Y6963224D01*
X9178857Y6973643D01*
X9189276Y6987221D01*
X9195826Y7003033D01*
X9198060Y7020001D01*
X9195826Y7036970D01*
X9189276Y7052781D01*
X9178857Y7066360D01*
X9175607Y7068854D01*
X9179918Y7081554D01*
X9704961D01*
X9705000Y7081549D01*
D02*
G37*
G36*
X2076142Y8316140D02*
X2086814Y8307950D01*
Y8212501D01*
X2089531Y8198844D01*
X2097267Y8187267D01*
X4171814Y6112720D01*
Y6059518D01*
X4159114Y6055666D01*
X4157732Y6057734D01*
X2063185Y8152281D01*
Y8312163D01*
X2075885Y8316474D01*
X2076142Y8316140D01*
D02*
G37*
G36*
X6156569Y7915002D02*
X6147502D01*
Y7785002D01*
X6156569D01*
Y5999978D01*
X6149999Y5989999D01*
X6125686D01*
Y7952498D01*
X6156569D01*
Y7915002D01*
D02*
G37*
G36*
X6039069Y5126858D02*
X6027517Y5121208D01*
X6026834Y5121132D01*
X5993185Y5154781D01*
Y5685125D01*
X6000000Y5695002D01*
X6039069D01*
Y5126858D01*
D02*
G37*
G36*
X7098641Y4761140D02*
X7102233Y4758384D01*
X7097922Y4745684D01*
X6402282D01*
X6391371Y4756595D01*
X6391447Y4757278D01*
X6397096Y4768830D01*
X7092741D01*
X7098641Y4761140D01*
D02*
G37*
G36*
X5909997Y5722498D02*
X5921813Y5720364D01*
Y5140000D01*
X5924530Y5126344D01*
X5932265Y5114766D01*
X6350948Y4696083D01*
X6345688Y4683383D01*
X6276724D01*
X6276359Y4683860D01*
X6262780Y4694279D01*
X6246969Y4700828D01*
X6230000Y4703062D01*
X6213032Y4700828D01*
X6197220Y4694279D01*
X6183642Y4683860D01*
X6173223Y4670282D01*
X6166673Y4654470D01*
X6164440Y4637502D01*
X6166673Y4620533D01*
X6173223Y4604721D01*
X6183642Y4591143D01*
X6197220Y4580724D01*
X6213032Y4574175D01*
X6230000Y4571941D01*
X6246969Y4574175D01*
X6262780Y4580724D01*
X6276359Y4591143D01*
X6276724Y4591620D01*
X7090994D01*
X7349120Y4333493D01*
Y4219223D01*
X7348643Y4218857D01*
X7338225Y4205279D01*
X7331675Y4189467D01*
X7329441Y4172499D01*
X7331675Y4155530D01*
X7338225Y4139718D01*
X7348643Y4126140D01*
X7362221Y4115722D01*
X7378033Y4109172D01*
X7395002Y4106938D01*
X7411970Y4109172D01*
X7427782Y4115722D01*
X7441360Y4126140D01*
X7450835Y4138489D01*
X7454735Y4139786D01*
X7465657Y4140035D01*
X7468643Y4136143D01*
X7482221Y4125724D01*
X7498033Y4119174D01*
X7515001Y4116940D01*
X7527586Y4118597D01*
X7536816Y4110042D01*
Y3916477D01*
X7539533Y3902820D01*
X7547268Y3891243D01*
X7574317Y3864195D01*
Y3805787D01*
X7561617Y3795365D01*
X7560000Y3795686D01*
X7546344Y3792970D01*
X7534766Y3785234D01*
X7527031Y3773657D01*
X7524314Y3760000D01*
Y3670000D01*
Y3580000D01*
Y3518382D01*
X7491507D01*
X7474628Y3535261D01*
X7477950Y3549899D01*
X7485234Y3554767D01*
X7492970Y3566344D01*
X7495686Y3580000D01*
Y3760000D01*
Y3790000D01*
X7492970Y3803656D01*
X7485234Y3815234D01*
X6772733Y4527734D01*
X6761156Y4535470D01*
X6747500Y4538186D01*
X6122282D01*
X5895684Y4764780D01*
Y5722498D01*
X5909997D01*
Y5722498D01*
D02*
G37*
G36*
X6991569Y5584883D02*
X6972096Y5565406D01*
X6972095Y5565406D01*
X6972093Y5565403D01*
X6969002Y5560776D01*
X6964307Y5553749D01*
X6964306Y5553748D01*
X6964305Y5553746D01*
X6962877Y5546560D01*
X6961572Y5539999D01*
Y5234360D01*
X6951144Y5226358D01*
X6940725Y5212780D01*
X6934175Y5196968D01*
X6931941Y5180000D01*
X6934175Y5163031D01*
X6940725Y5147220D01*
X6951144Y5133641D01*
X6964722Y5123223D01*
X6980533Y5116673D01*
X6997502Y5114439D01*
X7014470Y5116673D01*
X7030282Y5123223D01*
X7039113Y5129999D01*
X7051813Y5123950D01*
Y5055001D01*
X7054530Y5041345D01*
X7062266Y5029768D01*
X7591812Y4500221D01*
Y4194346D01*
X7579112Y4193514D01*
X7578328Y4199470D01*
X7571779Y4215281D01*
X7561360Y4228859D01*
X7547782Y4239278D01*
X7531970Y4245828D01*
X7515001Y4248062D01*
X7498033Y4245828D01*
X7482221Y4239278D01*
X7468643Y4228859D01*
X7462324Y4220625D01*
X7447769Y4219303D01*
X7440883Y4226261D01*
Y4352498D01*
X7437391Y4370056D01*
X7427445Y4384941D01*
X7157891Y4654495D01*
X7162453Y4667894D01*
X7167387Y4668534D01*
X7171143Y4663640D01*
X7184721Y4653221D01*
X7200533Y4646671D01*
X7217501Y4644437D01*
X7234470Y4646671D01*
X7250282Y4653221D01*
X7263860Y4663640D01*
X7274279Y4677218D01*
X7280828Y4693030D01*
X7283062Y4709998D01*
X7280828Y4726967D01*
X7274279Y4742778D01*
X7263860Y4756357D01*
X7250282Y4766775D01*
X7234470Y4773325D01*
X7217501Y4775559D01*
X7215778Y4775332D01*
X7206850Y4786966D01*
X7208326Y4790530D01*
X7210560Y4807499D01*
X7208326Y4824467D01*
X7201777Y4840279D01*
X7191358Y4853857D01*
X7177780Y4864276D01*
X7161968Y4870825D01*
X7145000Y4873059D01*
X7128031Y4870825D01*
X7112219Y4864276D01*
X7098641Y4853857D01*
X7088539Y4840691D01*
X6569789D01*
X6568129Y4844057D01*
X6564763Y4853391D01*
X6570827Y4868031D01*
X6573061Y4884999D01*
X6570827Y4901968D01*
X6564277Y4917779D01*
X6553859Y4931357D01*
X6553382Y4931723D01*
Y5190997D01*
X6852101Y5489716D01*
X6866967Y5491674D01*
X6882779Y5498223D01*
X6896357Y5508642D01*
X6906776Y5522220D01*
X6913326Y5538032D01*
X6915283Y5552899D01*
X6957443Y5595059D01*
X6967389Y5609944D01*
X6970882Y5627502D01*
Y5685000D01*
X6991569D01*
Y5584883D01*
D02*
G37*
G36*
X9821140Y4371144D02*
X9834718Y4360725D01*
X9850530Y4354175D01*
X9856039Y4353450D01*
X9859300Y4345720D01*
X9860124Y4340412D01*
X9852167Y4330683D01*
X9520001D01*
X9506345Y4327967D01*
X9498392Y4337928D01*
X9542281Y4381816D01*
X9812951D01*
X9821140Y4371144D01*
D02*
G37*
G36*
X5257119Y4282417D02*
X5252259Y4270684D01*
X3183193D01*
X3180401Y4282712D01*
X3180490Y4283384D01*
X3193860Y4293643D01*
X3202050Y4304316D01*
X5235221D01*
X5257119Y4282417D01*
D02*
G37*
G36*
X5286479Y4182344D02*
X5280223Y4170639D01*
X5280000Y4170684D01*
X2993822D01*
X2989511Y4183384D01*
X2996360Y4188640D01*
X3004549Y4199312D01*
X5269511D01*
X5286479Y4182344D01*
D02*
G37*
G36*
X5286611Y4077919D02*
X5278516Y4068054D01*
X5271157Y4072971D01*
X5257500Y4075688D01*
X2749998D01*
Y4099312D01*
X5265218D01*
X5286611Y4077919D01*
D02*
G37*
G36*
X5955001Y4090000D02*
Y3960001D01*
X6065001D01*
Y3984316D01*
X6142951D01*
X6151140Y3973644D01*
X6164718Y3963225D01*
X6180530Y3956675D01*
X6197498Y3954441D01*
X6214467Y3956675D01*
X6230279Y3963225D01*
X6243857Y3973644D01*
X6254276Y3987222D01*
X6260825Y4003034D01*
X6261432Y4007641D01*
X6274841Y4012192D01*
X6483951Y3803082D01*
X6479771Y3789301D01*
X6476765Y3788703D01*
X6352734Y3912734D01*
X6341157Y3920470D01*
X6327501Y3923186D01*
X5867282D01*
X5842200Y3948268D01*
X5847061Y3960001D01*
X5914998D01*
Y4090000D01*
X5924877Y4096813D01*
X5945122D01*
X5955001Y4090000D01*
D02*
G37*
G36*
X6967499Y3574534D02*
Y3497503D01*
X6986815D01*
Y3494999D01*
X6989531Y3481343D01*
X6997267Y3469766D01*
X7057267Y3409766D01*
X7068844Y3402030D01*
X7082500Y3399314D01*
X7139214D01*
X7149637Y3386613D01*
X7149316Y3385002D01*
X7152033Y3371346D01*
X7159613Y3360001D01*
X7152033Y3348656D01*
X7149316Y3335000D01*
X7152033Y3321343D01*
X7159768Y3309766D01*
X7171346Y3302030D01*
X7185002Y3299314D01*
X7385710D01*
X7399367Y3302030D01*
X7410944Y3309766D01*
X7440235Y3339057D01*
X7441667Y3341201D01*
X7527085Y3426618D01*
X8164120D01*
Y2795884D01*
X7512502D01*
X7494944Y2792391D01*
X7480059Y2782445D01*
X7470113Y2767560D01*
X7467759Y2755727D01*
X7434767Y2722734D01*
X7427031Y2711157D01*
X7424315Y2697500D01*
Y2640003D01*
Y2507284D01*
X7412717Y2495686D01*
X7252282D01*
X7207499Y2540467D01*
Y2614997D01*
X7087499D01*
Y2540466D01*
X7029532Y2482501D01*
X6942502D01*
Y2352501D01*
X6931588Y2348188D01*
X6913413D01*
X6902500Y2352501D01*
Y2482501D01*
X6792500D01*
Y2352501D01*
X6781586Y2348188D01*
X6480002D01*
X6466346Y2345472D01*
X6454769Y2337736D01*
X6352264Y2235232D01*
X6344529Y2223654D01*
X6341812Y2209998D01*
Y2079781D01*
X6270219Y2008184D01*
X6169230D01*
X6164919Y2020884D01*
X6178611Y2031390D01*
X6194031Y2051486D01*
X6203724Y2074888D01*
X6207031Y2100001D01*
X6205820Y2109196D01*
Y2290806D01*
X6207031Y2300000D01*
X6205820Y2309195D01*
Y2735001D01*
X6205818Y2735013D01*
X6205820Y2735025D01*
X6204192Y2747367D01*
X6202555Y2759801D01*
X6202550Y2759812D01*
X6202549Y2759824D01*
X6197777Y2771336D01*
X6192983Y2782911D01*
X6192975Y2782921D01*
X6192970Y2782932D01*
X6185138Y2793134D01*
X6177755Y2802755D01*
X6177746Y2802762D01*
X6177738Y2802773D01*
X6173894Y2806615D01*
X6179152Y2819315D01*
X6319854D01*
X6320721Y2817222D01*
X6331140Y2803644D01*
X6344718Y2793225D01*
X6360530Y2786675D01*
X6377498Y2784441D01*
X6394467Y2786675D01*
X6410278Y2793225D01*
X6423856Y2803644D01*
X6436391Y2801367D01*
X6442500Y2795578D01*
Y2737502D01*
X6572500D01*
Y2831575D01*
X6585200Y2836835D01*
X6612269Y2809767D01*
X6623847Y2802031D01*
X6637503Y2799315D01*
X6812256D01*
X6817116Y2787582D01*
X6707720Y2678185D01*
X6572500D01*
Y2697499D01*
X6442500D01*
Y2587499D01*
X6572500D01*
Y2606813D01*
X6722501D01*
X6736157Y2609530D01*
X6747735Y2617266D01*
X6879782Y2749313D01*
X7139214D01*
X7149637Y2736612D01*
X7149316Y2735001D01*
X7152033Y2721345D01*
X7159768Y2709767D01*
X7171346Y2702032D01*
X7185002Y2699315D01*
X7365002D01*
X7378658Y2702032D01*
X7390236Y2709767D01*
X7397971Y2721345D01*
X7400688Y2735001D01*
X7397971Y2748657D01*
X7390393Y2760000D01*
X7397971Y2771342D01*
X7400688Y2784998D01*
X7397971Y2798655D01*
X7390391Y2809999D01*
X7397971Y2821344D01*
X7400688Y2835001D01*
X7397971Y2848657D01*
X7390393Y2859999D01*
X7397971Y2871342D01*
X7400688Y2884998D01*
X7397971Y2898654D01*
X7390391Y2909999D01*
X7397971Y2921344D01*
X7400688Y2935000D01*
X7397971Y2948657D01*
X7390393Y2959999D01*
X7397971Y2971342D01*
X7400688Y2984998D01*
X7397971Y2998654D01*
X7390391Y3009999D01*
X7397971Y3021344D01*
X7400688Y3035000D01*
X7397971Y3048657D01*
X7390393Y3059999D01*
X7397971Y3071341D01*
X7400688Y3084998D01*
X7397971Y3098654D01*
X7390391Y3109999D01*
X7397971Y3121344D01*
X7400688Y3135000D01*
X7397971Y3148656D01*
X7390391Y3160001D01*
X7397971Y3171346D01*
X7400688Y3185003D01*
X7397971Y3198659D01*
X7390393Y3210001D01*
X7397971Y3221344D01*
X7400688Y3235000D01*
X7397971Y3248656D01*
X7390236Y3260234D01*
X7378658Y3267969D01*
X7365002Y3270686D01*
X7065491D01*
X6616091Y3720086D01*
X6617199Y3732564D01*
X6628388Y3738081D01*
X6634720Y3733223D01*
X6650532Y3726673D01*
X6667500Y3724439D01*
X6684468Y3726673D01*
X6700280Y3733223D01*
X6713858Y3743642D01*
X6724277Y3757220D01*
X6730827Y3773032D01*
X6733061Y3790000D01*
X6732907Y3791166D01*
X6744936Y3797098D01*
X6967499Y3574534D01*
D02*
G37*
G36*
X6099998Y3734534D02*
Y3640002D01*
X6194530D01*
X6247266Y3587266D01*
X6258843Y3579531D01*
X6272500Y3576814D01*
X6512719D01*
X6730065Y3359468D01*
X6722970Y3348603D01*
X6712499Y3350685D01*
X6587501D01*
Y3390001D01*
X6457502D01*
Y3350685D01*
X6422623D01*
X6223078Y3550235D01*
X6211500Y3557971D01*
X6197844Y3560688D01*
X6009070D01*
X5819678Y3750079D01*
X5824539Y3761812D01*
X6072720D01*
X6099998Y3734534D01*
D02*
G37*
G36*
X5748515Y3303519D02*
X5743254Y3290819D01*
X5677189D01*
X5171455Y3796553D01*
X5169849Y3800431D01*
X5153820Y3821321D01*
X5132931Y3837350D01*
X5108605Y3847426D01*
X5111482Y3859313D01*
X5192716D01*
X5748515Y3303519D01*
D02*
G37*
G36*
X2962702Y3492447D02*
X2987502Y3489182D01*
X3144179D01*
Y3305865D01*
X2987502D01*
X2961397Y3302428D01*
X2937071Y3292352D01*
X2916182Y3276323D01*
X2909918Y3270059D01*
X2898184Y3274920D01*
Y3345000D01*
X3080002D01*
Y3444999D01*
X2987970D01*
X2948304Y3484665D01*
X2955499Y3495431D01*
X2962702Y3492447D01*
D02*
G37*
G36*
X6813936Y3163095D02*
X6809854Y3151069D01*
X6808032Y3150829D01*
X6792220Y3144279D01*
X6778642Y3133860D01*
X6768223Y3120282D01*
X6761674Y3104471D01*
X6759440Y3087502D01*
X6761674Y3070534D01*
X6768223Y3054722D01*
X6778642Y3041144D01*
X6788755Y3033384D01*
X6784444Y3020684D01*
X6714413D01*
X6476833Y3258268D01*
X6481693Y3270001D01*
X6587501D01*
Y3279314D01*
X6697717D01*
X6813936Y3163095D01*
D02*
G37*
G36*
X5569745Y3127245D02*
X5589590Y3112018D01*
X5612700Y3102445D01*
X5637500Y3099180D01*
X5729183D01*
Y2979999D01*
X5732448Y2955199D01*
X5742020Y2932089D01*
X5757248Y2912245D01*
X5768792Y2903386D01*
X5764481Y2890686D01*
X5685000D01*
Y3072499D01*
X5585000D01*
Y2887499D01*
X5586876D01*
X5599314Y2884995D01*
X5600859Y2877232D01*
X5602031Y2871342D01*
X5602032Y2871341D01*
X5602032Y2871339D01*
X5606348Y2864880D01*
X5609767Y2859764D01*
X5609768Y2859764D01*
X5609769Y2859762D01*
X5639771Y2829765D01*
X5646251Y2825436D01*
X5651346Y2822031D01*
X5651348Y2822031D01*
X5651349Y2822030D01*
X5653776Y2821548D01*
X5654055Y2821258D01*
X5658438Y2810362D01*
X5658360Y2807687D01*
X5647019Y2792908D01*
X5637447Y2769798D01*
X5634182Y2744998D01*
X5637447Y2720199D01*
X5647019Y2697089D01*
X5662247Y2677244D01*
X5680001Y2663620D01*
Y2652498D01*
X5705070D01*
X5705201Y2652444D01*
X5730001Y2649179D01*
X6014181D01*
Y2309195D01*
X6012970Y2300000D01*
X6014181Y2290806D01*
Y2109196D01*
X6012970Y2100001D01*
X6016277Y2074888D01*
X6025970Y2051486D01*
X6041390Y2031390D01*
X6055082Y2020884D01*
X6050771Y2008184D01*
X5369232D01*
X5364920Y2020884D01*
X5378613Y2031390D01*
X5394033Y2051486D01*
X5403726Y2074888D01*
X5407032Y2100001D01*
X5403726Y2125114D01*
X5394033Y2148516D01*
X5378613Y2168611D01*
X5358517Y2184031D01*
X5335116Y2193725D01*
Y2206277D01*
X5358517Y2215970D01*
X5378613Y2231390D01*
X5394033Y2251485D01*
X5403726Y2274887D01*
X5407032Y2300000D01*
X5403726Y2325114D01*
X5394033Y2348515D01*
X5378613Y2368611D01*
X5358517Y2384031D01*
X5335115Y2393724D01*
X5310002Y2397031D01*
X5284889Y2393724D01*
X5261487Y2384031D01*
X5241392Y2368611D01*
X5225972Y2348515D01*
X5216278Y2325114D01*
X5212972Y2300000D01*
X5216278Y2274887D01*
X5225972Y2251485D01*
X5241392Y2231390D01*
X5261487Y2215970D01*
X5284889Y2206277D01*
Y2193725D01*
X5261487Y2184031D01*
X5241392Y2168611D01*
X5225972Y2148516D01*
X5216278Y2125114D01*
X5212972Y2100001D01*
X5216278Y2074888D01*
X5225972Y2051486D01*
X5241392Y2031390D01*
X5255084Y2020884D01*
X5250773Y2008184D01*
X4610703D01*
X4608177Y2020884D01*
X4618513Y2025165D01*
X4638609Y2040585D01*
X4654029Y2060681D01*
X4663722Y2084082D01*
X4667029Y2109196D01*
X4663722Y2134309D01*
X4654029Y2157711D01*
X4638609Y2177806D01*
X4618513Y2193226D01*
X4595112Y2202919D01*
Y2215472D01*
X4618513Y2225165D01*
X4638609Y2240585D01*
X4654029Y2260680D01*
X4663722Y2284082D01*
X4667029Y2309195D01*
X4663722Y2334309D01*
X4654029Y2357710D01*
X4638609Y2377806D01*
X4618513Y2393226D01*
X4595112Y2402919D01*
X4569998Y2406225D01*
X4544885Y2402919D01*
X4521483Y2393226D01*
X4501388Y2377806D01*
X4485968Y2357710D01*
X4483562Y2351901D01*
X4470862Y2354427D01*
Y2358380D01*
X4467425Y2384485D01*
X4457348Y2408811D01*
X4441320Y2429700D01*
X4350862Y2520158D01*
Y2684136D01*
X4612498D01*
X4638603Y2687572D01*
X4662929Y2697649D01*
X4672510Y2705000D01*
X4675000D01*
Y2706911D01*
X4683818Y2713678D01*
X4696320Y2726179D01*
X4712349Y2747069D01*
X4722425Y2771395D01*
X4725862Y2797500D01*
X4722425Y2823605D01*
X4712349Y2847932D01*
X4696320Y2868821D01*
X4675431Y2884850D01*
X4675000Y2885029D01*
Y2890000D01*
X4662997D01*
X4651105Y2894926D01*
X4625000Y2898363D01*
X4598895Y2894926D01*
X4587003Y2890000D01*
X4575000D01*
Y2885861D01*
X4550421D01*
X4545561Y2897594D01*
X4555234Y2907270D01*
X4559082Y2913028D01*
X4562968Y2918845D01*
X4562968Y2918846D01*
X4562969Y2918848D01*
X4564334Y2925711D01*
X4565684Y2932501D01*
Y2940001D01*
X4579998D01*
Y3125001D01*
X4479999D01*
Y2940684D01*
X4428440D01*
X4422431Y2953384D01*
X4434849Y2969568D01*
X4444925Y2993894D01*
X4448362Y3019999D01*
Y3641089D01*
X4451367Y3644094D01*
X4624137D01*
Y3032501D01*
X4627574Y3006396D01*
X4637650Y2982070D01*
X4653679Y2961180D01*
X4670001Y2948656D01*
Y2940001D01*
X4687002D01*
X4698894Y2935075D01*
X4724999Y2931638D01*
X4751105Y2935075D01*
X4762997Y2940001D01*
X4770001D01*
Y2942902D01*
X4775431Y2945151D01*
X4796320Y2961180D01*
X4812349Y2982070D01*
X4822425Y3006396D01*
X4825862Y3032501D01*
Y3649137D01*
X5047853D01*
X5569745Y3127245D01*
D02*
G37*
G36*
X6299768Y3089766D02*
X6311345Y3082031D01*
X6325001Y3079314D01*
X6342717D01*
X6561834Y2860201D01*
X6556573Y2847501D01*
X6497966D01*
X6465237Y2880233D01*
X6465236Y2880234D01*
X6465236Y2880234D01*
X6459478Y2884082D01*
X6453660Y2887969D01*
X6453659Y2887970D01*
X6453659Y2887970D01*
X6440004Y2890686D01*
X6428210D01*
X6423856Y2896360D01*
X6410278Y2906779D01*
X6394467Y2913329D01*
X6377498Y2915563D01*
X6360530Y2913329D01*
X6344718Y2906779D01*
X6331140Y2896360D01*
X6326786Y2890686D01*
X6255521D01*
X6251209Y2903386D01*
X6262754Y2912245D01*
X6277981Y2932089D01*
X6287554Y2955199D01*
X6290819Y2979999D01*
Y3057500D01*
X6287554Y3082299D01*
X6286337Y3085237D01*
X6297103Y3092431D01*
X6299768Y3089766D01*
D02*
G37*
G36*
X10364180Y2956697D02*
X10362969Y2947502D01*
X10366276Y2922389D01*
X10375969Y2898987D01*
X10391389Y2878892D01*
X10411484Y2863472D01*
X10434886Y2853779D01*
X10459999Y2850472D01*
X10485113Y2853779D01*
X10508514Y2863472D01*
X10528610Y2878892D01*
X10539114Y2892581D01*
X10553654Y2890667D01*
X10555179Y2886985D01*
X10574414Y2861917D01*
X10599481Y2842682D01*
X10628673Y2830591D01*
X10646550Y2828237D01*
Y2710949D01*
X10257500D01*
X10228785Y2707168D01*
X10222188Y2704436D01*
X10214184Y2714867D01*
X10223878Y2727500D01*
X10234999D01*
Y2752569D01*
X10235054Y2752700D01*
X10238319Y2777500D01*
Y3066679D01*
X10364180D01*
Y2956697D01*
D02*
G37*
G36*
X8734315Y2554759D02*
Y2519781D01*
X8345217Y2130688D01*
X7559999D01*
X7546344Y2127971D01*
X7546343Y2127971D01*
X7546343Y2127971D01*
X7540525Y2124083D01*
X7534766Y2120236D01*
X7534766Y2120235D01*
X7534765Y2120235D01*
X7472266Y2057730D01*
X7472266Y2057730D01*
X7462271Y2047740D01*
X7462269Y2047737D01*
X7462265Y2047734D01*
X7459840Y2044105D01*
X7453457Y2041461D01*
X7439357Y2030642D01*
X7432669Y2021927D01*
X7431656Y2021440D01*
X7418342D01*
X7417329Y2021927D01*
X7410642Y2030642D01*
X7396541Y2041461D01*
X7380121Y2048263D01*
X7366963Y2049995D01*
X7365247Y2063031D01*
X7377780Y2068222D01*
X7391358Y2078641D01*
X7401776Y2092219D01*
X7408326Y2108031D01*
X7410560Y2125000D01*
X7408326Y2141968D01*
X7401776Y2157780D01*
X7396914Y2164117D01*
X7403177Y2176817D01*
X7997500D01*
X8011156Y2179533D01*
X8022733Y2187269D01*
X8105345Y2269878D01*
X8116111Y2262684D01*
X8111673Y2251970D01*
X8109439Y2235002D01*
X8111673Y2218033D01*
X8118223Y2202222D01*
X8128642Y2188644D01*
X8142220Y2178225D01*
X8158032Y2171675D01*
X8175000Y2169441D01*
X8191969Y2171675D01*
X8207780Y2178225D01*
X8221358Y2188644D01*
X8229548Y2199316D01*
X8347502D01*
X8361158Y2202033D01*
X8372735Y2209768D01*
X8722581Y2559619D01*
X8734315Y2554759D01*
D02*
G37*
G36*
X8784312Y2452250D02*
Y2414782D01*
X8417718Y2048184D01*
X8369128D01*
X8367877Y2060884D01*
X8373655Y2062033D01*
X8385232Y2069768D01*
X8772579Y2457110D01*
X8784312Y2452250D01*
D02*
G37*
G36*
X4081590Y2347138D02*
X4076276Y2334309D01*
X4072969Y2309195D01*
X4076276Y2284082D01*
X4085969Y2260680D01*
X4101389Y2240585D01*
X4121484Y2225165D01*
X4144886Y2215472D01*
Y2202919D01*
X4121484Y2193226D01*
X4101389Y2177806D01*
X4085969Y2157711D01*
X4076276Y2134309D01*
X4072969Y2109196D01*
X4076276Y2084082D01*
X4085969Y2060681D01*
X4101389Y2040585D01*
X4121484Y2025165D01*
X4144886Y2015472D01*
X4169999Y2012166D01*
X4195113Y2015472D01*
X4207942Y2020786D01*
X4272843Y1955885D01*
X4267582Y1943185D01*
X3982282D01*
X3847718Y2077749D01*
Y2357248D01*
X3922282Y2431813D01*
X3996915D01*
X4081590Y2347138D01*
D02*
G37*
G36*
X6972112Y2215081D02*
X6837267Y2080236D01*
X6829532Y2068659D01*
X6826815Y2055002D01*
Y2040200D01*
X6814359Y2030642D01*
X6807672Y2021927D01*
X6806658Y2021440D01*
X6793345D01*
X6792331Y2021927D01*
X6785644Y2030642D01*
X6771543Y2041461D01*
X6755123Y2048263D01*
X6737502Y2050583D01*
X6719881Y2048263D01*
X6703461Y2041461D01*
X6689361Y2030642D01*
X6678541Y2016542D01*
X6671740Y2000121D01*
X6669420Y1982500D01*
X6671740Y1964879D01*
X6678541Y1948459D01*
X6689361Y1934359D01*
X6703461Y1923539D01*
X6719881Y1916738D01*
X6737502Y1914418D01*
X6755123Y1916738D01*
X6771543Y1923539D01*
X6785644Y1934359D01*
X6792331Y1943074D01*
X6793345Y1943561D01*
X6806658D01*
X6807672Y1943074D01*
X6814359Y1934359D01*
X6828460Y1923539D01*
X6844880Y1916738D01*
X6862501Y1914418D01*
X6880122Y1916738D01*
X6896542Y1923539D01*
X6910643Y1934359D01*
X6921462Y1948459D01*
X6928264Y1964879D01*
X6930583Y1982500D01*
X6928264Y2000121D01*
X6921462Y2016542D01*
X6910643Y2030642D01*
X6908337Y2032411D01*
X6907233Y2049267D01*
X7034783Y2176817D01*
X7275692D01*
X7282750Y2164117D01*
X7280616Y2160685D01*
X7175002D01*
X7169571Y2159605D01*
X7161347Y2157970D01*
X7161346Y2157969D01*
X7161346D01*
X7149770Y2150234D01*
X7087265Y2087735D01*
X7087265Y2087734D01*
X7087264Y2087734D01*
X7083417Y2081976D01*
X7079529Y2076158D01*
X7079529Y2076157D01*
X7079529Y2076157D01*
X7078287Y2069914D01*
X7076812Y2062502D01*
X7076812Y2062501D01*
X7076812Y2062500D01*
Y2040200D01*
X7064356Y2030642D01*
X7053537Y2016542D01*
X7046735Y2000121D01*
X7044415Y1982500D01*
X7046735Y1964879D01*
X7053537Y1948459D01*
X7064356Y1934359D01*
X7078457Y1923539D01*
X7094877Y1916738D01*
X7112498Y1914418D01*
X7130119Y1916738D01*
X7146539Y1923539D01*
X7160639Y1934359D01*
X7167329Y1943077D01*
X7168348Y1943566D01*
X7181652D01*
X7182670Y1943077D01*
X7189360Y1934359D01*
X7203460Y1923539D01*
X7219880Y1916738D01*
X7237501Y1914418D01*
X7255122Y1916738D01*
X7271542Y1923539D01*
X7285643Y1934359D01*
X7292330Y1943074D01*
X7293344Y1943561D01*
X7306657D01*
X7307671Y1943074D01*
X7314358Y1934359D01*
X7326814Y1924801D01*
Y1885863D01*
X6336136D01*
X6331275Y1897596D01*
X6452734Y2019055D01*
X6460470Y2030632D01*
X6463186Y2044289D01*
Y2165219D01*
X6524781Y2226814D01*
X6967252D01*
X6972112Y2215081D01*
D02*
G37*
G36*
X10477418Y2400299D02*
X10518789Y2390366D01*
X10558098Y2374084D01*
X10594375Y2351854D01*
X10626728Y2324222D01*
X10654359Y2291869D01*
X10676590Y2255592D01*
X10692872Y2216284D01*
X10702805Y2174913D01*
X10706143Y2132497D01*
X10702805Y2090081D01*
X10692872Y2048710D01*
X10676590Y2009402D01*
X10654359Y1973125D01*
X10626728Y1940772D01*
X10594375Y1913140D01*
X10558098Y1890909D01*
X10518789Y1874627D01*
X10477418Y1864695D01*
X10435003Y1861357D01*
X10392587Y1864695D01*
X10351216Y1874627D01*
X10311908Y1890909D01*
X10275631Y1913140D01*
X10243278Y1940772D01*
X10215646Y1973125D01*
X10193415Y2009402D01*
X10177133Y2048710D01*
X10167201Y2090081D01*
X10163863Y2132497D01*
X10167201Y2174913D01*
X10177133Y2216284D01*
X10193415Y2255592D01*
X10215646Y2291869D01*
X10243278Y2324222D01*
X10275631Y2351854D01*
X10311908Y2374084D01*
X10351216Y2390366D01*
X10392587Y2400299D01*
X10435003Y2403637D01*
X10477418Y2400299D01*
D02*
G37*
%LPC*%
G36*
X6889999Y10654530D02*
X6864886Y10651224D01*
X6841484Y10641530D01*
X6821388Y10626110D01*
X6805968Y10606015D01*
X6796275Y10582613D01*
X6783723D01*
X6774030Y10606015D01*
X6758610Y10626110D01*
X6738514Y10641530D01*
X6715113Y10651224D01*
X6689999Y10654530D01*
X6664886Y10651224D01*
X6641484Y10641530D01*
X6621389Y10626110D01*
X6605969Y10606015D01*
X6596276Y10582613D01*
X6592969Y10557500D01*
X6596276Y10532387D01*
X6605969Y10508985D01*
X6621389Y10488889D01*
X6641484Y10473469D01*
X6664886Y10463776D01*
Y10451224D01*
X6641484Y10441531D01*
X6621389Y10426111D01*
X6605969Y10406015D01*
X6596276Y10382613D01*
X6592969Y10357500D01*
X6596276Y10332387D01*
X6605969Y10308985D01*
X6621389Y10288890D01*
X6641484Y10273470D01*
X6664886Y10263777D01*
X6689999Y10260470D01*
X6715113Y10263777D01*
X6738514Y10273470D01*
X6758610Y10288890D01*
X6774030Y10308985D01*
X6783723Y10332387D01*
X6796275D01*
X6805968Y10308985D01*
X6821388Y10288890D01*
X6841484Y10273470D01*
X6864886Y10263777D01*
X6889999Y10260470D01*
X6915112Y10263777D01*
X6938514Y10273470D01*
X6958609Y10288890D01*
X6974029Y10308985D01*
X6983723Y10332387D01*
X6987029Y10357500D01*
X6983723Y10382613D01*
X6974029Y10406015D01*
X6958609Y10426111D01*
X6938514Y10441531D01*
X6915112Y10451224D01*
Y10463776D01*
X6938514Y10473469D01*
X6958609Y10488889D01*
X6974029Y10508985D01*
X6983723Y10532387D01*
X6987029Y10557500D01*
X6983723Y10582613D01*
X6974029Y10606015D01*
X6958609Y10626110D01*
X6938514Y10641530D01*
X6915112Y10651224D01*
X6889999Y10654530D01*
D02*
G37*
G36*
X3439998Y10529531D02*
X3414885Y10526225D01*
X3391483Y10516532D01*
X3371388Y10501112D01*
X3355968Y10481016D01*
X3346274Y10457615D01*
X3342968Y10432501D01*
X3346274Y10407388D01*
X3355968Y10383986D01*
X3371388Y10363891D01*
X3391483Y10348471D01*
X3414885Y10338778D01*
X3439998Y10335471D01*
X3465111Y10338778D01*
X3488513Y10348471D01*
X3508609Y10363891D01*
X3524029Y10383986D01*
X3533722Y10407388D01*
X3537028Y10432501D01*
X3533722Y10457615D01*
X3524029Y10481016D01*
X3508609Y10501112D01*
X3488513Y10516532D01*
X3465111Y10526225D01*
X3439998Y10529531D01*
D02*
G37*
G36*
X4212499Y10508533D02*
X4181172Y10504409D01*
X4151981Y10492318D01*
X4126914Y10473083D01*
X4107679Y10448015D01*
X4095587Y10418824D01*
X4091463Y10387498D01*
X4095587Y10356171D01*
X4107679Y10326980D01*
X4126914Y10301913D01*
X4151981Y10282678D01*
X4181172Y10270586D01*
X4212499Y10266462D01*
X4243825Y10270586D01*
X4273016Y10282678D01*
X4298084Y10301913D01*
X4317319Y10326980D01*
X4329410Y10356171D01*
X4333534Y10387498D01*
X4329410Y10418824D01*
X4317319Y10448015D01*
X4298084Y10473083D01*
X4273016Y10492318D01*
X4243825Y10504409D01*
X4212499Y10508533D01*
D02*
G37*
G36*
X8594999Y10431038D02*
X8563673Y10426914D01*
X8534482Y10414822D01*
X8509414Y10395587D01*
X8490179Y10370520D01*
X8478088Y10341329D01*
X8473964Y10310002D01*
X8478088Y10278676D01*
X8490179Y10249484D01*
X8509414Y10224417D01*
X8534482Y10205182D01*
X8563673Y10193091D01*
X8594999Y10188967D01*
X8626326Y10193091D01*
X8655517Y10205182D01*
X8680584Y10224417D01*
X8699819Y10249484D01*
X8711911Y10278676D01*
X8716035Y10310002D01*
X8711911Y10341329D01*
X8699819Y10370520D01*
X8680584Y10395587D01*
X8655517Y10414822D01*
X8626326Y10426914D01*
X8594999Y10431038D01*
D02*
G37*
G36*
X10432501Y10773017D02*
X10379624Y10768856D01*
X10328048Y10756473D01*
X10279045Y10736176D01*
X10233820Y10708462D01*
X10193488Y10674014D01*
X10159040Y10633682D01*
X10131326Y10588457D01*
X10111029Y10539454D01*
X10098647Y10487878D01*
X10094485Y10435001D01*
X10098647Y10382124D01*
X10111029Y10330549D01*
X10131326Y10281545D01*
X10159040Y10236320D01*
X10193488Y10195988D01*
X10233820Y10161541D01*
X10279045Y10133827D01*
X10328048Y10113529D01*
X10379624Y10101147D01*
X10432501Y10096985D01*
X10485378Y10101147D01*
X10536954Y10113529D01*
X10585957Y10133827D01*
X10631182Y10161541D01*
X10671514Y10195988D01*
X10705961Y10236320D01*
X10733675Y10281545D01*
X10753973Y10330549D01*
X10766355Y10382124D01*
X10770517Y10435001D01*
X10766355Y10487878D01*
X10753973Y10539454D01*
X10733675Y10588457D01*
X10705961Y10633682D01*
X10671514Y10674014D01*
X10631182Y10708462D01*
X10585957Y10736176D01*
X10536954Y10756473D01*
X10485378Y10768856D01*
X10432501Y10773017D01*
D02*
G37*
G36*
X2777500Y10174531D02*
X2752387Y10171225D01*
X2728985Y10161531D01*
X2708890Y10146111D01*
X2693470Y10126016D01*
X2683776Y10102614D01*
X2680470Y10077501D01*
X2683776Y10052388D01*
X2693470Y10028986D01*
X2708890Y10008890D01*
X2728985Y9993470D01*
X2752387Y9983777D01*
X2777500Y9980471D01*
X2802613Y9983777D01*
X2826015Y9993470D01*
X2846111Y10008890D01*
X2861531Y10028986D01*
X2871224Y10052388D01*
X2874530Y10077501D01*
X2871224Y10102614D01*
X2861531Y10126016D01*
X2846111Y10146111D01*
X2826015Y10161531D01*
X2802613Y10171225D01*
X2777500Y10174531D01*
D02*
G37*
G36*
Y9922029D02*
X2752387Y9918723D01*
X2728985Y9909030D01*
X2708890Y9893610D01*
X2693470Y9873514D01*
X2683776Y9850113D01*
X2680470Y9824999D01*
X2683776Y9799886D01*
X2693470Y9776484D01*
X2708890Y9756389D01*
X2728985Y9740969D01*
X2752387Y9731276D01*
X2777500Y9727969D01*
X2802613Y9731276D01*
X2826015Y9740969D01*
X2846111Y9756389D01*
X2861531Y9776484D01*
X2871224Y9799886D01*
X2874530Y9824999D01*
X2871224Y9850113D01*
X2861531Y9873514D01*
X2846111Y9893610D01*
X2826015Y9909030D01*
X2802613Y9918723D01*
X2777500Y9922029D01*
D02*
G37*
G36*
X2760000Y9521029D02*
X2734886Y9517723D01*
X2711485Y9508030D01*
X2691389Y9492610D01*
X2675969Y9472514D01*
X2666276Y9449113D01*
X2662970Y9423999D01*
X2666276Y9398886D01*
X2675969Y9375484D01*
X2691389Y9355389D01*
X2711485Y9339969D01*
X2734886Y9330276D01*
X2760000Y9326969D01*
X2785113Y9330276D01*
X2808515Y9339969D01*
X2828610Y9355389D01*
X2844030Y9375484D01*
X2853723Y9398886D01*
X2857030Y9423999D01*
X2853723Y9449113D01*
X2844030Y9472514D01*
X2828610Y9492610D01*
X2808515Y9508030D01*
X2785113Y9517723D01*
X2760000Y9521029D01*
D02*
G37*
G36*
Y9267029D02*
X2734886Y9263723D01*
X2711485Y9254030D01*
X2691389Y9238610D01*
X2675969Y9218514D01*
X2666276Y9195113D01*
X2662970Y9169999D01*
X2666276Y9144886D01*
X2675969Y9121484D01*
X2691389Y9101389D01*
X2711485Y9085969D01*
X2734886Y9076276D01*
X2760000Y9072969D01*
X2785113Y9076276D01*
X2808515Y9085969D01*
X2828610Y9101389D01*
X2844030Y9121484D01*
X2853723Y9144886D01*
X2857030Y9169999D01*
X2853723Y9195113D01*
X2844030Y9218514D01*
X2828610Y9238610D01*
X2808515Y9254030D01*
X2785113Y9263723D01*
X2760000Y9267029D01*
D02*
G37*
G36*
X7690002Y8668063D02*
X7673034Y8665829D01*
X7657222Y8659280D01*
X7643644Y8648861D01*
X7633225Y8635283D01*
X7626676Y8619471D01*
X7624442Y8602502D01*
X7626676Y8585534D01*
X7633225Y8569722D01*
X7643644Y8556144D01*
X7657222Y8545725D01*
X7673034Y8539176D01*
X7690002Y8536942D01*
X7706971Y8539176D01*
X7722783Y8545725D01*
X7736361Y8556144D01*
X7736726Y8556621D01*
X8374882D01*
X8376672Y8543030D01*
X8383221Y8527218D01*
X8393640Y8513640D01*
X8407218Y8503221D01*
X8423030Y8496671D01*
X8439998Y8494437D01*
X8456967Y8496671D01*
X8472779Y8503221D01*
X8486357Y8513640D01*
X8496775Y8527218D01*
X8503325Y8543030D01*
X8505559Y8559998D01*
X8503325Y8576967D01*
X8496775Y8592778D01*
X8486357Y8606356D01*
X8472779Y8616775D01*
X8456967Y8623325D01*
X8439998Y8625559D01*
X8439406Y8625481D01*
X8429944Y8634944D01*
X8429943Y8634944D01*
X8429942Y8634946D01*
X8423364Y8639341D01*
X8415060Y8644891D01*
X8415058Y8644891D01*
X8415057Y8644892D01*
X8407106Y8646473D01*
X8397502Y8648384D01*
X8397500Y8648384D01*
X8397499Y8648384D01*
X7736726D01*
X7736361Y8648861D01*
X7722783Y8659280D01*
X7706971Y8665829D01*
X7690002Y8668063D01*
D02*
G37*
G36*
X8124998Y8260824D02*
X8091672Y8257542D01*
X8059627Y8247821D01*
X8030094Y8232035D01*
X8004208Y8210791D01*
X7982964Y8184905D01*
X7967178Y8155373D01*
X7957458Y8123327D01*
X7954175Y8090002D01*
X7957458Y8056676D01*
X7967178Y8024631D01*
X7982964Y7995098D01*
X8004208Y7969212D01*
X8030094Y7947968D01*
X8059627Y7932182D01*
X8091672Y7922461D01*
X8124998Y7919179D01*
X8158324Y7922461D01*
X8190369Y7932182D01*
X8219902Y7947968D01*
X8245787Y7969212D01*
X8267031Y7995098D01*
X8282817Y8024631D01*
X8292538Y8056676D01*
X8295820Y8090002D01*
X8292538Y8123327D01*
X8282817Y8155373D01*
X8267031Y8184905D01*
X8245787Y8210791D01*
X8219902Y8232035D01*
X8190369Y8247821D01*
X8158324Y8257542D01*
X8124998Y8260824D01*
D02*
G37*
G36*
X4975001D02*
X4941676Y8257542D01*
X4909631Y8247821D01*
X4880098Y8232035D01*
X4854212Y8210791D01*
X4832968Y8184905D01*
X4817182Y8155373D01*
X4807461Y8123327D01*
X4804179Y8090002D01*
X4807461Y8056676D01*
X4817182Y8024631D01*
X4832968Y7995098D01*
X4854212Y7969212D01*
X4880098Y7947968D01*
X4909631Y7932182D01*
X4941676Y7922461D01*
X4975001Y7919179D01*
X5008327Y7922461D01*
X5040372Y7932182D01*
X5069905Y7947968D01*
X5095791Y7969212D01*
X5117035Y7995098D01*
X5132821Y8024631D01*
X5142542Y8056676D01*
X5145824Y8090002D01*
X5142542Y8123327D01*
X5132821Y8155373D01*
X5117035Y8184905D01*
X5095791Y8210791D01*
X5069905Y8232035D01*
X5040372Y8247821D01*
X5008327Y8257542D01*
X4975001Y8260824D01*
D02*
G37*
G36*
X8882502Y7788060D02*
X8865533Y7785826D01*
X8849722Y7779276D01*
X8836144Y7768857D01*
X8825725Y7755279D01*
X8819175Y7739468D01*
X8816941Y7722499D01*
X8819175Y7705531D01*
X8825725Y7689719D01*
X8836144Y7676141D01*
X8849722Y7665722D01*
X8865533Y7659172D01*
X8882502Y7656938D01*
X8883098Y7657017D01*
X9052558Y7487557D01*
X9067443Y7477611D01*
X9085001Y7474119D01*
X9840002D01*
Y7455000D01*
X9950002D01*
Y7585000D01*
X9840002D01*
Y7565882D01*
X9104006D01*
X8947984Y7721903D01*
X8948063Y7722499D01*
X8945829Y7739468D01*
X8939279Y7755279D01*
X8928860Y7768857D01*
X8915282Y7779276D01*
X8899470Y7785826D01*
X8882502Y7788060D01*
D02*
G37*
G36*
X5539999Y7413059D02*
X5523031Y7410825D01*
X5507219Y7404276D01*
X5493641Y7393857D01*
X5483222Y7380279D01*
X5476672Y7364467D01*
X5474438Y7347499D01*
X5476672Y7330530D01*
X5483222Y7314718D01*
X5493641Y7301140D01*
X5507219Y7290722D01*
X5523031Y7284172D01*
X5539999Y7281938D01*
X5553337Y7283694D01*
X5747267Y7089768D01*
X5758844Y7082033D01*
X5772501Y7079317D01*
X5872954D01*
X5881143Y7068644D01*
X5894721Y7058225D01*
X5910533Y7051676D01*
X5927501Y7049442D01*
X5944470Y7051676D01*
X5960282Y7058225D01*
X5973860Y7068644D01*
X5984279Y7082222D01*
X5990828Y7098034D01*
X5993062Y7115002D01*
X5990828Y7131971D01*
X5984279Y7147783D01*
X5973860Y7161361D01*
X5960282Y7171779D01*
X5944470Y7178329D01*
X5927501Y7180563D01*
X5910533Y7178329D01*
X5894721Y7171779D01*
X5881143Y7161361D01*
X5872954Y7150688D01*
X5787282D01*
X5603804Y7334162D01*
X5605560Y7347499D01*
X5603326Y7364467D01*
X5596776Y7380279D01*
X5586357Y7393857D01*
X5572779Y7404276D01*
X5556968Y7410825D01*
X5539999Y7413059D01*
D02*
G37*
G36*
X7135002Y7323062D02*
X7118034Y7320828D01*
X7102222Y7314278D01*
X7088644Y7303860D01*
X7078225Y7290282D01*
X7071675Y7274470D01*
X7069442Y7257501D01*
X7071675Y7240533D01*
X7078225Y7224721D01*
X7088644Y7211143D01*
X7102222Y7200724D01*
X7118034Y7194175D01*
X7132230Y7192306D01*
X7247269Y7077267D01*
X7258846Y7069531D01*
X7272503Y7066815D01*
X7680453D01*
X7688643Y7056142D01*
X7702221Y7045723D01*
X7718033Y7039174D01*
X7735001Y7036940D01*
X7751970Y7039174D01*
X7767781Y7045723D01*
X7781359Y7056142D01*
X7791778Y7069720D01*
X7798328Y7085532D01*
X7800562Y7102500D01*
X7798328Y7119469D01*
X7791778Y7135281D01*
X7781359Y7148859D01*
X7767781Y7159278D01*
X7751970Y7165827D01*
X7735001Y7168061D01*
X7718033Y7165827D01*
X7702221Y7159278D01*
X7688643Y7148859D01*
X7680453Y7138186D01*
X7287284D01*
X7194406Y7231064D01*
X7198329Y7240533D01*
X7200563Y7257501D01*
X7198329Y7274470D01*
X7191779Y7290282D01*
X7181361Y7303860D01*
X7167782Y7314278D01*
X7151971Y7320828D01*
X7135002Y7323062D01*
D02*
G37*
G36*
X1985002Y6440001D02*
X1885003D01*
Y6413184D01*
X1802501D01*
X1788845Y6410467D01*
X1777267Y6402732D01*
X1734768Y6360232D01*
X1727032Y6348655D01*
X1724316Y6334999D01*
Y6287499D01*
X1695002D01*
Y6177500D01*
X1825001D01*
Y6287499D01*
X1795687D01*
Y6320217D01*
X1817282Y6341812D01*
X1885003D01*
Y6255001D01*
X1985002D01*
Y6440001D01*
D02*
G37*
G36*
X8124998Y6020823D02*
X8091672Y6017541D01*
X8059627Y6007820D01*
X8030094Y5992034D01*
X8004208Y5970791D01*
X7982964Y5944905D01*
X7967178Y5915372D01*
X7957458Y5883327D01*
X7954175Y5850001D01*
X7957458Y5816675D01*
X7967178Y5784630D01*
X7982964Y5755097D01*
X8004208Y5729211D01*
X8030094Y5707968D01*
X8059627Y5692182D01*
X8091672Y5682461D01*
X8124998Y5679179D01*
X8158324Y5682461D01*
X8190369Y5692182D01*
X8219902Y5707968D01*
X8245787Y5729211D01*
X8267031Y5755097D01*
X8282817Y5784630D01*
X8292538Y5816675D01*
X8295820Y5850001D01*
X8292538Y5883327D01*
X8282817Y5915372D01*
X8267031Y5944905D01*
X8245787Y5970791D01*
X8219902Y5992034D01*
X8190369Y6007820D01*
X8158324Y6017541D01*
X8124998Y6020823D01*
D02*
G37*
G36*
X4975001D02*
X4941676Y6017541D01*
X4909631Y6007820D01*
X4880098Y5992034D01*
X4854212Y5970791D01*
X4832968Y5944905D01*
X4817182Y5915372D01*
X4807461Y5883327D01*
X4804179Y5850001D01*
X4807461Y5816675D01*
X4817182Y5784630D01*
X4832968Y5755097D01*
X4854212Y5729211D01*
X4880098Y5707968D01*
X4909631Y5692182D01*
X4941676Y5682461D01*
X4975001Y5679179D01*
X5008327Y5682461D01*
X5040372Y5692182D01*
X5069905Y5707968D01*
X5095791Y5729211D01*
X5117035Y5755097D01*
X5132821Y5784630D01*
X5142542Y5816675D01*
X5145824Y5850001D01*
X5142542Y5883327D01*
X5132821Y5915372D01*
X5117035Y5944905D01*
X5095791Y5970791D01*
X5069905Y5992034D01*
X5040372Y6007820D01*
X5008327Y6017541D01*
X4975001Y6020823D01*
D02*
G37*
G36*
X2227499Y5284528D02*
X2202385Y5281222D01*
X2178984Y5271528D01*
X2158888Y5256108D01*
X2143468Y5236013D01*
X2133775Y5212611D01*
X2121223D01*
X2111530Y5236013D01*
X2096110Y5256108D01*
X2076014Y5271528D01*
X2052612Y5281222D01*
X2027499Y5284528D01*
X2002386Y5281222D01*
X1978984Y5271528D01*
X1958889Y5256108D01*
X1943469Y5236013D01*
X1933775Y5212611D01*
X1930469Y5187498D01*
X1933775Y5162385D01*
X1943469Y5138983D01*
X1958889Y5118887D01*
X1978984Y5103467D01*
X2002386Y5093774D01*
Y5081222D01*
X1978984Y5071529D01*
X1958889Y5056109D01*
X1943469Y5036013D01*
X1933775Y5012612D01*
X1930469Y4987498D01*
X1933775Y4962385D01*
X1943469Y4938983D01*
X1958889Y4918888D01*
X1978984Y4903468D01*
X2002386Y4893775D01*
X2027499Y4890468D01*
X2052612Y4893775D01*
X2076014Y4903468D01*
X2096110Y4918888D01*
X2111530Y4938983D01*
X2121223Y4962385D01*
X2133775D01*
X2143468Y4938983D01*
X2158888Y4918888D01*
X2178984Y4903468D01*
X2202385Y4893775D01*
X2227499Y4890468D01*
X2252612Y4893775D01*
X2276014Y4903468D01*
X2296109Y4918888D01*
X2311529Y4938983D01*
X2321222Y4962385D01*
X2324529Y4987498D01*
X2321222Y5012612D01*
X2311529Y5036013D01*
X2296109Y5056109D01*
X2276014Y5071529D01*
X2252612Y5081222D01*
Y5093774D01*
X2276014Y5103467D01*
X2296109Y5118887D01*
X2311529Y5138983D01*
X2321222Y5162385D01*
X2324529Y5187498D01*
X2321222Y5212611D01*
X2311529Y5236013D01*
X2296109Y5256108D01*
X2276014Y5271528D01*
X2252612Y5281222D01*
X2227499Y5284528D01*
D02*
G37*
G36*
X2612498Y3887499D02*
X2482498D01*
Y3777499D01*
X2511812D01*
Y3562049D01*
X2501140Y3553860D01*
X2490721Y3540281D01*
X2484171Y3524470D01*
X2481937Y3507501D01*
X2484171Y3490533D01*
X2490721Y3474721D01*
X2501140Y3461143D01*
X2514718Y3450724D01*
X2530530Y3444174D01*
X2547498Y3441941D01*
X2564467Y3444174D01*
X2580278Y3450724D01*
X2593856Y3461143D01*
X2604275Y3474721D01*
X2610825Y3490533D01*
X2613059Y3507501D01*
X2610825Y3524470D01*
X2604275Y3540281D01*
X2593856Y3553860D01*
X2583184Y3562049D01*
Y3777499D01*
X2612498D01*
Y3887499D01*
D02*
G37*
G36*
X3547500Y3935000D02*
X3437500D01*
Y3805000D01*
X3451816D01*
Y3472047D01*
X3441143Y3463857D01*
X3430724Y3450279D01*
X3424175Y3434467D01*
X3421941Y3417499D01*
X3424175Y3400530D01*
X3430724Y3384719D01*
X3441143Y3371141D01*
X3454721Y3360722D01*
X3470533Y3354172D01*
X3487501Y3351938D01*
X3504470Y3354172D01*
X3520282Y3360722D01*
X3533860Y3371141D01*
X3544278Y3384719D01*
X3550828Y3400530D01*
X3553062Y3417499D01*
X3550828Y3434467D01*
X3544278Y3450279D01*
X3533860Y3463857D01*
X3523187Y3472047D01*
Y3805000D01*
X3547500D01*
Y3935000D01*
D02*
G37*
G36*
X2130000Y2452960D02*
X2079478Y2448983D01*
X2030200Y2437153D01*
X1983380Y2417759D01*
X1940169Y2391280D01*
X1901633Y2358367D01*
X1868720Y2319831D01*
X1842241Y2276621D01*
X1822847Y2229800D01*
X1811017Y2180522D01*
X1807041Y2130000D01*
X1811017Y2079478D01*
X1822847Y2030200D01*
X1842241Y1983380D01*
X1868720Y1940169D01*
X1901633Y1901633D01*
X1940169Y1868720D01*
X1983380Y1842241D01*
X2030200Y1822847D01*
X2079478Y1811017D01*
X2130000Y1807041D01*
X2180522Y1811017D01*
X2229800Y1822847D01*
X2276621Y1842241D01*
X2319831Y1868720D01*
X2358367Y1901633D01*
X2391280Y1940169D01*
X2417759Y1983380D01*
X2437153Y2030200D01*
X2448983Y2079478D01*
X2452960Y2130000D01*
X2448983Y2180522D01*
X2437153Y2229800D01*
X2417759Y2276621D01*
X2391280Y2319831D01*
X2358367Y2358367D01*
X2319831Y2391280D01*
X2276621Y2417759D01*
X2229800Y2437153D01*
X2180522Y2448983D01*
X2130000Y2452960D01*
D02*
G37*
%LPD*%
G36*
X10474917Y10702803D02*
X10516288Y10692871D01*
X10555596Y10676589D01*
X10591873Y10654358D01*
X10624226Y10626726D01*
X10651858Y10594373D01*
X10674088Y10558096D01*
X10690370Y10518788D01*
X10700303Y10477417D01*
X10703641Y10435001D01*
X10700303Y10392586D01*
X10690370Y10351215D01*
X10674088Y10311906D01*
X10651858Y10275629D01*
X10624226Y10243276D01*
X10591873Y10215645D01*
X10555596Y10193414D01*
X10516288Y10177132D01*
X10474917Y10167199D01*
X10432501Y10163861D01*
X10390085Y10167199D01*
X10348714Y10177132D01*
X10309406Y10193414D01*
X10273129Y10215645D01*
X10240776Y10243276D01*
X10213144Y10275629D01*
X10190913Y10311906D01*
X10174631Y10351215D01*
X10164699Y10392586D01*
X10161361Y10435001D01*
X10164699Y10477417D01*
X10174631Y10518788D01*
X10190913Y10558096D01*
X10213144Y10594373D01*
X10240776Y10626726D01*
X10273129Y10654358D01*
X10309406Y10676589D01*
X10348714Y10692871D01*
X10390085Y10702803D01*
X10432501Y10706141D01*
X10474917Y10702803D01*
D02*
G37*
%LPC*%
G36*
X10435000Y10605823D02*
X10401674Y10602541D01*
X10369629Y10592820D01*
X10340096Y10577034D01*
X10314210Y10555790D01*
X10292966Y10529905D01*
X10277181Y10500372D01*
X10267460Y10468327D01*
X10264178Y10435001D01*
X10267460Y10401675D01*
X10277181Y10369630D01*
X10292966Y10340097D01*
X10314210Y10314211D01*
X10340096Y10292967D01*
X10369629Y10277181D01*
X10401674Y10267461D01*
X10435000Y10264178D01*
X10468326Y10267461D01*
X10500371Y10277181D01*
X10529904Y10292967D01*
X10555790Y10314211D01*
X10577033Y10340097D01*
X10592819Y10369630D01*
X10602540Y10401675D01*
X10605822Y10435001D01*
X10602540Y10468327D01*
X10592819Y10500372D01*
X10577033Y10529905D01*
X10555790Y10555790D01*
X10529904Y10577034D01*
X10500371Y10592820D01*
X10468326Y10602541D01*
X10435000Y10605823D01*
D02*
G37*
%LPD*%
G36*
X2180046Y2381600D02*
X2228170Y2367002D01*
X2272520Y2343296D01*
X2311393Y2311393D01*
X2343296Y2272520D01*
X2367002Y2228170D01*
X2381600Y2180046D01*
X2386529Y2130000D01*
X2381600Y2079954D01*
X2367002Y2031831D01*
X2343296Y1987480D01*
X2311393Y1948607D01*
X2272520Y1916704D01*
X2228170Y1892998D01*
X2180046Y1878400D01*
X2130000Y1873471D01*
X2079954Y1878400D01*
X2031831Y1892998D01*
X1987480Y1916704D01*
X1948607Y1948607D01*
X1916704Y1987480D01*
X1892998Y2031831D01*
X1878400Y2079954D01*
X1873471Y2130000D01*
X1878400Y2180046D01*
X1892998Y2228170D01*
X1916704Y2272520D01*
X1948607Y2311393D01*
X1987480Y2343296D01*
X2031831Y2367002D01*
X2079954Y2381600D01*
X2130000Y2386529D01*
X2180046Y2381600D01*
D02*
G37*
%LPC*%
G36*
X2130000Y2300822D02*
X2096674Y2297540D01*
X2064629Y2287819D01*
X2035096Y2272034D01*
X2009210Y2250790D01*
X1987967Y2224904D01*
X1972181Y2195371D01*
X1962460Y2163326D01*
X1959178Y2130000D01*
X1962460Y2096674D01*
X1972181Y2064629D01*
X1987967Y2035096D01*
X2009210Y2009210D01*
X2035096Y1987967D01*
X2064629Y1972181D01*
X2096674Y1962460D01*
X2130000Y1959178D01*
X2163326Y1962460D01*
X2195371Y1972181D01*
X2224904Y1987967D01*
X2250790Y2009210D01*
X2272034Y2035096D01*
X2287819Y2064629D01*
X2297540Y2096674D01*
X2300822Y2130000D01*
X2297540Y2163326D01*
X2287819Y2195371D01*
X2272034Y2224904D01*
X2250790Y2250790D01*
X2224904Y2272034D01*
X2195371Y2287819D01*
X2163326Y2297540D01*
X2130000Y2300822D01*
D02*
G37*
G36*
X3499998Y6355561D02*
X3483030Y6353327D01*
X3467218Y6346777D01*
X3453640Y6336358D01*
X3443221Y6322780D01*
X3436671Y6306969D01*
X3434437Y6290000D01*
X3436671Y6273032D01*
X3443221Y6257220D01*
X3453640Y6243642D01*
X3464312Y6235452D01*
Y5364783D01*
X3132720Y5033187D01*
X3065001D01*
Y5062501D01*
X2955002D01*
Y4932501D01*
X3065001D01*
Y4961815D01*
X3147502D01*
X3161159Y4964532D01*
X3172736Y4972267D01*
X3525232Y5324768D01*
X3532967Y5336346D01*
X3535684Y5350002D01*
Y6235452D01*
X3546356Y6243642D01*
X3556775Y6257220D01*
X3563325Y6273032D01*
X3565559Y6290000D01*
X3563325Y6306969D01*
X3556775Y6322780D01*
X3546356Y6336358D01*
X3532778Y6346777D01*
X3516967Y6353327D01*
X3499998Y6355561D01*
D02*
G37*
G36*
X2914999Y5062501D02*
X2804999D01*
Y5033187D01*
X2792501D01*
X2778845Y5030470D01*
X2767268Y5022734D01*
X2683474Y4938941D01*
X2672218Y4934278D01*
X2658640Y4923859D01*
X2648221Y4910281D01*
X2641672Y4894470D01*
X2639438Y4877501D01*
X2641672Y4860533D01*
X2648221Y4844721D01*
X2657446Y4832699D01*
X2655993Y4826490D01*
X2652301Y4819999D01*
X2639999D01*
Y4709999D01*
X2769998D01*
Y4819999D01*
X2757696D01*
X2754004Y4826490D01*
X2752551Y4832699D01*
X2761776Y4844721D01*
X2768325Y4860533D01*
X2770559Y4877501D01*
X2768325Y4894470D01*
X2761776Y4910281D01*
X2759159Y4913691D01*
X2793266Y4947798D01*
X2804999Y4942938D01*
Y4932501D01*
X2914999D01*
Y5062501D01*
D02*
G37*
G36*
X9417502Y7060563D02*
X9400534Y7058329D01*
X9384722Y7051780D01*
X9371144Y7041361D01*
X9362954Y7030688D01*
X9300002D01*
X9286345Y7027972D01*
X9274768Y7020236D01*
X8447267Y6192735D01*
X8439531Y6181157D01*
X8436814Y6167501D01*
Y4185001D01*
X8438183Y4178120D01*
X8436671Y4174471D01*
X8434438Y4157502D01*
X8436671Y4140534D01*
X8443221Y4124722D01*
X8453640Y4111144D01*
X8467218Y4100725D01*
X8483030Y4094176D01*
X8499998Y4091942D01*
X8516967Y4094176D01*
X8532778Y4100725D01*
X8546357Y4111144D01*
X8556775Y4124722D01*
X8563325Y4140534D01*
X8565559Y4157502D01*
X8563325Y4174471D01*
X8556775Y4190283D01*
X8546357Y4203861D01*
X8532778Y4214280D01*
X8516967Y4220829D01*
X8508186Y4221985D01*
Y6152719D01*
X9314783Y6959317D01*
X9362954D01*
X9371144Y6948644D01*
X9384722Y6938225D01*
X9400534Y6931676D01*
X9417502Y6929442D01*
X9434471Y6931676D01*
X9450282Y6938225D01*
X9463860Y6948644D01*
X9474279Y6962222D01*
X9480829Y6978034D01*
X9483063Y6995003D01*
X9480829Y7011971D01*
X9474279Y7027783D01*
X9463860Y7041361D01*
X9450282Y7051780D01*
X9434471Y7058329D01*
X9417502Y7060563D01*
D02*
G37*
G36*
X10490002Y6352029D02*
X10464889Y6348723D01*
X10441487Y6339029D01*
X10421391Y6323609D01*
X10405971Y6303514D01*
X10396278Y6280112D01*
X10383726D01*
X10374033Y6303514D01*
X10358613Y6323609D01*
X10338517Y6339029D01*
X10315116Y6348723D01*
X10290002Y6352029D01*
X10264889Y6348723D01*
X10241487Y6339029D01*
X10221392Y6323609D01*
X10205972Y6303514D01*
X10196279Y6280112D01*
X10192972Y6254999D01*
X10196279Y6229886D01*
X10205972Y6206484D01*
X10221392Y6186388D01*
X10241487Y6170968D01*
X10264889Y6161275D01*
Y6148723D01*
X10241487Y6139030D01*
X10221392Y6123610D01*
X10205972Y6103514D01*
X10196279Y6080113D01*
X10192972Y6054999D01*
X10196279Y6029886D01*
X10205972Y6006484D01*
X10221392Y5986389D01*
X10241487Y5970969D01*
X10264889Y5961276D01*
X10290002Y5957969D01*
X10315116Y5961276D01*
X10338517Y5970969D01*
X10358613Y5986389D01*
X10374033Y6006484D01*
X10383726Y6029886D01*
X10396278D01*
X10405971Y6006484D01*
X10421391Y5986389D01*
X10441487Y5970969D01*
X10464889Y5961276D01*
X10490002Y5957969D01*
X10515115Y5961276D01*
X10538517Y5970969D01*
X10558612Y5986389D01*
X10574032Y6006484D01*
X10583726Y6029886D01*
X10587032Y6054999D01*
X10583726Y6080113D01*
X10574032Y6103514D01*
X10558612Y6123610D01*
X10538517Y6139030D01*
X10515115Y6148723D01*
Y6161275D01*
X10538517Y6170968D01*
X10558612Y6186388D01*
X10574032Y6206484D01*
X10583726Y6229886D01*
X10587032Y6254999D01*
X10583726Y6280112D01*
X10574032Y6303514D01*
X10558612Y6323609D01*
X10538517Y6339029D01*
X10515115Y6348723D01*
X10490002Y6352029D01*
D02*
G37*
G36*
X9545000Y5708059D02*
X9528031Y5705825D01*
X9512220Y5699275D01*
X9498642Y5688857D01*
X9488223Y5675278D01*
X9481673Y5659467D01*
X9479439Y5642498D01*
X9481673Y5625530D01*
X9488223Y5609718D01*
X9498642Y5596140D01*
X9512220Y5585721D01*
X9528031Y5579171D01*
X9545000Y5576938D01*
X9545596Y5577016D01*
X9766621Y5355996D01*
Y4867499D01*
X9770114Y4849940D01*
X9780059Y4835055D01*
X10034119Y4580996D01*
Y4530002D01*
X10015000D01*
Y4420003D01*
X10145000D01*
Y4530002D01*
X10125882D01*
Y4600001D01*
X10122389Y4617559D01*
X10112443Y4632444D01*
X9858384Y4886503D01*
Y5375001D01*
X9854892Y5392559D01*
X9844946Y5407444D01*
X9610482Y5641903D01*
X9610561Y5642498D01*
X9608327Y5659467D01*
X9601777Y5675278D01*
X9591358Y5688857D01*
X9577780Y5699275D01*
X9561968Y5705825D01*
X9545000Y5708059D01*
D02*
G37*
G36*
X10145000Y4380000D02*
X10015000D01*
Y4270000D01*
X10044314D01*
Y4245002D01*
X10025000D01*
Y4213188D01*
X9815002D01*
X9801346Y4210472D01*
X9789768Y4202736D01*
X9323628Y3736595D01*
X9312499Y3738060D01*
X9295530Y3735826D01*
X9279718Y3729277D01*
X9266140Y3718858D01*
X9255721Y3705280D01*
X9249172Y3689468D01*
X9246938Y3672500D01*
X9249172Y3655531D01*
X9255721Y3639719D01*
X9266140Y3626141D01*
X9279718Y3615723D01*
X9295530Y3609173D01*
X9312499Y3606939D01*
X9329467Y3609173D01*
X9345279Y3615723D01*
X9358857Y3626141D01*
X9369276Y3639719D01*
X9375825Y3655531D01*
X9378059Y3672500D01*
X9376012Y3688046D01*
X9829783Y4141817D01*
X10025000D01*
Y4115002D01*
X10135000D01*
Y4245002D01*
X10115686D01*
Y4270000D01*
X10145000D01*
Y4380000D01*
D02*
G37*
G36*
X9925003Y3892502D02*
X9740003D01*
Y3878188D01*
X9727498D01*
X9721321Y3876959D01*
X9713843Y3875471D01*
X9713842Y3875471D01*
X9702265Y3867735D01*
X9629769Y3795234D01*
X9629769Y3795234D01*
X9622033Y3783656D01*
X9622033Y3783656D01*
X9622033Y3783655D01*
X9619317Y3770000D01*
Y3517500D01*
X9600002D01*
Y3387500D01*
X9710002D01*
Y3416814D01*
X9740003D01*
Y3400001D01*
X9925003D01*
Y3500001D01*
X9740003D01*
Y3488186D01*
X9710002D01*
Y3517500D01*
X9690688D01*
Y3755220D01*
X9731492Y3796027D01*
X9740003Y3792502D01*
Y3792502D01*
X9925003D01*
Y3892502D01*
D02*
G37*
G36*
X7610003Y2675688D02*
X7596346Y2672972D01*
X7585001Y2665391D01*
X7573656Y2672972D01*
X7560000Y2675688D01*
X7546344Y2672972D01*
X7534766Y2665236D01*
X7527031Y2653659D01*
X7524314Y2640003D01*
Y2460002D01*
X7527031Y2446346D01*
X7534766Y2434769D01*
X7546344Y2427033D01*
X7560000Y2424317D01*
X7573656Y2427033D01*
X7585001Y2434614D01*
X7596346Y2427033D01*
X7610003Y2424317D01*
X7623659Y2427033D01*
X7635236Y2434769D01*
X7642972Y2446346D01*
X7645688Y2460002D01*
Y2640003D01*
X7642972Y2653659D01*
X7635236Y2665236D01*
X7623659Y2672972D01*
X7610003Y2675688D01*
D02*
G37*
G36*
X10435001Y2303320D02*
X10401675Y2300038D01*
X10369630Y2290317D01*
X10340097Y2274531D01*
X10314211Y2253287D01*
X10292967Y2227401D01*
X10277181Y2197869D01*
X10267461Y2165823D01*
X10264178Y2132498D01*
X10267461Y2099172D01*
X10277181Y2067127D01*
X10292967Y2037594D01*
X10314211Y2011708D01*
X10340097Y1990464D01*
X10369630Y1974678D01*
X10401675Y1964957D01*
X10435001Y1961675D01*
X10468327Y1964957D01*
X10500372Y1974678D01*
X10529905Y1990464D01*
X10555790Y2011708D01*
X10577034Y2037594D01*
X10592820Y2067127D01*
X10602541Y2099172D01*
X10605823Y2132498D01*
X10602541Y2165823D01*
X10592820Y2197869D01*
X10577034Y2227401D01*
X10555790Y2253287D01*
X10529905Y2274531D01*
X10500372Y2290317D01*
X10468327Y2300038D01*
X10435001Y2303320D01*
D02*
G37*
%LPD*%
D10*
X2429000Y10465151D02*
G03*
X2102700Y10135725I-299002J-30151D01*
G01*
X2419264Y2130000D02*
G03*
X2419264Y2130000I-289264J0D01*
G01*
X10739277Y2132497D02*
G03*
X10739277Y2132497I-304274J0D01*
G01*
X10736775Y10435001D02*
G03*
X10736775Y10435001I-304274J0D01*
G01*
X2103014Y10139165D02*
X2429000Y10465151D01*
D11*
X2752501Y3299998D02*
D03*
X2987502Y3205002D02*
D03*
Y3395000D02*
D03*
Y3774999D02*
D03*
Y3585002D02*
D03*
X2752501Y3679998D02*
D03*
X10142499Y3162498D02*
D03*
X9907499Y3257499D02*
D03*
Y3067502D02*
D03*
X10067498Y3937498D02*
D03*
X9832503Y4032499D02*
D03*
Y3842502D02*
D03*
X5755000Y10252502D02*
D03*
X5519999Y10347498D02*
D03*
Y10157501D02*
D03*
X6669999Y5830001D02*
D03*
X6905000Y5735000D02*
D03*
Y5925002D02*
D03*
X10067498Y3545002D02*
D03*
X9832503Y3639998D02*
D03*
Y3450001D02*
D03*
X10142499Y2777500D02*
D03*
X9907499Y2872501D02*
D03*
Y2682499D02*
D03*
D12*
X3837498Y3010002D02*
D03*
Y2859999D02*
D03*
X6507500Y2792501D02*
D03*
Y2642499D02*
D03*
X2684998Y4047500D02*
D03*
Y3897498D02*
D03*
X9505000Y3574999D02*
D03*
Y3725001D02*
D03*
X1749999Y5567502D02*
D03*
Y5417500D02*
D03*
X2547498Y3832499D02*
D03*
Y3982502D02*
D03*
X1760002Y6082502D02*
D03*
Y6232500D02*
D03*
X2704998Y4615002D02*
D03*
Y4764999D02*
D03*
X10080000Y4475002D02*
D03*
Y4325000D02*
D03*
D15*
X2867503Y2722499D02*
D03*
X2962499Y2957500D02*
D03*
X2772501D02*
D03*
X3245002Y2722499D02*
D03*
X3339998Y2957500D02*
D03*
X3150001D02*
D03*
X4529999Y3032501D02*
D03*
X4720001D02*
D03*
X4625000Y2797500D02*
D03*
X6005002Y2979999D02*
D03*
X6194999D02*
D03*
X6099998Y2744998D02*
D03*
X4152499Y3019999D02*
D03*
X4342501D02*
D03*
X4247500Y2784998D02*
D03*
X2029998Y6112500D02*
D03*
X2125000Y6347501D02*
D03*
X1935002D02*
D03*
X5635000Y2979999D02*
D03*
X5825002D02*
D03*
X5730001Y2744998D02*
D03*
D17*
X3095001Y2532498D02*
D03*
X2944999D02*
D03*
X6277498Y2550003D02*
D03*
X6127501D02*
D03*
X4085001Y2604846D02*
D03*
X4234998D02*
D03*
D19*
X3077500Y3894999D02*
D03*
X3227502D02*
D03*
X6010001Y4025001D02*
D03*
X5859998D02*
D03*
X3492500Y3870000D02*
D03*
X3642502D02*
D03*
X9502501Y2930002D02*
D03*
X9652498D02*
D03*
X5062499Y10157501D02*
D03*
X4912502D02*
D03*
X3027502Y8630001D02*
D03*
X2877500D02*
D03*
X2750002Y8632500D02*
D03*
X2600000D02*
D03*
X9505000Y3452500D02*
D03*
X9655002D02*
D03*
X5190002Y10157501D02*
D03*
X5339999D02*
D03*
X9507499Y2807503D02*
D03*
X9657502D02*
D03*
X6074999Y8079999D02*
D03*
X5925002D02*
D03*
X6202502Y7850002D02*
D03*
X6352499D02*
D03*
X6847500Y2417501D02*
D03*
X6997502D02*
D03*
X9895002Y7520000D02*
D03*
X10044999D02*
D03*
X9895002Y7372502D02*
D03*
X10044999D02*
D03*
X3010002Y4997501D02*
D03*
X2859999D02*
D03*
X10230002Y4180002D02*
D03*
X10080000D02*
D03*
D20*
X6522502Y3470001D02*
D03*
Y3330001D02*
D03*
X7272498Y8012501D02*
D03*
Y7872501D02*
D03*
X5844997Y5922498D02*
D03*
Y5782498D02*
D03*
X6487500Y5759999D02*
D03*
Y5899998D02*
D03*
X6627500Y8130002D02*
D03*
Y7990002D02*
D03*
D21*
X8259999Y3862502D02*
D03*
X8399998D02*
D03*
X6019998Y3705001D02*
D03*
X6159998D02*
D03*
X7227499Y6070001D02*
D03*
X7087499D02*
D03*
X8565002Y3594999D02*
D03*
X8705002D02*
D03*
X9005001Y3582502D02*
D03*
X8865001D02*
D03*
X6320003Y3717498D02*
D03*
X6460002D02*
D03*
X6887500Y3562502D02*
D03*
X7027499D02*
D03*
X7147499Y2549997D02*
D03*
X7007499D02*
D03*
X7015002Y3854999D02*
D03*
X6874998D02*
D03*
X7289998Y3714999D02*
D03*
X7149998D02*
D03*
D24*
X6074999Y5937499D02*
D03*
Y5747502D02*
D03*
X6314999D02*
D03*
Y5842498D02*
D03*
Y5937499D02*
D03*
X6197498Y8195000D02*
D03*
Y8004998D02*
D03*
X6437498D02*
D03*
Y8099999D02*
D03*
Y8195000D02*
D03*
D29*
X2497501Y3135000D02*
D03*
Y3285002D02*
D03*
X3707501Y3382503D02*
D03*
Y3232501D02*
D03*
D42*
X5912500Y1785000D02*
X8885001D01*
X4249999Y2478380D02*
Y2784998D01*
X4347500Y3019999D02*
Y3690000D01*
X4724999Y3032501D02*
Y3740003D01*
X4592498Y3750000D02*
X5082499D01*
X2987502Y3205002D02*
X3337499D01*
X2962499Y2957500D02*
Y3179999D01*
X2987502Y3205002D01*
X3339998Y2957500D02*
Y3202498D01*
X3337499Y3205002D02*
X3339998Y3202498D01*
X4249999Y2478380D02*
X4369999Y2358380D01*
Y2309195D02*
Y2358380D01*
Y2109196D02*
Y2309195D01*
X4249999Y2784998D02*
X4612498D01*
X4247500D02*
X4249999D01*
X4612498D02*
X4625000Y2797500D01*
D43*
X3112500Y2049998D02*
Y2710000D01*
X2867503Y2722499D02*
X2870002Y2720000D01*
X2867503Y2722499D02*
X3245002D01*
X2100001Y3299998D02*
X2752501D01*
X6110000Y2300000D02*
Y2735001D01*
X10067498Y3914999D02*
X10095001Y3942502D01*
X2027499Y5787502D02*
Y6114999D01*
X3239999Y3207502D02*
Y3537499D01*
X5637500Y3195000D02*
X5827502D01*
X5082499Y3750000D02*
X5637500Y3195000D01*
X3192501Y3585002D02*
X3239999Y3537499D01*
X2987502Y3585002D02*
X3192501D01*
X2240001Y3302498D02*
Y3502503D01*
X2752501Y3299998D02*
Y3679998D01*
X10490002Y5455001D02*
X10747502D01*
X2227499Y5787502D02*
X2469998D01*
X6099998Y2744998D02*
X6110000Y2735001D01*
Y2100001D02*
Y2300000D01*
X5730001Y2744998D02*
X6099998D01*
X10142499Y2777500D02*
Y3162498D01*
X10444998D01*
X10459999Y3147502D01*
Y2947502D02*
Y3147502D01*
X10067498Y3545002D02*
Y3914999D01*
X10462499Y3674999D02*
Y3874999D01*
X10395001Y3942502D02*
X10462499Y3874999D01*
X6194999Y2979999D02*
Y3057500D01*
X6057499Y3195000D02*
X6194999Y3057500D01*
X5825002Y2979999D02*
Y3192501D01*
X5827502Y3195000D01*
X6057499D01*
X10095001Y3942502D02*
X10395001D01*
D44*
X1995002Y8850000D02*
Y8914999D01*
X5807502Y4132499D02*
X6205002D01*
X2907497Y3892499D02*
X3077500D01*
X6012500Y2855001D02*
X6440002D01*
X6507500Y2787498D01*
X2604999Y4040002D02*
X5257500D01*
X8395000Y3035000D02*
X8482498D01*
X8395000D02*
X8482503D01*
X9500001Y2802499D02*
Y2942499D01*
X5057501Y10157501D02*
X5190002D01*
X1760002Y5582498D02*
X1855003Y5487502D01*
X9505000Y3452500D02*
Y3579998D01*
X8870000Y3550001D02*
Y3645002D01*
X7022501Y3494999D02*
Y3570000D01*
X6947499Y7529998D02*
X7421250Y8003748D01*
X6087501Y3797498D02*
X6272500Y3612500D01*
X6327501Y3887500D02*
X7029999Y3185003D01*
X5999998Y4020002D02*
X6197498D01*
X6987499Y2410003D02*
X7007499D01*
X8197499Y2750002D02*
X8212501Y2735001D01*
X8210001Y3827501D02*
X8264997Y3882502D01*
X6407841Y3315000D02*
X6712499D01*
X7017502Y6110000D02*
X7147499Y5979998D01*
X6382502Y4307500D02*
X6854998Y3834999D01*
X6889999D01*
X4585000Y7007499D02*
X5859998Y5732501D01*
X6090001Y5952500D02*
Y8152501D01*
X6852498Y2315002D02*
Y2417501D01*
X6347501Y7850002D02*
X6417498D01*
X5917499Y8079999D02*
Y8190001D01*
X6485001Y5747502D02*
X6497498Y5759999D01*
X6609999D02*
X6689999Y5839998D01*
X6585001Y8010002D02*
X6689999Y7905003D01*
X3487501Y3417499D02*
Y3870000D01*
X3647501Y3007502D02*
X4152499D01*
X3639998Y3845001D02*
X3690000Y3894999D01*
X9815002Y4177502D02*
X10080000D01*
X3812032Y2372030D02*
X3907500Y2467498D01*
X3812032Y2062968D02*
Y2372030D01*
Y2062968D02*
X3965001Y1909999D01*
X2647498Y2884744D02*
Y3052501D01*
X2642631Y2879872D02*
X2647498Y2884744D01*
X2642631Y2879872D02*
X2684998Y2837500D01*
X2755001Y3130001D02*
Y3150001D01*
X2795001Y3190001D01*
X2798064D01*
X2862499Y3254436D01*
X2772501Y2837500D02*
X3135000D01*
X2684998D02*
X2772501D01*
Y2957500D01*
X3150001Y2852501D02*
Y2957500D01*
X3135000Y2837500D02*
X3150001Y2852501D01*
X3907500Y2467498D02*
X4011696D01*
X3965001Y1907499D02*
X6290711D01*
X4011696Y2467498D02*
X4169999Y2309195D01*
Y2109196D02*
X4306697Y1972498D01*
X3690000Y3894999D02*
X5207498D01*
X5777499Y3325002D01*
X3375000Y3990000D02*
X5207498D01*
X3277499Y3892499D02*
X3375000Y3990000D01*
X5207498D02*
X5822498Y3375000D01*
X2547498Y3982502D02*
X2604999Y4040002D01*
X5257500D02*
X5872500Y3425002D01*
X5974999Y4307500D02*
X6382502D01*
X5577500Y4704999D02*
X5974999Y4307500D01*
X5577500Y4704999D02*
Y5722498D01*
X6090001Y8152501D02*
X6137499Y8199999D01*
X6074999Y5937499D02*
X6090001Y5952500D01*
X5772501Y7115002D02*
X5927501D01*
X5539999Y7347499D02*
X5772501Y7115002D01*
X7750002Y6263208D02*
X7927503Y6440708D01*
X7750002Y4147500D02*
Y6263208D01*
Y4147500D02*
X7860000Y4037503D01*
X7135002Y7240001D02*
Y7257501D01*
Y7240001D02*
X7272503Y7102500D01*
X5727502Y9929998D02*
X7927503Y7729997D01*
Y6440708D02*
Y7729997D01*
X7067499Y8722502D02*
X7979999Y7810002D01*
Y6397498D02*
Y7810002D01*
X7812502Y6230000D02*
X7979999Y6397498D01*
X7272503Y7102500D02*
X7735001D01*
X1995002Y8850000D02*
X2027499Y8817498D01*
Y8137500D02*
X4132499Y6032500D01*
Y5807502D02*
Y6032500D01*
Y5807502D02*
X5807502Y4132499D01*
X5777499Y3325002D02*
X6114999D01*
X6197844Y3525002D02*
X6407841Y3315000D01*
X6177133Y3474999D02*
X6387130Y3265002D01*
X6156422Y3425002D02*
X6366419Y3215000D01*
X6135710Y3375000D02*
X6345712Y3165003D01*
X5994288Y3525002D02*
X6197844D01*
X5284292Y4234998D02*
X5994288Y3525002D01*
X5939998Y3474999D02*
X6177133D01*
X5280000Y4134998D02*
X5939998Y3474999D01*
X5872500Y3425002D02*
X6156422D01*
X5822498Y3375000D02*
X6135710D01*
X6114999Y3325002D02*
X6325001Y3115000D01*
X6387130Y3265002D02*
X6419632D01*
X6366419Y3215000D02*
X6398920D01*
X6345712Y3165003D02*
X6378209D01*
X6325001Y3115000D02*
X6357498D01*
X2950002Y4234998D02*
X5284292D01*
X5792500Y3797498D02*
X6087501D01*
X6527500Y3612500D02*
X6927499Y3212501D01*
X6272500Y3612500D02*
X6527500D01*
X6357498Y3115000D02*
X6637503Y2835001D01*
X6398920Y3215000D02*
X6678920Y2935000D01*
X6378209Y3165003D02*
X6658209Y2884998D01*
X6419632Y3265002D02*
X6699631Y2984998D01*
X6712499Y3315000D02*
X6942501Y3084998D01*
X6854998Y2312502D02*
X7956078D01*
X6480002D02*
X6854998D01*
X6852498Y2315002D02*
X6854998Y2312502D01*
X5665003Y2855001D02*
X6012500D01*
X6005002Y2862499D02*
X6012500Y2855001D01*
X6005002Y2862499D02*
Y2979999D01*
X2862499Y3254436D02*
Y3490001D01*
X2877500Y3505002D01*
X7772502Y3980002D02*
X7777500Y3974998D01*
Y3902502D02*
Y3974998D01*
X7760000Y3885001D02*
X7777500Y3902502D01*
X7760000Y3670000D02*
Y3885001D01*
X7680000Y3950401D02*
Y4540001D01*
Y3950401D02*
X7710002Y3920399D01*
X8010002Y4055267D02*
Y4642500D01*
Y4055267D02*
X8011033Y4054231D01*
Y3865768D02*
Y4054231D01*
X8010002Y3864732D02*
X8011033Y3865768D01*
X8010002Y3670000D02*
Y3864732D01*
X7959999Y4034556D02*
Y4800001D01*
Y4034556D02*
X7961036Y4033520D01*
Y3886479D02*
Y4033520D01*
X7959999Y3885443D02*
X7961036Y3886479D01*
X7959999Y3670000D02*
Y3885443D01*
X7910002Y4013845D02*
Y4089999D01*
Y4013845D02*
X7911033Y4012814D01*
Y3907191D02*
Y4012814D01*
X7910002Y3906154D02*
X7911033Y3907191D01*
X7910002Y3670000D02*
Y3906154D01*
X7860000Y3993139D02*
Y4037503D01*
Y3993139D02*
X7861036Y3992103D01*
Y3927897D02*
Y3992103D01*
X7860000Y3926865D02*
X7861036Y3927897D01*
X7860000Y3830000D02*
Y3926865D01*
X7147499Y5072502D02*
X7680000Y4540001D01*
X7627498Y3932189D02*
X7660000Y3899687D01*
X7087499Y5055001D02*
X7627498Y4515002D01*
Y3932189D02*
Y4515002D01*
X7515001Y4182501D02*
X7572502Y4125001D01*
Y3916477D02*
Y4125001D01*
Y3916477D02*
X7610003Y3878976D01*
X7515001Y4182501D02*
X7527498D01*
X2879999Y3774999D02*
Y3865001D01*
X2877500Y3777498D02*
X2879999Y3774999D01*
X2987502D01*
X2877500Y3505002D02*
Y3777498D01*
X2879999Y3865001D02*
X2907497Y3892499D01*
X2877500Y3505002D02*
X2987502Y3395000D01*
X5050003Y4689998D02*
X5852500Y3887500D01*
X3774999Y4689998D02*
X5050003D01*
X3652500Y4812502D02*
X3774999Y4689998D01*
X1855003Y4380001D02*
Y5487502D01*
Y4380001D02*
X1992498Y4242501D01*
X1760002Y6334999D02*
X1802501Y6377498D01*
X1760002Y6232500D02*
Y6334999D01*
Y5582498D02*
Y6082502D01*
X2227499Y8914999D02*
X2317501D01*
X2600000Y8632500D01*
X2027499Y8137500D02*
Y8817498D01*
X5862498Y4032499D02*
Y4132499D01*
X5852500Y3887500D02*
X6327501D01*
X6205002Y4132499D02*
X6580002Y3757498D01*
X6290711Y1907499D02*
X6427500Y2044289D01*
Y2180001D01*
X6510000Y2262500D01*
X6285001Y1972498D02*
X6377498Y2065000D01*
X4306697Y1972498D02*
X6285001D01*
X6377498Y2065000D02*
Y2209998D01*
X6480002Y2312502D01*
X9385711Y3055000D02*
X9735002D01*
X9325712Y3115000D02*
X9385711Y3055000D01*
X9305000Y3065003D02*
X9427500Y2942499D01*
X9145001Y3165003D02*
X9427500Y3447501D01*
Y2942499D02*
X9500001D01*
X6722501Y2642499D02*
X6865000Y2784998D01*
X6637503Y2835001D02*
X7275002D01*
X6658209Y2884998D02*
X7275002D01*
X6678920Y2935000D02*
X7275002D01*
X6699631Y2984998D02*
X7275002D01*
X6877502Y3035000D02*
X7275002D01*
X6825000Y3087502D02*
X6877502Y3035000D01*
X6942501Y3084998D02*
X7275002D01*
X6977502Y3135000D02*
X7275002D01*
X6927499Y3184997D02*
X6977502Y3135000D01*
X7029999Y3185003D02*
X7275002D01*
X7050710Y3235000D02*
X7275002D01*
X6580002Y3705708D02*
X7050710Y3235000D01*
X6865000Y2784998D02*
X7275002D01*
X5957499Y5140000D02*
X6387501Y4709998D01*
X5957499Y5140000D02*
Y5867502D01*
X6387501Y4709998D02*
X7217501D01*
X5635000Y2884998D02*
Y2967502D01*
X7460000Y2697500D02*
X7512502Y2750002D01*
X7612502Y1982500D02*
X7642499Y2012498D01*
X7557501Y3472500D02*
X7560000Y3474999D01*
X7427498Y2460000D02*
X7460000Y2492502D01*
Y2550003D02*
Y2697500D01*
X7415002Y3364291D02*
Y3365002D01*
X7112498Y1982500D02*
Y2062500D01*
X7240001Y3485002D02*
X7275002D01*
X6862501Y1982500D02*
Y2055002D01*
X6417498Y7850002D02*
X6437498Y7870002D01*
X5957499Y5867502D02*
X6027501Y5937499D01*
X3867501Y8590001D02*
X4012499D01*
X8630001Y2664998D02*
Y2732502D01*
X8705002Y3542502D02*
Y3594999D01*
X8472500Y4185001D02*
X8499998Y4157502D01*
X8210001Y2424999D02*
Y2550003D01*
Y3472500D02*
Y3670000D01*
X8059999Y2416419D02*
Y2550003D01*
X7560000Y3474999D02*
Y3670000D01*
Y3757498D01*
X7362500Y1787500D02*
Y1982500D01*
X7460000Y2492502D02*
Y2550003D01*
Y3670000D02*
Y3790000D01*
X7385710Y3335000D02*
X7415002Y3364291D01*
X7112498Y2062500D02*
X7175002Y2125000D01*
X7147499Y2549997D02*
X7237501Y2460000D01*
X6352499Y8004998D02*
X6437498D01*
X6317498Y8039999D02*
Y8239999D01*
Y8039999D02*
X6352499Y8004998D01*
X6137499Y8199999D02*
X6165002D01*
X5917499Y8190001D02*
X6047501Y8319999D01*
X2122500Y8212501D02*
Y8362498D01*
X8372500Y5212502D02*
Y6260003D01*
X7017502Y6110000D02*
Y7395002D01*
X6437498Y7870002D02*
Y8004998D01*
X4189999Y8707501D02*
Y9367500D01*
X8472500Y4185001D02*
Y6167501D01*
X7147499Y5072502D02*
Y5979998D01*
X5859998Y4749998D02*
Y5732501D01*
X4585000Y7007499D02*
Y8312501D01*
X4289999Y7009999D02*
Y8312501D01*
X8175000Y2235002D02*
X8347502D01*
X8395000Y2884998D02*
X8570001D01*
X8395000Y2835001D02*
X8527501D01*
X8395000Y2984998D02*
X8545002D01*
X8482503Y3035000D02*
X8565708D01*
X7497501Y2032498D02*
X7560000Y2095002D01*
X7487498Y2022500D02*
X7497501Y2032498D01*
X7487498Y1982500D02*
Y2022500D01*
X7237501Y2460000D02*
X7427498D01*
X7415002Y3365002D02*
X7522500Y3472500D01*
X7022501Y3494999D02*
X7082500Y3434999D01*
X6027501Y5937499D02*
X6074999D01*
X6237498Y8319999D02*
X6317498Y8239999D01*
X6047501Y8319999D02*
X6237498D01*
X9300002Y6995003D02*
X9417502D01*
X8212501Y2735001D02*
X8395000D01*
X8110002Y2395713D02*
Y2550003D01*
X8527501Y2835001D02*
X8630001Y2732502D01*
X7275002Y3335000D02*
X7385710D01*
X7812502Y4187500D02*
X7910002Y4089999D01*
X7007499Y2410003D02*
X7147499Y2549997D01*
X6497498Y5759999D02*
X6609999D01*
X6460002Y8010002D02*
X6585001D01*
X4012499Y8590001D02*
X4289999Y8312501D01*
X8870000Y3645002D02*
X9520001Y4294998D01*
X6862501Y2055002D02*
X7020001Y2212503D01*
X6689999Y5839998D02*
Y7905003D01*
X4189999Y8707501D02*
X4585000Y8312501D01*
X7642499Y2012498D02*
X8432500D01*
X9520001Y4294998D02*
X9907499D01*
X9527499Y4417502D02*
X9867499D01*
X7082500Y3434999D02*
X7275002D01*
X6314999Y5747502D02*
X6485001D01*
X5412501Y9929998D02*
X5727502D01*
X7959999Y4800001D02*
X8372500Y5212502D01*
X7175002Y2125000D02*
X7344999D01*
X7017502Y7395002D02*
X7509998Y7887503D01*
X8705002Y3594999D02*
X9527499Y4417502D01*
X7997500Y2212503D02*
X8210001Y2424999D01*
X8472500Y6167501D02*
X9300002Y6995003D01*
X8372500Y6260003D02*
X9132499Y7020001D01*
X6889999Y3834999D02*
X7240001Y3485002D01*
X2122500Y8212501D02*
X4207500Y6127501D01*
X3882502Y9675002D02*
X4189999Y9367500D01*
X7560000Y2095002D02*
X8359999D01*
X7020001Y2212503D02*
X7997500D01*
X4289999Y7009999D02*
X5577500Y5722498D01*
X1992498Y4242501D02*
X2384999D01*
X1802501Y6377498D02*
X1905000D01*
X1935002Y6347501D01*
X2384999Y4242501D02*
X2492502Y4134998D01*
X5280000D01*
X2547498Y3507501D02*
Y3832499D01*
X6507500Y2642499D02*
X6722501D01*
X3232501Y3892499D02*
X3277499D01*
X5635000Y2884998D02*
X5665003Y2855001D01*
X7956078Y2312502D02*
X8059999Y2416419D01*
X6510000Y2262500D02*
X7976789D01*
X8110002Y2395713D01*
X8432500Y2012498D02*
X8819998Y2400000D01*
Y2780711D01*
X8565708Y3035000D02*
X8819998Y2780711D01*
X8359999Y2095002D02*
X8770000Y2504999D01*
Y2760000D01*
X8545002Y2984998D02*
X8770000Y2760000D01*
X8347502Y2235002D02*
X8719998Y2607503D01*
Y2735001D01*
X8570001Y2884998D02*
X8719998Y2735001D01*
X8010002Y4642500D02*
X8077500Y4709998D01*
X8210001Y3670000D02*
Y3827501D01*
X8110002Y4005001D02*
X8175000Y4069999D01*
X8110002Y3670000D02*
Y4005001D01*
X7860000Y3670000D02*
Y3830000D01*
X7610003Y3670000D02*
Y3878976D01*
X7660000Y3670000D02*
Y3899687D01*
X7710002Y3670000D02*
Y3920399D01*
X6947499Y6059998D02*
Y7529998D01*
Y6059998D02*
X7087499Y5919998D01*
Y5055001D02*
Y5919998D01*
X7812502Y4187500D02*
Y6230000D01*
X6927499Y3184997D02*
Y3212501D01*
X6580002Y3705708D02*
Y3757498D01*
X6345001Y4247500D02*
X7022501Y3570000D01*
X6270000Y4187500D02*
X6667500Y3790000D01*
X4207500Y5839998D02*
Y6127501D01*
Y5839998D02*
X5859998Y4187500D01*
X6270000D01*
X5217500Y10124999D02*
X5412501Y9929998D01*
X5339999Y10157501D02*
X5519999D01*
X5859998Y4749998D02*
X6107501Y4502501D01*
X6747500D01*
X7460000Y3790000D01*
X9427500Y3447501D02*
X9500001D01*
X9505000Y3452500D01*
X9655002D02*
X9829998D01*
X9832503Y3450001D01*
X9655002Y3452500D02*
Y3770000D01*
X9727499Y3842502D01*
X9832503D01*
X4152499Y2935000D02*
X4182501Y2904998D01*
X4502501D01*
X4529999Y2932501D01*
Y3032501D01*
X4152499Y2935000D02*
Y3007502D01*
Y3019999D01*
X9657502Y2807503D02*
X9692498D01*
X9817501Y2682499D01*
X9907499D01*
X10022500Y2797500D01*
Y2997500D01*
X9952502Y3067502D02*
X10022500Y2997500D01*
X9907499Y3067502D02*
X9952502D01*
X8885001Y3337499D02*
X8990000D01*
X8800003Y3277499D02*
X8807501D01*
X8837498Y3385002D02*
X8885001Y3337499D01*
X8742502Y3335000D02*
X8800003Y3277499D01*
X8395000Y3485002D02*
X8647501D01*
X8705002Y3542502D01*
X8395000Y3434999D02*
X8754999D01*
X8870000Y3550001D01*
X8395000Y3385002D02*
X8837498D01*
X8395000Y3335000D02*
X8742502D01*
X8612500Y3065003D02*
X9305000D01*
X8633211Y3115000D02*
X9325712D01*
X8653922Y3165003D02*
X9145001D01*
X8395000Y3084998D02*
X8592500D01*
X8612500Y3065003D01*
X8395000Y3135000D02*
X8613211D01*
X8633211Y3115000D01*
X8395000Y3185003D02*
X8633922D01*
X8653922Y3165003D01*
X8395000Y3285002D02*
X8587501D01*
X8617499Y3255000D01*
X8690000D01*
X3147502Y4340001D02*
X5250002D01*
X5792500Y3797498D01*
X3147502Y4997501D02*
X3499998Y5350002D01*
Y6290000D01*
X3010002Y4997501D02*
X3147502D01*
X2792501D02*
X2859999D01*
X2704998Y4909998D02*
X2792501Y4997501D01*
X2704998Y4764999D02*
Y4877501D01*
Y4909998D01*
X10080000Y4180002D02*
Y4325000D01*
X9312499Y3674999D02*
X9815002Y4177502D01*
X9312499Y3672500D02*
Y3674999D01*
D45*
X5362499Y10559999D02*
X6090001D01*
X10757499Y2942499D02*
Y4197502D01*
X9705000Y7192498D02*
X10404998D01*
X10757499Y4197502D02*
Y5464998D01*
X10695000Y2600000D02*
X10757499Y2662499D01*
X9897501Y1785000D02*
X9980000Y1867499D01*
Y2322500D02*
X10257500Y2600000D01*
X10757499Y5464998D02*
Y6840002D01*
X9980000Y1867499D02*
Y2322500D01*
X8885001Y1785000D02*
X9897501D01*
X10257500Y2600000D02*
X10695000D01*
X9012499Y7192503D02*
X9705000D01*
X10757499Y2662499D02*
Y2942499D01*
X10404998Y7192498D02*
X10757499Y6840002D01*
D46*
X1772498Y8754999D02*
X1932498D01*
X4462501Y8954999D02*
Y10767502D01*
X6507500Y5210002D02*
X6925000Y5627502D01*
Y5745002D01*
X7297501Y3647501D02*
Y3714999D01*
X10737499Y4177502D02*
X10757499Y4197502D01*
X9545000Y5642498D02*
X9812503Y5375001D01*
X4462501Y10767502D02*
X4487499Y10792501D01*
X7512502Y2750002D02*
X8197499D01*
X6230000Y4637502D02*
X7109998D01*
X7395002Y4352498D01*
Y4172499D02*
Y4352498D01*
X8210001Y2737500D02*
Y3472500D01*
X7472502D02*
X7522500D01*
X7557501D01*
X7297501Y3647501D02*
X7472502Y3472500D01*
X7557501D02*
X8210001D01*
X6507500Y4884999D02*
Y5210002D01*
X9085001Y7520000D02*
X9877501D01*
X8882502Y7722499D02*
X9085001Y7520000D01*
X9892502Y7200001D02*
Y7370003D01*
X10192502Y7377501D02*
X10197501Y7372502D01*
X10044999D02*
X10187498D01*
X10197501D02*
Y7477501D01*
X10155001Y7520000D02*
X10197501Y7477501D01*
X10044999Y7520000D02*
X10155001D01*
X10187498Y7372502D02*
X10192502Y7377501D01*
X7690002Y8602502D02*
X8397499D01*
X8439998Y8559998D01*
X9812503Y4867499D02*
Y5375001D01*
Y4867499D02*
X10080000Y4600001D01*
Y4475002D02*
Y4600001D01*
X10230002Y4180002D02*
X10735000D01*
X10737499Y4177502D01*
X9705000Y7192498D02*
X9717502Y7180001D01*
X9745000D01*
X1772498Y8714999D02*
X1812498Y8754999D01*
D47*
X5722498Y10252502D02*
X5985002D01*
X7612502Y9047500D02*
Y10447503D01*
X10747502Y5455001D02*
X10757499Y5464998D01*
X8885001Y1785000D02*
X8967500Y1867499D01*
Y2162500D01*
X7252498Y10807502D02*
X7612502Y10447503D01*
X6090001Y10722498D02*
X6174999Y10807502D01*
X6090001Y10559999D02*
Y10722498D01*
X5985002Y10252502D02*
X6090001Y10357500D01*
X6174999Y10807502D02*
X7252498D01*
X10752501Y2947502D02*
X10757499Y2942499D01*
D48*
X2567498Y4555002D02*
X3677498D01*
X1772498Y7832501D02*
Y9595002D01*
X2937500Y10759999D02*
X5162499D01*
X5362499Y10559999D01*
X2469998Y5787502D02*
X2487498Y5770001D01*
Y7117502D01*
X10659999Y2947502D02*
X10752501D01*
X2487498Y4635002D02*
Y5770001D01*
Y4635002D02*
X2567498Y4555002D01*
X1772498Y9595002D02*
X2937500Y10759999D01*
X1772498Y7832501D02*
X2487498Y7117502D01*
D51*
X3337499Y3205002D02*
X3862502D01*
X4592498Y3750000D02*
X4715002D01*
X3862502Y3205002D02*
X4345000Y3687501D01*
X4407499Y3750000D02*
X4592498D01*
X4715002D02*
X4724999Y3740003D01*
X4347500Y3690000D02*
X4407499Y3750000D01*
D52*
X7025000Y4045001D02*
X7289998Y3780003D01*
Y3714999D02*
Y3780003D01*
D53*
X6192500Y5865002D02*
Y7982499D01*
X5902498Y4247500D02*
X6345001D01*
X4372498Y5777499D02*
X5902498Y4247500D01*
X4372498Y5777499D02*
Y6159998D01*
X7142262Y4804761D02*
X7145000Y4807499D01*
X2817500Y8632500D02*
X2875001D01*
X2750002D02*
X2817500D01*
Y8539998D02*
Y8632500D01*
X4122501Y6410000D02*
Y7235002D01*
X2817500Y8539998D02*
X4122501Y7235002D01*
X6997502Y5180000D02*
Y5539999D01*
X8092501Y4309999D02*
X8107502D01*
X6074999Y5747502D02*
X6192500Y5865002D01*
X4122501Y6410000D02*
X4372498Y6159998D01*
X6997502Y5539999D02*
X7027499Y5570002D01*
Y5812500D01*
X6914998Y5925002D02*
X7027499Y5812500D01*
X6074999Y5122499D02*
Y5747502D01*
Y5122499D02*
X6392738Y4804761D01*
X7142262D01*
D55*
X2130000Y2130000D02*
D03*
X10435001Y2132498D02*
D03*
X10435000Y10435001D02*
D03*
X2129998D02*
D03*
D56*
X3970000Y2109196D02*
D03*
Y2309195D02*
D03*
X4169999Y2109196D02*
D03*
Y2309195D02*
D03*
X4369999Y2109196D02*
D03*
Y2309195D02*
D03*
X4569998Y2109196D02*
D03*
Y2309195D02*
D03*
X4769998Y2109196D02*
D03*
Y2309195D02*
D03*
X2710002Y2049998D02*
D03*
Y2249998D02*
D03*
X2910002Y2049998D02*
D03*
Y2249998D02*
D03*
X3110001Y2049998D02*
D03*
Y2249998D02*
D03*
X3310001Y2049998D02*
D03*
Y2249998D02*
D03*
X3510001Y2049998D02*
D03*
Y2249998D02*
D03*
X2240001Y3102498D02*
D03*
X2040001D02*
D03*
X2240001Y3302498D02*
D03*
X2040001D02*
D03*
X2240001Y3502503D02*
D03*
X2040001D02*
D03*
X2240001Y3702502D02*
D03*
X2040001D02*
D03*
X2240001Y3902502D02*
D03*
X2040001D02*
D03*
X2184999Y8914999D02*
D03*
Y9114998D02*
D03*
X1985000Y8914999D02*
D03*
Y9114998D02*
D03*
X2760000Y8915999D02*
D03*
Y9169999D02*
D03*
Y9423999D02*
D03*
X8967500Y2162500D02*
D03*
Y2362500D02*
D03*
X9167500Y2162500D02*
D03*
Y2362500D02*
D03*
X9367500Y2162500D02*
D03*
Y2362500D02*
D03*
X9567499Y2162500D02*
D03*
Y2362500D02*
D03*
X9767499Y2162500D02*
D03*
Y2362500D02*
D03*
X10459999Y3147502D02*
D03*
Y2947502D02*
D03*
X10659999Y3147502D02*
D03*
Y2947502D02*
D03*
X2777500Y9824999D02*
D03*
Y10077501D02*
D03*
X2027499Y4987498D02*
D03*
Y5187498D02*
D03*
Y5587502D02*
D03*
X2227499Y5187498D02*
D03*
X2027499Y5387503D02*
D03*
X2227499Y4987498D02*
D03*
Y5387503D02*
D03*
X2027499Y5787502D02*
D03*
X2227499Y5587502D02*
D03*
Y5787502D02*
D03*
X10490002Y5455001D02*
D03*
X10290002D02*
D03*
X10490002Y5655000D02*
D03*
X10290002D02*
D03*
X10490002Y5855000D02*
D03*
X10290002D02*
D03*
X10490002Y6054999D02*
D03*
X10290002D02*
D03*
X10490002Y6254999D02*
D03*
X10290002D02*
D03*
X5310002Y2300000D02*
D03*
Y2100001D02*
D03*
X5510002Y2300000D02*
D03*
Y2100001D02*
D03*
X5710001Y2300000D02*
D03*
Y2100001D02*
D03*
X5910001Y2300000D02*
D03*
Y2100001D02*
D03*
X6110000Y2300000D02*
D03*
Y2100001D02*
D03*
X3439998Y10432501D02*
D03*
X3692500D02*
D03*
X6889999Y10557500D02*
D03*
Y10357500D02*
D03*
X6689999Y10557500D02*
D03*
Y10357500D02*
D03*
X6490000Y10557500D02*
D03*
Y10357500D02*
D03*
X6290000Y10557500D02*
D03*
Y10357500D02*
D03*
X6090001Y10557500D02*
D03*
Y10357500D02*
D03*
X10462499Y3874999D02*
D03*
Y3674999D02*
D03*
X10662498Y3874999D02*
D03*
Y3674999D02*
D03*
X8124998Y5850001D02*
D03*
Y8090002D02*
D03*
X4975001D02*
D03*
Y5850001D02*
D03*
D57*
X8594999Y10310002D02*
D03*
X4212499Y10387498D02*
D03*
D58*
X7612502Y1982500D02*
D03*
X7487498D02*
D03*
X7362500D02*
D03*
X7237501D02*
D03*
X7112498D02*
D03*
X6862501D02*
D03*
X6737502D02*
D03*
D59*
X6987499D02*
D03*
D60*
X2647498Y3052501D02*
D03*
X2755001Y3130001D02*
D03*
X3647501Y3007502D02*
D03*
X5067498Y3750000D02*
D03*
X4964999D02*
D03*
X4687499Y3747501D02*
D03*
X4782500Y3750000D02*
D03*
X4592498D02*
D03*
X4869998D02*
D03*
X8882502Y7722499D02*
D03*
X8439998Y8559998D02*
D03*
X9545000Y5642498D02*
D03*
X7145000Y4807499D02*
D03*
X7135002Y7257501D02*
D03*
X7772502Y3980002D02*
D03*
X7515001Y4182501D02*
D03*
X6377498Y2850002D02*
D03*
X1932498Y8754999D02*
D03*
X6197498Y4020002D02*
D03*
X6230000Y4637502D02*
D03*
X8990000Y3337499D02*
D03*
X7509998Y7887503D02*
D03*
X7420000Y8004998D02*
D03*
X9867499Y4417502D02*
D03*
X7344999Y2125000D02*
D03*
X6667500Y3790000D02*
D03*
X5912500Y1785000D02*
D03*
X8630001Y2664998D02*
D03*
X7395002Y4172499D02*
D03*
X5539999Y7347499D02*
D03*
X8175000Y2235002D02*
D03*
X9132499Y7020001D02*
D03*
X3867501Y8590001D02*
D03*
X3652500Y4812502D02*
D03*
X4462501Y8954999D02*
D03*
X7612502Y9047500D02*
D03*
X9010000Y7195002D02*
D03*
X9907499Y4294998D02*
D03*
X9417502Y6995003D02*
D03*
X2122500Y8362498D02*
D03*
X7217501Y4709998D02*
D03*
X3882502Y9675002D02*
D03*
X8499998Y4157502D02*
D03*
X7067499Y8722502D02*
D03*
X8107502Y4309999D02*
D03*
X8077500Y4709998D02*
D03*
X6997502Y5180000D02*
D03*
X6825000Y3087502D02*
D03*
X3487501Y3417499D02*
D03*
X2950002Y4234998D02*
D03*
X2547498Y3507501D02*
D03*
X8175000Y4069999D02*
D03*
X9735002Y3055000D02*
D03*
X6507500Y4884999D02*
D03*
X6849999Y5555000D02*
D03*
X5927501Y7115002D02*
D03*
X7735001Y7102500D02*
D03*
X8807501Y3277499D02*
D03*
X8690000Y3255000D02*
D03*
X10197501Y7372502D02*
D03*
X7690002Y8602502D02*
D03*
X3147502Y4340001D02*
D03*
X3499998Y6290000D02*
D03*
X2704998Y4877501D02*
D03*
X9745000Y7180001D02*
D03*
X6357498Y1785000D02*
D03*
X6239998D02*
D03*
X6132500D02*
D03*
X6027501D02*
D03*
X7025000Y4045001D02*
D03*
X7178751Y3898753D02*
D03*
X7102500Y3970000D02*
D03*
X9312499Y3672500D02*
D03*
X3305002Y4552498D02*
D03*
X3422498Y4555002D02*
D03*
X3542502Y4552498D02*
D03*
X3677498D02*
D03*
D69*
X8395000Y3434999D02*
D03*
Y3485002D02*
D03*
Y3335000D02*
D03*
Y3385002D02*
D03*
Y3135000D02*
D03*
Y3185003D02*
D03*
Y3084998D02*
D03*
Y3285002D02*
D03*
Y3235000D02*
D03*
Y2984998D02*
D03*
Y3035000D02*
D03*
Y2784998D02*
D03*
Y2835001D02*
D03*
Y2735001D02*
D03*
Y2935000D02*
D03*
Y2884998D02*
D03*
X7275002Y3485002D02*
D03*
Y3434999D02*
D03*
Y3235000D02*
D03*
Y3285002D02*
D03*
Y3185003D02*
D03*
Y3385002D02*
D03*
Y3335000D02*
D03*
Y2984998D02*
D03*
Y3035000D02*
D03*
Y2935000D02*
D03*
Y3135000D02*
D03*
Y3084998D02*
D03*
Y2884998D02*
D03*
Y2835001D02*
D03*
Y2784998D02*
D03*
Y2735001D02*
D03*
D70*
X8210001Y3670000D02*
D03*
X8159999D02*
D03*
X8059999D02*
D03*
X8010002D02*
D03*
X8110002D02*
D03*
X7910002D02*
D03*
X7959999D02*
D03*
X7860000D02*
D03*
X7810002D02*
D03*
X7760000D02*
D03*
X7910002Y2550003D02*
D03*
X7860000D02*
D03*
X7959999D02*
D03*
X7760000D02*
D03*
X7810002D02*
D03*
X8159999D02*
D03*
X8110002D02*
D03*
X8210001D02*
D03*
X8010002D02*
D03*
X8059999D02*
D03*
X7660000Y3670000D02*
D03*
X7610003D02*
D03*
X7710002D02*
D03*
X7460000D02*
D03*
X7560000D02*
D03*
X7509998D02*
D03*
X7660000Y2550003D02*
D03*
X7710002D02*
D03*
X7560000D02*
D03*
X7509998D02*
D03*
X7610003D02*
D03*
X7460000D02*
D03*
D71*
X8059999Y4277502D02*
X8092501Y4309999D01*
X8059999Y3670000D02*
Y4277502D01*
%TF.MD5,0c8592d044ba7f2ea73d3e73bc8e5012*%
M02*
