%TF.GenerationSoftware,Altium Limited,Altium Designer,18.1.7 (191)*%
G04 Layer_Color=128*
%FSLAX45Y45*%
%MOMM*%
%TF.FileFunction,Paste,Bot*%
%TF.Part,Single*%
G01*
G75*
%TA.AperFunction,SMDPad,CuDef*%
%ADD11R,1.45000X0.60000*%
%ADD12R,0.90000X0.70000*%
%ADD15R,0.60000X1.45000*%
%ADD17R,1.10000X1.40000*%
%ADD19R,0.70000X0.90000*%
%ADD20R,0.90000X0.80000*%
%ADD21R,0.80000X0.90000*%
%ADD24R,1.10000X0.65000*%
%ADD29R,1.40000X1.10000*%
%ADD69O,2.10000X0.30000*%
%ADD70O,0.30000X2.10000*%
D11*
X2752501Y3299998D02*
D03*
X2987502Y3205002D02*
D03*
Y3395000D02*
D03*
Y3774999D02*
D03*
Y3585002D02*
D03*
X2752501Y3679998D02*
D03*
X10142499Y3162498D02*
D03*
X9907499Y3257499D02*
D03*
Y3067502D02*
D03*
X10067498Y3937498D02*
D03*
X9832503Y4032499D02*
D03*
Y3842502D02*
D03*
X5755000Y10252502D02*
D03*
X5519999Y10347498D02*
D03*
Y10157501D02*
D03*
X6669999Y5830001D02*
D03*
X6905000Y5735000D02*
D03*
Y5925002D02*
D03*
X10067498Y3545002D02*
D03*
X9832503Y3639998D02*
D03*
Y3450001D02*
D03*
X10142499Y2777500D02*
D03*
X9907499Y2872501D02*
D03*
Y2682499D02*
D03*
D12*
X3837498Y3010002D02*
D03*
Y2859999D02*
D03*
X6507500Y2792501D02*
D03*
Y2642499D02*
D03*
X2684998Y4047500D02*
D03*
Y3897498D02*
D03*
X9505000Y3574999D02*
D03*
Y3725001D02*
D03*
X1749999Y5567502D02*
D03*
Y5417500D02*
D03*
X2547498Y3832499D02*
D03*
Y3982502D02*
D03*
X1760002Y6082502D02*
D03*
Y6232500D02*
D03*
X2704998Y4615002D02*
D03*
Y4764999D02*
D03*
X10080000Y4475002D02*
D03*
Y4325000D02*
D03*
D15*
X2867503Y2722499D02*
D03*
X2962499Y2957500D02*
D03*
X2772501D02*
D03*
X3245002Y2722499D02*
D03*
X3339998Y2957500D02*
D03*
X3150001D02*
D03*
X4529999Y3032501D02*
D03*
X4720001D02*
D03*
X4625000Y2797500D02*
D03*
X6005002Y2979999D02*
D03*
X6194999D02*
D03*
X6099998Y2744998D02*
D03*
X4152499Y3019999D02*
D03*
X4342501D02*
D03*
X4247500Y2784998D02*
D03*
X2029998Y6112500D02*
D03*
X2125000Y6347501D02*
D03*
X1935002D02*
D03*
X5635000Y2979999D02*
D03*
X5825002D02*
D03*
X5730001Y2744998D02*
D03*
D17*
X3095001Y2532498D02*
D03*
X2944999D02*
D03*
X6277498Y2550003D02*
D03*
X6127501D02*
D03*
X4085001Y2604846D02*
D03*
X4234998D02*
D03*
D19*
X3077500Y3894999D02*
D03*
X3227502D02*
D03*
X6010001Y4025001D02*
D03*
X5859998D02*
D03*
X3492500Y3870000D02*
D03*
X3642502D02*
D03*
X9502501Y2930002D02*
D03*
X9652498D02*
D03*
X5062499Y10157501D02*
D03*
X4912502D02*
D03*
X3027502Y8630001D02*
D03*
X2877500D02*
D03*
X2750002Y8632500D02*
D03*
X2600000D02*
D03*
X9505000Y3452500D02*
D03*
X9655002D02*
D03*
X5190002Y10157501D02*
D03*
X5339999D02*
D03*
X9507499Y2807503D02*
D03*
X9657502D02*
D03*
X6074999Y8079999D02*
D03*
X5925002D02*
D03*
X6202502Y7850002D02*
D03*
X6352499D02*
D03*
X6847500Y2417501D02*
D03*
X6997502D02*
D03*
X9895002Y7520000D02*
D03*
X10044999D02*
D03*
X9895002Y7372502D02*
D03*
X10044999D02*
D03*
X3010002Y4997501D02*
D03*
X2859999D02*
D03*
X10230002Y4180002D02*
D03*
X10080000D02*
D03*
D20*
X6522502Y3470001D02*
D03*
Y3330001D02*
D03*
X7272498Y8012501D02*
D03*
Y7872501D02*
D03*
X5844997Y5922498D02*
D03*
Y5782498D02*
D03*
X6487500Y5759999D02*
D03*
Y5899998D02*
D03*
X6627500Y8130002D02*
D03*
Y7990002D02*
D03*
D21*
X8259999Y3862502D02*
D03*
X8399998D02*
D03*
X6019998Y3705001D02*
D03*
X6159998D02*
D03*
X7227499Y6070001D02*
D03*
X7087499D02*
D03*
X8565002Y3594999D02*
D03*
X8705002D02*
D03*
X9005001Y3582502D02*
D03*
X8865001D02*
D03*
X6320003Y3717498D02*
D03*
X6460002D02*
D03*
X6887500Y3562502D02*
D03*
X7027499D02*
D03*
X7147499Y2549997D02*
D03*
X7007499D02*
D03*
X7015002Y3854999D02*
D03*
X6874998D02*
D03*
X7289998Y3714999D02*
D03*
X7149998D02*
D03*
D24*
X6074999Y5937499D02*
D03*
Y5747502D02*
D03*
X6314999D02*
D03*
Y5842498D02*
D03*
Y5937499D02*
D03*
X6197498Y8195000D02*
D03*
Y8004998D02*
D03*
X6437498D02*
D03*
Y8099999D02*
D03*
Y8195000D02*
D03*
D29*
X2497501Y3135000D02*
D03*
Y3285002D02*
D03*
X3707501Y3382503D02*
D03*
Y3232501D02*
D03*
D69*
X8395000Y3434999D02*
D03*
Y3485002D02*
D03*
Y3335000D02*
D03*
Y3385002D02*
D03*
Y3135000D02*
D03*
Y3185003D02*
D03*
Y3084998D02*
D03*
Y3285002D02*
D03*
Y3235000D02*
D03*
Y2984998D02*
D03*
Y3035000D02*
D03*
Y2784998D02*
D03*
Y2835001D02*
D03*
Y2735001D02*
D03*
Y2935000D02*
D03*
Y2884998D02*
D03*
X7275002Y3485002D02*
D03*
Y3434999D02*
D03*
Y3235000D02*
D03*
Y3285002D02*
D03*
Y3185003D02*
D03*
Y3385002D02*
D03*
Y3335000D02*
D03*
Y2984998D02*
D03*
Y3035000D02*
D03*
Y2935000D02*
D03*
Y3135000D02*
D03*
Y3084998D02*
D03*
Y2884998D02*
D03*
Y2835001D02*
D03*
Y2784998D02*
D03*
Y2735001D02*
D03*
D70*
X8210001Y3670000D02*
D03*
X8159999D02*
D03*
X8059999D02*
D03*
X8010002D02*
D03*
X8110002D02*
D03*
X7910002D02*
D03*
X7959999D02*
D03*
X7860000D02*
D03*
X7810002D02*
D03*
X7760000D02*
D03*
X7910002Y2550003D02*
D03*
X7860000D02*
D03*
X7959999D02*
D03*
X7760000D02*
D03*
X7810002D02*
D03*
X8159999D02*
D03*
X8110002D02*
D03*
X8210001D02*
D03*
X8010002D02*
D03*
X8059999D02*
D03*
X7660000Y3670000D02*
D03*
X7610003D02*
D03*
X7710002D02*
D03*
X7460000D02*
D03*
X7560000D02*
D03*
X7509998D02*
D03*
X7660000Y2550003D02*
D03*
X7710002D02*
D03*
X7560000D02*
D03*
X7509998D02*
D03*
X7610003D02*
D03*
X7460000D02*
D03*
%TF.MD5,d4aa99da1254dbe7b8469ebc9a4735f5*%
M02*
