%TF.GenerationSoftware,Altium Limited,Altium Designer,18.1.7 (191)*%
G04 Layer_Color=8388736*
%FSLAX43Y43*%
%MOMM*%
%TF.FileFunction,Soldermask,Top*%
%TF.Part,Single*%
G01*
G75*
%TA.AperFunction,SMDPad,CuDef*%
%ADD78R,0.903X1.103*%
%ADD79R,1.653X0.803*%
%ADD80R,1.603X1.303*%
%ADD81R,0.803X1.653*%
%ADD82R,1.103X0.903*%
%ADD83R,1.303X1.603*%
%ADD84R,1.303X0.853*%
%ADD85R,1.003X1.103*%
%ADD86R,1.103X1.003*%
%TA.AperFunction,ComponentPad*%
%ADD87C,1.727*%
%TA.AperFunction,ViaPad*%
%ADD88C,2.203*%
%ADD89C,3.203*%
%TA.AperFunction,ComponentPad*%
%ADD90C,1.153*%
%ADD91C,1.103*%
%TA.AperFunction,ViaPad*%
%ADD92C,1.103*%
%TA.AperFunction,SMDPad,CuDef*%
%ADD96R,4.203X1.953*%
%ADD97O,0.903X1.903*%
%ADD98R,0.853X1.303*%
%ADD99R,2.153X2.103*%
%ADD100O,0.903X2.703*%
%ADD101O,2.703X0.903*%
%ADD102R,3.903X3.503*%
%ADD103R,3.503X8.403*%
%ADD104R,8.403X3.503*%
%ADD105R,1.303X2.803*%
%ADD106R,1.703X3.003*%
%ADD107R,3.003X1.703*%
%ADD108R,6.503X2.403*%
%ADD109R,1.803X2.403*%
%ADD110R,2.403X1.803*%
%ADD111R,3.503X3.903*%
%ADD112R,1.053X0.653*%
%ADD113R,0.653X1.053*%
%ADD114R,1.303X1.903*%
%ADD115R,1.903X1.303*%
G04:AMPARAMS|DCode=116|XSize=1.903mm|YSize=1.303mm|CornerRadius=0mm|HoleSize=0mm|Usage=FLASHONLY|Rotation=45.000|XOffset=0mm|YOffset=0mm|HoleType=Round|Shape=Rectangle|*
%AMROTATEDRECTD116*
4,1,4,-0.212,-1.134,-1.134,-0.212,0.212,1.134,1.134,0.212,-0.212,-1.134,0.0*
%
%ADD116ROTATEDRECTD116*%

%ADD117R,2.803X1.303*%
D78*
X51750Y63850D02*
D03*
X53250D02*
D03*
X53225Y65400D02*
D03*
X51725D02*
D03*
X71575Y62050D02*
D03*
X73075D02*
D03*
X73075Y60525D02*
D03*
X71575D02*
D03*
X57850Y31500D02*
D03*
X59350D02*
D03*
X88975Y26275D02*
D03*
X90475D02*
D03*
X91725D02*
D03*
X93225D02*
D03*
X79950Y20575D02*
D03*
X81450D02*
D03*
X80675Y97800D02*
D03*
X79175D02*
D03*
X26975Y43475D02*
D03*
X28475D02*
D03*
X27525Y50900D02*
D03*
X29025D02*
D03*
X98900Y65300D02*
D03*
X100400D02*
D03*
X20275Y46675D02*
D03*
X21775D02*
D03*
X21775Y45275D02*
D03*
X20275D02*
D03*
X81100Y89625D02*
D03*
X79600D02*
D03*
X48850Y91300D02*
D03*
X47350D02*
D03*
X35275Y91700D02*
D03*
X36775D02*
D03*
X30250Y30175D02*
D03*
X28750D02*
D03*
X76850Y87500D02*
D03*
X78350D02*
D03*
X76850Y88950D02*
D03*
X78350D02*
D03*
D79*
X85750Y20675D02*
D03*
X83400Y19725D02*
D03*
Y21625D02*
D03*
X27525Y33200D02*
D03*
X29875Y34150D02*
D03*
Y32250D02*
D03*
X27525Y37000D02*
D03*
X29875Y37950D02*
D03*
Y36050D02*
D03*
D80*
X42900Y98475D02*
D03*
Y99975D02*
D03*
X83950Y66700D02*
D03*
Y68200D02*
D03*
X89800Y86275D02*
D03*
Y84775D02*
D03*
X35775Y83550D02*
D03*
Y82050D02*
D03*
X25250Y37100D02*
D03*
Y38600D02*
D03*
X60875Y73850D02*
D03*
Y75350D02*
D03*
D81*
X45400Y30075D02*
D03*
X43500D02*
D03*
X44450Y27725D02*
D03*
X54075Y29900D02*
D03*
X52175D02*
D03*
X53125Y27550D02*
D03*
X41950Y30200D02*
D03*
X40050D02*
D03*
X41000Y27850D02*
D03*
X102900Y50650D02*
D03*
X103850Y48300D02*
D03*
X101950D02*
D03*
X57850Y29900D02*
D03*
X55950D02*
D03*
X56900Y27550D02*
D03*
D82*
X43200Y48775D02*
D03*
Y50275D02*
D03*
X82200Y48250D02*
D03*
Y49750D02*
D03*
X38250Y28725D02*
D03*
Y30225D02*
D03*
X63750Y25775D02*
D03*
Y27275D02*
D03*
X78450Y20625D02*
D03*
Y19125D02*
D03*
X103850Y44775D02*
D03*
Y46275D02*
D03*
X67000Y44425D02*
D03*
Y42925D02*
D03*
X72800Y45550D02*
D03*
Y44050D02*
D03*
X37450Y84375D02*
D03*
Y85875D02*
D03*
X37075Y51850D02*
D03*
Y50350D02*
D03*
X37325Y97150D02*
D03*
Y98650D02*
D03*
X91825Y64925D02*
D03*
Y63425D02*
D03*
X88950Y30050D02*
D03*
Y31550D02*
D03*
X95825Y68800D02*
D03*
Y70300D02*
D03*
X95925Y32650D02*
D03*
Y34150D02*
D03*
X101950Y44800D02*
D03*
Y46300D02*
D03*
X53500Y87325D02*
D03*
Y88825D02*
D03*
X85875Y96425D02*
D03*
Y94925D02*
D03*
X84400Y94925D02*
D03*
Y96425D02*
D03*
X24625Y80350D02*
D03*
Y78850D02*
D03*
X20000Y83625D02*
D03*
Y82125D02*
D03*
X95325Y75150D02*
D03*
Y76650D02*
D03*
X88200Y71200D02*
D03*
Y72700D02*
D03*
X100275Y57875D02*
D03*
Y59375D02*
D03*
Y61000D02*
D03*
Y62500D02*
D03*
X105950Y67325D02*
D03*
Y68825D02*
D03*
X60800Y65725D02*
D03*
Y67225D02*
D03*
X78525Y66075D02*
D03*
Y67575D02*
D03*
X80775Y48250D02*
D03*
Y49750D02*
D03*
D83*
X46225Y25550D02*
D03*
X44725D02*
D03*
X65375Y62875D02*
D03*
X66875D02*
D03*
X42225Y68650D02*
D03*
X43725D02*
D03*
X54775Y25500D02*
D03*
X53275D02*
D03*
X77250Y73800D02*
D03*
X75750D02*
D03*
X44575Y65475D02*
D03*
X46075D02*
D03*
X68725Y60925D02*
D03*
X67225D02*
D03*
D84*
X95350Y73625D02*
D03*
Y71725D02*
D03*
X92950D02*
D03*
Y72675D02*
D03*
Y73625D02*
D03*
X78650Y93750D02*
D03*
Y95650D02*
D03*
X81050D02*
D03*
Y94700D02*
D03*
Y93750D02*
D03*
X94175Y66450D02*
D03*
Y67400D02*
D03*
Y68350D02*
D03*
X91775D02*
D03*
Y66450D02*
D03*
X38675Y50275D02*
D03*
Y49325D02*
D03*
Y48375D02*
D03*
X41075D02*
D03*
Y50275D02*
D03*
D85*
X80175Y64200D02*
D03*
X78775D02*
D03*
X56325Y61925D02*
D03*
X54925D02*
D03*
X60300Y61850D02*
D03*
X58900D02*
D03*
X80050Y92050D02*
D03*
X78650D02*
D03*
X90525Y35900D02*
D03*
X91925D02*
D03*
X103375Y71325D02*
D03*
X101975D02*
D03*
X22275Y86100D02*
D03*
X23675D02*
D03*
X91975Y27925D02*
D03*
X90575D02*
D03*
X81725Y72075D02*
D03*
X83125D02*
D03*
X57675Y73275D02*
D03*
X59075D02*
D03*
X43625Y70375D02*
D03*
X42225D02*
D03*
X44575Y67200D02*
D03*
X45975D02*
D03*
X67300Y58050D02*
D03*
X68700D02*
D03*
X66675Y59400D02*
D03*
X65275D02*
D03*
D86*
X74600Y61925D02*
D03*
Y60525D02*
D03*
X78725Y69375D02*
D03*
Y70775D02*
D03*
X60875Y69350D02*
D03*
Y70750D02*
D03*
X96325Y66150D02*
D03*
Y67550D02*
D03*
X27050Y46050D02*
D03*
Y47450D02*
D03*
X91325Y74075D02*
D03*
Y72675D02*
D03*
X45550Y87125D02*
D03*
Y88525D02*
D03*
X90250Y30100D02*
D03*
Y31500D02*
D03*
X74375Y43150D02*
D03*
Y44550D02*
D03*
X72725Y41825D02*
D03*
Y40425D02*
D03*
D87*
X104625Y38750D02*
D03*
Y36750D02*
D03*
X106625Y38750D02*
D03*
Y36750D02*
D03*
X53100Y23000D02*
D03*
Y21000D02*
D03*
X55100Y23000D02*
D03*
Y21000D02*
D03*
X57100Y23000D02*
D03*
Y21000D02*
D03*
X59100Y23000D02*
D03*
Y21000D02*
D03*
X61100Y23000D02*
D03*
Y21000D02*
D03*
X20400Y39025D02*
D03*
X22400D02*
D03*
X20400Y37025D02*
D03*
X22400D02*
D03*
X20400Y35025D02*
D03*
X22400D02*
D03*
X20400Y33025D02*
D03*
X22400D02*
D03*
X20400Y31025D02*
D03*
X22400D02*
D03*
X27600Y89160D02*
D03*
Y91700D02*
D03*
Y94240D02*
D03*
X89675Y21625D02*
D03*
Y23625D02*
D03*
X91675Y21625D02*
D03*
Y23625D02*
D03*
X93675Y21625D02*
D03*
Y23625D02*
D03*
X95675Y21625D02*
D03*
Y23625D02*
D03*
X97675Y21625D02*
D03*
Y23625D02*
D03*
X104600Y31475D02*
D03*
Y29475D02*
D03*
X106600Y31475D02*
D03*
Y29475D02*
D03*
X27775Y98250D02*
D03*
Y100775D02*
D03*
X46500Y22975D02*
D03*
Y20975D02*
D03*
X44500Y22975D02*
D03*
Y20975D02*
D03*
X42500Y22975D02*
D03*
Y20975D02*
D03*
X40500Y22975D02*
D03*
Y20975D02*
D03*
X38500Y22975D02*
D03*
Y20975D02*
D03*
X32725Y22575D02*
D03*
Y20575D02*
D03*
X30725Y22575D02*
D03*
Y20575D02*
D03*
X28725Y22575D02*
D03*
Y20575D02*
D03*
X26725Y22575D02*
D03*
Y20575D02*
D03*
X24725Y22575D02*
D03*
Y20575D02*
D03*
X20275Y49875D02*
D03*
Y51875D02*
D03*
Y55875D02*
D03*
X22275Y51875D02*
D03*
X20275Y53875D02*
D03*
X22275Y49875D02*
D03*
Y53875D02*
D03*
X20275Y57875D02*
D03*
X22275Y55875D02*
D03*
Y57875D02*
D03*
X104900Y54550D02*
D03*
X102900D02*
D03*
X104900Y56550D02*
D03*
X102900D02*
D03*
X104900Y58550D02*
D03*
X102900D02*
D03*
X104900Y60550D02*
D03*
X102900D02*
D03*
X104900Y62550D02*
D03*
X102900D02*
D03*
X34400Y104325D02*
D03*
X36925D02*
D03*
X81250Y58500D02*
D03*
Y80900D02*
D03*
X49750D02*
D03*
Y58500D02*
D03*
X68900Y105575D02*
D03*
Y103575D02*
D03*
X66900Y105575D02*
D03*
Y103575D02*
D03*
X64900Y105575D02*
D03*
Y103575D02*
D03*
X62900Y105575D02*
D03*
Y103575D02*
D03*
X60900Y105575D02*
D03*
Y103575D02*
D03*
X21850Y89150D02*
D03*
Y91150D02*
D03*
X19850Y89150D02*
D03*
Y91150D02*
D03*
D88*
X85950Y103100D02*
D03*
X42125Y103875D02*
D03*
D89*
X104350Y21325D02*
D03*
X104325Y104350D02*
D03*
X21300Y104350D02*
D03*
X18775Y25525D02*
D03*
D90*
X76125Y19825D02*
D03*
X74875D02*
D03*
X73625D02*
D03*
X72375D02*
D03*
X71125D02*
D03*
X68625D02*
D03*
X67375D02*
D03*
D91*
X69875D02*
D03*
D92*
X50675Y37500D02*
D03*
X49650D02*
D03*
X46875Y37475D02*
D03*
X47825Y37500D02*
D03*
X45925D02*
D03*
X48700D02*
D03*
X39825Y36300D02*
D03*
X88825Y77225D02*
D03*
X84400Y85600D02*
D03*
X95450Y56425D02*
D03*
X88750Y61200D02*
D03*
X71450Y48075D02*
D03*
X60025Y72150D02*
D03*
X71350Y72575D02*
D03*
X26475Y30525D02*
D03*
X41000Y52225D02*
D03*
X45475Y50550D02*
D03*
X46025Y63975D02*
D03*
X48650Y72225D02*
D03*
X51025Y44550D02*
D03*
X47800Y45150D02*
D03*
X64175Y35325D02*
D03*
X69150Y45425D02*
D03*
X27550Y31300D02*
D03*
X77725Y39800D02*
D03*
X75150Y41825D02*
D03*
X63775Y28500D02*
D03*
X19325Y87550D02*
D03*
X61975Y40200D02*
D03*
X62300Y46375D02*
D03*
X37525Y61200D02*
D03*
X76325Y29325D02*
D03*
X105800Y46600D02*
D03*
X89900Y33375D02*
D03*
X75100Y78875D02*
D03*
X74200Y80050D02*
D03*
X98675Y44175D02*
D03*
X73450Y21250D02*
D03*
X66675Y37900D02*
D03*
X71600Y70100D02*
D03*
X86775Y75100D02*
D03*
X59125Y17850D02*
D03*
X81550Y105900D02*
D03*
X106950Y91050D02*
D03*
X98425Y94575D02*
D03*
X91700Y29500D02*
D03*
X57225Y54275D02*
D03*
X39300Y66325D02*
D03*
X34750Y73275D02*
D03*
X27975Y69875D02*
D03*
X38775Y58150D02*
D03*
X32350Y64025D02*
D03*
X48050Y48325D02*
D03*
X67675Y36625D02*
D03*
X83775Y25625D02*
D03*
X86300Y26650D02*
D03*
X67550Y40925D02*
D03*
X65900Y25125D02*
D03*
X73300Y25725D02*
D03*
X95450Y51225D02*
D03*
X95475Y58800D02*
D03*
X74425Y49700D02*
D03*
X73425Y52500D02*
D03*
X87975Y55175D02*
D03*
X82700Y44175D02*
D03*
X88125Y47000D02*
D03*
X69150Y49775D02*
D03*
X76075Y52500D02*
D03*
X76000Y60025D02*
D03*
X64250Y72600D02*
D03*
X57725Y60575D02*
D03*
X64775Y67875D02*
D03*
X73950Y41725D02*
D03*
X55400Y73475D02*
D03*
X81750Y22350D02*
D03*
X91325Y70200D02*
D03*
X38675Y85900D02*
D03*
X36525Y48125D02*
D03*
X44625Y89550D02*
D03*
X76125Y90475D02*
D03*
X90100Y71950D02*
D03*
X99075Y42950D02*
D03*
X94175Y69950D02*
D03*
X21225Y83625D02*
D03*
X72175Y47100D02*
D03*
X38825Y96750D02*
D03*
X85000Y41575D02*
D03*
X70675Y87225D02*
D03*
X19325Y19400D02*
D03*
X87175Y43800D02*
D03*
X88125Y20675D02*
D03*
X102600Y34200D02*
D03*
X64125Y24300D02*
D03*
X55400Y85250D02*
D03*
X56825Y81325D02*
D03*
X75075Y85950D02*
D03*
X63625Y88725D02*
D03*
X90600Y101975D02*
D03*
X89750Y89850D02*
D03*
X17825Y42000D02*
D03*
X59300Y45075D02*
D03*
X70800Y26950D02*
D03*
X83825Y36375D02*
D03*
X76325Y32150D02*
D03*
X79900D02*
D03*
Y29300D02*
D03*
X100100Y53425D02*
D03*
X99350Y66650D02*
D03*
X97125Y63750D02*
D03*
X77175Y72275D02*
D03*
X86225Y76750D02*
D03*
X85450Y71525D02*
D03*
X81375Y65350D02*
D03*
X46025Y92025D02*
D03*
X50425Y92925D02*
D03*
X30000Y75475D02*
D03*
X28325Y77050D02*
D03*
X53700Y69600D02*
D03*
X81075Y43100D02*
D03*
X80775Y47100D02*
D03*
X69975Y51800D02*
D03*
X57425Y66900D02*
D03*
X58400D02*
D03*
X56500D02*
D03*
X55575D02*
D03*
X68250Y30875D02*
D03*
X36475Y30075D02*
D03*
X34875Y34175D02*
D03*
X29500Y42350D02*
D03*
X25475Y35075D02*
D03*
X71300Y23975D02*
D03*
X81750Y40700D02*
D03*
X69990Y34010D02*
D03*
X97350Y30550D02*
D03*
X65075Y48850D02*
D03*
X68500Y55550D02*
D03*
X59275Y71150D02*
D03*
X77350Y71025D02*
D03*
X88075Y32775D02*
D03*
X86900Y32550D02*
D03*
X101975Y73725D02*
D03*
X76900Y86025D02*
D03*
X31475Y43400D02*
D03*
X35000Y62900D02*
D03*
X27050Y48775D02*
D03*
X97450Y71800D02*
D03*
X63575Y17850D02*
D03*
X62400D02*
D03*
X61325D02*
D03*
X60275D02*
D03*
X70250Y40450D02*
D03*
X71787Y38987D02*
D03*
X71025Y39700D02*
D03*
X93125Y36725D02*
D03*
X35750Y26300D02*
D03*
X48225Y27250D02*
D03*
X33325Y48300D02*
D03*
X52925Y55825D02*
D03*
X33050Y45525D02*
D03*
X34225Y45550D02*
D03*
X35425Y45525D02*
D03*
X36775D02*
D03*
X68450Y21725D02*
D03*
X74500Y66850D02*
D03*
X73650Y66825D02*
D03*
X75350Y66850D02*
D03*
X76175D02*
D03*
D96*
X75025Y66900D02*
D03*
X57025Y66925D02*
D03*
D97*
X73092Y64390D02*
D03*
X74362D02*
D03*
X75632D02*
D03*
X76902D02*
D03*
X73092Y69340D02*
D03*
X74362D02*
D03*
X75632D02*
D03*
X76902D02*
D03*
X58902Y69365D02*
D03*
X57632D02*
D03*
X56362D02*
D03*
X55092D02*
D03*
X58902Y64415D02*
D03*
X57632D02*
D03*
X56362D02*
D03*
X55092D02*
D03*
D98*
X38225Y31775D02*
D03*
X36325D02*
D03*
Y34175D02*
D03*
X37275D02*
D03*
X38225D02*
D03*
X37225Y93425D02*
D03*
X35325D02*
D03*
Y95825D02*
D03*
X36275D02*
D03*
X37225D02*
D03*
X35325Y89950D02*
D03*
X37225D02*
D03*
Y87550D02*
D03*
X36275D02*
D03*
X35325D02*
D03*
X91925Y34500D02*
D03*
X93825D02*
D03*
Y32100D02*
D03*
X92875D02*
D03*
X91925D02*
D03*
X28475Y47425D02*
D03*
X30375D02*
D03*
Y45025D02*
D03*
X29425D02*
D03*
X28475D02*
D03*
X101975Y69250D02*
D03*
X103875D02*
D03*
Y66850D02*
D03*
X102925D02*
D03*
X101975D02*
D03*
X47300Y87300D02*
D03*
X48250D02*
D03*
X49200D02*
D03*
Y89700D02*
D03*
X47300D02*
D03*
X24600Y84350D02*
D03*
X23650D02*
D03*
X22700D02*
D03*
Y81950D02*
D03*
X24600D02*
D03*
X60550Y27300D02*
D03*
X61500D02*
D03*
X62450D02*
D03*
Y29700D02*
D03*
X60550D02*
D03*
X71000Y41700D02*
D03*
X69100D02*
D03*
Y44100D02*
D03*
X70050D02*
D03*
X71000D02*
D03*
X31950Y30200D02*
D03*
X33850D02*
D03*
Y27800D02*
D03*
X32900D02*
D03*
X31950D02*
D03*
D99*
X65925Y79425D02*
D03*
Y75675D02*
D03*
D100*
X95355Y84400D02*
D03*
X94085D02*
D03*
X92815D02*
D03*
X91545D02*
D03*
X95355Y79500D02*
D03*
X94085D02*
D03*
X92815D02*
D03*
X91545D02*
D03*
X89705Y68400D02*
D03*
X88435D02*
D03*
X87165D02*
D03*
X85895D02*
D03*
X89705Y63500D02*
D03*
X88435D02*
D03*
X87165D02*
D03*
X85895D02*
D03*
X48830Y100075D02*
D03*
X47560D02*
D03*
X46290D02*
D03*
X45020D02*
D03*
X48830Y95175D02*
D03*
X47560D02*
D03*
X46290D02*
D03*
X45020D02*
D03*
D101*
X32500Y78795D02*
D03*
Y80065D02*
D03*
Y81335D02*
D03*
Y82605D02*
D03*
X27600Y78795D02*
D03*
Y80065D02*
D03*
Y81335D02*
D03*
Y82605D02*
D03*
D102*
X92075Y50900D02*
D03*
Y59300D02*
D03*
D103*
X75150Y95900D02*
D03*
X70550D02*
D03*
D104*
X29250Y54100D02*
D03*
Y58700D02*
D03*
X102900Y82075D02*
D03*
Y77475D02*
D03*
D105*
X43350Y43375D02*
D03*
X46050D02*
D03*
X43825Y62175D02*
D03*
X41125D02*
D03*
X43850Y58900D02*
D03*
X41150D02*
D03*
X43850Y55475D02*
D03*
X41150D02*
D03*
D106*
X93500Y46800D02*
D03*
X96600D02*
D03*
X24050Y64500D02*
D03*
X20950D02*
D03*
X102825Y86100D02*
D03*
X99725D02*
D03*
D107*
X65450Y95425D02*
D03*
Y92325D02*
D03*
D108*
X93500Y38725D02*
D03*
Y43325D02*
D03*
D109*
X52725Y72150D02*
D03*
X45925D02*
D03*
D110*
X67000Y71525D02*
D03*
Y64725D02*
D03*
D111*
X102425Y93525D02*
D03*
X94025D02*
D03*
X23175Y71675D02*
D03*
X31575D02*
D03*
X60650Y96025D02*
D03*
X52250D02*
D03*
D112*
X20125Y60100D02*
D03*
X22375D02*
D03*
X87175Y19175D02*
D03*
X89425D02*
D03*
X104650Y33375D02*
D03*
X106900D02*
D03*
X104625Y26975D02*
D03*
X106875D02*
D03*
D113*
X57800Y103375D02*
D03*
Y105625D02*
D03*
X105800Y50450D02*
D03*
Y52700D02*
D03*
D114*
X43900Y84325D02*
D03*
X41200D02*
D03*
X72975Y71725D02*
D03*
X75675D02*
D03*
X84300Y75050D02*
D03*
X81600D02*
D03*
X55012Y71550D02*
D03*
X57712D02*
D03*
X37850Y78475D02*
D03*
X40550D02*
D03*
X64325Y56350D02*
D03*
X67025D02*
D03*
X64300Y54100D02*
D03*
X67000D02*
D03*
X64275Y51975D02*
D03*
X66975D02*
D03*
X67150Y47925D02*
D03*
X69850D02*
D03*
D115*
X43350Y78625D02*
D03*
Y75925D02*
D03*
X57625Y78775D02*
D03*
Y76075D02*
D03*
D116*
X62720Y42530D02*
D03*
X64630Y40620D02*
D03*
D117*
X39250Y45600D02*
D03*
Y42900D02*
D03*
%TF.MD5,00344ee5548d924e168b6299ceb7e23e*%
M02*
