M48
;Layer_Color=9474304
;FILE_FORMAT=4:4
METRIC,LZ
;TYPE=PLATED
T1F00S00C0.5000
T2F00S00C0.5500
T3F00S00C0.6000
T4F00S00C0.8000
T5F00S00C0.9000
T6F00S00C2.0000
T7F00S00C3.0000
%
T01
X0019325Y00194
X0026475Y0030525
X002755Y00313
X0025475Y0035075
X0034875Y0034175
X0036475Y0030075
X003575Y00263
X0048225Y002725
X0047825Y00375
X00487
X004965
X0050675
X0046875Y0037475
X0045925Y00375
X0039825Y00363
X0064175Y0035325
X0067675Y0036625
X0066675Y00379
X00717875Y00389875
X00699896Y00340104
X006825Y0030875
X00708Y002695
X00713Y0023975
X00733Y0025725
X007345Y002125
X006845Y0021725
X00659Y0025125
X0064125Y00243
X0063775Y00285
X0063575Y001785
X00624
X0061325
X0060275
X0059125
X0076325Y0029325
Y003215
X00799
Y00293
X0083775Y0025625
X00863Y002665
X00869Y003255
X0088075Y0032775
X00899Y0033375
X00917Y00295
X009735Y003055
X01026Y00342
X0093125Y0036725
X0083825Y0036375
X008175Y002235
X0088125Y0020675
X0085Y0041575
X008175Y00407
X0081075Y00431
X00827Y0044175
X0080775Y00471
X0088125Y0047
X0087175Y00438
X0098675Y0044175
X0099075Y004295
X01058Y00466
X01001Y0053425
X009545Y0051225
X009545Y0056425
X0095475Y00588
X0097125Y006375
X009935Y006665
X009745Y00718
X0094175Y006995
X0091325Y00702
X00901Y007195
X008545Y0071525
X0086775Y00751
X0086225Y007675
X0088825Y0077225
X008875Y00612
X0087975Y0055175
X0081375Y006535
X0101975Y0073725
X0077175Y0072275
X007735Y0071025
X0076175Y006685
X007535
X00745
X007365Y0066825
X00716Y00701
X007135Y0072575
X006425Y00726
X0060025Y007215
X0059275Y007115
X00584Y00669
X0057425
X00565
X0055575
X00537Y00696
X00554Y0073475
X004865Y0072225
X0046025Y0063975
X0045475Y005055
X004805Y0048325
X00478Y004515
X0051025Y004455
X00593Y0045075
X00623Y0046375
X0065075Y004885
X006915Y0049775
X0069975Y00518
X0073425Y00525
X0076075Y00525
X0074425Y00497
X007145Y0048075
X0072175Y00471
X006915Y0045425
X007025Y004045
X0071025Y00397
X006755Y0040925
X0061975Y00402
X007395Y0041725
X007515Y0041825
X0077725Y00398
X0076Y0060025
X00685Y005555
X0057225Y0054275
X0052925Y0055825
X0057725Y0060575
X0064775Y0067875
X00751Y0078875
X0041Y0052225
X0038775Y005815
X0037525Y00612
X0035Y00629
X003235Y0064025
X00393Y0066325
X003475Y0073275
X003Y0075475
X0028325Y007705
X0027975Y0069875
X002705Y0048775
X0033325Y00483
X003305Y0045525
X0034225Y004555
X0035425Y0045525
X0036775
X0036525Y0048125
X0031475Y00434
X00295Y004235
X0017825Y0042
X0021225Y0083625
X0019325Y008755
X0038675Y00859
X0038825Y009675
X0046025Y0092025
X0044625Y008955
X0050425Y0092925
X00554Y008525
X0056825Y0081325
X0063625Y0088725
X0070675Y0087225
X0075075Y008595
X00769Y0086025
X0076125Y0090475
X00742Y008005
X00844Y00856
X008975Y008985
X00906Y0101975
X008155Y01059
X0098425Y0094575
X010695Y009105
T02
X0067375Y0019825
X0068625
X0071125
X0072375
X0073625
X0074875
X0076125
T03
X0069875Y0019825
T04
X0024725Y0020575
X0026725
X0028725
X0030725
X0032725
Y0022575
X0030725
X0028725
X0026725
X0024725
X00224Y0031025
Y0033025
Y0035025
Y0037025
Y0039025
X00204
Y0037025
Y0035025
Y0033025
Y0031025
X00385Y0022975
Y0020975
X00405
X00425
X00445
X00465
Y0022975
X00445
X00425
X00405
X00531Y0023
X00551
Y0021
X00531
X00571
X00591
Y0023
X00571
X00611
Y0021
X0089675Y0021625
X0091675
Y0023625
X0089675
X0093675
X0095675
Y0021625
X0093675
X0097675
Y0023625
X01046Y0029475
Y0031475
X01066
Y0029475
X0106625Y003675
X0104625
Y003875
X0106625
X01049Y005455
Y005655
X01029
Y005455
Y005855
Y006055
X01049
Y005855
Y006255
X01029
X0022275Y0057875
Y0055875
X0020275
Y0057875
Y0053875
Y0051875
Y0049875
X0022275
Y0051875
Y0053875
X002185Y008915
Y009115
X001985
Y008915
X00609Y0103575
X00629
X00649
X00669
X00689
Y0105575
X00669
X00649
X00629
X00609
T05
X00276Y008916
Y00917
Y009424
X0027775Y009825
Y0100775
X00344Y0104325
X0036925
T06
X0042125Y0103875
X008595Y01031
T07
X0018775Y0025525
X010435Y0021325
X008125Y00585
X004975
X00213Y010435
X004975Y00809
X008125
X0104325Y010435
M30
