%TF.GenerationSoftware,Altium Limited,Altium Designer,18.1.7 (191)*%
G04 Layer_Physical_Order=1*
G04 Layer_Color=255*
%FSLAX43Y43*%
%MOMM*%
%TF.FileFunction,Copper,L1,Top,Signal*%
%TF.Part,Single*%
G01*
G75*
%TA.AperFunction,NonConductor*%
%ADD10C,0.254*%
%TA.AperFunction,SMDPad,CuDef*%
%ADD11R,0.900X0.700*%
%ADD12R,4.000X1.750*%
%ADD13O,0.700X1.700*%
%ADD14R,0.600X1.450*%
%ADD15R,0.650X1.100*%
%ADD16R,1.100X1.400*%
%ADD17R,1.950X1.900*%
%ADD18R,1.450X0.600*%
%ADD19R,0.700X0.900*%
%ADD20R,0.900X0.800*%
%ADD21R,0.800X0.900*%
%ADD22O,0.700X2.500*%
%ADD23O,2.500X0.700*%
%ADD24R,1.100X0.650*%
%ADD25R,3.700X3.300*%
%ADD26R,3.300X8.200*%
%ADD27R,8.200X3.300*%
%ADD28R,1.100X2.600*%
%ADD29R,1.400X1.100*%
%ADD30R,1.500X2.800*%
%ADD31R,2.800X1.500*%
%ADD32R,6.300X2.200*%
%ADD33R,1.600X2.200*%
%ADD34R,2.200X1.600*%
%ADD35R,3.300X3.700*%
%ADD36R,0.850X0.450*%
%ADD37R,0.450X0.850*%
%ADD38R,1.100X1.700*%
%ADD39R,1.700X1.100*%
G04:AMPARAMS|DCode=40|XSize=1.7mm|YSize=1.1mm|CornerRadius=0mm|HoleSize=0mm|Usage=FLASHONLY|Rotation=45.000|XOffset=0mm|YOffset=0mm|HoleType=Round|Shape=Rectangle|*
%AMROTATEDRECTD40*
4,1,4,-0.212,-0.990,-0.990,-0.212,0.212,0.990,0.990,0.212,-0.212,-0.990,0.0*
%
%ADD40ROTATEDRECTD40*%

%ADD41R,2.600X1.100*%
%TA.AperFunction,Conductor*%
%ADD42C,1.700*%
%ADD43C,1.500*%
%ADD44C,0.300*%
%ADD45C,2.000*%
%ADD46C,0.500*%
%ADD47C,0.305*%
%ADD48C,1.100*%
%ADD49C,1.200*%
%ADD50C,1.000*%
%ADD51C,0.900*%
%ADD52C,1.600*%
%ADD53C,1.800*%
%ADD54C,0.800*%
%TA.AperFunction,ComponentPad*%
%ADD55C,1.524*%
%TA.AperFunction,ViaPad*%
%ADD56C,2.000*%
%ADD57C,3.000*%
%TA.AperFunction,ComponentPad*%
%ADD58C,0.950*%
%ADD59C,0.900*%
%TA.AperFunction,ViaPad*%
%ADD60C,0.900*%
G36*
X19191Y28194D02*
X19600Y28096D01*
X19988Y27936D01*
X20346Y27716D01*
X20666Y27443D01*
X20939Y27124D01*
X21158Y26765D01*
X21319Y26377D01*
X21417Y25969D01*
X21450Y25550D01*
X21417Y25131D01*
X21319Y24723D01*
X21158Y24334D01*
X20939Y23976D01*
X20666Y23657D01*
X20346Y23384D01*
X19988Y23164D01*
X19600Y23004D01*
X19191Y22906D01*
X18773Y22873D01*
X18354Y22906D01*
X17945Y23004D01*
X17557Y23164D01*
X17199Y23384D01*
X17108Y23461D01*
Y24767D01*
X17235Y24799D01*
X17355Y24576D01*
X17567Y24317D01*
X17826Y24105D01*
X18121Y23947D01*
X18442Y23850D01*
X18775Y23817D01*
X19108Y23850D01*
X19429Y23947D01*
X19724Y24105D01*
X19983Y24317D01*
X20195Y24576D01*
X20353Y24871D01*
X20450Y25192D01*
X20483Y25525D01*
X20450Y25858D01*
X20353Y26179D01*
X20195Y26474D01*
X19983Y26733D01*
X19724Y26945D01*
X19429Y27103D01*
X19108Y27200D01*
X18775Y27233D01*
X18442Y27200D01*
X18121Y27103D01*
X17826Y26945D01*
X17567Y26733D01*
X17355Y26474D01*
X17235Y26251D01*
X17108Y26283D01*
Y27639D01*
X17199Y27716D01*
X17557Y27936D01*
X17945Y28096D01*
X18354Y28194D01*
X18773Y28227D01*
X19191Y28194D01*
D02*
G37*
G36*
X109075Y16600D02*
X16575D01*
Y22888D01*
X16690Y22942D01*
X16806Y22843D01*
X17253Y22569D01*
X17739Y22368D01*
X18249Y22245D01*
X18773Y22204D01*
X19296Y22245D01*
X19807Y22368D01*
X20292Y22569D01*
X20739Y22843D01*
X21139Y23184D01*
X21480Y23583D01*
X21754Y24031D01*
X21955Y24516D01*
X22078Y25027D01*
X22119Y25550D01*
X22078Y26073D01*
X21955Y26584D01*
X21754Y27069D01*
X21480Y27517D01*
X21139Y27916D01*
X20739Y28257D01*
X20292Y28531D01*
X19807Y28732D01*
X19296Y28855D01*
X18773Y28896D01*
X18249Y28855D01*
X17739Y28732D01*
X17253Y28531D01*
X16806Y28257D01*
X16690Y28158D01*
X16575Y28212D01*
Y109100D01*
X109075D01*
Y16600D01*
D02*
G37*
%LPC*%
G36*
X60900Y106545D02*
X60649Y106512D01*
X60415Y106415D01*
X60214Y106261D01*
X60060Y106060D01*
X60049Y106034D01*
X58225D01*
Y106250D01*
X57375D01*
Y105000D01*
X58225D01*
Y105116D01*
X60049D01*
X60060Y105090D01*
X60214Y104889D01*
X60415Y104735D01*
X60649Y104638D01*
Y104512D01*
X60415Y104415D01*
X60214Y104261D01*
X60060Y104060D01*
X59966Y103834D01*
X58225D01*
Y104000D01*
X57375D01*
Y103545D01*
X57341Y103375D01*
X57375Y103205D01*
Y102750D01*
X58225D01*
Y102916D01*
X60193D01*
X60214Y102889D01*
X60415Y102735D01*
X60649Y102638D01*
X60900Y102605D01*
X61151Y102638D01*
X61385Y102735D01*
X61586Y102889D01*
X61740Y103090D01*
X61837Y103324D01*
X61870Y103575D01*
X61837Y103826D01*
X61740Y104060D01*
X61586Y104261D01*
X61385Y104415D01*
X61151Y104512D01*
Y104638D01*
X61385Y104735D01*
X61586Y104889D01*
X61740Y105090D01*
X61837Y105324D01*
X61870Y105575D01*
X61837Y105826D01*
X61740Y106060D01*
X61586Y106261D01*
X61385Y106415D01*
X61151Y106512D01*
X60900Y106545D01*
D02*
G37*
G36*
X68900D02*
X68649Y106512D01*
X68415Y106415D01*
X68214Y106261D01*
X68060Y106060D01*
X67963Y105826D01*
X67837D01*
X67740Y106060D01*
X67586Y106261D01*
X67385Y106415D01*
X67151Y106512D01*
X66900Y106545D01*
X66649Y106512D01*
X66415Y106415D01*
X66214Y106261D01*
X66060Y106060D01*
X65963Y105826D01*
X65930Y105575D01*
X65942Y105483D01*
Y103667D01*
X65930Y103575D01*
X65963Y103324D01*
X66060Y103090D01*
X66065Y103082D01*
X66070Y103071D01*
X66222Y102872D01*
X66421Y102720D01*
X66652Y102624D01*
X66900Y102592D01*
X78903D01*
X80292Y101203D01*
Y98722D01*
X80047Y98478D01*
X79922Y98314D01*
X79805Y98291D01*
X79765Y98296D01*
X79725Y98340D01*
Y98450D01*
X79579D01*
X79578Y98453D01*
X79379Y98605D01*
X79148Y98701D01*
X78900Y98733D01*
X77000D01*
Y100200D01*
X73300D01*
Y91600D01*
X77000D01*
Y96817D01*
X78768D01*
Y96273D01*
X78670Y96175D01*
X77900D01*
Y95125D01*
X79400D01*
Y95907D01*
X79455Y95988D01*
X79482Y96125D01*
Y97024D01*
X79578Y97097D01*
X79618Y97150D01*
X79725D01*
Y97290D01*
X79730Y97296D01*
X79754Y97355D01*
X79881D01*
X79895Y97321D01*
X80047Y97122D01*
X80246Y96970D01*
X80368Y96920D01*
Y96175D01*
X80300D01*
Y95125D01*
X81800D01*
Y96175D01*
X81082D01*
Y96920D01*
X81204Y96970D01*
X81365Y97094D01*
X82733D01*
X83750Y96077D01*
Y95875D01*
X83967D01*
X84047Y95814D01*
X84217Y95743D01*
X84400Y95719D01*
X84583Y95743D01*
X84753Y95814D01*
X84833Y95875D01*
X85050D01*
Y96165D01*
X85082Y96242D01*
X85106Y96425D01*
X85082Y96608D01*
X85050Y96685D01*
Y96975D01*
X84848D01*
X83524Y98299D01*
X83378Y98411D01*
X83208Y98482D01*
X83025Y98506D01*
X82208D01*
Y101600D01*
X82176Y101848D01*
X82080Y102079D01*
X81928Y102278D01*
X79978Y104228D01*
X79779Y104380D01*
X79548Y104476D01*
X79300Y104508D01*
X69858D01*
Y105483D01*
X69870Y105575D01*
X69837Y105826D01*
X69740Y106060D01*
X69586Y106261D01*
X69385Y106415D01*
X69151Y106512D01*
X68900Y106545D01*
D02*
G37*
G36*
X42125Y105085D02*
X41812Y105044D01*
X41520Y104923D01*
X41269Y104731D01*
X41077Y104480D01*
X40956Y104188D01*
X40915Y103875D01*
X40956Y103562D01*
X41077Y103270D01*
X41269Y103019D01*
X41520Y102827D01*
X41812Y102706D01*
X42125Y102665D01*
X42438Y102706D01*
X42730Y102827D01*
X42981Y103019D01*
X43173Y103270D01*
X43294Y103562D01*
X43335Y103875D01*
X43294Y104188D01*
X43173Y104480D01*
X42981Y104731D01*
X42730Y104923D01*
X42438Y105044D01*
X42125Y105085D01*
D02*
G37*
G36*
X85950Y104310D02*
X85637Y104269D01*
X85345Y104148D01*
X85094Y103956D01*
X84902Y103705D01*
X84781Y103413D01*
X84740Y103100D01*
X84781Y102787D01*
X84902Y102495D01*
X85094Y102244D01*
X85345Y102052D01*
X85637Y101931D01*
X85950Y101890D01*
X86263Y101931D01*
X86555Y102052D01*
X86806Y102244D01*
X86998Y102495D01*
X87119Y102787D01*
X87160Y103100D01*
X87119Y103413D01*
X86998Y103705D01*
X86806Y103956D01*
X86555Y104148D01*
X86263Y104269D01*
X85950Y104310D01*
D02*
G37*
G36*
X21300Y107730D02*
X20771Y107689D01*
X20255Y107565D01*
X19765Y107362D01*
X19313Y107085D01*
X18910Y106740D01*
X18565Y106337D01*
X18288Y105885D01*
X18085Y105395D01*
X17961Y104879D01*
X17920Y104350D01*
X17961Y103821D01*
X18085Y103305D01*
X18288Y102815D01*
X18565Y102363D01*
X18910Y101960D01*
X19313Y101615D01*
X19765Y101338D01*
X20255Y101135D01*
X20771Y101011D01*
X21300Y100970D01*
X21829Y101011D01*
X22345Y101135D01*
X22835Y101338D01*
X23287Y101615D01*
X23690Y101960D01*
X24035Y102363D01*
X24312Y102815D01*
X24515Y103305D01*
X24639Y103821D01*
X24680Y104350D01*
X24639Y104879D01*
X24515Y105395D01*
X24312Y105885D01*
X24035Y106337D01*
X23690Y106740D01*
X23287Y107085D01*
X22835Y107362D01*
X22345Y107565D01*
X21829Y107689D01*
X21300Y107730D01*
D02*
G37*
G36*
X104325Y107730D02*
X103796Y107689D01*
X103280Y107565D01*
X102790Y107362D01*
X102338Y107085D01*
X101935Y106740D01*
X101590Y106337D01*
X101313Y105885D01*
X101110Y105395D01*
X100986Y104879D01*
X100945Y104350D01*
X100986Y103821D01*
X101110Y103305D01*
X101313Y102815D01*
X101590Y102363D01*
X101935Y101960D01*
X102338Y101615D01*
X102790Y101338D01*
X103280Y101135D01*
X103796Y101011D01*
X104325Y100970D01*
X104854Y101011D01*
X105370Y101135D01*
X105860Y101338D01*
X106312Y101615D01*
X106715Y101960D01*
X107060Y102363D01*
X107337Y102815D01*
X107540Y103305D01*
X107664Y103821D01*
X107705Y104350D01*
X107664Y104879D01*
X107540Y105395D01*
X107337Y105885D01*
X107060Y106337D01*
X106715Y106740D01*
X106312Y107085D01*
X105860Y107362D01*
X105370Y107565D01*
X104854Y107689D01*
X104325Y107730D01*
D02*
G37*
G36*
X48830Y101536D02*
X48615Y101493D01*
X48433Y101372D01*
X48312Y101190D01*
X48269Y100975D01*
Y100882D01*
X48121D01*
Y100975D01*
X48078Y101190D01*
X47957Y101372D01*
X47775Y101493D01*
X47560Y101536D01*
X47345Y101493D01*
X47163Y101372D01*
X47042Y101190D01*
X46999Y100975D01*
Y100757D01*
X46978Y100742D01*
X46851Y100807D01*
Y100975D01*
X46808Y101190D01*
X46687Y101372D01*
X46505Y101493D01*
X46290Y101536D01*
X46075Y101493D01*
X45893Y101372D01*
X45772Y101190D01*
X45741Y101033D01*
X45569D01*
X45538Y101190D01*
X45417Y101372D01*
X45235Y101493D01*
X45020Y101536D01*
X44805Y101493D01*
X44623Y101372D01*
X44502Y101190D01*
X44486Y101108D01*
X41350D01*
X41102Y101076D01*
X40871Y100980D01*
X40672Y100828D01*
X40633Y100788D01*
X40487Y100769D01*
X40195Y100648D01*
X39944Y100456D01*
X39752Y100205D01*
X39631Y99913D01*
X39590Y99600D01*
Y96895D01*
X39463Y96886D01*
X39458Y96920D01*
X39393Y97078D01*
X39289Y97214D01*
X39153Y97318D01*
X38995Y97383D01*
X38825Y97406D01*
X38729Y97393D01*
X38712Y97405D01*
X38575Y97432D01*
X37975D01*
Y97700D01*
X36675D01*
Y96600D01*
X36675D01*
X36700Y96575D01*
Y95075D01*
X37750D01*
Y96575D01*
X37867Y96600D01*
X37975D01*
Y96718D01*
X38174D01*
X38192Y96580D01*
X38257Y96422D01*
X38361Y96286D01*
X38497Y96182D01*
X38655Y96117D01*
X38825Y96094D01*
X38995Y96117D01*
X39153Y96182D01*
X39289Y96286D01*
X39393Y96422D01*
X39458Y96580D01*
X39463Y96614D01*
X39590Y96605D01*
Y92759D01*
X37750D01*
Y94175D01*
X36700D01*
Y93782D01*
X35850D01*
Y94175D01*
X34800D01*
Y92990D01*
X34673Y92914D01*
X34632Y92936D01*
Y94627D01*
X35080Y95075D01*
X35850D01*
Y96575D01*
X34800D01*
Y95805D01*
X34023Y95027D01*
X33945Y94912D01*
X33918Y94775D01*
Y92910D01*
X27600D01*
X27287Y92869D01*
X26995Y92748D01*
X26744Y92556D01*
X26552Y92305D01*
X26431Y92013D01*
X26390Y91700D01*
X26431Y91387D01*
X26552Y91095D01*
X26744Y90844D01*
X26995Y90652D01*
X27287Y90531D01*
X27600Y90490D01*
X34275D01*
X34588Y90531D01*
X34694Y90575D01*
X34800Y90504D01*
Y89200D01*
X35850D01*
Y89593D01*
X36700D01*
Y89200D01*
X37750D01*
Y90641D01*
X37893D01*
Y88673D01*
X37520Y88300D01*
X36700D01*
Y86800D01*
X37750D01*
Y87520D01*
X38502Y88273D01*
X38580Y88388D01*
X38607Y88525D01*
Y90641D01*
X39590D01*
Y82858D01*
X33892D01*
X33797Y83002D01*
X33615Y83123D01*
X33400Y83166D01*
X32952D01*
X32808Y83226D01*
X32560Y83258D01*
X32312Y83226D01*
X32168Y83166D01*
X31600D01*
X31385Y83123D01*
X31203Y83002D01*
X31082Y82820D01*
X31039Y82605D01*
X31082Y82390D01*
X31203Y82208D01*
X31385Y82087D01*
X31600Y82044D01*
X31602D01*
Y81896D01*
X31600D01*
X31385Y81853D01*
X31203Y81732D01*
X31082Y81550D01*
X31039Y81335D01*
X31082Y81120D01*
X31203Y80938D01*
X31249Y80908D01*
X31210Y80781D01*
X30817D01*
X29764Y81834D01*
X29618Y81946D01*
X29448Y82017D01*
X29265Y82041D01*
X28875D01*
X28836Y82168D01*
X28897Y82208D01*
X29018Y82390D01*
X29061Y82605D01*
X29018Y82820D01*
X28897Y83002D01*
X28715Y83123D01*
X28500Y83166D01*
X28049D01*
X27963Y83231D01*
X27793Y83302D01*
X27610Y83326D01*
X27427Y83302D01*
X27257Y83231D01*
X27171Y83166D01*
X26700D01*
X26485Y83123D01*
X26303Y83002D01*
X26182Y82820D01*
X26139Y82605D01*
X26182Y82390D01*
X26303Y82208D01*
X26485Y82087D01*
X26700Y82044D01*
X26904D01*
Y81896D01*
X26700D01*
X26485Y81853D01*
X26303Y81732D01*
X26182Y81550D01*
X26139Y81335D01*
X26182Y81120D01*
X26303Y80938D01*
X26485Y80817D01*
X26700Y80774D01*
X27106D01*
X27172Y80724D01*
X27342Y80653D01*
X27525Y80629D01*
X28973D01*
X30026Y79576D01*
X30172Y79464D01*
X30342Y79393D01*
X30525Y79369D01*
X31240D01*
X31279Y79242D01*
X31203Y79192D01*
X31082Y79010D01*
X31039Y78795D01*
X31082Y78580D01*
X31203Y78398D01*
X31385Y78277D01*
X31467Y78261D01*
Y73725D01*
X29725D01*
Y69625D01*
X33425D01*
Y73725D01*
X33383D01*
Y78234D01*
X33400D01*
X33615Y78277D01*
X33797Y78398D01*
X33918Y78580D01*
X33961Y78795D01*
X33918Y79010D01*
X33797Y79192D01*
X33615Y79313D01*
X33400Y79356D01*
X33307D01*
X33293Y79377D01*
X33364Y79504D01*
X33400D01*
X33615Y79547D01*
X33797Y79668D01*
X33918Y79850D01*
X33961Y80065D01*
X33918Y80280D01*
X33797Y80462D01*
X33615Y80583D01*
X33400Y80626D01*
X33096D01*
X33042Y80753D01*
X33062Y80774D01*
X33400D01*
X33615Y80817D01*
X33797Y80938D01*
X33799Y80942D01*
X39590D01*
Y76425D01*
X39631Y76112D01*
X39734Y75863D01*
X34748Y70877D01*
X34670Y70762D01*
X34643Y70625D01*
Y63445D01*
X34536Y63364D01*
X34432Y63228D01*
X34367Y63070D01*
X34344Y62900D01*
X34367Y62730D01*
X34432Y62572D01*
X34536Y62436D01*
X34672Y62332D01*
X34830Y62267D01*
X35000Y62244D01*
X35170Y62267D01*
X35328Y62332D01*
X35464Y62436D01*
X35568Y62572D01*
X35633Y62730D01*
X35656Y62900D01*
X35633Y63070D01*
X35568Y63228D01*
X35464Y63364D01*
X35357Y63445D01*
Y70477D01*
X40196Y75317D01*
X40669Y74844D01*
X40920Y74652D01*
X41212Y74531D01*
X41525Y74490D01*
X56969D01*
Y73580D01*
X56842Y73528D01*
X56547Y73823D01*
X56524Y73878D01*
X56396Y74046D01*
X56228Y74174D01*
X56034Y74254D01*
X55825Y74282D01*
X53850D01*
X53641Y74254D01*
X53447Y74174D01*
X53279Y74046D01*
X52684Y73450D01*
X51725D01*
Y70850D01*
X53725D01*
Y72209D01*
X54184Y72668D01*
X55562D01*
X55656Y72574D01*
Y69365D01*
X55680Y69183D01*
X55751Y69012D01*
X55801Y68946D01*
Y68865D01*
X55844Y68651D01*
X55965Y68469D01*
X56147Y68347D01*
X56362Y68305D01*
X56577Y68347D01*
X56759Y68469D01*
X56880Y68651D01*
X56919Y68846D01*
X56978Y68874D01*
X57081Y68815D01*
X57114Y68651D01*
X57235Y68469D01*
X57417Y68347D01*
X57632Y68305D01*
X57847Y68347D01*
X58029Y68469D01*
X58150Y68651D01*
X58179Y68798D01*
X58218Y68849D01*
X58342Y68826D01*
X58350Y68822D01*
X58384Y68651D01*
X58505Y68469D01*
X58687Y68347D01*
X58902Y68305D01*
X59117Y68347D01*
X59299Y68469D01*
X59420Y68651D01*
X59463Y68865D01*
Y69009D01*
X60225D01*
Y68750D01*
X61525D01*
Y69950D01*
X60225D01*
Y69722D01*
X59463D01*
Y69865D01*
X59420Y70080D01*
X59299Y70262D01*
X59117Y70383D01*
X58902Y70426D01*
X58687Y70383D01*
X58505Y70262D01*
X58458Y70190D01*
X58331Y70229D01*
Y70500D01*
X58462D01*
Y72600D01*
X58381D01*
Y74490D01*
X61993D01*
Y68673D01*
X61095Y67775D01*
X60150D01*
Y66675D01*
X60454D01*
X60473Y66648D01*
X60588Y66570D01*
X60725Y66543D01*
X60862Y66570D01*
X60977Y66648D01*
X61005Y66675D01*
X61450D01*
Y67120D01*
X62602Y68273D01*
X62680Y68388D01*
X62707Y68525D01*
Y74490D01*
X68599D01*
X68642Y74363D01*
X68554Y74296D01*
X66784Y72525D01*
X65700D01*
Y70525D01*
X68300D01*
Y71759D01*
X69459Y72918D01*
X70651D01*
X70736Y72791D01*
X70717Y72745D01*
X70694Y72575D01*
X70717Y72405D01*
X70782Y72247D01*
X70886Y72111D01*
X71022Y72007D01*
X71180Y71942D01*
X71350Y71919D01*
X71520Y71942D01*
X71678Y72007D01*
X71814Y72111D01*
X71918Y72247D01*
X71983Y72405D01*
X72006Y72575D01*
X71983Y72745D01*
X71964Y72791D01*
X72049Y72918D01*
X73437D01*
X73606Y72750D01*
Y69340D01*
X73631Y69145D01*
X73707Y68962D01*
X73802Y68839D01*
X73844Y68626D01*
X73965Y68444D01*
X74147Y68322D01*
X74362Y68280D01*
X74577Y68322D01*
X74759Y68444D01*
X74880Y68626D01*
X74903Y68740D01*
X74957Y68762D01*
X75037Y68765D01*
X75103Y68680D01*
X75114Y68626D01*
X75235Y68444D01*
X75417Y68322D01*
X75632Y68280D01*
X75847Y68322D01*
X76029Y68444D01*
X76150Y68626D01*
X76161Y68680D01*
X76227Y68765D01*
X76307Y68762D01*
X76361Y68740D01*
X76384Y68626D01*
X76505Y68444D01*
X76687Y68322D01*
X76902Y68280D01*
X77117Y68322D01*
X77299Y68444D01*
X77420Y68626D01*
X77463Y68840D01*
Y68984D01*
X78075D01*
Y68775D01*
X79375D01*
Y69975D01*
X78075D01*
Y69697D01*
X77463D01*
Y69840D01*
X77420Y70055D01*
X77299Y70237D01*
X77278Y70251D01*
X77324Y70373D01*
X77350Y70369D01*
X77520Y70392D01*
X77678Y70457D01*
X77756Y70517D01*
X77863Y70445D01*
X78000Y70418D01*
X78075D01*
Y70175D01*
X79375D01*
Y71375D01*
X78075D01*
Y71375D01*
X77956Y71355D01*
X77918Y71353D01*
X77814Y71489D01*
X77678Y71593D01*
X77520Y71658D01*
X77350Y71681D01*
X77180Y71658D01*
X77022Y71593D01*
X76886Y71489D01*
X76782Y71353D01*
X76717Y71195D01*
X76694Y71025D01*
X76717Y70855D01*
X76782Y70697D01*
X76886Y70561D01*
X76935Y70524D01*
X76912Y70439D01*
X76890Y70399D01*
X76687Y70358D01*
X76505Y70237D01*
X76465Y70176D01*
X76338Y70215D01*
Y70675D01*
X76425D01*
Y72775D01*
X76425D01*
X76430Y72900D01*
X76500D01*
Y74490D01*
X80592D01*
Y70050D01*
X80624Y69802D01*
X80675Y69680D01*
X79120Y68125D01*
X77875D01*
Y67025D01*
X79175D01*
Y67204D01*
X79277Y67273D01*
X81125Y69120D01*
X82198Y68047D01*
X82101Y67949D01*
X82001Y67801D01*
X81966Y67625D01*
Y61850D01*
X82001Y61674D01*
X82101Y61526D01*
X87501Y56126D01*
X87649Y56026D01*
X87825Y55991D01*
X94964D01*
X94986Y55961D01*
X95122Y55857D01*
X95280Y55792D01*
X95450Y55769D01*
X95620Y55792D01*
X95778Y55857D01*
X95914Y55961D01*
X96018Y56097D01*
X96083Y56255D01*
X96106Y56425D01*
X96083Y56595D01*
X96018Y56753D01*
X95914Y56889D01*
X95778Y56993D01*
X95620Y57058D01*
X95450Y57081D01*
X95280Y57058D01*
X95122Y56993D01*
X95013Y56909D01*
X88015D01*
X82884Y62040D01*
Y67365D01*
X82900Y67391D01*
X82936Y67420D01*
X83050Y67450D01*
X83175Y67445D01*
X83200Y67442D01*
X85346D01*
X85377Y67285D01*
X85498Y67103D01*
X85680Y66982D01*
X85895Y66939D01*
X86110Y66982D01*
X86292Y67103D01*
X86413Y67285D01*
X86444Y67442D01*
X86616D01*
X86647Y67285D01*
X86768Y67103D01*
X86950Y66982D01*
X87165Y66939D01*
X87380Y66982D01*
X87562Y67103D01*
X87602Y67164D01*
X87729Y67125D01*
Y67002D01*
X86126Y65399D01*
X86014Y65253D01*
X85943Y65083D01*
X85930Y64986D01*
X85895Y64961D01*
X85680Y64918D01*
X85498Y64797D01*
X85377Y64615D01*
X85334Y64400D01*
Y63882D01*
X85306Y63813D01*
X85265Y63500D01*
Y62763D01*
Y60550D01*
X85306Y60237D01*
X85427Y59945D01*
X85619Y59694D01*
X85870Y59502D01*
X86162Y59381D01*
X86308Y59362D01*
X87047Y58622D01*
X87246Y58470D01*
X87477Y58374D01*
X87725Y58342D01*
X90025D01*
Y57450D01*
X94125D01*
Y61150D01*
X90025D01*
Y60258D01*
X88122D01*
X87685Y60695D01*
Y62397D01*
X87726Y62600D01*
Y64400D01*
X87683Y64615D01*
X87562Y64797D01*
X87558Y64834D01*
X88934Y66211D01*
X89046Y66357D01*
X89117Y66527D01*
X89141Y66710D01*
Y67125D01*
X89268Y67164D01*
X89308Y67103D01*
X89490Y66982D01*
X89705Y66939D01*
X89920Y66982D01*
X90102Y67103D01*
X90223Y67285D01*
X90266Y67500D01*
Y67981D01*
X90316Y68047D01*
X90387Y68217D01*
X90411Y68400D01*
X90387Y68583D01*
X90316Y68753D01*
X90266Y68819D01*
Y69300D01*
X90223Y69515D01*
X90102Y69697D01*
X89920Y69818D01*
X89705Y69861D01*
X89490Y69818D01*
X89308Y69697D01*
X89187Y69515D01*
X89144Y69300D01*
Y69106D01*
X88996D01*
Y69300D01*
X88953Y69515D01*
X88832Y69697D01*
X88650Y69818D01*
X88435Y69861D01*
X88220Y69818D01*
X88038Y69697D01*
X87917Y69515D01*
X87874Y69300D01*
Y68918D01*
X87853Y68903D01*
X87726Y68968D01*
Y69300D01*
X87683Y69515D01*
X87562Y69697D01*
X87380Y69818D01*
X87165Y69861D01*
X86950Y69818D01*
X86768Y69697D01*
X86647Y69515D01*
X86616Y69358D01*
X86444D01*
X86413Y69515D01*
X86292Y69697D01*
X86110Y69818D01*
X85895Y69861D01*
X85680Y69818D01*
X85498Y69697D01*
X85377Y69515D01*
X85346Y69358D01*
X83597D01*
X82508Y70447D01*
Y74978D01*
X82598Y75095D01*
X82719Y75387D01*
X82753Y75641D01*
X86256Y79145D01*
X88170Y77231D01*
X88169Y77225D01*
X88192Y77055D01*
X88257Y76897D01*
X88361Y76761D01*
X88497Y76657D01*
X88655Y76592D01*
X88825Y76569D01*
X88995Y76592D01*
X89153Y76657D01*
X89289Y76761D01*
X89393Y76897D01*
X89458Y77055D01*
X89481Y77225D01*
X89458Y77395D01*
X89393Y77553D01*
X89289Y77689D01*
X89153Y77793D01*
X88995Y77858D01*
X88825Y77881D01*
X88819Y77880D01*
X86905Y79794D01*
X87256Y80144D01*
X87448Y80395D01*
X87569Y80687D01*
X87610Y81000D01*
Y83190D01*
X91091D01*
X91148Y83103D01*
X91330Y82982D01*
X91545Y82939D01*
X91760Y82982D01*
X91942Y83103D01*
X91999Y83190D01*
X92350D01*
X92360Y83191D01*
X92418Y83103D01*
X92600Y82982D01*
X92815Y82939D01*
X93030Y82982D01*
X93212Y83103D01*
X93333Y83285D01*
X93376Y83500D01*
Y83670D01*
X93397Y83687D01*
X93524Y83628D01*
Y83500D01*
X93567Y83285D01*
X93688Y83103D01*
X93699Y82997D01*
X92316Y81614D01*
X92204Y81468D01*
X92133Y81298D01*
X92109Y81115D01*
Y80775D01*
X91982Y80736D01*
X91942Y80797D01*
X91760Y80918D01*
X91545Y80961D01*
X91330Y80918D01*
X91148Y80797D01*
X91027Y80615D01*
X90984Y80400D01*
Y79919D01*
X90934Y79853D01*
X90863Y79683D01*
X90839Y79500D01*
X90863Y79317D01*
X90934Y79147D01*
X90984Y79081D01*
Y78600D01*
X91027Y78385D01*
X91148Y78203D01*
X91330Y78082D01*
X91545Y78039D01*
X91760Y78082D01*
X91942Y78203D01*
X92063Y78385D01*
X92106Y78600D01*
Y78794D01*
X92254D01*
Y78600D01*
X92297Y78385D01*
X92418Y78203D01*
X92600Y78082D01*
X92815Y78039D01*
X93030Y78082D01*
X93212Y78203D01*
X93333Y78385D01*
X93376Y78600D01*
Y79081D01*
X93426Y79147D01*
X93497Y79317D01*
X93521Y79500D01*
Y80823D01*
X95274Y82576D01*
X95386Y82722D01*
X95457Y82892D01*
X95466Y82961D01*
X95570Y82982D01*
X95752Y83103D01*
X95873Y83285D01*
X95916Y83500D01*
Y84018D01*
X95944Y84087D01*
X95985Y84400D01*
Y89350D01*
X95944Y89663D01*
X95823Y89955D01*
X95631Y90206D01*
X95335Y90501D01*
Y91475D01*
X95875D01*
Y95575D01*
X92175D01*
Y91475D01*
X92915D01*
Y90000D01*
X92956Y89687D01*
X93077Y89395D01*
X93269Y89144D01*
X93565Y88849D01*
Y85503D01*
X93524Y85300D01*
Y85172D01*
X93397Y85113D01*
X93376Y85130D01*
Y85300D01*
X93333Y85515D01*
X93212Y85697D01*
X93030Y85818D01*
X92815Y85861D01*
X92600Y85818D01*
X92418Y85697D01*
X92360Y85609D01*
X92350Y85610D01*
X91999D01*
X91942Y85697D01*
X91760Y85818D01*
X91545Y85861D01*
X91330Y85818D01*
X91148Y85697D01*
X91091Y85610D01*
X87075D01*
X86762Y85569D01*
X86470Y85448D01*
X86219Y85256D01*
X85869Y84905D01*
X85038Y85736D01*
X85033Y85770D01*
X84968Y85928D01*
X84864Y86064D01*
X84728Y86168D01*
X84570Y86233D01*
X84400Y86256D01*
X84230Y86233D01*
X84072Y86168D01*
X83936Y86064D01*
X83832Y85928D01*
X83767Y85770D01*
X83744Y85600D01*
X83767Y85430D01*
X83832Y85272D01*
X83936Y85136D01*
X84072Y85032D01*
X84230Y84967D01*
X84400Y84944D01*
X84516Y84960D01*
X85292Y84185D01*
X85231Y84038D01*
X85190Y83725D01*
Y81501D01*
X84869Y81181D01*
X80694Y77006D01*
X80621Y76910D01*
X42026D01*
X42010Y76926D01*
Y99192D01*
X44459D01*
Y99175D01*
X44502Y98960D01*
X44623Y98778D01*
X44805Y98657D01*
X45020Y98614D01*
X45235Y98657D01*
X45417Y98778D01*
X45538Y98960D01*
X45569Y99117D01*
X45741D01*
X45772Y98960D01*
X45893Y98778D01*
X46075Y98657D01*
X46290Y98614D01*
X46505Y98657D01*
X46687Y98778D01*
X46727Y98839D01*
X46854Y98800D01*
Y98602D01*
X45791Y97539D01*
X45679Y97393D01*
X45608Y97223D01*
X45584Y97040D01*
Y96450D01*
X45457Y96411D01*
X45417Y96472D01*
X45235Y96593D01*
X45020Y96636D01*
X44805Y96593D01*
X44623Y96472D01*
X44502Y96290D01*
X44459Y96075D01*
Y95594D01*
X44409Y95528D01*
X44338Y95358D01*
X44314Y95175D01*
X44338Y94992D01*
X44409Y94822D01*
X44459Y94756D01*
Y94275D01*
X44502Y94060D01*
X44623Y93878D01*
X44805Y93757D01*
X45020Y93714D01*
X45235Y93757D01*
X45417Y93878D01*
X45538Y94060D01*
X45581Y94275D01*
Y94469D01*
X45729D01*
Y94275D01*
X45772Y94060D01*
X45893Y93878D01*
X46075Y93757D01*
X46290Y93714D01*
X46505Y93757D01*
X46687Y93878D01*
X46808Y94060D01*
X46851Y94275D01*
Y94756D01*
X46901Y94822D01*
X46972Y94992D01*
X46996Y95175D01*
Y96748D01*
X48059Y97811D01*
X48171Y97957D01*
X48242Y98127D01*
X48266Y98310D01*
Y98800D01*
X48393Y98839D01*
X48433Y98778D01*
X48615Y98657D01*
X48830Y98614D01*
X49045Y98657D01*
X49227Y98778D01*
X49348Y98960D01*
X49379Y99117D01*
X50378D01*
X50917Y98578D01*
Y98075D01*
X50400D01*
Y93975D01*
X54100D01*
Y98075D01*
X52833D01*
Y98975D01*
X52801Y99223D01*
X52705Y99454D01*
X52553Y99653D01*
X51453Y100753D01*
X51254Y100905D01*
X51023Y101001D01*
X50775Y101033D01*
X49379D01*
X49348Y101190D01*
X49227Y101372D01*
X49045Y101493D01*
X48830Y101536D01*
D02*
G37*
G36*
X34400Y105535D02*
X34087Y105494D01*
X33795Y105373D01*
X33544Y105181D01*
X33352Y104930D01*
X33231Y104638D01*
X33190Y104325D01*
Y103401D01*
X31773Y101984D01*
X25075D01*
X24788Y101947D01*
X24520Y101836D01*
X24290Y101660D01*
X24114Y101430D01*
X24003Y101162D01*
X24003Y101158D01*
X21172Y98328D01*
X21020Y98129D01*
X20924Y97898D01*
X20892Y97650D01*
Y91242D01*
X20880Y91150D01*
X20913Y90899D01*
X21010Y90665D01*
X21164Y90464D01*
X21365Y90310D01*
X21599Y90213D01*
Y90087D01*
X21365Y89990D01*
X21164Y89836D01*
X21010Y89635D01*
X20913Y89401D01*
X20787D01*
X20690Y89635D01*
X20536Y89836D01*
X20335Y89990D01*
X20101Y90087D01*
X19850Y90120D01*
X19599Y90087D01*
X19365Y89990D01*
X19164Y89836D01*
X19010Y89635D01*
X18913Y89401D01*
X18880Y89150D01*
X18913Y88899D01*
X19010Y88665D01*
X19164Y88464D01*
X19338Y88330D01*
X19331Y88265D01*
X19313Y88217D01*
X19306Y88203D01*
X19155Y88183D01*
X18997Y88118D01*
X18861Y88014D01*
X18757Y87878D01*
X18692Y87720D01*
X18669Y87550D01*
X18692Y87380D01*
X18757Y87222D01*
X18861Y87086D01*
X18997Y86982D01*
X19155Y86917D01*
X19325Y86894D01*
X19495Y86917D01*
X19653Y86982D01*
X19762Y87066D01*
X23085D01*
X23216Y86935D01*
Y86750D01*
X23075D01*
Y85450D01*
X23216D01*
Y85100D01*
X22175D01*
Y84707D01*
X21950D01*
X21813Y84680D01*
X21698Y84602D01*
X21358Y84263D01*
X21225Y84281D01*
X21055Y84258D01*
X20897Y84193D01*
X20777Y84101D01*
X20715Y84115D01*
X20650Y84152D01*
Y84175D01*
X19350D01*
Y83075D01*
X20650D01*
Y83098D01*
X20715Y83135D01*
X20777Y83149D01*
X20897Y83057D01*
X21055Y82992D01*
X21225Y82969D01*
X21395Y82992D01*
X21553Y83057D01*
X21689Y83161D01*
X21793Y83297D01*
X21858Y83455D01*
X21881Y83625D01*
X21863Y83758D01*
X22048Y83943D01*
X22175Y83891D01*
Y83600D01*
X25125D01*
Y85100D01*
X24134D01*
Y85450D01*
X24275D01*
Y86750D01*
X24134D01*
Y87125D01*
X24099Y87301D01*
X23999Y87449D01*
X23599Y87849D01*
X23451Y87949D01*
X23275Y87984D01*
X19811D01*
X19789Y88014D01*
X19716Y88069D01*
X19766Y88191D01*
X19850Y88180D01*
X20101Y88213D01*
X20335Y88310D01*
X20536Y88464D01*
X20690Y88665D01*
X20787Y88899D01*
X20913D01*
X21010Y88665D01*
X21164Y88464D01*
X21365Y88310D01*
X21599Y88213D01*
X21850Y88180D01*
X21942Y88192D01*
X23900D01*
X24148Y88224D01*
X24379Y88320D01*
X24578Y88472D01*
X24953Y88847D01*
X25105Y89046D01*
X25201Y89277D01*
X25233Y89525D01*
Y95878D01*
X26539Y97183D01*
X26666Y97131D01*
Y94829D01*
X26639Y94795D01*
X26528Y94527D01*
X26491Y94240D01*
X26528Y93953D01*
X26639Y93685D01*
X26815Y93455D01*
X27045Y93279D01*
X27313Y93168D01*
X27600Y93131D01*
X27887Y93168D01*
X28155Y93279D01*
X28385Y93455D01*
X28560Y93630D01*
X28736Y93860D01*
X28847Y94128D01*
X28884Y94415D01*
Y98250D01*
X28847Y98537D01*
X28736Y98805D01*
X28560Y99035D01*
X28330Y99211D01*
X28062Y99322D01*
X27775Y99359D01*
X27488Y99322D01*
X27220Y99211D01*
X27217Y99208D01*
X26250D01*
X26002Y99176D01*
X25771Y99080D01*
X25572Y98928D01*
X23597Y96953D01*
X23445Y96754D01*
X23349Y96523D01*
X23317Y96275D01*
Y90108D01*
X22181D01*
X22155Y90235D01*
X22335Y90310D01*
X22536Y90464D01*
X22690Y90665D01*
X22787Y90899D01*
X22820Y91150D01*
X22808Y91242D01*
Y97253D01*
X25321Y99766D01*
X31918D01*
X32062Y99706D01*
X32375Y99665D01*
X32688Y99706D01*
X32980Y99827D01*
X33231Y100019D01*
X35256Y102044D01*
X35448Y102295D01*
X35569Y102587D01*
X35610Y102900D01*
Y104325D01*
X35569Y104638D01*
X35448Y104930D01*
X35256Y105181D01*
X35005Y105373D01*
X34713Y105494D01*
X34400Y105535D01*
D02*
G37*
G36*
X72400Y100200D02*
X68700D01*
Y96860D01*
X62500D01*
Y98075D01*
X58800D01*
Y93975D01*
X62500D01*
Y94440D01*
X68700D01*
Y91600D01*
X72400D01*
Y100200D01*
D02*
G37*
G36*
X85050Y95475D02*
X83750D01*
Y94375D01*
X84043D01*
Y88148D01*
X75364Y79469D01*
X75270Y79508D01*
X75100Y79531D01*
X74930Y79508D01*
X74772Y79443D01*
X74636Y79339D01*
X74532Y79203D01*
X74467Y79045D01*
X74444Y78875D01*
X74467Y78705D01*
X74532Y78547D01*
X74636Y78411D01*
X74772Y78307D01*
X74930Y78242D01*
X75100Y78219D01*
X75270Y78242D01*
X75428Y78307D01*
X75564Y78411D01*
X75668Y78547D01*
X75733Y78705D01*
X75752Y78847D01*
X84652Y87748D01*
X84730Y87863D01*
X84757Y88000D01*
Y94375D01*
X85050D01*
Y94568D01*
X85225D01*
Y94375D01*
X86525D01*
Y95475D01*
X85225D01*
Y95282D01*
X85050D01*
Y95475D01*
D02*
G37*
G36*
X48830Y96636D02*
X48615Y96593D01*
X48433Y96472D01*
X48312Y96290D01*
X48269Y96075D01*
Y94275D01*
X48312Y94060D01*
X48371Y93972D01*
Y92570D01*
X48373Y92560D01*
X48366Y92525D01*
X48391Y92399D01*
Y91950D01*
X48300D01*
Y90650D01*
X49400D01*
Y91950D01*
X49309D01*
Y92500D01*
X49289Y92601D01*
Y93972D01*
X49348Y94060D01*
X49391Y94275D01*
Y96075D01*
X49348Y96290D01*
X49227Y96472D01*
X49045Y96593D01*
X48830Y96636D01*
D02*
G37*
G36*
X47900Y91950D02*
X46800D01*
Y90650D01*
X46841D01*
Y90450D01*
X46775D01*
X46775Y88950D01*
X46655Y88934D01*
X46200D01*
Y89125D01*
X45699D01*
X45280Y89544D01*
X45281Y89550D01*
X45258Y89720D01*
X45193Y89878D01*
X45089Y90014D01*
X44953Y90118D01*
X44795Y90183D01*
X44625Y90206D01*
X44455Y90183D01*
X44297Y90118D01*
X44161Y90014D01*
X44057Y89878D01*
X43992Y89720D01*
X43969Y89550D01*
X43992Y89380D01*
X44057Y89222D01*
X44161Y89086D01*
X44297Y88982D01*
X44455Y88917D01*
X44625Y88894D01*
X44631Y88895D01*
X44900Y88626D01*
Y87925D01*
X46200D01*
Y88016D01*
X46775D01*
Y86550D01*
X49725D01*
Y86943D01*
X52850D01*
Y86775D01*
X54150D01*
Y86943D01*
X70088D01*
X70107Y86897D01*
X70211Y86761D01*
X70347Y86657D01*
X70505Y86592D01*
X70675Y86569D01*
X70845Y86592D01*
X71003Y86657D01*
X71139Y86761D01*
X71243Y86897D01*
X71308Y87055D01*
X71331Y87225D01*
X71308Y87395D01*
X71243Y87553D01*
X71139Y87689D01*
X71003Y87793D01*
X70845Y87858D01*
X70675Y87881D01*
X70505Y87858D01*
X70347Y87793D01*
X70211Y87689D01*
X70187Y87657D01*
X54150D01*
Y87875D01*
X52850D01*
Y87657D01*
X49725D01*
Y88050D01*
X48759D01*
X48724Y88226D01*
X48624Y88374D01*
X48199Y88799D01*
X48051Y88899D01*
X47940Y88921D01*
X47873Y88938D01*
X47825Y89044D01*
Y90450D01*
X47759D01*
Y90650D01*
X47900D01*
Y91950D01*
D02*
G37*
G36*
X76125Y91131D02*
X75955Y91108D01*
X75797Y91043D01*
X75661Y90939D01*
X75557Y90803D01*
X75492Y90645D01*
X75469Y90475D01*
X75492Y90305D01*
X75557Y90147D01*
X75661Y90011D01*
X75666Y90008D01*
Y89675D01*
X75701Y89499D01*
X75801Y89351D01*
X76300Y88851D01*
Y88300D01*
X77400D01*
Y89600D01*
X76849D01*
X76584Y89865D01*
Y90008D01*
X76589Y90011D01*
X76693Y90147D01*
X76758Y90305D01*
X76781Y90475D01*
X76758Y90645D01*
X76693Y90803D01*
X76589Y90939D01*
X76453Y91043D01*
X76295Y91108D01*
X76125Y91131D01*
D02*
G37*
G36*
X79400Y94275D02*
X77900D01*
Y93225D01*
X78191D01*
Y92700D01*
X78050D01*
Y91400D01*
X78191D01*
Y90940D01*
X78026Y90774D01*
X77926Y90626D01*
X77891Y90450D01*
Y89600D01*
X77800D01*
Y88300D01*
X77891D01*
Y88150D01*
X77800D01*
Y86850D01*
X78900D01*
Y88150D01*
X78809D01*
Y88300D01*
X78900D01*
Y89600D01*
X78809D01*
Y90260D01*
X78974Y90426D01*
X79074Y90574D01*
X79109Y90750D01*
Y91400D01*
X79250D01*
Y92700D01*
X79109D01*
Y93225D01*
X79400D01*
Y94275D01*
D02*
G37*
G36*
X77400Y88150D02*
X76300D01*
Y86850D01*
X76391D01*
Y86430D01*
X76332Y86353D01*
X76267Y86195D01*
X76244Y86025D01*
X76267Y85855D01*
X76332Y85697D01*
X76436Y85561D01*
X76572Y85457D01*
X76730Y85392D01*
X76900Y85369D01*
X77070Y85392D01*
X77228Y85457D01*
X77364Y85561D01*
X77468Y85697D01*
X77533Y85855D01*
X77556Y86025D01*
X77533Y86195D01*
X77468Y86353D01*
X77364Y86489D01*
X77309Y86531D01*
Y86850D01*
X77400D01*
Y88150D01*
D02*
G37*
G36*
X35850Y88300D02*
X34800D01*
Y86800D01*
X34968D01*
Y86325D01*
X34995Y86188D01*
X35073Y86073D01*
X35498Y85648D01*
X35613Y85570D01*
X35750Y85543D01*
X36800D01*
Y85325D01*
X38100D01*
Y85373D01*
X38165Y85410D01*
X38227Y85424D01*
X38347Y85332D01*
X38505Y85267D01*
X38675Y85244D01*
X38845Y85267D01*
X39003Y85332D01*
X39139Y85436D01*
X39243Y85572D01*
X39308Y85730D01*
X39331Y85900D01*
X39308Y86070D01*
X39243Y86228D01*
X39139Y86364D01*
X39003Y86468D01*
X38845Y86533D01*
X38675Y86556D01*
X38505Y86533D01*
X38347Y86468D01*
X38227Y86376D01*
X38210Y86380D01*
X38100Y86425D01*
X38100Y86425D01*
X38100Y86425D01*
X36800D01*
Y86257D01*
X35898D01*
X35682Y86473D01*
Y86800D01*
X35850D01*
Y88300D01*
D02*
G37*
G36*
X81800Y94275D02*
X80300D01*
Y93225D01*
X80743D01*
Y90275D01*
X80550D01*
Y88975D01*
X80743D01*
Y87098D01*
X74333Y80688D01*
X74200Y80706D01*
X74030Y80683D01*
X73872Y80618D01*
X73736Y80514D01*
X73632Y80378D01*
X73567Y80220D01*
X73544Y80050D01*
X73567Y79880D01*
X73632Y79722D01*
X73736Y79586D01*
X73872Y79482D01*
X74030Y79417D01*
X74200Y79394D01*
X74370Y79417D01*
X74528Y79482D01*
X74664Y79586D01*
X74768Y79722D01*
X74833Y79880D01*
X74856Y80050D01*
X74838Y80183D01*
X81352Y86698D01*
X81430Y86813D01*
X81457Y86950D01*
Y88975D01*
X81650D01*
Y90275D01*
X81457D01*
Y93225D01*
X81800D01*
Y94275D01*
D02*
G37*
G36*
X104275Y95575D02*
X100575D01*
Y91475D01*
X101665D01*
Y83925D01*
X98600D01*
Y80225D01*
X107200D01*
Y83925D01*
X104085D01*
Y91475D01*
X104275D01*
Y95575D01*
D02*
G37*
G36*
X25125Y82700D02*
X24075D01*
Y81200D01*
X24216D01*
Y80900D01*
X23975D01*
Y79800D01*
X25275D01*
Y80900D01*
X25134D01*
Y81850D01*
X25125Y81894D01*
Y82700D01*
D02*
G37*
G36*
X81250Y82608D02*
X80917Y82575D01*
X80596Y82478D01*
X80301Y82320D01*
X80042Y82108D01*
X79830Y81849D01*
X79672Y81554D01*
X79575Y81233D01*
X79542Y80900D01*
X79575Y80567D01*
X79672Y80246D01*
X79830Y79951D01*
X80042Y79692D01*
X80301Y79480D01*
X80596Y79322D01*
X80917Y79225D01*
X81250Y79192D01*
X81583Y79225D01*
X81904Y79322D01*
X82199Y79480D01*
X82458Y79692D01*
X82670Y79951D01*
X82828Y80246D01*
X82925Y80567D01*
X82958Y80900D01*
X82925Y81233D01*
X82828Y81554D01*
X82670Y81849D01*
X82458Y82108D01*
X82199Y82320D01*
X81904Y82478D01*
X81583Y82575D01*
X81250Y82608D01*
D02*
G37*
G36*
X49750D02*
X49417Y82575D01*
X49096Y82478D01*
X48801Y82320D01*
X48542Y82108D01*
X48330Y81849D01*
X48172Y81554D01*
X48075Y81233D01*
X48042Y80900D01*
X48075Y80567D01*
X48172Y80246D01*
X48330Y79951D01*
X48542Y79692D01*
X48801Y79480D01*
X49096Y79322D01*
X49417Y79225D01*
X49750Y79192D01*
X50083Y79225D01*
X50404Y79322D01*
X50699Y79480D01*
X50958Y79692D01*
X51170Y79951D01*
X51328Y80246D01*
X51425Y80567D01*
X51458Y80900D01*
X51425Y81233D01*
X51328Y81554D01*
X51170Y81849D01*
X50958Y82108D01*
X50699Y82320D01*
X50404Y82478D01*
X50083Y82575D01*
X49750Y82608D01*
D02*
G37*
G36*
X25275Y79400D02*
X23975D01*
Y78300D01*
X25275D01*
Y78351D01*
X26374D01*
X26485Y78277D01*
X26700Y78234D01*
X28500D01*
X28715Y78277D01*
X28897Y78398D01*
X29018Y78580D01*
X29061Y78795D01*
X29018Y79010D01*
X28897Y79192D01*
X28715Y79313D01*
X28500Y79356D01*
X26700D01*
X26485Y79313D01*
X26419Y79269D01*
X25275D01*
Y79400D01*
D02*
G37*
G36*
X95355Y80961D02*
X95140Y80918D01*
X94958Y80797D01*
X94837Y80615D01*
X94794Y80400D01*
Y78600D01*
X94837Y78385D01*
X94866Y78342D01*
Y77200D01*
X94675D01*
Y76100D01*
X95975D01*
Y77200D01*
X95784D01*
Y78252D01*
X95873Y78385D01*
X95916Y78600D01*
Y80400D01*
X95873Y80615D01*
X95752Y80797D01*
X95570Y80918D01*
X95355Y80961D01*
D02*
G37*
G36*
X93700Y74150D02*
X92200D01*
Y73134D01*
X91975D01*
Y73275D01*
X90675D01*
Y73134D01*
X90400D01*
X90224Y73099D01*
X90076Y72999D01*
X89776Y72699D01*
X89676Y72551D01*
X89651Y72425D01*
X89636Y72414D01*
X89532Y72278D01*
X89467Y72120D01*
X89444Y71950D01*
X89467Y71780D01*
X89532Y71622D01*
X89636Y71486D01*
X89772Y71382D01*
X89930Y71317D01*
X90100Y71294D01*
X90270Y71317D01*
X90428Y71382D01*
X90564Y71486D01*
X90668Y71622D01*
X90733Y71780D01*
X90756Y71950D01*
X90752Y71980D01*
X90835Y72075D01*
X91975D01*
Y72216D01*
X92200D01*
Y71480D01*
X91536Y70816D01*
X91495Y70833D01*
X91325Y70856D01*
X91155Y70833D01*
X90997Y70768D01*
X90864Y70666D01*
X90577Y70952D01*
X90462Y71030D01*
X90325Y71057D01*
X88850D01*
Y71750D01*
X87550D01*
Y70650D01*
X88245D01*
X88448Y70448D01*
X88563Y70370D01*
X88700Y70343D01*
X90177D01*
X90573Y69948D01*
X90688Y69870D01*
X90771Y69854D01*
X90861Y69736D01*
X90997Y69632D01*
X91155Y69567D01*
X91325Y69544D01*
X91495Y69567D01*
X91653Y69632D01*
X91789Y69736D01*
X91893Y69872D01*
X91958Y70030D01*
X91981Y70200D01*
X91975Y70245D01*
X92930Y71200D01*
X93700D01*
Y72150D01*
Y73100D01*
Y74150D01*
D02*
G37*
G36*
X95975Y75700D02*
X94675D01*
Y74600D01*
X94891D01*
Y74150D01*
X94600D01*
Y73100D01*
X96100D01*
Y74150D01*
X95809D01*
Y74600D01*
X95975D01*
Y75700D01*
D02*
G37*
G36*
X59275Y71806D02*
X59105Y71783D01*
X58947Y71718D01*
X58811Y71614D01*
X58707Y71478D01*
X58642Y71320D01*
X58619Y71150D01*
X58642Y70980D01*
X58707Y70822D01*
X58811Y70686D01*
X58947Y70582D01*
X59105Y70517D01*
X59275Y70494D01*
X59445Y70517D01*
X59603Y70582D01*
X59739Y70686D01*
X59820Y70793D01*
X60225D01*
Y70150D01*
X61525D01*
Y71350D01*
X61080D01*
X61027Y71402D01*
X60912Y71480D01*
X60775Y71507D01*
X59820D01*
X59739Y71614D01*
X59603Y71718D01*
X59445Y71783D01*
X59275Y71806D01*
D02*
G37*
G36*
X107200Y79325D02*
X98600D01*
Y75625D01*
X102357D01*
X102396Y75595D01*
X102627Y75499D01*
X102875Y75467D01*
X103253D01*
X104992Y73728D01*
Y69607D01*
X104400D01*
Y70000D01*
X103350D01*
Y68500D01*
X104400D01*
Y68893D01*
X105012D01*
X105024Y68802D01*
X105120Y68571D01*
X105272Y68372D01*
X105300Y68351D01*
Y68275D01*
X105399D01*
X105452Y68235D01*
X105463Y68162D01*
X105452Y68090D01*
X105272Y67953D01*
X105120Y67754D01*
X105024Y67523D01*
X104992Y67275D01*
Y67207D01*
X104400D01*
Y67600D01*
X103350D01*
Y66100D01*
X104400D01*
Y66493D01*
X104992D01*
Y63997D01*
X104287Y63293D01*
X104240Y63256D01*
X103560D01*
X103385Y63390D01*
X103151Y63487D01*
X102900Y63520D01*
X102649Y63487D01*
X102415Y63390D01*
X102214Y63236D01*
X102060Y63035D01*
X102049Y63009D01*
X100925D01*
Y63050D01*
X99625D01*
Y61950D01*
X100925D01*
Y62091D01*
X102049D01*
X102060Y62065D01*
X102214Y61864D01*
X102415Y61710D01*
X102649Y61613D01*
Y61487D01*
X102415Y61390D01*
X102214Y61236D01*
X102060Y61035D01*
X101963Y60801D01*
X101930Y60550D01*
X101963Y60299D01*
X102060Y60065D01*
X102214Y59864D01*
X102415Y59710D01*
X102649Y59613D01*
X102900Y59580D01*
X103151Y59613D01*
X103385Y59710D01*
X103560Y59844D01*
X104240D01*
X104415Y59710D01*
X104649Y59613D01*
X104900Y59580D01*
X105151Y59613D01*
X105385Y59710D01*
X105586Y59864D01*
X105740Y60065D01*
X105837Y60299D01*
X105870Y60550D01*
X105837Y60801D01*
X105740Y61035D01*
X105606Y61210D01*
Y61890D01*
X105643Y61937D01*
X106628Y62922D01*
X106780Y63121D01*
X106876Y63352D01*
X106908Y63600D01*
Y67275D01*
X106876Y67523D01*
X106780Y67754D01*
X106628Y67953D01*
X106448Y68090D01*
X106437Y68162D01*
X106448Y68235D01*
X106501Y68275D01*
X106600D01*
Y68351D01*
X106628Y68372D01*
X106780Y68571D01*
X106876Y68802D01*
X106908Y69050D01*
Y74125D01*
X106876Y74373D01*
X106780Y74604D01*
X106628Y74803D01*
X105922Y75508D01*
X105971Y75625D01*
X107200D01*
Y79325D01*
D02*
G37*
G36*
X101975Y74381D02*
X101805Y74358D01*
X101647Y74293D01*
X101511Y74189D01*
X101407Y74053D01*
X101342Y73895D01*
X101319Y73725D01*
X101342Y73555D01*
X101407Y73397D01*
X101511Y73261D01*
X101516Y73258D01*
Y71975D01*
X101375D01*
Y70675D01*
X101516D01*
Y70000D01*
X101450D01*
Y68500D01*
X102500D01*
Y70000D01*
X102434D01*
Y70675D01*
X102575D01*
Y71975D01*
X102434D01*
Y73258D01*
X102439Y73261D01*
X102543Y73397D01*
X102608Y73555D01*
X102631Y73725D01*
X102608Y73895D01*
X102543Y74053D01*
X102439Y74189D01*
X102303Y74293D01*
X102145Y74358D01*
X101975Y74381D01*
D02*
G37*
G36*
X97450Y72456D02*
X97280Y72433D01*
X97122Y72368D01*
X96986Y72264D01*
X96882Y72128D01*
X96817Y71970D01*
X96794Y71800D01*
X96817Y71630D01*
X96882Y71472D01*
X96986Y71336D01*
X96991Y71333D01*
Y68890D01*
X96592Y68491D01*
X96475Y68540D01*
Y69350D01*
X95175D01*
Y68707D01*
X94925D01*
Y68875D01*
X94532D01*
Y69405D01*
X94639Y69486D01*
X94743Y69622D01*
X94808Y69780D01*
X94831Y69950D01*
X94808Y70120D01*
X94743Y70278D01*
X94639Y70414D01*
X94503Y70518D01*
X94345Y70583D01*
X94175Y70606D01*
X94005Y70583D01*
X93847Y70518D01*
X93711Y70414D01*
X93607Y70278D01*
X93542Y70120D01*
X93519Y69950D01*
X93542Y69780D01*
X93607Y69622D01*
X93711Y69486D01*
X93818Y69405D01*
Y68875D01*
X93425D01*
Y67825D01*
Y66875D01*
Y65925D01*
X94925D01*
Y66916D01*
X96125D01*
X96295Y66950D01*
X96975D01*
Y67576D01*
X97774Y68376D01*
X97874Y68524D01*
X97909Y68700D01*
Y71333D01*
X97914Y71336D01*
X98018Y71472D01*
X98083Y71630D01*
X98106Y71800D01*
X98083Y71970D01*
X98018Y72128D01*
X97914Y72264D01*
X97778Y72368D01*
X97620Y72433D01*
X97450Y72456D01*
D02*
G37*
G36*
X61450Y66275D02*
X60150D01*
Y65972D01*
X58165D01*
X58029Y65945D01*
X57913Y65868D01*
X57494Y65449D01*
X57417Y65433D01*
X57235Y65312D01*
X57114Y65130D01*
X57071Y64915D01*
Y63915D01*
X57114Y63701D01*
X57235Y63519D01*
X57417Y63397D01*
X57632Y63355D01*
X57847Y63397D01*
X58029Y63519D01*
X58150Y63701D01*
X58193Y63915D01*
Y64915D01*
X58159Y65087D01*
X58246Y65177D01*
X58272Y65173D01*
X58364Y65031D01*
X58341Y64915D01*
Y63915D01*
X58384Y63701D01*
X58418Y63650D01*
Y62500D01*
X58300D01*
Y61200D01*
X58843D01*
X58877Y61193D01*
X58911Y61200D01*
X59500D01*
Y62500D01*
X59336D01*
Y63575D01*
X59420Y63701D01*
X59463Y63915D01*
Y64915D01*
X59420Y65130D01*
X59409Y65147D01*
X59469Y65259D01*
X60150D01*
Y65175D01*
X61450D01*
Y66275D01*
D02*
G37*
G36*
X46925Y73450D02*
X44925D01*
Y73062D01*
X43319Y71456D01*
X43127Y71205D01*
X43052Y71025D01*
X43025D01*
Y70959D01*
X43006Y70913D01*
X42965Y70600D01*
Y52351D01*
X42344Y51731D01*
X42152Y51480D01*
X42031Y51188D01*
X41990Y50875D01*
X41994Y50840D01*
X41886Y50745D01*
X41825Y50768D01*
Y50800D01*
X40325D01*
Y50627D01*
X40213Y50605D01*
X40098Y50527D01*
X39648Y50077D01*
X39570Y49962D01*
X39552Y49870D01*
X39425Y49882D01*
Y50800D01*
X37925D01*
Y50682D01*
X37725D01*
Y50900D01*
X36425D01*
Y50205D01*
X36273Y50052D01*
X36195Y49937D01*
X36168Y49800D01*
Y48670D01*
X36061Y48589D01*
X35957Y48453D01*
X35892Y48295D01*
X35869Y48125D01*
X35892Y47955D01*
X35957Y47797D01*
X36061Y47661D01*
X36197Y47557D01*
X36355Y47492D01*
X36525Y47469D01*
X36695Y47492D01*
X36853Y47557D01*
X36989Y47661D01*
X37093Y47797D01*
X37158Y47955D01*
X37181Y48125D01*
X37158Y48295D01*
X37093Y48453D01*
X36989Y48589D01*
X36882Y48670D01*
Y49652D01*
X37030Y49800D01*
X37725D01*
Y49968D01*
X37925D01*
Y49750D01*
X39416D01*
X39425Y49750D01*
X39543Y49729D01*
Y48921D01*
X39425Y48900D01*
X39425Y48900D01*
X39425Y48900D01*
X37925D01*
Y47850D01*
X39425D01*
Y48018D01*
X39525D01*
X39662Y48045D01*
X39777Y48123D01*
X40152Y48498D01*
X40198Y48566D01*
X40325Y48527D01*
Y47850D01*
X41825D01*
Y47941D01*
X41838Y47947D01*
X41965Y47867D01*
Y46760D01*
X33325D01*
X33012Y46719D01*
X32720Y46598D01*
X32469Y46406D01*
X32277Y46155D01*
X32156Y45863D01*
X32115Y45550D01*
X32156Y45237D01*
X32277Y44945D01*
X32469Y44694D01*
X32720Y44502D01*
X33012Y44381D01*
X33325Y44340D01*
X41965D01*
Y38908D01*
X29875D01*
X29627Y38876D01*
X29396Y38780D01*
X29197Y38628D01*
X29061Y38450D01*
X28950D01*
Y38199D01*
X28949Y38198D01*
X28917Y37950D01*
X28949Y37702D01*
X28950Y37701D01*
Y37450D01*
X29061D01*
X29197Y37272D01*
X29396Y37120D01*
X29627Y37024D01*
X29875Y36992D01*
X32042D01*
Y35108D01*
X29875D01*
X29627Y35076D01*
X29396Y34980D01*
X29234Y34855D01*
X29107Y34905D01*
Y35327D01*
X29330Y35550D01*
X30800D01*
Y36550D01*
X28950D01*
Y36180D01*
X28610Y35840D01*
X28483Y35892D01*
Y37000D01*
X28451Y37248D01*
X28450Y37249D01*
Y37500D01*
X28339D01*
X28203Y37678D01*
X28004Y37830D01*
X27773Y37926D01*
X27525Y37958D01*
X22661D01*
X22651Y37962D01*
X22400Y37995D01*
X22149Y37962D01*
X22139Y37958D01*
X20661D01*
X20651Y37962D01*
X20400Y37995D01*
X20149Y37962D01*
X19915Y37865D01*
X19714Y37711D01*
X19560Y37510D01*
X19463Y37276D01*
X19430Y37025D01*
X19442Y36933D01*
Y35117D01*
X19430Y35025D01*
X19463Y34774D01*
X19560Y34540D01*
X19714Y34339D01*
X19915Y34185D01*
X20149Y34088D01*
Y33962D01*
X19915Y33865D01*
X19714Y33711D01*
X19560Y33510D01*
X19463Y33276D01*
X19430Y33025D01*
X19463Y32774D01*
X19560Y32540D01*
X19714Y32339D01*
X19915Y32185D01*
X20149Y32088D01*
X20400Y32055D01*
X20651Y32088D01*
X20885Y32185D01*
X21086Y32339D01*
X21240Y32540D01*
X21337Y32774D01*
X21463D01*
X21560Y32540D01*
X21714Y32339D01*
X21915Y32185D01*
X22149Y32088D01*
X22400Y32055D01*
X22651Y32088D01*
X22885Y32185D01*
X23086Y32339D01*
X23240Y32540D01*
X23337Y32774D01*
X23370Y33025D01*
X23337Y33276D01*
X23240Y33510D01*
X23086Y33711D01*
X22885Y33865D01*
X22651Y33962D01*
Y34088D01*
X22885Y34185D01*
X23086Y34339D01*
X23240Y34540D01*
X23337Y34774D01*
X23370Y35025D01*
X23337Y35276D01*
X23240Y35510D01*
X23086Y35711D01*
X22885Y35865D01*
X22766Y35915D01*
X22791Y36042D01*
X26567D01*
Y33200D01*
X26599Y32952D01*
X26600Y32951D01*
Y32700D01*
X26711D01*
X26847Y32522D01*
X27046Y32370D01*
X27277Y32274D01*
X27525Y32242D01*
X27773Y32274D01*
X28004Y32370D01*
X28203Y32522D01*
X28266Y32605D01*
X28393Y32562D01*
Y32250D01*
Y30825D01*
X28200D01*
Y29525D01*
X29300D01*
Y30825D01*
X29107D01*
Y31750D01*
X30800D01*
Y32750D01*
X29107D01*
Y33395D01*
X29234Y33445D01*
X29396Y33320D01*
X29627Y33224D01*
X29875Y33192D01*
X32618D01*
Y28550D01*
X31425D01*
Y27132D01*
X28698D01*
X27907Y27923D01*
Y30755D01*
X28014Y30836D01*
X28118Y30972D01*
X28183Y31130D01*
X28206Y31300D01*
X28183Y31470D01*
X28118Y31628D01*
X28014Y31764D01*
X27878Y31868D01*
X27720Y31933D01*
X27550Y31956D01*
X27380Y31933D01*
X27222Y31868D01*
X27086Y31764D01*
X26982Y31628D01*
X26954Y31561D01*
X26940Y31559D01*
X26826Y31582D01*
X26805Y31687D01*
X26727Y31802D01*
X25832Y32698D01*
Y34530D01*
X25939Y34611D01*
X26043Y34747D01*
X26108Y34905D01*
X26131Y35075D01*
X26108Y35245D01*
X26043Y35403D01*
X25939Y35539D01*
X25803Y35643D01*
X25645Y35708D01*
X25475Y35731D01*
X25305Y35708D01*
X25147Y35643D01*
X25011Y35539D01*
X24907Y35403D01*
X24842Y35245D01*
X24819Y35075D01*
X24842Y34905D01*
X24907Y34747D01*
X25011Y34611D01*
X25118Y34530D01*
Y32550D01*
X25145Y32413D01*
X25223Y32298D01*
X26118Y31402D01*
Y31070D01*
X26011Y30989D01*
X25907Y30853D01*
X25842Y30695D01*
X25819Y30525D01*
X25842Y30355D01*
X25907Y30197D01*
X26011Y30061D01*
X26147Y29957D01*
X26305Y29892D01*
X26475Y29869D01*
X26645Y29892D01*
X26803Y29957D01*
X26939Y30061D01*
X27043Y30197D01*
X27066Y30254D01*
X27193Y30228D01*
Y27775D01*
X27220Y27638D01*
X27298Y27523D01*
X28298Y26523D01*
X28413Y26445D01*
X28550Y26418D01*
X33650D01*
X33787Y26445D01*
X33902Y26523D01*
X34102Y26723D01*
X34180Y26838D01*
X34207Y26975D01*
Y27050D01*
X34375D01*
Y28550D01*
X33332D01*
Y33259D01*
X33479Y33320D01*
X33678Y33472D01*
X33830Y33671D01*
X33926Y33902D01*
X33958Y34150D01*
Y36992D01*
X36918D01*
Y34925D01*
X35800D01*
Y34532D01*
X35420D01*
X35339Y34639D01*
X35203Y34743D01*
X35045Y34808D01*
X34875Y34831D01*
X34705Y34808D01*
X34547Y34743D01*
X34411Y34639D01*
X34307Y34503D01*
X34242Y34345D01*
X34219Y34175D01*
X34242Y34005D01*
X34307Y33847D01*
X34411Y33711D01*
X34518Y33630D01*
Y30975D01*
X34545Y30838D01*
X34623Y30723D01*
X35523Y29823D01*
X35638Y29745D01*
X35775Y29718D01*
X35930D01*
X36011Y29611D01*
X36147Y29507D01*
X36305Y29442D01*
X36475Y29419D01*
X36645Y29442D01*
X36803Y29507D01*
X36939Y29611D01*
X37043Y29747D01*
X37108Y29905D01*
X37131Y30075D01*
X37108Y30245D01*
X37043Y30403D01*
X36939Y30539D01*
X36803Y30643D01*
X36645Y30708D01*
X36475Y30731D01*
X36305Y30708D01*
X36147Y30643D01*
X36011Y30539D01*
X36005Y30530D01*
X35836Y30519D01*
X35232Y31123D01*
Y33630D01*
X35339Y33711D01*
X35420Y33818D01*
X35800D01*
Y33425D01*
X38750D01*
Y34925D01*
X37632D01*
Y36992D01*
X41965D01*
Y34958D01*
X40050D01*
X39802Y34926D01*
X39571Y34830D01*
X39372Y34678D01*
X39220Y34479D01*
X39124Y34248D01*
X39092Y34000D01*
Y30175D01*
X39124Y29927D01*
X39220Y29696D01*
X39372Y29497D01*
X39516Y29388D01*
X39550Y29275D01*
X39563Y29184D01*
X39471Y29082D01*
X38900D01*
Y29275D01*
X37600D01*
Y28175D01*
X38900D01*
Y28368D01*
X39650D01*
X39787Y28395D01*
X39902Y28473D01*
X40010Y28581D01*
X40500D01*
Y28139D01*
X40322Y28003D01*
X40170Y27804D01*
X40074Y27573D01*
X40042Y27325D01*
X40074Y27077D01*
X40170Y26846D01*
X40322Y26647D01*
X40521Y26495D01*
X40752Y26399D01*
X41000Y26367D01*
X43542D01*
Y23306D01*
X43415Y23280D01*
X43340Y23460D01*
X43186Y23661D01*
X42985Y23815D01*
X42751Y23912D01*
X42500Y23945D01*
X42249Y23912D01*
X42015Y23815D01*
X41814Y23661D01*
X41660Y23460D01*
X41563Y23226D01*
X41437D01*
X41340Y23460D01*
X41186Y23661D01*
X40985Y23815D01*
X40751Y23912D01*
X40500Y23945D01*
X40249Y23912D01*
X40015Y23815D01*
X39814Y23661D01*
X39660Y23460D01*
X39563Y23226D01*
X39530Y22975D01*
X39563Y22724D01*
X39660Y22490D01*
X39814Y22289D01*
X40015Y22135D01*
X40249Y22038D01*
Y21912D01*
X40015Y21815D01*
X39814Y21661D01*
X39660Y21460D01*
X39563Y21226D01*
X39530Y20975D01*
X39563Y20724D01*
X39660Y20490D01*
X39814Y20289D01*
X40015Y20135D01*
X40249Y20038D01*
X40500Y20005D01*
X40751Y20038D01*
X40985Y20135D01*
X41186Y20289D01*
X41340Y20490D01*
X41437Y20724D01*
X41563D01*
X41660Y20490D01*
X41814Y20289D01*
X42015Y20135D01*
X42249Y20038D01*
X42500Y20005D01*
X42751Y20038D01*
X42985Y20135D01*
X43186Y20289D01*
X43340Y20490D01*
X43437Y20724D01*
X43563D01*
X43660Y20490D01*
X43814Y20289D01*
X44015Y20135D01*
X44249Y20038D01*
X44500Y20005D01*
X44751Y20038D01*
X44985Y20135D01*
X45186Y20289D01*
X45340Y20490D01*
X45437Y20724D01*
X45470Y20975D01*
X45458Y21067D01*
Y22883D01*
X45470Y22975D01*
X45458Y23067D01*
Y24650D01*
X45475D01*
Y26450D01*
X45458D01*
Y27325D01*
X45426Y27573D01*
X45330Y27804D01*
X45178Y28003D01*
X45178D01*
X44979Y28155D01*
X44950Y28167D01*
Y28604D01*
X45052Y28673D01*
X45530Y29150D01*
X45900D01*
Y31000D01*
X44900D01*
Y29530D01*
X44652Y29282D01*
X44305D01*
X44255Y29409D01*
X44380Y29571D01*
X44476Y29802D01*
X44508Y30050D01*
Y32940D01*
X49066D01*
Y18650D01*
X49101Y18389D01*
X49201Y18146D01*
X49362Y17937D01*
X50162Y17137D01*
X50371Y16976D01*
X50614Y16876D01*
X50875Y16841D01*
X63575D01*
X63836Y16876D01*
X64079Y16976D01*
X64288Y17137D01*
X64449Y17346D01*
X64549Y17589D01*
X64584Y17850D01*
X64549Y18111D01*
X64449Y18354D01*
X64288Y18563D01*
X64079Y18723D01*
X63836Y18824D01*
X63575Y18859D01*
X51293D01*
X51084Y19068D01*
Y29749D01*
X51211Y29757D01*
X51224Y29652D01*
X51320Y29421D01*
X51472Y29222D01*
X51671Y29070D01*
X51675Y29068D01*
Y28975D01*
X51901D01*
X51902Y28974D01*
X52150Y28942D01*
X52398Y28974D01*
X52399Y28975D01*
X52675D01*
Y29105D01*
X52828Y29222D01*
X52980Y29421D01*
X53076Y29652D01*
X53108Y29900D01*
Y33192D01*
X53453D01*
X54992Y31653D01*
Y29900D01*
X55024Y29652D01*
X55120Y29421D01*
X55245Y29259D01*
X55195Y29132D01*
X54575D01*
Y30825D01*
X53575D01*
Y28975D01*
X53693D01*
Y28775D01*
X53720Y28638D01*
X53722Y28635D01*
X53655Y28508D01*
X53571D01*
X53348Y28601D01*
X53100Y28633D01*
X52852Y28601D01*
X52621Y28505D01*
X52422Y28353D01*
X52270Y28154D01*
X52174Y27923D01*
X52142Y27675D01*
Y23092D01*
X52130Y23000D01*
X52142Y22908D01*
Y21092D01*
X52130Y21000D01*
X52163Y20749D01*
X52260Y20515D01*
X52414Y20314D01*
X52615Y20160D01*
X52849Y20063D01*
X53100Y20030D01*
X53351Y20063D01*
X53585Y20160D01*
X53786Y20314D01*
X53940Y20515D01*
X54037Y20749D01*
X54070Y21000D01*
X54058Y21092D01*
Y22908D01*
X54070Y23000D01*
X54058Y23092D01*
Y26592D01*
X56900D01*
X57148Y26624D01*
X57149Y26625D01*
X57400D01*
Y26736D01*
X57578Y26872D01*
X57730Y27071D01*
X57826Y27302D01*
X57858Y27550D01*
X57826Y27798D01*
X57730Y28029D01*
X57578Y28228D01*
X57447Y28328D01*
X57443Y28342D01*
X57451Y28472D01*
X57527Y28523D01*
X57980Y28975D01*
X58350D01*
Y30825D01*
X58400Y30850D01*
Y32150D01*
X57300D01*
Y30850D01*
X57350Y30825D01*
Y29355D01*
X57127Y29132D01*
X56705D01*
X56655Y29259D01*
X56780Y29421D01*
X56876Y29652D01*
X56908Y29900D01*
Y32050D01*
X56876Y32298D01*
X56780Y32529D01*
X56628Y32728D01*
X55679Y33676D01*
X55728Y33793D01*
X59552D01*
X61143Y32202D01*
Y30549D01*
X61075Y30450D01*
X61034Y30450D01*
X60907Y30493D01*
Y31250D01*
X60880Y31387D01*
X60802Y31502D01*
X60552Y31752D01*
X60437Y31830D01*
X60300Y31857D01*
X59900D01*
Y32150D01*
X58800D01*
Y30850D01*
X59900D01*
Y31143D01*
X60152D01*
X60193Y31102D01*
Y30450D01*
X60025D01*
Y28950D01*
X61016D01*
X61075Y28950D01*
X61143Y28851D01*
Y28050D01*
X60025D01*
Y26550D01*
X62975D01*
Y26720D01*
X63100Y26725D01*
Y26725D01*
X64400D01*
Y27825D01*
X64132D01*
Y27955D01*
X64239Y28036D01*
X64343Y28172D01*
X64408Y28330D01*
X64431Y28500D01*
X64408Y28670D01*
X64343Y28828D01*
X64239Y28964D01*
X64103Y29068D01*
X63945Y29133D01*
X63775Y29156D01*
X63605Y29133D01*
X63447Y29068D01*
X63311Y28964D01*
X63207Y28828D01*
X63142Y28670D01*
X63119Y28500D01*
X63142Y28330D01*
X63207Y28172D01*
X63311Y28036D01*
X63418Y27955D01*
Y27825D01*
X63100D01*
Y27825D01*
X62975Y27830D01*
Y28050D01*
X61857D01*
Y32350D01*
X61830Y32487D01*
X61752Y32602D01*
X59952Y34402D01*
X59837Y34480D01*
X59700Y34507D01*
X54848D01*
X54528Y34828D01*
X54329Y34980D01*
X54098Y35076D01*
X53850Y35108D01*
X52722D01*
X52605Y35198D01*
X52313Y35319D01*
X52000Y35360D01*
X44385D01*
Y37500D01*
Y45600D01*
Y45916D01*
X61833D01*
X61836Y45911D01*
X61972Y45807D01*
X62130Y45742D01*
X62300Y45719D01*
X62470Y45742D01*
X62628Y45807D01*
X62764Y45911D01*
X62868Y46047D01*
X62933Y46205D01*
X62956Y46375D01*
X62933Y46545D01*
X62868Y46703D01*
X62764Y46839D01*
X62628Y46943D01*
X62470Y47008D01*
X62300Y47031D01*
X62130Y47008D01*
X61972Y46943D01*
X61836Y46839D01*
X61833Y46834D01*
X44385D01*
Y48118D01*
X44950D01*
X45087Y48145D01*
X45202Y48223D01*
X48102Y51123D01*
X48180Y51238D01*
X48207Y51375D01*
Y57495D01*
X48323Y57546D01*
X48334Y57546D01*
X48542Y57292D01*
X48801Y57080D01*
X49096Y56922D01*
X49417Y56825D01*
X49750Y56792D01*
X50083Y56825D01*
X50404Y56922D01*
X50699Y57080D01*
X50958Y57292D01*
X51170Y57551D01*
X51328Y57846D01*
X51425Y58167D01*
X51458Y58500D01*
X51425Y58833D01*
X51328Y59154D01*
X51170Y59449D01*
X50958Y59708D01*
X50699Y59920D01*
X50404Y60078D01*
X50083Y60175D01*
X49750Y60208D01*
X49417Y60175D01*
X49096Y60078D01*
X48801Y59920D01*
X48542Y59708D01*
X48334Y59454D01*
X48323Y59454D01*
X48207Y59505D01*
Y63727D01*
X49523Y65043D01*
X51175D01*
Y64750D01*
X52275D01*
Y66050D01*
X51175D01*
Y65757D01*
X49375D01*
X49238Y65730D01*
X49123Y65652D01*
X47598Y64127D01*
X47520Y64012D01*
X47493Y63875D01*
Y51523D01*
X44802Y48832D01*
X44264D01*
X44223Y48930D01*
X44031Y49181D01*
X43850Y49320D01*
Y49325D01*
X43843D01*
X43780Y49373D01*
X43488Y49494D01*
X43175Y49535D01*
X42862Y49494D01*
X42570Y49373D01*
X42319Y49181D01*
X42243Y49082D01*
X42150D01*
X42013Y49055D01*
X41898Y48977D01*
X41820Y48900D01*
X40384D01*
X40325Y48900D01*
X40257Y48999D01*
Y49677D01*
X40330Y49750D01*
X41825D01*
Y49968D01*
X42411D01*
X42550Y49861D01*
Y49725D01*
X42841D01*
X42887Y49706D01*
X43200Y49665D01*
X43513Y49706D01*
X43559Y49725D01*
X43850D01*
Y49861D01*
X44056Y50019D01*
X45031Y50994D01*
X45223Y51245D01*
X45344Y51537D01*
X45385Y51850D01*
Y70099D01*
X46137Y70850D01*
X46925D01*
Y71805D01*
X46969Y71912D01*
X47010Y72225D01*
X46969Y72538D01*
X46925Y72645D01*
Y73450D01*
D02*
G37*
G36*
X92525Y66975D02*
X91025D01*
Y65925D01*
X91366D01*
Y65475D01*
X91175D01*
Y64375D01*
X92475D01*
Y65475D01*
X92284D01*
Y65925D01*
X92525D01*
Y66975D01*
D02*
G37*
G36*
X79175Y66625D02*
X77875D01*
Y66007D01*
X75900D01*
X75763Y65980D01*
X75648Y65902D01*
X75380Y65634D01*
X75302Y65519D01*
X75275Y65382D01*
Y65313D01*
X75235Y65287D01*
X75114Y65105D01*
X75071Y64890D01*
Y63890D01*
X75114Y63676D01*
X75235Y63494D01*
X75417Y63372D01*
X75632Y63330D01*
X75847Y63372D01*
X76029Y63494D01*
X76150Y63676D01*
X76193Y63890D01*
Y64890D01*
X76150Y65105D01*
X76109Y65166D01*
X76177Y65293D01*
X76357D01*
X76425Y65166D01*
X76384Y65105D01*
X76341Y64890D01*
Y63890D01*
X76384Y63676D01*
X76505Y63494D01*
X76687Y63372D01*
X76902Y63330D01*
X77117Y63372D01*
X77299Y63494D01*
X77420Y63676D01*
X77451Y63834D01*
X78175D01*
Y63550D01*
X79375D01*
Y64850D01*
X78175D01*
Y64547D01*
X77463D01*
Y64890D01*
X77420Y65105D01*
X77379Y65166D01*
X77447Y65293D01*
X78050D01*
X78187Y65320D01*
X78302Y65398D01*
X78430Y65525D01*
X79175D01*
Y66625D01*
D02*
G37*
G36*
X53775Y66050D02*
X52675D01*
Y64750D01*
X52766D01*
Y64500D01*
X52700D01*
Y63200D01*
X53800D01*
Y63491D01*
X54737D01*
X54877Y63397D01*
X55092Y63355D01*
X55307Y63397D01*
X55489Y63519D01*
X55610Y63701D01*
X55653Y63915D01*
Y64915D01*
X55610Y65130D01*
X55489Y65312D01*
X55307Y65433D01*
X55092Y65476D01*
X54877Y65433D01*
X54695Y65312D01*
X54574Y65130D01*
X54531Y64915D01*
Y64409D01*
X53800D01*
Y64500D01*
X53684D01*
Y64750D01*
X53775D01*
Y66050D01*
D02*
G37*
G36*
X89705Y64961D02*
X89490Y64918D01*
X89308Y64797D01*
X89187Y64615D01*
X89144Y64400D01*
Y62600D01*
X89187Y62385D01*
X89308Y62203D01*
X89490Y62082D01*
X89705Y62039D01*
X89920Y62082D01*
X90102Y62203D01*
X90223Y62385D01*
X90266Y62600D01*
Y62966D01*
X91175D01*
Y62875D01*
X92475D01*
Y63975D01*
X91175D01*
Y63884D01*
X90266D01*
Y64400D01*
X90223Y64615D01*
X90102Y64797D01*
X89920Y64918D01*
X89705Y64961D01*
D02*
G37*
G36*
X74362Y65451D02*
X74147Y65408D01*
X73965Y65287D01*
X73844Y65105D01*
X73801Y64890D01*
Y63890D01*
X73844Y63676D01*
X73965Y63494D01*
X74005Y63467D01*
Y62525D01*
X73950D01*
Y61325D01*
X75250D01*
Y62525D01*
X74719D01*
Y63467D01*
X74759Y63494D01*
X74880Y63676D01*
X74923Y63890D01*
Y64890D01*
X74880Y65105D01*
X74759Y65287D01*
X74577Y65408D01*
X74362Y65451D01*
D02*
G37*
G36*
X56362Y65476D02*
X56147Y65433D01*
X55965Y65312D01*
X55844Y65130D01*
X55801Y64915D01*
Y63915D01*
X55844Y63701D01*
X55878Y63650D01*
Y62575D01*
X55725D01*
Y61275D01*
X56925D01*
Y62575D01*
X56796D01*
Y63575D01*
X56880Y63701D01*
X56923Y63915D01*
Y64915D01*
X56880Y65130D01*
X56759Y65312D01*
X56577Y65433D01*
X56362Y65476D01*
D02*
G37*
G36*
X73092Y65451D02*
X72877Y65408D01*
X72695Y65287D01*
X72574Y65105D01*
X72531Y64890D01*
Y63890D01*
X72574Y63676D01*
X72695Y63494D01*
X72735Y63467D01*
Y62700D01*
X72525D01*
Y61400D01*
X72735D01*
Y61175D01*
X72525D01*
Y59875D01*
X73625D01*
Y61175D01*
X73449D01*
Y61400D01*
X73625D01*
Y62700D01*
X73449D01*
Y63467D01*
X73489Y63494D01*
X73610Y63676D01*
X73653Y63890D01*
Y64890D01*
X73610Y65105D01*
X73489Y65287D01*
X73307Y65408D01*
X73092Y65451D01*
D02*
G37*
G36*
X20275Y60559D02*
X20105Y60525D01*
X19500D01*
Y59675D01*
X19816D01*
Y58726D01*
X19790Y58715D01*
X19589Y58561D01*
X19435Y58360D01*
X19338Y58126D01*
X19305Y57875D01*
X19338Y57624D01*
X19435Y57390D01*
X19589Y57189D01*
X19790Y57035D01*
X20024Y56938D01*
X20275Y56905D01*
X20526Y56938D01*
X20760Y57035D01*
X20961Y57189D01*
X21115Y57390D01*
X21212Y57624D01*
X21338D01*
X21435Y57390D01*
X21589Y57189D01*
X21790Y57035D01*
X22024Y56938D01*
X22275Y56905D01*
X22526Y56938D01*
X22760Y57035D01*
X22961Y57189D01*
X23115Y57390D01*
X23212Y57624D01*
X23245Y57875D01*
X23212Y58126D01*
X23115Y58360D01*
X22961Y58561D01*
X22760Y58715D01*
X22759Y58716D01*
Y59675D01*
X23000D01*
Y60525D01*
X21750D01*
Y59675D01*
X21841D01*
Y58737D01*
X21790Y58715D01*
X21589Y58561D01*
X21435Y58360D01*
X21338Y58126D01*
X21212D01*
X21115Y58360D01*
X20961Y58561D01*
X20760Y58715D01*
X20734Y58726D01*
Y59675D01*
X20750D01*
Y60525D01*
X20445D01*
X20275Y60559D01*
D02*
G37*
G36*
X25025Y73725D02*
X21325D01*
Y69625D01*
X23042D01*
Y64125D01*
X23074Y63877D01*
X23100Y63815D01*
Y62900D01*
X25000D01*
Y63167D01*
X28326D01*
X28349Y60640D01*
X28260Y60550D01*
X24950D01*
Y56850D01*
X33550D01*
Y60550D01*
X30267D01*
X30233Y64134D01*
X30216Y64254D01*
X30201Y64373D01*
X30199Y64377D01*
X30198Y64382D01*
X30151Y64493D01*
X30105Y64604D01*
X30102Y64608D01*
X30100Y64612D01*
X30026Y64707D01*
X29953Y64803D01*
X29949Y64805D01*
X29946Y64809D01*
X29850Y64881D01*
X29754Y64955D01*
X29750Y64957D01*
X29746Y64959D01*
X29635Y65004D01*
X29523Y65051D01*
X29519Y65051D01*
X29514Y65053D01*
X29395Y65067D01*
X29275Y65083D01*
X25000D01*
Y66100D01*
X24958D01*
Y69625D01*
X25025D01*
Y73725D01*
D02*
G37*
G36*
X81250Y60208D02*
X80917Y60175D01*
X80596Y60078D01*
X80301Y59920D01*
X80042Y59708D01*
X79830Y59449D01*
X79672Y59154D01*
X79575Y58833D01*
X79542Y58500D01*
X79575Y58167D01*
X79672Y57846D01*
X79830Y57551D01*
X80042Y57292D01*
X80301Y57080D01*
X80596Y56922D01*
X80917Y56825D01*
X81250Y56792D01*
X81583Y56825D01*
X81904Y56922D01*
X82199Y57080D01*
X82458Y57292D01*
X82670Y57551D01*
X82828Y57846D01*
X82925Y58167D01*
X82958Y58500D01*
X82925Y58833D01*
X82828Y59154D01*
X82670Y59449D01*
X82458Y59708D01*
X82199Y59920D01*
X81904Y60078D01*
X81583Y60175D01*
X81250Y60208D01*
D02*
G37*
G36*
X67000Y65734D02*
X66934Y65725D01*
X65700D01*
Y63725D01*
X65991D01*
Y44650D01*
X66026Y44389D01*
X66127Y44146D01*
X66287Y43937D01*
X66350Y43888D01*
Y43875D01*
X66367D01*
X66496Y43777D01*
X66570Y43746D01*
Y43608D01*
X66470Y43567D01*
X66350Y43475D01*
X66350D01*
X66245Y43529D01*
X65534Y44240D01*
Y48383D01*
X65539Y48386D01*
X65643Y48522D01*
X65708Y48680D01*
X65731Y48850D01*
X65708Y49020D01*
X65643Y49178D01*
X65539Y49314D01*
X65403Y49418D01*
X65245Y49483D01*
X65075Y49506D01*
X64905Y49483D01*
X64747Y49418D01*
X64611Y49314D01*
X64507Y49178D01*
X64442Y49020D01*
X64419Y48850D01*
X64442Y48680D01*
X64507Y48522D01*
X64611Y48386D01*
X64616Y48383D01*
Y44050D01*
X64651Y43874D01*
X64751Y43726D01*
X65664Y42812D01*
X62819Y39967D01*
X62621Y40130D01*
X62631Y40200D01*
X62608Y40370D01*
X62543Y40528D01*
X62439Y40664D01*
X62303Y40768D01*
X62145Y40833D01*
X61975Y40856D01*
X61805Y40833D01*
X61647Y40768D01*
X61511Y40664D01*
X61407Y40528D01*
X61342Y40370D01*
X61319Y40200D01*
X61342Y40030D01*
X61407Y39872D01*
X61511Y39736D01*
X61647Y39632D01*
X61805Y39567D01*
X61975Y39544D01*
X62131Y39565D01*
X62213Y39507D01*
X62216Y39487D01*
X62219Y39366D01*
X61461Y38609D01*
X46250D01*
X45976Y38573D01*
X45720Y38467D01*
X45501Y38299D01*
X45333Y38080D01*
X45227Y37824D01*
X45191Y37550D01*
X45227Y37276D01*
X45333Y37020D01*
X45501Y36801D01*
X45720Y36633D01*
X45976Y36527D01*
X46250Y36491D01*
X61204D01*
X67018Y30677D01*
Y20402D01*
X66894Y20306D01*
X66785Y20165D01*
X66717Y20001D01*
X66694Y19825D01*
X66717Y19649D01*
X66785Y19485D01*
X66894Y19344D01*
X67035Y19235D01*
X67199Y19167D01*
X67375Y19144D01*
X67551Y19167D01*
X67715Y19235D01*
X67856Y19344D01*
X67923Y19431D01*
X67933Y19436D01*
X68067D01*
X68077Y19431D01*
X68144Y19344D01*
X68285Y19235D01*
X68449Y19167D01*
X68625Y19144D01*
X68801Y19167D01*
X68965Y19235D01*
X69106Y19344D01*
X69215Y19485D01*
X69283Y19649D01*
X69306Y19825D01*
X69283Y20001D01*
X69215Y20165D01*
X69106Y20306D01*
X68965Y20415D01*
X68801Y20483D01*
X68625Y20506D01*
X68449Y20483D01*
X68285Y20415D01*
X68144Y20306D01*
X68077Y20219D01*
X68067Y20214D01*
X67933D01*
X67923Y20219D01*
X67856Y20306D01*
X67732Y20402D01*
Y28109D01*
X67859Y28161D01*
X72043Y23977D01*
Y20418D01*
X72035Y20415D01*
X71894Y20306D01*
X71827Y20219D01*
X71817Y20214D01*
X71683D01*
X71673Y20219D01*
X71606Y20306D01*
X71465Y20415D01*
X71301Y20483D01*
X71125Y20506D01*
X70949Y20483D01*
X70785Y20415D01*
X70644Y20306D01*
X70535Y20165D01*
X70467Y20001D01*
X70444Y19825D01*
X70467Y19649D01*
X70535Y19485D01*
X70644Y19344D01*
X70785Y19235D01*
X70949Y19167D01*
X71125Y19144D01*
X71301Y19167D01*
X71465Y19235D01*
X71606Y19344D01*
X71673Y19431D01*
X71683Y19436D01*
X71817D01*
X71827Y19431D01*
X71894Y19344D01*
X72035Y19235D01*
X72199Y19167D01*
X72375Y19144D01*
X72551Y19167D01*
X72715Y19235D01*
X72856Y19344D01*
X72923Y19431D01*
X72933Y19436D01*
X73067D01*
X73077Y19431D01*
X73144Y19344D01*
X73285Y19235D01*
X73449Y19167D01*
X73625Y19144D01*
X73801Y19167D01*
X73965Y19235D01*
X74106Y19344D01*
X74173Y19431D01*
X74183Y19436D01*
X74317D01*
X74327Y19431D01*
X74394Y19344D01*
X74535Y19235D01*
X74699Y19167D01*
X74875Y19144D01*
X75051Y19167D01*
X75215Y19235D01*
X75356Y19344D01*
X75423Y19431D01*
X75433Y19436D01*
X75567D01*
X75577Y19431D01*
X75644Y19344D01*
X75785Y19235D01*
X75949Y19167D01*
X76125Y19144D01*
X76301Y19167D01*
X76465Y19235D01*
X76606Y19344D01*
X76715Y19485D01*
X76783Y19649D01*
X76806Y19825D01*
X76783Y20001D01*
X76715Y20165D01*
X76606Y20306D01*
X76465Y20415D01*
X76301Y20483D01*
X76125Y20506D01*
X75949Y20483D01*
X75785Y20415D01*
X75644Y20306D01*
X75577Y20219D01*
X75567Y20214D01*
X75433D01*
X75423Y20219D01*
X75356Y20306D01*
X75215Y20415D01*
X75051Y20483D01*
X74875Y20506D01*
X74699Y20483D01*
X74535Y20415D01*
X74394Y20306D01*
X74327Y20219D01*
X74317Y20214D01*
X74183D01*
X74173Y20219D01*
X74106Y20306D01*
X73965Y20415D01*
X73801Y20483D01*
X73670Y20500D01*
X73652Y20630D01*
X73778Y20682D01*
X73914Y20786D01*
X74018Y20922D01*
X74083Y21080D01*
X74106Y21250D01*
X74088Y21383D01*
X75873Y23168D01*
X83975D01*
X84112Y23195D01*
X84227Y23273D01*
X86552Y25598D01*
X86630Y25713D01*
X86657Y25850D01*
Y26105D01*
X86764Y26186D01*
X86868Y26322D01*
X86933Y26480D01*
X86956Y26650D01*
X86933Y26820D01*
X86868Y26978D01*
X86764Y27114D01*
X86628Y27218D01*
X86470Y27283D01*
X86300Y27306D01*
X86130Y27283D01*
X85972Y27218D01*
X85836Y27114D01*
X85732Y26978D01*
X85667Y26820D01*
X85644Y26650D01*
X85667Y26480D01*
X85732Y26322D01*
X85836Y26186D01*
X85926Y26118D01*
X85932Y25986D01*
X83827Y23882D01*
X75725D01*
X75588Y23855D01*
X75473Y23777D01*
X73583Y21888D01*
X73450Y21906D01*
X73280Y21883D01*
X73122Y21818D01*
X72986Y21714D01*
X72884Y21580D01*
X72877Y21579D01*
X72757Y21607D01*
Y24125D01*
X72730Y24262D01*
X72652Y24377D01*
X68382Y28648D01*
Y30237D01*
X68420Y30242D01*
X68578Y30307D01*
X68714Y30411D01*
X68818Y30547D01*
X68883Y30705D01*
X68906Y30875D01*
X68883Y31045D01*
X68818Y31203D01*
X68714Y31339D01*
X68578Y31443D01*
X68420Y31508D01*
X68250Y31531D01*
X68080Y31508D01*
X67922Y31443D01*
X67786Y31339D01*
X67682Y31203D01*
X67682Y31202D01*
X67532Y31172D01*
X62257Y36447D01*
X62282Y36572D01*
X62430Y36633D01*
X62649Y36801D01*
X64249Y38401D01*
X64249Y38401D01*
X67749Y41901D01*
X67784Y41947D01*
X67952Y41958D01*
X68575Y41335D01*
Y40950D01*
X68960D01*
X69615Y40295D01*
X69617Y40280D01*
X69682Y40122D01*
X69786Y39986D01*
X69922Y39882D01*
X70080Y39817D01*
X70095Y39815D01*
X70400Y39509D01*
X70457Y39372D01*
X70561Y39236D01*
X70697Y39132D01*
X70834Y39075D01*
X71198Y38712D01*
X71220Y38660D01*
X71324Y38524D01*
X71460Y38420D01*
X71546Y38384D01*
X71521Y38257D01*
X67220D01*
X67139Y38364D01*
X67003Y38468D01*
X66845Y38533D01*
X66675Y38556D01*
X66505Y38533D01*
X66347Y38468D01*
X66211Y38364D01*
X66107Y38228D01*
X66042Y38070D01*
X66019Y37900D01*
X66042Y37730D01*
X66107Y37572D01*
X66211Y37436D01*
X66347Y37332D01*
X66505Y37267D01*
X66675Y37244D01*
X66845Y37267D01*
X67003Y37332D01*
X67139Y37436D01*
X67220Y37543D01*
X73025D01*
X73162Y37570D01*
X73277Y37648D01*
X75048Y39418D01*
X77199D01*
X77261Y39336D01*
X77397Y39232D01*
X77555Y39167D01*
X77725Y39144D01*
X77895Y39167D01*
X78053Y39232D01*
X78189Y39336D01*
X78293Y39472D01*
X78358Y39630D01*
X78381Y39800D01*
X78358Y39970D01*
X78293Y40128D01*
X78189Y40264D01*
X78053Y40368D01*
X77895Y40433D01*
X77725Y40456D01*
X77555Y40433D01*
X77397Y40368D01*
X77261Y40264D01*
X77160Y40132D01*
X74900D01*
X74763Y40105D01*
X74648Y40027D01*
X72877Y38257D01*
X72054D01*
X72029Y38384D01*
X72115Y38420D01*
X72251Y38524D01*
X72355Y38660D01*
X72421Y38818D01*
X72443Y38987D01*
X72421Y39157D01*
X72355Y39315D01*
X72251Y39451D01*
X72115Y39555D01*
X72063Y39577D01*
X71528Y40112D01*
X71489Y40164D01*
X71437Y40203D01*
X70807Y40833D01*
X70856Y40950D01*
X71525D01*
Y41266D01*
X72075D01*
Y41225D01*
X73375D01*
X73375Y41225D01*
X73502Y41249D01*
X73622Y41157D01*
X73780Y41092D01*
X73950Y41069D01*
X74120Y41092D01*
X74278Y41157D01*
X74414Y41261D01*
X74508Y41385D01*
X74547Y41398D01*
X74657Y41400D01*
X74686Y41361D01*
X74822Y41257D01*
X74980Y41192D01*
X75150Y41169D01*
X75320Y41192D01*
X75478Y41257D01*
X75614Y41361D01*
X75718Y41497D01*
X75783Y41655D01*
X75806Y41825D01*
X75783Y41995D01*
X75718Y42153D01*
X75614Y42289D01*
X75478Y42393D01*
X75320Y42458D01*
X75150Y42481D01*
X75127Y42478D01*
X75025Y42580D01*
Y43750D01*
X73855D01*
X73450Y44155D01*
Y44600D01*
X72150D01*
Y44457D01*
X71525D01*
Y44850D01*
X70475D01*
Y43350D01*
X71525D01*
Y43743D01*
X72150D01*
Y43500D01*
X73095D01*
X73725Y42870D01*
Y42550D01*
X74000D01*
X74040Y42497D01*
X73970Y42378D01*
X73950Y42381D01*
X73780Y42358D01*
X73622Y42293D01*
X73502Y42201D01*
X73401Y42224D01*
X73375Y42235D01*
Y42425D01*
X72075D01*
Y42184D01*
X71525D01*
Y42450D01*
X70475D01*
Y41331D01*
X70358Y41282D01*
X69625Y42015D01*
Y42450D01*
X69190D01*
X68558Y43083D01*
X68359Y43215D01*
X68125Y43262D01*
X67854D01*
X67749Y43399D01*
X67650Y43475D01*
Y43475D01*
X67650D01*
X67530Y43567D01*
X67525Y43569D01*
X67493Y43720D01*
X67516Y43743D01*
X68575D01*
Y43350D01*
X69625D01*
Y44850D01*
X68575D01*
Y44457D01*
X68080D01*
X67996Y44552D01*
X68009Y44650D01*
Y54948D01*
X68136Y55010D01*
X68172Y54982D01*
X68330Y54917D01*
X68500Y54894D01*
X68670Y54917D01*
X68828Y54982D01*
X68964Y55086D01*
X69045Y55193D01*
X70525D01*
X70662Y55220D01*
X70777Y55298D01*
X71827Y56348D01*
X71905Y56463D01*
X71932Y56600D01*
Y59875D01*
X72125D01*
Y61175D01*
X71025D01*
Y59875D01*
X71218D01*
Y56748D01*
X70377Y55907D01*
X69045D01*
X68964Y56014D01*
X68828Y56118D01*
X68670Y56183D01*
X68500Y56206D01*
X68330Y56183D01*
X68172Y56118D01*
X68136Y56090D01*
X68009Y56152D01*
Y63725D01*
X68300D01*
Y65725D01*
X67066D01*
X67000Y65734D01*
D02*
G37*
G36*
X104900Y55520D02*
X104649Y55487D01*
X104415Y55390D01*
X104214Y55236D01*
X104060Y55035D01*
X103963Y54801D01*
X103837D01*
X103740Y55035D01*
X103586Y55236D01*
X103385Y55390D01*
X103151Y55487D01*
X102900Y55520D01*
X102649Y55487D01*
X102415Y55390D01*
X102214Y55236D01*
X102060Y55035D01*
X101963Y54801D01*
X101930Y54550D01*
X101963Y54299D01*
X102060Y54065D01*
X102194Y53890D01*
Y50425D01*
X102218Y50242D01*
X102289Y50072D01*
X102400Y49927D01*
Y49725D01*
X102854D01*
X102900Y49719D01*
X102946Y49725D01*
X103400D01*
Y49927D01*
X103449Y49991D01*
X105375D01*
Y49825D01*
X106225D01*
Y50280D01*
X106259Y50450D01*
X106225Y50620D01*
Y51075D01*
X105375D01*
Y50909D01*
X103606D01*
Y53890D01*
X103740Y54065D01*
X103837Y54299D01*
X103963D01*
X104060Y54065D01*
X104214Y53864D01*
X104415Y53710D01*
X104649Y53613D01*
X104900Y53580D01*
X105151Y53613D01*
X105177Y53624D01*
X105341Y53460D01*
Y52700D01*
X105375Y52530D01*
Y52075D01*
X106225D01*
Y52530D01*
X106259Y52700D01*
Y53650D01*
X106224Y53826D01*
X106124Y53974D01*
X105826Y54273D01*
X105837Y54299D01*
X105870Y54550D01*
X105837Y54801D01*
X105740Y55035D01*
X105586Y55236D01*
X105385Y55390D01*
X105151Y55487D01*
X104900Y55520D01*
D02*
G37*
G36*
X33550Y55950D02*
X24950D01*
Y52250D01*
X28067D01*
Y51550D01*
X27916D01*
X27779Y51655D01*
X27548Y51751D01*
X27300Y51783D01*
X23326D01*
X23245Y51875D01*
X23212Y52126D01*
X23115Y52360D01*
X22961Y52561D01*
X22760Y52715D01*
X22526Y52812D01*
X22275Y52845D01*
X22024Y52812D01*
X21790Y52715D01*
X21589Y52561D01*
X21435Y52360D01*
X21338Y52126D01*
X21212D01*
X21115Y52360D01*
X20961Y52561D01*
X20760Y52715D01*
X20526Y52812D01*
X20275Y52845D01*
X20024Y52812D01*
X19790Y52715D01*
X19589Y52561D01*
X19435Y52360D01*
X19338Y52126D01*
X19305Y51875D01*
X19338Y51624D01*
X19435Y51390D01*
X19569Y51215D01*
Y50535D01*
X19435Y50360D01*
X19338Y50126D01*
X19305Y49875D01*
X19338Y49624D01*
X19435Y49390D01*
X19589Y49189D01*
X19790Y49035D01*
X19816Y49024D01*
Y47325D01*
X19725D01*
Y46025D01*
X20825D01*
Y47325D01*
X20734D01*
Y48917D01*
X22183D01*
X22275Y48905D01*
X22526Y48938D01*
X22760Y49035D01*
X22961Y49189D01*
X23115Y49390D01*
X23212Y49624D01*
X23244Y49867D01*
X27279D01*
X28853Y48292D01*
X28804Y48175D01*
X27950D01*
Y47807D01*
X27700D01*
Y48050D01*
X27407D01*
Y48230D01*
X27514Y48311D01*
X27618Y48447D01*
X27683Y48605D01*
X27706Y48775D01*
X27683Y48945D01*
X27618Y49103D01*
X27514Y49239D01*
X27378Y49343D01*
X27220Y49408D01*
X27050Y49431D01*
X26880Y49408D01*
X26722Y49343D01*
X26586Y49239D01*
X26482Y49103D01*
X26417Y48945D01*
X26394Y48775D01*
X26417Y48605D01*
X26482Y48447D01*
X26586Y48311D01*
X26693Y48230D01*
Y48050D01*
X26400D01*
Y46850D01*
X27700D01*
Y47093D01*
X27950D01*
Y46675D01*
X29000D01*
Y47844D01*
X29127Y47912D01*
X29143Y47901D01*
Y46650D01*
X29170Y46513D01*
X29248Y46398D01*
X29778Y45868D01*
X29850Y45775D01*
X29850D01*
X29850Y45775D01*
Y44275D01*
X30900D01*
Y45775D01*
X30732D01*
X30705Y45912D01*
X30627Y46027D01*
X30097Y46558D01*
X30146Y46675D01*
X30900D01*
Y48175D01*
X30732D01*
Y48950D01*
X30705Y49087D01*
X30627Y49202D01*
X29697Y50133D01*
X29703Y50222D01*
X29855Y50421D01*
X29951Y50652D01*
X29983Y50900D01*
Y52250D01*
X33550D01*
Y55950D01*
D02*
G37*
G36*
X69975Y52456D02*
X69805Y52433D01*
X69647Y52368D01*
X69511Y52264D01*
X69407Y52128D01*
X69342Y51970D01*
X69319Y51800D01*
X69342Y51630D01*
X69407Y51472D01*
X69511Y51336D01*
X69647Y51232D01*
X69796Y51170D01*
X70021Y50946D01*
X70137Y50868D01*
X70275Y50841D01*
X79126D01*
X80125Y49842D01*
Y49200D01*
X81425D01*
Y50300D01*
X80683D01*
X79529Y51454D01*
X79412Y51532D01*
X79275Y51559D01*
X70703D01*
X70616Y51686D01*
X70631Y51800D01*
X70608Y51970D01*
X70543Y52128D01*
X70439Y52264D01*
X70303Y52368D01*
X70145Y52433D01*
X69975Y52456D01*
D02*
G37*
G36*
X81425Y48800D02*
X81425Y48800D01*
X80125D01*
Y47700D01*
X80281D01*
X80324Y47573D01*
X80311Y47564D01*
X80207Y47428D01*
X80142Y47270D01*
X80119Y47100D01*
X80142Y46930D01*
X80207Y46772D01*
X80311Y46636D01*
X80447Y46532D01*
X80605Y46467D01*
X80775Y46444D01*
X80945Y46467D01*
X81103Y46532D01*
X81239Y46636D01*
X81343Y46772D01*
X81408Y46930D01*
X81431Y47100D01*
X81408Y47270D01*
X81343Y47428D01*
X81239Y47564D01*
X81226Y47573D01*
X81269Y47700D01*
X81425D01*
Y47700D01*
X81550D01*
Y47700D01*
X82850D01*
Y48800D01*
X81550D01*
X81550Y48800D01*
Y48800D01*
X81425D01*
Y48800D01*
D02*
G37*
G36*
X102450Y49225D02*
X101450D01*
Y47375D01*
X101593D01*
Y46850D01*
X101300D01*
Y45750D01*
X102600D01*
Y46850D01*
X102307D01*
Y47375D01*
X102450D01*
Y49225D01*
D02*
G37*
G36*
X102500Y67600D02*
X101450D01*
Y66830D01*
X100570Y65950D01*
X99850D01*
Y65180D01*
X98323Y63652D01*
X98245Y63537D01*
X98218Y63400D01*
Y49575D01*
X98245Y49438D01*
X98323Y49323D01*
X99368Y48277D01*
Y45373D01*
X98808Y44813D01*
X98675Y44831D01*
X98505Y44808D01*
X98347Y44743D01*
X98211Y44639D01*
X98107Y44503D01*
X98042Y44345D01*
X98019Y44175D01*
X98042Y44005D01*
X98107Y43847D01*
X98211Y43711D01*
X98347Y43607D01*
X98505Y43542D01*
X98560Y43534D01*
X98593Y43457D01*
X98602Y43401D01*
X98507Y43278D01*
X98442Y43120D01*
X98419Y42950D01*
X98442Y42780D01*
X98507Y42622D01*
X98611Y42486D01*
X98747Y42382D01*
X98905Y42317D01*
X99075Y42294D01*
X99245Y42317D01*
X99403Y42382D01*
X99539Y42486D01*
X99643Y42622D01*
X99708Y42780D01*
X99730Y42943D01*
X100477Y43691D01*
X100555Y43807D01*
X100582Y43943D01*
Y48825D01*
X100555Y48962D01*
X100477Y49077D01*
X99557Y49998D01*
Y58627D01*
X99755Y58825D01*
X100925D01*
Y59925D01*
X100632D01*
Y60450D01*
X100925D01*
Y61550D01*
X99625D01*
Y60450D01*
X99918D01*
Y59925D01*
X99625D01*
Y59679D01*
X99548Y59627D01*
X99059Y59139D01*
X98932Y59191D01*
Y63252D01*
X100330Y64650D01*
X100950D01*
Y65320D01*
X101730Y66100D01*
X102500D01*
Y67600D01*
D02*
G37*
G36*
X22325Y47325D02*
X21225D01*
Y46025D01*
X21225D01*
X21225Y45925D01*
X21225D01*
Y44625D01*
X21443D01*
Y44400D01*
X21470Y44263D01*
X21548Y44148D01*
X23598Y42098D01*
X23713Y42020D01*
X23850Y41993D01*
X28955D01*
X29036Y41886D01*
X29172Y41782D01*
X29330Y41717D01*
X29500Y41694D01*
X29670Y41717D01*
X29828Y41782D01*
X29964Y41886D01*
X30068Y42022D01*
X30133Y42180D01*
X30156Y42350D01*
X30133Y42520D01*
X30068Y42678D01*
X29964Y42814D01*
X29830Y42916D01*
X29829Y42923D01*
X29857Y43043D01*
X30930D01*
X31011Y42936D01*
X31147Y42832D01*
X31305Y42767D01*
X31475Y42744D01*
X31645Y42767D01*
X31803Y42832D01*
X31939Y42936D01*
X32043Y43072D01*
X32108Y43230D01*
X32131Y43400D01*
X32108Y43570D01*
X32043Y43728D01*
X31939Y43864D01*
X31803Y43968D01*
X31645Y44033D01*
X31475Y44056D01*
X31305Y44033D01*
X31147Y43968D01*
X31011Y43864D01*
X30930Y43757D01*
X29025D01*
Y44125D01*
X28832D01*
Y44275D01*
X29000D01*
Y45775D01*
X27950D01*
Y44275D01*
X28118D01*
Y44125D01*
X27925D01*
Y42834D01*
X27925Y42825D01*
X27904Y42707D01*
X23998D01*
X22207Y44498D01*
X22259Y44625D01*
X22325D01*
Y45925D01*
X22325D01*
X22325Y46025D01*
X22325D01*
Y47325D01*
D02*
G37*
G36*
X71450Y48731D02*
X71280Y48708D01*
X71122Y48643D01*
X70986Y48539D01*
X70882Y48403D01*
X70817Y48245D01*
X70794Y48075D01*
X70817Y47905D01*
X70882Y47747D01*
X70986Y47611D01*
X71122Y47507D01*
X71280Y47442D01*
X71450Y47419D01*
X71467Y47422D01*
X71556Y47305D01*
X71542Y47270D01*
X71519Y47100D01*
X71542Y46930D01*
X71607Y46772D01*
X71711Y46636D01*
X71847Y46532D01*
X72005Y46467D01*
X72175Y46444D01*
X72345Y46467D01*
X72503Y46532D01*
X72639Y46636D01*
X72720Y46743D01*
X75077D01*
X80098Y41723D01*
X80213Y41645D01*
X80350Y41618D01*
X80452D01*
X81141Y40929D01*
X81117Y40870D01*
X81094Y40700D01*
X81117Y40530D01*
X81182Y40372D01*
X81286Y40236D01*
X81422Y40132D01*
X81580Y40067D01*
X81750Y40044D01*
X81920Y40067D01*
X82078Y40132D01*
X82214Y40236D01*
X82318Y40372D01*
X82383Y40530D01*
X82406Y40700D01*
X82383Y40870D01*
X82318Y41028D01*
X82214Y41164D01*
X82078Y41268D01*
X81920Y41333D01*
X81750Y41356D01*
X81727Y41353D01*
X80852Y42227D01*
X80737Y42305D01*
X80600Y42332D01*
X80498D01*
X75477Y47352D01*
X75362Y47430D01*
X75225Y47457D01*
X72720D01*
X72639Y47564D01*
X72606Y47589D01*
X72649Y47716D01*
X76051D01*
X80458Y43309D01*
X80442Y43270D01*
X80419Y43100D01*
X80442Y42930D01*
X80507Y42772D01*
X80611Y42636D01*
X80747Y42532D01*
X80905Y42467D01*
X81075Y42444D01*
X81245Y42467D01*
X81403Y42532D01*
X81539Y42636D01*
X81643Y42772D01*
X81708Y42930D01*
X81731Y43100D01*
X81708Y43270D01*
X81643Y43428D01*
X81539Y43564D01*
X81403Y43668D01*
X81245Y43733D01*
X81075Y43756D01*
X81033Y43750D01*
X76454Y48329D01*
X76338Y48407D01*
X76200Y48434D01*
X71994D01*
X71914Y48539D01*
X71778Y48643D01*
X71620Y48708D01*
X71450Y48731D01*
D02*
G37*
G36*
X94125Y52750D02*
X90025D01*
Y49050D01*
X91583D01*
X91599Y48927D01*
X91695Y48696D01*
X91847Y48497D01*
X92542Y47803D01*
Y44625D01*
X90150D01*
Y42025D01*
X96850D01*
Y44625D01*
X94458D01*
Y48200D01*
X94450Y48262D01*
Y48400D01*
X94432D01*
X94426Y48448D01*
X94330Y48679D01*
X94178Y48878D01*
X94090Y48965D01*
X94125Y49050D01*
X94125D01*
Y52750D01*
D02*
G37*
G36*
X106625Y39720D02*
X106374Y39687D01*
X106140Y39590D01*
X105939Y39436D01*
X105785Y39235D01*
X105688Y39001D01*
X105562D01*
X105465Y39235D01*
X105311Y39436D01*
X105110Y39590D01*
X104876Y39687D01*
X104625Y39720D01*
X104374Y39687D01*
X104140Y39590D01*
X103939Y39436D01*
X103785Y39235D01*
X103688Y39001D01*
X103655Y38750D01*
X103688Y38499D01*
X103785Y38265D01*
X103939Y38064D01*
X104140Y37910D01*
X104374Y37813D01*
Y37687D01*
X104140Y37590D01*
X103939Y37436D01*
X103785Y37235D01*
X103688Y37001D01*
X103655Y36750D01*
X103688Y36499D01*
X103785Y36265D01*
X103919Y36090D01*
Y33400D01*
X103943Y33217D01*
X104014Y33047D01*
X104025Y33032D01*
Y32950D01*
X104088D01*
X104126Y32901D01*
X104151Y32876D01*
X104297Y32764D01*
X104467Y32693D01*
X104650Y32669D01*
X104833Y32693D01*
X105003Y32764D01*
X105149Y32876D01*
X105206Y32950D01*
X105275D01*
Y33055D01*
X105332Y33192D01*
X105356Y33375D01*
X105332Y33558D01*
X105331Y33560D01*
Y36090D01*
X105465Y36265D01*
X105562Y36499D01*
X105688D01*
X105785Y36265D01*
X105919Y36090D01*
Y35200D01*
X105943Y35017D01*
X106014Y34847D01*
X106126Y34701D01*
X106194Y34633D01*
Y33375D01*
X106218Y33192D01*
X106275Y33055D01*
Y32950D01*
X106344D01*
X106401Y32876D01*
X106547Y32764D01*
X106717Y32693D01*
X106900Y32669D01*
X107083Y32693D01*
X107253Y32764D01*
X107399Y32876D01*
X107456Y32950D01*
X107525D01*
Y33055D01*
X107582Y33192D01*
X107606Y33375D01*
Y34925D01*
X107582Y35108D01*
X107511Y35278D01*
X107399Y35424D01*
X107331Y35492D01*
Y36090D01*
X107465Y36265D01*
X107562Y36499D01*
X107595Y36750D01*
X107562Y37001D01*
X107465Y37235D01*
X107311Y37436D01*
X107110Y37590D01*
X106876Y37687D01*
Y37813D01*
X107110Y37910D01*
X107311Y38064D01*
X107465Y38265D01*
X107562Y38499D01*
X107595Y38750D01*
X107562Y39001D01*
X107465Y39235D01*
X107311Y39436D01*
X107110Y39590D01*
X106876Y39687D01*
X106625Y39720D01*
D02*
G37*
G36*
X106600Y32445D02*
X106349Y32412D01*
X106115Y32315D01*
X105914Y32161D01*
X105760Y31960D01*
X105663Y31726D01*
X105537D01*
X105440Y31960D01*
X105286Y32161D01*
X105085Y32315D01*
X104851Y32412D01*
X104600Y32445D01*
X104349Y32412D01*
X104115Y32315D01*
X103914Y32161D01*
X103760Y31960D01*
X103663Y31726D01*
X103630Y31475D01*
X103663Y31224D01*
X103760Y30990D01*
X103914Y30789D01*
X104115Y30635D01*
X104349Y30538D01*
Y30412D01*
X104115Y30315D01*
X103914Y30161D01*
X103760Y29960D01*
X103663Y29726D01*
X103630Y29475D01*
X103663Y29224D01*
X103760Y28990D01*
X103914Y28789D01*
X103919Y28785D01*
Y26975D01*
X103943Y26792D01*
X104000Y26655D01*
Y26550D01*
X104069D01*
X104126Y26476D01*
X104272Y26364D01*
X104442Y26293D01*
X104625Y26269D01*
X104808Y26293D01*
X104978Y26364D01*
X105124Y26476D01*
X105181Y26550D01*
X105250D01*
Y26655D01*
X105307Y26792D01*
X105331Y26975D01*
Y28847D01*
X105440Y28990D01*
X105537Y29224D01*
X105663D01*
X105760Y28990D01*
X105894Y28815D01*
Y28025D01*
X105918Y27842D01*
X105989Y27672D01*
X106101Y27526D01*
X106169Y27458D01*
Y26975D01*
X106193Y26792D01*
X106250Y26655D01*
Y26550D01*
X106319D01*
X106376Y26476D01*
X106522Y26364D01*
X106692Y26293D01*
X106875Y26269D01*
X107058Y26293D01*
X107228Y26364D01*
X107374Y26476D01*
X107431Y26550D01*
X107500D01*
Y26655D01*
X107557Y26792D01*
X107581Y26975D01*
Y27750D01*
X107557Y27933D01*
X107486Y28103D01*
X107374Y28249D01*
X107306Y28317D01*
Y28815D01*
X107440Y28990D01*
X107537Y29224D01*
X107570Y29475D01*
X107537Y29726D01*
X107440Y29960D01*
X107286Y30161D01*
X107085Y30315D01*
X106851Y30412D01*
Y30538D01*
X107085Y30635D01*
X107286Y30789D01*
X107440Y30990D01*
X107537Y31224D01*
X107570Y31475D01*
X107537Y31726D01*
X107440Y31960D01*
X107286Y32161D01*
X107085Y32315D01*
X106851Y32412D01*
X106600Y32445D01*
D02*
G37*
G36*
X102600Y45350D02*
X101300D01*
Y44250D01*
X102600D01*
Y44443D01*
X103200D01*
Y44225D01*
X103493D01*
Y42523D01*
X99148Y38177D01*
X99070Y38062D01*
X99043Y37925D01*
Y32498D01*
X97667Y31122D01*
X97520Y31183D01*
X97350Y31206D01*
X97180Y31183D01*
X97022Y31118D01*
X96886Y31014D01*
X96859Y30978D01*
X96732Y31021D01*
Y32600D01*
X96704Y32809D01*
X96624Y33003D01*
X96575Y33067D01*
Y33200D01*
X96457D01*
X96328Y33299D01*
X96134Y33379D01*
X96081Y33386D01*
Y33514D01*
X96108Y33518D01*
X96278Y33589D01*
X96293Y33600D01*
X96575D01*
Y33940D01*
X96607Y34017D01*
X96631Y34200D01*
Y36300D01*
X96607Y36483D01*
X96536Y36653D01*
X96424Y36799D01*
X95916Y37308D01*
X95964Y37425D01*
X96850D01*
Y40025D01*
X90150D01*
Y37425D01*
X92785D01*
X92810Y37298D01*
X92797Y37293D01*
X92661Y37189D01*
X92557Y37053D01*
X92492Y36895D01*
X92469Y36725D01*
X92479Y36653D01*
X92385Y36550D01*
X91325D01*
Y35250D01*
X91400Y35250D01*
Y33750D01*
X92450D01*
Y35250D01*
X92525Y35250D01*
Y35645D01*
X92970Y36090D01*
X93125Y36069D01*
X93295Y36092D01*
X93453Y36157D01*
X93589Y36261D01*
X93693Y36397D01*
X93758Y36555D01*
X93781Y36725D01*
X93758Y36895D01*
X93693Y37053D01*
X93589Y37189D01*
X93453Y37293D01*
X93440Y37298D01*
X93465Y37425D01*
X93802D01*
X95219Y36008D01*
Y35034D01*
X94350D01*
Y35250D01*
X93300D01*
Y33750D01*
X94350D01*
Y34116D01*
X95230D01*
X95243Y34017D01*
X95275Y33940D01*
Y33600D01*
X95557D01*
X95572Y33589D01*
X95742Y33518D01*
X95769Y33514D01*
Y33386D01*
X95716Y33379D01*
X95522Y33299D01*
X95393Y33200D01*
X95275D01*
Y33067D01*
X95226Y33003D01*
X95146Y32809D01*
X95123Y32634D01*
X94350D01*
Y32850D01*
X93300D01*
Y31350D01*
X94350D01*
Y31716D01*
X95118D01*
Y26632D01*
X93775D01*
Y26925D01*
X92675D01*
Y25625D01*
X93775D01*
Y25918D01*
X95118D01*
Y24410D01*
X94989Y24311D01*
X94835Y24110D01*
X94738Y23876D01*
X94705Y23625D01*
X94738Y23374D01*
X94835Y23140D01*
X94868Y23096D01*
Y22154D01*
X94835Y22110D01*
X94738Y21876D01*
X94705Y21625D01*
X94738Y21374D01*
X94835Y21140D01*
X94989Y20939D01*
X95190Y20785D01*
X95424Y20688D01*
X95675Y20655D01*
X95926Y20688D01*
X96160Y20785D01*
X96361Y20939D01*
X96515Y21140D01*
X96612Y21374D01*
X96738D01*
X96835Y21140D01*
X96989Y20939D01*
X97190Y20785D01*
X97424Y20688D01*
X97675Y20655D01*
X97926Y20688D01*
X98160Y20785D01*
X98361Y20939D01*
X98515Y21140D01*
X98612Y21374D01*
X98645Y21625D01*
X98612Y21876D01*
X98515Y22110D01*
X98482Y22154D01*
Y23096D01*
X98515Y23140D01*
X98612Y23374D01*
X98645Y23625D01*
X98612Y23876D01*
X98515Y24110D01*
X98361Y24311D01*
X98160Y24465D01*
X97926Y24562D01*
X97675Y24595D01*
X97424Y24562D01*
X97190Y24465D01*
X97146Y24432D01*
X97049D01*
X96934Y24479D01*
X96732Y24506D01*
Y26275D01*
Y30079D01*
X96859Y30122D01*
X96886Y30086D01*
X97022Y29982D01*
X97180Y29917D01*
X97350Y29894D01*
X97520Y29917D01*
X97678Y29982D01*
X97814Y30086D01*
X97918Y30222D01*
X97983Y30380D01*
X97991Y30436D01*
X99652Y32098D01*
X99730Y32213D01*
X99757Y32350D01*
Y37777D01*
X104102Y42123D01*
X104180Y42238D01*
X104207Y42375D01*
Y44225D01*
X104500D01*
Y45325D01*
X103200D01*
Y45157D01*
X102600D01*
Y45350D01*
D02*
G37*
G36*
X85000Y42231D02*
X84830Y42208D01*
X84672Y42143D01*
X84536Y42039D01*
X84432Y41903D01*
X84367Y41745D01*
X84344Y41575D01*
X84367Y41405D01*
X84432Y41247D01*
X84536Y41111D01*
X84672Y41007D01*
X84830Y40942D01*
X85000Y40919D01*
X85133Y40937D01*
X86543Y39527D01*
Y33095D01*
X86436Y33014D01*
X86332Y32878D01*
X86267Y32720D01*
X86244Y32550D01*
X86267Y32380D01*
X86332Y32222D01*
X86436Y32086D01*
X86572Y31982D01*
X86730Y31917D01*
X86900Y31894D01*
X87070Y31917D01*
X87228Y31982D01*
X87364Y32086D01*
X87468Y32222D01*
X87486Y32266D01*
X87541Y32286D01*
X87617Y32292D01*
X87718Y32204D01*
Y28994D01*
X87745Y28857D01*
X87823Y28741D01*
X88791Y27773D01*
X88907Y27695D01*
X89044Y27668D01*
X89975D01*
Y27275D01*
X90118D01*
Y26925D01*
X89925D01*
Y25625D01*
X91025D01*
Y25918D01*
X91175D01*
Y25625D01*
X92275D01*
Y26925D01*
X91175D01*
Y26632D01*
X91025D01*
Y26925D01*
X90832D01*
Y27275D01*
X91175D01*
Y28575D01*
X89975D01*
Y28382D01*
X89191D01*
X88432Y29141D01*
Y31000D01*
X89600D01*
X89600Y30900D01*
X90900D01*
Y31343D01*
X92075D01*
X92109Y31350D01*
X92450D01*
Y32850D01*
X91400D01*
Y32057D01*
X90900D01*
Y32100D01*
X90257D01*
Y32830D01*
X90364Y32911D01*
X90468Y33047D01*
X90533Y33205D01*
X90556Y33375D01*
X90533Y33545D01*
X90468Y33703D01*
X90364Y33839D01*
X90228Y33943D01*
X90070Y34008D01*
X89900Y34031D01*
X89730Y34008D01*
X89572Y33943D01*
X89436Y33839D01*
X89332Y33703D01*
X89267Y33545D01*
X89244Y33375D01*
X89267Y33205D01*
X89332Y33047D01*
X89436Y32911D01*
X89543Y32830D01*
Y32100D01*
X88432D01*
Y32230D01*
X88539Y32311D01*
X88643Y32447D01*
X88708Y32605D01*
X88731Y32775D01*
X88708Y32945D01*
X88643Y33103D01*
X88539Y33239D01*
X88403Y33343D01*
X88245Y33408D01*
X88075Y33431D01*
X87905Y33408D01*
X87747Y33343D01*
X87611Y33239D01*
X87507Y33103D01*
X87489Y33059D01*
X87434Y33039D01*
X87358Y33033D01*
X87257Y33121D01*
Y39675D01*
X87230Y39812D01*
X87152Y39927D01*
X85638Y41442D01*
X85656Y41575D01*
X85633Y41745D01*
X85568Y41903D01*
X85464Y42039D01*
X85328Y42143D01*
X85170Y42208D01*
X85000Y42231D01*
D02*
G37*
G36*
X32475Y30950D02*
X31425D01*
Y30532D01*
X30800D01*
Y30825D01*
X29700D01*
Y29525D01*
X30800D01*
Y29818D01*
X31425D01*
Y29450D01*
X32475D01*
Y30950D01*
D02*
G37*
G36*
X38750Y32525D02*
X37700D01*
Y31025D01*
X37893D01*
Y30775D01*
X37600D01*
Y29675D01*
X38900D01*
Y30775D01*
X38607D01*
Y31025D01*
X38750D01*
Y32525D01*
D02*
G37*
G36*
X81750Y23006D02*
X81580Y22983D01*
X81422Y22918D01*
X81286Y22814D01*
X81182Y22678D01*
X81117Y22520D01*
X81094Y22350D01*
X81109Y22239D01*
X80095Y21225D01*
X79400D01*
Y20932D01*
X79100D01*
Y21175D01*
X77800D01*
Y20075D01*
X79100D01*
Y20218D01*
X79400D01*
Y19925D01*
X80500D01*
Y20620D01*
X80783Y20903D01*
X80900Y20854D01*
Y19925D01*
X82000D01*
Y20620D01*
X82505Y21125D01*
X84325D01*
Y22125D01*
X82498D01*
X82475Y22136D01*
X82388Y22216D01*
X82406Y22350D01*
X82383Y22520D01*
X82318Y22678D01*
X82214Y22814D01*
X82078Y22918D01*
X81920Y22983D01*
X81750Y23006D01*
D02*
G37*
G36*
X61100Y23970D02*
X60849Y23937D01*
X60615Y23840D01*
X60414Y23686D01*
X60260Y23485D01*
X60163Y23251D01*
X60130Y23000D01*
X60163Y22749D01*
X60260Y22515D01*
X60414Y22314D01*
X60615Y22160D01*
X60849Y22063D01*
Y21937D01*
X60615Y21840D01*
X60414Y21686D01*
X60260Y21485D01*
X60163Y21251D01*
X60130Y21000D01*
X60163Y20749D01*
X60260Y20515D01*
X60414Y20314D01*
X60615Y20160D01*
X60849Y20063D01*
X61100Y20030D01*
X61351Y20063D01*
X61585Y20160D01*
X61786Y20314D01*
X61940Y20515D01*
X62037Y20749D01*
X62070Y21000D01*
X62037Y21251D01*
X61940Y21485D01*
X61786Y21686D01*
X61585Y21840D01*
X61351Y21937D01*
Y22063D01*
X61585Y22160D01*
X61786Y22314D01*
X61940Y22515D01*
X62037Y22749D01*
X62070Y23000D01*
X62037Y23251D01*
X61940Y23485D01*
X61786Y23686D01*
X61585Y23840D01*
X61351Y23937D01*
X61100Y23970D01*
D02*
G37*
G36*
X28725Y23545D02*
X28474Y23512D01*
X28240Y23415D01*
X28039Y23261D01*
X27885Y23060D01*
X27788Y22826D01*
X27755Y22575D01*
X27788Y22324D01*
X27885Y22090D01*
X28039Y21889D01*
X28240Y21735D01*
X28474Y21638D01*
Y21512D01*
X28240Y21415D01*
X28039Y21261D01*
X27885Y21060D01*
X27788Y20826D01*
X27755Y20575D01*
X27788Y20324D01*
X27885Y20090D01*
X28039Y19889D01*
X28240Y19735D01*
X28474Y19638D01*
X28725Y19605D01*
X28976Y19638D01*
X29210Y19735D01*
X29411Y19889D01*
X29565Y20090D01*
X29662Y20324D01*
X29695Y20575D01*
X29662Y20826D01*
X29565Y21060D01*
X29411Y21261D01*
X29210Y21415D01*
X28976Y21512D01*
Y21638D01*
X29210Y21735D01*
X29411Y21889D01*
X29565Y22090D01*
X29662Y22324D01*
X29695Y22575D01*
X29662Y22826D01*
X29565Y23060D01*
X29411Y23261D01*
X29210Y23415D01*
X28976Y23512D01*
X28725Y23545D01*
D02*
G37*
G36*
X89675Y24595D02*
X89424Y24562D01*
X89190Y24465D01*
X89015Y24331D01*
X88775D01*
X88592Y24307D01*
X88422Y24236D01*
X88276Y24124D01*
X85451Y21299D01*
X85355Y21175D01*
X84825D01*
Y20175D01*
X85559D01*
X85626Y20076D01*
X86550Y19151D01*
Y18750D01*
X87005D01*
X87175Y18716D01*
X87345Y18750D01*
X87800D01*
Y19600D01*
X87399D01*
X86675Y20324D01*
Y20527D01*
X89045Y22896D01*
X89190Y22785D01*
X89424Y22688D01*
Y22562D01*
X89190Y22465D01*
X88989Y22311D01*
X88835Y22110D01*
X88738Y21876D01*
X88705Y21625D01*
X88738Y21374D01*
X88835Y21140D01*
X88989Y20939D01*
X89190Y20785D01*
X89216Y20774D01*
Y19615D01*
X89201Y19600D01*
X88800D01*
Y18750D01*
X89255D01*
X89425Y18716D01*
X89595Y18750D01*
X90050D01*
Y19176D01*
X90099Y19249D01*
X90134Y19425D01*
Y20774D01*
X90160Y20785D01*
X90361Y20939D01*
X90515Y21140D01*
X90612Y21374D01*
X90645Y21625D01*
X90612Y21876D01*
X90515Y22110D01*
X90361Y22311D01*
X90160Y22465D01*
X89926Y22562D01*
Y22688D01*
X90160Y22785D01*
X90361Y22939D01*
X90515Y23140D01*
X90612Y23374D01*
X90645Y23625D01*
X90612Y23876D01*
X90515Y24110D01*
X90361Y24311D01*
X90160Y24465D01*
X89926Y24562D01*
X89675Y24595D01*
D02*
G37*
G36*
X104350Y24705D02*
X103821Y24664D01*
X103305Y24540D01*
X102815Y24337D01*
X102363Y24060D01*
X101960Y23715D01*
X101615Y23312D01*
X101338Y22860D01*
X101135Y22369D01*
X101011Y21854D01*
X100970Y21325D01*
X101011Y20796D01*
X101135Y20280D01*
X101338Y19790D01*
X101615Y19338D01*
X101960Y18935D01*
X102363Y18590D01*
X102815Y18313D01*
X103305Y18110D01*
X103821Y17986D01*
X104350Y17945D01*
X104879Y17986D01*
X105395Y18110D01*
X105885Y18313D01*
X106337Y18590D01*
X106740Y18935D01*
X107085Y19338D01*
X107362Y19790D01*
X107565Y20280D01*
X107689Y20796D01*
X107730Y21325D01*
X107689Y21854D01*
X107565Y22369D01*
X107362Y22860D01*
X107085Y23312D01*
X106740Y23715D01*
X106337Y24060D01*
X105885Y24337D01*
X105395Y24540D01*
X104879Y24664D01*
X104350Y24705D01*
D02*
G37*
%LPD*%
G36*
X21724Y107028D02*
X22138Y106929D01*
X22531Y106766D01*
X22894Y106544D01*
X23217Y106267D01*
X23494Y105944D01*
X23716Y105581D01*
X23879Y105188D01*
X23978Y104774D01*
X24011Y104350D01*
X23978Y103926D01*
X23879Y103512D01*
X23716Y103119D01*
X23494Y102756D01*
X23217Y102433D01*
X22894Y102156D01*
X22531Y101934D01*
X22138Y101771D01*
X21724Y101672D01*
X21300Y101639D01*
X20876Y101672D01*
X20462Y101771D01*
X20069Y101934D01*
X19706Y102156D01*
X19383Y102433D01*
X19106Y102756D01*
X18884Y103119D01*
X18721Y103512D01*
X18622Y103926D01*
X18589Y104350D01*
X18622Y104774D01*
X18721Y105188D01*
X18884Y105581D01*
X19106Y105944D01*
X19383Y106267D01*
X19706Y106544D01*
X20069Y106766D01*
X20462Y106929D01*
X20876Y107028D01*
X21300Y107061D01*
X21724Y107028D01*
D02*
G37*
%LPC*%
G36*
X21300Y106058D02*
X20967Y106025D01*
X20646Y105928D01*
X20351Y105770D01*
X20092Y105558D01*
X19880Y105299D01*
X19722Y105004D01*
X19625Y104683D01*
X19592Y104350D01*
X19625Y104017D01*
X19722Y103696D01*
X19880Y103401D01*
X20092Y103142D01*
X20351Y102930D01*
X20646Y102772D01*
X20967Y102675D01*
X21300Y102642D01*
X21633Y102675D01*
X21954Y102772D01*
X22249Y102930D01*
X22508Y103142D01*
X22720Y103401D01*
X22878Y103696D01*
X22975Y104017D01*
X23008Y104350D01*
X22975Y104683D01*
X22878Y105004D01*
X22720Y105299D01*
X22508Y105558D01*
X22249Y105770D01*
X21954Y105928D01*
X21633Y106025D01*
X21300Y106058D01*
D02*
G37*
%LPD*%
G36*
X104749Y107028D02*
X105163Y106929D01*
X105556Y106766D01*
X105919Y106544D01*
X106242Y106267D01*
X106519Y105944D01*
X106741Y105581D01*
X106904Y105188D01*
X107003Y104774D01*
X107036Y104350D01*
X107003Y103926D01*
X106904Y103512D01*
X106741Y103119D01*
X106519Y102756D01*
X106242Y102433D01*
X105919Y102156D01*
X105556Y101934D01*
X105163Y101771D01*
X104749Y101672D01*
X104325Y101639D01*
X103901Y101672D01*
X103487Y101771D01*
X103094Y101934D01*
X102731Y102156D01*
X102408Y102433D01*
X102131Y102756D01*
X101909Y103119D01*
X101746Y103512D01*
X101647Y103926D01*
X101614Y104350D01*
X101647Y104774D01*
X101746Y105188D01*
X101909Y105581D01*
X102131Y105944D01*
X102408Y106267D01*
X102731Y106544D01*
X103094Y106766D01*
X103487Y106929D01*
X103901Y107028D01*
X104325Y107061D01*
X104749Y107028D01*
D02*
G37*
%LPC*%
G36*
X104325Y106058D02*
X103992Y106025D01*
X103671Y105928D01*
X103376Y105770D01*
X103117Y105558D01*
X102905Y105299D01*
X102747Y105004D01*
X102650Y104683D01*
X102617Y104350D01*
X102650Y104017D01*
X102747Y103696D01*
X102905Y103401D01*
X103117Y103142D01*
X103376Y102930D01*
X103671Y102772D01*
X103992Y102675D01*
X104325Y102642D01*
X104658Y102675D01*
X104979Y102772D01*
X105274Y102930D01*
X105533Y103142D01*
X105745Y103401D01*
X105903Y103696D01*
X106000Y104017D01*
X106033Y104350D01*
X106000Y104683D01*
X105903Y105004D01*
X105745Y105299D01*
X105533Y105558D01*
X105274Y105770D01*
X104979Y105928D01*
X104658Y106025D01*
X104325Y106058D01*
D02*
G37*
%LPD*%
G36*
X42592Y30050D02*
X42624Y29802D01*
X42720Y29571D01*
X42845Y29409D01*
X42795Y29282D01*
X42450D01*
Y31125D01*
X41450D01*
Y29294D01*
X40671D01*
X40628Y29421D01*
X40728Y29497D01*
X40880Y29696D01*
X40976Y29927D01*
X41008Y30175D01*
Y33042D01*
X42592D01*
Y30050D01*
D02*
G37*
G36*
X104774Y24003D02*
X105188Y23904D01*
X105581Y23741D01*
X105944Y23519D01*
X106267Y23242D01*
X106544Y22919D01*
X106766Y22556D01*
X106929Y22163D01*
X107028Y21749D01*
X107061Y21325D01*
X107028Y20901D01*
X106929Y20487D01*
X106766Y20094D01*
X106544Y19731D01*
X106267Y19408D01*
X105944Y19131D01*
X105581Y18909D01*
X105188Y18746D01*
X104774Y18647D01*
X104350Y18614D01*
X103926Y18647D01*
X103512Y18746D01*
X103119Y18909D01*
X102756Y19131D01*
X102433Y19408D01*
X102156Y19731D01*
X101934Y20094D01*
X101771Y20487D01*
X101672Y20901D01*
X101639Y21325D01*
X101672Y21749D01*
X101771Y22163D01*
X101934Y22556D01*
X102156Y22919D01*
X102433Y23242D01*
X102756Y23519D01*
X103119Y23741D01*
X103512Y23904D01*
X103926Y24003D01*
X104350Y24036D01*
X104774Y24003D01*
D02*
G37*
%LPC*%
G36*
X104350Y23033D02*
X104017Y23000D01*
X103696Y22903D01*
X103401Y22745D01*
X103142Y22533D01*
X102930Y22274D01*
X102772Y21979D01*
X102675Y21658D01*
X102642Y21325D01*
X102675Y20992D01*
X102772Y20671D01*
X102930Y20376D01*
X103142Y20117D01*
X103401Y19905D01*
X103696Y19747D01*
X104017Y19650D01*
X104350Y19617D01*
X104683Y19650D01*
X105004Y19747D01*
X105299Y19905D01*
X105558Y20117D01*
X105770Y20376D01*
X105928Y20671D01*
X106025Y20992D01*
X106058Y21325D01*
X106025Y21658D01*
X105928Y21979D01*
X105770Y22274D01*
X105558Y22533D01*
X105299Y22745D01*
X105004Y22903D01*
X104683Y23000D01*
X104350Y23033D01*
D02*
G37*
%LPD*%
D10*
X24343Y104350D02*
G03*
X24343Y104350I-3043J0D01*
G01*
X16775Y23300D02*
G03*
X16775Y27800I1998J2250D01*
G01*
X107393Y21325D02*
G03*
X107393Y21325I-3043J0D01*
G01*
X107368Y104350D02*
G03*
X107368Y104350I-3043J0D01*
G01*
X16775Y23300D02*
Y27800D01*
D11*
X43200Y48775D02*
D03*
Y50275D02*
D03*
X82200Y48250D02*
D03*
Y49750D02*
D03*
X38250Y28725D02*
D03*
Y30225D02*
D03*
X63750Y25775D02*
D03*
Y27275D02*
D03*
X78450Y20625D02*
D03*
Y19125D02*
D03*
X103850Y44775D02*
D03*
Y46275D02*
D03*
X67000Y44425D02*
D03*
Y42925D02*
D03*
X72800Y45550D02*
D03*
Y44050D02*
D03*
X37450Y84375D02*
D03*
Y85875D02*
D03*
X37075Y51850D02*
D03*
Y50350D02*
D03*
X37325Y97150D02*
D03*
Y98650D02*
D03*
X91825Y64925D02*
D03*
Y63425D02*
D03*
X88950Y30050D02*
D03*
Y31550D02*
D03*
X95825Y68800D02*
D03*
Y70300D02*
D03*
X95925Y32650D02*
D03*
Y34150D02*
D03*
X101950Y44800D02*
D03*
Y46300D02*
D03*
X53500Y87325D02*
D03*
Y88825D02*
D03*
X85875Y96425D02*
D03*
Y94925D02*
D03*
X84400Y94925D02*
D03*
Y96425D02*
D03*
X24625Y80350D02*
D03*
Y78850D02*
D03*
X20000Y83625D02*
D03*
Y82125D02*
D03*
X95325Y75150D02*
D03*
Y76650D02*
D03*
X88200Y71200D02*
D03*
Y72700D02*
D03*
X100275Y57875D02*
D03*
Y59375D02*
D03*
Y61000D02*
D03*
Y62500D02*
D03*
X105950Y67325D02*
D03*
Y68825D02*
D03*
X60800Y65725D02*
D03*
Y67225D02*
D03*
X78525Y66075D02*
D03*
Y67575D02*
D03*
X80775Y48250D02*
D03*
Y49750D02*
D03*
D12*
X75025Y66900D02*
D03*
X57025Y66925D02*
D03*
D13*
X73092Y64390D02*
D03*
X74362D02*
D03*
X75632D02*
D03*
X76902D02*
D03*
X73092Y69340D02*
D03*
X74362D02*
D03*
X75632D02*
D03*
X76902D02*
D03*
X58902Y69365D02*
D03*
X57632D02*
D03*
X56362D02*
D03*
X55092D02*
D03*
X58902Y64415D02*
D03*
X57632D02*
D03*
X56362D02*
D03*
X55092D02*
D03*
D14*
X45400Y30075D02*
D03*
X43500D02*
D03*
X44450Y27725D02*
D03*
X54075Y29900D02*
D03*
X52175D02*
D03*
X53125Y27550D02*
D03*
X41950Y30200D02*
D03*
X40050D02*
D03*
X41000Y27850D02*
D03*
X102900Y50650D02*
D03*
X103850Y48300D02*
D03*
X101950D02*
D03*
X57850Y29900D02*
D03*
X55950D02*
D03*
X56900Y27550D02*
D03*
D15*
X38225Y31775D02*
D03*
X36325D02*
D03*
Y34175D02*
D03*
X37275D02*
D03*
X38225D02*
D03*
X37225Y93425D02*
D03*
X35325D02*
D03*
Y95825D02*
D03*
X36275D02*
D03*
X37225D02*
D03*
X35325Y89950D02*
D03*
X37225D02*
D03*
Y87550D02*
D03*
X36275D02*
D03*
X35325D02*
D03*
X91925Y34500D02*
D03*
X93825D02*
D03*
Y32100D02*
D03*
X92875D02*
D03*
X91925D02*
D03*
X28475Y47425D02*
D03*
X30375D02*
D03*
Y45025D02*
D03*
X29425D02*
D03*
X28475D02*
D03*
X101975Y69250D02*
D03*
X103875D02*
D03*
Y66850D02*
D03*
X102925D02*
D03*
X101975D02*
D03*
X47300Y87300D02*
D03*
X48250D02*
D03*
X49200D02*
D03*
Y89700D02*
D03*
X47300D02*
D03*
X24600Y84350D02*
D03*
X23650D02*
D03*
X22700D02*
D03*
Y81950D02*
D03*
X24600D02*
D03*
X60550Y27300D02*
D03*
X61500D02*
D03*
X62450D02*
D03*
Y29700D02*
D03*
X60550D02*
D03*
X71000Y41700D02*
D03*
X69100D02*
D03*
Y44100D02*
D03*
X70050D02*
D03*
X71000D02*
D03*
X31950Y30200D02*
D03*
X33850D02*
D03*
Y27800D02*
D03*
X32900D02*
D03*
X31950D02*
D03*
D16*
X46225Y25550D02*
D03*
X44725D02*
D03*
X65375Y62875D02*
D03*
X66875D02*
D03*
X42225Y68650D02*
D03*
X43725D02*
D03*
X54775Y25500D02*
D03*
X53275D02*
D03*
X77250Y73800D02*
D03*
X75750D02*
D03*
X44575Y65475D02*
D03*
X46075D02*
D03*
X68725Y60925D02*
D03*
X67225D02*
D03*
D17*
X65925Y79425D02*
D03*
Y75675D02*
D03*
D18*
X85750Y20675D02*
D03*
X83400Y19725D02*
D03*
Y21625D02*
D03*
X27525Y33200D02*
D03*
X29875Y34150D02*
D03*
Y32250D02*
D03*
X27525Y37000D02*
D03*
X29875Y37950D02*
D03*
Y36050D02*
D03*
D19*
X51750Y63850D02*
D03*
X53250D02*
D03*
X53225Y65400D02*
D03*
X51725D02*
D03*
X71575Y62050D02*
D03*
X73075D02*
D03*
X73075Y60525D02*
D03*
X71575D02*
D03*
X57850Y31500D02*
D03*
X59350D02*
D03*
X88975Y26275D02*
D03*
X90475D02*
D03*
X91725D02*
D03*
X93225D02*
D03*
X79950Y20575D02*
D03*
X81450D02*
D03*
X80675Y97800D02*
D03*
X79175D02*
D03*
X26975Y43475D02*
D03*
X28475D02*
D03*
X27525Y50900D02*
D03*
X29025D02*
D03*
X98900Y65300D02*
D03*
X100400D02*
D03*
X20275Y46675D02*
D03*
X21775D02*
D03*
X21775Y45275D02*
D03*
X20275D02*
D03*
X81100Y89625D02*
D03*
X79600D02*
D03*
X48850Y91300D02*
D03*
X47350D02*
D03*
X35275Y91700D02*
D03*
X36775D02*
D03*
X30250Y30175D02*
D03*
X28750D02*
D03*
X76850Y87500D02*
D03*
X78350D02*
D03*
X76850Y88950D02*
D03*
X78350D02*
D03*
D20*
X74600Y61925D02*
D03*
Y60525D02*
D03*
X78725Y69375D02*
D03*
Y70775D02*
D03*
X60875Y69350D02*
D03*
Y70750D02*
D03*
X96325Y66150D02*
D03*
Y67550D02*
D03*
X27050Y46050D02*
D03*
Y47450D02*
D03*
X91325Y74075D02*
D03*
Y72675D02*
D03*
X45550Y87125D02*
D03*
Y88525D02*
D03*
X90250Y30100D02*
D03*
Y31500D02*
D03*
X74375Y43150D02*
D03*
Y44550D02*
D03*
X72725Y41825D02*
D03*
Y40425D02*
D03*
D21*
X80175Y64200D02*
D03*
X78775D02*
D03*
X56325Y61925D02*
D03*
X54925D02*
D03*
X60300Y61850D02*
D03*
X58900D02*
D03*
X80050Y92050D02*
D03*
X78650D02*
D03*
X90525Y35900D02*
D03*
X91925D02*
D03*
X103375Y71325D02*
D03*
X101975D02*
D03*
X22275Y86100D02*
D03*
X23675D02*
D03*
X91975Y27925D02*
D03*
X90575D02*
D03*
X81725Y72075D02*
D03*
X83125D02*
D03*
X57675Y73275D02*
D03*
X59075D02*
D03*
X43625Y70375D02*
D03*
X42225D02*
D03*
X44575Y67200D02*
D03*
X45975D02*
D03*
X67300Y58050D02*
D03*
X68700D02*
D03*
X66675Y59400D02*
D03*
X65275D02*
D03*
D22*
X95355Y84400D02*
D03*
X94085D02*
D03*
X92815D02*
D03*
X91545D02*
D03*
X95355Y79500D02*
D03*
X94085D02*
D03*
X92815D02*
D03*
X91545D02*
D03*
X89705Y68400D02*
D03*
X88435D02*
D03*
X87165D02*
D03*
X85895D02*
D03*
X89705Y63500D02*
D03*
X88435D02*
D03*
X87165D02*
D03*
X85895D02*
D03*
X48830Y100075D02*
D03*
X47560D02*
D03*
X46290D02*
D03*
X45020D02*
D03*
X48830Y95175D02*
D03*
X47560D02*
D03*
X46290D02*
D03*
X45020D02*
D03*
D23*
X32500Y78795D02*
D03*
Y80065D02*
D03*
Y81335D02*
D03*
Y82605D02*
D03*
X27600Y78795D02*
D03*
Y80065D02*
D03*
Y81335D02*
D03*
Y82605D02*
D03*
D24*
X95350Y73625D02*
D03*
Y71725D02*
D03*
X92950D02*
D03*
Y72675D02*
D03*
Y73625D02*
D03*
X78650Y93750D02*
D03*
Y95650D02*
D03*
X81050D02*
D03*
Y94700D02*
D03*
Y93750D02*
D03*
X94175Y66450D02*
D03*
Y67400D02*
D03*
Y68350D02*
D03*
X91775D02*
D03*
Y66450D02*
D03*
X38675Y50275D02*
D03*
Y49325D02*
D03*
Y48375D02*
D03*
X41075D02*
D03*
Y50275D02*
D03*
D25*
X92075Y50900D02*
D03*
Y59300D02*
D03*
D26*
X75150Y95900D02*
D03*
X70550D02*
D03*
D27*
X29250Y54100D02*
D03*
Y58700D02*
D03*
X102900Y82075D02*
D03*
Y77475D02*
D03*
D28*
X43350Y43375D02*
D03*
X46050D02*
D03*
X43825Y62175D02*
D03*
X41125D02*
D03*
X43850Y58900D02*
D03*
X41150D02*
D03*
X43850Y55475D02*
D03*
X41150D02*
D03*
D29*
X42900Y98475D02*
D03*
Y99975D02*
D03*
X83950Y66700D02*
D03*
Y68200D02*
D03*
X89800Y86275D02*
D03*
Y84775D02*
D03*
X35775Y83550D02*
D03*
Y82050D02*
D03*
X25250Y37100D02*
D03*
Y38600D02*
D03*
X60875Y73850D02*
D03*
Y75350D02*
D03*
D30*
X93500Y46800D02*
D03*
X96600D02*
D03*
X24050Y64500D02*
D03*
X20950D02*
D03*
X102825Y86100D02*
D03*
X99725D02*
D03*
D31*
X65450Y95425D02*
D03*
Y92325D02*
D03*
D32*
X93500Y38725D02*
D03*
Y43325D02*
D03*
D33*
X52725Y72150D02*
D03*
X45925D02*
D03*
D34*
X67000Y71525D02*
D03*
Y64725D02*
D03*
D35*
X102425Y93525D02*
D03*
X94025D02*
D03*
X23175Y71675D02*
D03*
X31575D02*
D03*
X60650Y96025D02*
D03*
X52250D02*
D03*
D36*
X20125Y60100D02*
D03*
X22375D02*
D03*
X87175Y19175D02*
D03*
X89425D02*
D03*
X104650Y33375D02*
D03*
X106900D02*
D03*
X104625Y26975D02*
D03*
X106875D02*
D03*
D37*
X57800Y103375D02*
D03*
Y105625D02*
D03*
X105800Y50450D02*
D03*
Y52700D02*
D03*
D38*
X43900Y84325D02*
D03*
X41200D02*
D03*
X72975Y71725D02*
D03*
X75675D02*
D03*
X84300Y75050D02*
D03*
X81600D02*
D03*
X55012Y71550D02*
D03*
X57712D02*
D03*
X37850Y78475D02*
D03*
X40550D02*
D03*
X64325Y56350D02*
D03*
X67025D02*
D03*
X64300Y54100D02*
D03*
X67000D02*
D03*
X64275Y51975D02*
D03*
X66975D02*
D03*
X67150Y47925D02*
D03*
X69850D02*
D03*
D39*
X43350Y78625D02*
D03*
Y75925D02*
D03*
X57625Y78775D02*
D03*
Y76075D02*
D03*
D40*
X62720Y42530D02*
D03*
X64630Y40620D02*
D03*
D41*
X39250Y45600D02*
D03*
Y42900D02*
D03*
D42*
X61900Y37550D02*
X63500Y39150D01*
X46250Y37550D02*
X61900D01*
X63500Y39150D02*
X67000Y42650D01*
X34275Y91700D02*
X34950D01*
X37075D02*
X40300D01*
D43*
X40050Y34000D02*
X43375D01*
X40050Y30175D02*
Y34000D01*
X105950Y69050D02*
Y74125D01*
X103650Y76425D02*
X105950Y74125D01*
X102875Y76425D02*
X103650D01*
X83200Y68400D02*
X85895D01*
X86475Y60550D02*
X87725Y59300D01*
X92075D01*
X21850Y89150D02*
X23900D01*
X20400Y37000D02*
X27525D01*
X20400Y35025D02*
Y37000D01*
X29875Y37950D02*
X33000D01*
Y34150D02*
Y37950D01*
X42725D02*
X43175Y37500D01*
X43375Y34000D02*
X43525Y34150D01*
X43550Y34125D01*
X43175Y34500D02*
X43525Y34150D01*
X43550Y30050D02*
Y34125D01*
X29875Y34150D02*
X33000D01*
X52000D02*
X53850D01*
X52000D02*
X52150Y34000D01*
Y29900D02*
Y34000D01*
X53850Y34150D02*
X55950Y32050D01*
Y29900D02*
Y32050D01*
X53100Y21000D02*
Y23000D01*
X44500D02*
Y27325D01*
Y21000D02*
Y23000D01*
X41000Y27325D02*
X44500D01*
X44500Y27325D01*
X27525Y33200D02*
Y37000D01*
X29250Y58700D02*
X29325Y58775D01*
X29275Y64125D02*
X29325Y58775D01*
X29275Y64125D02*
X29275Y64125D01*
X23025Y71700D02*
X24000Y70725D01*
Y64125D02*
Y70725D01*
Y64125D02*
X29275D01*
X51875Y96400D02*
Y98975D01*
X66900Y103550D02*
X68900D01*
X105950Y63600D02*
Y67275D01*
X102850Y85700D02*
X102850Y85700D01*
X102525Y94150D02*
X102875Y93800D01*
X81550Y70050D02*
X83200Y68400D01*
X85895D02*
X86775D01*
X81550Y75700D02*
Y76150D01*
X81250Y98325D02*
Y101600D01*
X75100Y97775D02*
X78900D01*
X69775Y97150D02*
X70450Y97825D01*
X48830Y100075D02*
X50775D01*
X51875Y98975D01*
X45020Y100075D02*
X46010D01*
X32560Y81625D02*
X32835Y81900D01*
X32560Y81625D02*
Y82300D01*
X81550Y70050D02*
Y75700D01*
X68900Y103550D02*
Y105550D01*
X66900Y103550D02*
Y105550D01*
X51875Y96400D02*
X52250Y96025D01*
X32425Y72700D02*
Y78795D01*
X80725Y97800D02*
X81250Y98325D01*
X32835Y81900D02*
X40150D01*
X104900Y62550D02*
X105950Y63600D01*
X79300Y103550D02*
X81250Y101600D01*
X68900Y103550D02*
X79300D01*
X33000Y37950D02*
X37275D01*
X42725D01*
X53125Y27550D02*
X56900D01*
X53100Y23000D02*
Y27675D01*
X92525Y49175D02*
Y50925D01*
Y49175D02*
X93500Y48200D01*
Y43325D02*
Y48200D01*
X41350Y100150D02*
X44575D01*
X40800Y99600D02*
X41350Y100150D01*
X20275Y49875D02*
X22275D01*
X22400Y50825D02*
X27300D01*
X29025Y50900D02*
Y53875D01*
X21850Y91150D02*
Y97650D01*
X25075Y100875D01*
X26250Y98250D02*
X27775D01*
X23900Y89150D02*
X24275Y89525D01*
Y96275D01*
X26250Y98250D01*
D44*
X63250Y39150D02*
X63500D01*
X61275Y36925D02*
X67375Y30825D01*
X35000Y70625D02*
X40800Y76425D01*
X71350Y73675D02*
X71400Y73725D01*
X71350Y72575D02*
Y73675D01*
X25475Y32550D02*
X26475Y31550D01*
Y30525D02*
Y31550D01*
X39862Y28938D02*
X41950D01*
X39650Y28725D02*
X39862Y28938D01*
X38250Y28725D02*
X39650D01*
X41963Y28925D02*
X44800D01*
X41950Y28938D02*
X41963Y28925D01*
X41950Y28938D02*
Y30200D01*
X44800Y28925D02*
X45400Y29525D01*
Y30075D01*
X28550Y26775D02*
X33650D01*
X27550Y27775D02*
X28550Y26775D01*
X27550Y27775D02*
Y31300D01*
X33850Y26975D02*
Y27800D01*
X33650Y26775D02*
X33850Y26975D01*
X74900Y39775D02*
X77700D01*
X77725Y39800D01*
X73025Y37900D02*
X74900Y39775D01*
X73000Y44100D02*
X75150Y41950D01*
Y41825D02*
Y41950D01*
X63775Y27300D02*
Y28500D01*
X63725Y27250D02*
X63775Y27300D01*
X67375Y19825D02*
Y30825D01*
X66475Y42650D02*
X67000D01*
X61975Y40200D02*
X63250Y39150D01*
X28750Y32250D02*
Y35475D01*
Y30175D02*
Y32250D01*
X29875D01*
X32975Y34125D02*
X33000Y34150D01*
X28750Y35475D02*
X29325Y36050D01*
X29875D01*
X60550Y29700D02*
Y31250D01*
X60300Y31500D02*
X60550Y31250D01*
X59350Y31500D02*
X60300D01*
X57850Y29350D02*
Y29575D01*
X57850Y29575D01*
Y31500D01*
X105750Y69250D02*
X105950Y69050D01*
X99800Y59375D02*
X100275D01*
X100400Y65300D02*
X100425D01*
X99075Y42950D02*
X99232D01*
X95925Y26275D02*
X95925Y26275D01*
X91650Y70425D02*
X92950Y71725D01*
X90075Y31550D02*
X90125Y31500D01*
X90325Y70700D02*
X90825Y70200D01*
X88200Y71200D02*
X88700Y70700D01*
X86300Y25850D02*
Y26650D01*
X80350Y41975D02*
X80600D01*
X78710Y69340D02*
X78725Y69325D01*
X75632Y64390D02*
Y65382D01*
X70600Y87300D02*
X70675Y87225D01*
X61060Y69365D02*
X61075Y69350D01*
X57632Y64415D02*
Y65082D01*
X51575Y65400D02*
X51725Y65250D01*
X41850Y48425D02*
X42150Y48725D01*
X41025Y48425D02*
X41850D01*
X39525Y48375D02*
X39900Y48750D01*
X38675Y48375D02*
X39525D01*
X38825Y96750D02*
Y96825D01*
X37050Y50325D02*
X37075Y50350D01*
X37425Y91700D02*
X38250Y90875D01*
X37025Y91700D02*
X37425D01*
X36825D02*
X37150Y91375D01*
X36825Y91700D02*
X36925Y91800D01*
X37025Y91700D02*
X37225Y91900D01*
X37200Y97075D02*
X37225Y97050D01*
X35325Y86325D02*
Y87550D01*
X35375Y91650D02*
X35425Y91700D01*
X21225Y83625D02*
X21225Y83625D01*
X100275Y59375D02*
Y61000D01*
X94175Y68350D02*
Y69950D01*
X90475Y26275D02*
Y28025D01*
X89900Y31700D02*
Y33375D01*
X84400Y88000D02*
Y94925D01*
X80725Y95975D02*
Y97800D01*
X74362Y61963D02*
X74450Y61875D01*
X39900Y48750D02*
Y49825D01*
X37275Y87550D02*
X38250Y88525D01*
Y90875D01*
X37225Y91900D02*
Y93425D01*
Y95825D02*
Y97050D01*
X35325Y86325D02*
X35750Y85900D01*
X35375Y89950D02*
Y91650D01*
X30375Y45025D02*
Y45775D01*
X21225Y83625D02*
X21950Y84350D01*
X100225Y43943D02*
Y48825D01*
X99725Y45225D02*
Y48425D01*
X74362Y61963D02*
Y64190D01*
X72400Y19825D02*
Y24125D01*
X62350Y68525D02*
Y75700D01*
X29500Y46650D02*
Y48150D01*
X21800Y45200D02*
Y46675D01*
X99200Y49850D02*
Y58775D01*
X98575Y49575D02*
Y63400D01*
X105525Y66850D02*
X105950Y67275D01*
X98675Y44175D02*
X99725Y45225D01*
X99200Y58775D02*
X99800Y59375D01*
X93225Y26275D02*
X95925D01*
X90475D02*
X91725D01*
X89900Y31700D02*
X92075D01*
X88875Y31550D02*
X90075D01*
X94175Y68350D02*
X95375D01*
X95825Y68800D01*
X88700Y70700D02*
X90325D01*
X91325Y70200D02*
X91550Y70425D01*
X90825Y70200D02*
X91325D01*
X84400Y94925D02*
X85875D01*
X80725Y95975D02*
X81050Y95650D01*
X72175Y47100D02*
X75225D01*
X76902Y64190D02*
X78765D01*
X78525Y67525D02*
X79025D01*
X76902Y69340D02*
X78710D01*
X75100Y78875D02*
X75275D01*
X78650Y95650D02*
X79125Y96125D01*
X58902Y69365D02*
X61060D01*
X60875Y70750D02*
Y71050D01*
X49375Y65400D02*
X51575D01*
X43600Y48475D02*
X44950D01*
X42150Y48725D02*
X42950D01*
X41025Y50325D02*
X43200D01*
X39900Y49825D02*
X40350Y50275D01*
X41075D01*
X37050Y50325D02*
X38625D01*
X36525Y49800D02*
X37050Y50325D01*
X35750Y85900D02*
X37150D01*
X38675D01*
X35375Y89950D02*
X37275D01*
X35325Y93425D02*
X37225D01*
X34275Y94775D02*
X35325Y95825D01*
X37200Y97075D02*
X38575D01*
X38825Y96825D01*
X29500Y46650D02*
X30375Y45775D01*
X19950Y83625D02*
X21225D01*
X21950Y84350D02*
X22775D01*
X99232Y42950D02*
X100225Y43943D01*
X98575Y49575D02*
X99725Y48425D01*
X99200Y49850D02*
X100225Y48825D01*
X100425Y65300D02*
X101975Y66850D01*
X98575Y63400D02*
X100550Y65375D01*
X83975Y23525D02*
X86300Y25850D01*
X80600Y41975D02*
X81725Y40850D01*
X79125Y96125D02*
Y97800D01*
X60725Y66900D02*
X62350Y68525D01*
X36525Y48125D02*
Y49800D01*
X73450Y21250D02*
X75725Y23525D01*
X73092Y60625D02*
Y64190D01*
X103875Y66850D02*
X105525D01*
X103875Y69250D02*
X105750D01*
X66675Y37900D02*
X73025D01*
X71000Y44100D02*
X73000D01*
X49200Y87300D02*
X70600D01*
X79025Y67525D02*
X81550Y70050D01*
X75725Y23525D02*
X83975D01*
X75225Y47100D02*
X80350Y41975D01*
X75275Y78875D02*
X84400Y88000D01*
X30250Y30175D02*
X31925D01*
X32975Y27875D02*
Y34125D01*
X32900Y27800D02*
X32975Y27875D01*
X68025Y28500D02*
X72400Y24125D01*
X68025Y28500D02*
Y30650D01*
X68250Y30875D01*
X35775Y30075D02*
X36475D01*
X34875Y30975D02*
X35775Y30075D01*
X34875Y30975D02*
Y34175D01*
X36325D01*
X21800Y44400D02*
Y45200D01*
Y44400D02*
X23850Y42350D01*
X29500D01*
X25475Y32550D02*
Y35075D01*
X62450Y27300D02*
X63675D01*
X61500D02*
Y32350D01*
X59700Y34150D02*
X61500Y32350D01*
X53850Y34150D02*
X59700D01*
X38250Y28725D02*
X38425Y28550D01*
X38250Y30225D02*
Y31750D01*
X38225Y31775D02*
X38250Y31750D01*
X37275Y34175D02*
Y37950D01*
X63725Y27250D02*
X63750Y27225D01*
X81575Y40700D02*
X81725Y40850D01*
X81575Y40700D02*
X81750D01*
X75632Y65382D02*
X75900Y65650D01*
X78050D01*
X78525Y66125D01*
X58165Y65615D02*
X60435D01*
X60450Y65600D01*
X57632Y65082D02*
X58165Y65615D01*
X54050Y28775D02*
Y29575D01*
X57275Y28775D02*
X57850Y29350D01*
X54050Y28775D02*
X57275D01*
X101950Y46300D02*
Y48300D01*
X101950Y48300D02*
X101950Y48300D01*
Y44800D02*
X103825D01*
X103850Y44825D01*
X97600Y30550D02*
X99400Y32350D01*
X97350Y30550D02*
X97600D01*
X99400Y32350D02*
Y37925D01*
X103850Y42375D01*
Y44550D01*
X81450Y20575D02*
X82500Y21625D01*
X83400D01*
X78450Y20575D02*
X79950D01*
X81725Y22350D01*
X81750D01*
X67150Y44100D02*
X69100D01*
X67000Y44250D02*
X67150Y44100D01*
X70525Y55550D02*
X71575Y56600D01*
X68500Y55550D02*
X70525D01*
X71575Y56600D02*
Y60625D01*
X34275Y91700D02*
Y94775D01*
X59275Y71150D02*
X60775D01*
X60875Y71050D01*
X77350Y71025D02*
X77750D01*
X78000Y70775D01*
X78725D01*
X44950Y48475D02*
X47850Y51375D01*
Y63875D01*
X49375Y65400D01*
X74200Y80050D02*
X81100Y86950D01*
Y93750D01*
X28475Y43475D02*
Y45025D01*
Y43400D02*
X31425D01*
X35000Y62900D02*
Y70625D01*
X27500Y50150D02*
Y50625D01*
Y50150D02*
X29500Y48150D01*
X29025Y50300D02*
X30375Y48950D01*
Y47425D02*
Y48950D01*
X29025Y50300D02*
Y50900D01*
X27050Y47450D02*
X28450D01*
X27050D02*
Y48775D01*
X27050Y48775D01*
X85000Y41575D02*
X86900Y39675D01*
Y32550D02*
Y39675D01*
X91925Y34500D02*
Y35550D01*
X93100Y36725D01*
X93125D01*
X89044Y28025D02*
X90475D01*
X88075Y28994D02*
Y32775D01*
Y28994D02*
X89044Y28025D01*
D45*
X85725Y80325D02*
X86400Y81000D01*
X81550Y76150D02*
X85725Y80325D01*
X91545Y84400D02*
X92350D01*
X87075D02*
X91545D01*
X86475Y60550D02*
Y62763D01*
Y63500D01*
X40800Y76425D02*
Y99600D01*
X41525Y75700D02*
X62350D01*
X44175Y51850D02*
Y70600D01*
X45800Y72225D01*
X62350Y75700D02*
X75650D01*
X43125Y45550D02*
X43175Y45600D01*
X33325Y45550D02*
X43125D01*
X43175Y45600D02*
Y48325D01*
Y37500D02*
Y45600D01*
Y34500D02*
Y37500D01*
X65375Y95650D02*
X70300D01*
X102875Y82375D02*
Y93800D01*
X61025Y95650D02*
X65375D01*
X75650Y75700D02*
X81550D01*
X43200Y50875D02*
X44175Y51850D01*
X43525Y34150D02*
X50075D01*
X52000D01*
X86400Y81000D02*
Y83725D01*
X87075Y84400D01*
X40800Y76425D02*
X41525Y75700D01*
X27600Y91700D02*
X34275D01*
X94125Y90000D02*
Y94150D01*
Y90000D02*
X94775Y89350D01*
Y84400D02*
Y89350D01*
X32375Y100875D02*
X34400Y102900D01*
Y104325D01*
D46*
X85725Y80325D02*
X88825Y77225D01*
X84400Y85600D02*
X84525D01*
X86400Y83725D01*
X82425Y67625D02*
X83200Y68400D01*
X82425Y61850D02*
Y67625D01*
Y61850D02*
X87825Y56450D01*
X95425D02*
X95450Y56425D01*
X87825Y56450D02*
X95425D01*
X23675Y84300D02*
Y87125D01*
X19325Y87525D02*
X23275D01*
X19325D02*
Y87550D01*
X23275Y87525D02*
X23675Y87125D01*
X43525Y46375D02*
X62300D01*
X102900Y50425D02*
X102925Y50450D01*
X102900Y62550D02*
X102900Y62550D01*
X91825Y66425D02*
X91825Y66425D01*
X90100Y72375D02*
X90400Y72675D01*
X85950Y20400D02*
Y20800D01*
X47300Y91250D02*
X47325Y91275D01*
X105800Y52700D02*
Y53650D01*
X91825Y64925D02*
Y66425D01*
X89675Y19425D02*
Y21625D01*
X90100Y71950D02*
Y72375D01*
X53225Y63950D02*
Y65250D01*
Y63950D02*
X53225Y63950D01*
X47875Y88475D02*
X48300Y88050D01*
X47300Y89700D02*
Y91250D01*
X24675Y80350D02*
Y81850D01*
X24625Y81900D02*
X24675Y81850D01*
X56337Y61925D02*
Y63940D01*
X48300Y87275D02*
Y88050D01*
X100450Y62550D02*
X102900D01*
X93850Y32175D02*
X95500D01*
X93850Y34575D02*
X95550D01*
X89780Y63425D02*
X91650D01*
X90400Y72675D02*
X91325D01*
X92950D01*
X71000Y41700D02*
X71025Y41725D01*
X57800Y103375D02*
X60700D01*
X60900Y103575D01*
X57875Y105575D02*
X60900D01*
X48825Y92525D02*
X48850Y92500D01*
X44625Y89550D02*
X45700Y88475D01*
X24625Y78810D02*
X27610D01*
X20275Y46725D02*
X20275Y46725D01*
X89425Y19175D02*
X89675Y19425D01*
X95350Y73625D02*
Y75225D01*
X85950Y20400D02*
X87175Y19175D01*
X53225Y63950D02*
X55057D01*
X48850Y91200D02*
Y92500D01*
X22300Y57900D02*
Y59925D01*
X20275Y57875D02*
Y60100D01*
X22275Y57875D02*
X22300Y57900D01*
X104900Y54550D02*
X105800Y53650D01*
X58877Y61652D02*
Y63940D01*
X48830Y92570D02*
Y95175D01*
X20275Y46725D02*
Y49875D01*
X102925Y50450D02*
X105800D01*
X94225Y67375D02*
X96125D01*
X71025Y41725D02*
X73950D01*
X45700Y88475D02*
X47875D01*
X96125Y67375D02*
X97450Y68700D01*
X65075Y44050D02*
X66475Y42650D01*
X65075Y44050D02*
Y48850D01*
X95325Y76650D02*
Y79470D01*
X95355Y79500D01*
X101975Y71325D02*
Y73725D01*
Y69250D02*
Y71325D01*
X76850Y86075D02*
X76900Y86025D01*
X76850Y86075D02*
Y87500D01*
X76125Y89675D02*
Y90475D01*
Y89675D02*
X76850Y88950D01*
X78350Y90450D02*
X78650Y90750D01*
Y92050D01*
X78350Y87500D02*
Y88950D01*
Y90450D01*
X97450Y68700D02*
Y71800D01*
X78650Y92050D02*
Y93750D01*
D47*
X76200Y48075D02*
X81075Y43200D01*
X71450Y48075D02*
X76200D01*
X79275Y51200D02*
X80775Y49700D01*
X80775Y47100D02*
Y48300D01*
X69975Y51500D02*
X70275Y51200D01*
X69975Y51500D02*
Y51800D01*
X81075Y43100D02*
Y43200D01*
X80775Y48300D02*
X82200D01*
X70275Y51200D02*
X79275D01*
D48*
X74362Y69340D02*
Y73063D01*
X73700Y73725D02*
X74362Y73063D01*
X55825Y73475D02*
X56362Y72938D01*
D49*
X71400Y73725D02*
X73700D01*
X55400Y73475D02*
X55825D01*
X53850D02*
X55400D01*
X52600Y72225D02*
X53850Y73475D01*
X69125Y73725D02*
X71400D01*
X67000Y71600D02*
X69125Y73725D01*
X96650Y23625D02*
X96725Y23700D01*
X97675Y21625D02*
Y23625D01*
X95675Y21625D02*
Y23625D01*
X96650D01*
X97675D01*
X95925D02*
Y26275D01*
Y32600D01*
X47560Y100075D02*
X48830D01*
D50*
X75632Y69140D02*
Y75682D01*
X57675Y71275D02*
Y75525D01*
X56362Y69365D02*
Y72938D01*
X94775Y83075D02*
Y84400D01*
X92815Y81115D02*
X94775Y83075D01*
X95925Y34200D02*
Y36300D01*
X88435Y66710D02*
Y68400D01*
X75632Y75682D02*
X75650Y75700D01*
X27610Y81350D02*
Y82620D01*
X104900Y60550D02*
Y62550D01*
X102900Y50425D02*
Y54550D01*
X91545Y79500D02*
X92815D01*
X80725Y97800D02*
X83025D01*
X45020Y95175D02*
X46290D01*
X27525Y81335D02*
X29265D01*
X88775Y23625D02*
X89675D01*
X83025Y97800D02*
X84400Y96425D01*
X29265Y81335D02*
X30525Y80075D01*
X20275Y49875D02*
Y51875D01*
X92815Y79500D02*
Y81115D01*
X46290Y95175D02*
Y97040D01*
X32425Y78795D02*
Y80065D01*
X26375Y54200D02*
X26775Y53800D01*
X102900Y60550D02*
X104900D01*
X102900Y62550D02*
X104900D01*
X88435Y68400D02*
X89705D01*
X46290Y97040D02*
X47560Y98310D01*
X31425Y71700D02*
X32425Y72700D01*
X30525Y80075D02*
X32415D01*
X93500Y38725D02*
X95925Y36300D01*
X85950Y20800D02*
X88775Y23625D01*
X104625Y26975D02*
Y29450D01*
X104600Y29475D02*
X104625Y29450D01*
X106875Y26975D02*
Y27750D01*
X106600Y28025D02*
X106875Y27750D01*
X106600Y28025D02*
Y29475D01*
X104625Y33400D02*
Y36750D01*
Y33400D02*
X104650Y33375D01*
X106900D02*
Y34925D01*
X106625Y35200D02*
X106900Y34925D01*
X106625Y35200D02*
Y36750D01*
X91625Y50025D02*
X92525Y50925D01*
X86625Y64040D02*
Y64900D01*
X88435Y66710D01*
X47560Y98310D02*
Y100075D01*
X22275Y49875D02*
Y51875D01*
D51*
X57675Y69208D02*
Y71275D01*
D52*
X50075Y18650D02*
X50875Y17850D01*
X50075Y18650D02*
Y34150D01*
X50075Y34150D01*
X50875Y17850D02*
X63575D01*
X67000Y44650D02*
Y64725D01*
D53*
X25075Y100875D02*
X32375D01*
X27600Y94240D02*
X27775Y94415D01*
Y98250D01*
D54*
X67000Y42650D02*
X68125D01*
X71787Y38987D01*
D55*
X104625Y38750D02*
D03*
Y36750D02*
D03*
X106625Y38750D02*
D03*
Y36750D02*
D03*
X53100Y23000D02*
D03*
Y21000D02*
D03*
X55100Y23000D02*
D03*
Y21000D02*
D03*
X57100Y23000D02*
D03*
Y21000D02*
D03*
X59100Y23000D02*
D03*
Y21000D02*
D03*
X61100Y23000D02*
D03*
Y21000D02*
D03*
X20400Y39025D02*
D03*
X22400D02*
D03*
X20400Y37025D02*
D03*
X22400D02*
D03*
X20400Y35025D02*
D03*
X22400D02*
D03*
X20400Y33025D02*
D03*
X22400D02*
D03*
X20400Y31025D02*
D03*
X22400D02*
D03*
X27600Y89160D02*
D03*
Y91700D02*
D03*
Y94240D02*
D03*
X89675Y21625D02*
D03*
Y23625D02*
D03*
X91675Y21625D02*
D03*
Y23625D02*
D03*
X93675Y21625D02*
D03*
Y23625D02*
D03*
X95675Y21625D02*
D03*
Y23625D02*
D03*
X97675Y21625D02*
D03*
Y23625D02*
D03*
X104600Y31475D02*
D03*
Y29475D02*
D03*
X106600Y31475D02*
D03*
Y29475D02*
D03*
X27775Y98250D02*
D03*
Y100775D02*
D03*
X46500Y22975D02*
D03*
Y20975D02*
D03*
X44500Y22975D02*
D03*
Y20975D02*
D03*
X42500Y22975D02*
D03*
Y20975D02*
D03*
X40500Y22975D02*
D03*
Y20975D02*
D03*
X38500Y22975D02*
D03*
Y20975D02*
D03*
X32725Y22575D02*
D03*
Y20575D02*
D03*
X30725Y22575D02*
D03*
Y20575D02*
D03*
X28725Y22575D02*
D03*
Y20575D02*
D03*
X26725Y22575D02*
D03*
Y20575D02*
D03*
X24725Y22575D02*
D03*
Y20575D02*
D03*
X20275Y49875D02*
D03*
Y51875D02*
D03*
Y55875D02*
D03*
X22275Y51875D02*
D03*
X20275Y53875D02*
D03*
X22275Y49875D02*
D03*
Y53875D02*
D03*
X20275Y57875D02*
D03*
X22275Y55875D02*
D03*
Y57875D02*
D03*
X104900Y54550D02*
D03*
X102900D02*
D03*
X104900Y56550D02*
D03*
X102900D02*
D03*
X104900Y58550D02*
D03*
X102900D02*
D03*
X104900Y60550D02*
D03*
X102900D02*
D03*
X104900Y62550D02*
D03*
X102900D02*
D03*
X34400Y104325D02*
D03*
X36925D02*
D03*
X81250Y58500D02*
D03*
Y80900D02*
D03*
X49750D02*
D03*
Y58500D02*
D03*
X68900Y105575D02*
D03*
Y103575D02*
D03*
X66900Y105575D02*
D03*
Y103575D02*
D03*
X64900Y105575D02*
D03*
Y103575D02*
D03*
X62900Y105575D02*
D03*
Y103575D02*
D03*
X60900Y105575D02*
D03*
Y103575D02*
D03*
X21850Y89150D02*
D03*
Y91150D02*
D03*
X19850Y89150D02*
D03*
Y91150D02*
D03*
D56*
X85950Y103100D02*
D03*
X42125Y103875D02*
D03*
D57*
X104350Y21325D02*
D03*
X104325Y104350D02*
D03*
X21300Y104350D02*
D03*
X18775Y25525D02*
D03*
D58*
X76125Y19825D02*
D03*
X74875D02*
D03*
X73625D02*
D03*
X72375D02*
D03*
X71125D02*
D03*
X68625D02*
D03*
X67375D02*
D03*
D59*
X69875D02*
D03*
D60*
X50675Y37500D02*
D03*
X49650D02*
D03*
X46875Y37475D02*
D03*
X47825Y37500D02*
D03*
X45925D02*
D03*
X48700D02*
D03*
X39825Y36300D02*
D03*
X88825Y77225D02*
D03*
X84400Y85600D02*
D03*
X95450Y56425D02*
D03*
X88750Y61200D02*
D03*
X71450Y48075D02*
D03*
X60025Y72150D02*
D03*
X71350Y72575D02*
D03*
X26475Y30525D02*
D03*
X41000Y52225D02*
D03*
X45475Y50550D02*
D03*
X46025Y63975D02*
D03*
X48650Y72225D02*
D03*
X51025Y44550D02*
D03*
X47800Y45150D02*
D03*
X64175Y35325D02*
D03*
X69150Y45425D02*
D03*
X27550Y31300D02*
D03*
X77725Y39800D02*
D03*
X75150Y41825D02*
D03*
X63775Y28500D02*
D03*
X19325Y87550D02*
D03*
X61975Y40200D02*
D03*
X62300Y46375D02*
D03*
X37525Y61200D02*
D03*
X76325Y29325D02*
D03*
X105800Y46600D02*
D03*
X89900Y33375D02*
D03*
X75100Y78875D02*
D03*
X74200Y80050D02*
D03*
X98675Y44175D02*
D03*
X73450Y21250D02*
D03*
X66675Y37900D02*
D03*
X71600Y70100D02*
D03*
X86775Y75100D02*
D03*
X59125Y17850D02*
D03*
X81550Y105900D02*
D03*
X106950Y91050D02*
D03*
X98425Y94575D02*
D03*
X91700Y29500D02*
D03*
X57225Y54275D02*
D03*
X39300Y66325D02*
D03*
X34750Y73275D02*
D03*
X27975Y69875D02*
D03*
X38775Y58150D02*
D03*
X32350Y64025D02*
D03*
X48050Y48325D02*
D03*
X67675Y36625D02*
D03*
X83775Y25625D02*
D03*
X86300Y26650D02*
D03*
X67550Y40925D02*
D03*
X65900Y25125D02*
D03*
X73300Y25725D02*
D03*
X95450Y51225D02*
D03*
X95475Y58800D02*
D03*
X74425Y49700D02*
D03*
X73425Y52500D02*
D03*
X87975Y55175D02*
D03*
X82700Y44175D02*
D03*
X88125Y47000D02*
D03*
X69150Y49775D02*
D03*
X76075Y52500D02*
D03*
X76000Y60025D02*
D03*
X64250Y72600D02*
D03*
X57725Y60575D02*
D03*
X64775Y67875D02*
D03*
X73950Y41725D02*
D03*
X55400Y73475D02*
D03*
X81750Y22350D02*
D03*
X91325Y70200D02*
D03*
X38675Y85900D02*
D03*
X36525Y48125D02*
D03*
X44625Y89550D02*
D03*
X76125Y90475D02*
D03*
X90100Y71950D02*
D03*
X99075Y42950D02*
D03*
X94175Y69950D02*
D03*
X21225Y83625D02*
D03*
X72175Y47100D02*
D03*
X38825Y96750D02*
D03*
X85000Y41575D02*
D03*
X70675Y87225D02*
D03*
X19325Y19400D02*
D03*
X87175Y43800D02*
D03*
X88125Y20675D02*
D03*
X102600Y34200D02*
D03*
X64125Y24300D02*
D03*
X55400Y85250D02*
D03*
X56825Y81325D02*
D03*
X75075Y85950D02*
D03*
X63625Y88725D02*
D03*
X90600Y101975D02*
D03*
X89750Y89850D02*
D03*
X17825Y42000D02*
D03*
X59300Y45075D02*
D03*
X70800Y26950D02*
D03*
X83825Y36375D02*
D03*
X76325Y32150D02*
D03*
X79900D02*
D03*
Y29300D02*
D03*
X100100Y53425D02*
D03*
X99350Y66650D02*
D03*
X97125Y63750D02*
D03*
X77175Y72275D02*
D03*
X86225Y76750D02*
D03*
X85450Y71525D02*
D03*
X81375Y65350D02*
D03*
X46025Y92025D02*
D03*
X50425Y92925D02*
D03*
X30000Y75475D02*
D03*
X28325Y77050D02*
D03*
X53700Y69600D02*
D03*
X81075Y43100D02*
D03*
X80775Y47100D02*
D03*
X69975Y51800D02*
D03*
X57425Y66900D02*
D03*
X58400D02*
D03*
X56500D02*
D03*
X55575D02*
D03*
X68250Y30875D02*
D03*
X36475Y30075D02*
D03*
X34875Y34175D02*
D03*
X29500Y42350D02*
D03*
X25475Y35075D02*
D03*
X71300Y23975D02*
D03*
X81750Y40700D02*
D03*
X69990Y34010D02*
D03*
X97350Y30550D02*
D03*
X65075Y48850D02*
D03*
X68500Y55550D02*
D03*
X59275Y71150D02*
D03*
X77350Y71025D02*
D03*
X88075Y32775D02*
D03*
X86900Y32550D02*
D03*
X101975Y73725D02*
D03*
X76900Y86025D02*
D03*
X31475Y43400D02*
D03*
X35000Y62900D02*
D03*
X27050Y48775D02*
D03*
X97450Y71800D02*
D03*
X63575Y17850D02*
D03*
X62400D02*
D03*
X61325D02*
D03*
X60275D02*
D03*
X70250Y40450D02*
D03*
X71787Y38987D02*
D03*
X71025Y39700D02*
D03*
X93125Y36725D02*
D03*
X35750Y26300D02*
D03*
X48225Y27250D02*
D03*
X33325Y48300D02*
D03*
X52925Y55825D02*
D03*
X33050Y45525D02*
D03*
X34225Y45550D02*
D03*
X35425Y45525D02*
D03*
X36775D02*
D03*
X68450Y21725D02*
D03*
X74500Y66850D02*
D03*
X73650Y66825D02*
D03*
X75350Y66850D02*
D03*
X76175D02*
D03*
%TF.MD5,7bf0cb0611e0666b2f74a634670c4578*%
M02*
