%TF.GenerationSoftware,Altium Limited,Altium Designer,18.1.7 (191)*%
G04 Layer_Color=16711935*
%FSLAX43Y43*%
%MOMM*%
%TF.FileFunction,Soldermask,Bot*%
%TF.Part,Single*%
G01*
G75*
%TA.AperFunction,SMDPad,CuDef*%
%ADD76O,2.303X0.503*%
%ADD77O,0.503X2.303*%
%ADD78R,0.903X1.103*%
%ADD79R,1.653X0.803*%
%ADD80R,1.603X1.303*%
%ADD81R,0.803X1.653*%
%ADD82R,1.103X0.903*%
%ADD83R,1.303X1.603*%
%ADD84R,1.303X0.853*%
%ADD85R,1.003X1.103*%
%ADD86R,1.103X1.003*%
%TA.AperFunction,ComponentPad*%
%ADD87C,1.727*%
%TA.AperFunction,ViaPad*%
%ADD88C,2.203*%
%ADD89C,3.203*%
%TA.AperFunction,ComponentPad*%
%ADD90C,1.153*%
%ADD91C,1.103*%
%TA.AperFunction,ViaPad*%
%ADD92C,1.103*%
D76*
X83950Y34350D02*
D03*
Y34850D02*
D03*
Y33350D02*
D03*
Y33850D02*
D03*
Y31350D02*
D03*
Y31850D02*
D03*
Y30850D02*
D03*
Y32850D02*
D03*
Y32350D02*
D03*
Y29850D02*
D03*
Y30350D02*
D03*
Y27850D02*
D03*
Y28350D02*
D03*
Y27350D02*
D03*
Y29350D02*
D03*
Y28850D02*
D03*
X72750Y34850D02*
D03*
Y34350D02*
D03*
Y32350D02*
D03*
Y32850D02*
D03*
Y31850D02*
D03*
Y33850D02*
D03*
Y33350D02*
D03*
Y29850D02*
D03*
Y30350D02*
D03*
Y29350D02*
D03*
Y31350D02*
D03*
Y30850D02*
D03*
Y28850D02*
D03*
Y28350D02*
D03*
Y27850D02*
D03*
Y27350D02*
D03*
D77*
X82100Y36700D02*
D03*
X81600D02*
D03*
X80600D02*
D03*
X80100D02*
D03*
X81100D02*
D03*
X79100D02*
D03*
X79600D02*
D03*
X78600D02*
D03*
X78100D02*
D03*
X77600D02*
D03*
X79100Y25500D02*
D03*
X78600D02*
D03*
X79600D02*
D03*
X77600D02*
D03*
X78100D02*
D03*
X81600D02*
D03*
X81100D02*
D03*
X82100D02*
D03*
X80100D02*
D03*
X80600D02*
D03*
X76600Y36700D02*
D03*
X76100D02*
D03*
X77100D02*
D03*
X74600D02*
D03*
X75600D02*
D03*
X75100D02*
D03*
X76600Y25500D02*
D03*
X77100D02*
D03*
X75600D02*
D03*
X75100D02*
D03*
X76100D02*
D03*
X74600D02*
D03*
D78*
X30775Y38950D02*
D03*
X32275D02*
D03*
X60100Y40250D02*
D03*
X58600D02*
D03*
X34925Y38700D02*
D03*
X36425D02*
D03*
X95025Y29300D02*
D03*
X96525D02*
D03*
X50625Y101575D02*
D03*
X49125D02*
D03*
X30275Y86300D02*
D03*
X28775D02*
D03*
X27500Y86325D02*
D03*
X26000D02*
D03*
X95050Y34525D02*
D03*
X96550D02*
D03*
X51900Y101575D02*
D03*
X53400D02*
D03*
X95075Y28075D02*
D03*
X96575D02*
D03*
X60750Y80800D02*
D03*
X59250D02*
D03*
X62025Y78500D02*
D03*
X63525D02*
D03*
X68475Y24175D02*
D03*
X69975D02*
D03*
X98950Y75200D02*
D03*
X100450D02*
D03*
X98950Y73725D02*
D03*
X100450D02*
D03*
X30100Y49975D02*
D03*
X28600D02*
D03*
X102300Y41800D02*
D03*
X100800D02*
D03*
D79*
X29875Y37750D02*
D03*
Y35850D02*
D03*
X27525Y36800D02*
D03*
X29875Y33950D02*
D03*
Y32050D02*
D03*
X27525Y33000D02*
D03*
X101425Y31625D02*
D03*
X99075Y32575D02*
D03*
Y30675D02*
D03*
X100675Y39375D02*
D03*
X98325Y40325D02*
D03*
Y38425D02*
D03*
X57550Y102525D02*
D03*
X55200Y103475D02*
D03*
Y101575D02*
D03*
X66700Y58300D02*
D03*
X69050Y57350D02*
D03*
Y59250D02*
D03*
X100675Y35450D02*
D03*
X98325Y36400D02*
D03*
Y34500D02*
D03*
X101425Y27775D02*
D03*
X99075Y28725D02*
D03*
Y26825D02*
D03*
D80*
X24975Y32850D02*
D03*
Y31350D02*
D03*
X37075Y32325D02*
D03*
Y33825D02*
D03*
D81*
X45300Y30325D02*
D03*
X47200D02*
D03*
X46250Y27975D02*
D03*
X60050Y29800D02*
D03*
X61950D02*
D03*
X61000Y27450D02*
D03*
X27725Y29575D02*
D03*
X29625D02*
D03*
X28675Y27225D02*
D03*
X41525Y30200D02*
D03*
X43425D02*
D03*
X42475Y27850D02*
D03*
X20300Y61125D02*
D03*
X21250Y63475D02*
D03*
X19350D02*
D03*
X56350Y29800D02*
D03*
X58250D02*
D03*
X57300Y27450D02*
D03*
X31500Y29575D02*
D03*
X33400D02*
D03*
X32450Y27225D02*
D03*
D82*
X38375Y28600D02*
D03*
Y30100D02*
D03*
X65075Y27925D02*
D03*
Y26425D02*
D03*
X26850Y40475D02*
D03*
Y38975D02*
D03*
X95050Y35750D02*
D03*
Y37250D02*
D03*
X17500Y55675D02*
D03*
Y54175D02*
D03*
X25475Y38325D02*
D03*
Y39825D02*
D03*
X17600Y60825D02*
D03*
Y62325D02*
D03*
X27050Y46150D02*
D03*
Y47650D02*
D03*
X100800Y44750D02*
D03*
Y43250D02*
D03*
D83*
X62775Y25500D02*
D03*
X61275D02*
D03*
X27025Y25075D02*
D03*
X28525D02*
D03*
X40750Y25550D02*
D03*
X42250D02*
D03*
D84*
X60750Y59375D02*
D03*
Y57475D02*
D03*
X63150D02*
D03*
Y58425D02*
D03*
Y59375D02*
D03*
X61975Y81950D02*
D03*
Y80050D02*
D03*
X64375D02*
D03*
Y81000D02*
D03*
Y81950D02*
D03*
D85*
X82600Y38625D02*
D03*
X84000D02*
D03*
X60200Y37050D02*
D03*
X61600D02*
D03*
X72275Y60700D02*
D03*
X70875D02*
D03*
X85650Y35950D02*
D03*
X87050D02*
D03*
X90050Y35825D02*
D03*
X88650D02*
D03*
X63200Y37175D02*
D03*
X64600D02*
D03*
X68875Y35625D02*
D03*
X70275D02*
D03*
X71475Y25500D02*
D03*
X70075D02*
D03*
X70150Y38550D02*
D03*
X68750D02*
D03*
X72900Y37150D02*
D03*
X71500D02*
D03*
D86*
X65225Y34700D02*
D03*
Y33300D02*
D03*
X72725Y80125D02*
D03*
Y78725D02*
D03*
X58450Y59225D02*
D03*
Y57825D02*
D03*
X64875Y57600D02*
D03*
Y59000D02*
D03*
X66275Y81300D02*
D03*
Y79900D02*
D03*
D87*
X104625Y38750D02*
D03*
Y36750D02*
D03*
X106625Y38750D02*
D03*
Y36750D02*
D03*
X53100Y23000D02*
D03*
Y21000D02*
D03*
X55100Y23000D02*
D03*
Y21000D02*
D03*
X57100Y23000D02*
D03*
Y21000D02*
D03*
X59100Y23000D02*
D03*
Y21000D02*
D03*
X61100Y23000D02*
D03*
Y21000D02*
D03*
X20400Y39025D02*
D03*
X22400D02*
D03*
X20400Y37025D02*
D03*
X22400D02*
D03*
X20400Y35025D02*
D03*
X22400D02*
D03*
X20400Y33025D02*
D03*
X22400D02*
D03*
X20400Y31025D02*
D03*
X22400D02*
D03*
X27600Y89160D02*
D03*
Y91700D02*
D03*
Y94240D02*
D03*
X89675Y21625D02*
D03*
Y23625D02*
D03*
X91675Y21625D02*
D03*
Y23625D02*
D03*
X93675Y21625D02*
D03*
Y23625D02*
D03*
X95675Y21625D02*
D03*
Y23625D02*
D03*
X97675Y21625D02*
D03*
Y23625D02*
D03*
X104600Y31475D02*
D03*
Y29475D02*
D03*
X106600Y31475D02*
D03*
Y29475D02*
D03*
X27775Y98250D02*
D03*
Y100775D02*
D03*
X46500Y22975D02*
D03*
Y20975D02*
D03*
X44500Y22975D02*
D03*
Y20975D02*
D03*
X42500Y22975D02*
D03*
Y20975D02*
D03*
X40500Y22975D02*
D03*
Y20975D02*
D03*
X38500Y22975D02*
D03*
Y20975D02*
D03*
X32725Y22575D02*
D03*
Y20575D02*
D03*
X30725Y22575D02*
D03*
Y20575D02*
D03*
X28725Y22575D02*
D03*
Y20575D02*
D03*
X26725Y22575D02*
D03*
Y20575D02*
D03*
X24725Y22575D02*
D03*
Y20575D02*
D03*
X20275Y49875D02*
D03*
Y51875D02*
D03*
Y55875D02*
D03*
X22275Y51875D02*
D03*
X20275Y53875D02*
D03*
X22275Y49875D02*
D03*
Y53875D02*
D03*
X20275Y57875D02*
D03*
X22275Y55875D02*
D03*
Y57875D02*
D03*
X104900Y54550D02*
D03*
X102900D02*
D03*
X104900Y56550D02*
D03*
X102900D02*
D03*
X104900Y58550D02*
D03*
X102900D02*
D03*
X104900Y60550D02*
D03*
X102900D02*
D03*
X104900Y62550D02*
D03*
X102900D02*
D03*
X34400Y104325D02*
D03*
X36925D02*
D03*
X81250Y58500D02*
D03*
Y80900D02*
D03*
X49750D02*
D03*
Y58500D02*
D03*
X68900Y105575D02*
D03*
Y103575D02*
D03*
X66900Y105575D02*
D03*
Y103575D02*
D03*
X64900Y105575D02*
D03*
Y103575D02*
D03*
X62900Y105575D02*
D03*
Y103575D02*
D03*
X60900Y105575D02*
D03*
Y103575D02*
D03*
X21850Y89150D02*
D03*
Y91150D02*
D03*
X19850Y89150D02*
D03*
Y91150D02*
D03*
D88*
X85950Y103100D02*
D03*
X42125Y103875D02*
D03*
D89*
X104350Y21325D02*
D03*
X104325Y104350D02*
D03*
X21300Y104350D02*
D03*
X18775Y25525D02*
D03*
D90*
X76125Y19825D02*
D03*
X74875D02*
D03*
X73625D02*
D03*
X72375D02*
D03*
X71125D02*
D03*
X68625D02*
D03*
X67375D02*
D03*
D91*
X69875D02*
D03*
D92*
X50675Y37500D02*
D03*
X49650D02*
D03*
X46875Y37475D02*
D03*
X47825Y37500D02*
D03*
X45925D02*
D03*
X48700D02*
D03*
X39825Y36300D02*
D03*
X88825Y77225D02*
D03*
X84400Y85600D02*
D03*
X95450Y56425D02*
D03*
X88750Y61200D02*
D03*
X71450Y48075D02*
D03*
X60025Y72150D02*
D03*
X71350Y72575D02*
D03*
X26475Y30525D02*
D03*
X41000Y52225D02*
D03*
X45475Y50550D02*
D03*
X46025Y63975D02*
D03*
X48650Y72225D02*
D03*
X51025Y44550D02*
D03*
X47800Y45150D02*
D03*
X64175Y35325D02*
D03*
X69150Y45425D02*
D03*
X27550Y31300D02*
D03*
X77725Y39800D02*
D03*
X75150Y41825D02*
D03*
X63775Y28500D02*
D03*
X19325Y87550D02*
D03*
X61975Y40200D02*
D03*
X62300Y46375D02*
D03*
X37525Y61200D02*
D03*
X76325Y29325D02*
D03*
X105800Y46600D02*
D03*
X89900Y33375D02*
D03*
X75100Y78875D02*
D03*
X74200Y80050D02*
D03*
X98675Y44175D02*
D03*
X73450Y21250D02*
D03*
X66675Y37900D02*
D03*
X71600Y70100D02*
D03*
X86775Y75100D02*
D03*
X59125Y17850D02*
D03*
X81550Y105900D02*
D03*
X106950Y91050D02*
D03*
X98425Y94575D02*
D03*
X91700Y29500D02*
D03*
X57225Y54275D02*
D03*
X39300Y66325D02*
D03*
X34750Y73275D02*
D03*
X27975Y69875D02*
D03*
X38775Y58150D02*
D03*
X32350Y64025D02*
D03*
X48050Y48325D02*
D03*
X67675Y36625D02*
D03*
X83775Y25625D02*
D03*
X86300Y26650D02*
D03*
X67550Y40925D02*
D03*
X65900Y25125D02*
D03*
X73300Y25725D02*
D03*
X95450Y51225D02*
D03*
X95475Y58800D02*
D03*
X74425Y49700D02*
D03*
X73425Y52500D02*
D03*
X87975Y55175D02*
D03*
X82700Y44175D02*
D03*
X88125Y47000D02*
D03*
X69150Y49775D02*
D03*
X76075Y52500D02*
D03*
X76000Y60025D02*
D03*
X64250Y72600D02*
D03*
X57725Y60575D02*
D03*
X64775Y67875D02*
D03*
X73950Y41725D02*
D03*
X55400Y73475D02*
D03*
X81750Y22350D02*
D03*
X91325Y70200D02*
D03*
X38675Y85900D02*
D03*
X36525Y48125D02*
D03*
X44625Y89550D02*
D03*
X76125Y90475D02*
D03*
X90100Y71950D02*
D03*
X99075Y42950D02*
D03*
X94175Y69950D02*
D03*
X21225Y83625D02*
D03*
X72175Y47100D02*
D03*
X38825Y96750D02*
D03*
X85000Y41575D02*
D03*
X70675Y87225D02*
D03*
X19325Y19400D02*
D03*
X87175Y43800D02*
D03*
X88125Y20675D02*
D03*
X102600Y34200D02*
D03*
X64125Y24300D02*
D03*
X55400Y85250D02*
D03*
X56825Y81325D02*
D03*
X75075Y85950D02*
D03*
X63625Y88725D02*
D03*
X90600Y101975D02*
D03*
X89750Y89850D02*
D03*
X17825Y42000D02*
D03*
X59300Y45075D02*
D03*
X70800Y26950D02*
D03*
X83825Y36375D02*
D03*
X76325Y32150D02*
D03*
X79900D02*
D03*
Y29300D02*
D03*
X100100Y53425D02*
D03*
X99350Y66650D02*
D03*
X97125Y63750D02*
D03*
X77175Y72275D02*
D03*
X86225Y76750D02*
D03*
X85450Y71525D02*
D03*
X81375Y65350D02*
D03*
X46025Y92025D02*
D03*
X50425Y92925D02*
D03*
X30000Y75475D02*
D03*
X28325Y77050D02*
D03*
X53700Y69600D02*
D03*
X81075Y43100D02*
D03*
X80775Y47100D02*
D03*
X69975Y51800D02*
D03*
X57425Y66900D02*
D03*
X58400D02*
D03*
X56500D02*
D03*
X55575D02*
D03*
X68250Y30875D02*
D03*
X36475Y30075D02*
D03*
X34875Y34175D02*
D03*
X29500Y42350D02*
D03*
X25475Y35075D02*
D03*
X71300Y23975D02*
D03*
X81750Y40700D02*
D03*
X69990Y34010D02*
D03*
X97350Y30550D02*
D03*
X65075Y48850D02*
D03*
X68500Y55550D02*
D03*
X59275Y71150D02*
D03*
X77350Y71025D02*
D03*
X88075Y32775D02*
D03*
X86900Y32550D02*
D03*
X101975Y73725D02*
D03*
X76900Y86025D02*
D03*
X31475Y43400D02*
D03*
X35000Y62900D02*
D03*
X27050Y48775D02*
D03*
X97450Y71800D02*
D03*
X63575Y17850D02*
D03*
X62400D02*
D03*
X61325D02*
D03*
X60275D02*
D03*
X70250Y40450D02*
D03*
X71787Y38987D02*
D03*
X71025Y39700D02*
D03*
X93125Y36725D02*
D03*
X35750Y26300D02*
D03*
X48225Y27250D02*
D03*
X33325Y48300D02*
D03*
X52925Y55825D02*
D03*
X33050Y45525D02*
D03*
X34225Y45550D02*
D03*
X35425Y45525D02*
D03*
X36775D02*
D03*
X68450Y21725D02*
D03*
X74500Y66850D02*
D03*
X73650Y66825D02*
D03*
X75350Y66850D02*
D03*
X76175D02*
D03*
%TF.MD5,5698f990e1d4a646c159d0738c403087*%
M02*
