%TF.GenerationSoftware,Altium Limited,Altium Designer,18.1.7 (191)*%
G04 Layer_Physical_Order=1*
G04 Layer_Color=255*
%FSLAX43Y43*%
%MOMM*%
%TF.FileFunction,Copper,L1,Top,Signal*%
%TF.Part,Single*%
G01*
G75*
%TA.AperFunction,NonConductor*%
%ADD10C,0.254*%
%TA.AperFunction,SMDPad,CuDef*%
%ADD11R,3.300X8.200*%
%ADD12R,3.300X3.700*%
%ADD13R,1.700X1.100*%
%ADD14R,8.200X3.300*%
%ADD15R,1.450X0.600*%
%ADD16R,0.900X0.700*%
%ADD17R,4.000X1.750*%
%ADD18O,0.700X1.700*%
%ADD19R,0.600X1.450*%
%ADD20R,0.650X1.100*%
%ADD21R,1.100X1.400*%
%ADD22R,1.950X1.900*%
%ADD23R,0.700X0.900*%
%ADD24R,0.900X0.800*%
%ADD25R,0.800X0.900*%
%ADD26O,0.700X2.500*%
%ADD27O,2.500X0.700*%
%ADD28R,1.100X0.650*%
%ADD29R,3.700X3.300*%
%ADD30R,1.400X1.100*%
%ADD31R,1.100X2.600*%
%ADD32R,1.500X2.800*%
%ADD33R,2.800X1.500*%
%ADD34R,1.600X2.200*%
%ADD35R,2.200X1.600*%
%ADD36R,0.850X0.450*%
%ADD37R,1.100X1.700*%
G04:AMPARAMS|DCode=38|XSize=1.7mm|YSize=1.1mm|CornerRadius=0mm|HoleSize=0mm|Usage=FLASHONLY|Rotation=45.000|XOffset=0mm|YOffset=0mm|HoleType=Round|Shape=Rectangle|*
%AMROTATEDRECTD38*
4,1,4,-0.212,-0.990,-0.990,-0.212,0.212,0.990,0.990,0.212,-0.212,-0.990,0.0*
%
%ADD38ROTATEDRECTD38*%

%ADD39R,2.600X1.100*%
%TA.AperFunction,Conductor*%
%ADD40C,1.000*%
%ADD41C,0.500*%
%ADD42C,0.800*%
%ADD43C,0.300*%
%ADD44C,1.700*%
%ADD45C,1.500*%
%ADD46C,1.800*%
%ADD47C,0.305*%
%ADD48C,2.500*%
%ADD49C,2.000*%
%ADD50C,1.600*%
%ADD51C,1.200*%
%ADD52C,0.900*%
%ADD53C,1.100*%
%TA.AperFunction,ViaPad*%
%ADD54C,3.000*%
%TA.AperFunction,ComponentPad*%
%ADD55C,1.524*%
%ADD56C,0.950*%
%ADD57C,0.900*%
%TA.AperFunction,ViaPad*%
%ADD58C,0.900*%
G36*
X11325Y91523D02*
X11487Y91132D01*
X11586Y90721D01*
X11619Y90300D01*
X11586Y89879D01*
X11487Y89467D01*
X11325Y89077D01*
X11105Y88716D01*
X10830Y88395D01*
X10509Y88120D01*
X10148Y87900D01*
X9757Y87738D01*
X9346Y87639D01*
X8925Y87606D01*
X8504Y87639D01*
X8092Y87738D01*
X7702Y87900D01*
X7341Y88120D01*
X7020Y88395D01*
X6746Y88716D01*
X6525Y89077D01*
X6363Y89467D01*
X6264Y89879D01*
X6231Y90300D01*
X6264Y90721D01*
X6363Y91132D01*
X6525Y91523D01*
X6724Y91848D01*
X7954D01*
X7985Y91725D01*
X7976Y91720D01*
X7717Y91508D01*
X7505Y91249D01*
X7347Y90954D01*
X7250Y90633D01*
X7217Y90300D01*
X7250Y89967D01*
X7347Y89646D01*
X7505Y89351D01*
X7717Y89092D01*
X7976Y88880D01*
X8271Y88722D01*
X8592Y88625D01*
X8925Y88592D01*
X9258Y88625D01*
X9579Y88722D01*
X9874Y88880D01*
X10133Y89092D01*
X10345Y89351D01*
X10503Y89646D01*
X10600Y89967D01*
X10633Y90300D01*
X10600Y90633D01*
X10503Y90954D01*
X10345Y91249D01*
X10133Y91508D01*
X9874Y91720D01*
X9865Y91725D01*
X9896Y91848D01*
X11126D01*
X11325Y91523D01*
D02*
G37*
G36*
X92500Y0D02*
X0D01*
Y81028D01*
X32Y81051D01*
X127Y81076D01*
X919Y80284D01*
X1027Y80212D01*
X1155Y80187D01*
X2011D01*
X2139Y80212D01*
X2247Y80284D01*
X5640Y83677D01*
X5651Y83680D01*
X5759Y83752D01*
X5831Y83860D01*
X5857Y83988D01*
X5852Y84028D01*
X5852Y84028D01*
X5842Y84152D01*
X5707Y84714D01*
X5485Y85249D01*
X5183Y85742D01*
X4807Y86182D01*
X4367Y86558D01*
X3874Y86860D01*
X3339Y87082D01*
X2777Y87217D01*
X2200Y87262D01*
X1623Y87217D01*
X1061Y87082D01*
X526Y86860D01*
X261Y86698D01*
X261Y86698D01*
X198Y86656D01*
X160Y86599D01*
X127Y86577D01*
X39Y86605D01*
X0Y86633D01*
Y92500D01*
X6225D01*
X6248Y92477D01*
X6284Y92398D01*
X6287Y92373D01*
X6204Y92277D01*
X5929Y91827D01*
X5727Y91339D01*
X5604Y90826D01*
X5562Y90300D01*
X5604Y89774D01*
X5727Y89261D01*
X5929Y88773D01*
X6204Y88323D01*
X6547Y87922D01*
X6948Y87579D01*
X7398Y87304D01*
X7886Y87102D01*
X8399Y86979D01*
X8925Y86937D01*
X9451Y86979D01*
X9964Y87102D01*
X10452Y87304D01*
X10902Y87579D01*
X11303Y87922D01*
X11646Y88323D01*
X11921Y88773D01*
X12123Y89261D01*
X12246Y89774D01*
X12288Y90300D01*
X12246Y90826D01*
X12123Y91339D01*
X11921Y91827D01*
X11646Y92277D01*
X11563Y92373D01*
X11573Y92423D01*
X11617Y92500D01*
X92500D01*
Y0D01*
D02*
G37*
G36*
X2672Y86556D02*
X3133Y86446D01*
X3570Y86265D01*
X3974Y86017D01*
X4334Y85709D01*
X4642Y85349D01*
X4890Y84945D01*
X5071Y84508D01*
X5159Y84139D01*
X3891Y82871D01*
X3843Y82893D01*
X3785Y82945D01*
X3875Y83242D01*
X3908Y83575D01*
X3875Y83908D01*
X3778Y84229D01*
X3620Y84524D01*
X3408Y84783D01*
X3149Y84995D01*
X2854Y85153D01*
X2533Y85250D01*
X2200Y85283D01*
X1867Y85250D01*
X1546Y85153D01*
X1251Y84995D01*
X992Y84783D01*
X799Y84547D01*
X672Y84573D01*
Y86168D01*
X830Y86265D01*
X1267Y86446D01*
X1728Y86556D01*
X2200Y86594D01*
X2672Y86556D01*
D02*
G37*
G36*
X992Y82367D02*
X1251Y82155D01*
X1546Y81997D01*
X1867Y81900D01*
X2200Y81867D01*
X2533Y81900D01*
X2830Y81990D01*
X2882Y81932D01*
X2904Y81884D01*
X1873Y80854D01*
X1293D01*
X672Y81475D01*
Y82577D01*
X799Y82603D01*
X992Y82367D01*
D02*
G37*
%LPC*%
G36*
X70475Y89249D02*
X70383Y89237D01*
X68567D01*
X68475Y89249D01*
X68383Y89237D01*
X66084D01*
X65836Y89204D01*
X65605Y89109D01*
X65407Y88956D01*
X63997Y87547D01*
X63845Y87349D01*
X63749Y87118D01*
X63717Y86870D01*
Y82122D01*
X63472Y81878D01*
X63347Y81714D01*
X63230Y81691D01*
X63190Y81696D01*
X63150Y81740D01*
Y81850D01*
X63005D01*
X63003Y81853D01*
X62804Y82005D01*
X62573Y82101D01*
X62325Y82133D01*
X60425D01*
Y83600D01*
X56725D01*
Y75000D01*
X60425D01*
Y80217D01*
X62193D01*
Y79673D01*
X62095Y79575D01*
X61325D01*
Y78525D01*
X62825D01*
Y79307D01*
X62880Y79388D01*
X62907Y79525D01*
Y80424D01*
X63003Y80497D01*
X63043Y80550D01*
X63150D01*
Y80690D01*
X63155Y80696D01*
X63179Y80755D01*
X63306Y80755D01*
X63320Y80721D01*
X63472Y80522D01*
X63671Y80370D01*
X63793Y80320D01*
Y79575D01*
X63725D01*
Y78525D01*
X65225D01*
Y79575D01*
X64507D01*
Y80320D01*
X64629Y80370D01*
X64790Y80494D01*
X66158D01*
X67175Y79477D01*
Y79275D01*
X67392D01*
X67472Y79214D01*
X67642Y79143D01*
X67825Y79119D01*
X68008Y79143D01*
X68178Y79214D01*
X68258Y79275D01*
X68475D01*
Y79565D01*
X68507Y79642D01*
X68531Y79825D01*
X68507Y80008D01*
X68475Y80085D01*
Y80375D01*
X68273D01*
X66949Y81699D01*
X66803Y81811D01*
X66633Y81882D01*
X66450Y81906D01*
X65633D01*
Y85321D01*
X68383D01*
X68475Y85308D01*
X68567Y85321D01*
X70383D01*
X70475Y85308D01*
X70726Y85342D01*
X70960Y85438D01*
X71161Y85593D01*
X71315Y85794D01*
X71412Y86028D01*
X71445Y86279D01*
X71412Y86530D01*
X71315Y86764D01*
X71161Y86965D01*
X70960Y87119D01*
X70726Y87216D01*
Y87342D01*
X70960Y87438D01*
X71161Y87593D01*
X71315Y87794D01*
X71412Y88028D01*
X71445Y88279D01*
X71412Y88530D01*
X71315Y88764D01*
X71161Y88965D01*
X70960Y89119D01*
X70726Y89216D01*
X70475Y89249D01*
D02*
G37*
G36*
X55200Y91556D02*
X19500D01*
X19317Y91532D01*
X19147Y91461D01*
X19001Y91349D01*
X17326Y89674D01*
X17214Y89528D01*
X17143Y89358D01*
X17119Y89175D01*
Y88696D01*
X16969Y88581D01*
X16777Y88330D01*
X16656Y88038D01*
X16615Y87725D01*
Y86801D01*
X15198Y85384D01*
X8500D01*
X8213Y85347D01*
X7945Y85236D01*
X7715Y85060D01*
X7539Y84830D01*
X7428Y84562D01*
X7428Y84558D01*
X4597Y81728D01*
X4445Y81529D01*
X4349Y81298D01*
X4317Y81050D01*
Y74642D01*
X4305Y74550D01*
X4338Y74299D01*
X4435Y74065D01*
X4589Y73864D01*
X4790Y73710D01*
X5024Y73613D01*
Y73487D01*
X4790Y73390D01*
X4589Y73236D01*
X4435Y73035D01*
X4338Y72801D01*
X4212D01*
X4115Y73035D01*
X3961Y73236D01*
X3760Y73390D01*
X3526Y73487D01*
X3275Y73520D01*
X3024Y73487D01*
X2790Y73390D01*
X2589Y73236D01*
X2435Y73035D01*
X2338Y72801D01*
X2305Y72550D01*
X2338Y72299D01*
X2435Y72065D01*
X2589Y71864D01*
X2763Y71730D01*
X2756Y71665D01*
X2738Y71617D01*
X2731Y71603D01*
X2580Y71583D01*
X2422Y71518D01*
X2286Y71414D01*
X2182Y71278D01*
X2117Y71120D01*
X2094Y70950D01*
X2117Y70780D01*
X2182Y70622D01*
X2286Y70486D01*
X2422Y70382D01*
X2580Y70317D01*
X2750Y70294D01*
X2920Y70317D01*
X3078Y70382D01*
X3187Y70466D01*
X6510D01*
X6641Y70335D01*
Y70150D01*
X6500D01*
Y68850D01*
X6641D01*
Y68500D01*
X5600D01*
Y68107D01*
X5375D01*
X5238Y68080D01*
X5123Y68002D01*
X4783Y67663D01*
X4650Y67681D01*
X4480Y67658D01*
X4322Y67593D01*
X4202Y67501D01*
X4140Y67515D01*
X4075Y67552D01*
Y67575D01*
X2775D01*
Y66475D01*
X4075D01*
Y66498D01*
X4140Y66535D01*
X4202Y66549D01*
X4322Y66457D01*
X4480Y66392D01*
X4650Y66369D01*
X4820Y66392D01*
X4978Y66457D01*
X5114Y66561D01*
X5218Y66697D01*
X5283Y66855D01*
X5306Y67025D01*
X5288Y67158D01*
X5473Y67343D01*
X5600Y67291D01*
Y67000D01*
X8550D01*
Y68500D01*
X7559D01*
Y68850D01*
X7700D01*
Y70150D01*
X7559D01*
Y70525D01*
X7524Y70701D01*
X7424Y70849D01*
X7024Y71249D01*
X6876Y71349D01*
X6700Y71384D01*
X3236D01*
X3214Y71414D01*
X3141Y71469D01*
X3191Y71591D01*
X3275Y71580D01*
X3526Y71613D01*
X3760Y71710D01*
X3961Y71864D01*
X4115Y72065D01*
X4212Y72299D01*
X4338D01*
X4435Y72065D01*
X4589Y71864D01*
X4790Y71710D01*
X5024Y71613D01*
X5275Y71580D01*
X5367Y71592D01*
X7325D01*
X7573Y71624D01*
X7804Y71720D01*
X8003Y71872D01*
X8378Y72247D01*
X8530Y72446D01*
X8626Y72677D01*
X8658Y72925D01*
Y79278D01*
X9964Y80583D01*
X10091Y80531D01*
Y78229D01*
X10064Y78195D01*
X9953Y77927D01*
X9915Y77640D01*
X9953Y77353D01*
X10064Y77085D01*
X10240Y76855D01*
X10470Y76679D01*
X10738Y76568D01*
X11025Y76531D01*
X11312Y76568D01*
X11580Y76679D01*
X11810Y76855D01*
X11985Y77030D01*
X12161Y77260D01*
X12272Y77528D01*
X12309Y77815D01*
Y80591D01*
X16929D01*
X17177Y80624D01*
X17408Y80720D01*
X17606Y80872D01*
X19126Y82392D01*
X20437D01*
X20685Y82424D01*
X20916Y82520D01*
X21114Y82672D01*
X23247Y84805D01*
X25938D01*
X26186Y84838D01*
X26417Y84933D01*
X26616Y85086D01*
X28597Y87067D01*
X43775D01*
X44023Y87099D01*
X44254Y87195D01*
X44453Y87347D01*
X44605Y87546D01*
X44701Y87777D01*
X44733Y88025D01*
X44701Y88273D01*
X44605Y88504D01*
X44453Y88703D01*
X44254Y88855D01*
X44023Y88951D01*
X43775Y88983D01*
X28200D01*
X27952Y88951D01*
X27721Y88855D01*
X27522Y88703D01*
X25541Y86721D01*
X22850D01*
X22602Y86689D01*
X22371Y86593D01*
X22172Y86441D01*
X20040Y84308D01*
X18729D01*
X18481Y84276D01*
X18250Y84180D01*
X18052Y84028D01*
X16532Y82508D01*
X11612D01*
X11448Y82576D01*
X11200Y82608D01*
X11100Y82595D01*
X11000Y82608D01*
X9675D01*
X9427Y82576D01*
X9196Y82480D01*
X8997Y82328D01*
X7022Y80353D01*
X6870Y80154D01*
X6774Y79923D01*
X6742Y79675D01*
Y73508D01*
X5606D01*
X5580Y73635D01*
X5760Y73710D01*
X5961Y73864D01*
X6115Y74065D01*
X6212Y74299D01*
X6245Y74550D01*
X6233Y74642D01*
Y80653D01*
X8746Y83165D01*
X15343D01*
X15487Y83106D01*
X15800Y83065D01*
X16113Y83106D01*
X16405Y83227D01*
X16656Y83419D01*
X18681Y85444D01*
X18873Y85695D01*
X18873Y85695D01*
X18994Y85987D01*
X19035Y86300D01*
Y87725D01*
X18994Y88038D01*
X18873Y88330D01*
X18681Y88581D01*
X18531Y88696D01*
Y88883D01*
X19792Y90144D01*
X46326D01*
X46364Y90017D01*
X46301Y89974D01*
X45651Y89324D01*
X45551Y89176D01*
X45516Y89000D01*
Y87490D01*
X44860Y86834D01*
X43950D01*
X43774Y86799D01*
X43626Y86699D01*
X43306Y86380D01*
X43300Y86381D01*
X43130Y86358D01*
X42972Y86293D01*
X42836Y86189D01*
X42732Y86053D01*
X42667Y85895D01*
X42644Y85725D01*
X42667Y85555D01*
X42732Y85397D01*
X42836Y85261D01*
X42972Y85157D01*
X43130Y85092D01*
X43300Y85069D01*
X43470Y85092D01*
X43628Y85157D01*
X43764Y85261D01*
X43868Y85397D01*
X43933Y85555D01*
X43956Y85725D01*
X43955Y85731D01*
X44140Y85916D01*
X45050D01*
X45226Y85951D01*
X45374Y86051D01*
X46299Y86976D01*
X46399Y87124D01*
X46434Y87300D01*
Y88810D01*
X46815Y89191D01*
X50385D01*
X50899Y88677D01*
X50888Y88651D01*
X50855Y88400D01*
X50888Y88149D01*
X50985Y87915D01*
X51139Y87714D01*
X51340Y87560D01*
X51574Y87463D01*
Y87337D01*
X51340Y87240D01*
X51139Y87086D01*
X50985Y86885D01*
X50888Y86651D01*
X50762D01*
X50665Y86885D01*
X50511Y87086D01*
X50310Y87240D01*
X50076Y87337D01*
X49825Y87370D01*
X49574Y87337D01*
X49340Y87240D01*
X49139Y87086D01*
X48985Y86885D01*
X48888Y86651D01*
X48762D01*
X48665Y86885D01*
X48511Y87086D01*
X48310Y87240D01*
X48076Y87337D01*
X47825Y87370D01*
X47574Y87337D01*
X47340Y87240D01*
X47139Y87086D01*
X46985Y86885D01*
X46888Y86651D01*
X46855Y86400D01*
X46888Y86149D01*
X46985Y85915D01*
X47139Y85714D01*
X47340Y85560D01*
X47366Y85549D01*
X47401Y85374D01*
X47501Y85226D01*
X49195Y83531D01*
X49194Y83525D01*
X49217Y83355D01*
X49282Y83197D01*
X49386Y83061D01*
X49522Y82957D01*
X49680Y82892D01*
X49850Y82869D01*
X50020Y82892D01*
X50178Y82957D01*
X50314Y83061D01*
X50418Y83197D01*
X50483Y83355D01*
X50506Y83525D01*
X50483Y83695D01*
X50418Y83853D01*
X50314Y83989D01*
X50178Y84093D01*
X50020Y84158D01*
X49850Y84181D01*
X49844Y84180D01*
X48465Y85558D01*
X48474Y85685D01*
X48511Y85714D01*
X48665Y85915D01*
X48762Y86149D01*
X48888D01*
X48985Y85915D01*
X49139Y85714D01*
X49340Y85560D01*
X49574Y85463D01*
X49825Y85430D01*
X50076Y85463D01*
X50310Y85560D01*
X50511Y85714D01*
X50665Y85915D01*
X50709Y86019D01*
X50850Y86028D01*
X50851Y86026D01*
X50850Y86022D01*
X50816Y85850D01*
Y82840D01*
X50492Y82516D01*
X48908D01*
X47505Y83919D01*
X47506Y83925D01*
X47483Y84095D01*
X47418Y84253D01*
X47314Y84389D01*
X47178Y84493D01*
X47020Y84558D01*
X46850Y84581D01*
X46680Y84558D01*
X46522Y84493D01*
X46386Y84389D01*
X46282Y84253D01*
X46217Y84095D01*
X46194Y83925D01*
X46217Y83755D01*
X46282Y83597D01*
X46386Y83461D01*
X46522Y83357D01*
X46680Y83292D01*
X46850Y83269D01*
X46856Y83270D01*
X48394Y81733D01*
X48542Y81633D01*
X48718Y81598D01*
X50682D01*
X50858Y81633D01*
X51006Y81733D01*
X51599Y82326D01*
X51699Y82474D01*
X51734Y82650D01*
Y85350D01*
X51825Y85430D01*
X52076Y85463D01*
X52310Y85560D01*
X52511Y85714D01*
X52665Y85915D01*
X52762Y86149D01*
X52888D01*
X52985Y85915D01*
X53139Y85714D01*
X53340Y85560D01*
X53574Y85463D01*
X53825Y85430D01*
X54076Y85463D01*
X54310Y85560D01*
X54511Y85714D01*
X54665Y85915D01*
X54762Y86149D01*
X54888D01*
X54985Y85915D01*
X55139Y85714D01*
X55340Y85560D01*
X55574Y85463D01*
X55825Y85430D01*
X56076Y85463D01*
X56310Y85560D01*
X56511Y85714D01*
X56665Y85915D01*
X56762Y86149D01*
X56795Y86400D01*
X56762Y86651D01*
X56665Y86885D01*
X56511Y87086D01*
X56310Y87240D01*
X56076Y87337D01*
Y87463D01*
X56310Y87560D01*
X56511Y87714D01*
X56665Y87915D01*
X56762Y88149D01*
X56795Y88400D01*
X56762Y88651D01*
X56665Y88885D01*
X56531Y89060D01*
Y90225D01*
X56507Y90408D01*
X56436Y90578D01*
X56324Y90724D01*
X55699Y91349D01*
X55553Y91461D01*
X55383Y91532D01*
X55200Y91556D01*
D02*
G37*
G36*
X87750Y91130D02*
X87221Y91089D01*
X86705Y90965D01*
X86215Y90762D01*
X85763Y90485D01*
X85360Y90140D01*
X85015Y89737D01*
X84738Y89285D01*
X84535Y88795D01*
X84411Y88279D01*
X84370Y87750D01*
X84411Y87221D01*
X84535Y86705D01*
X84738Y86215D01*
X85015Y85763D01*
X85360Y85360D01*
X85763Y85015D01*
X86215Y84738D01*
X86705Y84535D01*
X87221Y84411D01*
X87750Y84370D01*
X88279Y84411D01*
X88795Y84535D01*
X89285Y84738D01*
X89737Y85015D01*
X90140Y85360D01*
X90485Y85763D01*
X90762Y86215D01*
X90965Y86705D01*
X91089Y87221D01*
X91130Y87750D01*
X91089Y88279D01*
X90965Y88795D01*
X90762Y89285D01*
X90485Y89737D01*
X90140Y90140D01*
X89737Y90485D01*
X89285Y90762D01*
X88795Y90965D01*
X88279Y91089D01*
X87750Y91130D01*
D02*
G37*
G36*
X32255Y84936D02*
X32040Y84893D01*
X31858Y84772D01*
X31737Y84590D01*
X31694Y84375D01*
Y84282D01*
X31546D01*
Y84375D01*
X31503Y84590D01*
X31382Y84772D01*
X31200Y84893D01*
X30985Y84936D01*
X30770Y84893D01*
X30588Y84772D01*
X30467Y84590D01*
X30424Y84375D01*
Y84157D01*
X30403Y84142D01*
X30276Y84207D01*
Y84375D01*
X30233Y84590D01*
X30111Y84772D01*
X29930Y84893D01*
X29715Y84936D01*
X29500Y84893D01*
X29318Y84772D01*
X29197Y84590D01*
X29166Y84433D01*
X28994D01*
X28963Y84590D01*
X28841Y84772D01*
X28660Y84893D01*
X28445Y84936D01*
X28230Y84893D01*
X28048Y84772D01*
X27927Y84590D01*
X27911Y84508D01*
X24775D01*
X24775Y84508D01*
X24775Y84508D01*
X24664Y84494D01*
X24527Y84476D01*
X24527Y84476D01*
X24527Y84476D01*
X24404Y84424D01*
X24296Y84380D01*
X24296Y84380D01*
X24296Y84380D01*
X24185Y84295D01*
X24097Y84228D01*
X24097Y84228D01*
X24097Y84228D01*
X24058Y84188D01*
X23912Y84169D01*
X23620Y84048D01*
X23369Y83856D01*
X23177Y83605D01*
X23056Y83313D01*
X23015Y83000D01*
Y80295D01*
X22888Y80286D01*
X22883Y80320D01*
X22818Y80478D01*
X22714Y80614D01*
X22578Y80718D01*
X22420Y80783D01*
X22250Y80806D01*
X22154Y80793D01*
X22137Y80805D01*
X22137Y80805D01*
X22137Y80805D01*
X22061Y80820D01*
X22000Y80832D01*
X21400D01*
Y81100D01*
X20100D01*
Y80000D01*
X20100D01*
X20125Y79975D01*
Y78475D01*
X21175D01*
Y79975D01*
X21292Y80000D01*
X21400D01*
Y80118D01*
X21599D01*
X21617Y79980D01*
X21682Y79822D01*
X21786Y79686D01*
X21922Y79582D01*
X22080Y79517D01*
X22250Y79494D01*
X22420Y79517D01*
X22578Y79582D01*
X22714Y79686D01*
X22818Y79822D01*
X22883Y79980D01*
X22888Y80014D01*
X23015Y80005D01*
Y76159D01*
X21175D01*
Y77575D01*
X20125D01*
Y77182D01*
X19275D01*
Y77575D01*
X18225D01*
Y76390D01*
X18098Y76314D01*
X18057Y76336D01*
Y78027D01*
X18505Y78475D01*
X19275D01*
Y79975D01*
X18225D01*
Y79205D01*
X17448Y78427D01*
X17370Y78312D01*
X17343Y78175D01*
Y76310D01*
X11025D01*
X10712Y76269D01*
X10420Y76148D01*
X10169Y75956D01*
X9977Y75705D01*
X9856Y75413D01*
X9815Y75100D01*
X9856Y74787D01*
X9977Y74495D01*
X10169Y74244D01*
X10420Y74052D01*
X10712Y73931D01*
X11025Y73890D01*
X17700D01*
X18013Y73931D01*
X18119Y73975D01*
X18225Y73904D01*
Y72600D01*
X19275D01*
Y72993D01*
X20125D01*
Y72600D01*
X21175D01*
Y74041D01*
X21318D01*
Y72073D01*
X20945Y71700D01*
X20125D01*
Y70200D01*
X21175D01*
Y70920D01*
X21927Y71673D01*
X22005Y71788D01*
X22032Y71925D01*
Y74041D01*
X23015D01*
Y66258D01*
X17317D01*
X17222Y66402D01*
X17040Y66523D01*
X16825Y66566D01*
X16377D01*
X16233Y66626D01*
X15985Y66658D01*
X15737Y66626D01*
X15593Y66566D01*
X15025D01*
X14810Y66523D01*
X14628Y66402D01*
X14507Y66220D01*
X14464Y66005D01*
X14507Y65790D01*
X14628Y65608D01*
X14810Y65487D01*
X15025Y65444D01*
X15027D01*
Y65296D01*
X15025D01*
X14810Y65253D01*
X14628Y65132D01*
X14507Y64950D01*
X14464Y64735D01*
X14507Y64520D01*
X14628Y64338D01*
X14674Y64308D01*
X14635Y64181D01*
X14242D01*
X13189Y65234D01*
X13043Y65346D01*
X12873Y65417D01*
X12690Y65441D01*
X12300D01*
X12261Y65568D01*
X12322Y65608D01*
X12443Y65790D01*
X12486Y66005D01*
X12443Y66220D01*
X12322Y66402D01*
X12140Y66523D01*
X11925Y66566D01*
X11474D01*
X11388Y66631D01*
X11218Y66702D01*
X11035Y66726D01*
X10852Y66702D01*
X10682Y66631D01*
X10596Y66566D01*
X10125D01*
X9910Y66523D01*
X9728Y66402D01*
X9607Y66220D01*
X9564Y66005D01*
X9607Y65790D01*
X9728Y65608D01*
X9910Y65487D01*
X10125Y65444D01*
X10329D01*
Y65296D01*
X10125D01*
X9910Y65253D01*
X9728Y65132D01*
X9607Y64950D01*
X9564Y64735D01*
X9607Y64520D01*
X9728Y64338D01*
X9910Y64217D01*
X10125Y64174D01*
X10531D01*
X10597Y64124D01*
X10767Y64053D01*
X10950Y64029D01*
X12398D01*
X13451Y62976D01*
X13597Y62864D01*
X13767Y62793D01*
X13950Y62769D01*
X14665D01*
X14704Y62642D01*
X14628Y62592D01*
X14507Y62410D01*
X14464Y62195D01*
X14507Y61980D01*
X14628Y61798D01*
X14810Y61677D01*
X14892Y61661D01*
Y57125D01*
X13150D01*
Y53025D01*
X16850D01*
Y57125D01*
X16808D01*
Y61634D01*
X16825D01*
X17040Y61677D01*
X17222Y61798D01*
X17343Y61980D01*
X17386Y62195D01*
X17343Y62410D01*
X17222Y62592D01*
X17040Y62713D01*
X16825Y62756D01*
X16732D01*
X16718Y62777D01*
X16789Y62904D01*
X16825D01*
X17040Y62947D01*
X17222Y63068D01*
X17343Y63250D01*
X17386Y63465D01*
X17343Y63680D01*
X17222Y63862D01*
X17040Y63983D01*
X16825Y64026D01*
X16520D01*
X16465Y64153D01*
X16485Y64174D01*
X16825D01*
X17040Y64217D01*
X17222Y64338D01*
X17224Y64342D01*
X23015D01*
Y59825D01*
X23056Y59512D01*
X23159Y59263D01*
X18173Y54277D01*
X18095Y54162D01*
X18068Y54025D01*
Y46845D01*
X17961Y46764D01*
X17857Y46628D01*
X17792Y46470D01*
X17769Y46300D01*
X17792Y46130D01*
X17857Y45972D01*
X17961Y45836D01*
X18097Y45732D01*
X18255Y45667D01*
X18425Y45644D01*
X18595Y45667D01*
X18753Y45732D01*
X18889Y45836D01*
X18993Y45972D01*
X19058Y46130D01*
X19081Y46300D01*
X19058Y46470D01*
X18993Y46628D01*
X18889Y46764D01*
X18782Y46845D01*
Y53877D01*
X23622Y58717D01*
X24094Y58244D01*
X24345Y58052D01*
X24637Y57931D01*
X24950Y57890D01*
X40394D01*
Y56980D01*
X40267Y56928D01*
X39972Y57223D01*
X39949Y57278D01*
X39821Y57446D01*
X39653Y57574D01*
X39459Y57654D01*
X39250Y57682D01*
X37275D01*
X37066Y57654D01*
X36872Y57574D01*
X36704Y57446D01*
X36109Y56850D01*
X35150D01*
Y54250D01*
X37150D01*
Y55609D01*
X37609Y56068D01*
X38987D01*
X39081Y55974D01*
Y52765D01*
X39105Y52583D01*
X39176Y52412D01*
X39226Y52346D01*
Y52265D01*
X39269Y52051D01*
X39390Y51869D01*
X39572Y51747D01*
X39787Y51705D01*
X40002Y51747D01*
X40184Y51869D01*
X40305Y52051D01*
X40344Y52247D01*
X40402Y52274D01*
X40506Y52215D01*
X40539Y52051D01*
X40660Y51869D01*
X40842Y51747D01*
X41057Y51705D01*
X41272Y51747D01*
X41454Y51869D01*
X41575Y52051D01*
X41604Y52198D01*
X41643Y52249D01*
X41767Y52226D01*
X41775Y52222D01*
X41809Y52051D01*
X41930Y51869D01*
X42112Y51747D01*
X42327Y51705D01*
X42542Y51747D01*
X42724Y51869D01*
X42845Y52051D01*
X42888Y52265D01*
Y52409D01*
X43650D01*
Y52150D01*
X44950D01*
Y53350D01*
X43650D01*
Y53122D01*
X42888D01*
Y53265D01*
X42845Y53480D01*
X42724Y53662D01*
X42542Y53784D01*
X42327Y53826D01*
X42112Y53784D01*
X41930Y53662D01*
X41883Y53590D01*
X41756Y53629D01*
Y53900D01*
X41887D01*
Y56000D01*
X41806D01*
Y57890D01*
X45418D01*
Y52073D01*
X44520Y51175D01*
X43575D01*
Y50075D01*
X43879D01*
X43898Y50048D01*
X44013Y49970D01*
X44150Y49943D01*
X44287Y49970D01*
X44402Y50048D01*
X44430Y50075D01*
X44875D01*
Y50520D01*
X46027Y51673D01*
X46105Y51788D01*
X46132Y51925D01*
Y57890D01*
X52024D01*
X52039Y57868D01*
X52067Y57763D01*
X51979Y57696D01*
X50209Y55925D01*
X49125D01*
Y53925D01*
X51725D01*
Y55159D01*
X52884Y56318D01*
X54076D01*
X54161Y56191D01*
X54142Y56145D01*
X54119Y55975D01*
X54142Y55805D01*
X54207Y55647D01*
X54311Y55511D01*
X54447Y55407D01*
X54605Y55342D01*
X54775Y55319D01*
X54945Y55342D01*
X55103Y55407D01*
X55239Y55511D01*
X55343Y55647D01*
X55408Y55805D01*
X55431Y55975D01*
X55408Y56145D01*
X55389Y56191D01*
X55474Y56318D01*
X56862D01*
X57031Y56150D01*
Y52740D01*
X57056Y52545D01*
X57132Y52362D01*
X57227Y52239D01*
X57269Y52026D01*
X57390Y51844D01*
X57572Y51722D01*
X57787Y51680D01*
X58002Y51722D01*
X58184Y51844D01*
X58305Y52026D01*
X58328Y52140D01*
X58382Y52162D01*
X58462Y52166D01*
X58528Y52080D01*
X58539Y52026D01*
X58660Y51844D01*
X58842Y51722D01*
X59057Y51680D01*
X59272Y51722D01*
X59454Y51844D01*
X59575Y52026D01*
X59586Y52080D01*
X59652Y52166D01*
X59732Y52162D01*
X59786Y52140D01*
X59809Y52026D01*
X59930Y51844D01*
X60112Y51722D01*
X60327Y51680D01*
X60542Y51722D01*
X60724Y51844D01*
X60845Y52026D01*
X60888Y52240D01*
Y52384D01*
X61500D01*
Y52175D01*
X62800D01*
Y53375D01*
X61500D01*
Y53097D01*
X60888D01*
Y53240D01*
X60845Y53455D01*
X60724Y53637D01*
X60703Y53651D01*
X60749Y53773D01*
X60775Y53769D01*
X60945Y53792D01*
X61103Y53857D01*
X61181Y53917D01*
X61288Y53845D01*
X61425Y53818D01*
X61500D01*
Y53575D01*
X62800D01*
Y54775D01*
X61500D01*
Y54775D01*
X61381Y54755D01*
X61343Y54753D01*
X61239Y54889D01*
X61103Y54993D01*
X60945Y55058D01*
X60775Y55081D01*
X60605Y55058D01*
X60447Y54993D01*
X60311Y54889D01*
X60207Y54753D01*
X60142Y54595D01*
X60119Y54425D01*
X60142Y54255D01*
X60207Y54097D01*
X60311Y53961D01*
X60360Y53924D01*
X60337Y53839D01*
X60315Y53799D01*
X60112Y53759D01*
X59930Y53637D01*
X59890Y53576D01*
X59763Y53615D01*
Y54075D01*
X59850D01*
Y56175D01*
X59850D01*
X59855Y56300D01*
X59925D01*
Y57890D01*
X64017D01*
Y53450D01*
X64049Y53202D01*
X64100Y53080D01*
X62545Y51525D01*
X61300D01*
Y50425D01*
X62600D01*
Y50604D01*
X62702Y50673D01*
X64550Y52520D01*
X65623Y51447D01*
X65526Y51349D01*
X65426Y51201D01*
X65391Y51025D01*
Y45250D01*
X65426Y45074D01*
X65526Y44926D01*
X70926Y39526D01*
X71074Y39426D01*
X71250Y39391D01*
X78389D01*
X78411Y39361D01*
X78547Y39257D01*
X78705Y39192D01*
X78875Y39169D01*
X79045Y39192D01*
X79203Y39257D01*
X79339Y39361D01*
X79443Y39497D01*
X79508Y39655D01*
X79531Y39825D01*
X79508Y39995D01*
X79443Y40153D01*
X79339Y40289D01*
X79203Y40393D01*
X79045Y40458D01*
X78875Y40481D01*
X78705Y40458D01*
X78547Y40393D01*
X78438Y40309D01*
X71440D01*
X66309Y45440D01*
Y50765D01*
X66325Y50791D01*
X66361Y50820D01*
X66475Y50850D01*
X66600Y50845D01*
X66625Y50842D01*
X68771D01*
X68802Y50685D01*
X68923Y50503D01*
X69105Y50382D01*
X69320Y50339D01*
X69535Y50382D01*
X69716Y50503D01*
X69838Y50685D01*
X69869Y50842D01*
X70041D01*
X70072Y50685D01*
X70193Y50503D01*
X70375Y50382D01*
X70590Y50339D01*
X70805Y50382D01*
X70987Y50503D01*
X71027Y50564D01*
X71154Y50525D01*
Y50402D01*
X69551Y48799D01*
X69439Y48653D01*
X69368Y48483D01*
X69368Y48481D01*
X69320Y48361D01*
X69105Y48318D01*
X68923Y48197D01*
X68802Y48015D01*
X68759Y47800D01*
Y47282D01*
X68731Y47213D01*
X68690Y46900D01*
Y46162D01*
Y43950D01*
X68731Y43637D01*
X68852Y43345D01*
X69044Y43094D01*
X69295Y42902D01*
X69587Y42781D01*
X69733Y42762D01*
X70472Y42022D01*
X70671Y41870D01*
X70902Y41774D01*
X71150Y41742D01*
X73450D01*
Y40850D01*
X77550D01*
Y44550D01*
X73450D01*
Y43658D01*
X71547D01*
X71110Y44095D01*
Y45797D01*
X71151Y46000D01*
Y47800D01*
X71108Y48015D01*
X70987Y48197D01*
X70983Y48234D01*
X72359Y49611D01*
X72419Y49688D01*
X72471Y49757D01*
X72542Y49927D01*
X72566Y50110D01*
Y50525D01*
X72693Y50564D01*
X72733Y50503D01*
X72915Y50382D01*
X73130Y50339D01*
X73345Y50382D01*
X73526Y50503D01*
X73648Y50685D01*
X73691Y50900D01*
Y51381D01*
X73741Y51447D01*
X73812Y51617D01*
X73836Y51800D01*
X73812Y51983D01*
X73741Y52153D01*
X73691Y52219D01*
Y52700D01*
X73648Y52915D01*
X73526Y53097D01*
X73345Y53218D01*
X73130Y53261D01*
X72915Y53218D01*
X72733Y53097D01*
X72612Y52915D01*
X72569Y52700D01*
Y52506D01*
X72421D01*
Y52700D01*
X72378Y52915D01*
X72257Y53097D01*
X72075Y53218D01*
X71860Y53261D01*
X71645Y53218D01*
X71463Y53097D01*
X71342Y52915D01*
X71299Y52700D01*
Y52318D01*
X71278Y52303D01*
X71151Y52368D01*
Y52700D01*
X71108Y52915D01*
X70987Y53097D01*
X70805Y53218D01*
X70590Y53261D01*
X70375Y53218D01*
X70193Y53097D01*
X70072Y52915D01*
X70041Y52758D01*
X69869D01*
X69838Y52915D01*
X69716Y53097D01*
X69535Y53218D01*
X69320Y53261D01*
X69105Y53218D01*
X68923Y53097D01*
X68802Y52915D01*
X68771Y52758D01*
X67022D01*
X65933Y53847D01*
Y58378D01*
X66023Y58495D01*
X66144Y58787D01*
X66178Y59041D01*
X69681Y62545D01*
X71595Y60631D01*
X71594Y60625D01*
X71617Y60455D01*
X71682Y60297D01*
X71786Y60161D01*
X71922Y60057D01*
X72080Y59992D01*
X72250Y59969D01*
X72420Y59992D01*
X72578Y60057D01*
X72714Y60161D01*
X72818Y60297D01*
X72883Y60455D01*
X72906Y60625D01*
X72883Y60795D01*
X72818Y60953D01*
X72714Y61089D01*
X72578Y61193D01*
X72420Y61258D01*
X72250Y61281D01*
X72244Y61280D01*
X70330Y63194D01*
X70681Y63544D01*
X70873Y63795D01*
X70994Y64087D01*
X71035Y64400D01*
Y66590D01*
X74516D01*
X74573Y66503D01*
X74755Y66382D01*
X74970Y66339D01*
X75185Y66382D01*
X75367Y66503D01*
X75424Y66590D01*
X75775D01*
X75785Y66591D01*
X75843Y66503D01*
X76025Y66382D01*
X76240Y66339D01*
X76455Y66382D01*
X76637Y66503D01*
X76758Y66685D01*
X76801Y66900D01*
Y67070D01*
X76822Y67087D01*
X76949Y67028D01*
Y66900D01*
X76992Y66685D01*
X77113Y66503D01*
X77124Y66397D01*
X75741Y65014D01*
X75629Y64868D01*
X75558Y64698D01*
X75534Y64515D01*
Y64175D01*
X75407Y64136D01*
X75367Y64197D01*
X75185Y64318D01*
X74970Y64361D01*
X74755Y64318D01*
X74573Y64197D01*
X74452Y64015D01*
X74409Y63800D01*
Y63319D01*
X74359Y63253D01*
X74288Y63083D01*
X74264Y62900D01*
X74288Y62717D01*
X74359Y62547D01*
X74409Y62481D01*
Y62000D01*
X74452Y61785D01*
X74573Y61603D01*
X74755Y61482D01*
X74970Y61439D01*
X75185Y61482D01*
X75367Y61603D01*
X75488Y61785D01*
X75531Y62000D01*
Y62194D01*
X75679D01*
Y62000D01*
X75722Y61785D01*
X75843Y61603D01*
X76025Y61482D01*
X76240Y61439D01*
X76455Y61482D01*
X76637Y61603D01*
X76758Y61785D01*
X76801Y62000D01*
Y62481D01*
X76851Y62547D01*
X76922Y62717D01*
X76946Y62900D01*
Y64223D01*
X78699Y65976D01*
X78811Y66122D01*
X78882Y66292D01*
X78891Y66361D01*
X78995Y66382D01*
X79177Y66503D01*
X79298Y66685D01*
X79341Y66900D01*
Y67418D01*
X79369Y67487D01*
X79410Y67800D01*
Y73475D01*
X79369Y73788D01*
X79248Y74080D01*
X79056Y74331D01*
X74267Y79120D01*
Y79794D01*
X70567D01*
Y75694D01*
X74267D01*
X74267Y75694D01*
Y75694D01*
X74353Y75610D01*
X76990Y72974D01*
Y68903D01*
X76949Y68700D01*
Y68572D01*
X76822Y68512D01*
X76801Y68530D01*
Y68700D01*
X76758Y68915D01*
X76637Y69097D01*
X76455Y69218D01*
X76240Y69261D01*
X76025Y69218D01*
X75843Y69097D01*
X75785Y69009D01*
X75775Y69010D01*
X75424D01*
X75367Y69097D01*
X75185Y69218D01*
X74970Y69261D01*
X74755Y69218D01*
X74573Y69097D01*
X74516Y69010D01*
X70500D01*
X70355Y68991D01*
X70187Y68969D01*
X70187Y68969D01*
X70187Y68969D01*
X70031Y68905D01*
X69895Y68848D01*
X69895Y68848D01*
X69895Y68848D01*
X69774Y68756D01*
X69644Y68656D01*
X69294Y68305D01*
X68463Y69136D01*
X68458Y69170D01*
X68393Y69328D01*
X68289Y69464D01*
X68153Y69568D01*
X67995Y69633D01*
X67825Y69656D01*
X67655Y69633D01*
X67497Y69568D01*
X67361Y69464D01*
X67257Y69328D01*
X67192Y69170D01*
X67169Y69000D01*
X67192Y68830D01*
X67257Y68672D01*
X67361Y68536D01*
X67497Y68432D01*
X67655Y68367D01*
X67825Y68344D01*
X67941Y68360D01*
X68716Y67585D01*
X68656Y67438D01*
X68656Y67438D01*
X68656Y67438D01*
X68638Y67305D01*
X68615Y67125D01*
X68615Y67125D01*
X68615Y67125D01*
Y64901D01*
X68294Y64581D01*
X64119Y60406D01*
X64046Y60310D01*
X25451D01*
X25435Y60326D01*
Y82592D01*
X27884D01*
Y82575D01*
X27927Y82360D01*
X28048Y82179D01*
X28230Y82057D01*
X28445Y82014D01*
X28660Y82057D01*
X28841Y82179D01*
X28963Y82360D01*
X28994Y82517D01*
X29166D01*
X29197Y82360D01*
X29318Y82179D01*
X29500Y82057D01*
X29715Y82014D01*
X29930Y82057D01*
X30111Y82179D01*
X30152Y82239D01*
X30279Y82201D01*
Y82002D01*
X29216Y80939D01*
X29104Y80793D01*
X29033Y80623D01*
X29009Y80440D01*
Y79850D01*
X28882Y79811D01*
X28841Y79872D01*
X28660Y79993D01*
X28445Y80036D01*
X28230Y79993D01*
X28048Y79872D01*
X27927Y79690D01*
X27884Y79475D01*
Y78994D01*
X27834Y78928D01*
X27763Y78758D01*
X27739Y78575D01*
X27763Y78392D01*
X27834Y78222D01*
X27884Y78156D01*
Y77675D01*
X27927Y77460D01*
X28048Y77278D01*
X28230Y77157D01*
X28445Y77114D01*
X28660Y77157D01*
X28841Y77278D01*
X28963Y77460D01*
X29006Y77675D01*
Y77869D01*
X29154D01*
Y77675D01*
X29197Y77460D01*
X29318Y77278D01*
X29500Y77157D01*
X29715Y77114D01*
X29930Y77157D01*
X30111Y77278D01*
X30233Y77460D01*
X30276Y77675D01*
Y78156D01*
X30326Y78222D01*
X30397Y78392D01*
X30421Y78575D01*
Y80148D01*
X31484Y81211D01*
X31596Y81357D01*
X31667Y81527D01*
X31691Y81710D01*
Y82201D01*
X31818Y82239D01*
X31858Y82179D01*
X32040Y82057D01*
X32255Y82014D01*
X32470Y82057D01*
X32652Y82179D01*
X32773Y82360D01*
X32804Y82517D01*
X33803D01*
X34342Y81978D01*
Y81475D01*
X33825D01*
Y77375D01*
X37525D01*
Y81475D01*
X36258D01*
Y82375D01*
X36236Y82545D01*
X36226Y82623D01*
X36226Y82623D01*
X36226Y82623D01*
X36173Y82749D01*
X36130Y82854D01*
X36130Y82854D01*
X36130Y82854D01*
X36071Y82931D01*
X35978Y83053D01*
X34878Y84153D01*
X34679Y84305D01*
X34679Y84305D01*
X34448Y84401D01*
X34448Y84401D01*
X34200Y84433D01*
X32804D01*
X32773Y84590D01*
X32652Y84772D01*
X32470Y84893D01*
X32255Y84936D01*
D02*
G37*
G36*
X55825Y83600D02*
X52125D01*
Y80260D01*
X45925D01*
Y81475D01*
X42225D01*
Y77375D01*
X45925D01*
Y77840D01*
X52125D01*
Y75000D01*
X55825D01*
Y83600D01*
D02*
G37*
G36*
X68475Y78875D02*
X67175D01*
Y77775D01*
X67468D01*
Y71548D01*
X58789Y62869D01*
X58695Y62908D01*
X58525Y62931D01*
X58355Y62908D01*
X58197Y62843D01*
X58061Y62739D01*
X57957Y62603D01*
X57892Y62445D01*
X57869Y62275D01*
X57892Y62105D01*
X57957Y61947D01*
X58061Y61811D01*
X58197Y61707D01*
X58355Y61642D01*
X58525Y61619D01*
X58695Y61642D01*
X58853Y61707D01*
X58989Y61811D01*
X59093Y61947D01*
X59158Y62105D01*
X59177Y62247D01*
X68077Y71148D01*
X68155Y71263D01*
X68182Y71400D01*
Y77775D01*
X68475D01*
Y77968D01*
X68650D01*
Y77775D01*
X69950D01*
Y78875D01*
X68650D01*
Y78682D01*
X68475D01*
Y78875D01*
D02*
G37*
G36*
X32255Y80036D02*
X32040Y79993D01*
X31858Y79872D01*
X31737Y79690D01*
X31694Y79475D01*
Y77675D01*
X31737Y77460D01*
X31796Y77372D01*
Y75970D01*
X31798Y75960D01*
X31791Y75925D01*
X31816Y75799D01*
Y75350D01*
X31725D01*
Y74050D01*
X32825D01*
Y75350D01*
X32734D01*
Y75900D01*
X32714Y76001D01*
Y77372D01*
X32773Y77460D01*
X32816Y77675D01*
Y79475D01*
X32773Y79690D01*
X32652Y79872D01*
X32470Y79993D01*
X32255Y80036D01*
D02*
G37*
G36*
X51050Y77606D02*
X50880Y77583D01*
X50722Y77518D01*
X50586Y77414D01*
X50482Y77278D01*
X50417Y77120D01*
X50394Y76950D01*
X50395Y76942D01*
X50301Y76801D01*
X50266Y76625D01*
Y74979D01*
X49046Y73759D01*
X43379D01*
X43320Y73783D01*
X43150Y73806D01*
X42980Y73783D01*
X42849Y73729D01*
X42824Y73724D01*
X42676Y73624D01*
X42576Y73476D01*
X42571Y73451D01*
X42517Y73320D01*
X42494Y73150D01*
X42517Y72980D01*
X42582Y72822D01*
X42686Y72686D01*
X42822Y72582D01*
X42980Y72517D01*
X43150Y72494D01*
X43320Y72517D01*
X43478Y72582D01*
X43614Y72686D01*
X43718Y72822D01*
X43726Y72841D01*
X49236D01*
X49412Y72876D01*
X49561Y72976D01*
X51049Y74464D01*
X51149Y74613D01*
X51184Y74789D01*
Y76312D01*
X51220Y76317D01*
X51378Y76382D01*
X51514Y76486D01*
X51618Y76622D01*
X51683Y76780D01*
X51706Y76950D01*
X51683Y77120D01*
X51618Y77278D01*
X51514Y77414D01*
X51378Y77518D01*
X51220Y77583D01*
X51050Y77606D01*
D02*
G37*
G36*
X56969Y74331D02*
X56800Y74308D01*
X56642Y74243D01*
X56506Y74139D01*
X56502Y74134D01*
X53375D01*
X53199Y74099D01*
X53051Y73999D01*
X51931Y72880D01*
X51925Y72881D01*
X51755Y72858D01*
X51597Y72793D01*
X51461Y72689D01*
X51357Y72553D01*
X51292Y72395D01*
X51269Y72225D01*
X51292Y72055D01*
X51357Y71897D01*
X51461Y71761D01*
X51597Y71657D01*
X51755Y71592D01*
X51925Y71569D01*
X52095Y71592D01*
X52253Y71657D01*
X52389Y71761D01*
X52493Y71897D01*
X52558Y72055D01*
X52581Y72225D01*
X52580Y72231D01*
X53565Y73216D01*
X56502D01*
X56506Y73211D01*
X56642Y73107D01*
X56800Y73042D01*
X56969Y73019D01*
X57139Y73042D01*
X57297Y73107D01*
X57433Y73211D01*
X57537Y73347D01*
X57603Y73505D01*
X57625Y73675D01*
X57603Y73845D01*
X57537Y74003D01*
X57433Y74139D01*
X57297Y74243D01*
X57139Y74308D01*
X56969Y74331D01*
D02*
G37*
G36*
X31325Y75350D02*
X30225D01*
Y74050D01*
X30266D01*
Y73850D01*
X30200D01*
X30200Y72350D01*
X30080Y72334D01*
X29625D01*
Y72525D01*
X29124D01*
X28705Y72944D01*
X28706Y72950D01*
X28683Y73120D01*
X28618Y73278D01*
X28514Y73414D01*
X28378Y73518D01*
X28220Y73583D01*
X28050Y73606D01*
X27880Y73583D01*
X27722Y73518D01*
X27586Y73414D01*
X27482Y73278D01*
X27417Y73120D01*
X27394Y72950D01*
X27417Y72780D01*
X27482Y72622D01*
X27586Y72486D01*
X27722Y72382D01*
X27880Y72317D01*
X28050Y72294D01*
X28056Y72295D01*
X28325Y72026D01*
Y71325D01*
X29625D01*
Y71416D01*
X30200D01*
Y69950D01*
X33150D01*
Y70343D01*
X36275D01*
Y70175D01*
X37575D01*
Y70343D01*
X53513D01*
X53532Y70297D01*
X53636Y70161D01*
X53772Y70057D01*
X53930Y69992D01*
X54100Y69969D01*
X54270Y69992D01*
X54428Y70057D01*
X54564Y70161D01*
X54668Y70297D01*
X54733Y70455D01*
X54756Y70625D01*
X54733Y70795D01*
X54668Y70953D01*
X54564Y71089D01*
X54428Y71193D01*
X54270Y71258D01*
X54100Y71281D01*
X53930Y71258D01*
X53772Y71193D01*
X53636Y71089D01*
X53612Y71057D01*
X37575D01*
Y71275D01*
X36275D01*
Y71057D01*
X33150D01*
Y71450D01*
X32184D01*
Y71450D01*
X32149Y71626D01*
X32049Y71774D01*
X31624Y72199D01*
X31476Y72299D01*
X31365Y72321D01*
X31298Y72338D01*
X31250Y72444D01*
Y73850D01*
X31184D01*
Y74050D01*
X31325D01*
Y75350D01*
D02*
G37*
G36*
X59550Y74531D02*
X59380Y74508D01*
X59222Y74443D01*
X59086Y74339D01*
X58982Y74203D01*
X58917Y74045D01*
X58894Y73875D01*
X58917Y73705D01*
X58982Y73547D01*
X59086Y73411D01*
X59091Y73408D01*
Y73075D01*
X59110Y72980D01*
X59126Y72899D01*
X59126Y72899D01*
X59126Y72899D01*
X59226Y72751D01*
X59226Y72751D01*
X59226Y72751D01*
X59725Y72251D01*
Y71700D01*
X60825D01*
Y73000D01*
X60274D01*
X60009Y73265D01*
Y73408D01*
X60014Y73411D01*
X60118Y73547D01*
X60183Y73705D01*
X60206Y73875D01*
X60183Y74045D01*
X60118Y74203D01*
X60014Y74339D01*
X59878Y74443D01*
X59720Y74508D01*
X59550Y74531D01*
D02*
G37*
G36*
X62825Y77675D02*
X61325D01*
Y76625D01*
X61616D01*
Y76100D01*
X61475D01*
Y74800D01*
X61616D01*
Y74340D01*
X61451Y74174D01*
X61351Y74026D01*
X61316Y73850D01*
Y73000D01*
X61225D01*
Y71700D01*
X61316D01*
Y71550D01*
X61225D01*
Y70250D01*
X62325D01*
Y71550D01*
X62234D01*
Y71700D01*
X62325D01*
Y73000D01*
X62234D01*
Y73660D01*
X62399Y73826D01*
X62499Y73974D01*
X62534Y74150D01*
Y74800D01*
X62675D01*
Y76100D01*
X62534D01*
Y76625D01*
X62825D01*
Y77675D01*
D02*
G37*
G36*
X60825Y71550D02*
X59725D01*
Y70250D01*
X59816D01*
Y69830D01*
X59757Y69753D01*
X59692Y69595D01*
X59669Y69425D01*
X59692Y69255D01*
X59757Y69097D01*
X59861Y68961D01*
X59997Y68857D01*
X60155Y68792D01*
X60325Y68769D01*
X60495Y68792D01*
X60653Y68857D01*
X60789Y68961D01*
X60893Y69097D01*
X60958Y69255D01*
X60981Y69425D01*
X60958Y69595D01*
X60893Y69753D01*
X60789Y69889D01*
X60734Y69931D01*
Y70250D01*
X60825D01*
Y71550D01*
D02*
G37*
G36*
X19275Y71700D02*
X18225D01*
Y70200D01*
X18393D01*
Y69725D01*
X18420Y69588D01*
X18498Y69473D01*
X18923Y69048D01*
X19038Y68970D01*
X19175Y68943D01*
X20225D01*
Y68725D01*
X21525D01*
Y68773D01*
X21590Y68810D01*
X21652Y68824D01*
X21772Y68732D01*
X21930Y68667D01*
X22100Y68644D01*
X22270Y68667D01*
X22428Y68732D01*
X22564Y68836D01*
X22668Y68972D01*
X22733Y69130D01*
X22756Y69300D01*
X22733Y69470D01*
X22668Y69628D01*
X22564Y69764D01*
X22428Y69868D01*
X22270Y69933D01*
X22100Y69956D01*
X21930Y69933D01*
X21772Y69868D01*
X21652Y69776D01*
X21635Y69780D01*
X21525Y69825D01*
X21525Y69825D01*
X21525Y69825D01*
X20225D01*
Y69657D01*
X19323D01*
X19107Y69873D01*
Y70200D01*
X19275D01*
Y71700D01*
D02*
G37*
G36*
X65225Y77675D02*
X63725D01*
Y76625D01*
X64168D01*
Y73675D01*
X63975D01*
Y72375D01*
X64168D01*
Y70498D01*
X57758Y64088D01*
X57625Y64106D01*
X57455Y64083D01*
X57297Y64018D01*
X57161Y63914D01*
X57057Y63778D01*
X56992Y63620D01*
X56969Y63450D01*
X56992Y63280D01*
X57057Y63122D01*
X57161Y62986D01*
X57297Y62882D01*
X57455Y62817D01*
X57625Y62794D01*
X57795Y62817D01*
X57953Y62882D01*
X58089Y62986D01*
X58193Y63122D01*
X58258Y63280D01*
X58281Y63450D01*
X58263Y63583D01*
X64777Y70098D01*
X64855Y70213D01*
X64882Y70350D01*
Y72375D01*
X65075D01*
Y73675D01*
X64882D01*
Y76625D01*
X65225D01*
Y77675D01*
D02*
G37*
G36*
X82667Y79794D02*
X78967D01*
Y75694D01*
X81787D01*
X82416Y75065D01*
Y72219D01*
X82453Y71932D01*
X82564Y71664D01*
X82740Y71434D01*
X84109Y70065D01*
X84339Y69889D01*
X84607Y69778D01*
X84844Y69747D01*
X84837Y69700D01*
Y67325D01*
X82025D01*
Y63625D01*
X90625D01*
Y67325D01*
X87762D01*
Y69700D01*
X87713Y70079D01*
X87567Y70431D01*
X87534Y70473D01*
X87572Y70563D01*
X87609Y70850D01*
X87572Y71137D01*
X87515Y71274D01*
Y71750D01*
X87134D01*
X87055Y71811D01*
X86787Y71922D01*
X86500Y71959D01*
X85353D01*
X84634Y72678D01*
Y75525D01*
X84597Y75812D01*
X84486Y76080D01*
X84310Y76310D01*
X82667Y77952D01*
Y79794D01*
D02*
G37*
G36*
X8550Y66100D02*
X7500D01*
Y64600D01*
X7641D01*
Y64300D01*
X7400D01*
Y63200D01*
X8700D01*
Y64300D01*
X8559D01*
Y65250D01*
X8550Y65294D01*
Y66100D01*
D02*
G37*
G36*
X8700Y62800D02*
X7400D01*
Y61700D01*
X8700D01*
Y61751D01*
X9799D01*
X9910Y61677D01*
X10125Y61634D01*
X11925D01*
X12140Y61677D01*
X12322Y61798D01*
X12443Y61980D01*
X12486Y62195D01*
X12443Y62410D01*
X12322Y62592D01*
X12140Y62713D01*
X11925Y62756D01*
X10125D01*
X9910Y62713D01*
X9844Y62669D01*
X8700D01*
Y62800D01*
D02*
G37*
G36*
X78780Y64361D02*
X78565Y64318D01*
X78383Y64197D01*
X78262Y64015D01*
X78219Y63800D01*
Y62000D01*
X78262Y61785D01*
X78291Y61742D01*
Y60600D01*
X78100D01*
Y59500D01*
X79400D01*
Y60600D01*
X79209D01*
Y61652D01*
X79298Y61785D01*
X79341Y62000D01*
Y63800D01*
X79298Y64015D01*
X79177Y64197D01*
X78995Y64318D01*
X78780Y64361D01*
D02*
G37*
G36*
X77125Y57550D02*
X75625D01*
Y56534D01*
X75400D01*
Y56675D01*
X74100D01*
Y56534D01*
X73825D01*
X73741Y56517D01*
X73649Y56499D01*
X73649Y56499D01*
X73649Y56499D01*
X73578Y56451D01*
X73501Y56399D01*
X73201Y56099D01*
X73201Y56099D01*
X73201Y56099D01*
X73153Y56029D01*
X73101Y55951D01*
X73101Y55951D01*
X73101Y55951D01*
X73084Y55862D01*
X73076Y55825D01*
X73061Y55814D01*
X72957Y55678D01*
X72892Y55520D01*
X72869Y55350D01*
X72892Y55180D01*
X72957Y55022D01*
X73061Y54886D01*
X73197Y54782D01*
X73355Y54717D01*
X73525Y54694D01*
X73695Y54717D01*
X73853Y54782D01*
X73989Y54886D01*
X74093Y55022D01*
X74158Y55180D01*
X74181Y55350D01*
X74177Y55380D01*
X74260Y55475D01*
X75400D01*
Y55616D01*
X75625D01*
Y54880D01*
X74961Y54216D01*
X74920Y54233D01*
X74750Y54256D01*
X74580Y54233D01*
X74422Y54168D01*
X74289Y54066D01*
X74002Y54352D01*
X73945Y54391D01*
X73887Y54430D01*
X73887Y54430D01*
X73887Y54430D01*
X73813Y54444D01*
X73750Y54457D01*
X72275D01*
Y55150D01*
X70975D01*
Y54050D01*
X71670D01*
X71873Y53848D01*
X71988Y53770D01*
X72125Y53743D01*
X73602D01*
X73998Y53348D01*
X74055Y53309D01*
X74113Y53270D01*
X74113Y53270D01*
X74113Y53270D01*
X74196Y53254D01*
X74286Y53136D01*
X74422Y53032D01*
X74580Y52967D01*
X74750Y52944D01*
X74920Y52967D01*
X75078Y53032D01*
X75214Y53136D01*
X75318Y53272D01*
X75383Y53430D01*
X75406Y53600D01*
X75400Y53645D01*
X76355Y54600D01*
X77125D01*
Y55550D01*
Y56500D01*
Y57550D01*
D02*
G37*
G36*
X79400Y59100D02*
X78100D01*
Y58000D01*
X78316D01*
Y57550D01*
X78025D01*
Y56500D01*
X79525D01*
Y57550D01*
X79234D01*
Y58000D01*
X79400D01*
Y59100D01*
D02*
G37*
G36*
X42700Y55206D02*
X42530Y55183D01*
X42372Y55118D01*
X42236Y55014D01*
X42132Y54878D01*
X42067Y54720D01*
X42044Y54550D01*
X42067Y54380D01*
X42132Y54222D01*
X42236Y54086D01*
X42372Y53982D01*
X42530Y53917D01*
X42700Y53894D01*
X42870Y53917D01*
X43028Y53982D01*
X43164Y54086D01*
X43245Y54193D01*
X43650D01*
Y53550D01*
X44950D01*
Y54750D01*
X44505D01*
X44452Y54802D01*
X44337Y54880D01*
X44200Y54907D01*
X43245D01*
X43164Y55014D01*
X43028Y55118D01*
X42870Y55183D01*
X42700Y55206D01*
D02*
G37*
G36*
X90625Y62725D02*
X82025D01*
Y59025D01*
X85782D01*
X85821Y58995D01*
X86052Y58899D01*
X86300Y58867D01*
X86678D01*
X88417Y57128D01*
Y53007D01*
X87825D01*
Y53400D01*
X86775D01*
Y51900D01*
X87825D01*
Y52293D01*
X88437D01*
X88449Y52202D01*
X88545Y51971D01*
X88697Y51772D01*
X88725Y51751D01*
Y51675D01*
X88824D01*
X88877Y51635D01*
X88888Y51562D01*
X88877Y51490D01*
X88697Y51353D01*
X88545Y51154D01*
X88449Y50923D01*
X88417Y50675D01*
Y50607D01*
X87825D01*
Y51000D01*
X86775D01*
Y49500D01*
X87825D01*
Y49893D01*
X88417D01*
Y47397D01*
X87712Y46693D01*
X87665Y46656D01*
X86985D01*
X86810Y46790D01*
X86576Y46887D01*
X86325Y46920D01*
X86074Y46887D01*
X85840Y46790D01*
X85639Y46636D01*
X85485Y46435D01*
X85474Y46409D01*
X84350D01*
Y46450D01*
X83050D01*
Y45350D01*
X84350D01*
Y45491D01*
X85474D01*
X85485Y45465D01*
X85639Y45264D01*
X85840Y45110D01*
X86074Y45013D01*
Y44887D01*
X85840Y44790D01*
X85639Y44636D01*
X85485Y44435D01*
X85388Y44201D01*
X85355Y43950D01*
X85388Y43699D01*
X85485Y43465D01*
X85639Y43264D01*
X85840Y43110D01*
X86074Y43013D01*
X86325Y42980D01*
X86576Y43013D01*
X86810Y43110D01*
X86985Y43244D01*
X87665D01*
X87840Y43110D01*
X88074Y43013D01*
X88325Y42980D01*
X88576Y43013D01*
X88810Y43110D01*
X89011Y43264D01*
X89165Y43465D01*
X89262Y43699D01*
X89295Y43950D01*
X89262Y44201D01*
X89165Y44435D01*
X89031Y44610D01*
Y45290D01*
X89068Y45337D01*
X90053Y46322D01*
X90156Y46457D01*
X90205Y46521D01*
X90205Y46521D01*
X90205Y46521D01*
X90252Y46635D01*
X90301Y46752D01*
X90301Y46752D01*
X90301Y46752D01*
X90333Y47000D01*
Y50675D01*
X90301Y50923D01*
X90205Y51154D01*
X90053Y51353D01*
X89873Y51490D01*
X89862Y51562D01*
X89873Y51635D01*
X89926Y51675D01*
X90025D01*
Y51751D01*
X90053Y51772D01*
X90205Y51971D01*
X90301Y52202D01*
X90333Y52450D01*
Y57525D01*
X90301Y57773D01*
X90205Y58004D01*
X90053Y58203D01*
X89347Y58908D01*
X89396Y59025D01*
X90625D01*
Y62725D01*
D02*
G37*
G36*
X85400Y57781D02*
X85230Y57758D01*
X85072Y57693D01*
X84936Y57589D01*
X84832Y57453D01*
X84767Y57295D01*
X84744Y57125D01*
X84767Y56955D01*
X84832Y56797D01*
X84936Y56661D01*
X84941Y56658D01*
Y55375D01*
X84800D01*
Y54075D01*
X84941D01*
Y53400D01*
X84875D01*
Y51900D01*
X85925D01*
Y53400D01*
X85859D01*
Y54075D01*
X86000D01*
Y55375D01*
X85859D01*
Y56658D01*
X85864Y56661D01*
X85968Y56797D01*
X86033Y56955D01*
X86056Y57125D01*
X86033Y57295D01*
X85968Y57453D01*
X85864Y57589D01*
X85728Y57693D01*
X85570Y57758D01*
X85400Y57781D01*
D02*
G37*
G36*
X80875Y55856D02*
X80705Y55833D01*
X80547Y55768D01*
X80411Y55664D01*
X80307Y55528D01*
X80242Y55370D01*
X80219Y55200D01*
X80242Y55030D01*
X80307Y54872D01*
X80411Y54736D01*
X80416Y54733D01*
Y52290D01*
X80017Y51891D01*
X79900Y51940D01*
Y52750D01*
X78600D01*
Y52107D01*
X78350D01*
Y52275D01*
X77957D01*
Y52805D01*
X78064Y52886D01*
X78168Y53022D01*
X78233Y53180D01*
X78256Y53350D01*
X78233Y53520D01*
X78168Y53678D01*
X78064Y53814D01*
X77928Y53918D01*
X77770Y53983D01*
X77600Y54006D01*
X77430Y53983D01*
X77272Y53918D01*
X77136Y53814D01*
X77032Y53678D01*
X76967Y53520D01*
X76944Y53350D01*
X76967Y53180D01*
X77032Y53022D01*
X77136Y52886D01*
X77243Y52805D01*
Y52275D01*
X76850D01*
Y51225D01*
Y50275D01*
Y49325D01*
X78350D01*
Y50316D01*
X79550D01*
X79720Y50350D01*
X80400D01*
Y50976D01*
X81199Y51776D01*
X81299Y51924D01*
X81334Y52100D01*
Y54733D01*
X81339Y54736D01*
X81443Y54872D01*
X81508Y55030D01*
X81531Y55200D01*
X81508Y55370D01*
X81443Y55528D01*
X81339Y55664D01*
X81203Y55768D01*
X81045Y55833D01*
X80875Y55856D01*
D02*
G37*
G36*
X81800Y70289D02*
X81630Y70267D01*
X81493Y70209D01*
X81448Y70201D01*
X81299Y70101D01*
X81199Y69952D01*
X81173Y69817D01*
X81167Y69803D01*
X81144Y69633D01*
X81147Y69615D01*
X79951Y68418D01*
X79851Y68270D01*
X79816Y68094D01*
Y58975D01*
X79851Y58799D01*
X79951Y58651D01*
X81941Y56660D01*
Y51665D01*
X81331Y51055D01*
X81325Y51056D01*
X81155Y51033D01*
X80997Y50968D01*
X80861Y50864D01*
X80757Y50728D01*
X80692Y50570D01*
X80669Y50400D01*
X80692Y50230D01*
X80757Y50072D01*
X80861Y49936D01*
X80997Y49832D01*
X81155Y49767D01*
X81325Y49744D01*
X81495Y49767D01*
X81653Y49832D01*
X81789Y49936D01*
X81893Y50072D01*
X81958Y50230D01*
X81981Y50400D01*
X81980Y50406D01*
X82724Y51151D01*
X82824Y51299D01*
X82859Y51475D01*
Y56850D01*
X82824Y57026D01*
X82724Y57174D01*
X80734Y59165D01*
Y67904D01*
X81809Y68979D01*
X81970Y69000D01*
X82128Y69065D01*
X82264Y69170D01*
X82368Y69305D01*
X82433Y69464D01*
X82456Y69633D01*
X82433Y69803D01*
X82368Y69961D01*
X82264Y70097D01*
X82128Y70201D01*
X81970Y70267D01*
X81800Y70289D01*
D02*
G37*
G36*
X62600Y50025D02*
X61300D01*
Y49407D01*
X59325D01*
X59325Y49407D01*
X59325Y49407D01*
X59257Y49393D01*
X59188Y49380D01*
X59188Y49380D01*
X59188Y49380D01*
X59130Y49341D01*
X59073Y49302D01*
X59073Y49302D01*
X59073Y49302D01*
X58805Y49034D01*
X58766Y48977D01*
X58727Y48919D01*
X58727Y48919D01*
X58727Y48919D01*
X58714Y48850D01*
X58700Y48782D01*
Y48713D01*
X58660Y48687D01*
X58539Y48505D01*
X58496Y48290D01*
Y47290D01*
X58539Y47076D01*
X58660Y46894D01*
X58842Y46772D01*
X59057Y46730D01*
X59272Y46772D01*
X59454Y46894D01*
X59575Y47076D01*
X59618Y47290D01*
Y48290D01*
X59575Y48505D01*
X59534Y48566D01*
X59602Y48693D01*
X59782D01*
X59850Y48566D01*
X59809Y48505D01*
X59766Y48290D01*
Y47290D01*
X59809Y47076D01*
X59930Y46894D01*
X60112Y46772D01*
X60327Y46730D01*
X60542Y46772D01*
X60724Y46894D01*
X60845Y47076D01*
X60876Y47234D01*
X61600D01*
Y46950D01*
X62800D01*
Y48250D01*
X61600D01*
Y47947D01*
X60888D01*
Y48290D01*
X60845Y48505D01*
X60804Y48566D01*
X60872Y48693D01*
X61475D01*
X61543Y48707D01*
X61612Y48720D01*
X61612Y48720D01*
X61612Y48720D01*
X61670Y48759D01*
X61727Y48798D01*
X61855Y48925D01*
X62600D01*
Y50025D01*
D02*
G37*
G36*
X44875Y49675D02*
X43575D01*
Y49372D01*
X41590D01*
X41454Y49345D01*
X41338Y49268D01*
X40919Y48849D01*
X40842Y48833D01*
X40660Y48712D01*
X40539Y48530D01*
X40496Y48315D01*
Y47315D01*
X40539Y47101D01*
X40660Y46919D01*
X40842Y46797D01*
X41057Y46755D01*
X41272Y46797D01*
X41454Y46919D01*
X41575Y47101D01*
X41618Y47315D01*
Y48315D01*
X41584Y48487D01*
X41671Y48577D01*
X41697Y48573D01*
X41789Y48431D01*
X41766Y48315D01*
Y47315D01*
X41809Y47101D01*
X41843Y47050D01*
Y45900D01*
X41725D01*
Y44600D01*
X42268D01*
X42302Y44593D01*
X42336Y44600D01*
X42925D01*
Y45900D01*
X42761D01*
Y46975D01*
X42845Y47101D01*
X42888Y47315D01*
Y48315D01*
X42845Y48530D01*
X42834Y48547D01*
X42894Y48659D01*
X43575D01*
Y48575D01*
X44875D01*
Y49675D01*
D02*
G37*
G36*
X30350Y56850D02*
X28350D01*
Y56462D01*
X26744Y54856D01*
X26552Y54605D01*
X26477Y54425D01*
X26450D01*
Y54359D01*
X26431Y54313D01*
X26390Y54000D01*
Y35751D01*
X25769Y35131D01*
X25577Y34880D01*
X25456Y34588D01*
X25415Y34275D01*
X25419Y34240D01*
X25311Y34145D01*
X25250Y34168D01*
Y34200D01*
X23750D01*
Y34027D01*
X23638Y34005D01*
X23523Y33927D01*
X23073Y33477D01*
X22995Y33362D01*
X22977Y33270D01*
X22850Y33282D01*
Y34200D01*
X21350D01*
Y34082D01*
X21150D01*
Y34300D01*
X19850D01*
Y33605D01*
X19698Y33452D01*
X19620Y33337D01*
X19593Y33200D01*
Y32070D01*
X19486Y31989D01*
X19382Y31853D01*
X19317Y31695D01*
X19294Y31525D01*
X19317Y31355D01*
X19382Y31197D01*
X19486Y31061D01*
X19622Y30957D01*
X19780Y30892D01*
X19950Y30869D01*
X20120Y30892D01*
X20278Y30957D01*
X20414Y31061D01*
X20518Y31197D01*
X20583Y31355D01*
X20606Y31525D01*
X20583Y31695D01*
X20518Y31853D01*
X20414Y31989D01*
X20307Y32070D01*
Y33052D01*
X20455Y33200D01*
X21150D01*
Y33368D01*
X21350D01*
Y33150D01*
X22841D01*
X22850Y33150D01*
X22968Y33129D01*
Y32321D01*
X22850Y32300D01*
X22850Y32300D01*
X22850Y32300D01*
X21350D01*
Y31250D01*
X22850D01*
Y31418D01*
X22950D01*
X23087Y31445D01*
X23202Y31523D01*
X23577Y31898D01*
X23623Y31966D01*
X23750Y31928D01*
Y31250D01*
X25250D01*
Y31321D01*
X25263Y31330D01*
X25334Y31306D01*
X25390Y31243D01*
Y30160D01*
X16750D01*
X16437Y30119D01*
X16145Y29998D01*
X15894Y29806D01*
X15702Y29555D01*
X15581Y29263D01*
X15540Y28950D01*
X15581Y28637D01*
X15702Y28345D01*
X15894Y28094D01*
X16145Y27902D01*
X16437Y27781D01*
X16750Y27740D01*
X25390D01*
Y22308D01*
X13300D01*
X13052Y22276D01*
X12821Y22180D01*
X12622Y22028D01*
X12486Y21850D01*
X12375D01*
Y21599D01*
X12374Y21598D01*
X12342Y21350D01*
X12374Y21102D01*
X12375Y21101D01*
Y20850D01*
X12486D01*
X12622Y20672D01*
X12821Y20520D01*
X13052Y20424D01*
X13300Y20392D01*
X15467D01*
Y18508D01*
X13300D01*
X13052Y18476D01*
X12821Y18380D01*
X12659Y18255D01*
X12532Y18305D01*
Y18727D01*
X12755Y18950D01*
X14225D01*
Y19950D01*
X12375D01*
Y19580D01*
X12035Y19240D01*
X11908Y19292D01*
Y20400D01*
X11876Y20648D01*
X11875Y20649D01*
Y20900D01*
X11764D01*
X11628Y21078D01*
X11429Y21230D01*
X11198Y21326D01*
X10950Y21358D01*
X6086D01*
X6076Y21362D01*
X5825Y21395D01*
X5574Y21362D01*
X5564Y21358D01*
X4086D01*
X4076Y21362D01*
X3825Y21395D01*
X3574Y21362D01*
X3340Y21265D01*
X3139Y21111D01*
X2985Y20910D01*
X2888Y20676D01*
X2855Y20425D01*
X2867Y20333D01*
Y18517D01*
X2855Y18425D01*
X2888Y18174D01*
X2985Y17940D01*
X3139Y17739D01*
X3340Y17585D01*
X3574Y17488D01*
Y17362D01*
X3340Y17265D01*
X3139Y17111D01*
X2985Y16910D01*
X2888Y16676D01*
X2855Y16425D01*
X2888Y16174D01*
X2985Y15940D01*
X3139Y15739D01*
X3340Y15585D01*
X3574Y15488D01*
X3825Y15455D01*
X4076Y15488D01*
X4310Y15585D01*
X4511Y15739D01*
X4665Y15940D01*
X4762Y16174D01*
X4888D01*
X4985Y15940D01*
X5139Y15739D01*
X5340Y15585D01*
X5574Y15488D01*
X5825Y15455D01*
X6076Y15488D01*
X6310Y15585D01*
X6511Y15739D01*
X6665Y15940D01*
X6762Y16174D01*
X6795Y16425D01*
X6762Y16676D01*
X6665Y16910D01*
X6511Y17111D01*
X6310Y17265D01*
X6076Y17362D01*
Y17488D01*
X6310Y17585D01*
X6511Y17739D01*
X6665Y17940D01*
X6762Y18174D01*
X6795Y18425D01*
X6762Y18676D01*
X6665Y18910D01*
X6511Y19111D01*
X6310Y19265D01*
X6191Y19315D01*
X6216Y19442D01*
X9992D01*
Y16600D01*
X10024Y16352D01*
X10025Y16351D01*
Y16100D01*
X10136D01*
X10272Y15922D01*
X10471Y15770D01*
X10702Y15674D01*
X10950Y15642D01*
X11198Y15674D01*
X11429Y15770D01*
X11628Y15922D01*
X11691Y16005D01*
X11818Y15962D01*
Y15650D01*
Y14225D01*
X11625D01*
Y12925D01*
X12725D01*
Y14225D01*
X12532D01*
Y15150D01*
X14225D01*
Y16150D01*
X12532D01*
Y16795D01*
X12659Y16845D01*
X12821Y16720D01*
X13052Y16624D01*
X13300Y16592D01*
X16043D01*
Y11950D01*
X14850D01*
Y10532D01*
X12123D01*
X11332Y11323D01*
Y14155D01*
X11439Y14236D01*
X11543Y14372D01*
X11608Y14530D01*
X11631Y14700D01*
X11608Y14870D01*
X11543Y15028D01*
X11439Y15164D01*
X11303Y15268D01*
X11145Y15333D01*
X10975Y15356D01*
X10805Y15333D01*
X10647Y15268D01*
X10511Y15164D01*
X10407Y15028D01*
X10379Y14961D01*
X10365Y14959D01*
X10251Y14981D01*
X10230Y15087D01*
X10152Y15202D01*
X9257Y16098D01*
Y17930D01*
X9364Y18011D01*
X9468Y18147D01*
X9533Y18305D01*
X9556Y18475D01*
X9533Y18645D01*
X9468Y18803D01*
X9364Y18939D01*
X9228Y19043D01*
X9070Y19108D01*
X8900Y19131D01*
X8730Y19108D01*
X8572Y19043D01*
X8436Y18939D01*
X8332Y18803D01*
X8267Y18645D01*
X8244Y18475D01*
X8267Y18305D01*
X8332Y18147D01*
X8436Y18011D01*
X8543Y17930D01*
Y15950D01*
X8570Y15813D01*
X8648Y15698D01*
X9543Y14802D01*
Y14470D01*
X9436Y14389D01*
X9332Y14253D01*
X9267Y14095D01*
X9244Y13925D01*
X9267Y13755D01*
X9332Y13597D01*
X9436Y13461D01*
X9572Y13357D01*
X9730Y13292D01*
X9900Y13269D01*
X10070Y13292D01*
X10228Y13357D01*
X10364Y13461D01*
X10468Y13597D01*
X10491Y13654D01*
X10618Y13628D01*
Y11175D01*
X10645Y11038D01*
X10723Y10923D01*
X11723Y9923D01*
X11838Y9845D01*
X11975Y9818D01*
X17075D01*
X17212Y9845D01*
X17327Y9923D01*
X17527Y10123D01*
X17605Y10238D01*
X17632Y10375D01*
Y10450D01*
X17800D01*
Y11950D01*
X16757D01*
Y16659D01*
X16904Y16720D01*
X17103Y16872D01*
X17255Y17071D01*
X17351Y17302D01*
X17383Y17550D01*
Y20392D01*
X20343D01*
Y18325D01*
X19225D01*
Y17932D01*
X18845D01*
X18764Y18039D01*
X18628Y18143D01*
X18470Y18208D01*
X18300Y18231D01*
X18130Y18208D01*
X17972Y18143D01*
X17836Y18039D01*
X17732Y17903D01*
X17667Y17745D01*
X17644Y17575D01*
X17667Y17405D01*
X17732Y17247D01*
X17836Y17111D01*
X17943Y17030D01*
Y14375D01*
X17970Y14238D01*
X18048Y14123D01*
X18948Y13223D01*
X19063Y13145D01*
X19200Y13118D01*
X19355D01*
X19436Y13011D01*
X19572Y12907D01*
X19730Y12842D01*
X19900Y12819D01*
X20070Y12842D01*
X20228Y12907D01*
X20364Y13011D01*
X20468Y13147D01*
X20533Y13305D01*
X20556Y13475D01*
X20533Y13645D01*
X20468Y13803D01*
X20364Y13939D01*
X20228Y14043D01*
X20070Y14108D01*
X19900Y14131D01*
X19730Y14108D01*
X19572Y14043D01*
X19436Y13939D01*
X19430Y13930D01*
X19261Y13919D01*
X18657Y14523D01*
Y17030D01*
X18764Y17111D01*
X18845Y17218D01*
X19225D01*
Y16825D01*
X22175D01*
Y18325D01*
X21057D01*
Y20392D01*
X25390D01*
Y18358D01*
X23475D01*
X23227Y18326D01*
X22996Y18230D01*
X22797Y18078D01*
X22645Y17879D01*
X22549Y17648D01*
X22517Y17400D01*
Y13575D01*
X22549Y13327D01*
X22645Y13096D01*
X22797Y12897D01*
X22941Y12788D01*
X22975Y12675D01*
X22988Y12584D01*
X22896Y12482D01*
X22325D01*
Y12675D01*
X21025D01*
Y11575D01*
X22325D01*
Y11768D01*
X23075D01*
X23212Y11795D01*
X23327Y11873D01*
X23435Y11981D01*
X23925D01*
Y11539D01*
X23747Y11403D01*
X23595Y11204D01*
X23499Y10973D01*
X23467Y10725D01*
X23499Y10477D01*
X23595Y10246D01*
X23747Y10047D01*
X23946Y9895D01*
X24177Y9799D01*
X24425Y9767D01*
X27553D01*
X28167Y9153D01*
Y6823D01*
X28040Y6797D01*
X27965Y6977D01*
X27811Y7178D01*
X27610Y7332D01*
X27376Y7429D01*
X27125Y7462D01*
X26874Y7429D01*
X26640Y7332D01*
X26439Y7178D01*
X26285Y6977D01*
X26188Y6743D01*
X26062D01*
X25965Y6977D01*
X25811Y7178D01*
X25610Y7332D01*
X25376Y7429D01*
X25125Y7462D01*
X24874Y7429D01*
X24640Y7332D01*
X24439Y7178D01*
X24285Y6977D01*
X24188Y6743D01*
X24155Y6492D01*
X24188Y6241D01*
X24285Y6007D01*
X24439Y5806D01*
X24640Y5652D01*
X24874Y5555D01*
Y5429D01*
X24640Y5332D01*
X24439Y5178D01*
X24285Y4977D01*
X24188Y4743D01*
X24155Y4492D01*
X24188Y4241D01*
X24285Y4007D01*
X24439Y3806D01*
X24640Y3652D01*
X24874Y3555D01*
X25125Y3522D01*
X25376Y3555D01*
X25610Y3652D01*
X25811Y3806D01*
X25965Y4007D01*
X26062Y4241D01*
X26188D01*
X26285Y4007D01*
X26439Y3806D01*
X26640Y3652D01*
X26874Y3555D01*
X27125Y3522D01*
X27376Y3555D01*
X27610Y3652D01*
X27811Y3806D01*
X27965Y4007D01*
X28062Y4241D01*
X28188D01*
X28285Y4007D01*
X28439Y3806D01*
X28640Y3652D01*
X28874Y3555D01*
X29125Y3522D01*
X29376Y3555D01*
X29610Y3652D01*
X29811Y3806D01*
X29965Y4007D01*
X30062Y4241D01*
X30095Y4492D01*
X30083Y4584D01*
Y6400D01*
X30095Y6492D01*
X30083Y6584D01*
Y9550D01*
X30051Y9798D01*
X29955Y10029D01*
X29803Y10228D01*
X28678Y11353D01*
X28479Y11505D01*
X28458Y11514D01*
X28404Y11555D01*
X28375Y11567D01*
Y12004D01*
X28477Y12073D01*
X28955Y12550D01*
X29325D01*
Y14400D01*
X28325D01*
Y12930D01*
X28077Y12682D01*
X27730D01*
X27681Y12809D01*
X27805Y12971D01*
X27901Y13202D01*
X27933Y13450D01*
Y16340D01*
X32491D01*
Y2050D01*
X32526Y1789D01*
X32626Y1546D01*
X32787Y1337D01*
X33587Y537D01*
X33796Y377D01*
X34039Y276D01*
X34300Y241D01*
X47000D01*
X47261Y276D01*
X47504Y377D01*
X47713Y537D01*
X47873Y746D01*
X47974Y989D01*
X48009Y1250D01*
X47974Y1511D01*
X47873Y1754D01*
X47713Y1963D01*
X47504Y2124D01*
X47261Y2224D01*
X47000Y2259D01*
X34718D01*
X34509Y2468D01*
Y13149D01*
X34636Y13157D01*
X34649Y13052D01*
X34745Y12821D01*
X34897Y12622D01*
X35096Y12470D01*
X35100Y12469D01*
Y12375D01*
X35326D01*
X35327Y12374D01*
X35575Y12342D01*
X35823Y12374D01*
X35824Y12375D01*
X36100D01*
Y12505D01*
X36253Y12622D01*
X36405Y12821D01*
X36501Y13052D01*
X36533Y13300D01*
Y16592D01*
X36878D01*
X38417Y15053D01*
Y13300D01*
X38449Y13052D01*
X38545Y12821D01*
X38670Y12659D01*
X38620Y12532D01*
X38000D01*
Y14225D01*
X37000D01*
Y12375D01*
X37118D01*
Y12175D01*
X37145Y12038D01*
X37147Y12035D01*
X37080Y11908D01*
X36550D01*
X36302Y11876D01*
X36301Y11875D01*
X36050D01*
Y11764D01*
X35872Y11628D01*
X35720Y11429D01*
X35624Y11198D01*
X35592Y10950D01*
X35624Y10702D01*
X35720Y10471D01*
X35872Y10272D01*
X36050Y10136D01*
Y10025D01*
X36301D01*
X36302Y10024D01*
X36550Y9992D01*
X37450D01*
Y9725D01*
X39250D01*
Y9992D01*
X40303D01*
X43567Y6728D01*
Y6492D01*
X43555Y6400D01*
X43567Y6308D01*
Y4492D01*
X43555Y4400D01*
X43588Y4149D01*
X43685Y3915D01*
X43839Y3714D01*
X44040Y3560D01*
X44274Y3463D01*
X44525Y3430D01*
X44776Y3463D01*
X45010Y3560D01*
X45211Y3714D01*
X45365Y3915D01*
X45462Y4149D01*
X45495Y4400D01*
X45483Y4492D01*
Y6308D01*
X45495Y6400D01*
X45483Y6492D01*
Y7125D01*
X45451Y7373D01*
X45355Y7604D01*
X45203Y7803D01*
X41378Y11628D01*
X41179Y11780D01*
X41045Y11835D01*
X41015Y11985D01*
X41405Y12375D01*
X41775D01*
Y14225D01*
X41825Y14250D01*
Y15550D01*
X40725D01*
Y14250D01*
X40775Y14225D01*
Y12755D01*
X40552Y12532D01*
X40130D01*
X40080Y12659D01*
X40205Y12821D01*
X40301Y13052D01*
X40333Y13300D01*
Y15450D01*
X40301Y15698D01*
X40205Y15929D01*
X40205Y15929D01*
X40053Y16128D01*
X39104Y17076D01*
X39153Y17193D01*
X42977D01*
X44568Y15602D01*
Y13949D01*
X44500Y13850D01*
X44459Y13850D01*
X44332Y13893D01*
Y14650D01*
X44305Y14787D01*
X44227Y14902D01*
X43977Y15152D01*
X43862Y15230D01*
X43725Y15257D01*
X43325D01*
Y15550D01*
X42225D01*
Y14250D01*
X43325D01*
Y14543D01*
X43577D01*
X43618Y14502D01*
Y13850D01*
X43450D01*
Y12350D01*
X44441D01*
X44500Y12350D01*
X44568Y12251D01*
Y11450D01*
X43450D01*
Y9950D01*
X46400D01*
Y10120D01*
X46525Y10125D01*
Y10125D01*
X47825D01*
Y11225D01*
X47557D01*
Y11355D01*
X47664Y11436D01*
X47768Y11572D01*
X47833Y11730D01*
X47856Y11900D01*
X47833Y12070D01*
X47768Y12228D01*
X47664Y12364D01*
X47528Y12468D01*
X47370Y12533D01*
X47200Y12556D01*
X47030Y12533D01*
X46872Y12468D01*
X46736Y12364D01*
X46632Y12228D01*
X46567Y12070D01*
X46544Y11900D01*
X46567Y11730D01*
X46632Y11572D01*
X46736Y11436D01*
X46843Y11355D01*
Y11225D01*
X46525D01*
Y11225D01*
X46400Y11230D01*
Y11450D01*
X45282D01*
Y15750D01*
X45255Y15887D01*
X45177Y16002D01*
X43377Y17802D01*
X43262Y17880D01*
X43125Y17907D01*
X38273D01*
X37953Y18228D01*
X37831Y18321D01*
X37754Y18380D01*
X37523Y18476D01*
X37275Y18508D01*
X36147D01*
X36030Y18598D01*
X35738Y18719D01*
X35425Y18760D01*
X27810D01*
Y20900D01*
Y29000D01*
Y29316D01*
X45258D01*
X45261Y29311D01*
X45397Y29207D01*
X45555Y29142D01*
X45725Y29119D01*
X45895Y29142D01*
X46053Y29207D01*
X46189Y29311D01*
X46293Y29447D01*
X46358Y29605D01*
X46381Y29775D01*
X46358Y29945D01*
X46293Y30103D01*
X46189Y30239D01*
X46053Y30343D01*
X45895Y30408D01*
X45725Y30431D01*
X45555Y30408D01*
X45397Y30343D01*
X45261Y30239D01*
X45258Y30234D01*
X27810D01*
Y31518D01*
X28375D01*
X28512Y31545D01*
X28627Y31623D01*
X31527Y34523D01*
X31605Y34638D01*
X31632Y34775D01*
Y45973D01*
X34102Y48443D01*
X34600D01*
Y48150D01*
X35700D01*
Y49450D01*
X34600D01*
Y49157D01*
X33954D01*
X33817Y49130D01*
X33701Y49052D01*
X31023Y46374D01*
X30945Y46258D01*
X30918Y46121D01*
Y34923D01*
X28227Y32232D01*
X27689D01*
X27648Y32330D01*
X27456Y32581D01*
X27275Y32720D01*
Y32725D01*
X27268D01*
X27205Y32773D01*
X26913Y32894D01*
X26600Y32935D01*
X26287Y32894D01*
X25995Y32773D01*
X25744Y32581D01*
X25668Y32482D01*
X25575D01*
X25575Y32482D01*
X25575Y32482D01*
X25497Y32466D01*
X25438Y32455D01*
X25438Y32455D01*
X25438Y32455D01*
X25374Y32412D01*
X25323Y32377D01*
X25323Y32377D01*
X25323Y32377D01*
X25245Y32300D01*
X23809D01*
X23750Y32300D01*
X23682Y32399D01*
Y33077D01*
X23755Y33150D01*
X25250D01*
Y33368D01*
X25836D01*
X25975Y33261D01*
Y33125D01*
X26266D01*
X26312Y33106D01*
X26625Y33065D01*
X26938Y33106D01*
X26984Y33125D01*
X27275D01*
Y33261D01*
X27481Y33419D01*
X28456Y34394D01*
X28648Y34645D01*
X28769Y34937D01*
X28810Y35250D01*
Y53499D01*
X29562Y54250D01*
X30350D01*
Y55205D01*
X30394Y55312D01*
X30435Y55625D01*
X30394Y55938D01*
X30350Y56045D01*
Y56850D01*
D02*
G37*
G36*
X75950Y50375D02*
X74450D01*
Y49325D01*
X74791D01*
Y48875D01*
X74600D01*
Y47775D01*
X75900D01*
Y48875D01*
X75709D01*
Y49325D01*
X75950D01*
Y50375D01*
D02*
G37*
G36*
X37200Y49450D02*
X36100D01*
Y48150D01*
X36191D01*
Y47900D01*
X36125D01*
Y46600D01*
X37225D01*
Y46891D01*
X38162D01*
X38302Y46797D01*
X38517Y46755D01*
X38732Y46797D01*
X38914Y46919D01*
X39035Y47101D01*
X39078Y47315D01*
Y48315D01*
X39035Y48530D01*
X38914Y48712D01*
X38732Y48833D01*
X38517Y48876D01*
X38302Y48833D01*
X38120Y48712D01*
X37999Y48530D01*
X37956Y48315D01*
Y47809D01*
X37225D01*
Y47900D01*
X37109D01*
Y48150D01*
X37200D01*
Y49450D01*
D02*
G37*
G36*
X73130Y48361D02*
X72915Y48318D01*
X72733Y48197D01*
X72612Y48015D01*
X72569Y47800D01*
Y46000D01*
X72612Y45785D01*
X72733Y45603D01*
X72915Y45482D01*
X73130Y45439D01*
X73345Y45482D01*
X73526Y45603D01*
X73648Y45785D01*
X73691Y46000D01*
Y46366D01*
X74600D01*
Y46275D01*
X75900D01*
Y47375D01*
X74600D01*
Y47284D01*
X73691D01*
Y47800D01*
X73648Y48015D01*
X73526Y48197D01*
X73345Y48318D01*
X73130Y48361D01*
D02*
G37*
G36*
X57787Y48851D02*
X57572Y48809D01*
X57390Y48687D01*
X57269Y48505D01*
X57226Y48290D01*
Y47290D01*
X57269Y47076D01*
X57390Y46894D01*
X57430Y46867D01*
Y45925D01*
X57375D01*
Y44725D01*
X58675D01*
Y45925D01*
X58144D01*
Y46867D01*
X58184Y46894D01*
X58305Y47076D01*
X58348Y47290D01*
Y48290D01*
X58305Y48505D01*
X58184Y48687D01*
X58002Y48809D01*
X57787Y48851D01*
D02*
G37*
G36*
X39787Y48876D02*
X39572Y48833D01*
X39390Y48712D01*
X39269Y48530D01*
X39226Y48315D01*
Y47315D01*
X39269Y47101D01*
X39303Y47050D01*
Y45975D01*
X39150D01*
Y44675D01*
X40350D01*
Y45975D01*
X40221D01*
Y46975D01*
X40305Y47101D01*
X40348Y47315D01*
Y48315D01*
X40305Y48530D01*
X40184Y48712D01*
X40002Y48833D01*
X39787Y48876D01*
D02*
G37*
G36*
X56517Y48851D02*
X56302Y48809D01*
X56120Y48687D01*
X55999Y48505D01*
X55956Y48290D01*
Y47290D01*
X55999Y47076D01*
X56120Y46894D01*
X56160Y46867D01*
Y46100D01*
X55950D01*
Y44800D01*
X56160D01*
Y44575D01*
X55950D01*
Y43275D01*
X57050D01*
Y44575D01*
X56874D01*
Y44800D01*
X57050D01*
Y46100D01*
X56874D01*
Y46867D01*
X56914Y46894D01*
X57035Y47076D01*
X57078Y47290D01*
Y48290D01*
X57035Y48505D01*
X56914Y48687D01*
X56732Y48809D01*
X56517Y48851D01*
D02*
G37*
G36*
X8450Y57125D02*
X4750D01*
Y53025D01*
X6467D01*
Y47525D01*
X6499Y47277D01*
X6525Y47215D01*
Y46300D01*
X8425D01*
Y46567D01*
X11751D01*
X11774Y44040D01*
X11685Y43950D01*
X8375D01*
Y40250D01*
X16975D01*
Y43950D01*
X13692D01*
X13658Y47534D01*
X13641Y47653D01*
X13626Y47773D01*
X13624Y47777D01*
X13623Y47782D01*
X13576Y47893D01*
X13530Y48004D01*
X13527Y48008D01*
X13525Y48012D01*
X13451Y48107D01*
X13378Y48203D01*
X13374Y48205D01*
X13371Y48209D01*
X13275Y48281D01*
X13179Y48355D01*
X13175Y48357D01*
X13171Y48359D01*
X13060Y48404D01*
X12948Y48451D01*
X12944Y48451D01*
X12939Y48453D01*
X12820Y48467D01*
X12700Y48483D01*
X8425D01*
Y49500D01*
X8383D01*
Y53025D01*
X8450D01*
Y57125D01*
D02*
G37*
G36*
X50425Y49134D02*
X50359Y49125D01*
X49125D01*
Y47125D01*
X49416D01*
Y28050D01*
X49451Y27789D01*
X49552Y27546D01*
X49712Y27337D01*
X49775Y27288D01*
Y27275D01*
X49792D01*
X49921Y27177D01*
X49995Y27146D01*
Y27008D01*
X49895Y26967D01*
X49775Y26875D01*
X49775D01*
X49670Y26929D01*
X48959Y27640D01*
Y31783D01*
X48964Y31786D01*
X49068Y31922D01*
X49133Y32080D01*
X49156Y32250D01*
X49133Y32420D01*
X49068Y32578D01*
X48964Y32714D01*
X48828Y32818D01*
X48670Y32883D01*
X48500Y32906D01*
X48330Y32883D01*
X48172Y32818D01*
X48036Y32714D01*
X47932Y32578D01*
X47867Y32420D01*
X47844Y32250D01*
X47867Y32080D01*
X47932Y31922D01*
X48036Y31786D01*
X48041Y31783D01*
Y27450D01*
X48076Y27274D01*
X48176Y27126D01*
X49089Y26212D01*
X46244Y23367D01*
X46046Y23530D01*
X46056Y23600D01*
X46033Y23770D01*
X45968Y23928D01*
X45864Y24064D01*
X45728Y24168D01*
X45570Y24233D01*
X45400Y24256D01*
X45230Y24233D01*
X45072Y24168D01*
X44936Y24064D01*
X44832Y23928D01*
X44767Y23770D01*
X44744Y23600D01*
X44767Y23430D01*
X44832Y23272D01*
X44936Y23136D01*
X45072Y23032D01*
X45230Y22967D01*
X45400Y22944D01*
X45556Y22965D01*
X45638Y22907D01*
X45641Y22887D01*
X45644Y22766D01*
X44886Y22009D01*
X29675D01*
X29401Y21973D01*
X29145Y21867D01*
X28926Y21699D01*
X28758Y21480D01*
X28652Y21224D01*
X28616Y20950D01*
X28652Y20676D01*
X28758Y20420D01*
X28926Y20201D01*
X29145Y20033D01*
X29401Y19927D01*
X29675Y19891D01*
X44629D01*
X45868Y18652D01*
Y17775D01*
X45895Y17638D01*
X45973Y17523D01*
X47998Y15498D01*
X48113Y15420D01*
X48250Y15393D01*
X49127D01*
X50443Y14077D01*
Y3802D01*
X50319Y3706D01*
X50210Y3565D01*
X50142Y3401D01*
X50119Y3225D01*
X50142Y3049D01*
X50210Y2885D01*
X50319Y2744D01*
X50460Y2635D01*
X50624Y2567D01*
X50800Y2544D01*
X50976Y2567D01*
X51140Y2635D01*
X51281Y2744D01*
X51348Y2831D01*
X51358Y2836D01*
X51492D01*
X51502Y2831D01*
X51569Y2744D01*
X51710Y2635D01*
X51874Y2567D01*
X52050Y2544D01*
X52226Y2567D01*
X52390Y2635D01*
X52531Y2744D01*
X52640Y2885D01*
X52708Y3049D01*
X52731Y3225D01*
X52708Y3401D01*
X52640Y3565D01*
X52531Y3706D01*
X52390Y3815D01*
X52226Y3883D01*
X52050Y3906D01*
X51874Y3883D01*
X51710Y3815D01*
X51569Y3706D01*
X51502Y3619D01*
X51492Y3614D01*
X51358D01*
X51348Y3619D01*
X51281Y3706D01*
X51157Y3802D01*
Y11509D01*
X51284Y11561D01*
X55468Y7377D01*
Y3818D01*
X55460Y3815D01*
X55319Y3706D01*
X55252Y3619D01*
X55242Y3614D01*
X55108D01*
X55098Y3619D01*
X55031Y3706D01*
X54890Y3815D01*
X54726Y3883D01*
X54550Y3906D01*
X54374Y3883D01*
X54210Y3815D01*
X54069Y3706D01*
X53960Y3565D01*
X53892Y3401D01*
X53869Y3225D01*
X53892Y3049D01*
X53960Y2885D01*
X54069Y2744D01*
X54210Y2635D01*
X54374Y2567D01*
X54550Y2544D01*
X54706Y2565D01*
X55748Y1523D01*
X55863Y1445D01*
X56000Y1418D01*
X59850D01*
X59987Y1445D01*
X60102Y1523D01*
X65148Y6568D01*
X67400D01*
X67537Y6595D01*
X67652Y6673D01*
X69977Y8998D01*
X70055Y9113D01*
X70082Y9250D01*
Y9505D01*
X70189Y9586D01*
X70293Y9722D01*
X70358Y9880D01*
X70381Y10050D01*
X70358Y10220D01*
X70293Y10378D01*
X70189Y10514D01*
X70053Y10618D01*
X69895Y10683D01*
X69725Y10706D01*
X69555Y10683D01*
X69397Y10618D01*
X69261Y10514D01*
X69157Y10378D01*
X69092Y10220D01*
X69069Y10050D01*
X69092Y9880D01*
X69157Y9722D01*
X69261Y9586D01*
X69351Y9518D01*
X69356Y9386D01*
X67252Y7282D01*
X65000D01*
X64863Y7255D01*
X64748Y7177D01*
X59702Y2132D01*
X56148D01*
X55856Y2423D01*
X55902Y2558D01*
X55976Y2567D01*
X56140Y2635D01*
X56281Y2744D01*
X56348Y2831D01*
X56358Y2836D01*
X56492D01*
X56502Y2831D01*
X56569Y2744D01*
X56710Y2635D01*
X56874Y2567D01*
X57050Y2544D01*
X57226Y2567D01*
X57390Y2635D01*
X57531Y2744D01*
X57598Y2831D01*
X57608Y2836D01*
X57742D01*
X57752Y2831D01*
X57819Y2744D01*
X57960Y2635D01*
X58124Y2567D01*
X58300Y2544D01*
X58476Y2567D01*
X58640Y2635D01*
X58781Y2744D01*
X58848Y2831D01*
X58858Y2836D01*
X58992D01*
X59002Y2831D01*
X59069Y2744D01*
X59210Y2635D01*
X59374Y2567D01*
X59550Y2544D01*
X59726Y2567D01*
X59890Y2635D01*
X60031Y2744D01*
X60140Y2885D01*
X60208Y3049D01*
X60231Y3225D01*
X60208Y3401D01*
X60140Y3565D01*
X60031Y3706D01*
X59890Y3815D01*
X59726Y3883D01*
X59550Y3906D01*
X59374Y3883D01*
X59210Y3815D01*
X59069Y3706D01*
X59002Y3619D01*
X58992Y3614D01*
X58858D01*
X58848Y3619D01*
X58781Y3706D01*
X58640Y3815D01*
X58476Y3883D01*
X58300Y3906D01*
X58124Y3883D01*
X57960Y3815D01*
X57819Y3706D01*
X57752Y3619D01*
X57742Y3614D01*
X57608D01*
X57598Y3619D01*
X57531Y3706D01*
X57390Y3815D01*
X57226Y3883D01*
X57050Y3906D01*
X56874Y3883D01*
X56710Y3815D01*
X56569Y3706D01*
X56502Y3619D01*
X56492Y3614D01*
X56358D01*
X56348Y3619D01*
X56281Y3706D01*
X56182Y3783D01*
Y7525D01*
X56155Y7662D01*
X56077Y7777D01*
X51807Y12048D01*
Y13637D01*
X51845Y13642D01*
X52003Y13707D01*
X52139Y13811D01*
X52243Y13947D01*
X52308Y14105D01*
X52331Y14275D01*
X52308Y14445D01*
X52243Y14603D01*
X52139Y14739D01*
X52003Y14843D01*
X51845Y14908D01*
X51675Y14931D01*
X51505Y14908D01*
X51347Y14843D01*
X51211Y14739D01*
X51107Y14603D01*
X51107Y14602D01*
X50957Y14572D01*
X49527Y16002D01*
X49412Y16080D01*
X49275Y16107D01*
X48398D01*
X46582Y17923D01*
Y18800D01*
X46555Y18937D01*
X46477Y19052D01*
X45699Y19831D01*
X45729Y19981D01*
X45855Y20033D01*
X46074Y20201D01*
X47674Y21801D01*
X47674Y21801D01*
X51174Y25301D01*
X51209Y25347D01*
X51377Y25358D01*
X52000Y24735D01*
Y24350D01*
X52385D01*
X53040Y23695D01*
X53042Y23680D01*
X53107Y23522D01*
X53211Y23386D01*
X53347Y23282D01*
X53505Y23217D01*
X53520Y23215D01*
X53825Y22910D01*
X53882Y22772D01*
X53986Y22636D01*
X54122Y22532D01*
X54260Y22475D01*
X54623Y22112D01*
X54645Y22060D01*
X54749Y21924D01*
X54885Y21820D01*
X54971Y21784D01*
X54946Y21657D01*
X50645D01*
X50564Y21764D01*
X50428Y21868D01*
X50270Y21933D01*
X50100Y21956D01*
X49930Y21933D01*
X49772Y21868D01*
X49636Y21764D01*
X49532Y21628D01*
X49467Y21470D01*
X49444Y21300D01*
X49467Y21130D01*
X49532Y20972D01*
X49636Y20836D01*
X49772Y20732D01*
X49930Y20667D01*
X50100Y20644D01*
X50270Y20667D01*
X50428Y20732D01*
X50564Y20836D01*
X50645Y20943D01*
X56450D01*
X56587Y20970D01*
X56702Y21048D01*
X58473Y22818D01*
X60624D01*
X60686Y22736D01*
X60822Y22632D01*
X60980Y22567D01*
X61150Y22544D01*
X61320Y22567D01*
X61478Y22632D01*
X61614Y22736D01*
X61718Y22872D01*
X61783Y23030D01*
X61806Y23200D01*
X61783Y23370D01*
X61718Y23528D01*
X61614Y23664D01*
X61478Y23768D01*
X61320Y23833D01*
X61150Y23856D01*
X60980Y23833D01*
X60822Y23768D01*
X60686Y23664D01*
X60585Y23532D01*
X58325D01*
X58188Y23505D01*
X58073Y23427D01*
X56302Y21657D01*
X55479D01*
X55454Y21784D01*
X55540Y21820D01*
X55676Y21924D01*
X55780Y22060D01*
X55846Y22218D01*
X55868Y22388D01*
X55846Y22557D01*
X55780Y22715D01*
X55676Y22851D01*
X55540Y22955D01*
X55488Y22977D01*
X54953Y23512D01*
X54914Y23564D01*
X54862Y23603D01*
X54242Y24223D01*
X54295Y24350D01*
X54950D01*
Y24666D01*
X55500D01*
Y24625D01*
X56800D01*
X56800Y24625D01*
X56927Y24649D01*
X57047Y24557D01*
X57205Y24492D01*
X57375Y24469D01*
X57545Y24492D01*
X57703Y24557D01*
X57839Y24661D01*
X57933Y24785D01*
X57972Y24798D01*
X58082Y24800D01*
X58111Y24761D01*
X58247Y24657D01*
X58405Y24592D01*
X58575Y24569D01*
X58745Y24592D01*
X58903Y24657D01*
X59039Y24761D01*
X59143Y24897D01*
X59208Y25055D01*
X59231Y25225D01*
X59208Y25395D01*
X59143Y25553D01*
X59039Y25689D01*
X58903Y25793D01*
X58745Y25858D01*
X58575Y25881D01*
X58552Y25878D01*
X58450Y25980D01*
Y27150D01*
X57280D01*
X56875Y27555D01*
Y28000D01*
X55575D01*
Y27857D01*
X54950D01*
Y28250D01*
X53900D01*
Y26750D01*
X54950D01*
Y27143D01*
X55575D01*
Y26900D01*
X56520D01*
X57150Y26270D01*
Y25950D01*
X57425D01*
X57465Y25897D01*
X57395Y25778D01*
X57375Y25781D01*
X57205Y25758D01*
X57047Y25693D01*
X56927Y25600D01*
X56826Y25624D01*
X56800Y25635D01*
Y25825D01*
X55500D01*
Y25584D01*
X54950D01*
Y25850D01*
X53900D01*
Y24731D01*
X53783Y24682D01*
X53050Y25415D01*
Y25850D01*
X52615D01*
X51983Y26483D01*
X51784Y26615D01*
X51550Y26662D01*
X51279D01*
X51174Y26799D01*
X51075Y26875D01*
Y26875D01*
X51075D01*
X50955Y26967D01*
X50950Y26969D01*
X50918Y27120D01*
X50941Y27143D01*
X52000D01*
Y26750D01*
X53050D01*
Y28250D01*
X52000D01*
Y27857D01*
X51505D01*
X51421Y27952D01*
X51434Y28050D01*
Y38348D01*
X51561Y38410D01*
X51597Y38382D01*
X51755Y38317D01*
X51925Y38294D01*
X52095Y38317D01*
X52253Y38382D01*
X52389Y38486D01*
X52470Y38593D01*
X53950D01*
X54087Y38620D01*
X54202Y38698D01*
X55252Y39748D01*
X55330Y39863D01*
X55357Y40000D01*
Y43275D01*
X55550D01*
Y44575D01*
X54450D01*
Y43275D01*
X54643D01*
Y40148D01*
X53802Y39307D01*
X52470D01*
X52389Y39414D01*
X52253Y39518D01*
X52095Y39583D01*
X51925Y39606D01*
X51755Y39583D01*
X51597Y39518D01*
X51561Y39490D01*
X51434Y39552D01*
Y47125D01*
X51725D01*
Y49125D01*
X50491D01*
X50425Y49134D01*
D02*
G37*
G36*
X16975Y39350D02*
X8375D01*
Y35650D01*
X11492D01*
Y34950D01*
X11341D01*
X11204Y35055D01*
X10973Y35151D01*
X10725Y35183D01*
X6751D01*
X6670Y35275D01*
X6637Y35526D01*
X6540Y35760D01*
X6386Y35961D01*
X6185Y36115D01*
X5951Y36212D01*
X5700Y36245D01*
X5449Y36212D01*
X5215Y36115D01*
X5014Y35961D01*
X4860Y35760D01*
X4763Y35526D01*
X4637D01*
X4540Y35760D01*
X4386Y35961D01*
X4185Y36115D01*
X3951Y36212D01*
X3700Y36245D01*
X3449Y36212D01*
X3215Y36115D01*
X3014Y35961D01*
X2860Y35760D01*
X2763Y35526D01*
X2730Y35275D01*
X2763Y35024D01*
X2860Y34790D01*
X2994Y34615D01*
Y33935D01*
X2860Y33760D01*
X2763Y33526D01*
X2730Y33275D01*
X2763Y33024D01*
X2860Y32790D01*
X3014Y32589D01*
X3215Y32435D01*
X3241Y32424D01*
Y30725D01*
X3150D01*
Y29425D01*
X4250D01*
Y30725D01*
X4159D01*
Y32317D01*
X5608D01*
X5700Y32305D01*
X5951Y32338D01*
X6185Y32435D01*
X6386Y32589D01*
X6540Y32790D01*
X6637Y33024D01*
X6669Y33267D01*
X10704D01*
X12278Y31692D01*
X12229Y31575D01*
X11375D01*
Y31207D01*
X11125D01*
Y31450D01*
X10832D01*
Y31630D01*
X10939Y31711D01*
X11043Y31847D01*
X11108Y32005D01*
X11131Y32175D01*
X11108Y32345D01*
X11043Y32503D01*
X10939Y32639D01*
X10803Y32743D01*
X10645Y32808D01*
X10475Y32831D01*
X10305Y32808D01*
X10147Y32743D01*
X10011Y32639D01*
X9907Y32503D01*
X9842Y32345D01*
X9819Y32175D01*
X9842Y32005D01*
X9907Y31847D01*
X10011Y31711D01*
X10118Y31630D01*
Y31450D01*
X9825D01*
Y30250D01*
X11125D01*
Y30493D01*
X11375D01*
Y30075D01*
X12425D01*
Y31244D01*
X12552Y31312D01*
X12568Y31301D01*
Y30050D01*
X12595Y29913D01*
X12673Y29798D01*
X13203Y29268D01*
X13275Y29175D01*
X13275D01*
X13275Y29175D01*
Y27675D01*
X14325D01*
Y29175D01*
X14157D01*
Y29175D01*
X14130Y29312D01*
X14052Y29427D01*
X13522Y29958D01*
X13571Y30075D01*
X14325D01*
Y31575D01*
X14157D01*
Y32350D01*
X14130Y32487D01*
X14052Y32602D01*
X13122Y33533D01*
X13128Y33622D01*
X13280Y33821D01*
X13376Y34052D01*
X13408Y34300D01*
Y35650D01*
X16975D01*
Y39350D01*
D02*
G37*
G36*
X63725Y37356D02*
X63555Y37333D01*
X63397Y37268D01*
X63261Y37164D01*
X63157Y37028D01*
X63092Y36870D01*
X63069Y36700D01*
X63092Y36530D01*
X63157Y36372D01*
X63261Y36236D01*
X63397Y36132D01*
X63555Y36067D01*
X63725Y36044D01*
X63731Y36045D01*
X64955Y34821D01*
Y31962D01*
X64951Y31958D01*
X64846Y31823D01*
X64781Y31665D01*
X64759Y31495D01*
X64781Y31325D01*
X64846Y31167D01*
X64951Y31031D01*
X65086Y30927D01*
X65245Y30862D01*
X65414Y30839D01*
X65584Y30862D01*
X65742Y30927D01*
X65878Y31031D01*
X65982Y31167D01*
X66048Y31325D01*
X66070Y31495D01*
X66048Y31665D01*
X65982Y31823D01*
X65878Y31958D01*
X65873Y31962D01*
Y35011D01*
X65838Y35186D01*
X65739Y35335D01*
X64380Y36694D01*
X64381Y36700D01*
X64358Y36870D01*
X64293Y37028D01*
X64189Y37164D01*
X64053Y37268D01*
X63895Y37333D01*
X63725Y37356D01*
D02*
G37*
G36*
X85925Y51000D02*
X84875D01*
Y50230D01*
X83995Y49350D01*
X83275D01*
Y48580D01*
X81748Y47052D01*
X81670Y46937D01*
X81643Y46800D01*
Y32975D01*
X81670Y32838D01*
X81748Y32723D01*
X82793Y31677D01*
Y28773D01*
X82233Y28213D01*
X82100Y28231D01*
X81930Y28208D01*
X81772Y28143D01*
X81636Y28039D01*
X81532Y27903D01*
X81467Y27745D01*
X81444Y27575D01*
X81467Y27405D01*
X81532Y27247D01*
X81636Y27111D01*
X81772Y27007D01*
X81930Y26942D01*
X81985Y26934D01*
X82018Y26857D01*
X82027Y26801D01*
X81932Y26678D01*
X81867Y26520D01*
X81844Y26350D01*
X81867Y26180D01*
X81932Y26022D01*
X82036Y25886D01*
X82172Y25782D01*
X82330Y25717D01*
X82500Y25694D01*
X82670Y25717D01*
X82828Y25782D01*
X82964Y25886D01*
X83068Y26022D01*
X83133Y26180D01*
X83155Y26343D01*
X83902Y27091D01*
X83980Y27207D01*
X84007Y27343D01*
Y32225D01*
X83980Y32362D01*
X83902Y32477D01*
X82982Y33398D01*
Y42027D01*
X83180Y42225D01*
X84350D01*
Y43325D01*
X84057D01*
Y43850D01*
X84350D01*
Y44950D01*
X83050D01*
Y43850D01*
X83343D01*
Y43325D01*
X83050D01*
Y43079D01*
X82973Y43027D01*
X82484Y42539D01*
X82357Y42591D01*
Y46652D01*
X83755Y48050D01*
X84375D01*
Y48720D01*
X85155Y49500D01*
X85925D01*
Y51000D01*
D02*
G37*
G36*
X5750Y30725D02*
X4650D01*
Y29425D01*
X4650D01*
Y29325D01*
X4650D01*
Y28025D01*
X4868D01*
Y27800D01*
X4895Y27663D01*
X4973Y27548D01*
X7023Y25498D01*
X7138Y25420D01*
X7275Y25393D01*
X12380D01*
X12461Y25286D01*
X12597Y25182D01*
X12755Y25117D01*
X12925Y25094D01*
X13095Y25117D01*
X13253Y25182D01*
X13389Y25286D01*
X13493Y25422D01*
X13558Y25580D01*
X13581Y25750D01*
X13558Y25920D01*
X13493Y26078D01*
X13389Y26214D01*
X13255Y26316D01*
X13254Y26323D01*
X13282Y26443D01*
X14355D01*
X14436Y26336D01*
X14572Y26232D01*
X14730Y26167D01*
X14900Y26144D01*
X15070Y26167D01*
X15228Y26232D01*
X15364Y26336D01*
X15468Y26472D01*
X15533Y26630D01*
X15556Y26800D01*
X15533Y26970D01*
X15468Y27128D01*
X15364Y27264D01*
X15228Y27368D01*
X15070Y27433D01*
X14900Y27456D01*
X14730Y27433D01*
X14572Y27368D01*
X14436Y27264D01*
X14355Y27157D01*
X12450D01*
Y27525D01*
X12257D01*
Y27675D01*
X12425D01*
Y29175D01*
X11375D01*
Y27675D01*
X11543D01*
Y27525D01*
X11350D01*
Y26234D01*
X11350Y26225D01*
X11329Y26107D01*
X7423D01*
X5632Y27898D01*
X5684Y28025D01*
X5750D01*
Y29325D01*
X5750D01*
Y29425D01*
X5750D01*
Y30725D01*
D02*
G37*
G36*
X54875Y32131D02*
X54705Y32108D01*
X54547Y32043D01*
X54411Y31939D01*
X54307Y31803D01*
X54242Y31645D01*
X54219Y31475D01*
X54242Y31305D01*
X54307Y31147D01*
X54411Y31011D01*
X54547Y30907D01*
X54705Y30842D01*
X54875Y30819D01*
X54892Y30822D01*
X54982Y30705D01*
X54967Y30670D01*
X54944Y30500D01*
X54967Y30330D01*
X55032Y30172D01*
X55136Y30036D01*
X55272Y29932D01*
X55430Y29867D01*
X55600Y29844D01*
X55770Y29867D01*
X55928Y29932D01*
X56064Y30036D01*
X56145Y30143D01*
X57193D01*
X62213Y25123D01*
X62329Y25045D01*
X62465Y25018D01*
X63877D01*
X64566Y24329D01*
X64542Y24270D01*
X64519Y24100D01*
X64542Y23930D01*
X64607Y23772D01*
X64711Y23636D01*
X64847Y23532D01*
X65005Y23467D01*
X65175Y23444D01*
X65345Y23467D01*
X65503Y23532D01*
X65639Y23636D01*
X65743Y23772D01*
X65808Y23930D01*
X65831Y24100D01*
X65808Y24270D01*
X65743Y24428D01*
X65639Y24564D01*
X65503Y24668D01*
X65345Y24733D01*
X65175Y24756D01*
X65152Y24753D01*
X64277Y25627D01*
X64162Y25705D01*
X64025Y25732D01*
X62613D01*
X57593Y30752D01*
X57593Y30752D01*
X57477Y30830D01*
X57340Y30857D01*
X56145D01*
X56064Y30964D01*
X56031Y30989D01*
X56074Y31116D01*
X59476D01*
X61421Y29171D01*
X61421Y29171D01*
X61538Y29093D01*
X61675Y29066D01*
X64201Y29066D01*
X64221Y29046D01*
X64338Y28968D01*
X64475Y28941D01*
X65251D01*
X65970Y28222D01*
Y26846D01*
X65865Y26766D01*
X65761Y26630D01*
X65696Y26472D01*
X65673Y26302D01*
X65696Y26132D01*
X65761Y25974D01*
X65865Y25839D01*
X66001Y25734D01*
X66159Y25669D01*
X66329Y25646D01*
X66499Y25669D01*
X66657Y25734D01*
X66793Y25839D01*
X66897Y25974D01*
X66962Y26132D01*
X66985Y26302D01*
X66962Y26472D01*
X66897Y26630D01*
X66793Y26766D01*
X66688Y26846D01*
Y28371D01*
X66661Y28508D01*
X66583Y28625D01*
X65654Y29554D01*
X65537Y29632D01*
X65400Y29659D01*
X64624D01*
X64604Y29679D01*
X64488Y29757D01*
X64350Y29784D01*
X61824Y29784D01*
X59879Y31729D01*
X59879Y31729D01*
X59763Y31807D01*
X59625Y31834D01*
X55419D01*
X55339Y31939D01*
X55203Y32043D01*
X55045Y32108D01*
X54875Y32131D01*
D02*
G37*
G36*
X77550Y36150D02*
X73450D01*
Y32450D01*
X75652D01*
X75674Y32277D01*
X75770Y32046D01*
X75922Y31847D01*
X75967Y31803D01*
Y31100D01*
Y28875D01*
X72450D01*
Y25175D01*
X81050D01*
Y28875D01*
X77883D01*
Y31100D01*
Y32200D01*
X77875Y32262D01*
Y32550D01*
X77808D01*
X77755Y32679D01*
X77603Y32878D01*
X77558Y32922D01*
Y34050D01*
X77550Y34112D01*
Y36150D01*
D02*
G37*
G36*
X90050Y23120D02*
X89799Y23087D01*
X89565Y22990D01*
X89364Y22836D01*
X89210Y22635D01*
X89113Y22401D01*
X88987D01*
X88890Y22635D01*
X88736Y22836D01*
X88535Y22990D01*
X88301Y23087D01*
X88050Y23120D01*
X87799Y23087D01*
X87565Y22990D01*
X87364Y22836D01*
X87210Y22635D01*
X87113Y22401D01*
X87080Y22150D01*
X87113Y21899D01*
X87210Y21665D01*
X87364Y21464D01*
X87565Y21310D01*
X87799Y21213D01*
Y21087D01*
X87565Y20990D01*
X87364Y20836D01*
X87210Y20635D01*
X87113Y20401D01*
X87080Y20150D01*
X87113Y19899D01*
X87210Y19665D01*
X87344Y19490D01*
Y16800D01*
X87368Y16617D01*
X87439Y16447D01*
X87450Y16432D01*
Y16350D01*
X87513D01*
X87551Y16301D01*
X87576Y16276D01*
X87722Y16164D01*
X87892Y16093D01*
X88075Y16069D01*
X88258Y16093D01*
X88428Y16164D01*
X88574Y16276D01*
X88631Y16350D01*
X88700D01*
Y16455D01*
X88757Y16592D01*
X88781Y16775D01*
X88757Y16958D01*
X88756Y16960D01*
Y19490D01*
X88890Y19665D01*
X88987Y19899D01*
X89113D01*
X89210Y19665D01*
X89344Y19490D01*
Y18600D01*
X89344Y18600D01*
X89344Y18600D01*
X89357Y18498D01*
X89368Y18417D01*
X89368Y18417D01*
X89368Y18417D01*
X89405Y18327D01*
X89439Y18247D01*
X89439Y18247D01*
X89439Y18247D01*
X89493Y18177D01*
X89551Y18101D01*
X89551Y18101D01*
X89551Y18101D01*
X89619Y18033D01*
Y16775D01*
X89643Y16592D01*
X89700Y16455D01*
Y16350D01*
X89769D01*
X89826Y16276D01*
X89972Y16164D01*
X90142Y16093D01*
X90325Y16069D01*
X90508Y16093D01*
X90678Y16164D01*
X90824Y16276D01*
X90881Y16350D01*
X90950D01*
Y16455D01*
X91007Y16592D01*
X91031Y16775D01*
Y18325D01*
X91031Y18325D01*
X91031Y18325D01*
X91018Y18427D01*
X91007Y18508D01*
X91007Y18508D01*
X91007Y18508D01*
X90970Y18598D01*
X90936Y18678D01*
X90936Y18678D01*
X90936Y18678D01*
X90882Y18748D01*
X90824Y18824D01*
X90824Y18824D01*
X90824Y18824D01*
X90756Y18892D01*
Y19490D01*
X90890Y19665D01*
X90987Y19899D01*
X91020Y20150D01*
X90987Y20401D01*
X90890Y20635D01*
X90736Y20836D01*
X90535Y20990D01*
X90301Y21087D01*
Y21213D01*
X90535Y21310D01*
X90736Y21464D01*
X90890Y21665D01*
X90987Y21899D01*
X91020Y22150D01*
X90987Y22401D01*
X90890Y22635D01*
X90736Y22836D01*
X90535Y22990D01*
X90301Y23087D01*
X90050Y23120D01*
D02*
G37*
G36*
X77000Y20131D02*
X76830Y20108D01*
X76672Y20043D01*
X76536Y19939D01*
X76455Y19832D01*
X75950D01*
Y19950D01*
X74750D01*
Y18650D01*
X74825D01*
Y17150D01*
X75875D01*
Y18650D01*
X75950D01*
Y19045D01*
X76023Y19118D01*
X76455D01*
X76536Y19011D01*
X76672Y18907D01*
X76830Y18842D01*
X77000Y18819D01*
X77170Y18842D01*
X77328Y18907D01*
X77464Y19011D01*
X77568Y19147D01*
X77633Y19305D01*
X77656Y19475D01*
X77633Y19645D01*
X77568Y19803D01*
X77464Y19939D01*
X77328Y20043D01*
X77170Y20108D01*
X77000Y20131D01*
D02*
G37*
G36*
X81050Y24275D02*
X72450D01*
Y20575D01*
X77477D01*
X78644Y19408D01*
Y18434D01*
X77775D01*
Y18650D01*
X76725D01*
Y17150D01*
X77775D01*
Y17516D01*
X78655D01*
X78668Y17417D01*
X78700Y17340D01*
Y17000D01*
X78982D01*
X78997Y16989D01*
X79167Y16918D01*
X79194Y16914D01*
Y16786D01*
X79141Y16779D01*
X78947Y16699D01*
X78818Y16600D01*
X78700D01*
Y16467D01*
X78651Y16403D01*
X78571Y16209D01*
X78548Y16034D01*
X77775D01*
Y16250D01*
X76725D01*
Y14750D01*
X77775D01*
Y15116D01*
X78543D01*
Y10032D01*
X77200D01*
Y10325D01*
X76100D01*
Y9025D01*
X77200D01*
Y9318D01*
X78543D01*
Y7810D01*
X78414Y7711D01*
X78260Y7510D01*
X78163Y7276D01*
X78130Y7025D01*
X78163Y6774D01*
X78260Y6540D01*
X78293Y6496D01*
Y5554D01*
X78260Y5510D01*
X78163Y5276D01*
X78130Y5025D01*
X78163Y4774D01*
X78260Y4540D01*
X78414Y4339D01*
X78615Y4185D01*
X78849Y4088D01*
X79100Y4055D01*
X79351Y4088D01*
X79585Y4185D01*
X79786Y4339D01*
X79940Y4540D01*
X80037Y4774D01*
X80163D01*
X80260Y4540D01*
X80414Y4339D01*
X80615Y4185D01*
X80849Y4088D01*
X81100Y4055D01*
X81351Y4088D01*
X81585Y4185D01*
X81786Y4339D01*
X81940Y4540D01*
X82037Y4774D01*
X82070Y5025D01*
X82037Y5276D01*
X81940Y5510D01*
X81907Y5554D01*
Y6496D01*
X81940Y6540D01*
X82037Y6774D01*
X82070Y7025D01*
X82037Y7276D01*
X81940Y7510D01*
X81786Y7711D01*
X81585Y7865D01*
X81351Y7962D01*
X81100Y7995D01*
X80849Y7962D01*
X80615Y7865D01*
X80571Y7832D01*
X80473D01*
X80359Y7879D01*
X80157Y7906D01*
Y9675D01*
Y16000D01*
X80129Y16209D01*
X80049Y16403D01*
X80000Y16467D01*
Y16600D01*
X79882D01*
X79753Y16699D01*
X79559Y16779D01*
X79506Y16786D01*
Y16914D01*
X79533Y16918D01*
X79703Y16989D01*
X79718Y17000D01*
X80000D01*
Y17340D01*
X80032Y17417D01*
X80056Y17600D01*
Y19700D01*
X80032Y19883D01*
X79961Y20053D01*
X79849Y20199D01*
X79591Y20458D01*
X79639Y20575D01*
X81050D01*
Y24275D01*
D02*
G37*
G36*
X68425Y25631D02*
X68255Y25608D01*
X68097Y25543D01*
X67961Y25439D01*
X67857Y25303D01*
X67792Y25145D01*
X67769Y24975D01*
X67792Y24805D01*
X67857Y24647D01*
X67961Y24511D01*
X68097Y24407D01*
X68255Y24342D01*
X68425Y24319D01*
X68558Y24337D01*
X69968Y22927D01*
Y16495D01*
X69861Y16414D01*
X69757Y16278D01*
X69692Y16120D01*
X69669Y15950D01*
X69692Y15780D01*
X69757Y15622D01*
X69861Y15486D01*
X69997Y15382D01*
X70155Y15317D01*
X70325Y15294D01*
X70495Y15317D01*
X70653Y15382D01*
X70789Y15486D01*
X70893Y15622D01*
X70911Y15666D01*
X70966Y15686D01*
X71042Y15692D01*
X71143Y15604D01*
Y12394D01*
X71170Y12257D01*
X71248Y12141D01*
X72216Y11173D01*
X72332Y11095D01*
X72469Y11068D01*
X73400D01*
Y10675D01*
X73543D01*
Y10325D01*
X73350D01*
Y9025D01*
X74450D01*
Y9318D01*
X74600D01*
Y9025D01*
X75700D01*
Y10325D01*
X74600D01*
Y10032D01*
X74450D01*
Y10325D01*
X74257D01*
Y10675D01*
X74600D01*
Y11975D01*
X73400D01*
Y11782D01*
X72616D01*
X71857Y12541D01*
Y14400D01*
X73025D01*
X73025Y14300D01*
X74325D01*
Y14743D01*
X75500D01*
X75534Y14750D01*
X75875D01*
Y16250D01*
X74825D01*
Y15457D01*
X74325D01*
Y15500D01*
X73682D01*
Y16230D01*
X73789Y16311D01*
X73893Y16447D01*
X73958Y16605D01*
X73981Y16775D01*
X73958Y16945D01*
X73893Y17103D01*
X73789Y17239D01*
X73653Y17343D01*
X73495Y17408D01*
X73325Y17431D01*
X73155Y17408D01*
X72997Y17343D01*
X72861Y17239D01*
X72757Y17103D01*
X72692Y16945D01*
X72669Y16775D01*
X72692Y16605D01*
X72757Y16447D01*
X72861Y16311D01*
X72968Y16230D01*
Y15500D01*
X71857D01*
Y15630D01*
X71964Y15711D01*
X72068Y15847D01*
X72133Y16005D01*
X72156Y16175D01*
X72133Y16345D01*
X72068Y16503D01*
X71964Y16639D01*
X71828Y16743D01*
X71670Y16808D01*
X71500Y16831D01*
X71330Y16808D01*
X71172Y16743D01*
X71036Y16639D01*
X70932Y16503D01*
X70914Y16459D01*
X70859Y16439D01*
X70783Y16433D01*
X70682Y16521D01*
Y23075D01*
X70655Y23212D01*
X70577Y23327D01*
X69063Y24842D01*
X69081Y24975D01*
X69058Y25145D01*
X68993Y25303D01*
X68889Y25439D01*
X68753Y25543D01*
X68595Y25608D01*
X68425Y25631D01*
D02*
G37*
G36*
X15900Y14350D02*
X14850D01*
Y13932D01*
X14225D01*
Y14225D01*
X13125D01*
Y12925D01*
X14225D01*
Y13218D01*
X14850D01*
Y12850D01*
X15900D01*
Y14350D01*
D02*
G37*
G36*
X84778Y34433D02*
X84608Y34411D01*
X84450Y34345D01*
X84314Y34241D01*
X84210Y34105D01*
X84144Y33947D01*
X84122Y33778D01*
X84144Y33608D01*
X84210Y33450D01*
X84314Y33314D01*
X84319Y33310D01*
Y14517D01*
X84314Y14514D01*
X84210Y14378D01*
X84144Y14220D01*
X84122Y14050D01*
X84144Y13880D01*
X84210Y13722D01*
X84314Y13586D01*
X84450Y13482D01*
X84608Y13417D01*
X84778Y13394D01*
X84947Y13417D01*
X85105Y13482D01*
X85241Y13586D01*
X85345Y13722D01*
X85411Y13880D01*
X85433Y14050D01*
X85411Y14220D01*
X85345Y14378D01*
X85241Y14514D01*
X85236Y14517D01*
Y33310D01*
X85241Y33314D01*
X85345Y33450D01*
X85411Y33608D01*
X85433Y33778D01*
X85411Y33947D01*
X85345Y34105D01*
X85241Y34241D01*
X85105Y34345D01*
X84947Y34411D01*
X84778Y34433D01*
D02*
G37*
G36*
X22175Y15925D02*
X21125D01*
Y14425D01*
X21318D01*
Y14175D01*
X21025D01*
Y13075D01*
X22325D01*
Y14175D01*
X22032D01*
Y14425D01*
X22175D01*
Y15925D01*
D02*
G37*
G36*
X36525Y7370D02*
X36274Y7337D01*
X36040Y7240D01*
X35839Y7086D01*
X35685Y6885D01*
X35588Y6651D01*
X35555Y6400D01*
X35588Y6149D01*
X35685Y5915D01*
X35839Y5714D01*
X36040Y5560D01*
X36274Y5463D01*
Y5337D01*
X36040Y5240D01*
X35839Y5086D01*
X35685Y4885D01*
X35588Y4651D01*
X35555Y4400D01*
X35588Y4149D01*
X35685Y3915D01*
X35839Y3714D01*
X36040Y3560D01*
X36274Y3463D01*
X36525Y3430D01*
X36776Y3463D01*
X37010Y3560D01*
X37211Y3714D01*
X37365Y3915D01*
X37462Y4149D01*
X37495Y4400D01*
X37462Y4651D01*
X37365Y4885D01*
X37211Y5086D01*
X37010Y5240D01*
X36776Y5337D01*
Y5463D01*
X37010Y5560D01*
X37211Y5714D01*
X37365Y5915D01*
X37462Y6149D01*
X37495Y6400D01*
X37462Y6651D01*
X37365Y6885D01*
X37211Y7086D01*
X37010Y7240D01*
X36776Y7337D01*
X36525Y7370D01*
D02*
G37*
G36*
X14525Y6870D02*
X14274Y6837D01*
X14040Y6740D01*
X13839Y6586D01*
X13685Y6385D01*
X13588Y6151D01*
X13555Y5900D01*
X13588Y5649D01*
X13685Y5415D01*
X13839Y5214D01*
X14040Y5060D01*
X14274Y4963D01*
Y4837D01*
X14040Y4740D01*
X13839Y4586D01*
X13685Y4385D01*
X13588Y4151D01*
X13555Y3900D01*
X13588Y3649D01*
X13685Y3415D01*
X13839Y3214D01*
X14040Y3060D01*
X14274Y2963D01*
X14525Y2930D01*
X14776Y2963D01*
X15010Y3060D01*
X15211Y3214D01*
X15365Y3415D01*
X15462Y3649D01*
X15495Y3900D01*
X15462Y4151D01*
X15365Y4385D01*
X15211Y4586D01*
X15010Y4740D01*
X14776Y4837D01*
Y4963D01*
X15010Y5060D01*
X15211Y5214D01*
X15365Y5415D01*
X15462Y5649D01*
X15495Y5900D01*
X15462Y6151D01*
X15365Y6385D01*
X15211Y6586D01*
X15010Y6740D01*
X14776Y6837D01*
X14525Y6870D01*
D02*
G37*
G36*
X4725Y8049D02*
X4205Y8008D01*
X3698Y7886D01*
X3216Y7687D01*
X2771Y7414D01*
X2375Y7075D01*
X2036Y6679D01*
X1763Y6234D01*
X1564Y5752D01*
X1442Y5245D01*
X1401Y4725D01*
X1442Y4205D01*
X1564Y3698D01*
X1763Y3216D01*
X2036Y2771D01*
X2375Y2375D01*
X2771Y2036D01*
X3216Y1763D01*
X3698Y1564D01*
X4205Y1442D01*
X4725Y1401D01*
X5245Y1442D01*
X5752Y1564D01*
X6234Y1763D01*
X6679Y2036D01*
X7075Y2375D01*
X7414Y2771D01*
X7687Y3216D01*
X7886Y3698D01*
X8008Y4205D01*
X8049Y4725D01*
X8008Y5245D01*
X7886Y5752D01*
X7687Y6234D01*
X7414Y6679D01*
X7075Y7075D01*
X6679Y7414D01*
X6234Y7687D01*
X5752Y7886D01*
X5245Y8008D01*
X4725Y8049D01*
D02*
G37*
G36*
X87775Y8105D02*
X87246Y8064D01*
X86730Y7940D01*
X86240Y7737D01*
X85788Y7460D01*
X85385Y7115D01*
X85040Y6712D01*
X84763Y6260D01*
X84560Y5769D01*
X84436Y5254D01*
X84395Y4725D01*
X84436Y4196D01*
X84560Y3680D01*
X84763Y3190D01*
X85040Y2738D01*
X85385Y2335D01*
X85788Y1990D01*
X86240Y1713D01*
X86730Y1510D01*
X87246Y1386D01*
X87775Y1345D01*
X88304Y1386D01*
X88820Y1510D01*
X89310Y1713D01*
X89762Y1990D01*
X90165Y2335D01*
X90510Y2738D01*
X90787Y3190D01*
X90990Y3680D01*
X91114Y4196D01*
X91155Y4725D01*
X91114Y5254D01*
X90990Y5769D01*
X90787Y6260D01*
X90510Y6712D01*
X90165Y7115D01*
X89762Y7460D01*
X89310Y7737D01*
X88820Y7940D01*
X88304Y8064D01*
X87775Y8105D01*
D02*
G37*
%LPD*%
G36*
X55119Y89933D02*
Y89060D01*
X54985Y88885D01*
X54888Y88651D01*
X54762D01*
X54665Y88885D01*
X54511Y89086D01*
X54310Y89240D01*
X54076Y89337D01*
X53825Y89370D01*
X53574Y89337D01*
X53340Y89240D01*
X53139Y89086D01*
X52985Y88885D01*
X52888Y88651D01*
X52762D01*
X52665Y88885D01*
X52511Y89086D01*
X52310Y89240D01*
X52076Y89337D01*
X51825Y89370D01*
X51574Y89337D01*
X51548Y89326D01*
X50899Y89974D01*
X50836Y90017D01*
X50874Y90144D01*
X54908D01*
X55119Y89933D01*
D02*
G37*
G36*
X88174Y90428D02*
X88588Y90329D01*
X88981Y90166D01*
X89344Y89944D01*
X89667Y89667D01*
X89944Y89344D01*
X90166Y88981D01*
X90329Y88588D01*
X90428Y88174D01*
X90461Y87750D01*
X90428Y87326D01*
X90329Y86912D01*
X90166Y86519D01*
X89944Y86156D01*
X89667Y85833D01*
X89344Y85556D01*
X88981Y85334D01*
X88588Y85171D01*
X88174Y85072D01*
X87750Y85039D01*
X87326Y85072D01*
X86912Y85171D01*
X86519Y85334D01*
X86156Y85556D01*
X85833Y85833D01*
X85556Y86156D01*
X85334Y86519D01*
X85171Y86912D01*
X85072Y87326D01*
X85039Y87750D01*
X85072Y88174D01*
X85171Y88588D01*
X85334Y88981D01*
X85556Y89344D01*
X85833Y89667D01*
X86156Y89944D01*
X86519Y90166D01*
X86912Y90329D01*
X87326Y90428D01*
X87750Y90461D01*
X88174Y90428D01*
D02*
G37*
%LPC*%
G36*
X87775Y89458D02*
X87442Y89425D01*
X87121Y89328D01*
X86826Y89170D01*
X86567Y88958D01*
X86355Y88699D01*
X86197Y88404D01*
X86100Y88083D01*
X86067Y87750D01*
X86100Y87417D01*
X86197Y87096D01*
X86355Y86801D01*
X86567Y86542D01*
X86826Y86330D01*
X87121Y86172D01*
X87442Y86075D01*
X87775Y86042D01*
X88108Y86075D01*
X88429Y86172D01*
X88724Y86330D01*
X88983Y86542D01*
X89195Y86801D01*
X89353Y87096D01*
X89450Y87417D01*
X89483Y87750D01*
X89450Y88083D01*
X89353Y88404D01*
X89195Y88699D01*
X88983Y88958D01*
X88724Y89170D01*
X88429Y89328D01*
X88108Y89425D01*
X87775Y89458D01*
D02*
G37*
%LPD*%
G36*
X26017Y13450D02*
X26049Y13202D01*
X26145Y12971D01*
X26270Y12809D01*
X26220Y12682D01*
X25875D01*
Y14525D01*
X24875D01*
Y12694D01*
X24097D01*
X24053Y12821D01*
X24153Y12897D01*
X24305Y13096D01*
X24401Y13327D01*
X24433Y13575D01*
Y16442D01*
X26017D01*
Y13450D01*
D02*
G37*
G36*
X5140Y7348D02*
X5546Y7250D01*
X5931Y7091D01*
X6286Y6873D01*
X6603Y6603D01*
X6873Y6286D01*
X7091Y5931D01*
X7250Y5546D01*
X7348Y5140D01*
X7380Y4725D01*
X7348Y4310D01*
X7250Y3904D01*
X7091Y3520D01*
X6873Y3164D01*
X6603Y2847D01*
X6286Y2577D01*
X5931Y2359D01*
X5546Y2200D01*
X5140Y2102D01*
X4725Y2070D01*
X4310Y2102D01*
X3904Y2200D01*
X3520Y2359D01*
X3164Y2577D01*
X2847Y2847D01*
X2577Y3164D01*
X2359Y3520D01*
X2200Y3904D01*
X2102Y4310D01*
X2070Y4725D01*
X2102Y5140D01*
X2200Y5546D01*
X2359Y5931D01*
X2577Y6286D01*
X2847Y6603D01*
X3164Y6873D01*
X3520Y7091D01*
X3904Y7250D01*
X4310Y7348D01*
X4725Y7380D01*
X5140Y7348D01*
D02*
G37*
%LPC*%
G36*
X4725Y6433D02*
X4392Y6400D01*
X4071Y6303D01*
X3776Y6145D01*
X3517Y5933D01*
X3305Y5674D01*
X3147Y5379D01*
X3050Y5058D01*
X3017Y4725D01*
X3050Y4392D01*
X3147Y4071D01*
X3305Y3776D01*
X3517Y3517D01*
X3776Y3305D01*
X4071Y3147D01*
X4392Y3050D01*
X4725Y3017D01*
X5058Y3050D01*
X5379Y3147D01*
X5674Y3305D01*
X5933Y3517D01*
X6145Y3776D01*
X6303Y4071D01*
X6400Y4392D01*
X6433Y4725D01*
X6400Y5058D01*
X6303Y5379D01*
X6145Y5674D01*
X5933Y5933D01*
X5674Y6145D01*
X5379Y6303D01*
X5058Y6400D01*
X4725Y6433D01*
D02*
G37*
%LPD*%
G36*
X88199Y7403D02*
X88613Y7304D01*
X89006Y7141D01*
X89369Y6919D01*
X89692Y6642D01*
X89969Y6319D01*
X90191Y5956D01*
X90354Y5563D01*
X90453Y5149D01*
X90486Y4725D01*
X90453Y4301D01*
X90354Y3887D01*
X90191Y3494D01*
X89969Y3131D01*
X89692Y2808D01*
X89369Y2531D01*
X89006Y2309D01*
X88613Y2146D01*
X88199Y2047D01*
X87775Y2014D01*
X87351Y2047D01*
X86937Y2146D01*
X86544Y2309D01*
X86181Y2531D01*
X85858Y2808D01*
X85581Y3131D01*
X85359Y3494D01*
X85196Y3887D01*
X85097Y4301D01*
X85064Y4725D01*
X85097Y5149D01*
X85196Y5563D01*
X85359Y5956D01*
X85581Y6319D01*
X85858Y6642D01*
X86181Y6919D01*
X86544Y7141D01*
X86937Y7304D01*
X87351Y7403D01*
X87775Y7436D01*
X88199Y7403D01*
D02*
G37*
%LPC*%
G36*
X87775Y6433D02*
X87442Y6400D01*
X87121Y6303D01*
X86826Y6145D01*
X86567Y5933D01*
X86355Y5674D01*
X86197Y5379D01*
X86100Y5058D01*
X86067Y4725D01*
X86100Y4392D01*
X86197Y4071D01*
X86355Y3776D01*
X86567Y3517D01*
X86826Y3305D01*
X87121Y3147D01*
X87442Y3050D01*
X87775Y3017D01*
X88108Y3050D01*
X88429Y3147D01*
X88724Y3305D01*
X88983Y3517D01*
X89195Y3776D01*
X89353Y4071D01*
X89450Y4392D01*
X89483Y4725D01*
X89450Y5058D01*
X89353Y5379D01*
X89195Y5674D01*
X88983Y5933D01*
X88724Y6145D01*
X88429Y6303D01*
X88108Y6400D01*
X87775Y6433D01*
D02*
G37*
%LPD*%
D10*
X6550Y92175D02*
G03*
X11294Y92182I2375J-1875D01*
G01*
X5523Y83988D02*
G03*
X434Y86420I-3323J-413D01*
G01*
X7712Y4725D02*
G03*
X7712Y4725I-2987J0D01*
G01*
X90818Y4725D02*
G03*
X90818Y4725I-3043J0D01*
G01*
X90793Y87750D02*
G03*
X90793Y87750I-3043J0D01*
G01*
X6557Y92182D02*
X11294D01*
X6550Y92175D02*
X6557Y92182D01*
X338Y81337D02*
Y86325D01*
Y81337D02*
X1155Y80520D01*
X2011D01*
X5473Y83981D01*
D11*
X53975Y79300D02*
D03*
X58575D02*
D03*
D12*
X72417Y77744D02*
D03*
X80817D02*
D03*
X6600Y55075D02*
D03*
X15000D02*
D03*
X44075Y79425D02*
D03*
X35675D02*
D03*
D13*
X26775Y59325D02*
D03*
Y62025D02*
D03*
X41050Y62175D02*
D03*
Y59475D02*
D03*
D14*
X76750Y22425D02*
D03*
Y27025D02*
D03*
X12675Y37500D02*
D03*
Y42100D02*
D03*
X86325Y65475D02*
D03*
Y60875D02*
D03*
D15*
X10950Y20400D02*
D03*
X13300Y21350D02*
D03*
Y19450D02*
D03*
X10950Y16600D02*
D03*
X13300Y17550D02*
D03*
Y15650D02*
D03*
D16*
X26625Y32175D02*
D03*
Y33675D02*
D03*
X21675Y12125D02*
D03*
Y13625D02*
D03*
X47175Y9175D02*
D03*
Y10675D02*
D03*
X50425Y27825D02*
D03*
Y26325D02*
D03*
X56225Y28950D02*
D03*
Y27450D02*
D03*
X20875Y67775D02*
D03*
Y69275D02*
D03*
X20500Y35250D02*
D03*
Y33750D02*
D03*
X20750Y80550D02*
D03*
Y82050D02*
D03*
X75250Y48325D02*
D03*
Y46825D02*
D03*
X72375Y13450D02*
D03*
Y14950D02*
D03*
X79250Y52200D02*
D03*
Y53700D02*
D03*
X79350Y16050D02*
D03*
Y17550D02*
D03*
X36925Y70725D02*
D03*
Y72225D02*
D03*
X69300Y79825D02*
D03*
Y78325D02*
D03*
X67825Y78325D02*
D03*
Y79825D02*
D03*
X8050Y63750D02*
D03*
Y62250D02*
D03*
X3425Y67025D02*
D03*
Y65525D02*
D03*
X78750Y58550D02*
D03*
Y60050D02*
D03*
X71625Y54600D02*
D03*
Y56100D02*
D03*
X83700Y41275D02*
D03*
Y42775D02*
D03*
Y44400D02*
D03*
Y45900D02*
D03*
X89375Y50725D02*
D03*
Y52225D02*
D03*
X44225Y49125D02*
D03*
Y50625D02*
D03*
X61950Y49475D02*
D03*
Y50975D02*
D03*
D17*
X58450Y50300D02*
D03*
X40450Y50325D02*
D03*
D18*
X56517Y47790D02*
D03*
X57787D02*
D03*
X59057D02*
D03*
X60327D02*
D03*
X56517Y52740D02*
D03*
X57787D02*
D03*
X59057D02*
D03*
X60327D02*
D03*
X42327Y52765D02*
D03*
X41057D02*
D03*
X39787D02*
D03*
X38517D02*
D03*
X42327Y47815D02*
D03*
X41057D02*
D03*
X39787D02*
D03*
X38517D02*
D03*
D19*
X28825Y13475D02*
D03*
X26925D02*
D03*
X27875Y11125D02*
D03*
X37500Y13300D02*
D03*
X35600D02*
D03*
X36550Y10950D02*
D03*
X25375Y13600D02*
D03*
X23475D02*
D03*
X24425Y11250D02*
D03*
X41275Y13300D02*
D03*
X39375D02*
D03*
X40325Y10950D02*
D03*
D20*
X21650Y15175D02*
D03*
X19750D02*
D03*
Y17575D02*
D03*
X20700D02*
D03*
X21650D02*
D03*
X20650Y76825D02*
D03*
X18750D02*
D03*
Y79225D02*
D03*
X19700D02*
D03*
X20650D02*
D03*
X18750Y73350D02*
D03*
X20650D02*
D03*
Y70950D02*
D03*
X19700D02*
D03*
X18750D02*
D03*
X75350Y17900D02*
D03*
X77250D02*
D03*
Y15500D02*
D03*
X76300D02*
D03*
X75350D02*
D03*
X11900Y30825D02*
D03*
X13800D02*
D03*
Y28425D02*
D03*
X12850D02*
D03*
X11900D02*
D03*
X85400Y52650D02*
D03*
X87300D02*
D03*
Y50250D02*
D03*
X86350D02*
D03*
X85400D02*
D03*
X30725Y70700D02*
D03*
X31675D02*
D03*
X32625D02*
D03*
Y73100D02*
D03*
X30725D02*
D03*
X8025Y67750D02*
D03*
X7075D02*
D03*
X6125D02*
D03*
Y65350D02*
D03*
X8025D02*
D03*
X43975Y10700D02*
D03*
X44925D02*
D03*
X45875D02*
D03*
Y13100D02*
D03*
X43975D02*
D03*
X54425Y25100D02*
D03*
X52525D02*
D03*
Y27500D02*
D03*
X53475D02*
D03*
X54425D02*
D03*
X15375Y13600D02*
D03*
X17275D02*
D03*
Y11200D02*
D03*
X16325D02*
D03*
X15375D02*
D03*
D21*
X30725Y8775D02*
D03*
X29225D02*
D03*
X48800Y46275D02*
D03*
X50300D02*
D03*
X25650Y52050D02*
D03*
X27150D02*
D03*
X60675Y57200D02*
D03*
X59175D02*
D03*
X28000Y48875D02*
D03*
X29500D02*
D03*
X52150Y44325D02*
D03*
X50650D02*
D03*
D22*
X49350Y62825D02*
D03*
Y59075D02*
D03*
D23*
X35175Y47250D02*
D03*
X36675D02*
D03*
X36650Y48800D02*
D03*
X35150D02*
D03*
X55000Y45450D02*
D03*
X56500D02*
D03*
Y43925D02*
D03*
X55000D02*
D03*
X41275Y14900D02*
D03*
X42775D02*
D03*
X72400Y9675D02*
D03*
X73900D02*
D03*
X75150D02*
D03*
X76650D02*
D03*
X64100Y81200D02*
D03*
X62600D02*
D03*
X10400Y26875D02*
D03*
X11900D02*
D03*
X10950Y34300D02*
D03*
X12450D02*
D03*
X82325Y48700D02*
D03*
X83825D02*
D03*
X3700Y30075D02*
D03*
X5200D02*
D03*
Y28675D02*
D03*
X3700D02*
D03*
X64525Y73025D02*
D03*
X63025D02*
D03*
X32275Y74700D02*
D03*
X30775D02*
D03*
X18700Y75100D02*
D03*
X20200D02*
D03*
X13675Y13575D02*
D03*
X12175D02*
D03*
X60275Y70900D02*
D03*
X61775D02*
D03*
X60275Y72350D02*
D03*
X61775D02*
D03*
D24*
X58025Y45325D02*
D03*
Y43925D02*
D03*
X62150Y52775D02*
D03*
Y54175D02*
D03*
X44300Y52750D02*
D03*
Y54150D02*
D03*
X79750Y49550D02*
D03*
Y50950D02*
D03*
X10475Y29450D02*
D03*
Y30850D02*
D03*
X74750Y57475D02*
D03*
Y56075D02*
D03*
X28975Y70525D02*
D03*
Y71925D02*
D03*
X73675Y13500D02*
D03*
Y14900D02*
D03*
X57800Y26550D02*
D03*
Y27950D02*
D03*
X56150Y25225D02*
D03*
Y23825D02*
D03*
D25*
X63600Y47600D02*
D03*
X62200D02*
D03*
X39750Y45325D02*
D03*
X38350D02*
D03*
X43725Y45250D02*
D03*
X42325D02*
D03*
X63475Y75450D02*
D03*
X62075D02*
D03*
X73950Y19300D02*
D03*
X75350D02*
D03*
X86800Y54725D02*
D03*
X85400D02*
D03*
X5700Y69500D02*
D03*
X7100D02*
D03*
X75400Y11325D02*
D03*
X74000D02*
D03*
X65150Y55475D02*
D03*
X66550D02*
D03*
X41100Y56675D02*
D03*
X42500D02*
D03*
X27050Y53775D02*
D03*
X25650D02*
D03*
X28000Y50600D02*
D03*
X29400D02*
D03*
X50725Y41450D02*
D03*
X52125D02*
D03*
X50100Y42800D02*
D03*
X48700D02*
D03*
D26*
X78780Y67800D02*
D03*
X77510D02*
D03*
X76240D02*
D03*
X74970D02*
D03*
X78780Y62900D02*
D03*
X77510D02*
D03*
X76240D02*
D03*
X74970D02*
D03*
X73130Y51800D02*
D03*
X71860D02*
D03*
X70590D02*
D03*
X69320D02*
D03*
X73130Y46900D02*
D03*
X71860D02*
D03*
X70590D02*
D03*
X69320D02*
D03*
X32255Y83475D02*
D03*
X30985D02*
D03*
X29715D02*
D03*
X28445D02*
D03*
X32255Y78575D02*
D03*
X30985D02*
D03*
X29715D02*
D03*
X28445D02*
D03*
D27*
X15925Y62195D02*
D03*
Y63465D02*
D03*
Y64735D02*
D03*
Y66005D02*
D03*
X11025Y62195D02*
D03*
Y63465D02*
D03*
Y64735D02*
D03*
Y66005D02*
D03*
D28*
X78775Y57025D02*
D03*
Y55125D02*
D03*
X76375D02*
D03*
Y56075D02*
D03*
Y57025D02*
D03*
X62075Y77150D02*
D03*
Y79050D02*
D03*
X64475D02*
D03*
Y78100D02*
D03*
Y77150D02*
D03*
X77600Y49850D02*
D03*
Y50800D02*
D03*
Y51750D02*
D03*
X75200D02*
D03*
Y49850D02*
D03*
X22100Y33675D02*
D03*
Y32725D02*
D03*
Y31775D02*
D03*
X24500D02*
D03*
Y33675D02*
D03*
D29*
X75500Y34300D02*
D03*
Y42700D02*
D03*
D30*
X38350Y8975D02*
D03*
Y10475D02*
D03*
X26325Y81875D02*
D03*
Y83375D02*
D03*
X67375Y50100D02*
D03*
Y51600D02*
D03*
X73225Y69675D02*
D03*
Y68175D02*
D03*
X19200Y66950D02*
D03*
Y65450D02*
D03*
X8570Y20475D02*
D03*
Y21975D02*
D03*
X44300Y57250D02*
D03*
Y58750D02*
D03*
D31*
X26775Y26775D02*
D03*
X29475D02*
D03*
X27250Y45575D02*
D03*
X24550D02*
D03*
X27275Y42300D02*
D03*
X24575D02*
D03*
X27275Y38875D02*
D03*
X24575D02*
D03*
D32*
X76925Y30950D02*
D03*
X80025D02*
D03*
X7475Y47900D02*
D03*
X4375D02*
D03*
X86565Y70150D02*
D03*
X89665D02*
D03*
D33*
X48875Y78825D02*
D03*
Y75725D02*
D03*
D34*
X36150Y55550D02*
D03*
X29350D02*
D03*
D35*
X50425Y54925D02*
D03*
Y48125D02*
D03*
D36*
X88075Y16775D02*
D03*
X90325D02*
D03*
D37*
X27325Y67725D02*
D03*
X24625D02*
D03*
X56400Y55125D02*
D03*
X59100D02*
D03*
X67725Y58450D02*
D03*
X65025D02*
D03*
X38437Y54950D02*
D03*
X41137D02*
D03*
X21275Y61875D02*
D03*
X23975D02*
D03*
X47750Y39750D02*
D03*
X50450D02*
D03*
X47725Y37500D02*
D03*
X50425D02*
D03*
X47700Y35375D02*
D03*
X50400D02*
D03*
X50575Y31325D02*
D03*
X53275D02*
D03*
D38*
X46145Y25930D02*
D03*
X48055Y24020D02*
D03*
D39*
X22675Y29000D02*
D03*
Y26300D02*
D03*
D40*
X55825Y88400D02*
Y90225D01*
X55200Y90850D02*
X55825Y90225D01*
X19500Y90850D02*
X55200D01*
X88050Y16800D02*
Y20150D01*
X90325Y16775D02*
Y18325D01*
X76925Y22125D02*
X79350Y19700D01*
Y17600D02*
Y19700D01*
X17825Y89175D02*
X19500Y90850D01*
X17825Y87725D02*
Y89175D01*
X78200Y66475D02*
Y67800D01*
X75713Y34088D02*
X75950Y34325D01*
X75050Y33425D02*
X75713Y34088D01*
X41100Y54675D02*
Y58925D01*
X59057Y52540D02*
Y59082D01*
X10950Y64735D02*
X12690D01*
X11035Y64750D02*
Y66020D01*
X14850Y55100D02*
X15850Y56100D01*
Y62195D02*
Y63465D01*
X39787Y52765D02*
Y56338D01*
X76240Y64515D02*
X78200Y66475D01*
X71860Y50110D02*
Y51800D01*
X59057Y59082D02*
X59075Y59100D01*
X88325Y43950D02*
Y45950D01*
X74970Y62900D02*
X76240D01*
X64150Y81200D02*
X66450D01*
X28445Y78575D02*
X29715D01*
X66450Y81200D02*
X67825Y79825D01*
X12690Y64735D02*
X13950Y63475D01*
X3700Y33275D02*
Y35275D01*
X76240Y62900D02*
Y64515D01*
X29715Y78575D02*
Y80440D01*
X9800Y37600D02*
X10200Y37200D01*
X86325Y43950D02*
X88325D01*
X86325Y45950D02*
X88325D01*
X71860Y51800D02*
X73130D01*
X29715Y80440D02*
X30985Y81710D01*
X13950Y63475D02*
X15840D01*
X88050Y16800D02*
X88075Y16775D01*
X90050Y18600D02*
X90325Y18325D01*
X90050Y18600D02*
Y20150D01*
X70050Y47440D02*
Y48300D01*
X71860Y50110D01*
X30985Y81710D02*
Y83475D01*
X5700Y33275D02*
Y35275D01*
D41*
X81623Y69442D02*
Y69777D01*
X43000Y73300D02*
X49236D01*
X43300Y85725D02*
X43950Y86375D01*
X45050D02*
X45975Y87300D01*
X43950Y86375D02*
X45050D01*
X64675Y86870D02*
X65266Y86279D01*
X67825Y69000D02*
X67950D01*
X49236Y73300D02*
X50725Y74789D01*
Y76625D01*
X51050Y76950D01*
X46625Y89650D02*
X50575D01*
X45975Y89000D02*
X46625Y89650D01*
X45975Y87300D02*
Y89000D01*
X80275Y68094D02*
X81623Y69442D01*
X80275Y58975D02*
Y68094D01*
Y58975D02*
X82400Y56850D01*
Y51475D02*
Y56850D01*
X81325Y50400D02*
X82400Y51475D01*
X84778Y14050D02*
Y33778D01*
X83875Y45950D02*
X86325D01*
X86325D01*
X50575Y89650D02*
X51825Y88400D01*
X51275Y82650D02*
Y85850D01*
X50682Y82057D02*
X51275Y82650D01*
X48718Y82057D02*
X50682D01*
X47825Y85550D02*
X49850Y83525D01*
X51275Y85850D02*
X51825Y86400D01*
X46850Y83925D02*
X48718Y82057D01*
X53375Y73675D02*
X56969D01*
X51925Y72225D02*
X53375Y73675D01*
X47825Y85550D02*
Y86400D01*
X63725Y36700D02*
X65414Y35011D01*
Y31495D02*
Y35011D01*
X32275Y74600D02*
Y75900D01*
X8050Y62210D02*
X11035D01*
X78775Y57025D02*
Y58625D01*
X7100Y67700D02*
Y70525D01*
X2750Y70925D02*
X6700D01*
X28050Y72950D02*
X29125Y71875D01*
X31725Y70675D02*
Y71450D01*
X54450Y25125D02*
X57375D01*
X79550Y50775D02*
X80875Y52100D01*
X36650Y47350D02*
X38482D01*
X39762Y45325D02*
Y47340D01*
X42302Y45052D02*
Y47340D01*
X8100Y63750D02*
Y65250D01*
X69150Y63725D02*
X72250Y60625D01*
X67950Y69000D02*
X69825Y67125D01*
X65850Y51025D02*
X66625Y51800D01*
X65850Y45250D02*
Y51025D01*
Y45250D02*
X71250Y39850D01*
X78850D02*
X78875Y39825D01*
X71250Y39850D02*
X78850D01*
X2750Y70925D02*
Y70950D01*
X6700Y70925D02*
X7100Y70525D01*
X26950Y29775D02*
X45725D01*
X73525Y55775D02*
X73825Y56075D01*
X30725Y74650D02*
X30750Y74675D01*
X75250Y48325D02*
Y49825D01*
X73525Y55350D02*
Y55775D01*
X36650Y47350D02*
Y48650D01*
X31300Y71875D02*
X31725Y71450D01*
X30725Y73100D02*
Y74650D01*
X8050Y65300D02*
X8100Y65250D01*
X77275Y15575D02*
X78925D01*
X77275Y17975D02*
X78975D01*
X73205Y46825D02*
X75075D01*
X73825Y56075D02*
X74750D01*
X76375D01*
X54425Y25100D02*
X54450Y25125D01*
X32250Y75925D02*
X32275Y75900D01*
X32255Y75970D02*
Y78575D01*
X3700Y30125D02*
Y33275D01*
X77650Y50775D02*
X79550D01*
X29125Y71875D02*
X31300D01*
X48500Y27450D02*
X49900Y26050D01*
X48500Y27450D02*
Y32250D01*
X78750Y60050D02*
Y62870D01*
X78780Y62900D01*
X85400Y54725D02*
Y57125D01*
Y52650D02*
Y54725D01*
X60275Y69475D02*
X60325Y69425D01*
X60275Y69475D02*
Y70900D01*
X59550Y73075D02*
Y73875D01*
Y73075D02*
X60275Y72350D01*
X61775Y73850D02*
X62075Y74150D01*
Y75450D01*
X61775Y70900D02*
Y72350D01*
Y73850D01*
X80875Y52100D02*
Y55200D01*
X62075Y75450D02*
Y77150D01*
D42*
X54475Y23125D02*
X55213Y22388D01*
X53713Y23888D02*
X54475Y23125D01*
X52513Y25087D02*
X53713Y23888D01*
X51550Y26050D02*
X52513Y25087D01*
X50425Y26050D02*
X51550D01*
D43*
X49900D02*
X50425D01*
X67825Y71400D02*
Y78325D01*
X64150Y79375D02*
Y81200D01*
X32625Y70700D02*
X54025D01*
X83650Y27343D02*
Y32225D01*
X82100Y27575D02*
X83150Y28625D01*
X82625Y33250D02*
X83650Y32225D01*
X74250Y53600D02*
X74750D01*
X74975Y53825D01*
X83850Y48700D02*
X85400Y50250D01*
X83825Y48700D02*
X83850D01*
X82625Y33250D02*
Y42175D01*
X82000Y32975D02*
Y46800D01*
Y32975D02*
X83150Y31825D01*
X82500Y26350D02*
X82657D01*
X73900Y9675D02*
Y11425D01*
X71500Y12394D02*
X72469Y11425D01*
X71500Y12394D02*
Y16175D01*
X72469Y11425D02*
X73900D01*
X65000Y24100D02*
X65150Y24250D01*
X5225Y27800D02*
Y30075D01*
X11900Y26800D02*
X14850D01*
X62465Y25375D02*
X64025D01*
X57340Y30500D02*
X62465Y25375D01*
X55600Y30500D02*
X57340D01*
X33954Y48800D02*
X35000D01*
X31275Y46121D02*
X33954Y48800D01*
X31275Y34775D02*
Y46121D01*
X58525Y62275D02*
X58700D01*
X65000Y6925D02*
X67400D01*
X59850Y1775D02*
X65000Y6925D01*
X56000Y1775D02*
X59850D01*
X54550Y3225D02*
X56000Y1775D01*
X55000Y43925D02*
Y44025D01*
Y40000D02*
Y43925D01*
X49275Y15750D02*
X50800Y14225D01*
X48250Y15750D02*
X49275D01*
X44700Y20325D02*
X46225Y18800D01*
Y17775D02*
Y18800D01*
Y17775D02*
X48250Y15750D01*
X50800Y3225D02*
Y14225D01*
X75350Y18950D02*
X75875Y19475D01*
X77000D01*
X47150Y10650D02*
X47175Y10625D01*
X47150Y10650D02*
X47200Y10700D01*
X18800Y73350D02*
Y75050D01*
Y73350D02*
X20700D01*
X55825Y3225D02*
Y7525D01*
X3375Y67025D02*
X4650D01*
X5375Y67750D02*
X6200D01*
X24450Y31825D02*
X25275D01*
X35000Y48800D02*
X35150Y48650D01*
X62550Y79525D02*
Y81200D01*
X24450Y33725D02*
X26625D01*
X44150Y50300D02*
X45775Y51925D01*
X20450Y75100D02*
X20850D01*
X61950Y50925D02*
X62450D01*
X72300Y14950D02*
X73500D01*
X73325Y15100D02*
X75500D01*
X64525Y70350D02*
Y77150D01*
X82000Y46800D02*
X83975Y48775D01*
X20475Y33725D02*
X22050D01*
X56425Y27500D02*
X58575Y25350D01*
X54425Y27500D02*
X56425D01*
X41275Y12975D02*
X41275D01*
Y14900D01*
X19175Y69300D02*
X22100D01*
X20625Y80475D02*
X22000D01*
X42327Y52765D02*
X44485D01*
X56517Y44025D02*
Y47590D01*
X60327D02*
X62190D01*
X61475Y49050D02*
X61950Y49525D01*
X16400Y17525D02*
X16425Y17550D01*
X12175Y15650D02*
Y18875D01*
X46675Y22550D02*
X46925D01*
X18425Y54025D02*
X24225Y59825D01*
X54775Y57075D02*
X54825Y57125D01*
X54775Y55975D02*
Y57075D01*
X8900Y15950D02*
X9900Y14950D01*
Y13925D02*
Y14950D01*
X23288Y12338D02*
X25375D01*
X23075Y12125D02*
X23288Y12338D01*
X21675Y12125D02*
X23075D01*
X25387Y12325D02*
X28225D01*
X25375Y12338D02*
X25387Y12325D01*
X25375Y12338D02*
Y13600D01*
X28225Y12325D02*
X28825Y12925D01*
Y13475D01*
X11975Y10175D02*
X17075D01*
X10975Y11175D02*
X11975Y10175D01*
X10975Y11175D02*
Y14700D01*
X17275Y10375D02*
Y11200D01*
X17075Y10175D02*
X17275Y10375D01*
X58325Y23175D02*
X61125D01*
X61150Y23200D01*
X56450Y21300D02*
X58325Y23175D01*
X58575Y25225D02*
Y25350D01*
X47200Y10700D02*
Y11900D01*
X45400Y23600D02*
X46675Y22550D01*
X12175Y13575D02*
Y15650D01*
X13300D01*
X12175Y18875D02*
X12750Y19450D01*
X13300D01*
X43975Y13100D02*
Y14650D01*
X43725Y14900D02*
X43975Y14650D01*
X42775Y14900D02*
X43725D01*
X41275Y12750D02*
Y12975D01*
X89175Y52650D02*
X89375Y52450D01*
X83225Y42775D02*
X83700D01*
X75075Y53825D02*
X76375Y55125D01*
X73500Y14950D02*
X73550Y14900D01*
X73750Y54100D02*
X74250Y53600D01*
X71625Y54600D02*
X72125Y54100D01*
X69725Y9250D02*
Y10050D01*
X62135Y52740D02*
X62150Y52725D01*
X59057Y47790D02*
Y48782D01*
X54025Y70700D02*
X54100Y70625D01*
X44485Y52765D02*
X44500Y52750D01*
X41057Y47815D02*
Y48482D01*
X25275Y31825D02*
X25575Y32125D01*
X22950Y31775D02*
X23325Y32150D01*
X22100Y31775D02*
X22950D01*
X22250Y80150D02*
Y80225D01*
X20475Y33725D02*
X20500Y33750D01*
X20850Y75100D02*
X21675Y74275D01*
X20250Y75100D02*
X20575Y74775D01*
X20250Y75100D02*
X20350Y75200D01*
X20450Y75100D02*
X20650Y75300D01*
X20625Y80475D02*
X20650Y80450D01*
X18750Y69725D02*
Y70950D01*
X18800Y75050D02*
X18850Y75100D01*
X83700Y42775D02*
Y44400D01*
X77600Y51750D02*
Y53350D01*
X73325Y15100D02*
Y16775D01*
X57787Y45363D02*
X57875Y45275D01*
X23325Y32150D02*
Y33225D01*
X20700Y70950D02*
X21675Y71925D01*
Y74275D01*
X20650Y75300D02*
Y76825D01*
Y79225D02*
Y80450D01*
X18750Y69725D02*
X19175Y69300D01*
X13800Y28425D02*
Y29175D01*
X4650Y67025D02*
X5375Y67750D01*
X83150Y28625D02*
Y31825D01*
X57787Y45363D02*
Y47590D01*
X45775Y51925D02*
Y59100D01*
X12925Y30050D02*
Y31550D01*
X88950Y50250D02*
X89375Y50675D01*
X82625Y42175D02*
X83225Y42775D01*
X76650Y9675D02*
X79350D01*
X73900D02*
X75150D01*
X77600Y51750D02*
X78800D01*
X79250Y52200D01*
X72125Y54100D02*
X73750D01*
X67825Y78325D02*
X69300D01*
X64150Y79375D02*
X64475Y79050D01*
X60327Y52740D02*
X62135D01*
X62075Y79050D02*
X62550Y79525D01*
X44300Y54150D02*
Y54450D01*
X27025Y31875D02*
X28375D01*
X25575Y32125D02*
X26375D01*
X23325Y33225D02*
X23775Y33675D01*
X24500D01*
X19950Y33200D02*
X20475Y33725D01*
X18750Y76825D02*
X20650D01*
X17700Y78175D02*
X18750Y79225D01*
X22000Y80475D02*
X22250Y80225D01*
X12925Y30050D02*
X13800Y29175D01*
X82657Y26350D02*
X83650Y27343D01*
X67400Y6925D02*
X69725Y9250D01*
X64025Y25375D02*
X65150Y24250D01*
X19950Y31525D02*
Y33200D01*
X87300Y50250D02*
X88950D01*
X87300Y52650D02*
X89175D01*
X50100Y21300D02*
X56450D01*
X62450Y50925D02*
X64975Y53450D01*
X58700Y62275D02*
X67825Y71400D01*
X13675Y13575D02*
X15350D01*
X16400Y11275D02*
Y17525D01*
X16325Y11200D02*
X16400Y11275D01*
X51450Y11900D02*
X55825Y7525D01*
X51450Y11900D02*
Y14050D01*
X51675Y14275D01*
X19200Y13475D02*
X19900D01*
X18300Y14375D02*
X19200Y13475D01*
X18300Y14375D02*
Y17575D01*
X19750D01*
X5225Y27800D02*
X7275Y25750D01*
X12925D01*
X8900Y15950D02*
Y18475D01*
X45875Y10700D02*
X47100D01*
X44925D02*
Y15750D01*
X43125Y17550D02*
X44925Y15750D01*
X37275Y17550D02*
X43125D01*
X21675Y12125D02*
X21850Y11950D01*
X21675Y13625D02*
Y15150D01*
X21650Y15175D02*
X21675Y15150D01*
X20700Y17575D02*
Y21350D01*
X65000Y24100D02*
X65175D01*
X59057Y48782D02*
X59325Y49050D01*
X61475D01*
X41590Y49015D02*
X43860D01*
X43875Y49000D01*
X41057Y48482D02*
X41590Y49015D01*
X37475Y12175D02*
Y12975D01*
X40700Y12175D02*
X41275Y12750D01*
X37475Y12175D02*
X40700D01*
X50575Y27500D02*
X52525D01*
X50425Y27650D02*
X50575Y27500D01*
X53950Y38950D02*
X55000Y40000D01*
X51925Y38950D02*
X53950D01*
X17700Y75100D02*
Y78175D01*
X42700Y54550D02*
X44200D01*
X44300Y54450D01*
X60775Y54425D02*
X61175D01*
X61425Y54175D01*
X62150D01*
X28375Y31875D02*
X31275Y34775D01*
X57625Y63450D02*
X64525Y70350D01*
X11900Y26875D02*
Y28425D01*
X18425Y46300D02*
Y54025D01*
X10925Y33550D02*
Y34025D01*
Y33550D02*
X12925Y31550D01*
X12450Y33700D02*
X13800Y32350D01*
Y30825D02*
Y32350D01*
X12450Y33700D02*
Y34300D01*
X10475Y30850D02*
X11875D01*
X10475D02*
Y32175D01*
X68425Y24975D02*
X70325Y23075D01*
Y15950D02*
Y23075D01*
X75350Y17900D02*
Y18950D01*
D44*
X46925Y22550D02*
X50425Y26050D01*
X29675Y20950D02*
X45325D01*
X20500Y75100D02*
X23725D01*
X45325Y20950D02*
X46925Y22550D01*
X17700Y75100D02*
X18375D01*
D45*
X65266Y86279D02*
X68475D01*
X70475D01*
X68475Y88279D02*
X70475D01*
X66084D02*
X68475D01*
X44525Y6400D02*
Y7125D01*
X40700Y10950D02*
X44525Y7125D01*
X40325Y10950D02*
X40700D01*
X44525Y4400D02*
Y6400D01*
X28200Y88025D02*
X43775D01*
X25938Y85763D02*
X28200Y88025D01*
X9675Y81650D02*
X11000D01*
X22850Y85763D02*
X25938D01*
X20437Y83350D02*
X22850Y85763D01*
X18729Y83350D02*
X20437D01*
X16929Y81550D02*
X18729Y83350D01*
X11300Y81550D02*
X16929D01*
X11200Y81650D02*
X11300Y81550D01*
X64675Y86870D02*
X66084Y88279D01*
X76925Y26725D02*
Y31100D01*
Y32200D01*
X76600Y32525D02*
X76925Y32200D01*
X76600Y32525D02*
Y34050D01*
X75950Y34325D02*
X76325D01*
X76600Y34050D01*
X3825Y20400D02*
X10950D01*
X24425Y10725D02*
X27925D01*
X29125Y6492D02*
Y9550D01*
X23475Y13575D02*
Y17400D01*
X26975Y13450D02*
Y17525D01*
X35575Y13300D02*
Y17400D01*
X58525Y81175D02*
X62325D01*
X86300Y59825D02*
X87075D01*
X16260Y65300D02*
X23575D01*
X24775Y83550D02*
X28000D01*
X64975Y53450D02*
Y59100D01*
X66625Y51800D02*
X69320D01*
X7425Y47525D02*
X12700D01*
X6450Y55100D02*
X7425Y54125D01*
Y47525D02*
Y54125D01*
X12700Y47525D02*
X12700D01*
X15850Y56100D02*
Y62195D01*
X29125Y4492D02*
Y6492D01*
X28000Y10675D02*
X29125Y9550D01*
X16425Y17550D02*
Y21350D01*
X23475Y17400D02*
X26800D01*
X89375Y52450D02*
Y57525D01*
X87075Y59825D02*
X89375Y57525D01*
X69900Y43950D02*
X71150Y42700D01*
X75500D01*
X5275Y72550D02*
X7325D01*
X3825Y18425D02*
Y20400D01*
X13300Y21350D02*
X16425D01*
X26150D02*
X26600Y20900D01*
X26800Y17400D02*
X26950Y17550D01*
X26975Y17525D01*
X26600Y17900D02*
X26950Y17550D01*
X13300D02*
X16425D01*
X35425D02*
X37275D01*
X35425D02*
X35575Y17400D01*
X37275Y17550D02*
X39375Y15450D01*
Y13300D02*
Y15450D01*
X10950Y16600D02*
Y20400D01*
X12675Y42100D02*
X12750Y42175D01*
X12700Y47525D02*
X12750Y42175D01*
X35300Y79800D02*
Y82375D01*
X89375Y47000D02*
Y50675D01*
X64975Y53450D02*
X66625Y51800D01*
X69320D02*
X70200D01*
X64975Y59100D02*
Y59550D01*
X64675Y81725D02*
Y86870D01*
X53200Y80550D02*
X53875Y81225D01*
X32255Y83475D02*
X34200D01*
X35300Y82375D01*
X28445Y83475D02*
X29435D01*
X15985Y65025D02*
X16260Y65300D01*
X15985Y65025D02*
Y65700D01*
X35300Y79800D02*
X35675Y79425D01*
X64150Y81200D02*
X64675Y81725D01*
X88325Y45950D02*
X89375Y47000D01*
X16425Y21350D02*
X20700D01*
X26150D01*
X36550Y10950D02*
X40325D01*
X24225Y83000D02*
X24775Y83550D01*
X3700Y33275D02*
X5700D01*
X5825Y34225D02*
X10725D01*
X12450Y34300D02*
Y37275D01*
X5275Y74550D02*
Y81050D01*
X8500Y84275D01*
X7325Y72550D02*
X7700Y72925D01*
Y79675D01*
X9675Y81650D01*
D46*
X80775Y78275D02*
X83525Y75525D01*
X84894Y70850D02*
X86500D01*
X11200Y77815D02*
Y81450D01*
X83525Y72219D02*
Y75525D01*
Y72219D02*
X84894Y70850D01*
X8500Y84275D02*
X15800D01*
X11025Y77640D02*
X11200Y77815D01*
D47*
X66329Y26302D02*
Y28371D01*
X65400Y29300D02*
X66329Y28371D01*
X64475Y29300D02*
X65400D01*
X64350Y29425D02*
X64475Y29300D01*
X61675Y29425D02*
X64350Y29425D01*
X59625Y31475D02*
X61675Y29425D01*
X54875Y31475D02*
X59625D01*
D48*
X86300Y65775D02*
Y69700D01*
D49*
X73350Y78325D02*
X78200Y73475D01*
Y67800D02*
Y73475D01*
X26600Y20900D02*
Y29000D01*
X16750Y28950D02*
X26550D01*
X27600Y35250D02*
Y54000D01*
X48800Y79050D02*
X53725D01*
X44450D02*
X48800D01*
X24225Y59825D02*
Y83000D01*
X24950Y59100D02*
X45775D01*
X59075D01*
X70500Y67800D02*
X74970D01*
X69900Y46162D02*
Y46900D01*
X69150Y63725D02*
X69825Y64400D01*
X64975Y59550D02*
X69150Y63725D01*
X74970Y67800D02*
X75775D01*
X69900Y43950D02*
Y46162D01*
X27600Y54000D02*
X29225Y55625D01*
X26550Y28950D02*
X26600Y29000D01*
Y31725D01*
Y17900D02*
Y20900D01*
X59075Y59100D02*
X64975D01*
X26625Y34275D02*
X27600Y35250D01*
X26950Y17550D02*
X33500D01*
X35425D01*
X69825Y64400D02*
Y67125D01*
X70500Y67800D01*
X24225Y59825D02*
X24950Y59100D01*
X11025Y75100D02*
X17700D01*
X15800Y84275D02*
X17825Y86300D01*
Y87725D01*
D50*
X50425Y28050D02*
Y48125D01*
X34300Y1250D02*
X47000D01*
X33500Y2050D02*
X34300Y1250D01*
X33500Y2050D02*
Y17550D01*
D51*
X79100Y7025D02*
X80075D01*
X79350D02*
Y9675D01*
X36025Y55625D02*
X37275Y56875D01*
X54825Y57125D02*
X57125D01*
X38825Y56875D02*
X39250D01*
X37275D02*
X38825D01*
X52550Y57125D02*
X54825D01*
X50425Y55000D02*
X52550Y57125D01*
X80075Y7025D02*
X80150Y7100D01*
X81100Y5025D02*
Y7025D01*
X79100Y5025D02*
Y7025D01*
X80075D02*
X81100D01*
X79350Y9675D02*
Y16000D01*
X30985Y83475D02*
X32255D01*
D52*
X41100Y52608D02*
Y54675D01*
D53*
X57787Y52740D02*
Y56463D01*
X57125Y57125D02*
X57787Y56463D01*
X39250Y56875D02*
X39787Y56338D01*
D54*
X8925Y90300D02*
D03*
X4725Y4725D02*
D03*
X87775Y4725D02*
D03*
X87775Y87750D02*
D03*
X2200Y83575D02*
D03*
D55*
X36525Y4400D02*
D03*
Y6400D02*
D03*
X38525Y4400D02*
D03*
Y6400D02*
D03*
X40525Y4400D02*
D03*
Y6400D02*
D03*
X42525Y4400D02*
D03*
Y6400D02*
D03*
X44525Y4400D02*
D03*
Y6400D02*
D03*
X47825Y86400D02*
D03*
Y88400D02*
D03*
X49825Y86400D02*
D03*
Y88400D02*
D03*
X51825Y86400D02*
D03*
Y88400D02*
D03*
X53825Y86400D02*
D03*
Y88400D02*
D03*
X55825Y86400D02*
D03*
Y88400D02*
D03*
X23125Y4492D02*
D03*
Y6492D02*
D03*
X25125Y4492D02*
D03*
Y6492D02*
D03*
X27125Y4492D02*
D03*
Y6492D02*
D03*
X29125Y4492D02*
D03*
Y6492D02*
D03*
X31125Y4492D02*
D03*
Y6492D02*
D03*
X10525Y3900D02*
D03*
Y5900D02*
D03*
X12525Y3900D02*
D03*
Y5900D02*
D03*
X14525Y3900D02*
D03*
Y5900D02*
D03*
X16525Y3900D02*
D03*
Y5900D02*
D03*
X18525Y3900D02*
D03*
Y5900D02*
D03*
X5825Y14425D02*
D03*
X3825D02*
D03*
X5825Y16425D02*
D03*
X3825D02*
D03*
X5825Y18425D02*
D03*
X3825D02*
D03*
X5825Y20425D02*
D03*
X3825D02*
D03*
X5825Y22425D02*
D03*
X3825D02*
D03*
X5275Y72550D02*
D03*
Y74550D02*
D03*
X3275Y72550D02*
D03*
Y74550D02*
D03*
X11025Y72560D02*
D03*
Y75100D02*
D03*
Y77640D02*
D03*
X73100Y5025D02*
D03*
Y7025D02*
D03*
X75100Y5025D02*
D03*
Y7025D02*
D03*
X77100Y5025D02*
D03*
Y7025D02*
D03*
X79100Y5025D02*
D03*
Y7025D02*
D03*
X81100Y5025D02*
D03*
Y7025D02*
D03*
X3700Y33275D02*
D03*
Y35275D02*
D03*
Y39275D02*
D03*
X5700Y35275D02*
D03*
X3700Y37275D02*
D03*
X5700Y33275D02*
D03*
Y37275D02*
D03*
X3700Y41275D02*
D03*
X5700Y39275D02*
D03*
Y41275D02*
D03*
X88325Y37950D02*
D03*
X86325D02*
D03*
X88325Y39950D02*
D03*
X86325D02*
D03*
X88325Y41950D02*
D03*
X86325D02*
D03*
X88325Y43950D02*
D03*
X86325D02*
D03*
X88325Y45950D02*
D03*
X86325D02*
D03*
X17825Y87725D02*
D03*
X20350D02*
D03*
X68475Y86279D02*
D03*
Y88279D02*
D03*
X70475Y86279D02*
D03*
Y88279D02*
D03*
X72475Y86279D02*
D03*
Y88279D02*
D03*
X74475Y86279D02*
D03*
Y88279D02*
D03*
X76475Y86279D02*
D03*
Y88279D02*
D03*
X88050Y22150D02*
D03*
Y20150D02*
D03*
X90050Y22150D02*
D03*
Y20150D02*
D03*
D56*
X59550Y3225D02*
D03*
X58300D02*
D03*
X57050D02*
D03*
X55800D02*
D03*
X54550D02*
D03*
X52050D02*
D03*
X50800D02*
D03*
D57*
X53300D02*
D03*
D58*
X43300Y85725D02*
D03*
X75425Y70675D02*
D03*
X55200Y46725D02*
D03*
X43150Y73150D02*
D03*
X67825Y69000D02*
D03*
X51050Y76950D02*
D03*
X81800Y69633D02*
D03*
X81325Y50400D02*
D03*
X84778Y33778D02*
D03*
X82100Y27575D02*
D03*
X74750Y53600D02*
D03*
X82500Y26350D02*
D03*
X84778Y14050D02*
D03*
X49850Y83525D02*
D03*
X43775Y88025D02*
D03*
X46850Y83925D02*
D03*
X56969Y73675D02*
D03*
X51925Y72225D02*
D03*
X63725Y36700D02*
D03*
X65414Y31495D02*
D03*
X54875Y31475D02*
D03*
X55600Y30500D02*
D03*
X66329Y26302D02*
D03*
X58525Y62275D02*
D03*
X47352Y8000D02*
D03*
X43725Y32181D02*
D03*
X47950Y18275D02*
D03*
X77000Y19475D02*
D03*
X9900Y13925D02*
D03*
X10975Y14700D02*
D03*
X19900Y13475D02*
D03*
X34100Y20900D02*
D03*
X33075D02*
D03*
X30300Y20875D02*
D03*
X31250Y20900D02*
D03*
X29350D02*
D03*
X32125D02*
D03*
X72250Y60625D02*
D03*
X78875Y39825D02*
D03*
X54775Y55975D02*
D03*
X61150Y23200D02*
D03*
X58575Y25225D02*
D03*
X47200Y11900D02*
D03*
X2750Y70950D02*
D03*
X45400Y23600D02*
D03*
X45725Y29775D02*
D03*
X73325Y16775D02*
D03*
X57625Y63450D02*
D03*
X50100Y21300D02*
D03*
X42550Y1250D02*
D03*
X69725Y10050D02*
D03*
X57375Y25125D02*
D03*
X38825Y56875D02*
D03*
X22100Y69300D02*
D03*
X19950Y31525D02*
D03*
X28050Y72950D02*
D03*
X59550Y73875D02*
D03*
X73525Y55350D02*
D03*
X77600Y53350D02*
D03*
X4650Y67025D02*
D03*
X22250Y80150D02*
D03*
X68425Y24975D02*
D03*
X54100Y70625D02*
D03*
X51675Y14275D02*
D03*
X18300Y17575D02*
D03*
X12925Y25750D02*
D03*
X8900Y18475D02*
D03*
X65175Y24100D02*
D03*
X48500Y32250D02*
D03*
X51925Y38950D02*
D03*
X42700Y54550D02*
D03*
X60775Y54425D02*
D03*
X71500Y16175D02*
D03*
X70325Y15950D02*
D03*
X85400Y57125D02*
D03*
X60325Y69425D02*
D03*
X14900Y26800D02*
D03*
X18425Y46300D02*
D03*
X10475Y32175D02*
D03*
X80875Y55200D02*
D03*
X47000Y1250D02*
D03*
X45825D02*
D03*
X44750D02*
D03*
X43700D02*
D03*
X53675Y23850D02*
D03*
X55213Y22388D02*
D03*
X54450Y23100D02*
D03*
X16475Y28925D02*
D03*
X17650Y28950D02*
D03*
X18850Y28925D02*
D03*
X20200D02*
D03*
%TF.MD5,67778ff94b8183ea23c08dfabda7ebc7*%
M02*
