%TF.GenerationSoftware,Altium Limited,Altium Designer,18.1.7 (191)*%
G04 Layer_Color=32896*
%FSLAX43Y43*%
%MOMM*%
%TF.FileFunction,Legend,Bot*%
%TF.Part,Single*%
G01*
G75*
%TA.AperFunction,NonConductor*%
%ADD10C,0.254*%
%ADD62C,0.250*%
%ADD63C,0.600*%
%ADD64C,0.127*%
%ADD65C,0.051*%
%ADD66C,0.200*%
%ADD67C,0.150*%
G36*
X79465Y80702D02*
X79543Y80695D01*
X79621Y80689D01*
X79686Y80682D01*
X79737Y80676D01*
X79770Y80669D01*
X79783D01*
X79977Y80637D01*
X80068Y80611D01*
X80152Y80591D01*
X80230Y80572D01*
X80282Y80559D01*
X80321Y80553D01*
X80327Y80546D01*
X80333D01*
X80366Y80572D01*
X80392Y80591D01*
X80450Y80617D01*
X80476D01*
X80495Y80624D01*
X80554D01*
X80593Y80611D01*
X80651Y80578D01*
X80696Y80533D01*
X80722Y80481D01*
X80742Y80423D01*
X80748Y80378D01*
X80755Y80345D01*
Y80339D01*
Y80332D01*
Y80293D01*
X80748Y80255D01*
X80742Y80164D01*
X80735Y80125D01*
Y80093D01*
X80729Y80067D01*
Y80060D01*
X80722Y80002D01*
X80716Y79943D01*
X80709Y79898D01*
X80703Y79859D01*
Y79833D01*
Y79814D01*
Y79801D01*
Y79794D01*
Y79730D01*
Y79652D01*
X80709Y79490D01*
X80716Y79315D01*
X80729Y79147D01*
X80735Y79069D01*
Y78991D01*
X80742Y78926D01*
X80748Y78868D01*
Y78816D01*
X80755Y78784D01*
Y78758D01*
Y78751D01*
X80781Y78699D01*
X80794Y78654D01*
X80800Y78615D01*
Y78609D01*
Y78602D01*
X80794Y78557D01*
X80787Y78518D01*
X80781Y78492D01*
X80774Y78479D01*
X80781Y78324D01*
X80787Y78259D01*
Y78201D01*
X80794Y78149D01*
Y78110D01*
Y78084D01*
Y78077D01*
X80800Y77948D01*
Y77889D01*
Y77844D01*
Y77799D01*
Y77766D01*
Y77747D01*
Y77740D01*
Y77598D01*
X80787Y77468D01*
X80781Y77352D01*
X80761Y77248D01*
X80748Y77157D01*
X80729Y77073D01*
X80703Y77002D01*
X80683Y76943D01*
X80664Y76892D01*
X80638Y76846D01*
X80619Y76807D01*
X80606Y76781D01*
X80586Y76762D01*
X80580Y76749D01*
X80567Y76736D01*
X80521Y76704D01*
X80463Y76671D01*
X80398Y76645D01*
X80327Y76619D01*
X80165Y76587D01*
X80003Y76561D01*
X79848Y76548D01*
X79776Y76542D01*
X79718D01*
X79666Y76535D01*
X79329D01*
X79219Y76542D01*
X79115D01*
X79025Y76548D01*
X78940Y76555D01*
X78869D01*
X78804Y76561D01*
X78752Y76568D01*
X78707Y76574D01*
X78675D01*
X78642Y76581D01*
X78623D01*
X78610Y76587D01*
X78597D01*
X78526Y76607D01*
X78474Y76639D01*
X78435Y76678D01*
X78409Y76723D01*
X78396Y76762D01*
X78383Y76794D01*
Y76820D01*
Y76827D01*
X78396Y76911D01*
X78422Y76976D01*
X78467Y77021D01*
X78513Y77054D01*
X78565Y77073D01*
X78610Y77080D01*
X78636Y77086D01*
X78688D01*
X78740Y77080D01*
X78778Y77073D01*
X78785Y77067D01*
X78791D01*
X78850Y77060D01*
X78895Y77054D01*
X79070D01*
X79148Y77047D01*
X79290D01*
X79342Y77041D01*
X79498D01*
X79595Y77034D01*
X79958D01*
X80042Y77047D01*
X80113Y77054D01*
X80159Y77067D01*
X80191Y77080D01*
X80217Y77086D01*
X80223Y77099D01*
X80230D01*
X80243Y77125D01*
X80256Y77157D01*
X80269Y77196D01*
X80275Y77242D01*
X80288Y77345D01*
X80295Y77455D01*
X80301Y77559D01*
X80308Y77604D01*
Y77650D01*
Y77682D01*
Y77708D01*
Y77727D01*
Y77734D01*
Y77838D01*
Y77928D01*
Y77967D01*
Y78000D01*
Y78019D01*
Y78026D01*
X80301Y78142D01*
Y78201D01*
X80295Y78252D01*
Y78291D01*
X80288Y78324D01*
Y78350D01*
Y78356D01*
X79161Y78453D01*
X78578Y78505D01*
X78500Y78524D01*
X78441Y78557D01*
X78403Y78596D01*
X78370Y78641D01*
X78357Y78680D01*
X78351Y78719D01*
X78344Y78745D01*
Y78751D01*
Y78790D01*
X78357Y78829D01*
X78383Y78887D01*
X78409Y78926D01*
X78416Y78939D01*
X78422D01*
X78448Y78965D01*
X78480Y78978D01*
X78539Y79004D01*
X78565D01*
X78584Y79010D01*
X78662D01*
X78740Y79004D01*
X78837Y78997D01*
X78934Y78985D01*
X79031Y78978D01*
X79109Y78965D01*
X79141D01*
X79167Y78959D01*
X79187D01*
X80256Y78861D01*
X80243Y79075D01*
X80236Y79166D01*
X80230Y79257D01*
Y79341D01*
X80223Y79419D01*
Y79490D01*
Y79555D01*
X80217Y79607D01*
Y79658D01*
Y79697D01*
Y79730D01*
Y79762D01*
Y79782D01*
Y79788D01*
Y79794D01*
Y79879D01*
X80223Y79963D01*
X80230Y79995D01*
Y80028D01*
X80236Y80047D01*
Y80054D01*
X80139Y80080D01*
X80042Y80099D01*
X79958Y80118D01*
X79880Y80138D01*
X79822Y80151D01*
X79770Y80157D01*
X79744Y80164D01*
X79731D01*
X79640Y80177D01*
X79562Y80190D01*
X79485Y80196D01*
X79420D01*
X79368Y80203D01*
X79290D01*
X79141Y80196D01*
X78999Y80183D01*
X78863Y80164D01*
X78740Y80144D01*
X78636Y80118D01*
X78597Y80105D01*
X78558Y80099D01*
X78526Y80093D01*
X78506Y80086D01*
X78493Y80080D01*
X78487D01*
X78461Y80073D01*
X78416D01*
X78377Y80080D01*
X78338Y80086D01*
X78286Y80112D01*
X78247Y80138D01*
X78234Y80151D01*
X78195Y80209D01*
X78176Y80267D01*
X78169Y80313D01*
Y80319D01*
Y80326D01*
X78176Y80384D01*
X78195Y80436D01*
X78221Y80475D01*
X78254Y80507D01*
X78286Y80533D01*
X78312Y80553D01*
X78331Y80566D01*
X78338D01*
X78480Y80611D01*
X78636Y80650D01*
X78798Y80676D01*
X78947Y80689D01*
X79018Y80695D01*
X79083Y80702D01*
X79141D01*
X79193Y80708D01*
X79290D01*
X79465Y80702D01*
D02*
G37*
G36*
X77029Y80624D02*
X77120D01*
X77152Y80617D01*
X77178D01*
X77275Y80604D01*
X77308Y80598D01*
X77340Y80591D01*
X77366Y80585D01*
X77385D01*
X77392Y80578D01*
X77463D01*
X77515Y80559D01*
X77554Y80533D01*
X77586Y80494D01*
X77612Y80455D01*
X77625Y80423D01*
X77638Y80397D01*
Y80391D01*
X77644Y80345D01*
X77651Y80287D01*
X77657Y80177D01*
X77664Y80125D01*
Y80080D01*
Y80054D01*
Y80041D01*
Y79697D01*
Y79639D01*
X77670Y79568D01*
X77677Y79412D01*
X77683Y79244D01*
X77696Y79075D01*
X77703Y78997D01*
Y78926D01*
X77709Y78861D01*
X77716Y78803D01*
Y78751D01*
X77722Y78719D01*
Y78693D01*
Y78686D01*
X77729Y78563D01*
X77735Y78453D01*
X77742Y78350D01*
Y78246D01*
X77748Y78155D01*
X77755Y78077D01*
Y78000D01*
Y77928D01*
Y77870D01*
X77761Y77818D01*
Y77773D01*
Y77734D01*
Y77708D01*
Y77689D01*
Y77676D01*
Y77669D01*
Y76943D01*
X77755Y76879D01*
X77729Y76827D01*
X77709Y76794D01*
X77703Y76781D01*
X77651Y76743D01*
X77599Y76723D01*
X77554Y76717D01*
X77541D01*
X77476Y76730D01*
X77424Y76749D01*
X77392Y76769D01*
X77379Y76781D01*
X77340Y76833D01*
X77320Y76885D01*
X77314Y76931D01*
Y76937D01*
Y76943D01*
Y77112D01*
Y77267D01*
Y77410D01*
X77308Y77540D01*
Y77656D01*
Y77760D01*
Y77857D01*
X77301Y77941D01*
Y78013D01*
Y78071D01*
Y78123D01*
X77295Y78168D01*
Y78201D01*
Y78220D01*
Y78233D01*
Y78239D01*
X77217Y78233D01*
X77152Y78226D01*
X77100Y78220D01*
X77061D01*
X77029Y78213D01*
X76997D01*
X76893Y78220D01*
X76789Y78226D01*
X76601Y78265D01*
X76433Y78317D01*
X76355Y78343D01*
X76290Y78375D01*
X76225Y78408D01*
X76174Y78434D01*
X76122Y78460D01*
X76083Y78486D01*
X76050Y78505D01*
X76031Y78524D01*
X76018Y78531D01*
X76012Y78537D01*
X75927Y78609D01*
X75856Y78680D01*
X75798Y78758D01*
X75739Y78842D01*
X75694Y78920D01*
X75662Y78997D01*
X75629Y79075D01*
X75603Y79153D01*
X75584Y79224D01*
X75571Y79289D01*
X75558Y79354D01*
X75552Y79399D01*
X75545Y79445D01*
Y79477D01*
Y79496D01*
Y79503D01*
X75552Y79594D01*
X75565Y79678D01*
X75584Y79756D01*
X75610Y79833D01*
X75681Y79969D01*
X75759Y80093D01*
X75843Y80190D01*
X75876Y80229D01*
X75908Y80261D01*
X75940Y80287D01*
X75960Y80306D01*
X75973Y80313D01*
X75979Y80319D01*
X76050Y80371D01*
X76128Y80423D01*
X76277Y80501D01*
X76420Y80553D01*
X76549Y80591D01*
X76660Y80617D01*
X76705Y80624D01*
X76744D01*
X76776Y80630D01*
X76964D01*
X77029Y80624D01*
D02*
G37*
G36*
X73374Y80365D02*
X73465Y80358D01*
X73640Y80319D01*
X73809Y80261D01*
X73958Y80203D01*
X74022Y80170D01*
X74081Y80138D01*
X74133Y80105D01*
X74171Y80080D01*
X74210Y80060D01*
X74236Y80041D01*
X74249Y80034D01*
X74256Y80028D01*
X74340Y79956D01*
X74418Y79892D01*
X74482Y79820D01*
X74541Y79749D01*
X74586Y79684D01*
X74625Y79620D01*
X74657Y79555D01*
X74683Y79496D01*
X74722Y79386D01*
X74735Y79341D01*
X74742Y79302D01*
Y79276D01*
X74748Y79250D01*
Y79237D01*
Y79231D01*
X74742Y79159D01*
X74735Y79101D01*
X74696Y78985D01*
X74638Y78887D01*
X74573Y78803D01*
X74515Y78745D01*
X74457Y78699D01*
X74418Y78667D01*
X74411Y78661D01*
X74405D01*
X74301Y78609D01*
X74184Y78570D01*
X74074Y78537D01*
X73971Y78518D01*
X73880Y78505D01*
X73809Y78499D01*
X73783Y78492D01*
X73744D01*
X73588Y78479D01*
X73446Y78460D01*
X73316Y78434D01*
X73212Y78401D01*
X73128Y78375D01*
X73063Y78350D01*
X73025Y78330D01*
X73012Y78324D01*
X72947Y78291D01*
X72895Y78252D01*
X72843Y78213D01*
X72804Y78168D01*
X72739Y78090D01*
X72701Y78013D01*
X72675Y77941D01*
X72662Y77883D01*
X72655Y77844D01*
Y77838D01*
Y77831D01*
X72662Y77760D01*
X72675Y77702D01*
X72694Y77637D01*
X72720Y77585D01*
X72791Y77481D01*
X72863Y77397D01*
X72940Y77332D01*
X73012Y77287D01*
X73038Y77267D01*
X73057Y77261D01*
X73070Y77248D01*
X73076D01*
X73200Y77196D01*
X73323Y77157D01*
X73439Y77125D01*
X73549Y77105D01*
X73647Y77092D01*
X73718Y77086D01*
X73783D01*
X73919Y77092D01*
X74042Y77105D01*
X74146Y77131D01*
X74230Y77157D01*
X74301Y77177D01*
X74346Y77203D01*
X74372Y77216D01*
X74385Y77222D01*
X74424Y77254D01*
X74463Y77287D01*
X74534Y77371D01*
X74560Y77410D01*
X74586Y77442D01*
X74599Y77462D01*
X74606Y77468D01*
X74644Y77514D01*
X74677Y77553D01*
X74716Y77578D01*
X74748Y77591D01*
X74774Y77604D01*
X74800Y77611D01*
X74819D01*
X74891Y77598D01*
X74949Y77578D01*
X74988Y77559D01*
X74994Y77546D01*
X75001D01*
X75027Y77520D01*
X75040Y77494D01*
X75059Y77436D01*
X75066Y77397D01*
Y77384D01*
Y77378D01*
X75059Y77313D01*
X75046Y77248D01*
X75020Y77190D01*
X74988Y77131D01*
X74917Y77034D01*
X74832Y76950D01*
X74748Y76885D01*
X74677Y76840D01*
X74644Y76820D01*
X74625Y76814D01*
X74612Y76801D01*
X74606D01*
X74463Y76743D01*
X74320Y76704D01*
X74184Y76671D01*
X74055Y76652D01*
X73945Y76639D01*
X73899D01*
X73860Y76632D01*
X73783D01*
X73666Y76639D01*
X73562Y76645D01*
X73355Y76678D01*
X73167Y76730D01*
X73089Y76756D01*
X73012Y76781D01*
X72940Y76807D01*
X72882Y76833D01*
X72830Y76859D01*
X72785Y76885D01*
X72746Y76905D01*
X72720Y76918D01*
X72707Y76931D01*
X72701D01*
X72603Y77002D01*
X72519Y77073D01*
X72448Y77144D01*
X72383Y77222D01*
X72331Y77300D01*
X72286Y77378D01*
X72253Y77455D01*
X72221Y77527D01*
X72202Y77598D01*
X72182Y77663D01*
X72176Y77721D01*
X72163Y77766D01*
Y77805D01*
X72156Y77838D01*
Y77857D01*
Y77864D01*
Y77941D01*
X72169Y78013D01*
X72202Y78142D01*
X72247Y78265D01*
X72299Y78362D01*
X72357Y78447D01*
X72403Y78505D01*
X72435Y78544D01*
X72441Y78557D01*
X72448D01*
X72577Y78661D01*
X72720Y78745D01*
X72869Y78810D01*
X73005Y78855D01*
X73135Y78881D01*
X73187Y78894D01*
X73238Y78900D01*
X73277Y78907D01*
X73303Y78913D01*
X73329D01*
X73465Y78926D01*
X73575Y78933D01*
X73666Y78946D01*
X73731Y78952D01*
X73783Y78959D01*
X73822Y78965D01*
X73841Y78972D01*
X73847D01*
X73912Y78991D01*
X73964Y79004D01*
X74016Y79030D01*
X74055Y79049D01*
X74120Y79095D01*
X74165Y79147D01*
X74191Y79185D01*
X74204Y79224D01*
X74210Y79250D01*
Y79257D01*
X74197Y79354D01*
X74165Y79438D01*
X74126Y79516D01*
X74074Y79581D01*
X74022Y79639D01*
X73984Y79678D01*
X73951Y79704D01*
X73938Y79710D01*
X73835Y79775D01*
X73724Y79820D01*
X73614Y79853D01*
X73517Y79879D01*
X73426Y79892D01*
X73355Y79898D01*
X73329Y79905D01*
X73232D01*
X73174Y79898D01*
X73050Y79879D01*
X72992Y79872D01*
X72947Y79859D01*
X72921Y79853D01*
X72908D01*
X72824Y79833D01*
X72752Y79820D01*
X72688Y79814D01*
X72642Y79807D01*
X72610Y79801D01*
X72565D01*
X72487Y79807D01*
X72435Y79833D01*
X72396Y79866D01*
X72364Y79911D01*
X72351Y79950D01*
X72344Y79982D01*
X72338Y80008D01*
Y80015D01*
X72344Y80047D01*
X72357Y80073D01*
X72377Y80105D01*
X72403Y80131D01*
X72467Y80177D01*
X72539Y80216D01*
X72610Y80248D01*
X72675Y80267D01*
X72701Y80274D01*
X72720Y80280D01*
X72733Y80287D01*
X72739D01*
X72850Y80313D01*
X72947Y80339D01*
X73038Y80352D01*
X73122Y80358D01*
X73187Y80365D01*
X73232Y80371D01*
X73277D01*
X73374Y80365D01*
D02*
G37*
%LPC*%
G36*
X77003Y80164D02*
X76880D01*
X76763Y80157D01*
X76653Y80138D01*
X76556Y80105D01*
X76465Y80073D01*
X76394Y80034D01*
X76336Y80008D01*
X76303Y79982D01*
X76290Y79976D01*
X76238Y79937D01*
X76193Y79898D01*
X76115Y79820D01*
X76063Y79743D01*
X76031Y79665D01*
X76005Y79600D01*
X75999Y79548D01*
X75992Y79516D01*
Y79509D01*
Y79503D01*
X75999Y79432D01*
X76005Y79367D01*
X76038Y79244D01*
X76089Y79140D01*
X76148Y79049D01*
X76206Y78978D01*
X76251Y78926D01*
X76290Y78900D01*
X76297Y78887D01*
X76303D01*
X76413Y78816D01*
X76530Y78771D01*
X76647Y78732D01*
X76757Y78706D01*
X76854Y78693D01*
X76899Y78686D01*
X76932D01*
X76964Y78680D01*
X77003D01*
X77269Y78706D01*
X77217Y79691D01*
X77210Y80138D01*
X77165Y80144D01*
X77120Y80151D01*
X77081Y80157D01*
X77068D01*
X77003Y80164D01*
D02*
G37*
%LPD*%
D10*
X34525Y2900D02*
Y7900D01*
X46525D01*
Y2900D02*
Y7900D01*
X34525Y2900D02*
X46525D01*
X45825Y89900D02*
X57825D01*
X45825Y84900D02*
Y89900D01*
Y84900D02*
X57825D01*
Y89900D01*
X21125Y2992D02*
Y7992D01*
X33125D01*
Y2992D02*
Y7992D01*
X21125Y2992D02*
X33125D01*
X8525Y2400D02*
Y7400D01*
X20525D01*
Y2400D02*
Y7400D01*
X8525Y2400D02*
X20525D01*
X2325Y12425D02*
X7325D01*
X2325D02*
Y24425D01*
X7325D01*
Y12425D02*
Y24425D01*
X7275Y70550D02*
Y76550D01*
X1275D02*
X7275D01*
X1275Y70550D02*
Y76550D01*
Y70550D02*
X7275D01*
X8025Y71100D02*
X13765D01*
X8025D02*
Y78900D01*
X13765D01*
Y71100D02*
Y78900D01*
X13225Y73610D02*
X13765D01*
X13225D02*
Y76150D01*
X13765D01*
X71100Y8525D02*
X83100D01*
X71100Y3525D02*
Y8525D01*
Y3525D02*
X83100D01*
Y8525D01*
X2200Y31275D02*
Y43275D01*
Y31275D02*
X7200D01*
X2200Y43275D02*
X7200D01*
Y31275D02*
Y43275D01*
X84825Y35950D02*
Y47950D01*
Y35950D02*
X89825D01*
Y47950D01*
X84825D02*
X89825D01*
X16286Y85335D02*
Y91050D01*
Y85335D02*
X21874D01*
X16286Y91050D02*
X21874D01*
X17810Y85335D02*
Y85843D01*
X20350D01*
Y85335D02*
Y85843D01*
X21874Y85335D02*
Y91050D01*
X66475Y84779D02*
Y89779D01*
X78475D01*
Y84779D02*
Y89779D01*
X66475Y84779D02*
X78475D01*
X86050Y18150D02*
Y24150D01*
Y18150D02*
X92050D01*
Y24150D01*
X86050D02*
X92050D01*
X89375Y81600D02*
Y83124D01*
X88867Y82616D01*
X88359Y83124D01*
Y81600D01*
X86836Y82870D02*
X87090Y83124D01*
X87598D01*
X87851Y82870D01*
Y81854D01*
X87598Y81600D01*
X87090D01*
X86836Y81854D01*
X85312Y82870D02*
X85566Y83124D01*
X86074D01*
X86328Y82870D01*
Y81854D01*
X86074Y81600D01*
X85566D01*
X85312Y81854D01*
Y82362D01*
X85820D01*
X84804Y83124D02*
X84297D01*
X84551D01*
Y81600D01*
X84804D01*
X84297D01*
X83535Y83124D02*
Y81600D01*
X82519D01*
X82011Y83124D02*
Y81600D01*
X80996D01*
X77949Y82870D02*
X78203Y83124D01*
X78710D01*
X78964Y82870D01*
Y82616D01*
X78710Y82362D01*
X78203D01*
X77949Y82108D01*
Y81854D01*
X78203Y81600D01*
X78710D01*
X78964Y81854D01*
X77441Y81600D02*
Y83124D01*
X76679D01*
X76425Y82870D01*
Y82362D01*
X76679Y82108D01*
X77441D01*
X75917Y81600D02*
Y82616D01*
X75410Y83124D01*
X74902Y82616D01*
Y81600D01*
Y82362D01*
X75917D01*
X73378Y82870D02*
X73632Y83124D01*
X74140D01*
X74394Y82870D01*
Y81854D01*
X74140Y81600D01*
X73632D01*
X73378Y81854D01*
X71855Y83124D02*
X72870D01*
Y81600D01*
X71855D01*
X72870Y82362D02*
X72363D01*
X68808Y82870D02*
X69062Y83124D01*
X69569D01*
X69823Y82870D01*
Y81854D01*
X69569Y81600D01*
X69062D01*
X68808Y81854D01*
Y82362D01*
X69315D01*
X68300Y81600D02*
Y83124D01*
X67538D01*
X67284Y82870D01*
Y82362D01*
X67538Y82108D01*
X68300D01*
X67792D02*
X67284Y81600D01*
X66015Y83124D02*
X66522D01*
X66776Y82870D01*
Y81854D01*
X66522Y81600D01*
X66015D01*
X65761Y81854D01*
Y82870D01*
X66015Y83124D01*
X65253D02*
Y81854D01*
X64999Y81600D01*
X64491D01*
X64237Y81854D01*
Y83124D01*
X63729Y81600D02*
Y83124D01*
X62968D01*
X62714Y82870D01*
Y82362D01*
X62968Y82108D01*
X63729D01*
D62*
X13425Y18200D02*
G03*
X13425Y18200I-125J0D01*
G01*
X10425Y12975D02*
G03*
X10425Y12975I-125J0D01*
G01*
X14200D02*
G03*
X14200Y12975I-125J0D01*
G01*
X56300Y10050D02*
G03*
X56300Y10050I-125J0D01*
G01*
X13425Y22000D02*
G03*
X13425Y22000I-125J0D01*
G01*
X28000Y13725D02*
G03*
X28000Y13725I-125J0D01*
G01*
X42750Y13200D02*
G03*
X42750Y13200I-125J0D01*
G01*
X24225Y13600D02*
G03*
X24225Y13600I-125J0D01*
G01*
X81875Y20975D02*
G03*
X81875Y20975I-125J0D01*
G01*
X39050Y13200D02*
G03*
X39050Y13200I-125J0D01*
G01*
X81875Y17050D02*
G03*
X81875Y17050I-125J0D01*
G01*
D63*
X58925Y11350D02*
G03*
X58925Y11350I-300J0D01*
G01*
D64*
X47283Y74427D02*
X48299D01*
X45378D02*
X45886D01*
X47156Y74300D02*
X48299D01*
X45378D02*
X45886D01*
X42711D02*
X43473D01*
X49315Y74173D02*
X50077D01*
X47029D02*
X48299D01*
X45251D02*
X45886D01*
X42457D02*
X43727D01*
X49315Y74046D02*
X50331D01*
X47918D02*
X48299D01*
X46902D02*
X47410D01*
X45251D02*
X46013D01*
X42457D02*
X43854D01*
X41187D02*
X41568D01*
X49823Y73919D02*
X50331D01*
X47918D02*
X48299D01*
X46902D02*
X47283D01*
X45632D02*
X46013D01*
X45251D02*
X45505D01*
X43473D02*
X43981D01*
X40806D02*
X41568D01*
X49950Y73792D02*
X50331D01*
X47918D02*
X48299D01*
X46902D02*
X47283D01*
X45632D02*
X46140D01*
X45124D02*
X45505D01*
X43600D02*
X43981D01*
X40425D02*
X41568D01*
X49950Y73665D02*
X50331D01*
X47918D02*
X48172D01*
X46902D02*
X47410D01*
X45759D02*
X46140D01*
X45124D02*
X45505D01*
X43727D02*
X44108D01*
X40425D02*
X41568D01*
X49950Y73538D02*
X50331D01*
X47918D02*
X48172D01*
X47029D02*
X47537D01*
X45759D02*
X46140D01*
X45124D02*
X45505D01*
X43727D02*
X44108D01*
X41187D02*
X41695D01*
X49569Y73411D02*
X50331D01*
X47156D02*
X48172D01*
X45759D02*
X46140D01*
X44997D02*
X45378D01*
X43727D02*
X44108D01*
X41314D02*
X41695D01*
X53252Y73284D02*
X53633D01*
X49188D02*
X50331D01*
X47283D02*
X48172D01*
X44997D02*
X46267D01*
X43727D02*
X44108D01*
X41314D02*
X41695D01*
X53252Y73157D02*
X53633D01*
X49061D02*
X50077D01*
X47918D02*
X48172D01*
X44997D02*
X46267D01*
X43727D02*
X44108D01*
X41187D02*
X41695D01*
X53125Y73030D02*
X53633D01*
X49061D02*
X49696D01*
X47791D02*
X48172D01*
X45886D02*
X46267D01*
X44870D02*
X45378D01*
X43727D02*
X44108D01*
X40679D02*
X41695D01*
X53125Y72903D02*
X53506D01*
X49061D02*
X49442D01*
X47791D02*
X48172D01*
X46013D02*
X46394D01*
X44870D02*
X45251D01*
X43600D02*
X44108D01*
X40552D02*
X41822D01*
X37504D02*
X38012D01*
X53125Y72776D02*
X53506D01*
X49061D02*
X49315D01*
X47791D02*
X48172D01*
X46013D02*
X46394D01*
X44870D02*
X45251D01*
X43600D02*
X43981D01*
X41441D02*
X41822D01*
X40679D02*
X40933D01*
X37123D02*
X38266D01*
X53125Y72649D02*
X53379D01*
X49061D02*
X49442D01*
X47791D02*
X48172D01*
X46013D02*
X46521D01*
X44743D02*
X45124D01*
X43346D02*
X43981D01*
X41441D02*
X41822D01*
X36996D02*
X38520D01*
X55157Y72522D02*
X55538D01*
X52998D02*
X53379D01*
X50077D02*
X50204D01*
X49061D02*
X49569D01*
X47791D02*
X48172D01*
X46140D02*
X46521D01*
X44743D02*
X45124D01*
X42711D02*
X43854D01*
X41441D02*
X41949D01*
X38012D02*
X38647D01*
X36869D02*
X37504D01*
X55157Y72395D02*
X55538D01*
X52998D02*
X53379D01*
X49188D02*
X50204D01*
X42711D02*
X43600D01*
X41568D02*
X41949D01*
X38139D02*
X38647D01*
X36869D02*
X37250D01*
X55030Y72268D02*
X55538D01*
X52871D02*
X53379D01*
X49315D02*
X50204D01*
X42711D02*
X43346D01*
X41314D02*
X41949D01*
X38266D02*
X38774D01*
X55030Y72141D02*
X55411D01*
X52871D02*
X53252D01*
X44616D02*
X47664D01*
X40806D02*
X41949D01*
X38266D02*
X38774D01*
X56427Y72014D02*
X56681D01*
X54903D02*
X55284D01*
X52871D02*
X53252D01*
X43600D02*
X48680D01*
X40806D02*
X41568D01*
X38393D02*
X38774D01*
X35599D02*
X35980D01*
X56300Y71887D02*
X56808D01*
X54903D02*
X55284D01*
X52744D02*
X53252D01*
X51982D02*
X52363D01*
X42584D02*
X49696D01*
X40806D02*
X41187D01*
X38393D02*
X38774D01*
X37377D02*
X37885D01*
X35345D02*
X35980D01*
X56300Y71760D02*
X56681D01*
X54776D02*
X55284D01*
X51982D02*
X53125D01*
X41949D02*
X50331D01*
X38393D02*
X38774D01*
X37123D02*
X37885D01*
X35091D02*
X36107D01*
X56173Y71633D02*
X56681D01*
X54776D02*
X55157D01*
X52109D02*
X53125D01*
X41441D02*
X50839D01*
X38393D02*
X38774D01*
X37123D02*
X37631D01*
X35726D02*
X36107D01*
X34964D02*
X35599D01*
X56173Y71506D02*
X56681D01*
X54776D02*
X55157D01*
X52363D02*
X53125D01*
X40806D02*
X51474D01*
X38266D02*
X38774D01*
X37123D02*
X37631D01*
X35726D02*
X36234D01*
X34837D02*
X35345D01*
X56046Y71379D02*
X56554D01*
X54649D02*
X55157D01*
X52871D02*
X52998D01*
X48426D02*
X51855D01*
X40425D02*
X43854D01*
X38266D02*
X38774D01*
X37250D02*
X37631D01*
X35853D02*
X36234D01*
X34837D02*
X35218D01*
X57570Y71252D02*
X57951D01*
X56046D02*
X56427D01*
X54649D02*
X55030D01*
X53760D02*
X54141D01*
X49442D02*
X52236D01*
X40044D02*
X42838D01*
X38139D02*
X38647D01*
X37250D02*
X37631D01*
X35853D02*
X36361D01*
X34837D02*
X35218D01*
X57570Y71125D02*
X58205D01*
X55919D02*
X56427D01*
X53633D02*
X55030D01*
X49950D02*
X52617D01*
X39663D02*
X42330D01*
X37377D02*
X38520D01*
X35853D02*
X36361D01*
X34837D02*
X35345D01*
X57697Y70998D02*
X58459D01*
X55919D02*
X56300D01*
X53887D02*
X54903D01*
X50585D02*
X53125D01*
X39155D02*
X41695D01*
X37377D02*
X38393D01*
X34964D02*
X36488D01*
X57951Y70871D02*
X58459D01*
X55792D02*
X56300D01*
X54268D02*
X54903D01*
X51220D02*
X53379D01*
X38901D02*
X41187D01*
X37377D02*
X38012D01*
X36107D02*
X36488D01*
X35091D02*
X35980D01*
X58078Y70744D02*
X58586D01*
X55792D02*
X56173D01*
X54395D02*
X54776D01*
X51601D02*
X53760D01*
X38520D02*
X40806D01*
X36107D02*
X36615D01*
X35218D02*
X35853D01*
X58205Y70617D02*
X58713D01*
X57062D02*
X57316D01*
X55665D02*
X56173D01*
X52109D02*
X54014D01*
X38266D02*
X40298D01*
X36234D02*
X36615D01*
X35472D02*
X35726D01*
X33186D02*
X34202D01*
X58332Y70490D02*
X58713D01*
X57062D02*
X57443D01*
X55665D02*
X56046D01*
X52490D02*
X54268D01*
X38012D02*
X39917D01*
X36234D02*
X36742D01*
X35472D02*
X35726D01*
X32932D02*
X34329D01*
X58332Y70363D02*
X58713D01*
X56935D02*
X57697D01*
X55538D02*
X56046D01*
X52744D02*
X54649D01*
X37631D02*
X39536D01*
X36361D02*
X36742D01*
X35472D02*
X35853D01*
X33694D02*
X34456D01*
X32932D02*
X33440D01*
X58332Y70236D02*
X58713D01*
X56808D02*
X57824D01*
X55538D02*
X55919D01*
X53125D02*
X54903D01*
X37377D02*
X39155D01*
X36361D02*
X36615D01*
X35472D02*
X35853D01*
X33948D02*
X34583D01*
X32805D02*
X33313D01*
X58332Y70109D02*
X58713D01*
X57443D02*
X57697D01*
X56808D02*
X57189D01*
X55792D02*
X55919D01*
X53506D02*
X55157D01*
X37123D02*
X38901D01*
X35472D02*
X35853D01*
X34075D02*
X34583D01*
X32805D02*
X33186D01*
X59602Y69982D02*
X59856D01*
X58205D02*
X58713D01*
X56681D02*
X57189D01*
X53760D02*
X55411D01*
X36869D02*
X38647D01*
X35472D02*
X35853D01*
X34202D02*
X34710D01*
X32805D02*
X33059D01*
X59602Y69855D02*
X60110D01*
X58205D02*
X58586D01*
X56681D02*
X57062D01*
X54141D02*
X55665D01*
X36615D02*
X38266D01*
X35599D02*
X35853D01*
X34329D02*
X34710D01*
X32805D02*
X33059D01*
X59602Y69728D02*
X60237D01*
X58078D02*
X58586D01*
X56681D02*
X57189D01*
X54395D02*
X55919D01*
X36361D02*
X38012D01*
X35599D02*
X35726D01*
X34329D02*
X34710D01*
X32805D02*
X33059D01*
X59856Y69601D02*
X60364D01*
X57824D02*
X58586D01*
X56681D02*
X57316D01*
X54649D02*
X56173D01*
X36107D02*
X37758D01*
X34329D02*
X34710D01*
X32805D02*
X33186D01*
X59983Y69474D02*
X60491D01*
X56935D02*
X58332D01*
X54903D02*
X56300D01*
X35980D02*
X37504D01*
X34329D02*
X34710D01*
X32805D02*
X33186D01*
X60110Y69347D02*
X60491D01*
X57062D02*
X58332D01*
X55157D02*
X56554D01*
X35726D02*
X37250D01*
X34329D02*
X34710D01*
X32805D02*
X33313D01*
X31535D02*
X31789D01*
X60110Y69220D02*
X60491D01*
X57316D02*
X58078D01*
X55411D02*
X56808D01*
X35472D02*
X36996D01*
X34202D02*
X34710D01*
X32932D02*
X33440D01*
X31408D02*
X31916D01*
X60237Y69093D02*
X60491D01*
X55665D02*
X56935D01*
X35345D02*
X36742D01*
X34075D02*
X34583D01*
X32932D02*
X33567D01*
X31408D02*
X31916D01*
X60237Y68966D02*
X60491D01*
X55792D02*
X57189D01*
X35091D02*
X36488D01*
X33059D02*
X34583D01*
X31535D02*
X32043D01*
X60110Y68839D02*
X60491D01*
X56046D02*
X57443D01*
X34837D02*
X36361D01*
X33186D02*
X34456D01*
X31662D02*
X32170D01*
X60110Y68712D02*
X60491D01*
X56300D02*
X57570D01*
X34710D02*
X36107D01*
X33567D02*
X34075D01*
X31789D02*
X32297D01*
X59983Y68585D02*
X60491D01*
X58459D02*
X58840D01*
X56427D02*
X57697D01*
X34456D02*
X35853D01*
X31916D02*
X32424D01*
X30646D02*
X30773D01*
X59856Y68458D02*
X60491D01*
X58459D02*
X58967D01*
X56681D02*
X57951D01*
X34329D02*
X35599D01*
X31916D02*
X32424D01*
X30519D02*
X30900D01*
X61634Y68331D02*
X61888D01*
X59729D02*
X60364D01*
X58586D02*
X59094D01*
X56935D02*
X58078D01*
X34202D02*
X35472D01*
X32043D02*
X32551D01*
X30519D02*
X31027D01*
X61507Y68204D02*
X62015D01*
X58713D02*
X60237D01*
X57062D02*
X58332D01*
X33948D02*
X35345D01*
X32170D02*
X32678D01*
X30646D02*
X31154D01*
X61253Y68077D02*
X62015D01*
X58840D02*
X60110D01*
X57316D02*
X58459D01*
X33821D02*
X35091D01*
X32297D02*
X32678D01*
X30773D02*
X31281D01*
X61126Y67950D02*
X61888D01*
X59094D02*
X59856D01*
X57443D02*
X58586D01*
X33694D02*
X34837D01*
X32297D02*
X32678D01*
X30900D02*
X31408D01*
X60999Y67823D02*
X61888D01*
X57697D02*
X58713D01*
X33567D02*
X34710D01*
X32297D02*
X32678D01*
X30900D02*
X31535D01*
X60872Y67696D02*
X61888D01*
X57824D02*
X58967D01*
X33313D02*
X34583D01*
X32297D02*
X32678D01*
X31027D02*
X31662D01*
X61380Y67569D02*
X61761D01*
X60745D02*
X61253D01*
X58078D02*
X59094D01*
X33186D02*
X34329D01*
X32170D02*
X32678D01*
X31154D02*
X31789D01*
X29630D02*
X29884D01*
X61380Y67442D02*
X61761D01*
X60618D02*
X61253D01*
X58078D02*
X59221D01*
X33059D02*
X34202D01*
X31281D02*
X32551D01*
X29503D02*
X30011D01*
X62396Y67315D02*
X62904D01*
X61253D02*
X61634D01*
X60364D02*
X60999D01*
X58332D02*
X59475D01*
X32805D02*
X34075D01*
X31408D02*
X32424D01*
X29376D02*
X30138D01*
X62269Y67188D02*
X63031D01*
X61253D02*
X61634D01*
X60364D02*
X60872D01*
X58459D02*
X59475D01*
X32805D02*
X33821D01*
X31789D02*
X32170D01*
X29249D02*
X30265D01*
X61888Y67061D02*
X63031D01*
X61126D02*
X61507D01*
X60237D02*
X60745D01*
X58713D02*
X59729D01*
X32551D02*
X33694D01*
X29757D02*
X30392D01*
X29122D02*
X29630D01*
X61634Y66934D02*
X62904D01*
X61126D02*
X61507D01*
X60364D02*
X60618D01*
X58840D02*
X59856D01*
X32424D02*
X33567D01*
X29884D02*
X30519D01*
X29122D02*
X29503D01*
X60999Y66807D02*
X62777D01*
X58967D02*
X59983D01*
X32297D02*
X33440D01*
X30138D02*
X30646D01*
X29122D02*
X29503D01*
X62142Y66680D02*
X62650D01*
X60999D02*
X62015D01*
X59094D02*
X60110D01*
X32170D02*
X33186D01*
X30138D02*
X30773D01*
X29122D02*
X29503D01*
X62015Y66553D02*
X62523D01*
X60872D02*
X61761D01*
X59221D02*
X60237D01*
X32043D02*
X33059D01*
X29884D02*
X30900D01*
X29122D02*
X29630D01*
X61888Y66426D02*
X62396D01*
X60872D02*
X61507D01*
X59348D02*
X60364D01*
X31916D02*
X32932D01*
X30519D02*
X31027D01*
X29122D02*
X30392D01*
X61761Y66299D02*
X62396D01*
X60999D02*
X61253D01*
X59475D02*
X60491D01*
X31789D02*
X32805D01*
X30646D02*
X31154D01*
X29249D02*
X30138D01*
X61634Y66172D02*
X62269D01*
X59602D02*
X60618D01*
X31662D02*
X32678D01*
X30773D02*
X31154D01*
X29503D02*
X30011D01*
X61634Y66045D02*
X62015D01*
X59856D02*
X60745D01*
X31535D02*
X32551D01*
X61507Y65918D02*
X62015D01*
X59983D02*
X60872D01*
X31408D02*
X32424D01*
X61507Y65791D02*
X61888D01*
X60110D02*
X60999D01*
X31281D02*
X32297D01*
X60237Y65664D02*
X61126D01*
X52744D02*
X54268D01*
X31154D02*
X32170D01*
X60364Y65537D02*
X61253D01*
X52363D02*
X54649D01*
X31027D02*
X32043D01*
X60491Y65410D02*
X61380D01*
X52236D02*
X54903D01*
X30900D02*
X31916D01*
X60618Y65283D02*
X61507D01*
X54014D02*
X55030D01*
X51982D02*
X52998D01*
X48299D02*
X48680D01*
X30773D02*
X31789D01*
X60618Y65156D02*
X61634D01*
X54268D02*
X55284D01*
X51855D02*
X52744D01*
X48299D02*
X48680D01*
X30646D02*
X31662D01*
X60745Y65029D02*
X61761D01*
X54649D02*
X55411D01*
X51728D02*
X52490D01*
X48299D02*
X48680D01*
X30519D02*
X31535D01*
X60872Y64902D02*
X61761D01*
X54776D02*
X55538D01*
X51601D02*
X52236D01*
X30519D02*
X31408D01*
X60999Y64775D02*
X61888D01*
X54903D02*
X55538D01*
X51474D02*
X52236D01*
X30392D02*
X31281D01*
X61126Y64648D02*
X62015D01*
X55030D02*
X55665D01*
X51474D02*
X51982D01*
X30265D02*
X31154D01*
X61253Y64521D02*
X62142D01*
X55157D02*
X55665D01*
X51347D02*
X51855D01*
X30138D02*
X31154D01*
X61380Y64394D02*
X62269D01*
X55157D02*
X55792D01*
X51220D02*
X52109D01*
X30011D02*
X31027D01*
X61507Y64267D02*
X62269D01*
X55284D02*
X55919D01*
X51220D02*
X52871D01*
X30011D02*
X30900D01*
X61634Y64140D02*
X62396D01*
X55411D02*
X55919D01*
X51093D02*
X53379D01*
X29884D02*
X30773D01*
X61634Y64013D02*
X62523D01*
X55411D02*
X55919D01*
X51093D02*
X53760D01*
X29757D02*
X30773D01*
X61761Y63886D02*
X62650D01*
X55538D02*
X55919D01*
X51093D02*
X54014D01*
X29630D02*
X30519D01*
X61888Y63759D02*
X62650D01*
X55538D02*
X56046D01*
X51093D02*
X54141D01*
X29630D02*
X30519D01*
X61888Y63632D02*
X62777D01*
X55538D02*
X56046D01*
X50966D02*
X54268D01*
X29503D02*
X30392D01*
X62142Y63505D02*
X62904D01*
X55538D02*
X56046D01*
X50966D02*
X54395D01*
X29376D02*
X30265D01*
X62142Y63378D02*
X63031D01*
X55538D02*
X56046D01*
X50966D02*
X54395D01*
X29249D02*
X30265D01*
X62269Y63251D02*
X63031D01*
X55538D02*
X56046D01*
X50966D02*
X54522D01*
X29249D02*
X30138D01*
X62269Y63124D02*
X63158D01*
X55538D02*
X56046D01*
X50966D02*
X54522D01*
X29122D02*
X30011D01*
X62396Y62997D02*
X63158D01*
X55538D02*
X56046D01*
X50966D02*
X54649D01*
X45886D02*
X46267D01*
X29122D02*
X29884D01*
X62523Y62870D02*
X63285D01*
X55538D02*
X56046D01*
X50966D02*
X54776D01*
X45886D02*
X46267D01*
X28995D02*
X29884D01*
X62650Y62743D02*
X63412D01*
X55538D02*
X56046D01*
X51093D02*
X54776D01*
X45886D02*
X46267D01*
X28868D02*
X29757D01*
X62650Y62616D02*
X63412D01*
X55538D02*
X56046D01*
X51093D02*
X54776D01*
X46013D02*
X46267D01*
X28868D02*
X29630D01*
X62777Y62489D02*
X63539D01*
X55411D02*
X55919D01*
X51093D02*
X54776D01*
X28741D02*
X29630D01*
X62904Y62362D02*
X63539D01*
X55411D02*
X55919D01*
X51093D02*
X54776D01*
X28741D02*
X29503D01*
X62904Y62235D02*
X63666D01*
X55284D02*
X55919D01*
X51220D02*
X54903D01*
X28614D02*
X29376D01*
X63031Y62108D02*
X63793D01*
X55157D02*
X55792D01*
X51220D02*
X54903D01*
X28487D02*
X29376D01*
X63031Y61981D02*
X63793D01*
X55157D02*
X55665D01*
X51347D02*
X54903D01*
X35345D02*
X35726D01*
X28487D02*
X29249D01*
X63158Y61854D02*
X63920D01*
X55030D02*
X55665D01*
X51347D02*
X54903D01*
X35345D02*
X35726D01*
X28360D02*
X29249D01*
X63285Y61727D02*
X64047D01*
X51474D02*
X55538D01*
X35345D02*
X35726D01*
X28233D02*
X29122D01*
X63285Y61600D02*
X64047D01*
X51601D02*
X55538D01*
X28233D02*
X28995D01*
X63412Y61473D02*
X64174D01*
X51728D02*
X55411D01*
X28106D02*
X28995D01*
X63412Y61346D02*
X64174D01*
X51855D02*
X55284D01*
X28106D02*
X28868D01*
X63539Y61219D02*
X64301D01*
X51982D02*
X55030D01*
X38520D02*
X39028D01*
X27979D02*
X28868D01*
X63666Y61092D02*
X64301D01*
X52109D02*
X54903D01*
X38520D02*
X39028D01*
X27979D02*
X28741D01*
X63666Y60965D02*
X64428D01*
X52363D02*
X54649D01*
X38520D02*
X39028D01*
X27852D02*
X28614D01*
X63793Y60838D02*
X64428D01*
X52871D02*
X54268D01*
X36996D02*
X37123D01*
X27852D02*
X28614D01*
X63793Y60711D02*
X64555D01*
X36996D02*
X37123D01*
X27725D02*
X28614D01*
X63793Y60584D02*
X64555D01*
X47918D02*
X48172D01*
X36869D02*
X37250D01*
X27725D02*
X28487D01*
X63920Y60457D02*
X64682D01*
X55919D02*
X56300D01*
X47791D02*
X48172D01*
X36869D02*
X37250D01*
X27598D02*
X28487D01*
X64047Y60330D02*
X64682D01*
X57443D02*
X57570D01*
X55919D02*
X56300D01*
X47664D02*
X48172D01*
X36742D02*
X37250D01*
X27598D02*
X28360D01*
X64047Y60203D02*
X64809D01*
X57443D02*
X57570D01*
X55919D02*
X56300D01*
X47410D02*
X48299D01*
X36742D02*
X37377D01*
X27471D02*
X28233D01*
X64174Y60076D02*
X64809D01*
X57316D02*
X57570D01*
X47537D02*
X48426D01*
X36615D02*
X37504D01*
X27471D02*
X28233D01*
X64174Y59949D02*
X64936D01*
X57316D02*
X57697D01*
X54141D02*
X54395D01*
X47537D02*
X48426D01*
X36488D02*
X37631D01*
X27344D02*
X28233D01*
X64174Y59822D02*
X64936D01*
X57316D02*
X57697D01*
X54014D02*
X54522D01*
X47664D02*
X48172D01*
X36361D02*
X37885D01*
X27344D02*
X28106D01*
X64301Y59695D02*
X64936D01*
X57189D02*
X57824D01*
X54014D02*
X54522D01*
X47791D02*
X48045D01*
X36234D02*
X38012D01*
X35472D02*
X35599D01*
X27344D02*
X28106D01*
X64301Y59568D02*
X65063D01*
X57062D02*
X57951D01*
X54141D02*
X54522D01*
X47791D02*
X48045D01*
X36234D02*
X37885D01*
X35345D02*
X35726D01*
X27217D02*
X27979D01*
X64428Y59441D02*
X65063D01*
X57062D02*
X58078D01*
X36361D02*
X37758D01*
X35345D02*
X35599D01*
X27217D02*
X27979D01*
X64428Y59314D02*
X65063D01*
X56935D02*
X58205D01*
X36615D02*
X37631D01*
X27217D02*
X27852D01*
X64555Y59187D02*
X65190D01*
X56554D02*
X58459D01*
X36742D02*
X37504D01*
X27090D02*
X27852D01*
X64555Y59060D02*
X65190D01*
X56554D02*
X58459D01*
X36869D02*
X37504D01*
X27090D02*
X27852D01*
X64555Y58933D02*
X65317D01*
X56808D02*
X58205D01*
X49188D02*
X49569D01*
X36996D02*
X37377D01*
X26963D02*
X27725D01*
X64682Y58806D02*
X65317D01*
X56935D02*
X58078D01*
X49188D02*
X49569D01*
X36996D02*
X37377D01*
X26963D02*
X27725D01*
X64682Y58679D02*
X65444D01*
X57189D02*
X57951D01*
X49188D02*
X49569D01*
X36996D02*
X37250D01*
X26963D02*
X27725D01*
X64809Y58552D02*
X65444D01*
X57316D02*
X57951D01*
X49315D02*
X49442D01*
X37123D02*
X37250D01*
X26836D02*
X27598D01*
X64809Y58425D02*
X65444D01*
X57316D02*
X57824D01*
X26836D02*
X27598D01*
X64809Y58298D02*
X65444D01*
X57443D02*
X57824D01*
X26836D02*
X27471D01*
X64936Y58171D02*
X65571D01*
X57443D02*
X57824D01*
X37758D02*
X38139D01*
X26709D02*
X27471D01*
X64936Y58044D02*
X65571D01*
X57443D02*
X57697D01*
X54903D02*
X55284D01*
X37758D02*
X38266D01*
X26709D02*
X27471D01*
X64936Y57917D02*
X65698D01*
X54903D02*
X55284D01*
X37758D02*
X38139D01*
X26582D02*
X27344D01*
X65063Y57790D02*
X65698D01*
X55030D02*
X55284D01*
X37885D02*
X38012D01*
X26582D02*
X27344D01*
X65063Y57663D02*
X65698D01*
X26582D02*
X27344D01*
X65063Y57536D02*
X65698D01*
X53506D02*
X53760D01*
X45251D02*
X46902D01*
X26582D02*
X27217D01*
X65190Y57409D02*
X65825D01*
X53379D02*
X53760D01*
X44489D02*
X47664D01*
X26455D02*
X27217D01*
X65190Y57282D02*
X65825D01*
X60237D02*
X60491D01*
X53379D02*
X53760D01*
X43854D02*
X48426D01*
X26455D02*
X27217D01*
X65190Y57155D02*
X65825D01*
X60110D02*
X60618D01*
X53506D02*
X53760D01*
X43473D02*
X48807D01*
X26455D02*
X27090D01*
X65190Y57028D02*
X65825D01*
X60110D02*
X60618D01*
X43092D02*
X49188D01*
X26455D02*
X27090D01*
X65317Y56901D02*
X65952D01*
X42711D02*
X49569D01*
X26328D02*
X27090D01*
X65317Y56774D02*
X65952D01*
X46648D02*
X49696D01*
X42457D02*
X45505D01*
X26328D02*
X27090D01*
X65317Y56647D02*
X65952D01*
X47410D02*
X50077D01*
X42076D02*
X44743D01*
X26328D02*
X26963D01*
X65317Y56520D02*
X66079D01*
X48045D02*
X50331D01*
X41822D02*
X44108D01*
X26201D02*
X26963D01*
X65444Y56393D02*
X66079D01*
X48680D02*
X50458D01*
X41695D02*
X43600D01*
X26201D02*
X26963D01*
X65444Y56266D02*
X66079D01*
X48934D02*
X50712D01*
X41441D02*
X43346D01*
X26201D02*
X26963D01*
X65444Y56139D02*
X66079D01*
X59094D02*
X59475D01*
X49315D02*
X50966D01*
X41187D02*
X42965D01*
X26201D02*
X26836D01*
X65571Y56012D02*
X66079D01*
X59094D02*
X59475D01*
X49569D02*
X51093D01*
X41060D02*
X42584D01*
X26201D02*
X26836D01*
X65571Y55885D02*
X66206D01*
X59094D02*
X59475D01*
X49823D02*
X51347D01*
X40806D02*
X42457D01*
X26074D02*
X26836D01*
X65571Y55758D02*
X66206D01*
X55919D02*
X56046D01*
X50077D02*
X51601D01*
X40679D02*
X42076D01*
X26074D02*
X26836D01*
X65571Y55631D02*
X66206D01*
X55792D02*
X56173D01*
X50331D02*
X51728D01*
X40552D02*
X41949D01*
X26074D02*
X26709D01*
X65571Y55504D02*
X66206D01*
X55792D02*
X56300D01*
X50458D02*
X51855D01*
X40298D02*
X41695D01*
X26074D02*
X26709D01*
X65698Y55377D02*
X66206D01*
X60618D02*
X60999D01*
X55538D02*
X56681D01*
X50712D02*
X51982D01*
X40171D02*
X41441D01*
X26074D02*
X26709D01*
X65698Y55250D02*
X66206D01*
X60491D02*
X60999D01*
X55411D02*
X56808D01*
X50839D02*
X52109D01*
X40044D02*
X41314D01*
X26074D02*
X26709D01*
X65698Y55123D02*
X66333D01*
X60491D02*
X60999D01*
X55157D02*
X56808D01*
X50966D02*
X52236D01*
X46140D02*
X46394D01*
X45124D02*
X46013D01*
X44743D02*
X44997D01*
X39917D02*
X41187D01*
X25947D02*
X26709D01*
X65698Y54996D02*
X66333D01*
X60618D02*
X60872D01*
X58713D02*
X59221D01*
X55284D02*
X56808D01*
X52617D02*
X53252D01*
X50331D02*
X52363D01*
X44235D02*
X46648D01*
X43092D02*
X43727D01*
X39790D02*
X40933D01*
X35091D02*
X37758D01*
X33313D02*
X33694D01*
X25947D02*
X26709D01*
X65698Y54869D02*
X66333D01*
X55665D02*
X59221D01*
X50331D02*
X53379D01*
X43092D02*
X46902D01*
X39917D02*
X40806D01*
X34710D02*
X38139D01*
X33313D02*
X33694D01*
X25947D02*
X26582D01*
X65698Y54742D02*
X66333D01*
X55792D02*
X59221D01*
X50331D02*
X53379D01*
X43092D02*
X47156D01*
X40171D02*
X40679D01*
X39536D02*
X39917D01*
X34202D02*
X38393D01*
X33313D02*
X33821D01*
X25947D02*
X26582D01*
X65698Y54615D02*
X66333D01*
X55919D02*
X59221D01*
X50331D02*
X53379D01*
X43092D02*
X47410D01*
X39409D02*
X40171D01*
X33313D02*
X38774D01*
X25947D02*
X26582D01*
X65825Y54488D02*
X66460D01*
X56046D02*
X58967D01*
X50712D02*
X53506D01*
X50331D02*
X50585D01*
X45124D02*
X47410D01*
X43092D02*
X44997D01*
X39282D02*
X40425D01*
X36234D02*
X38901D01*
X33313D02*
X35726D01*
X25820D02*
X26582D01*
X65825Y54361D02*
X66460D01*
X55919D02*
X58713D01*
X50458D02*
X53506D01*
X43092D02*
X47664D01*
X36615D02*
X40298D01*
X33313D02*
X35345D01*
X25820D02*
X26582D01*
X65825Y54234D02*
X66460D01*
X55919D02*
X58586D01*
X50331D02*
X53633D01*
X45378D02*
X47664D01*
X44489D02*
X45251D01*
X42838D02*
X44362D01*
X36869D02*
X40171D01*
X33313D02*
X34964D01*
X25820D02*
X26582D01*
X65825Y54107D02*
X66460D01*
X55919D02*
X58586D01*
X50331D02*
X53633D01*
X44997D02*
X47791D01*
X42965D02*
X44108D01*
X37123D02*
X40044D01*
X33313D02*
X34710D01*
X25820D02*
X26582D01*
X65825Y53980D02*
X66460D01*
X55792D02*
X58586D01*
X50458D02*
X53760D01*
X45251D02*
X47791D01*
X42838D02*
X43981D01*
X37250D02*
X39917D01*
X33313D02*
X34583D01*
X25820D02*
X26582D01*
X65825Y53853D02*
X66460D01*
X55792D02*
X58586D01*
X50458D02*
X53760D01*
X45378D02*
X47791D01*
X42838D02*
X43854D01*
X37377D02*
X39790D01*
X33313D02*
X34456D01*
X25820D02*
X26455D01*
X65952Y53726D02*
X66460D01*
X55792D02*
X58586D01*
X50585D02*
X53760D01*
X45632D02*
X47918D01*
X42838D02*
X43854D01*
X42457D02*
X42584D01*
X37504D02*
X39790D01*
X33313D02*
X34329D01*
X25820D02*
X26455D01*
X65952Y53599D02*
X66460D01*
X55665D02*
X58586D01*
X50585D02*
X53887D01*
X45632D02*
X47918D01*
X42457D02*
X43727D01*
X37631D02*
X39917D01*
X33313D02*
X34202D01*
X25820D02*
X26455D01*
X65952Y53472D02*
X66460D01*
X55665D02*
X58586D01*
X50712D02*
X53887D01*
X45632D02*
X47918D01*
X42711D02*
X43727D01*
X42330D02*
X42584D01*
X37631D02*
X40044D01*
X33313D02*
X34202D01*
X25820D02*
X26455D01*
X65952Y53345D02*
X66460D01*
X55538D02*
X58586D01*
X50712D02*
X54014D01*
X45505D02*
X48045D01*
X42965D02*
X43727D01*
X42457D02*
X42838D01*
X37758D02*
X40044D01*
X33313D02*
X34075D01*
X25820D02*
X26455D01*
X65952Y53218D02*
X66460D01*
X55538D02*
X58586D01*
X50712D02*
X54014D01*
X45378D02*
X48045D01*
X42584D02*
X43600D01*
X37758D02*
X40171D01*
X33313D02*
X34075D01*
X25820D02*
X26455D01*
X65952Y53091D02*
X66587D01*
X57951D02*
X58586D01*
X55411D02*
X57824D01*
X50712D02*
X54141D01*
X45124D02*
X48045D01*
X42965D02*
X43346D01*
X37885D02*
X40298D01*
X33313D02*
X33948D01*
X25693D02*
X26455D01*
X65952Y52964D02*
X66587D01*
X57951D02*
X58586D01*
X55411D02*
X57824D01*
X50712D02*
X54141D01*
X44870D02*
X48045D01*
X43219D02*
X43473D01*
X37885D02*
X40298D01*
X33313D02*
X33948D01*
X25693D02*
X26455D01*
X65952Y52837D02*
X66587D01*
X57951D02*
X58586D01*
X55411D02*
X57824D01*
X50712D02*
X54141D01*
X44616D02*
X48045D01*
X37885D02*
X40298D01*
X33313D02*
X33821D01*
X25693D02*
X26328D01*
X65952Y52710D02*
X66587D01*
X57951D02*
X58586D01*
X55284D02*
X57697D01*
X50712D02*
X54268D01*
X44489D02*
X48045D01*
X38012D02*
X40298D01*
X25693D02*
X26328D01*
X65952Y52583D02*
X66587D01*
X57951D02*
X58586D01*
X55284D02*
X57570D01*
X50712D02*
X54268D01*
X44362D02*
X47918D01*
X38012D02*
X40425D01*
X25693D02*
X26328D01*
X65952Y52456D02*
X66587D01*
X57951D02*
X58586D01*
X55157D02*
X57570D01*
X53379D02*
X54395D01*
X50712D02*
X53252D01*
X43981D02*
X47918D01*
X38012D02*
X40425D01*
X25693D02*
X26328D01*
X65952Y52329D02*
X66587D01*
X57951D02*
X58586D01*
X55157D02*
X57570D01*
X53379D02*
X54395D01*
X50712D02*
X53252D01*
X43727D02*
X47791D01*
X38012D02*
X40425D01*
X25693D02*
X26328D01*
X65952Y52202D02*
X66587D01*
X57951D02*
X58586D01*
X55157D02*
X57443D01*
X53506D02*
X54395D01*
X50712D02*
X53379D01*
X43600D02*
X47791D01*
X38139D02*
X40425D01*
X25693D02*
X26328D01*
X65952Y52075D02*
X66587D01*
X58078D02*
X58586D01*
X55030D02*
X57443D01*
X53506D02*
X54522D01*
X50712D02*
X53379D01*
X43473D02*
X47791D01*
X38139D02*
X40552D01*
X25693D02*
X26328D01*
X65952Y51948D02*
X66587D01*
X58078D02*
X58586D01*
X55030D02*
X57443D01*
X53633D02*
X54522D01*
X50712D02*
X53379D01*
X43346D02*
X47664D01*
X38139D02*
X40552D01*
X25693D02*
X26328D01*
X65952Y51821D02*
X66587D01*
X58078D02*
X58586D01*
X54903D02*
X57316D01*
X53633D02*
X54649D01*
X50712D02*
X53252D01*
X43219D02*
X47537D01*
X38139D02*
X42584D01*
X25693D02*
X26328D01*
X65952Y51694D02*
X66587D01*
X58078D02*
X58713D01*
X54903D02*
X57316D01*
X53760D02*
X54649D01*
X50712D02*
X53252D01*
X38139D02*
X47410D01*
X25693D02*
X26328D01*
X65952Y51567D02*
X66587D01*
X58078D02*
X58713D01*
X53760D02*
X57189D01*
X50712D02*
X53252D01*
X40806D02*
X47156D01*
X38139D02*
X40552D01*
X25693D02*
X26328D01*
X65952Y51440D02*
X66587D01*
X58078D02*
X58713D01*
X53887D02*
X57189D01*
X50712D02*
X53252D01*
X41187D02*
X47029D01*
X38139D02*
X40552D01*
X35091D02*
X36615D01*
X32551D02*
X34075D01*
X25693D02*
X26328D01*
X65952Y51313D02*
X66587D01*
X58078D02*
X58713D01*
X53887D02*
X57062D01*
X50712D02*
X53252D01*
X41568D02*
X46902D01*
X38139D02*
X40552D01*
X32551D02*
X36615D01*
X25693D02*
X26328D01*
X65952Y51186D02*
X66587D01*
X58078D02*
X58713D01*
X53887D02*
X57062D01*
X50712D02*
X53252D01*
X41949D02*
X46775D01*
X38139D02*
X40552D01*
X32551D02*
X36615D01*
X25693D02*
X26328D01*
X65952Y51059D02*
X66587D01*
X61507D02*
X61888D01*
X58078D02*
X58713D01*
X54014D02*
X57062D01*
X50712D02*
X53252D01*
X42203D02*
X47029D01*
X38139D02*
X40425D01*
X32551D02*
X36615D01*
X25693D02*
X26328D01*
X65952Y50932D02*
X66587D01*
X61507D02*
X61888D01*
X58078D02*
X58713D01*
X53887D02*
X56935D01*
X50712D02*
X53252D01*
X42711D02*
X47410D01*
X38012D02*
X40425D01*
X32805D02*
X35980D01*
X25693D02*
X26328D01*
X65952Y50805D02*
X66587D01*
X61507D02*
X61888D01*
X58078D02*
X58713D01*
X53887D02*
X56935D01*
X50712D02*
X53252D01*
X42711D02*
X47664D01*
X38012D02*
X40425D01*
X33059D02*
X35726D01*
X25693D02*
X26328D01*
X65952Y50678D02*
X66587D01*
X61634D02*
X61761D01*
X58078D02*
X58713D01*
X53887D02*
X56808D01*
X50712D02*
X53252D01*
X42711D02*
X47791D01*
X38012D02*
X40425D01*
X37377D02*
X37885D01*
X33186D02*
X35599D01*
X25693D02*
X26328D01*
X65952Y50551D02*
X66587D01*
X58078D02*
X58713D01*
X54522D02*
X56808D01*
X54014D02*
X54395D01*
X50585D02*
X53252D01*
X42711D02*
X48045D01*
X37250D02*
X40425D01*
X33186D02*
X35472D01*
X25693D02*
X26328D01*
X65952Y50424D02*
X66587D01*
X58078D02*
X58713D01*
X54522D02*
X56808D01*
X54014D02*
X54395D01*
X50585D02*
X53252D01*
X42711D02*
X48172D01*
X37250D02*
X40298D01*
X33313D02*
X35472D01*
X25693D02*
X26455D01*
X65952Y50297D02*
X66587D01*
X61634D02*
X61888D01*
X58078D02*
X58713D01*
X54649D02*
X56681D01*
X54014D02*
X54395D01*
X50585D02*
X53252D01*
X42711D02*
X48426D01*
X37250D02*
X40298D01*
X33313D02*
X35472D01*
X25693D02*
X26455D01*
X65952Y50170D02*
X66460D01*
X61634D02*
X61888D01*
X58078D02*
X58713D01*
X54649D02*
X56681D01*
X54141D02*
X54522D01*
X50585D02*
X53125D01*
X42711D02*
X48553D01*
X37250D02*
X40171D01*
X33313D02*
X35472D01*
X25820D02*
X26455D01*
X65952Y50043D02*
X66460D01*
X61507D02*
X62015D01*
X58078D02*
X58713D01*
X54776D02*
X56554D01*
X54268D02*
X54522D01*
X50712D02*
X53125D01*
X45505D02*
X48680D01*
X42711D02*
X44997D01*
X37123D02*
X40171D01*
X33313D02*
X35472D01*
X25820D02*
X26455D01*
X65952Y49916D02*
X66460D01*
X61380D02*
X62269D01*
X58078D02*
X58713D01*
X54776D02*
X56554D01*
X54268D02*
X54522D01*
X50712D02*
X53125D01*
X50458D02*
X50585D01*
X45886D02*
X48807D01*
X42711D02*
X44870D01*
X37123D02*
X40425D01*
X33313D02*
X35472D01*
X25820D02*
X26455D01*
X65952Y49789D02*
X66460D01*
X61380D02*
X62269D01*
X58205D02*
X58713D01*
X54776D02*
X56427D01*
X54268D02*
X54649D01*
X50966D02*
X53125D01*
X50458D02*
X50839D01*
X46267D02*
X48934D01*
X42711D02*
X44870D01*
X37123D02*
X40933D01*
X33313D02*
X35472D01*
X25820D02*
X26455D01*
X65952Y49662D02*
X66460D01*
X61380D02*
X62142D01*
X58205D02*
X58713D01*
X54903D02*
X56427D01*
X54268D02*
X54649D01*
X50966D02*
X53252D01*
X50712D02*
X50839D01*
X46775D02*
X49061D01*
X42838D02*
X44743D01*
X37123D02*
X41187D01*
X33313D02*
X35472D01*
X25820D02*
X26455D01*
X65825Y49535D02*
X66460D01*
X61507D02*
X62015D01*
X58205D02*
X58840D01*
X54903D02*
X56427D01*
X54268D02*
X54776D01*
X50331D02*
X53252D01*
X47029D02*
X49188D01*
X42838D02*
X44743D01*
X37123D02*
X41695D01*
X33313D02*
X35472D01*
X25820D02*
X26455D01*
X65825Y49408D02*
X66460D01*
X61634D02*
X62015D01*
X58078D02*
X58840D01*
X55030D02*
X56300D01*
X54395D02*
X54776D01*
X50585D02*
X53125D01*
X47029D02*
X49188D01*
X42965D02*
X44870D01*
X37123D02*
X42203D01*
X33313D02*
X35472D01*
X25820D02*
X26582D01*
X65825Y49281D02*
X66460D01*
X61761D02*
X62015D01*
X58078D02*
X58840D01*
X55030D02*
X56300D01*
X54395D02*
X54776D01*
X50585D02*
X53252D01*
X46902D02*
X49315D01*
X42965D02*
X44870D01*
X37123D02*
X42457D01*
X33313D02*
X35472D01*
X25820D02*
X26582D01*
X65825Y49154D02*
X66460D01*
X58078D02*
X58967D01*
X55030D02*
X56173D01*
X54395D02*
X54903D01*
X50585D02*
X53379D01*
X48299D02*
X49442D01*
X46775D02*
X47918D01*
X43092D02*
X44997D01*
X36996D02*
X42838D01*
X33313D02*
X35472D01*
X25820D02*
X26582D01*
X65825Y49027D02*
X66460D01*
X57951D02*
X59221D01*
X55157D02*
X56173D01*
X54395D02*
X54903D01*
X53633D02*
X54014D01*
X50585D02*
X53506D01*
X50077D02*
X50458D01*
X48680D02*
X49569D01*
X46648D02*
X47918D01*
X43092D02*
X45124D01*
X36742D02*
X42838D01*
X33313D02*
X35472D01*
X25820D02*
X26582D01*
X65825Y48900D02*
X66460D01*
X57316D02*
X59602D01*
X55157D02*
X56046D01*
X54395D02*
X55030D01*
X49950D02*
X54014D01*
X49188D02*
X49569D01*
X46394D02*
X47918D01*
X43346D02*
X45251D01*
X36361D02*
X42965D01*
X33313D02*
X35726D01*
X25820D02*
X26582D01*
X65698Y48773D02*
X66333D01*
X57316D02*
X59602D01*
X55284D02*
X56046D01*
X54395D02*
X55030D01*
X49950D02*
X54014D01*
X43473D02*
X47791D01*
X33313D02*
X43092D01*
X25947D02*
X26582D01*
X65698Y48646D02*
X66333D01*
X62523D02*
X62904D01*
X57316D02*
X59602D01*
X55284D02*
X56046D01*
X54395D02*
X55157D01*
X49950D02*
X54014D01*
X43600D02*
X47791D01*
X33313D02*
X43219D01*
X25947D02*
X26582D01*
X65698Y48519D02*
X66333D01*
X62523D02*
X62904D01*
X57316D02*
X59602D01*
X55411D02*
X55919D01*
X54395D02*
X55157D01*
X49950D02*
X54014D01*
X43854D02*
X47791D01*
X33821D02*
X43346D01*
X25947D02*
X26582D01*
X65698Y48392D02*
X66333D01*
X62523D02*
X62904D01*
X59475D02*
X59602D01*
X57316D02*
X57570D01*
X55411D02*
X55919D01*
X54395D02*
X55157D01*
X53633D02*
X54014D01*
X53125D02*
X53252D01*
X51982D02*
X52744D01*
X51093D02*
X51855D01*
X50077D02*
X50331D01*
X47283D02*
X47791D01*
X46902D02*
X47029D01*
X44108D02*
X46775D01*
X34202D02*
X43600D01*
X25947D02*
X26709D01*
X65698Y48265D02*
X66333D01*
X54395D02*
X55157D01*
X51347D02*
X52363D01*
X35218D02*
X46013D01*
X25947D02*
X26709D01*
X65698Y48138D02*
X66206D01*
X54395D02*
X55157D01*
X51855D02*
X51982D01*
X37123D02*
X46394D01*
X26074D02*
X26709D01*
X65698Y48011D02*
X66206D01*
X54522D02*
X55157D01*
X37123D02*
X46902D01*
X26074D02*
X26709D01*
X65571Y47884D02*
X66206D01*
X54776D02*
X55157D01*
X54395D02*
X54649D01*
X37123D02*
X47410D01*
X26074D02*
X26709D01*
X65571Y47757D02*
X66206D01*
X54395D02*
X54903D01*
X37123D02*
X47791D01*
X26074D02*
X26709D01*
X65571Y47630D02*
X66206D01*
X54395D02*
X55157D01*
X37123D02*
X48299D01*
X26074D02*
X26836D01*
X65571Y47503D02*
X66206D01*
X54395D02*
X55157D01*
X37123D02*
X48807D01*
X26074D02*
X26836D01*
X65571Y47376D02*
X66079D01*
X54395D02*
X55030D01*
X37123D02*
X49188D01*
X26201D02*
X26836D01*
X65444Y47249D02*
X66079D01*
X54776D02*
X55030D01*
X37123D02*
X49696D01*
X26201D02*
X26836D01*
X65444Y47122D02*
X66079D01*
X37123D02*
X50204D01*
X26201D02*
X26963D01*
X65444Y46995D02*
X66079D01*
X37250D02*
X50331D01*
X26201D02*
X26963D01*
X65317Y46868D02*
X66079D01*
X37123D02*
X50458D01*
X26201D02*
X26963D01*
X65317Y46741D02*
X65952D01*
X37250D02*
X50458D01*
X26328D02*
X26963D01*
X65317Y46614D02*
X65952D01*
X37250D02*
X50458D01*
X26328D02*
X27090D01*
X65317Y46487D02*
X65952D01*
X37250D02*
X50585D01*
X26328D02*
X27090D01*
X65190Y46360D02*
X65825D01*
X37377D02*
X50585D01*
X26455D02*
X27090D01*
X65190Y46233D02*
X65825D01*
X37377D02*
X50585D01*
X26455D02*
X27090D01*
X65190Y46106D02*
X65825D01*
X54014D02*
X54395D01*
X37377D02*
X50585D01*
X26455D02*
X27217D01*
X65190Y45979D02*
X65825D01*
X54014D02*
X54776D01*
X37377D02*
X50585D01*
X26455D02*
X27217D01*
X65063Y45852D02*
X65698D01*
X54014D02*
X54776D01*
X37504D02*
X50712D01*
X26582D02*
X27217D01*
X65063Y45725D02*
X65698D01*
X61888D02*
X62269D01*
X53887D02*
X54776D01*
X37504D02*
X50712D01*
X26582D02*
X27344D01*
X65063Y45598D02*
X65698D01*
X61888D02*
X62269D01*
X53887D02*
X54649D01*
X37504D02*
X50712D01*
X26582D02*
X27344D01*
X64936Y45471D02*
X65571D01*
X61888D02*
X62269D01*
X53887D02*
X54649D01*
X37504D02*
X50712D01*
X26709D02*
X27344D01*
X64936Y45344D02*
X65571D01*
X53760D02*
X54522D01*
X37631D02*
X50712D01*
X26709D02*
X27471D01*
X64936Y45217D02*
X65571D01*
X53760D02*
X54522D01*
X37631D02*
X50712D01*
X26709D02*
X27471D01*
X64809Y45090D02*
X65444D01*
X53633D02*
X54522D01*
X37758D02*
X50712D01*
X26836D02*
X27471D01*
X64809Y44963D02*
X65444D01*
X53633D02*
X54395D01*
X38012D02*
X50839D01*
X26836D02*
X27598D01*
X64809Y44836D02*
X65444D01*
X53633D02*
X54395D01*
X38393D02*
X50839D01*
X37885D02*
X38012D01*
X26836D02*
X27598D01*
X64682Y44709D02*
X65317D01*
X53506D02*
X54395D01*
X38774D02*
X50839D01*
X37885D02*
X38393D01*
X26963D02*
X27725D01*
X64682Y44582D02*
X65317D01*
X53506D02*
X54268D01*
X39028D02*
X50839D01*
X37885D02*
X38774D01*
X26963D02*
X27725D01*
X64555Y44455D02*
X65317D01*
X53379D02*
X54141D01*
X39663D02*
X50839D01*
X38012D02*
X39155D01*
X26963D02*
X27725D01*
X64555Y44328D02*
X65190D01*
X53252D02*
X54141D01*
X40044D02*
X50839D01*
X38012D02*
X39663D01*
X27090D02*
X27852D01*
X64555Y44201D02*
X65190D01*
X53252D02*
X54141D01*
X40552D02*
X50966D01*
X38139D02*
X40171D01*
X27090D02*
X27852D01*
X64428Y44074D02*
X65063D01*
X53125D02*
X54014D01*
X40933D02*
X50966D01*
X38139D02*
X40425D01*
X27217D02*
X27852D01*
X64428Y43947D02*
X65063D01*
X53125D02*
X53887D01*
X41314D02*
X50966D01*
X38266D02*
X41060D01*
X27217D02*
X27979D01*
X64301Y43820D02*
X65063D01*
X52998D02*
X53887D01*
X41949D02*
X50966D01*
X38266D02*
X41568D01*
X27217D02*
X27979D01*
X64301Y43693D02*
X64936D01*
X52871D02*
X53760D01*
X42584D02*
X50966D01*
X38393D02*
X42076D01*
X27344D02*
X28106D01*
X64174Y43566D02*
X64936D01*
X52744D02*
X53760D01*
X43219D02*
X50966D01*
X42965D02*
X43092D01*
X38520D02*
X42711D01*
X27344D02*
X28106D01*
X64174Y43439D02*
X64809D01*
X52744D02*
X53633D01*
X43600D02*
X50966D01*
X38520D02*
X43346D01*
X27471D02*
X28233D01*
X64174Y43312D02*
X64809D01*
X52617D02*
X53506D01*
X44616D02*
X50966D01*
X44362D02*
X44489D01*
X38647D02*
X43600D01*
X27471D02*
X28233D01*
X64047Y43185D02*
X64682D01*
X52490D02*
X53506D01*
X44870D02*
X50966D01*
X38901D02*
X44616D01*
X27598D02*
X28233D01*
X64047Y43058D02*
X64682D01*
X52363D02*
X53379D01*
X45759D02*
X50966D01*
X39155D02*
X45251D01*
X27598D02*
X28360D01*
X63920Y42931D02*
X64555D01*
X52363D02*
X53252D01*
X46394D02*
X50966D01*
X45632D02*
X45759D01*
X39663D02*
X45505D01*
X27725D02*
X28487D01*
X63793Y42804D02*
X64555D01*
X52109D02*
X53125D01*
X47156D02*
X50966D01*
X46394D02*
X46521D01*
X40044D02*
X46267D01*
X27725D02*
X28487D01*
X63793Y42677D02*
X64555D01*
X51982D02*
X52998D01*
X47918D02*
X51093D01*
X40679D02*
X47410D01*
X27725D02*
X28614D01*
X63793Y42550D02*
X64428D01*
X51982D02*
X52998D01*
X48807D02*
X51093D01*
X48426D02*
X48680D01*
X41187D02*
X47664D01*
X27852D02*
X28614D01*
X63666Y42423D02*
X64301D01*
X51728D02*
X52871D01*
X49315D02*
X51093D01*
X49061D02*
X49188D01*
X41568D02*
X48807D01*
X27979D02*
X28614D01*
X63666Y42296D02*
X64301D01*
X51601D02*
X52744D01*
X50204D02*
X51093D01*
X49950D02*
X50077D01*
X49442D02*
X49569D01*
X42330D02*
X49315D01*
X27979D02*
X28741D01*
X63539Y42169D02*
X64174D01*
X51601D02*
X52617D01*
X42965D02*
X49950D01*
X28106D02*
X28868D01*
X63412Y42042D02*
X64174D01*
X51728D02*
X52490D01*
X50966D02*
X51093D01*
X43346D02*
X50839D01*
X28106D02*
X28868D01*
X63412Y41915D02*
X64047D01*
X51982D02*
X52109D01*
X44108D02*
X51728D01*
X28106D02*
X28995D01*
X63285Y41788D02*
X64047D01*
X44743D02*
X52109D01*
X28233D02*
X28995D01*
X63285Y41661D02*
X63920D01*
X45251D02*
X52109D01*
X28360D02*
X29122D01*
X63158Y41534D02*
X63920D01*
X46013D02*
X51855D01*
X28360D02*
X29249D01*
X63031Y41407D02*
X63793D01*
X46902D02*
X51728D01*
X40552D02*
X40806D01*
X28487D02*
X29249D01*
X63031Y41280D02*
X63666D01*
X47410D02*
X51601D01*
X40552D02*
X41314D01*
X28487D02*
X29376D01*
X62904Y41153D02*
X63666D01*
X48299D02*
X51474D01*
X40806D02*
X41695D01*
X28614D02*
X29376D01*
X62904Y41026D02*
X63539D01*
X49061D02*
X51220D01*
X41060D02*
X42076D01*
X28741D02*
X29503D01*
X62777Y40899D02*
X63539D01*
X49696D02*
X51093D01*
X41187D02*
X42457D01*
X28741D02*
X29630D01*
X62650Y40772D02*
X63412D01*
X50585D02*
X50839D01*
X41441D02*
X42965D01*
X28868D02*
X29630D01*
X62650Y40645D02*
X63285D01*
X41568D02*
X43346D01*
X28995D02*
X29757D01*
X62523Y40518D02*
X63285D01*
X41822D02*
X43854D01*
X28995D02*
X29884D01*
X62396Y40391D02*
X63158D01*
X42076D02*
X44362D01*
X29122D02*
X29884D01*
X62396Y40264D02*
X63031D01*
X42330D02*
X44743D01*
X29249D02*
X30011D01*
X62269Y40137D02*
X63031D01*
X42584D02*
X45378D01*
X29249D02*
X30138D01*
X62142Y40010D02*
X62904D01*
X42965D02*
X45886D01*
X29376D02*
X30138D01*
X62142Y39883D02*
X62777D01*
X43219D02*
X46267D01*
X29503D02*
X30265D01*
X61888Y39756D02*
X62777D01*
X43727D02*
X46902D01*
X29503D02*
X30392D01*
X61888Y39629D02*
X62650D01*
X44235D02*
X47283D01*
X29630D02*
X30519D01*
X61761Y39502D02*
X62523D01*
X44870D02*
X47029D01*
X29757D02*
X30519D01*
X61634Y39375D02*
X62396D01*
X29884D02*
X30646D01*
X61634Y39248D02*
X62396D01*
X29884D02*
X30773D01*
X61507Y39121D02*
X62269D01*
X30011D02*
X30900D01*
X61380Y38994D02*
X62142D01*
X30138D02*
X31027D01*
X61253Y38867D02*
X62015D01*
X30265D02*
X31154D01*
X61126Y38740D02*
X61888D01*
X30392D02*
X31154D01*
X60999Y38613D02*
X61888D01*
X30392D02*
X31281D01*
X60872Y38486D02*
X61761D01*
X30519D02*
X31408D01*
X60745Y38359D02*
X61634D01*
X41060D02*
X41441D01*
X30646D02*
X31535D01*
X60745Y38232D02*
X61507D01*
X41060D02*
X41441D01*
X30773D02*
X31662D01*
X60618Y38105D02*
X61380D01*
X41060D02*
X41441D01*
X30900D02*
X31789D01*
X60491Y37978D02*
X61253D01*
X31027D02*
X31916D01*
X60364Y37851D02*
X61126D01*
X31154D02*
X32043D01*
X60237Y37724D02*
X60999D01*
X31281D02*
X32170D01*
X60110Y37597D02*
X60999D01*
X31281D02*
X32297D01*
X59983Y37470D02*
X60872D01*
X31408D02*
X32424D01*
X59856Y37343D02*
X60618D01*
X31662D02*
X32551D01*
X59729Y37216D02*
X60618D01*
X31662D02*
X32678D01*
X59475Y37089D02*
X60491D01*
X31789D02*
X32805D01*
X59348Y36962D02*
X60237D01*
X43981D02*
X44235D01*
X32043D02*
X32932D01*
X59221Y36835D02*
X60237D01*
X43854D02*
X44362D01*
X32043D02*
X33059D01*
X59094Y36708D02*
X59983D01*
X47029D02*
X47410D01*
X43854D02*
X44362D01*
X32297D02*
X33186D01*
X58967Y36581D02*
X59856D01*
X47029D02*
X47410D01*
X43981D02*
X44235D01*
X32424D02*
X33440D01*
X58840Y36454D02*
X59729D01*
X47029D02*
X47410D01*
X32551D02*
X33567D01*
X58713Y36327D02*
X59602D01*
X42203D02*
X42330D01*
X32678D02*
X33694D01*
X58459Y36200D02*
X59475D01*
X42076D02*
X42457D01*
X32805D02*
X33821D01*
X58332Y36073D02*
X59348D01*
X41949D02*
X42457D01*
X32932D02*
X34075D01*
X58205Y35946D02*
X59094D01*
X42203D02*
X42330D01*
X33186D02*
X34202D01*
X58078Y35819D02*
X58967D01*
X33313D02*
X34329D01*
X57824Y35692D02*
X58840D01*
X33440D02*
X34583D01*
X57697Y35565D02*
X58713D01*
X33567D02*
X34710D01*
X57443Y35438D02*
X58459D01*
X33821D02*
X34837D01*
X57316Y35311D02*
X58332D01*
X33948D02*
X35091D01*
X57062Y35184D02*
X58205D01*
X45759D02*
X45886D01*
X34075D02*
X35345D01*
X56935Y35057D02*
X57951D01*
X45759D02*
X46013D01*
X34329D02*
X35472D01*
X56681Y34930D02*
X57824D01*
X45632D02*
X46140D01*
X34456D02*
X35599D01*
X56427Y34803D02*
X57570D01*
X45505D02*
X46394D01*
X34710D02*
X35853D01*
X56300Y34676D02*
X57443D01*
X45378D02*
X46521D01*
X34837D02*
X35980D01*
X56046Y34549D02*
X57316D01*
X45378D02*
X46267D01*
X34964D02*
X36361D01*
X55792Y34422D02*
X57062D01*
X45505D02*
X46140D01*
X41949D02*
X42330D01*
X35218D02*
X36488D01*
X55665Y34295D02*
X56808D01*
X45632D02*
X46013D01*
X41949D02*
X42457D01*
X35472D02*
X36742D01*
X55411Y34168D02*
X56681D01*
X45759D02*
X46013D01*
X41949D02*
X42330D01*
X35599D02*
X36996D01*
X55157Y34041D02*
X56427D01*
X45759D02*
X45886D01*
X35853D02*
X37250D01*
X54903Y33914D02*
X56173D01*
X36107D02*
X37504D01*
X54649Y33787D02*
X56046D01*
X36234D02*
X37758D01*
X54395Y33660D02*
X55665D01*
X36615D02*
X38012D01*
X54141Y33533D02*
X55538D01*
X48553D02*
X48807D01*
X36742D02*
X38266D01*
X53760Y33406D02*
X55284D01*
X48553D02*
X48934D01*
X36996D02*
X38647D01*
X53506Y33279D02*
X54903D01*
X48553D02*
X48934D01*
X37377D02*
X38901D01*
X53125Y33152D02*
X54776D01*
X48680D02*
X48807D01*
X37504D02*
X39155D01*
X52744Y33025D02*
X54395D01*
X37885D02*
X39536D01*
X52490Y32898D02*
X54141D01*
X38139D02*
X39917D01*
X52109Y32771D02*
X53887D01*
X38393D02*
X40298D01*
X51601Y32644D02*
X53506D01*
X38774D02*
X40806D01*
X51220Y32517D02*
X53125D01*
X39155D02*
X41187D01*
X50712Y32390D02*
X52871D01*
X39409D02*
X41695D01*
X50077Y32263D02*
X52363D01*
X39790D02*
X42330D01*
X49442Y32136D02*
X51982D01*
X40298D02*
X42838D01*
X48553Y32009D02*
X51601D01*
X40679D02*
X43854D01*
X41187Y31882D02*
X51093D01*
X41822Y31755D02*
X50458D01*
X42330Y31628D02*
X49950D01*
X43092Y31501D02*
X49188D01*
X44362Y31374D02*
X47918D01*
D65*
X86818Y70801D02*
X87834D01*
X86818Y70750D02*
X87834D01*
X86818Y70699D02*
X87834D01*
X86767Y70648D02*
X87834D01*
X86767Y70597D02*
X87834D01*
X86767Y70547D02*
X87885D01*
X86767Y70496D02*
X87885D01*
X86767Y70445D02*
X87885D01*
X86767Y70394D02*
X87885D01*
X86716Y70343D02*
X87885D01*
X86716Y70293D02*
X87935D01*
X86716Y70242D02*
X87935D01*
X86716Y70191D02*
X87935D01*
X89307Y70140D02*
X89459D01*
X86716D02*
X87935D01*
X85192D02*
X85345D01*
X89256Y70089D02*
X89510D01*
X86665D02*
X87935D01*
X85141D02*
X85395D01*
X89155Y70039D02*
X89561D01*
X86665D02*
X87986D01*
X85091D02*
X85497D01*
X89104Y69988D02*
X89612D01*
X86665D02*
X87986D01*
X85040D02*
X85548D01*
X89002Y69937D02*
X89663D01*
X86665D02*
X87986D01*
X84989D02*
X85649D01*
X88951Y69886D02*
X89713D01*
X86564D02*
X88037D01*
X84938D02*
X85700D01*
X88850Y69835D02*
X89764D01*
X86462D02*
X88189D01*
X84887D02*
X85802D01*
X88799Y69785D02*
X89815D01*
X86361D02*
X88291D01*
X84837D02*
X85853D01*
X88697Y69734D02*
X89866D01*
X86208D02*
X88443D01*
X84786D02*
X85903D01*
X88647Y69683D02*
X89917D01*
X86107D02*
X88545D01*
X84735D02*
X86005D01*
X84684Y69632D02*
X89967D01*
X84633Y69581D02*
X90018D01*
X84583Y69531D02*
X90069D01*
X84583Y69480D02*
X90069D01*
X84583Y69429D02*
X90069D01*
X84633Y69378D02*
X90018D01*
X84684Y69327D02*
X89967D01*
X84684Y69277D02*
X89917D01*
X84735Y69226D02*
X89917D01*
X84786Y69175D02*
X89866D01*
X84786Y69124D02*
X89815D01*
X84837Y69073D02*
X89815D01*
X84887Y69023D02*
X89764D01*
X84887Y68972D02*
X89713D01*
X84938Y68921D02*
X89713D01*
X84989Y68870D02*
X89663D01*
X84989Y68819D02*
X89612D01*
X85040Y68769D02*
X89612D01*
X85091Y68718D02*
X89561D01*
X85040Y68667D02*
X89612D01*
X85040Y68616D02*
X89612D01*
X84989Y68565D02*
X89612D01*
X84989Y68515D02*
X89663D01*
X84938Y68464D02*
X89663D01*
X84938Y68413D02*
X89713D01*
X84938Y68362D02*
X89713D01*
X87529Y68311D02*
X89764D01*
X84887D02*
X87072D01*
X87681Y68261D02*
X89764D01*
X84887D02*
X86970D01*
X87783Y68210D02*
X89764D01*
X84837D02*
X86869D01*
X87885Y68159D02*
X89815D01*
X84837D02*
X86767D01*
X87935Y68108D02*
X89815D01*
X84786D02*
X86716D01*
X87986Y68057D02*
X89967D01*
X84633D02*
X86665D01*
X88037Y68007D02*
X90272D01*
X84379D02*
X86615D01*
X88088Y67956D02*
X90526D01*
X84125D02*
X86564D01*
X88088Y67905D02*
X90729D01*
X83922D02*
X86564D01*
X88139Y67854D02*
X90729D01*
X83871D02*
X86513D01*
X88139Y67803D02*
X90729D01*
X83871D02*
X86462D01*
X88189Y67753D02*
X90729D01*
X83871D02*
X86462D01*
X88189Y67702D02*
X90729D01*
X83871D02*
X86462D01*
X88189Y67651D02*
X90729D01*
X83871D02*
X86411D01*
X88240Y67600D02*
X90729D01*
X83871D02*
X86411D01*
X88240Y67549D02*
X90729D01*
X83871D02*
X86411D01*
X88240Y67499D02*
X90729D01*
X83871D02*
X86411D01*
X88240Y67448D02*
X90729D01*
X83871D02*
X86411D01*
X88240Y67397D02*
X90729D01*
X83871D02*
X86411D01*
X88240Y67346D02*
X90729D01*
X83871D02*
X86411D01*
X88240Y67295D02*
X90729D01*
X83871D02*
X86411D01*
X88240Y67245D02*
X90729D01*
X83871D02*
X86411D01*
X88189Y67194D02*
X90729D01*
X83871D02*
X86411D01*
X88189Y67143D02*
X90729D01*
X83871D02*
X86462D01*
X88189Y67092D02*
X90729D01*
X83871D02*
X86462D01*
X88139Y67041D02*
X90729D01*
X83871D02*
X86462D01*
X88139Y66991D02*
X90729D01*
X83871D02*
X86513D01*
X88088Y66940D02*
X90729D01*
X83922D02*
X86564D01*
X88088Y66889D02*
X90526D01*
X84125D02*
X86564D01*
X88037Y66838D02*
X90221D01*
X84430D02*
X86615D01*
X87986Y66787D02*
X89967D01*
X84684D02*
X86665D01*
X87935Y66737D02*
X89866D01*
X84786D02*
X86716D01*
X87885Y66686D02*
X89815D01*
X84837D02*
X86767D01*
X87783Y66635D02*
X89815D01*
X84837D02*
X86818D01*
X87732Y66584D02*
X89764D01*
X84837D02*
X86919D01*
X87681Y66533D02*
X89764D01*
X84887D02*
X86970D01*
X87681Y66483D02*
X89764D01*
X84887D02*
X86970D01*
X87681Y66432D02*
X89713D01*
X84938D02*
X86970D01*
X87681Y66381D02*
X89713D01*
X84938D02*
X86919D01*
X87732Y66330D02*
X89663D01*
X84938D02*
X86919D01*
X87732Y66279D02*
X89663D01*
X84989D02*
X86869D01*
X87783Y66229D02*
X89663D01*
X84989D02*
X86869D01*
X87783Y66178D02*
X89612D01*
X85040D02*
X86869D01*
X87834Y66127D02*
X89612D01*
X85040D02*
X86818D01*
X87834Y66076D02*
X89612D01*
X85040D02*
X86818D01*
X87834Y66025D02*
X89612D01*
X84989D02*
X86767D01*
X87885Y65975D02*
X89663D01*
X84989D02*
X86767D01*
X87885Y65924D02*
X89713D01*
X84938D02*
X86767D01*
X87935Y65873D02*
X89713D01*
X84887D02*
X86716D01*
X87935Y65822D02*
X89764D01*
X84887D02*
X86716D01*
X87935Y65771D02*
X89815D01*
X84837D02*
X86665D01*
X87986Y65721D02*
X89866D01*
X84786D02*
X86665D01*
X87986Y65670D02*
X89866D01*
X84786D02*
X86665D01*
X88037Y65619D02*
X89917D01*
X84735D02*
X86615D01*
X88037Y65568D02*
X89967D01*
X84684D02*
X86615D01*
X88037Y65517D02*
X89967D01*
X84633D02*
X86564D01*
X88088Y65467D02*
X90018D01*
X84633D02*
X86564D01*
X88088Y65416D02*
X90069D01*
X84583D02*
X86513D01*
X88139Y65365D02*
X90069D01*
X84583D02*
X86513D01*
X88139Y65314D02*
X90069D01*
X84583D02*
X86513D01*
X88189Y65263D02*
X90018D01*
X84633D02*
X86462D01*
X88189Y65213D02*
X89967D01*
X84684D02*
X86462D01*
X88189Y65162D02*
X89917D01*
X84735D02*
X86411D01*
X88697Y65111D02*
X89866D01*
X88240D02*
X88596D01*
X86056D02*
X86411D01*
X84786D02*
X85903D01*
X88799Y65060D02*
X89815D01*
X88240D02*
X88494D01*
X86157D02*
X86411D01*
X84837D02*
X85853D01*
X88850Y65009D02*
X89764D01*
X88291D02*
X88393D01*
X86208D02*
X86361D01*
X84887D02*
X85751D01*
X88951Y64959D02*
X89713D01*
X84938D02*
X85700D01*
X89002Y64908D02*
X89663D01*
X84989D02*
X85599D01*
X89104Y64857D02*
X89612D01*
X85040D02*
X85548D01*
X89155Y64806D02*
X89561D01*
X85091D02*
X85497D01*
X89256Y64755D02*
X89510D01*
X85141D02*
X85395D01*
X89307Y64705D02*
X89459D01*
X85192D02*
X85345D01*
X91136Y63993D02*
X91491D01*
X90577D02*
X90831D01*
X90171D02*
X90526D01*
X89358D02*
X89764D01*
X88443D02*
X89053D01*
X87173D02*
X87631D01*
X86361D02*
X86716D01*
X85802D02*
X86056D01*
X85243D02*
X85497D01*
X84887D02*
X85091D01*
X84481D02*
X84837D01*
X83871D02*
X84278D01*
X83160D02*
X83516D01*
X91034Y63943D02*
X91593D01*
X90120D02*
X90831D01*
X89307D02*
X89815D01*
X88342D02*
X89053D01*
X87072D02*
X87681D01*
X86259D02*
X86818D01*
X85802D02*
X86056D01*
X85243D02*
X85497D01*
X84430D02*
X85091D01*
X83821D02*
X84379D01*
X83059D02*
X83567D01*
X90983Y63892D02*
X91644D01*
X90069D02*
X90831D01*
X89256D02*
X89866D01*
X88342D02*
X89053D01*
X87021D02*
X87732D01*
X86208D02*
X86869D01*
X85802D02*
X86056D01*
X85243D02*
X85497D01*
X84481D02*
X85091D01*
X83719D02*
X84430D01*
X83008D02*
X83617D01*
X90983Y63841D02*
X91695D01*
X90069D02*
X90831D01*
X89205D02*
X89917D01*
X88291D02*
X89053D01*
X87021D02*
X87732D01*
X86208D02*
X86869D01*
X85802D02*
X86056D01*
X85243D02*
X85497D01*
X84481D02*
X85091D01*
X83719D02*
X84430D01*
X82957D02*
X83668D01*
X91339Y63790D02*
X91695D01*
X90933D02*
X91288D01*
X90475D02*
X90831D01*
X90069D02*
X90374D01*
X89612D02*
X89917D01*
X89205D02*
X89510D01*
X88697D02*
X89053D01*
X88291D02*
X88647D01*
X87478D02*
X87783D01*
X87072D02*
X87326D01*
X86564D02*
X86919D01*
X86157D02*
X86513D01*
X85802D02*
X86056D01*
X85243D02*
X85497D01*
X84735D02*
X85091D01*
X84532D02*
X84684D01*
X84125D02*
X84481D01*
X83770D02*
X84024D01*
X83363D02*
X83668D01*
X82957D02*
X83262D01*
X91441Y63739D02*
X91695D01*
X90933D02*
X91187D01*
X90526D02*
X90831D01*
X90018D02*
X90323D01*
X89663D02*
X89917D01*
X89155D02*
X89459D01*
X88748D02*
X89053D01*
X88291D02*
X88545D01*
X87529D02*
X87783D01*
X87123D02*
X87224D01*
X86665D02*
X86919D01*
X86157D02*
X86411D01*
X85802D02*
X86056D01*
X85243D02*
X85497D01*
X84837D02*
X85091D01*
X84227D02*
X84481D01*
X83821D02*
X83922D01*
X83465D02*
X83719D01*
X82957D02*
X83211D01*
X91491Y63689D02*
X91695D01*
X90933D02*
X91187D01*
X90577D02*
X90831D01*
X90018D02*
X90272D01*
X89713D02*
X89967D01*
X89155D02*
X89409D01*
X88799D02*
X89053D01*
X88291D02*
X88494D01*
X87478D02*
X87783D01*
X86665D02*
X86919D01*
X86157D02*
X86411D01*
X85802D02*
X86056D01*
X85243D02*
X85497D01*
X84837D02*
X85091D01*
X84227D02*
X84481D01*
X83465D02*
X83719D01*
X82957D02*
X83160D01*
X91491Y63638D02*
X91695D01*
X90933D02*
X91136D01*
X90577D02*
X90831D01*
X90018D02*
X90272D01*
X89155D02*
X89967D01*
X88799D02*
X89053D01*
X88291D02*
X88494D01*
X87173D02*
X87732D01*
X86716D02*
X86919D01*
X86157D02*
X86361D01*
X85802D02*
X86056D01*
X85243D02*
X85497D01*
X84887D02*
X85091D01*
X84278D02*
X84481D01*
X82957D02*
X83719D01*
X91491Y63587D02*
X91695D01*
X90933D02*
X91136D01*
X90577D02*
X90831D01*
X90018D02*
X90272D01*
X89155D02*
X89967D01*
X88799D02*
X89053D01*
X88291D02*
X88494D01*
X87072D02*
X87732D01*
X86716D02*
X86919D01*
X86157D02*
X86361D01*
X85802D02*
X86056D01*
X85243D02*
X85497D01*
X84887D02*
X85091D01*
X84278D02*
X84532D01*
X82957D02*
X83719D01*
X91491Y63536D02*
X91695D01*
X90933D02*
X91136D01*
X90577D02*
X90831D01*
X90018D02*
X90272D01*
X89155D02*
X89967D01*
X88799D02*
X89053D01*
X88291D02*
X88494D01*
X87021D02*
X87681D01*
X86716D02*
X86919D01*
X86157D02*
X86361D01*
X85802D02*
X86056D01*
X85243D02*
X85497D01*
X84887D02*
X85091D01*
X84278D02*
X84532D01*
X82957D02*
X83719D01*
X91491Y63485D02*
X91695D01*
X90933D02*
X91136D01*
X90577D02*
X90831D01*
X90018D02*
X90272D01*
X89155D02*
X89967D01*
X88799D02*
X89053D01*
X88291D02*
X88494D01*
X87021D02*
X87631D01*
X86716D02*
X86919D01*
X86157D02*
X86361D01*
X85802D02*
X86056D01*
X85243D02*
X85497D01*
X84887D02*
X85091D01*
X84278D02*
X84532D01*
X82957D02*
X83719D01*
X91491Y63435D02*
X91695D01*
X90933D02*
X91136D01*
X90577D02*
X90831D01*
X90018D02*
X90272D01*
X89713D02*
X89967D01*
X88799D02*
X89053D01*
X88291D02*
X88494D01*
X87021D02*
X87427D01*
X86716D02*
X86919D01*
X86157D02*
X86361D01*
X85802D02*
X86056D01*
X85243D02*
X85497D01*
X84887D02*
X85091D01*
X84278D02*
X84481D01*
X83465D02*
X83719D01*
X91441Y63384D02*
X91695D01*
X90933D02*
X91187D01*
X90577D02*
X90831D01*
X90018D02*
X90272D01*
X89713D02*
X89967D01*
X88799D02*
X89053D01*
X88291D02*
X88494D01*
X87631D02*
X87681D01*
X87021D02*
X87224D01*
X86665D02*
X86919D01*
X86157D02*
X86411D01*
X85802D02*
X86056D01*
X85243D02*
X85497D01*
X84887D02*
X85091D01*
X84227D02*
X84481D01*
X83465D02*
X83719D01*
X91441Y63333D02*
X91695D01*
X90933D02*
X91187D01*
X90526D02*
X90831D01*
X90018D02*
X90323D01*
X89663D02*
X89917D01*
X89256D02*
X89409D01*
X88799D02*
X89053D01*
X88291D02*
X88494D01*
X87580D02*
X87732D01*
X87021D02*
X87224D01*
X86665D02*
X86919D01*
X86157D02*
X86411D01*
X85751D02*
X86005D01*
X85243D02*
X85548D01*
X84887D02*
X85091D01*
X84176D02*
X84481D01*
X83821D02*
X83922D01*
X83414D02*
X83719D01*
X83059D02*
X83160D01*
X90933Y63282D02*
X91695D01*
X90069D02*
X90831D01*
X89612D02*
X89917D01*
X89205D02*
X89459D01*
X88799D02*
X89053D01*
X88291D02*
X88494D01*
X87478D02*
X87783D01*
X87021D02*
X87326D01*
X86157D02*
X86919D01*
X85243D02*
X86005D01*
X84887D02*
X85091D01*
X83770D02*
X84481D01*
X83363D02*
X83668D01*
X83008D02*
X83262D01*
X90983Y63231D02*
X91644D01*
X90069D02*
X90831D01*
X89155D02*
X89917D01*
X88799D02*
X89053D01*
X88291D02*
X88494D01*
X87021D02*
X87834D01*
X86208D02*
X86869D01*
X85243D02*
X86005D01*
X84887D02*
X85091D01*
X83719D02*
X84430D01*
X82957D02*
X83668D01*
X90983Y63181D02*
X91644D01*
X90069D02*
X90831D01*
X89205D02*
X89866D01*
X88799D02*
X89053D01*
X88291D02*
X88494D01*
X87072D02*
X87783D01*
X86208D02*
X86869D01*
X85243D02*
X85954D01*
X84887D02*
X85091D01*
X83770D02*
X84379D01*
X82957D02*
X83617D01*
X91034Y63130D02*
X91593D01*
X90120D02*
X90831D01*
X89256D02*
X89815D01*
X88799D02*
X89053D01*
X88291D02*
X88494D01*
X87123D02*
X87732D01*
X86259D02*
X86818D01*
X85243D02*
X85954D01*
X84887D02*
X85091D01*
X83821D02*
X84329D01*
X83008D02*
X83567D01*
X91136Y63079D02*
X91491D01*
X90577D02*
X90831D01*
X90221D02*
X90526D01*
X89358D02*
X89713D01*
X88799D02*
X89053D01*
X88291D02*
X88494D01*
X87173D02*
X87580D01*
X86361D02*
X86716D01*
X85548D02*
X85853D01*
X85243D02*
X85497D01*
X84887D02*
X85091D01*
X83922D02*
X84278D01*
X83109D02*
X83465D01*
X90577Y63028D02*
X90831D01*
X90577Y62977D02*
X90831D01*
X90577Y62927D02*
X90831D01*
X87631D02*
X87834D01*
X90577Y62876D02*
X90831D01*
X87631D02*
X87834D01*
X90577Y62825D02*
X90831D01*
X87631D02*
X87834D01*
X90577Y62774D02*
X90831D01*
X87631D02*
X87834D01*
X90577Y62723D02*
X90831D01*
X87631D02*
X87834D01*
X90577Y62673D02*
X90831D01*
X87631D02*
X87834D01*
X90577Y62622D02*
X90831D01*
X87631D02*
X87834D01*
X90577Y62571D02*
X90831D01*
X90221D02*
X90475D01*
X89409D02*
X89713D01*
X88799D02*
X89002D01*
X88443D02*
X88697D01*
X87935D02*
X88189D01*
X87631D02*
X87834D01*
X87326D02*
X87580D01*
X86818D02*
X86970D01*
X86208D02*
X86462D01*
X85700D02*
X86056D01*
X85091D02*
X85345D01*
X84735D02*
X84989D01*
X84176D02*
X84430D01*
X90171Y62520D02*
X90831D01*
X89256D02*
X89866D01*
X88342D02*
X89002D01*
X87631D02*
X88291D01*
X87326D02*
X87580D01*
X86767D02*
X87021D01*
X86259D02*
X86513D01*
X85599D02*
X86157D01*
X84684D02*
X85345D01*
X84075D02*
X84532D01*
X90120Y62469D02*
X90831D01*
X89205D02*
X89917D01*
X87631D02*
X89002D01*
X87275D02*
X87529D01*
X86767D02*
X87021D01*
X86259D02*
X86513D01*
X85548D02*
X86208D01*
X84684D02*
X85345D01*
X84024D02*
X84583D01*
X90069Y62419D02*
X90831D01*
X89205D02*
X89917D01*
X88393D02*
X89002D01*
X87631D02*
X88342D01*
X87275D02*
X87529D01*
X86767D02*
X87021D01*
X86259D02*
X86513D01*
X85497D02*
X86208D01*
X84735D02*
X85345D01*
X83973D02*
X84633D01*
X90069Y62368D02*
X90831D01*
X89155D02*
X89866D01*
X88443D02*
X89002D01*
X87631D02*
X88393D01*
X87275D02*
X87529D01*
X86767D02*
X87072D01*
X86259D02*
X86513D01*
X85497D02*
X86157D01*
X84735D02*
X85345D01*
X83922D02*
X84684D01*
X90526Y62317D02*
X90831D01*
X90018D02*
X90323D01*
X89713D02*
X89764D01*
X89155D02*
X89409D01*
X88748D02*
X89002D01*
X88494D02*
X88545D01*
X88088D02*
X88393D01*
X87631D02*
X87935D01*
X87275D02*
X87478D01*
X86716D02*
X87072D01*
X86310D02*
X86564D01*
X86005D02*
X86107D01*
X85497D02*
X85751D01*
X85040D02*
X85345D01*
X84786D02*
X84837D01*
X84430D02*
X84684D01*
X83922D02*
X84227D01*
X90577Y62266D02*
X90831D01*
X90018D02*
X90272D01*
X89155D02*
X89409D01*
X88748D02*
X89002D01*
X88139D02*
X88393D01*
X87631D02*
X87885D01*
X87224D02*
X87478D01*
X86716D02*
X87072D01*
X86310D02*
X86564D01*
X85497D02*
X85700D01*
X85091D02*
X85345D01*
X84430D02*
X84684D01*
X83922D02*
X84176D01*
X90577Y62215D02*
X90831D01*
X90018D02*
X90272D01*
X89155D02*
X89409D01*
X88799D02*
X89002D01*
X88139D02*
X88393D01*
X87631D02*
X87885D01*
X87224D02*
X87478D01*
X86716D02*
X87123D01*
X86310D02*
X86564D01*
X85497D02*
X85700D01*
X85091D02*
X85345D01*
X84481D02*
X84684D01*
X83922D02*
X84176D01*
X90577Y62165D02*
X90831D01*
X90018D02*
X90272D01*
X89155D02*
X89815D01*
X88799D02*
X89002D01*
X88139D02*
X88393D01*
X87631D02*
X87834D01*
X87224D02*
X87478D01*
X86665D02*
X87123D01*
X86361D02*
X86564D01*
X85497D02*
X86157D01*
X85091D02*
X85345D01*
X83922D02*
X84684D01*
X90577Y62114D02*
X90831D01*
X90018D02*
X90272D01*
X89155D02*
X89866D01*
X88799D02*
X89002D01*
X88189D02*
X88393D01*
X87631D02*
X87834D01*
X87224D02*
X87427D01*
X86919D02*
X87123D01*
X86665D02*
X86869D01*
X86361D02*
X86615D01*
X85497D02*
X86208D01*
X85091D02*
X85345D01*
X83922D02*
X84735D01*
X90577Y62063D02*
X90831D01*
X90018D02*
X90272D01*
X89155D02*
X89917D01*
X88799D02*
X89002D01*
X88139D02*
X88393D01*
X87631D02*
X87834D01*
X86919D02*
X87427D01*
X86665D02*
X86869D01*
X86361D02*
X86615D01*
X85497D02*
X86259D01*
X85091D02*
X85345D01*
X83922D02*
X84735D01*
X90577Y62012D02*
X90831D01*
X90018D02*
X90272D01*
X89155D02*
X89917D01*
X88799D02*
X89002D01*
X88139D02*
X88393D01*
X87631D02*
X87885D01*
X86970D02*
X87427D01*
X86411D02*
X86869D01*
X85497D02*
X86259D01*
X85091D02*
X85345D01*
X83922D02*
X84684D01*
X90577Y61961D02*
X90831D01*
X90018D02*
X90272D01*
X89713D02*
X89967D01*
X89155D02*
X89409D01*
X88799D02*
X89002D01*
X88139D02*
X88393D01*
X87631D02*
X87885D01*
X86970D02*
X87377D01*
X86411D02*
X86818D01*
X86005D02*
X86259D01*
X85497D02*
X85700D01*
X85091D02*
X85345D01*
X84481D02*
X84684D01*
X90577Y61911D02*
X90831D01*
X90018D02*
X90272D01*
X89713D02*
X89967D01*
X89155D02*
X89409D01*
X88799D02*
X89002D01*
X88139D02*
X88393D01*
X87631D02*
X87885D01*
X86970D02*
X87377D01*
X86411D02*
X86818D01*
X86056D02*
X86259D01*
X85497D02*
X85700D01*
X85091D02*
X85345D01*
X84430D02*
X84684D01*
X84075D02*
X84125D01*
X90577Y61860D02*
X90831D01*
X90018D02*
X90272D01*
X89663D02*
X89967D01*
X89155D02*
X89459D01*
X88799D02*
X89002D01*
X88088D02*
X88393D01*
X87631D02*
X87935D01*
X87021D02*
X87377D01*
X86462D02*
X86818D01*
X86005D02*
X86259D01*
X85497D02*
X85751D01*
X85091D02*
X85345D01*
X84379D02*
X84684D01*
X83973D02*
X84176D01*
X90577Y61809D02*
X90831D01*
X90018D02*
X90272D01*
X89155D02*
X89917D01*
X88799D02*
X89002D01*
X87631D02*
X88393D01*
X87021D02*
X87326D01*
X86462D02*
X86767D01*
X85497D02*
X86259D01*
X85091D02*
X85345D01*
X83922D02*
X84633D01*
X90577Y61758D02*
X90831D01*
X90018D02*
X90272D01*
X89155D02*
X89917D01*
X88799D02*
X89002D01*
X87631D02*
X88342D01*
X87021D02*
X87326D01*
X86462D02*
X86767D01*
X85497D02*
X86208D01*
X85091D02*
X85345D01*
X83922D02*
X84633D01*
X90577Y61707D02*
X90831D01*
X90018D02*
X90272D01*
X89155D02*
X89866D01*
X88799D02*
X89002D01*
X87631D02*
X88291D01*
X87021D02*
X87326D01*
X86513D02*
X86767D01*
X85497D02*
X86208D01*
X85091D02*
X85345D01*
X83973D02*
X84583D01*
X90577Y61657D02*
X90831D01*
X90018D02*
X90272D01*
X89155D02*
X89815D01*
X88799D02*
X89002D01*
X87885D02*
X88240D01*
X87631D02*
X87834D01*
X87072D02*
X87275D01*
X86513D02*
X86767D01*
X85497D02*
X86157D01*
X85091D02*
X85345D01*
X84075D02*
X84532D01*
D66*
X11425Y14900D02*
Y15700D01*
Y14900D02*
X12225D01*
X11425Y17100D02*
Y17900D01*
X12225D01*
X12800Y11100D02*
X13600D01*
Y11900D01*
X10600Y11100D02*
X11400D01*
X10600D02*
Y11900D01*
X21450Y12550D02*
Y12950D01*
X22150Y12550D02*
Y12950D01*
X16575Y11100D02*
X17375D01*
Y11900D01*
X14375Y11100D02*
X15175D01*
X14375D02*
Y11900D01*
X65925Y10350D02*
Y18650D01*
X57625D02*
X65925D01*
X57625Y10350D02*
X65925D01*
X57625D02*
Y18650D01*
X14750Y22000D02*
X15150D01*
X14750Y22700D02*
X15150D01*
X11425Y21700D02*
X12225D01*
X11425Y20900D02*
Y21700D01*
Y18700D02*
X12225D01*
X11425D02*
Y19500D01*
X42575Y24000D02*
X42975D01*
X42575Y23300D02*
X42975D01*
X28175Y11850D02*
Y12650D01*
Y11850D02*
X28975D01*
X31175D02*
Y12650D01*
X30375Y11850D02*
X31175D01*
X42925Y11325D02*
Y12125D01*
Y11325D02*
X43725D01*
X45925D02*
Y12125D01*
X45125Y11325D02*
X45925D01*
X18900Y21750D02*
X19300D01*
X18900Y22450D02*
X19300D01*
X24400Y11725D02*
Y12525D01*
Y11725D02*
X25200D01*
X27400D02*
Y12525D01*
X26600Y11725D02*
X27400D01*
X48150Y10375D02*
Y10775D01*
X48850Y10375D02*
Y10775D01*
X9925Y22925D02*
Y23325D01*
X10625Y22925D02*
Y23325D01*
X78825Y19700D02*
Y20100D01*
X78125Y19700D02*
Y20100D01*
X83625Y23475D02*
Y24275D01*
X82825D02*
X83625D01*
Y21275D02*
Y22075D01*
X82825Y21275D02*
X83625D01*
X39225Y11325D02*
Y12125D01*
Y11325D02*
X40025D01*
X42225D02*
Y12125D01*
X41425Y11325D02*
X42225D01*
X8550Y22275D02*
Y22675D01*
X9250Y22275D02*
Y22675D01*
X12750Y70050D02*
X13150D01*
X12750Y69350D02*
X13150D01*
X9975Y70075D02*
X10375D01*
X9975Y69375D02*
X10375D01*
X79025Y17575D02*
X79425D01*
X79025Y18275D02*
X79425D01*
X52450Y7225D02*
X52850D01*
X52450Y7925D02*
X52850D01*
X83625Y19550D02*
Y20350D01*
X82825D02*
X83625D01*
Y17350D02*
Y18150D01*
X82825Y17350D02*
X83625D01*
X82925Y58250D02*
X83325D01*
X82925Y58950D02*
X83325D01*
X82925Y56775D02*
X83325D01*
X82925Y57475D02*
X83325D01*
X12575Y33725D02*
X12975D01*
X12575Y33025D02*
X12975D01*
X10825Y30100D02*
Y30500D01*
X10125Y30100D02*
Y30500D01*
X84775Y25550D02*
X85175D01*
X84775Y24850D02*
X85175D01*
X83875Y27200D02*
Y27600D01*
X84575Y27200D02*
Y27600D01*
D67*
X56225Y84300D02*
Y83450D01*
X55800D01*
X55659Y83592D01*
Y83733D01*
X55800Y83875D01*
X56225D01*
X55800D01*
X55659Y84016D01*
Y84158D01*
X55800Y84300D01*
X56225D01*
X55375Y83450D02*
Y84016D01*
X55092Y84300D01*
X54809Y84016D01*
Y83450D01*
Y83875D01*
X55375D01*
X54526Y84300D02*
X53959D01*
X54242D01*
Y83450D01*
X53676D02*
Y84300D01*
X53251D01*
X53109Y84158D01*
Y83875D01*
X53251Y83733D01*
X53676D01*
X52826Y83450D02*
Y84016D01*
X52543Y84300D01*
X52260Y84016D01*
Y83450D01*
Y83875D01*
X52826D01*
X51410Y84158D02*
X51551Y84300D01*
X51835D01*
X51976Y84158D01*
Y83592D01*
X51835Y83450D01*
X51551D01*
X51410Y83592D01*
X51127Y84300D02*
Y83450D01*
Y83733D01*
X50560Y84300D01*
X50985Y83875D01*
X50560Y83450D01*
X33650Y9442D02*
X33933D01*
X34075Y9300D01*
Y8734D01*
X33933Y8592D01*
X33650D01*
X33509Y8734D01*
Y9300D01*
X33650Y9442D01*
X33225D02*
Y8592D01*
X32800D01*
X32659Y8734D01*
Y8875D01*
X32800Y9017D01*
X33225D01*
X32800D01*
X32659Y9158D01*
Y9300D01*
X32800Y9442D01*
X33225D01*
X31809Y9300D02*
X31951Y9442D01*
X32234D01*
X32376Y9300D01*
Y8734D01*
X32234Y8592D01*
X31951D01*
X31809Y8734D01*
X19609Y8633D02*
X19750Y8775D01*
X20033D01*
X20175Y8633D01*
Y8067D01*
X20033Y7925D01*
X19750D01*
X19609Y8067D01*
X18900Y8775D02*
X19184D01*
X19325Y8633D01*
Y8067D01*
X19184Y7925D01*
X18900D01*
X18759Y8067D01*
Y8633D01*
X18900Y8775D01*
X18476Y7925D02*
Y8775D01*
X18192Y8491D01*
X17909Y8775D01*
Y7925D01*
X17626D02*
Y8775D01*
X17343Y8491D01*
X17059Y8775D01*
Y7925D01*
X3125Y25275D02*
X3691D01*
X3975Y25558D01*
X3691Y25841D01*
X3125D01*
X3550D01*
Y25275D01*
X3975Y26125D02*
X3125D01*
Y26550D01*
X3267Y26691D01*
X3833D01*
X3975Y26550D01*
Y26125D01*
X3833Y27541D02*
X3975Y27399D01*
Y27116D01*
X3833Y26974D01*
X3267D01*
X3125Y27116D01*
Y27399D01*
X3267Y27541D01*
X3833Y28391D02*
X3975Y28249D01*
Y27966D01*
X3833Y27824D01*
X3691D01*
X3550Y27966D01*
Y28249D01*
X3408Y28391D01*
X3267D01*
X3125Y28249D01*
Y27966D01*
X3267Y27824D01*
X16234Y16367D02*
Y16933D01*
X16375Y17075D01*
X16658D01*
X16800Y16933D01*
Y16367D01*
X16658Y16225D01*
X16375D01*
X16517Y16508D02*
X16234Y16225D01*
X16375D02*
X16234Y16367D01*
X15950Y17075D02*
X15384D01*
Y16933D01*
X15950Y16367D01*
Y16225D01*
X14959Y16791D02*
X14676D01*
X14534Y16650D01*
Y16225D01*
X14959D01*
X15101Y16367D01*
X14959Y16508D01*
X14534D01*
X8217Y13284D02*
X8075Y13425D01*
Y13708D01*
X8217Y13850D01*
X8783D01*
X8925Y13708D01*
Y13425D01*
X8783Y13284D01*
X8075Y12434D02*
Y13000D01*
X8500D01*
X8359Y12717D01*
Y12575D01*
X8500Y12434D01*
X8783D01*
X8925Y12575D01*
Y12859D01*
X8783Y13000D01*
Y12151D02*
X8925Y12009D01*
Y11726D01*
X8783Y11584D01*
X8217D01*
X8075Y11726D01*
Y12009D01*
X8217Y12151D01*
X8359D01*
X8500Y12009D01*
Y11584D01*
X9184Y10217D02*
Y10783D01*
X9325Y10925D01*
X9608D01*
X9750Y10783D01*
Y10217D01*
X9608Y10075D01*
X9325D01*
X9467Y10358D02*
X9184Y10075D01*
X9325D02*
X9184Y10217D01*
X8334Y10075D02*
X8900D01*
X8334Y10641D01*
Y10783D01*
X8475Y10925D01*
X8759D01*
X8900Y10783D01*
X8051Y10925D02*
Y10075D01*
X7626D01*
X7484Y10217D01*
Y10358D01*
Y10500D01*
X7626Y10641D01*
X8051D01*
X20775Y11825D02*
Y12675D01*
X20350D01*
X20209Y12533D01*
Y12250D01*
X20350Y12108D01*
X20775D01*
X20492D02*
X20209Y11825D01*
X19359Y12675D02*
X19925D01*
Y12250D01*
X19642Y12391D01*
X19500D01*
X19359Y12250D01*
Y11967D01*
X19500Y11825D01*
X19784D01*
X19925Y11967D01*
X18651Y11825D02*
Y12675D01*
X19076Y12250D01*
X18509D01*
X18784Y14592D02*
Y15158D01*
X18925Y15300D01*
X19208D01*
X19350Y15158D01*
Y14592D01*
X19208Y14450D01*
X18925D01*
X19067Y14733D02*
X18784Y14450D01*
X18925D02*
X18784Y14592D01*
X17934Y14450D02*
X18500D01*
X17934Y15016D01*
Y15158D01*
X18075Y15300D01*
X18359D01*
X18500Y15158D01*
X17509Y15016D02*
X17226D01*
X17084Y14875D01*
Y14450D01*
X17509D01*
X17651Y14592D01*
X17509Y14733D01*
X17084D01*
X10809Y9158D02*
X10950Y9300D01*
X11233D01*
X11375Y9158D01*
Y8592D01*
X11233Y8450D01*
X10950D01*
X10809Y8592D01*
X9959Y9300D02*
X10525D01*
Y8875D01*
X10242Y9016D01*
X10100D01*
X9959Y8875D01*
Y8592D01*
X10100Y8450D01*
X10384D01*
X10525Y8592D01*
X9676Y9158D02*
X9534Y9300D01*
X9251D01*
X9109Y9158D01*
Y8592D01*
X9251Y8450D01*
X9534D01*
X9676Y8592D01*
Y9158D01*
X22584Y19083D02*
X22725Y19225D01*
X23008D01*
X23150Y19083D01*
Y18517D01*
X23008Y18375D01*
X22725D01*
X22584Y18517D01*
X21734Y19225D02*
X22300D01*
Y18800D01*
X22017Y18941D01*
X21875D01*
X21734Y18800D01*
Y18517D01*
X21875Y18375D01*
X22159D01*
X22300Y18517D01*
X21026Y18375D02*
Y19225D01*
X21451Y18800D01*
X20884D01*
X4400Y78150D02*
Y77442D01*
X4258Y77300D01*
X3975D01*
X3834Y77442D01*
Y78150D01*
X3550Y77300D02*
Y78150D01*
X3267Y77866D01*
X2984Y78150D01*
Y77300D01*
X2701Y78150D02*
Y77300D01*
X2276D01*
X2134Y77442D01*
Y77583D01*
X2276Y77725D01*
X2701D01*
X2276D01*
X2134Y77866D01*
Y78008D01*
X2276Y78150D01*
X2701D01*
X6934Y79033D02*
X7075Y79175D01*
X7358D01*
X7500Y79033D01*
Y78467D01*
X7358Y78325D01*
X7075D01*
X6934Y78467D01*
X6650Y79175D02*
Y78325D01*
X6225D01*
X6084Y78467D01*
Y78608D01*
X6225Y78750D01*
X6650D01*
X6225D01*
X6084Y78891D01*
Y79033D01*
X6225Y79175D01*
X6650D01*
X5801Y78325D02*
X5517D01*
X5659D01*
Y79175D01*
X5801Y79033D01*
X76550Y10125D02*
Y9275D01*
X76125D01*
X75984Y9417D01*
Y9558D01*
X76125Y9700D01*
X76550D01*
X76125D01*
X75984Y9841D01*
Y9983D01*
X76125Y10125D01*
X76550D01*
X75559Y9275D02*
X75275D01*
X75134Y9417D01*
Y9700D01*
X75275Y9841D01*
X75559D01*
X75700Y9700D01*
Y9417D01*
X75559Y9275D01*
X74709Y9983D02*
Y9841D01*
X74851D01*
X74567D01*
X74709D01*
Y9417D01*
X74567Y9275D01*
X74001Y9983D02*
Y9841D01*
X74142D01*
X73859D01*
X74001D01*
Y9417D01*
X73859Y9275D01*
X73293D02*
X73009D01*
X72868Y9417D01*
Y9700D01*
X73009Y9841D01*
X73293D01*
X73434Y9700D01*
Y9417D01*
X73293Y9275D01*
X72585D02*
Y9841D01*
X72443D01*
X72301Y9700D01*
Y9275D01*
Y9700D01*
X72160Y9841D01*
X72018Y9700D01*
Y9275D01*
X7925Y39150D02*
X8775D01*
Y38584D01*
Y37875D02*
Y38159D01*
X8633Y38300D01*
X8350D01*
X8209Y38159D01*
Y37875D01*
X8350Y37734D01*
X8492D01*
Y38300D01*
X8775Y37309D02*
X8067D01*
X8350D01*
Y37451D01*
Y37167D01*
Y37309D01*
X8067D01*
X7925Y37167D01*
X8067Y36601D02*
X8209D01*
Y36742D01*
Y36459D01*
Y36601D01*
X8633D01*
X8775Y36459D01*
X91325Y43900D02*
X90475D01*
Y43475D01*
X90617Y43334D01*
X90900D01*
X91042Y43475D01*
Y43900D01*
Y43617D02*
X91325Y43334D01*
Y43050D02*
Y42767D01*
Y42909D01*
X90759D01*
Y43050D01*
X91608Y42059D02*
Y41917D01*
X91467Y41776D01*
X90759D01*
Y42201D01*
X90900Y42342D01*
X91183D01*
X91325Y42201D01*
Y41776D01*
X90475Y41492D02*
X91325D01*
X90900D01*
X90759Y41351D01*
Y41068D01*
X90900Y40926D01*
X91325D01*
X90617Y40501D02*
X90759D01*
Y40643D01*
Y40359D01*
Y40501D01*
X91183D01*
X91325Y40359D01*
X40850Y1546D02*
Y2395D01*
X40425D01*
X40284Y2254D01*
Y1971D01*
X40425Y1829D01*
X40850D01*
X40000Y1546D02*
Y2112D01*
X39717Y2395D01*
X39434Y2112D01*
Y1546D01*
Y1971D01*
X40000D01*
X39151Y2395D02*
Y2254D01*
X38867Y1971D01*
X38584Y2254D01*
Y2395D01*
X38867Y1971D02*
Y1546D01*
X38301Y2395D02*
Y1546D01*
X37734D01*
X37026Y2395D02*
X37309D01*
X37451Y2254D01*
Y1687D01*
X37309Y1546D01*
X37026D01*
X36885Y1687D01*
Y2254D01*
X37026Y2395D01*
X36601Y1546D02*
Y2112D01*
X36318Y2395D01*
X36035Y2112D01*
Y1546D01*
Y1971D01*
X36601D01*
X35752Y2395D02*
Y1546D01*
X35327D01*
X35185Y1687D01*
Y2254D01*
X35327Y2395D01*
X35752D01*
X14784Y88308D02*
X14925Y88450D01*
X15208D01*
X15350Y88308D01*
Y87742D01*
X15208Y87600D01*
X14925D01*
X14784Y87742D01*
X14500Y88450D02*
Y87600D01*
X14075D01*
X13934Y87742D01*
Y87883D01*
X14075Y88025D01*
X14500D01*
X14075D01*
X13934Y88166D01*
Y88308D01*
X14075Y88450D01*
X14500D01*
X13084Y87600D02*
X13651D01*
X13084Y88166D01*
Y88308D01*
X13226Y88450D01*
X13509D01*
X13651Y88308D01*
X78457Y91697D02*
X77891D01*
X78174D01*
Y90847D01*
X77466D02*
X77182D01*
X77041Y90988D01*
Y91272D01*
X77182Y91413D01*
X77466D01*
X77607Y91272D01*
Y90988D01*
X77466Y90847D01*
X76758Y90564D02*
Y91413D01*
X76333D01*
X76191Y91272D01*
Y90988D01*
X76333Y90847D01*
X76758D01*
X90900Y24775D02*
Y25341D01*
X90617Y25625D01*
X90334Y25341D01*
Y24775D01*
Y25200D01*
X90900D01*
X90050Y24775D02*
Y25341D01*
X89625D01*
X89484Y25200D01*
Y24775D01*
X89059Y25483D02*
Y25341D01*
X89201D01*
X88917D01*
X89059D01*
Y24917D01*
X88917Y24775D01*
X68509Y8558D02*
X68650Y8700D01*
X68933D01*
X69075Y8558D01*
Y8416D01*
X68933Y8275D01*
X68650D01*
X68509Y8133D01*
Y7992D01*
X68650Y7850D01*
X68933D01*
X69075Y7992D01*
X68225Y8700D02*
X67659D01*
X67942D01*
Y7850D01*
X67376D02*
Y8700D01*
X67092Y8416D01*
X66809Y8700D01*
Y7850D01*
X66526D02*
X66243D01*
X66384D01*
Y8700D01*
X66526Y8558D01*
X15900Y24275D02*
Y25125D01*
X15475D01*
X15334Y24983D01*
Y24700D01*
X15475Y24558D01*
X15900D01*
X15617D02*
X15334Y24275D01*
X14484Y25125D02*
X14767Y24983D01*
X15050Y24700D01*
Y24417D01*
X14909Y24275D01*
X14625D01*
X14484Y24417D01*
Y24558D01*
X14625Y24700D01*
X15050D01*
X13776Y24275D02*
Y25125D01*
X14201Y24700D01*
X13634D01*
X16509Y19967D02*
Y20533D01*
X16650Y20675D01*
X16933D01*
X17075Y20533D01*
Y19967D01*
X16933Y19825D01*
X16650D01*
X16792Y20108D02*
X16509Y19825D01*
X16650D02*
X16509Y19967D01*
X16225Y20675D02*
X15659D01*
Y20533D01*
X16225Y19967D01*
Y19825D01*
X15376Y20675D02*
Y19825D01*
X14951D01*
X14809Y19967D01*
Y20108D01*
Y20250D01*
X14951Y20391D01*
X15376D01*
X43877Y24904D02*
Y25753D01*
X43452D01*
X43311Y25612D01*
Y25328D01*
X43452Y25187D01*
X43877D01*
X43594D02*
X43311Y24904D01*
X42461Y25753D02*
X42744Y25612D01*
X43027Y25328D01*
Y25045D01*
X42886Y24904D01*
X42602D01*
X42461Y25045D01*
Y25187D01*
X42602Y25328D01*
X43027D01*
X41611Y24904D02*
X42178D01*
X41611Y25470D01*
Y25612D01*
X41753Y25753D01*
X42036D01*
X42178Y25612D01*
X31009Y15796D02*
Y16362D01*
X31151Y16504D01*
X31434D01*
X31576Y16362D01*
Y15796D01*
X31434Y15654D01*
X31151D01*
X31293Y15937D02*
X31009Y15654D01*
X31151D02*
X31009Y15796D01*
X30160Y16504D02*
X30726D01*
Y16079D01*
X30443Y16220D01*
X30301D01*
X30160Y16079D01*
Y15796D01*
X30301Y15654D01*
X30584D01*
X30726Y15796D01*
X29876Y16504D02*
Y15654D01*
X29451D01*
X29310Y15796D01*
Y15937D01*
Y16079D01*
X29451Y16220D01*
X29876D01*
X45749Y15266D02*
Y15833D01*
X45891Y15974D01*
X46174D01*
X46315Y15833D01*
Y15266D01*
X46174Y15125D01*
X45891D01*
X46032Y15408D02*
X45749Y15125D01*
X45891D02*
X45749Y15266D01*
X45466Y15833D02*
X45324Y15974D01*
X45041D01*
X44899Y15833D01*
Y15691D01*
X45041Y15549D01*
X45182D01*
X45041D01*
X44899Y15408D01*
Y15266D01*
X45041Y15125D01*
X45324D01*
X45466Y15266D01*
X44616Y15974D02*
Y15125D01*
X44191D01*
X44049Y15266D01*
Y15408D01*
Y15549D01*
X44191Y15691D01*
X44616D01*
X23200Y20700D02*
Y21550D01*
X22775D01*
X22634Y21408D01*
Y21125D01*
X22775Y20983D01*
X23200D01*
X22917D02*
X22634Y20700D01*
X21784Y21550D02*
X22350D01*
Y21125D01*
X22067Y21266D01*
X21925D01*
X21784Y21125D01*
Y20842D01*
X21925Y20700D01*
X22209D01*
X22350Y20842D01*
X20934Y21550D02*
X21217Y21408D01*
X21501Y21125D01*
Y20842D01*
X21359Y20700D01*
X21076D01*
X20934Y20842D01*
Y20983D01*
X21076Y21125D01*
X21501D01*
X26109Y15642D02*
Y16208D01*
X26250Y16350D01*
X26533D01*
X26675Y16208D01*
Y15642D01*
X26533Y15500D01*
X26250D01*
X26392Y15783D02*
X26109Y15500D01*
X26250D02*
X26109Y15642D01*
X25259Y16350D02*
X25825D01*
Y15925D01*
X25542Y16066D01*
X25400D01*
X25259Y15925D01*
Y15642D01*
X25400Y15500D01*
X25684D01*
X25825Y15642D01*
X24834Y16066D02*
X24551D01*
X24409Y15925D01*
Y15500D01*
X24834D01*
X24976Y15642D01*
X24834Y15783D01*
X24409D01*
X51725Y10975D02*
Y11825D01*
X51300D01*
X51159Y11683D01*
Y11400D01*
X51300Y11258D01*
X51725D01*
X51442D02*
X51159Y10975D01*
X50450D02*
Y11825D01*
X50875Y11400D01*
X50309D01*
X49459Y10975D02*
X50026D01*
X49459Y11541D01*
Y11683D01*
X49601Y11825D01*
X49884D01*
X50026Y11683D01*
X11600Y24900D02*
Y25750D01*
X11175D01*
X11034Y25608D01*
Y25325D01*
X11175Y25183D01*
X11600D01*
X11317D02*
X11034Y24900D01*
X10184Y25750D02*
X10750D01*
Y25325D01*
X10467Y25466D01*
X10325D01*
X10184Y25325D01*
Y25042D01*
X10325Y24900D01*
X10609D01*
X10750Y25042D01*
X9334Y24900D02*
X9901D01*
X9334Y25466D01*
Y25608D01*
X9476Y25750D01*
X9759D01*
X9901Y25608D01*
X77450Y20375D02*
Y21225D01*
X77025D01*
X76884Y21083D01*
Y20800D01*
X77025Y20658D01*
X77450D01*
X77167D02*
X76884Y20375D01*
X76034Y21225D02*
X76600D01*
Y20800D01*
X76317Y20941D01*
X76175D01*
X76034Y20800D01*
Y20517D01*
X76175Y20375D01*
X76459D01*
X76600Y20517D01*
X75751Y21083D02*
X75609Y21225D01*
X75326D01*
X75184Y21083D01*
Y20517D01*
X75326Y20375D01*
X75609D01*
X75751Y20517D01*
Y21083D01*
X86800Y19775D02*
Y20341D01*
X86517Y20625D01*
X86234Y20341D01*
Y19775D01*
Y20200D01*
X86800D01*
X85950Y19775D02*
Y20625D01*
X85384Y19775D01*
Y20625D01*
X85101D02*
X84534D01*
X84817D01*
Y19775D01*
X84251D02*
X83968D01*
X84109D01*
Y20625D01*
X84251Y20483D01*
X41284Y15292D02*
Y15858D01*
X41425Y16000D01*
X41708D01*
X41850Y15858D01*
Y15292D01*
X41708Y15150D01*
X41425D01*
X41567Y15433D02*
X41284Y15150D01*
X41425D02*
X41284Y15292D01*
X41000Y15858D02*
X40859Y16000D01*
X40575D01*
X40434Y15858D01*
Y15716D01*
X40575Y15575D01*
X40717D01*
X40575D01*
X40434Y15433D01*
Y15292D01*
X40575Y15150D01*
X40859D01*
X41000Y15292D01*
X40009Y15716D02*
X39726D01*
X39584Y15575D01*
Y15150D01*
X40009D01*
X40151Y15292D01*
X40009Y15433D01*
X39584D01*
X34592Y12109D02*
X34450Y12250D01*
Y12533D01*
X34592Y12675D01*
X35158D01*
X35300Y12533D01*
Y12250D01*
X35158Y12109D01*
X34450Y11259D02*
Y11825D01*
X34875D01*
X34734Y11542D01*
Y11400D01*
X34875Y11259D01*
X35158D01*
X35300Y11400D01*
Y11684D01*
X35158Y11825D01*
X34450Y10409D02*
X34592Y10692D01*
X34875Y10976D01*
X35158D01*
X35300Y10834D01*
Y10551D01*
X35158Y10409D01*
X35017D01*
X34875Y10551D01*
Y10976D01*
X9725Y19675D02*
Y20525D01*
X9300D01*
X9159Y20383D01*
Y20100D01*
X9300Y19958D01*
X9725D01*
X9442D02*
X9159Y19675D01*
X8450D02*
Y20525D01*
X8875Y20100D01*
X8309D01*
X8026Y19675D02*
X7742D01*
X7884D01*
Y20525D01*
X8026Y20383D01*
X14625Y67875D02*
Y68725D01*
X14200D01*
X14059Y68583D01*
Y68300D01*
X14200Y68158D01*
X14625D01*
X14342D02*
X14059Y67875D01*
X13775Y68583D02*
X13634Y68725D01*
X13350D01*
X13209Y68583D01*
Y68441D01*
X13350Y68300D01*
X13492D01*
X13350D01*
X13209Y68158D01*
Y68017D01*
X13350Y67875D01*
X13634D01*
X13775Y68017D01*
X12359Y68725D02*
X12642Y68583D01*
X12926Y68300D01*
Y68017D01*
X12784Y67875D01*
X12501D01*
X12359Y68017D01*
Y68158D01*
X12501Y68300D01*
X12926D01*
X11475Y67875D02*
Y68725D01*
X11050D01*
X10909Y68583D01*
Y68300D01*
X11050Y68158D01*
X11475D01*
X11192D02*
X10909Y67875D01*
X10625Y68583D02*
X10484Y68725D01*
X10200D01*
X10059Y68583D01*
Y68441D01*
X10200Y68300D01*
X10342D01*
X10200D01*
X10059Y68158D01*
Y68017D01*
X10200Y67875D01*
X10484D01*
X10625Y68017D01*
X9351Y67875D02*
Y68725D01*
X9776Y68300D01*
X9209D01*
X77425Y16575D02*
Y17425D01*
X77000D01*
X76859Y17283D01*
Y17000D01*
X77000Y16858D01*
X77425D01*
X77142D02*
X76859Y16575D01*
X76009D02*
X76575D01*
X76009Y17141D01*
Y17283D01*
X76150Y17425D01*
X76434D01*
X76575Y17283D01*
X75726Y17425D02*
X75159D01*
Y17283D01*
X75726Y16717D01*
Y16575D01*
X67288Y23986D02*
X67430Y24128D01*
X67713D01*
X67855Y23986D01*
Y23420D01*
X67713Y23278D01*
X67430D01*
X67288Y23420D01*
X66438Y24128D02*
X67005D01*
Y23703D01*
X66722Y23844D01*
X66580D01*
X66438Y23703D01*
Y23420D01*
X66580Y23278D01*
X66863D01*
X67005Y23420D01*
X66155Y23986D02*
X66014Y24128D01*
X65730D01*
X65589Y23986D01*
Y23844D01*
X65730Y23703D01*
X65872D01*
X65730D01*
X65589Y23561D01*
Y23420D01*
X65730Y23278D01*
X66014D01*
X66155Y23420D01*
X57884Y22433D02*
X58025Y22575D01*
X58308D01*
X58450Y22433D01*
Y21867D01*
X58308Y21725D01*
X58025D01*
X57884Y21867D01*
X57034Y22575D02*
X57600D01*
Y22150D01*
X57317Y22291D01*
X57175D01*
X57034Y22150D01*
Y21867D01*
X57175Y21725D01*
X57459D01*
X57600Y21867D01*
X56184Y21725D02*
X56751D01*
X56184Y22291D01*
Y22433D01*
X56326Y22575D01*
X56609D01*
X56751Y22433D01*
X22634Y9732D02*
X22775Y9873D01*
X23058D01*
X23200Y9732D01*
Y9165D01*
X23058Y9023D01*
X22775D01*
X22634Y9165D01*
X22350Y9732D02*
X22209Y9873D01*
X21925D01*
X21784Y9732D01*
Y9590D01*
X21925Y9448D01*
X22067D01*
X21925D01*
X21784Y9307D01*
Y9165D01*
X21925Y9023D01*
X22209D01*
X22350Y9165D01*
X21501Y9873D02*
X20934D01*
Y9732D01*
X21501Y9165D01*
Y9023D01*
X43384Y22583D02*
X43525Y22725D01*
X43808D01*
X43950Y22583D01*
Y22017D01*
X43808Y21875D01*
X43525D01*
X43384Y22017D01*
X42675Y21875D02*
Y22725D01*
X43100Y22300D01*
X42534D01*
X42251Y22583D02*
X42109Y22725D01*
X41826D01*
X41684Y22583D01*
Y22441D01*
X41826Y22300D01*
X41684Y22158D01*
Y22017D01*
X41826Y21875D01*
X42109D01*
X42251Y22017D01*
Y22158D01*
X42109Y22300D01*
X42251Y22441D01*
Y22583D01*
X42109Y22300D02*
X41826D01*
X50333Y16916D02*
X50475Y16775D01*
Y16492D01*
X50333Y16350D01*
X49767D01*
X49625Y16492D01*
Y16775D01*
X49767Y16916D01*
X49625Y17625D02*
X50475D01*
X50050Y17200D01*
Y17766D01*
X50475Y18049D02*
Y18616D01*
X50333D01*
X49767Y18049D01*
X49625D01*
X56667Y65684D02*
X56525Y65825D01*
Y66108D01*
X56667Y66250D01*
X57233D01*
X57375Y66108D01*
Y65825D01*
X57233Y65684D01*
X56667Y65400D02*
X56525Y65259D01*
Y64975D01*
X56667Y64834D01*
X56809D01*
X56950Y64975D01*
Y65117D01*
Y64975D01*
X57092Y64834D01*
X57233D01*
X57375Y64975D01*
Y65259D01*
X57233Y65400D01*
X56525Y63984D02*
Y64551D01*
X56950D01*
X56809Y64267D01*
Y64126D01*
X56950Y63984D01*
X57233D01*
X57375Y64126D01*
Y64409D01*
X57233Y64551D01*
X57434Y45608D02*
X57575Y45750D01*
X57858D01*
X58000Y45608D01*
Y45042D01*
X57858Y44900D01*
X57575D01*
X57434Y45042D01*
X57150Y45608D02*
X57009Y45750D01*
X56725D01*
X56584Y45608D01*
Y45466D01*
X56725Y45325D01*
X56867D01*
X56725D01*
X56584Y45183D01*
Y45042D01*
X56725Y44900D01*
X57009D01*
X57150Y45042D01*
X55734Y45750D02*
X56017Y45608D01*
X56301Y45325D01*
Y45042D01*
X56159Y44900D01*
X55876D01*
X55734Y45042D01*
Y45183D01*
X55876Y45325D01*
X56301D01*
X70336Y21319D02*
X70478Y21461D01*
X70761D01*
X70903Y21319D01*
Y20753D01*
X70761Y20611D01*
X70478D01*
X70336Y20753D01*
X70053Y21319D02*
X69911Y21461D01*
X69628D01*
X69486Y21319D01*
Y21177D01*
X69628Y21036D01*
X69770D01*
X69628D01*
X69486Y20894D01*
Y20753D01*
X69628Y20611D01*
X69911D01*
X70053Y20753D01*
X69203D02*
X69062Y20611D01*
X68778D01*
X68637Y20753D01*
Y21319D01*
X68778Y21461D01*
X69062D01*
X69203Y21319D01*
Y21177D01*
X69062Y21036D01*
X68637D01*
X73333Y21192D02*
X73475Y21334D01*
X73758D01*
X73900Y21192D01*
Y20626D01*
X73758Y20484D01*
X73475D01*
X73333Y20626D01*
X72625Y20484D02*
Y21334D01*
X73050Y20909D01*
X72484D01*
X71634Y20484D02*
X72200D01*
X71634Y21050D01*
Y21192D01*
X71775Y21334D01*
X72059D01*
X72200Y21192D01*
X52034Y23458D02*
X52175Y23600D01*
X52458D01*
X52600Y23458D01*
Y22892D01*
X52458Y22750D01*
X52175D01*
X52034Y22892D01*
X51750Y23458D02*
X51609Y23600D01*
X51325D01*
X51184Y23458D01*
Y23316D01*
X51325Y23175D01*
X51467D01*
X51325D01*
X51184Y23033D01*
Y22892D01*
X51325Y22750D01*
X51609D01*
X51750Y22892D01*
X50334Y22750D02*
X50901D01*
X50334Y23316D01*
Y23458D01*
X50476Y23600D01*
X50759D01*
X50901Y23458D01*
X48009Y22183D02*
X48150Y22325D01*
X48433D01*
X48575Y22183D01*
Y21617D01*
X48433Y21475D01*
X48150D01*
X48009Y21617D01*
X47300Y21475D02*
Y22325D01*
X47725Y21900D01*
X47159D01*
X46876Y21617D02*
X46734Y21475D01*
X46451D01*
X46309Y21617D01*
Y22183D01*
X46451Y22325D01*
X46734D01*
X46876Y22183D01*
Y22041D01*
X46734Y21900D01*
X46309D01*
X39434Y42283D02*
X39575Y42425D01*
X39858D01*
X40000Y42283D01*
Y41717D01*
X39858Y41575D01*
X39575D01*
X39434Y41717D01*
X39150Y42283D02*
X39009Y42425D01*
X38725D01*
X38584Y42283D01*
Y42141D01*
X38725Y42000D01*
X38867D01*
X38725D01*
X38584Y41858D01*
Y41717D01*
X38725Y41575D01*
X39009D01*
X39150Y41717D01*
X38301Y42283D02*
X38159Y42425D01*
X37876D01*
X37734Y42283D01*
Y42141D01*
X37876Y42000D01*
X38017D01*
X37876D01*
X37734Y41858D01*
Y41717D01*
X37876Y41575D01*
X38159D01*
X38301Y41717D01*
X53484Y16508D02*
X53625Y16650D01*
X53908D01*
X54050Y16508D01*
Y15942D01*
X53908Y15800D01*
X53625D01*
X53484Y15942D01*
X53200Y16508D02*
X53059Y16650D01*
X52775D01*
X52634Y16508D01*
Y16366D01*
X52775Y16225D01*
X52917D01*
X52775D01*
X52634Y16083D01*
Y15942D01*
X52775Y15800D01*
X53059D01*
X53200Y15942D01*
X52351Y15800D02*
X52067D01*
X52209D01*
Y16650D01*
X52351Y16508D01*
X51909Y10308D02*
X52050Y10450D01*
X52333D01*
X52475Y10308D01*
Y9742D01*
X52333Y9600D01*
X52050D01*
X51909Y9742D01*
X51059Y10450D02*
X51625D01*
Y10025D01*
X51342Y10166D01*
X51200D01*
X51059Y10025D01*
Y9742D01*
X51200Y9600D01*
X51484D01*
X51625Y9742D01*
X50776Y9600D02*
X50492D01*
X50634D01*
Y10450D01*
X50776Y10308D01*
X50675Y7275D02*
Y8125D01*
X50250D01*
X50109Y7983D01*
Y7700D01*
X50250Y7558D01*
X50675D01*
X50392D02*
X50109Y7275D01*
X49259Y8125D02*
X49542Y7983D01*
X49825Y7700D01*
Y7417D01*
X49684Y7275D01*
X49400D01*
X49259Y7417D01*
Y7558D01*
X49400Y7700D01*
X49825D01*
X48976Y7275D02*
X48692D01*
X48834D01*
Y8125D01*
X48976Y7983D01*
X87500Y23525D02*
Y24091D01*
X87217Y24375D01*
X86934Y24091D01*
Y23525D01*
Y23950D01*
X87500D01*
X86650Y23525D02*
Y24375D01*
X86084Y23525D01*
Y24375D01*
X85801D02*
X85234D01*
X85517D01*
Y23525D01*
X84384D02*
X84951D01*
X84384Y24091D01*
Y24233D01*
X84526Y24375D01*
X84809D01*
X84951Y24233D01*
X83750Y56175D02*
Y55325D01*
X83467Y55608D01*
X83184Y55325D01*
Y56175D01*
X82900Y55325D02*
X82617D01*
X82759D01*
Y56175D01*
X82900Y56033D01*
X83850Y60725D02*
Y59875D01*
X83567Y60158D01*
X83284Y59875D01*
Y60725D01*
X82434Y59875D02*
X83000D01*
X82434Y60441D01*
Y60583D01*
X82575Y60725D01*
X82859D01*
X83000Y60583D01*
X8266Y31303D02*
X9116D01*
X8833Y31020D01*
X9116Y30737D01*
X8266D01*
X8408Y30454D02*
X8266Y30312D01*
Y30029D01*
X8408Y29887D01*
X8550D01*
X8691Y30029D01*
Y30170D01*
Y30029D01*
X8833Y29887D01*
X8974D01*
X9116Y30029D01*
Y30312D01*
X8974Y30454D01*
X11772Y31166D02*
Y32016D01*
X12055Y31733D01*
X12338Y32016D01*
Y31166D01*
X13046Y32016D02*
Y31166D01*
X12621Y31591D01*
X13188D01*
X86650Y26850D02*
Y26000D01*
X86367Y26283D01*
X86084Y26000D01*
Y26850D01*
X85800D02*
X85234D01*
Y26708D01*
X85800Y26142D01*
Y26000D01*
X86650Y28200D02*
Y27350D01*
X86367Y27633D01*
X86084Y27350D01*
Y28200D01*
X85800Y28058D02*
X85659Y28200D01*
X85375D01*
X85234Y28058D01*
Y27916D01*
X85375Y27775D01*
X85234Y27633D01*
Y27492D01*
X85375Y27350D01*
X85659D01*
X85800Y27492D01*
Y27633D01*
X85659Y27775D01*
X85800Y27916D01*
Y28058D01*
X85659Y27775D02*
X85375D01*
%TF.MD5,a0b7239a6761bda058c1c943e81f3c44*%
M02*
