%TF.GenerationSoftware,Altium Limited,Altium Designer,18.1.7 (191)*%
G04 Layer_Color=8388736*
%FSLAX43Y43*%
%MOMM*%
%TF.FileFunction,Soldermask,Top*%
%TF.Part,Single*%
G01*
G75*
%TA.AperFunction,SMDPad,CuDef*%
%ADD68R,1.550X0.700*%
%ADD69R,1.500X1.200*%
%ADD70R,0.700X1.550*%
%ADD71R,1.000X0.800*%
%ADD72R,1.200X1.500*%
%ADD75R,0.800X1.000*%
%ADD76R,0.900X1.000*%
%ADD77R,1.000X0.900*%
%TA.AperFunction,ViaPad*%
%ADD78C,3.100*%
%TA.AperFunction,ComponentPad*%
%ADD79C,1.624*%
%ADD80C,1.050*%
%ADD81C,1.000*%
%TA.AperFunction,ViaPad*%
%ADD82C,1.000*%
%TA.AperFunction,SMDPad,CuDef*%
%ADD86R,3.400X8.300*%
%ADD87R,3.400X3.800*%
%ADD88R,1.800X1.200*%
%ADD89R,8.300X3.400*%
%ADD90R,4.100X1.850*%
%ADD91O,0.800X1.800*%
%ADD92R,0.750X1.200*%
%ADD93R,2.050X2.000*%
%ADD94O,0.800X2.600*%
%ADD95O,2.600X0.800*%
%ADD96R,1.200X0.750*%
%ADD97R,3.800X3.400*%
%ADD98R,1.200X2.700*%
%ADD99R,1.600X2.900*%
%ADD100R,2.900X1.600*%
%ADD101R,1.700X2.300*%
%ADD102R,2.300X1.700*%
%ADD103R,0.950X0.550*%
%ADD104R,1.200X1.800*%
G04:AMPARAMS|DCode=105|XSize=1.8mm|YSize=1.2mm|CornerRadius=0mm|HoleSize=0mm|Usage=FLASHONLY|Rotation=45.000|XOffset=0mm|YOffset=0mm|HoleType=Round|Shape=Rectangle|*
%AMROTATEDRECTD105*
4,1,4,-0.212,-1.061,-1.061,-0.212,0.212,1.061,1.061,0.212,-0.212,-1.061,0.0*
%
%ADD105ROTATEDRECTD105*%

%ADD106R,2.700X1.200*%
D68*
X10950Y20400D02*
D03*
X13300Y21350D02*
D03*
Y19450D02*
D03*
X10950Y16600D02*
D03*
X13300Y17550D02*
D03*
Y15650D02*
D03*
D69*
X38350Y8975D02*
D03*
Y10475D02*
D03*
X26325Y81875D02*
D03*
Y83375D02*
D03*
X67375Y50100D02*
D03*
Y51600D02*
D03*
X73225Y69675D02*
D03*
Y68175D02*
D03*
X19200Y66950D02*
D03*
Y65450D02*
D03*
X8570Y20475D02*
D03*
Y21975D02*
D03*
X44300Y57250D02*
D03*
Y58750D02*
D03*
D70*
X28825Y13475D02*
D03*
X26925D02*
D03*
X27875Y11125D02*
D03*
X37500Y13300D02*
D03*
X35600D02*
D03*
X36550Y10950D02*
D03*
X25375Y13600D02*
D03*
X23475D02*
D03*
X24425Y11250D02*
D03*
X41275Y13300D02*
D03*
X39375D02*
D03*
X40325Y10950D02*
D03*
D71*
X26625Y32175D02*
D03*
Y33675D02*
D03*
X21675Y12125D02*
D03*
Y13625D02*
D03*
X47175Y9175D02*
D03*
Y10675D02*
D03*
X50425Y27825D02*
D03*
Y26325D02*
D03*
X56225Y28950D02*
D03*
Y27450D02*
D03*
X20875Y67775D02*
D03*
Y69275D02*
D03*
X20500Y35250D02*
D03*
Y33750D02*
D03*
X20750Y80550D02*
D03*
Y82050D02*
D03*
X75250Y48325D02*
D03*
Y46825D02*
D03*
X72375Y13450D02*
D03*
Y14950D02*
D03*
X79250Y52200D02*
D03*
Y53700D02*
D03*
X79350Y16050D02*
D03*
Y17550D02*
D03*
X36925Y70725D02*
D03*
Y72225D02*
D03*
X69300Y79825D02*
D03*
Y78325D02*
D03*
X67825Y78325D02*
D03*
Y79825D02*
D03*
X8050Y63750D02*
D03*
Y62250D02*
D03*
X3425Y67025D02*
D03*
Y65525D02*
D03*
X78750Y58550D02*
D03*
Y60050D02*
D03*
X71625Y54600D02*
D03*
Y56100D02*
D03*
X83700Y41275D02*
D03*
Y42775D02*
D03*
Y44400D02*
D03*
Y45900D02*
D03*
X89375Y50725D02*
D03*
Y52225D02*
D03*
X44225Y49125D02*
D03*
Y50625D02*
D03*
X61950Y49475D02*
D03*
Y50975D02*
D03*
D72*
X30725Y8775D02*
D03*
X29225D02*
D03*
X48800Y46275D02*
D03*
X50300D02*
D03*
X25650Y52050D02*
D03*
X27150D02*
D03*
X60675Y57200D02*
D03*
X59175D02*
D03*
X28000Y48875D02*
D03*
X29500D02*
D03*
X52150Y44325D02*
D03*
X50650D02*
D03*
D75*
X35175Y47250D02*
D03*
X36675D02*
D03*
X36650Y48800D02*
D03*
X35150D02*
D03*
X55000Y45450D02*
D03*
X56500D02*
D03*
Y43925D02*
D03*
X55000D02*
D03*
X41275Y14900D02*
D03*
X42775D02*
D03*
X72400Y9675D02*
D03*
X73900D02*
D03*
X75150D02*
D03*
X76650D02*
D03*
X64100Y81200D02*
D03*
X62600D02*
D03*
X10400Y26875D02*
D03*
X11900D02*
D03*
X10950Y34300D02*
D03*
X12450D02*
D03*
X82325Y48700D02*
D03*
X83825D02*
D03*
X3700Y30075D02*
D03*
X5200D02*
D03*
Y28675D02*
D03*
X3700D02*
D03*
X64525Y73025D02*
D03*
X63025D02*
D03*
X32275Y74700D02*
D03*
X30775D02*
D03*
X18700Y75100D02*
D03*
X20200D02*
D03*
X13675Y13575D02*
D03*
X12175D02*
D03*
X60275Y70900D02*
D03*
X61775D02*
D03*
X60275Y72350D02*
D03*
X61775D02*
D03*
D76*
X63600Y47600D02*
D03*
X62200D02*
D03*
X39750Y45325D02*
D03*
X38350D02*
D03*
X43725Y45250D02*
D03*
X42325D02*
D03*
X63475Y75450D02*
D03*
X62075D02*
D03*
X73950Y19300D02*
D03*
X75350D02*
D03*
X86800Y54725D02*
D03*
X85400D02*
D03*
X5700Y69500D02*
D03*
X7100D02*
D03*
X75400Y11325D02*
D03*
X74000D02*
D03*
X65150Y55475D02*
D03*
X66550D02*
D03*
X41100Y56675D02*
D03*
X42500D02*
D03*
X27050Y53775D02*
D03*
X25650D02*
D03*
X28000Y50600D02*
D03*
X29400D02*
D03*
X50725Y41450D02*
D03*
X52125D02*
D03*
X50100Y42800D02*
D03*
X48700D02*
D03*
D77*
X58025Y45325D02*
D03*
Y43925D02*
D03*
X62150Y52775D02*
D03*
Y54175D02*
D03*
X44300Y52750D02*
D03*
Y54150D02*
D03*
X79750Y49550D02*
D03*
Y50950D02*
D03*
X10475Y29450D02*
D03*
Y30850D02*
D03*
X74750Y57475D02*
D03*
Y56075D02*
D03*
X28975Y70525D02*
D03*
Y71925D02*
D03*
X73675Y13500D02*
D03*
Y14900D02*
D03*
X57800Y26550D02*
D03*
Y27950D02*
D03*
X56150Y25225D02*
D03*
Y23825D02*
D03*
D78*
X8925Y90300D02*
D03*
X4725Y4725D02*
D03*
X87775Y4725D02*
D03*
X87775Y87750D02*
D03*
X2200Y83575D02*
D03*
D79*
X36525Y4400D02*
D03*
Y6400D02*
D03*
X38525Y4400D02*
D03*
Y6400D02*
D03*
X40525Y4400D02*
D03*
Y6400D02*
D03*
X42525Y4400D02*
D03*
Y6400D02*
D03*
X44525Y4400D02*
D03*
Y6400D02*
D03*
X47825Y86400D02*
D03*
Y88400D02*
D03*
X49825Y86400D02*
D03*
Y88400D02*
D03*
X51825Y86400D02*
D03*
Y88400D02*
D03*
X53825Y86400D02*
D03*
Y88400D02*
D03*
X55825Y86400D02*
D03*
Y88400D02*
D03*
X23125Y4492D02*
D03*
Y6492D02*
D03*
X25125Y4492D02*
D03*
Y6492D02*
D03*
X27125Y4492D02*
D03*
Y6492D02*
D03*
X29125Y4492D02*
D03*
Y6492D02*
D03*
X31125Y4492D02*
D03*
Y6492D02*
D03*
X10525Y3900D02*
D03*
Y5900D02*
D03*
X12525Y3900D02*
D03*
Y5900D02*
D03*
X14525Y3900D02*
D03*
Y5900D02*
D03*
X16525Y3900D02*
D03*
Y5900D02*
D03*
X18525Y3900D02*
D03*
Y5900D02*
D03*
X5825Y14425D02*
D03*
X3825D02*
D03*
X5825Y16425D02*
D03*
X3825D02*
D03*
X5825Y18425D02*
D03*
X3825D02*
D03*
X5825Y20425D02*
D03*
X3825D02*
D03*
X5825Y22425D02*
D03*
X3825D02*
D03*
X5275Y72550D02*
D03*
Y74550D02*
D03*
X3275Y72550D02*
D03*
Y74550D02*
D03*
X11025Y72560D02*
D03*
Y75100D02*
D03*
Y77640D02*
D03*
X73100Y5025D02*
D03*
Y7025D02*
D03*
X75100Y5025D02*
D03*
Y7025D02*
D03*
X77100Y5025D02*
D03*
Y7025D02*
D03*
X79100Y5025D02*
D03*
Y7025D02*
D03*
X81100Y5025D02*
D03*
Y7025D02*
D03*
X3700Y33275D02*
D03*
Y35275D02*
D03*
Y39275D02*
D03*
X5700Y35275D02*
D03*
X3700Y37275D02*
D03*
X5700Y33275D02*
D03*
Y37275D02*
D03*
X3700Y41275D02*
D03*
X5700Y39275D02*
D03*
Y41275D02*
D03*
X88325Y37950D02*
D03*
X86325D02*
D03*
X88325Y39950D02*
D03*
X86325D02*
D03*
X88325Y41950D02*
D03*
X86325D02*
D03*
X88325Y43950D02*
D03*
X86325D02*
D03*
X88325Y45950D02*
D03*
X86325D02*
D03*
X17825Y87725D02*
D03*
X20350D02*
D03*
X68475Y86279D02*
D03*
Y88279D02*
D03*
X70475Y86279D02*
D03*
Y88279D02*
D03*
X72475Y86279D02*
D03*
Y88279D02*
D03*
X74475Y86279D02*
D03*
Y88279D02*
D03*
X76475Y86279D02*
D03*
Y88279D02*
D03*
X88050Y22150D02*
D03*
Y20150D02*
D03*
X90050Y22150D02*
D03*
Y20150D02*
D03*
D80*
X59550Y3225D02*
D03*
X58300D02*
D03*
X57050D02*
D03*
X55800D02*
D03*
X54550D02*
D03*
X52050D02*
D03*
X50800D02*
D03*
D81*
X53300D02*
D03*
D82*
X43300Y85725D02*
D03*
X75425Y70675D02*
D03*
X55200Y46725D02*
D03*
X43150Y73150D02*
D03*
X67825Y69000D02*
D03*
X51050Y76950D02*
D03*
X81800Y69633D02*
D03*
X81325Y50400D02*
D03*
X84778Y33778D02*
D03*
X82100Y27575D02*
D03*
X74750Y53600D02*
D03*
X82500Y26350D02*
D03*
X84778Y14050D02*
D03*
X49850Y83525D02*
D03*
X43775Y88025D02*
D03*
X46850Y83925D02*
D03*
X56969Y73675D02*
D03*
X51925Y72225D02*
D03*
X63725Y36700D02*
D03*
X65414Y31495D02*
D03*
X54875Y31475D02*
D03*
X55600Y30500D02*
D03*
X66329Y26302D02*
D03*
X58525Y62275D02*
D03*
X47352Y8000D02*
D03*
X43725Y32181D02*
D03*
X47950Y18275D02*
D03*
X77000Y19475D02*
D03*
X9900Y13925D02*
D03*
X10975Y14700D02*
D03*
X19900Y13475D02*
D03*
X34100Y20900D02*
D03*
X33075D02*
D03*
X30300Y20875D02*
D03*
X31250Y20900D02*
D03*
X29350D02*
D03*
X32125D02*
D03*
X72250Y60625D02*
D03*
X78875Y39825D02*
D03*
X54775Y55975D02*
D03*
X61150Y23200D02*
D03*
X58575Y25225D02*
D03*
X47200Y11900D02*
D03*
X2750Y70950D02*
D03*
X45400Y23600D02*
D03*
X45725Y29775D02*
D03*
X73325Y16775D02*
D03*
X57625Y63450D02*
D03*
X50100Y21300D02*
D03*
X42550Y1250D02*
D03*
X69725Y10050D02*
D03*
X57375Y25125D02*
D03*
X38825Y56875D02*
D03*
X22100Y69300D02*
D03*
X19950Y31525D02*
D03*
X28050Y72950D02*
D03*
X59550Y73875D02*
D03*
X73525Y55350D02*
D03*
X77600Y53350D02*
D03*
X4650Y67025D02*
D03*
X22250Y80150D02*
D03*
X68425Y24975D02*
D03*
X54100Y70625D02*
D03*
X51675Y14275D02*
D03*
X18300Y17575D02*
D03*
X12925Y25750D02*
D03*
X8900Y18475D02*
D03*
X65175Y24100D02*
D03*
X48500Y32250D02*
D03*
X51925Y38950D02*
D03*
X42700Y54550D02*
D03*
X60775Y54425D02*
D03*
X71500Y16175D02*
D03*
X70325Y15950D02*
D03*
X85400Y57125D02*
D03*
X60325Y69425D02*
D03*
X14900Y26800D02*
D03*
X18425Y46300D02*
D03*
X10475Y32175D02*
D03*
X80875Y55200D02*
D03*
X47000Y1250D02*
D03*
X45825D02*
D03*
X44750D02*
D03*
X43700D02*
D03*
X53675Y23850D02*
D03*
X55213Y22388D02*
D03*
X54450Y23100D02*
D03*
X16475Y28925D02*
D03*
X17650Y28950D02*
D03*
X18850Y28925D02*
D03*
X20200D02*
D03*
D86*
X53975Y79300D02*
D03*
X58575D02*
D03*
D87*
X72417Y77744D02*
D03*
X80817D02*
D03*
X6600Y55075D02*
D03*
X15000D02*
D03*
X44075Y79425D02*
D03*
X35675D02*
D03*
D88*
X26775Y59325D02*
D03*
Y62025D02*
D03*
X41050Y62175D02*
D03*
Y59475D02*
D03*
D89*
X76750Y22425D02*
D03*
Y27025D02*
D03*
X12675Y37500D02*
D03*
Y42100D02*
D03*
X86325Y65475D02*
D03*
Y60875D02*
D03*
D90*
X58450Y50300D02*
D03*
X40450Y50325D02*
D03*
D91*
X56517Y47790D02*
D03*
X57787D02*
D03*
X59057D02*
D03*
X60327D02*
D03*
X56517Y52740D02*
D03*
X57787D02*
D03*
X59057D02*
D03*
X60327D02*
D03*
X42327Y52765D02*
D03*
X41057D02*
D03*
X39787D02*
D03*
X38517D02*
D03*
X42327Y47815D02*
D03*
X41057D02*
D03*
X39787D02*
D03*
X38517D02*
D03*
D92*
X21650Y15175D02*
D03*
X19750D02*
D03*
Y17575D02*
D03*
X20700D02*
D03*
X21650D02*
D03*
X20650Y76825D02*
D03*
X18750D02*
D03*
Y79225D02*
D03*
X19700D02*
D03*
X20650D02*
D03*
X18750Y73350D02*
D03*
X20650D02*
D03*
Y70950D02*
D03*
X19700D02*
D03*
X18750D02*
D03*
X75350Y17900D02*
D03*
X77250D02*
D03*
Y15500D02*
D03*
X76300D02*
D03*
X75350D02*
D03*
X11900Y30825D02*
D03*
X13800D02*
D03*
Y28425D02*
D03*
X12850D02*
D03*
X11900D02*
D03*
X85400Y52650D02*
D03*
X87300D02*
D03*
Y50250D02*
D03*
X86350D02*
D03*
X85400D02*
D03*
X30725Y70700D02*
D03*
X31675D02*
D03*
X32625D02*
D03*
Y73100D02*
D03*
X30725D02*
D03*
X8025Y67750D02*
D03*
X7075D02*
D03*
X6125D02*
D03*
Y65350D02*
D03*
X8025D02*
D03*
X43975Y10700D02*
D03*
X44925D02*
D03*
X45875D02*
D03*
Y13100D02*
D03*
X43975D02*
D03*
X54425Y25100D02*
D03*
X52525D02*
D03*
Y27500D02*
D03*
X53475D02*
D03*
X54425D02*
D03*
X15375Y13600D02*
D03*
X17275D02*
D03*
Y11200D02*
D03*
X16325D02*
D03*
X15375D02*
D03*
D93*
X49350Y62825D02*
D03*
Y59075D02*
D03*
D94*
X78780Y67800D02*
D03*
X77510D02*
D03*
X76240D02*
D03*
X74970D02*
D03*
X78780Y62900D02*
D03*
X77510D02*
D03*
X76240D02*
D03*
X74970D02*
D03*
X73130Y51800D02*
D03*
X71860D02*
D03*
X70590D02*
D03*
X69320D02*
D03*
X73130Y46900D02*
D03*
X71860D02*
D03*
X70590D02*
D03*
X69320D02*
D03*
X32255Y83475D02*
D03*
X30985D02*
D03*
X29715D02*
D03*
X28445D02*
D03*
X32255Y78575D02*
D03*
X30985D02*
D03*
X29715D02*
D03*
X28445D02*
D03*
D95*
X15925Y62195D02*
D03*
Y63465D02*
D03*
Y64735D02*
D03*
Y66005D02*
D03*
X11025Y62195D02*
D03*
Y63465D02*
D03*
Y64735D02*
D03*
Y66005D02*
D03*
D96*
X78775Y57025D02*
D03*
Y55125D02*
D03*
X76375D02*
D03*
Y56075D02*
D03*
Y57025D02*
D03*
X62075Y77150D02*
D03*
Y79050D02*
D03*
X64475D02*
D03*
Y78100D02*
D03*
Y77150D02*
D03*
X77600Y49850D02*
D03*
Y50800D02*
D03*
Y51750D02*
D03*
X75200D02*
D03*
Y49850D02*
D03*
X22100Y33675D02*
D03*
Y32725D02*
D03*
Y31775D02*
D03*
X24500D02*
D03*
Y33675D02*
D03*
D97*
X75500Y34300D02*
D03*
Y42700D02*
D03*
D98*
X26775Y26775D02*
D03*
X29475D02*
D03*
X27250Y45575D02*
D03*
X24550D02*
D03*
X27275Y42300D02*
D03*
X24575D02*
D03*
X27275Y38875D02*
D03*
X24575D02*
D03*
D99*
X76925Y30950D02*
D03*
X80025D02*
D03*
X7475Y47900D02*
D03*
X4375D02*
D03*
X86565Y70150D02*
D03*
X89665D02*
D03*
D100*
X48875Y78825D02*
D03*
Y75725D02*
D03*
D101*
X36150Y55550D02*
D03*
X29350D02*
D03*
D102*
X50425Y54925D02*
D03*
Y48125D02*
D03*
D103*
X88075Y16775D02*
D03*
X90325D02*
D03*
D104*
X27325Y67725D02*
D03*
X24625D02*
D03*
X56400Y55125D02*
D03*
X59100D02*
D03*
X67725Y58450D02*
D03*
X65025D02*
D03*
X38437Y54950D02*
D03*
X41137D02*
D03*
X21275Y61875D02*
D03*
X23975D02*
D03*
X47750Y39750D02*
D03*
X50450D02*
D03*
X47725Y37500D02*
D03*
X50425D02*
D03*
X47700Y35375D02*
D03*
X50400D02*
D03*
X50575Y31325D02*
D03*
X53275D02*
D03*
D105*
X46145Y25930D02*
D03*
X48055Y24020D02*
D03*
D106*
X22675Y29000D02*
D03*
Y26300D02*
D03*
%TF.MD5,29217799cb72c63fdf322b2982eee895*%
M02*
