%TF.GenerationSoftware,Altium Limited,Altium Designer,18.1.7 (191)*%
G04 Layer_Color=128*
%FSLAX43Y43*%
%MOMM*%
%TF.FileFunction,Paste,Bot*%
%TF.Part,Single*%
G01*
G75*
%TA.AperFunction,SMDPad,CuDef*%
%ADD15R,1.450X0.600*%
%ADD16R,0.900X0.700*%
%ADD19R,0.600X1.450*%
%ADD21R,1.100X1.400*%
%ADD23R,0.700X0.900*%
%ADD24R,0.900X0.800*%
%ADD25R,0.800X0.900*%
%ADD30R,1.400X1.100*%
%ADD59O,2.100X0.300*%
%ADD60O,0.300X2.100*%
D15*
X10950Y16400D02*
D03*
X13300Y15450D02*
D03*
Y17350D02*
D03*
Y21150D02*
D03*
Y19250D02*
D03*
X10950Y20200D02*
D03*
X84100Y22775D02*
D03*
X81750Y23725D02*
D03*
Y21825D02*
D03*
X84100Y18850D02*
D03*
X81750Y19800D02*
D03*
Y17900D02*
D03*
D16*
X21800Y13500D02*
D03*
Y12000D02*
D03*
X48500Y11325D02*
D03*
Y9825D02*
D03*
X10275Y23875D02*
D03*
Y22375D02*
D03*
X78475Y19150D02*
D03*
Y20650D02*
D03*
X8900Y21725D02*
D03*
Y23225D02*
D03*
X10475Y29550D02*
D03*
Y31050D02*
D03*
X84225Y28150D02*
D03*
Y26650D02*
D03*
D19*
X12100Y10625D02*
D03*
X13050Y12975D02*
D03*
X11150D02*
D03*
X15875Y10625D02*
D03*
X16825Y12975D02*
D03*
X14925D02*
D03*
X28725Y13725D02*
D03*
X30625D02*
D03*
X29675Y11375D02*
D03*
X43475Y13200D02*
D03*
X45375D02*
D03*
X44425Y10850D02*
D03*
X24950Y13600D02*
D03*
X26850D02*
D03*
X25900Y11250D02*
D03*
X39775Y13200D02*
D03*
X41675D02*
D03*
X40725Y10850D02*
D03*
D21*
X14375Y8725D02*
D03*
X12875D02*
D03*
X24275Y9448D02*
D03*
X25775D02*
D03*
D23*
X14200Y22350D02*
D03*
X15700D02*
D03*
X43525Y23650D02*
D03*
X42025D02*
D03*
X18350Y22100D02*
D03*
X19850D02*
D03*
X13700Y69700D02*
D03*
X12200D02*
D03*
X10925Y69725D02*
D03*
X9425D02*
D03*
X78475Y17925D02*
D03*
X79975D02*
D03*
X51900Y7575D02*
D03*
X53400D02*
D03*
X82375Y58600D02*
D03*
X83875D02*
D03*
X82375Y57125D02*
D03*
X83875D02*
D03*
X13525Y33375D02*
D03*
X12025D02*
D03*
X85725Y25200D02*
D03*
X84225D02*
D03*
D24*
X48650Y18100D02*
D03*
Y16700D02*
D03*
X56150Y63525D02*
D03*
Y62125D02*
D03*
X41875Y42625D02*
D03*
Y41225D02*
D03*
D25*
X66025Y22025D02*
D03*
X67425D02*
D03*
X43625Y20450D02*
D03*
X45025D02*
D03*
X55700Y44100D02*
D03*
X54300D02*
D03*
X69075Y19350D02*
D03*
X70475D02*
D03*
X73475Y19225D02*
D03*
X72075D02*
D03*
X46625Y20575D02*
D03*
X48025D02*
D03*
X52300Y19025D02*
D03*
X53700D02*
D03*
X54900Y8900D02*
D03*
X53500D02*
D03*
X53575Y21950D02*
D03*
X52175D02*
D03*
X56325Y20550D02*
D03*
X54925D02*
D03*
D30*
X8400Y14750D02*
D03*
Y16250D02*
D03*
X20500Y17225D02*
D03*
Y15725D02*
D03*
X36700Y12400D02*
D03*
Y10900D02*
D03*
D59*
X67375Y17750D02*
D03*
Y18250D02*
D03*
Y16750D02*
D03*
Y17250D02*
D03*
Y14750D02*
D03*
Y15250D02*
D03*
Y14250D02*
D03*
Y16250D02*
D03*
Y15750D02*
D03*
Y13250D02*
D03*
Y13750D02*
D03*
Y11250D02*
D03*
Y11750D02*
D03*
Y10750D02*
D03*
Y12750D02*
D03*
Y12250D02*
D03*
X56175Y18250D02*
D03*
Y17750D02*
D03*
Y15750D02*
D03*
Y16250D02*
D03*
Y15250D02*
D03*
Y17250D02*
D03*
Y16750D02*
D03*
Y13250D02*
D03*
Y13750D02*
D03*
Y12750D02*
D03*
Y14750D02*
D03*
Y14250D02*
D03*
Y12250D02*
D03*
Y11750D02*
D03*
Y11250D02*
D03*
Y10750D02*
D03*
D60*
X65525Y20100D02*
D03*
X65025D02*
D03*
X64025D02*
D03*
X63525D02*
D03*
X64525D02*
D03*
X62525D02*
D03*
X63025D02*
D03*
X62025D02*
D03*
X61525D02*
D03*
X61025D02*
D03*
X62525Y8900D02*
D03*
X62025D02*
D03*
X63025D02*
D03*
X61025D02*
D03*
X61525D02*
D03*
X65025D02*
D03*
X64525D02*
D03*
X65525D02*
D03*
X63525D02*
D03*
X64025D02*
D03*
X60025Y20100D02*
D03*
X59525D02*
D03*
X60525D02*
D03*
X58025D02*
D03*
X59025D02*
D03*
X58525D02*
D03*
X60025Y8900D02*
D03*
X60525D02*
D03*
X59025D02*
D03*
X58525D02*
D03*
X59525D02*
D03*
X58025D02*
D03*
%TF.MD5,20b2ced34ac2dd7277e501eb206834d5*%
M02*
