%TF.GenerationSoftware,Altium Limited,Altium Designer,18.1.7 (191)*%
G04 Layer_Color=255*
%FSLAX43Y43*%
%MOMM*%
%TF.FileFunction,Pads,Top*%
%TF.Part,Single*%
G01*
G75*
%TA.AperFunction,SMDPad,CuDef*%
%ADD11R,3.300X8.200*%
%ADD12R,3.300X3.700*%
%ADD13R,1.700X1.100*%
%ADD14R,8.200X3.300*%
%ADD15R,1.450X0.600*%
%ADD16R,0.900X0.700*%
%ADD17R,4.000X1.750*%
%ADD18O,0.700X1.700*%
%ADD19R,0.600X1.450*%
%ADD20R,0.650X1.100*%
%ADD21R,1.100X1.400*%
%ADD22R,1.950X1.900*%
%ADD23R,0.700X0.900*%
%ADD24R,0.900X0.800*%
%ADD25R,0.800X0.900*%
%ADD26O,0.700X2.500*%
%ADD27O,2.500X0.700*%
%ADD28R,1.100X0.650*%
%ADD29R,3.700X3.300*%
%ADD30R,1.400X1.100*%
%ADD31R,1.100X2.600*%
%ADD32R,1.500X2.800*%
%ADD33R,2.800X1.500*%
%ADD34R,1.600X2.200*%
%ADD35R,2.200X1.600*%
%ADD36R,0.850X0.450*%
%ADD37R,1.100X1.700*%
G04:AMPARAMS|DCode=38|XSize=1.7mm|YSize=1.1mm|CornerRadius=0mm|HoleSize=0mm|Usage=FLASHONLY|Rotation=45.000|XOffset=0mm|YOffset=0mm|HoleType=Round|Shape=Rectangle|*
%AMROTATEDRECTD38*
4,1,4,-0.212,-0.990,-0.990,-0.212,0.212,0.990,0.990,0.212,-0.212,-0.990,0.0*
%
%ADD38ROTATEDRECTD38*%

%ADD39R,2.600X1.100*%
%TA.AperFunction,ViaPad*%
%ADD54C,3.000*%
%TA.AperFunction,ComponentPad*%
%ADD55C,1.524*%
%ADD56C,0.950*%
%ADD57C,0.900*%
D11*
X53975Y79300D02*
D03*
X58575D02*
D03*
D12*
X72417Y77744D02*
D03*
X80817D02*
D03*
X6600Y55075D02*
D03*
X15000D02*
D03*
X44075Y79425D02*
D03*
X35675D02*
D03*
D13*
X26775Y59325D02*
D03*
Y62025D02*
D03*
X41050Y62175D02*
D03*
Y59475D02*
D03*
D14*
X76750Y22425D02*
D03*
Y27025D02*
D03*
X12675Y37500D02*
D03*
Y42100D02*
D03*
X86325Y65475D02*
D03*
Y60875D02*
D03*
D15*
X10950Y20400D02*
D03*
X13300Y21350D02*
D03*
Y19450D02*
D03*
X10950Y16600D02*
D03*
X13300Y17550D02*
D03*
Y15650D02*
D03*
D16*
X26625Y32175D02*
D03*
Y33675D02*
D03*
X21675Y12125D02*
D03*
Y13625D02*
D03*
X47175Y9175D02*
D03*
Y10675D02*
D03*
X50425Y27825D02*
D03*
Y26325D02*
D03*
X56225Y28950D02*
D03*
Y27450D02*
D03*
X20875Y67775D02*
D03*
Y69275D02*
D03*
X20500Y35250D02*
D03*
Y33750D02*
D03*
X20750Y80550D02*
D03*
Y82050D02*
D03*
X75250Y48325D02*
D03*
Y46825D02*
D03*
X72375Y13450D02*
D03*
Y14950D02*
D03*
X79250Y52200D02*
D03*
Y53700D02*
D03*
X79350Y16050D02*
D03*
Y17550D02*
D03*
X36925Y70725D02*
D03*
Y72225D02*
D03*
X69300Y79825D02*
D03*
Y78325D02*
D03*
X67825Y78325D02*
D03*
Y79825D02*
D03*
X8050Y63750D02*
D03*
Y62250D02*
D03*
X3425Y67025D02*
D03*
Y65525D02*
D03*
X78750Y58550D02*
D03*
Y60050D02*
D03*
X71625Y54600D02*
D03*
Y56100D02*
D03*
X83700Y41275D02*
D03*
Y42775D02*
D03*
Y44400D02*
D03*
Y45900D02*
D03*
X89375Y50725D02*
D03*
Y52225D02*
D03*
X44225Y49125D02*
D03*
Y50625D02*
D03*
X61950Y49475D02*
D03*
Y50975D02*
D03*
D17*
X58450Y50300D02*
D03*
X40450Y50325D02*
D03*
D18*
X56517Y47790D02*
D03*
X57787D02*
D03*
X59057D02*
D03*
X60327D02*
D03*
X56517Y52740D02*
D03*
X57787D02*
D03*
X59057D02*
D03*
X60327D02*
D03*
X42327Y52765D02*
D03*
X41057D02*
D03*
X39787D02*
D03*
X38517D02*
D03*
X42327Y47815D02*
D03*
X41057D02*
D03*
X39787D02*
D03*
X38517D02*
D03*
D19*
X28825Y13475D02*
D03*
X26925D02*
D03*
X27875Y11125D02*
D03*
X37500Y13300D02*
D03*
X35600D02*
D03*
X36550Y10950D02*
D03*
X25375Y13600D02*
D03*
X23475D02*
D03*
X24425Y11250D02*
D03*
X41275Y13300D02*
D03*
X39375D02*
D03*
X40325Y10950D02*
D03*
D20*
X21650Y15175D02*
D03*
X19750D02*
D03*
Y17575D02*
D03*
X20700D02*
D03*
X21650D02*
D03*
X20650Y76825D02*
D03*
X18750D02*
D03*
Y79225D02*
D03*
X19700D02*
D03*
X20650D02*
D03*
X18750Y73350D02*
D03*
X20650D02*
D03*
Y70950D02*
D03*
X19700D02*
D03*
X18750D02*
D03*
X75350Y17900D02*
D03*
X77250D02*
D03*
Y15500D02*
D03*
X76300D02*
D03*
X75350D02*
D03*
X11900Y30825D02*
D03*
X13800D02*
D03*
Y28425D02*
D03*
X12850D02*
D03*
X11900D02*
D03*
X85400Y52650D02*
D03*
X87300D02*
D03*
Y50250D02*
D03*
X86350D02*
D03*
X85400D02*
D03*
X30725Y70700D02*
D03*
X31675D02*
D03*
X32625D02*
D03*
Y73100D02*
D03*
X30725D02*
D03*
X8025Y67750D02*
D03*
X7075D02*
D03*
X6125D02*
D03*
Y65350D02*
D03*
X8025D02*
D03*
X43975Y10700D02*
D03*
X44925D02*
D03*
X45875D02*
D03*
Y13100D02*
D03*
X43975D02*
D03*
X54425Y25100D02*
D03*
X52525D02*
D03*
Y27500D02*
D03*
X53475D02*
D03*
X54425D02*
D03*
X15375Y13600D02*
D03*
X17275D02*
D03*
Y11200D02*
D03*
X16325D02*
D03*
X15375D02*
D03*
D21*
X30725Y8775D02*
D03*
X29225D02*
D03*
X48800Y46275D02*
D03*
X50300D02*
D03*
X25650Y52050D02*
D03*
X27150D02*
D03*
X60675Y57200D02*
D03*
X59175D02*
D03*
X28000Y48875D02*
D03*
X29500D02*
D03*
X52150Y44325D02*
D03*
X50650D02*
D03*
D22*
X49350Y62825D02*
D03*
Y59075D02*
D03*
D23*
X35175Y47250D02*
D03*
X36675D02*
D03*
X36650Y48800D02*
D03*
X35150D02*
D03*
X55000Y45450D02*
D03*
X56500D02*
D03*
Y43925D02*
D03*
X55000D02*
D03*
X41275Y14900D02*
D03*
X42775D02*
D03*
X72400Y9675D02*
D03*
X73900D02*
D03*
X75150D02*
D03*
X76650D02*
D03*
X64100Y81200D02*
D03*
X62600D02*
D03*
X10400Y26875D02*
D03*
X11900D02*
D03*
X10950Y34300D02*
D03*
X12450D02*
D03*
X82325Y48700D02*
D03*
X83825D02*
D03*
X3700Y30075D02*
D03*
X5200D02*
D03*
Y28675D02*
D03*
X3700D02*
D03*
X64525Y73025D02*
D03*
X63025D02*
D03*
X32275Y74700D02*
D03*
X30775D02*
D03*
X18700Y75100D02*
D03*
X20200D02*
D03*
X13675Y13575D02*
D03*
X12175D02*
D03*
X60275Y70900D02*
D03*
X61775D02*
D03*
X60275Y72350D02*
D03*
X61775D02*
D03*
D24*
X58025Y45325D02*
D03*
Y43925D02*
D03*
X62150Y52775D02*
D03*
Y54175D02*
D03*
X44300Y52750D02*
D03*
Y54150D02*
D03*
X79750Y49550D02*
D03*
Y50950D02*
D03*
X10475Y29450D02*
D03*
Y30850D02*
D03*
X74750Y57475D02*
D03*
Y56075D02*
D03*
X28975Y70525D02*
D03*
Y71925D02*
D03*
X73675Y13500D02*
D03*
Y14900D02*
D03*
X57800Y26550D02*
D03*
Y27950D02*
D03*
X56150Y25225D02*
D03*
Y23825D02*
D03*
D25*
X63600Y47600D02*
D03*
X62200D02*
D03*
X39750Y45325D02*
D03*
X38350D02*
D03*
X43725Y45250D02*
D03*
X42325D02*
D03*
X63475Y75450D02*
D03*
X62075D02*
D03*
X73950Y19300D02*
D03*
X75350D02*
D03*
X86800Y54725D02*
D03*
X85400D02*
D03*
X5700Y69500D02*
D03*
X7100D02*
D03*
X75400Y11325D02*
D03*
X74000D02*
D03*
X65150Y55475D02*
D03*
X66550D02*
D03*
X41100Y56675D02*
D03*
X42500D02*
D03*
X27050Y53775D02*
D03*
X25650D02*
D03*
X28000Y50600D02*
D03*
X29400D02*
D03*
X50725Y41450D02*
D03*
X52125D02*
D03*
X50100Y42800D02*
D03*
X48700D02*
D03*
D26*
X78780Y67800D02*
D03*
X77510D02*
D03*
X76240D02*
D03*
X74970D02*
D03*
X78780Y62900D02*
D03*
X77510D02*
D03*
X76240D02*
D03*
X74970D02*
D03*
X73130Y51800D02*
D03*
X71860D02*
D03*
X70590D02*
D03*
X69320D02*
D03*
X73130Y46900D02*
D03*
X71860D02*
D03*
X70590D02*
D03*
X69320D02*
D03*
X32255Y83475D02*
D03*
X30985D02*
D03*
X29715D02*
D03*
X28445D02*
D03*
X32255Y78575D02*
D03*
X30985D02*
D03*
X29715D02*
D03*
X28445D02*
D03*
D27*
X15925Y62195D02*
D03*
Y63465D02*
D03*
Y64735D02*
D03*
Y66005D02*
D03*
X11025Y62195D02*
D03*
Y63465D02*
D03*
Y64735D02*
D03*
Y66005D02*
D03*
D28*
X78775Y57025D02*
D03*
Y55125D02*
D03*
X76375D02*
D03*
Y56075D02*
D03*
Y57025D02*
D03*
X62075Y77150D02*
D03*
Y79050D02*
D03*
X64475D02*
D03*
Y78100D02*
D03*
Y77150D02*
D03*
X77600Y49850D02*
D03*
Y50800D02*
D03*
Y51750D02*
D03*
X75200D02*
D03*
Y49850D02*
D03*
X22100Y33675D02*
D03*
Y32725D02*
D03*
Y31775D02*
D03*
X24500D02*
D03*
Y33675D02*
D03*
D29*
X75500Y34300D02*
D03*
Y42700D02*
D03*
D30*
X38350Y8975D02*
D03*
Y10475D02*
D03*
X26325Y81875D02*
D03*
Y83375D02*
D03*
X67375Y50100D02*
D03*
Y51600D02*
D03*
X73225Y69675D02*
D03*
Y68175D02*
D03*
X19200Y66950D02*
D03*
Y65450D02*
D03*
X8570Y20475D02*
D03*
Y21975D02*
D03*
X44300Y57250D02*
D03*
Y58750D02*
D03*
D31*
X26775Y26775D02*
D03*
X29475D02*
D03*
X27250Y45575D02*
D03*
X24550D02*
D03*
X27275Y42300D02*
D03*
X24575D02*
D03*
X27275Y38875D02*
D03*
X24575D02*
D03*
D32*
X76925Y30950D02*
D03*
X80025D02*
D03*
X7475Y47900D02*
D03*
X4375D02*
D03*
X86565Y70150D02*
D03*
X89665D02*
D03*
D33*
X48875Y78825D02*
D03*
Y75725D02*
D03*
D34*
X36150Y55550D02*
D03*
X29350D02*
D03*
D35*
X50425Y54925D02*
D03*
Y48125D02*
D03*
D36*
X88075Y16775D02*
D03*
X90325D02*
D03*
D37*
X27325Y67725D02*
D03*
X24625D02*
D03*
X56400Y55125D02*
D03*
X59100D02*
D03*
X67725Y58450D02*
D03*
X65025D02*
D03*
X38437Y54950D02*
D03*
X41137D02*
D03*
X21275Y61875D02*
D03*
X23975D02*
D03*
X47750Y39750D02*
D03*
X50450D02*
D03*
X47725Y37500D02*
D03*
X50425D02*
D03*
X47700Y35375D02*
D03*
X50400D02*
D03*
X50575Y31325D02*
D03*
X53275D02*
D03*
D38*
X46145Y25930D02*
D03*
X48055Y24020D02*
D03*
D39*
X22675Y29000D02*
D03*
Y26300D02*
D03*
D54*
X8925Y90300D02*
D03*
X4725Y4725D02*
D03*
X87775Y4725D02*
D03*
X87775Y87750D02*
D03*
X2200Y83575D02*
D03*
D55*
X36525Y4400D02*
D03*
Y6400D02*
D03*
X38525Y4400D02*
D03*
Y6400D02*
D03*
X40525Y4400D02*
D03*
Y6400D02*
D03*
X42525Y4400D02*
D03*
Y6400D02*
D03*
X44525Y4400D02*
D03*
Y6400D02*
D03*
X47825Y86400D02*
D03*
Y88400D02*
D03*
X49825Y86400D02*
D03*
Y88400D02*
D03*
X51825Y86400D02*
D03*
Y88400D02*
D03*
X53825Y86400D02*
D03*
Y88400D02*
D03*
X55825Y86400D02*
D03*
Y88400D02*
D03*
X23125Y4492D02*
D03*
Y6492D02*
D03*
X25125Y4492D02*
D03*
Y6492D02*
D03*
X27125Y4492D02*
D03*
Y6492D02*
D03*
X29125Y4492D02*
D03*
Y6492D02*
D03*
X31125Y4492D02*
D03*
Y6492D02*
D03*
X10525Y3900D02*
D03*
Y5900D02*
D03*
X12525Y3900D02*
D03*
Y5900D02*
D03*
X14525Y3900D02*
D03*
Y5900D02*
D03*
X16525Y3900D02*
D03*
Y5900D02*
D03*
X18525Y3900D02*
D03*
Y5900D02*
D03*
X5825Y14425D02*
D03*
X3825D02*
D03*
X5825Y16425D02*
D03*
X3825D02*
D03*
X5825Y18425D02*
D03*
X3825D02*
D03*
X5825Y20425D02*
D03*
X3825D02*
D03*
X5825Y22425D02*
D03*
X3825D02*
D03*
X5275Y72550D02*
D03*
Y74550D02*
D03*
X3275Y72550D02*
D03*
Y74550D02*
D03*
X11025Y72560D02*
D03*
Y75100D02*
D03*
Y77640D02*
D03*
X73100Y5025D02*
D03*
Y7025D02*
D03*
X75100Y5025D02*
D03*
Y7025D02*
D03*
X77100Y5025D02*
D03*
Y7025D02*
D03*
X79100Y5025D02*
D03*
Y7025D02*
D03*
X81100Y5025D02*
D03*
Y7025D02*
D03*
X3700Y33275D02*
D03*
Y35275D02*
D03*
Y39275D02*
D03*
X5700Y35275D02*
D03*
X3700Y37275D02*
D03*
X5700Y33275D02*
D03*
Y37275D02*
D03*
X3700Y41275D02*
D03*
X5700Y39275D02*
D03*
Y41275D02*
D03*
X88325Y37950D02*
D03*
X86325D02*
D03*
X88325Y39950D02*
D03*
X86325D02*
D03*
X88325Y41950D02*
D03*
X86325D02*
D03*
X88325Y43950D02*
D03*
X86325D02*
D03*
X88325Y45950D02*
D03*
X86325D02*
D03*
X17825Y87725D02*
D03*
X20350D02*
D03*
X68475Y86279D02*
D03*
Y88279D02*
D03*
X70475Y86279D02*
D03*
Y88279D02*
D03*
X72475Y86279D02*
D03*
Y88279D02*
D03*
X74475Y86279D02*
D03*
Y88279D02*
D03*
X76475Y86279D02*
D03*
Y88279D02*
D03*
X88050Y22150D02*
D03*
Y20150D02*
D03*
X90050Y22150D02*
D03*
Y20150D02*
D03*
D56*
X59550Y3225D02*
D03*
X58300D02*
D03*
X57050D02*
D03*
X55800D02*
D03*
X54550D02*
D03*
X52050D02*
D03*
X50800D02*
D03*
D57*
X53300D02*
D03*
%TF.MD5,5a7d2115d3b7527d08ab4c3572faa89e*%
M02*
