M48
;Layer_Color=9474304
;FILE_FORMAT=4:3
METRIC,LZ
;TYPE=PLATED
T1F00S00C0.500
T2F00S00C0.550
T3F00S00C0.600
T4F00S00C0.800
T5F00S00C0.900
T6F00S00C3.000
%
T01
X00099Y0013925
X0010975Y00147
X00089Y0018475
X00183Y0017575
X00199Y0013475
X002935Y00209
X00303Y0020875
X003125Y00209
X0032125
X0033075
X00341
X00501Y00213
X004795Y0018275
X00472Y00119
X0047352Y0008
X0047Y000125
X0045825
X004475
X00437
X004255
X0051675Y0014275
X0055213Y0022388
X0070325Y001595
X00715Y0016175
X0073325Y0016775
X0077Y0019475
X0084778Y001405
X0069725Y001005
X0068425Y0024975
X0066329Y0026302
X0065175Y00241
X0065414Y0031495
X0063725Y00367
X0078875Y0039825
X0084778Y0033778
X00821Y0027575
X00825Y002635
X0081325Y00504
X0080875Y00552
X00776Y005335
X007475Y00536
X0073525Y005535
X007225Y0060625
X00854Y0057125
X0060775Y0054425
X0054775Y0055975
X00552Y0046725
X0051925Y003895
X00485Y003225
X0043725Y0032181
X0045725Y0029775
X00454Y00236
X0053675Y002385
X005445Y00231
X0057375Y0025125
X0058575Y0025225
X006115Y00232
X00556Y00305
X0054875Y0031475
X0058525Y0062275
X00427Y005455
X0038825Y0056875
X0018425Y00463
X001995Y0031525
X00202Y0028925
X001885
X001765Y002895
X0016475Y0028925
X00149Y00268
X0012925Y002575
X0010475Y0032175
X000465Y0067025
X000275Y007095
X00221Y00693
X002225Y008015
X002805Y007295
X004315Y007315
X0051925Y0072225
X00541Y0070625
X0056969Y0073675
X005955Y0073875
X0060325Y0069425
X0057625Y006345
X005105Y007695
X004985Y0083525
X004685Y0083925
X00433Y0085725
X0043775Y0088025
X0067825Y0069
X0075425Y0070675
X00818Y0069633
T02
X00508Y0003225
X005205
X005455
X00558
X005705
X00583
X005955
T03
X00533Y0003225
T04
X0010525Y00039
Y00059
X0012525
Y00039
X0014525
Y00059
X0016525
Y00039
X0018525
Y00059
X0005825Y0014425
X0003825
Y0016425
X0005825
Y0018425
X0003825
Y0020425
X0005825
Y0022425
X0003825
X0023125Y0006492
Y0004492
X0025125
Y0006492
X0027125
Y0004492
X0029125
Y0006492
X0031125
Y0004492
X0036525Y00044
Y00064
X0038525
Y00044
X0040525
Y00064
X0042525
Y00044
X0044525
Y00064
X00731Y0007025
Y0005025
X00751
Y0007025
X00771
Y0005025
X00791
Y0007025
X00811
Y0005025
X008805Y002015
Y002215
X009005
Y002015
X0088325Y003795
X0086325
Y003995
X0088325
Y004195
X0086325
Y004395
X0088325
Y004595
X0086325
X00057Y0041275
X00037
Y0039275
Y0037275
X00057
Y0039275
Y0035275
X00037
Y0033275
X00057
X0005275Y007255
Y007455
X0003275
Y007255
X0047825Y00864
Y00884
X0049825
Y00864
X0051825
Y00884
X0053825
Y00864
X0055825
Y00884
X0068475Y0088279
Y0086279
X0070475
Y0088279
X0072475
Y0086279
X0074475
Y0088279
X0076475
Y0086279
T05
X0011025Y007256
Y00751
Y007764
X0017825Y0087725
X002035
T06
X0004725Y0004725
X0087775Y0004725
X0008925Y00903
X00022Y0083575
X0087775Y008775
M30
