%TF.GenerationSoftware,Altium Limited,Altium Designer,18.1.7 (191)*%
G04 Layer_Color=16711935*
%FSLAX43Y43*%
%MOMM*%
%TF.FileFunction,Soldermask,Bot*%
%TF.Part,Single*%
G01*
G75*
%TA.AperFunction,SMDPad,CuDef*%
%ADD68R,1.550X0.700*%
%ADD69R,1.500X1.200*%
%ADD70R,0.700X1.550*%
%ADD71R,1.000X0.800*%
%ADD72R,1.200X1.500*%
%ADD73O,2.200X0.400*%
%ADD74O,0.400X2.200*%
%ADD75R,0.800X1.000*%
%ADD76R,0.900X1.000*%
%ADD77R,1.000X0.900*%
%TA.AperFunction,ViaPad*%
%ADD78C,3.100*%
%TA.AperFunction,ComponentPad*%
%ADD79C,1.624*%
%ADD80C,1.050*%
%ADD81C,1.000*%
%TA.AperFunction,ViaPad*%
%ADD82C,1.000*%
D68*
X10950Y16400D02*
D03*
X13300Y15450D02*
D03*
Y17350D02*
D03*
Y21150D02*
D03*
Y19250D02*
D03*
X10950Y20200D02*
D03*
X84100Y22775D02*
D03*
X81750Y23725D02*
D03*
Y21825D02*
D03*
X84100Y18850D02*
D03*
X81750Y19800D02*
D03*
Y17900D02*
D03*
D69*
X8400Y14750D02*
D03*
Y16250D02*
D03*
X20500Y17225D02*
D03*
Y15725D02*
D03*
X36700Y12400D02*
D03*
Y10900D02*
D03*
D70*
X12100Y10625D02*
D03*
X13050Y12975D02*
D03*
X11150D02*
D03*
X15875Y10625D02*
D03*
X16825Y12975D02*
D03*
X14925D02*
D03*
X28725Y13725D02*
D03*
X30625D02*
D03*
X29675Y11375D02*
D03*
X43475Y13200D02*
D03*
X45375D02*
D03*
X44425Y10850D02*
D03*
X24950Y13600D02*
D03*
X26850D02*
D03*
X25900Y11250D02*
D03*
X39775Y13200D02*
D03*
X41675D02*
D03*
X40725Y10850D02*
D03*
D71*
X21800Y13500D02*
D03*
Y12000D02*
D03*
X48500Y11325D02*
D03*
Y9825D02*
D03*
X10275Y23875D02*
D03*
Y22375D02*
D03*
X78475Y19150D02*
D03*
Y20650D02*
D03*
X8900Y21725D02*
D03*
Y23225D02*
D03*
X10475Y29550D02*
D03*
Y31050D02*
D03*
X84225Y28150D02*
D03*
Y26650D02*
D03*
D72*
X14375Y8725D02*
D03*
X12875D02*
D03*
X24275Y9448D02*
D03*
X25775D02*
D03*
D73*
X67375Y17750D02*
D03*
Y18250D02*
D03*
Y16750D02*
D03*
Y17250D02*
D03*
Y14750D02*
D03*
Y15250D02*
D03*
Y14250D02*
D03*
Y16250D02*
D03*
Y15750D02*
D03*
Y13250D02*
D03*
Y13750D02*
D03*
Y11250D02*
D03*
Y11750D02*
D03*
Y10750D02*
D03*
Y12750D02*
D03*
Y12250D02*
D03*
X56175Y18250D02*
D03*
Y17750D02*
D03*
Y15750D02*
D03*
Y16250D02*
D03*
Y15250D02*
D03*
Y17250D02*
D03*
Y16750D02*
D03*
Y13250D02*
D03*
Y13750D02*
D03*
Y12750D02*
D03*
Y14750D02*
D03*
Y14250D02*
D03*
Y12250D02*
D03*
Y11750D02*
D03*
Y11250D02*
D03*
Y10750D02*
D03*
D74*
X65525Y20100D02*
D03*
X65025D02*
D03*
X64025D02*
D03*
X63525D02*
D03*
X64525D02*
D03*
X62525D02*
D03*
X63025D02*
D03*
X62025D02*
D03*
X61525D02*
D03*
X61025D02*
D03*
X62525Y8900D02*
D03*
X62025D02*
D03*
X63025D02*
D03*
X61025D02*
D03*
X61525D02*
D03*
X65025D02*
D03*
X64525D02*
D03*
X65525D02*
D03*
X63525D02*
D03*
X64025D02*
D03*
X60025Y20100D02*
D03*
X59525D02*
D03*
X60525D02*
D03*
X58025D02*
D03*
X59025D02*
D03*
X58525D02*
D03*
X60025Y8900D02*
D03*
X60525D02*
D03*
X59025D02*
D03*
X58525D02*
D03*
X59525D02*
D03*
X58025D02*
D03*
D75*
X14200Y22350D02*
D03*
X15700D02*
D03*
X43525Y23650D02*
D03*
X42025D02*
D03*
X18350Y22100D02*
D03*
X19850D02*
D03*
X13700Y69700D02*
D03*
X12200D02*
D03*
X10925Y69725D02*
D03*
X9425D02*
D03*
X78475Y17925D02*
D03*
X79975D02*
D03*
X51900Y7575D02*
D03*
X53400D02*
D03*
X82375Y58600D02*
D03*
X83875D02*
D03*
X82375Y57125D02*
D03*
X83875D02*
D03*
X13525Y33375D02*
D03*
X12025D02*
D03*
X85725Y25200D02*
D03*
X84225D02*
D03*
D76*
X66025Y22025D02*
D03*
X67425D02*
D03*
X43625Y20450D02*
D03*
X45025D02*
D03*
X55700Y44100D02*
D03*
X54300D02*
D03*
X69075Y19350D02*
D03*
X70475D02*
D03*
X73475Y19225D02*
D03*
X72075D02*
D03*
X46625Y20575D02*
D03*
X48025D02*
D03*
X52300Y19025D02*
D03*
X53700D02*
D03*
X54900Y8900D02*
D03*
X53500D02*
D03*
X53575Y21950D02*
D03*
X52175D02*
D03*
X56325Y20550D02*
D03*
X54925D02*
D03*
D77*
X48650Y18100D02*
D03*
Y16700D02*
D03*
X56150Y63525D02*
D03*
Y62125D02*
D03*
X41875Y42625D02*
D03*
Y41225D02*
D03*
D78*
X8925Y90300D02*
D03*
X4725Y4725D02*
D03*
X87775Y4725D02*
D03*
X87775Y87750D02*
D03*
X2200Y83575D02*
D03*
D79*
X36525Y4400D02*
D03*
Y6400D02*
D03*
X38525Y4400D02*
D03*
Y6400D02*
D03*
X40525Y4400D02*
D03*
Y6400D02*
D03*
X42525Y4400D02*
D03*
Y6400D02*
D03*
X44525Y4400D02*
D03*
Y6400D02*
D03*
X47825Y86400D02*
D03*
Y88400D02*
D03*
X49825Y86400D02*
D03*
Y88400D02*
D03*
X51825Y86400D02*
D03*
Y88400D02*
D03*
X53825Y86400D02*
D03*
Y88400D02*
D03*
X55825Y86400D02*
D03*
Y88400D02*
D03*
X23125Y4492D02*
D03*
Y6492D02*
D03*
X25125Y4492D02*
D03*
Y6492D02*
D03*
X27125Y4492D02*
D03*
Y6492D02*
D03*
X29125Y4492D02*
D03*
Y6492D02*
D03*
X31125Y4492D02*
D03*
Y6492D02*
D03*
X10525Y3900D02*
D03*
Y5900D02*
D03*
X12525Y3900D02*
D03*
Y5900D02*
D03*
X14525Y3900D02*
D03*
Y5900D02*
D03*
X16525Y3900D02*
D03*
Y5900D02*
D03*
X18525Y3900D02*
D03*
Y5900D02*
D03*
X5825Y14425D02*
D03*
X3825D02*
D03*
X5825Y16425D02*
D03*
X3825D02*
D03*
X5825Y18425D02*
D03*
X3825D02*
D03*
X5825Y20425D02*
D03*
X3825D02*
D03*
X5825Y22425D02*
D03*
X3825D02*
D03*
X5275Y72550D02*
D03*
Y74550D02*
D03*
X3275Y72550D02*
D03*
Y74550D02*
D03*
X11025Y72560D02*
D03*
Y75100D02*
D03*
Y77640D02*
D03*
X73100Y5025D02*
D03*
Y7025D02*
D03*
X75100Y5025D02*
D03*
Y7025D02*
D03*
X77100Y5025D02*
D03*
Y7025D02*
D03*
X79100Y5025D02*
D03*
Y7025D02*
D03*
X81100Y5025D02*
D03*
Y7025D02*
D03*
X3700Y33275D02*
D03*
Y35275D02*
D03*
Y39275D02*
D03*
X5700Y35275D02*
D03*
X3700Y37275D02*
D03*
X5700Y33275D02*
D03*
Y37275D02*
D03*
X3700Y41275D02*
D03*
X5700Y39275D02*
D03*
Y41275D02*
D03*
X88325Y37950D02*
D03*
X86325D02*
D03*
X88325Y39950D02*
D03*
X86325D02*
D03*
X88325Y41950D02*
D03*
X86325D02*
D03*
X88325Y43950D02*
D03*
X86325D02*
D03*
X88325Y45950D02*
D03*
X86325D02*
D03*
X17825Y87725D02*
D03*
X20350D02*
D03*
X68475Y86279D02*
D03*
Y88279D02*
D03*
X70475Y86279D02*
D03*
Y88279D02*
D03*
X72475Y86279D02*
D03*
Y88279D02*
D03*
X74475Y86279D02*
D03*
Y88279D02*
D03*
X76475Y86279D02*
D03*
Y88279D02*
D03*
X88050Y22150D02*
D03*
Y20150D02*
D03*
X90050Y22150D02*
D03*
Y20150D02*
D03*
D80*
X59550Y3225D02*
D03*
X58300D02*
D03*
X57050D02*
D03*
X55800D02*
D03*
X54550D02*
D03*
X52050D02*
D03*
X50800D02*
D03*
D81*
X53300D02*
D03*
D82*
X43300Y85725D02*
D03*
X75425Y70675D02*
D03*
X55200Y46725D02*
D03*
X43150Y73150D02*
D03*
X67825Y69000D02*
D03*
X51050Y76950D02*
D03*
X81800Y69633D02*
D03*
X81325Y50400D02*
D03*
X84778Y33778D02*
D03*
X82100Y27575D02*
D03*
X74750Y53600D02*
D03*
X82500Y26350D02*
D03*
X84778Y14050D02*
D03*
X49850Y83525D02*
D03*
X43775Y88025D02*
D03*
X46850Y83925D02*
D03*
X56969Y73675D02*
D03*
X51925Y72225D02*
D03*
X63725Y36700D02*
D03*
X65414Y31495D02*
D03*
X54875Y31475D02*
D03*
X55600Y30500D02*
D03*
X66329Y26302D02*
D03*
X58525Y62275D02*
D03*
X47352Y8000D02*
D03*
X43725Y32181D02*
D03*
X47950Y18275D02*
D03*
X77000Y19475D02*
D03*
X9900Y13925D02*
D03*
X10975Y14700D02*
D03*
X19900Y13475D02*
D03*
X34100Y20900D02*
D03*
X33075D02*
D03*
X30300Y20875D02*
D03*
X31250Y20900D02*
D03*
X29350D02*
D03*
X32125D02*
D03*
X72250Y60625D02*
D03*
X78875Y39825D02*
D03*
X54775Y55975D02*
D03*
X61150Y23200D02*
D03*
X58575Y25225D02*
D03*
X47200Y11900D02*
D03*
X2750Y70950D02*
D03*
X45400Y23600D02*
D03*
X45725Y29775D02*
D03*
X73325Y16775D02*
D03*
X57625Y63450D02*
D03*
X50100Y21300D02*
D03*
X42550Y1250D02*
D03*
X69725Y10050D02*
D03*
X57375Y25125D02*
D03*
X38825Y56875D02*
D03*
X22100Y69300D02*
D03*
X19950Y31525D02*
D03*
X28050Y72950D02*
D03*
X59550Y73875D02*
D03*
X73525Y55350D02*
D03*
X77600Y53350D02*
D03*
X4650Y67025D02*
D03*
X22250Y80150D02*
D03*
X68425Y24975D02*
D03*
X54100Y70625D02*
D03*
X51675Y14275D02*
D03*
X18300Y17575D02*
D03*
X12925Y25750D02*
D03*
X8900Y18475D02*
D03*
X65175Y24100D02*
D03*
X48500Y32250D02*
D03*
X51925Y38950D02*
D03*
X42700Y54550D02*
D03*
X60775Y54425D02*
D03*
X71500Y16175D02*
D03*
X70325Y15950D02*
D03*
X85400Y57125D02*
D03*
X60325Y69425D02*
D03*
X14900Y26800D02*
D03*
X18425Y46300D02*
D03*
X10475Y32175D02*
D03*
X80875Y55200D02*
D03*
X47000Y1250D02*
D03*
X45825D02*
D03*
X44750D02*
D03*
X43700D02*
D03*
X53675Y23850D02*
D03*
X55213Y22388D02*
D03*
X54450Y23100D02*
D03*
X16475Y28925D02*
D03*
X17650Y28950D02*
D03*
X18850Y28925D02*
D03*
X20200D02*
D03*
%TF.MD5,5c847db34a4202512f3e87354d36f2f2*%
M02*
