%TF.GenerationSoftware,Altium Limited,Altium Designer,18.1.7 (191)*%
G04 Layer_Physical_Order=2*
G04 Layer_Color=16711680*
%FSLAX43Y43*%
%MOMM*%
%TF.FileFunction,Copper,L2,Bot,Signal*%
%TF.Part,Single*%
G01*
G75*
%TA.AperFunction,NonConductor*%
%ADD10C,0.254*%
%TA.AperFunction,SMDPad,CuDef*%
%ADD15R,1.450X0.600*%
%ADD16R,0.900X0.700*%
%ADD19R,0.600X1.450*%
%ADD21R,1.100X1.400*%
%ADD23R,0.700X0.900*%
%ADD24R,0.900X0.800*%
%ADD25R,0.800X0.900*%
%ADD30R,1.400X1.100*%
%TA.AperFunction,Conductor*%
%ADD40C,1.000*%
%ADD41C,0.500*%
%ADD42C,0.800*%
%ADD43C,0.300*%
%ADD44C,1.700*%
%ADD45C,1.500*%
%ADD46C,1.800*%
%ADD47C,0.305*%
%ADD49C,2.000*%
%ADD50C,1.600*%
%TA.AperFunction,ViaPad*%
%ADD54C,3.000*%
%TA.AperFunction,ComponentPad*%
%ADD55C,1.524*%
%ADD56C,0.950*%
%ADD57C,0.900*%
%TA.AperFunction,ViaPad*%
%ADD58C,0.900*%
%TA.AperFunction,SMDPad,CuDef*%
%ADD59O,2.100X0.300*%
%ADD60O,0.300X2.100*%
%TA.AperFunction,Conductor*%
%ADD61C,0.254*%
G36*
X8012Y91739D02*
X7976Y91720D01*
X7717Y91508D01*
X7505Y91249D01*
X7347Y90954D01*
X7250Y90633D01*
X7217Y90300D01*
X7250Y89967D01*
X7347Y89646D01*
X7505Y89351D01*
X7717Y89092D01*
X7976Y88880D01*
X8271Y88722D01*
X8592Y88625D01*
X8925Y88592D01*
X9258Y88625D01*
X9324Y88645D01*
X9390Y88536D01*
X8361Y87507D01*
X8042Y87584D01*
X7628Y87755D01*
X7246Y87989D01*
X6906Y88281D01*
X6614Y88621D01*
X6380Y89003D01*
X6209Y89417D01*
X6104Y89853D01*
X6069Y90300D01*
X6104Y90747D01*
X6209Y91183D01*
X6380Y91597D01*
X6543Y91863D01*
X7981D01*
X8012Y91739D01*
D02*
G37*
G36*
X45530Y90944D02*
X45578Y90827D01*
X43276Y88524D01*
X43164Y88378D01*
X43093Y88208D01*
X43069Y88025D01*
X43093Y87842D01*
X43164Y87672D01*
X43230Y87585D01*
X43167Y87458D01*
X41008D01*
Y90944D01*
X45530D01*
D02*
G37*
G36*
X27591Y90944D02*
Y73417D01*
X27586Y73414D01*
X27482Y73278D01*
X27417Y73120D01*
X27394Y72950D01*
X27417Y72780D01*
X27482Y72622D01*
X27586Y72486D01*
X27722Y72382D01*
X27880Y72317D01*
X28050Y72294D01*
X28220Y72317D01*
X28378Y72382D01*
X28514Y72486D01*
X28618Y72622D01*
X28683Y72780D01*
X28706Y72950D01*
X28683Y73120D01*
X28618Y73278D01*
X28514Y73414D01*
X28509Y73417D01*
Y90944D01*
X40342Y90944D01*
Y87175D01*
X40367Y87047D01*
X40439Y86939D01*
X40489Y86889D01*
X40597Y86817D01*
X40725Y86792D01*
X44353D01*
X44480Y86817D01*
X44589Y86889D01*
X46891Y89192D01*
X51087D01*
X51122Y89065D01*
X50985Y88885D01*
X50888Y88651D01*
X50855Y88400D01*
X50888Y88149D01*
X50985Y87915D01*
X51139Y87714D01*
X51340Y87560D01*
X51574Y87463D01*
Y87337D01*
X51340Y87240D01*
X51139Y87086D01*
X50985Y86885D01*
X50888Y86651D01*
X50762D01*
X50665Y86885D01*
X50511Y87086D01*
X50310Y87240D01*
X50076Y87337D01*
X49825Y87370D01*
X49574Y87337D01*
X49340Y87240D01*
X49139Y87086D01*
X48985Y86885D01*
X48888Y86651D01*
X48762D01*
X48665Y86885D01*
X48511Y87086D01*
X48310Y87240D01*
X48076Y87337D01*
X47825Y87370D01*
X47574Y87337D01*
X47340Y87240D01*
X47139Y87086D01*
X46985Y86885D01*
X46888Y86651D01*
X46855Y86400D01*
X46888Y86149D01*
X46985Y85915D01*
X47139Y85714D01*
X47340Y85560D01*
X47574Y85463D01*
X47825Y85430D01*
X48076Y85463D01*
X48310Y85560D01*
X48511Y85714D01*
X48665Y85915D01*
X48762Y86149D01*
X48888D01*
X48985Y85915D01*
X49139Y85714D01*
X49312Y85581D01*
X49347Y85436D01*
X48421Y84510D01*
X48343Y84393D01*
X48316Y84256D01*
Y82350D01*
X48343Y82213D01*
X48421Y82096D01*
X48791Y81726D01*
X48791Y39749D01*
X46537Y37495D01*
X46410Y37547D01*
X46410Y82980D01*
X46717Y83287D01*
X46850Y83269D01*
X47020Y83292D01*
X47178Y83357D01*
X47314Y83461D01*
X47418Y83597D01*
X47483Y83755D01*
X47506Y83925D01*
X47483Y84095D01*
X47418Y84253D01*
X47314Y84389D01*
X47178Y84493D01*
X47020Y84558D01*
X46850Y84581D01*
X46680Y84558D01*
X46522Y84493D01*
X46386Y84389D01*
X46282Y84253D01*
X46217Y84095D01*
X46194Y83925D01*
X46212Y83792D01*
X45800Y83380D01*
X45723Y83264D01*
X45696Y83128D01*
X45696Y31747D01*
X45723Y31611D01*
X45800Y31495D01*
X46934Y30361D01*
X46882Y30234D01*
X46192D01*
X46189Y30239D01*
X46053Y30343D01*
X45895Y30408D01*
X45725Y30431D01*
X45555Y30408D01*
X45397Y30343D01*
X45261Y30239D01*
X45157Y30103D01*
X45092Y29945D01*
X45069Y29775D01*
X45092Y29605D01*
X45157Y29447D01*
X45261Y29311D01*
X45397Y29207D01*
X45555Y29142D01*
X45725Y29119D01*
X45895Y29142D01*
X46053Y29207D01*
X46189Y29311D01*
X46192Y29316D01*
X54335D01*
X56916Y26735D01*
Y25592D01*
X56911Y25589D01*
X56807Y25453D01*
X56742Y25295D01*
X56719Y25125D01*
X56742Y24955D01*
X56807Y24797D01*
X56911Y24661D01*
X57047Y24557D01*
X57205Y24492D01*
X57375Y24469D01*
X57545Y24492D01*
X57703Y24557D01*
X57839Y24661D01*
X57933Y24785D01*
X57972Y24798D01*
X58082Y24800D01*
X58111Y24761D01*
X58247Y24657D01*
X58405Y24592D01*
X58575Y24569D01*
X58701Y24586D01*
X58793Y24500D01*
Y22565D01*
X58820Y22428D01*
X58898Y22312D01*
X59168Y22042D01*
Y21458D01*
X59041Y21354D01*
X59025Y21357D01*
X58888Y21330D01*
X58773Y21252D01*
X58695Y21137D01*
X58668Y21000D01*
Y20100D01*
Y19200D01*
Y18584D01*
X58340D01*
X58171Y18753D01*
X58204Y18899D01*
X58277Y18948D01*
X58355Y19063D01*
X58382Y19200D01*
Y21000D01*
Y21300D01*
X58355Y21437D01*
X58277Y21552D01*
X51152Y28677D01*
X51037Y28755D01*
X50900Y28782D01*
X44648D01*
X42382Y31048D01*
Y40625D01*
X42525D01*
Y41825D01*
X41430D01*
X29632Y53623D01*
Y66525D01*
X29605Y66662D01*
X29527Y66777D01*
X25682Y70623D01*
Y77075D01*
X25655Y77212D01*
X25577Y77327D01*
X22888Y80017D01*
X22906Y80150D01*
X22883Y80320D01*
X22818Y80478D01*
X22714Y80614D01*
X22578Y80718D01*
X22420Y80783D01*
X22250Y80806D01*
X22080Y80783D01*
X21922Y80718D01*
X21786Y80614D01*
X21682Y80478D01*
X21617Y80320D01*
X21594Y80150D01*
X21617Y79980D01*
X21682Y79822D01*
X21786Y79686D01*
X21922Y79582D01*
X22080Y79517D01*
X22250Y79494D01*
X22383Y79512D01*
X24968Y76927D01*
Y70475D01*
X24995Y70338D01*
X25073Y70223D01*
X28918Y66377D01*
Y53475D01*
X28945Y53338D01*
X29023Y53223D01*
X41225Y41020D01*
Y40625D01*
X41620D01*
X41668Y40577D01*
Y30900D01*
X41695Y30763D01*
X41773Y30648D01*
X44248Y28173D01*
X44363Y28095D01*
X44500Y28068D01*
X50752D01*
X57668Y21152D01*
Y20100D01*
Y19422D01*
X57551Y19373D01*
X56925Y19999D01*
Y20491D01*
X56937Y20550D01*
Y21200D01*
X56890Y21434D01*
X56758Y21633D01*
X55848Y22542D01*
X55846Y22557D01*
X55780Y22715D01*
X55676Y22851D01*
X55540Y22955D01*
X55382Y23021D01*
X55367Y23023D01*
X55057Y23333D01*
X55018Y23428D01*
X54914Y23564D01*
X54778Y23668D01*
X54683Y23707D01*
X54264Y24126D01*
X54243Y24178D01*
X54139Y24314D01*
X54003Y24418D01*
X53845Y24483D01*
X53675Y24506D01*
X53505Y24483D01*
X53347Y24418D01*
X53211Y24314D01*
X53107Y24178D01*
X53042Y24020D01*
X53019Y23850D01*
X53042Y23680D01*
X53107Y23522D01*
X53211Y23386D01*
X53347Y23282D01*
X53399Y23261D01*
X53878Y22781D01*
X53882Y22772D01*
X53986Y22636D01*
X54122Y22532D01*
X54131Y22528D01*
X55713Y20947D01*
Y20550D01*
X55725Y20491D01*
Y19900D01*
X55941D01*
Y19875D01*
X55976Y19699D01*
X56076Y19551D01*
X56902Y18724D01*
X56853Y18607D01*
X55973D01*
X52775Y21805D01*
Y22600D01*
X51630D01*
X47502Y26727D01*
X47387Y26805D01*
X47250Y26832D01*
X43323D01*
X39557Y30598D01*
Y40625D01*
X39530Y40762D01*
X39452Y40877D01*
X26682Y53648D01*
Y66525D01*
X26655Y66662D01*
X26577Y66777D01*
X23802Y69552D01*
X23687Y69630D01*
X23550Y69657D01*
X22645D01*
X22564Y69764D01*
X22428Y69868D01*
X22270Y69933D01*
X22100Y69956D01*
X21930Y69933D01*
X21772Y69868D01*
X21636Y69764D01*
X21532Y69628D01*
X21467Y69470D01*
X21444Y69300D01*
X21467Y69130D01*
X21532Y68972D01*
X21636Y68836D01*
X21772Y68732D01*
X21930Y68667D01*
X22100Y68644D01*
X22270Y68667D01*
X22428Y68732D01*
X22564Y68836D01*
X22645Y68943D01*
X23402D01*
X25968Y66377D01*
Y53500D01*
X25995Y53363D01*
X26073Y53248D01*
X38843Y40477D01*
Y30450D01*
X38870Y30313D01*
X38948Y30198D01*
X42794Y26352D01*
X42745Y26234D01*
X42599D01*
X27509Y41324D01*
Y45000D01*
X27482Y45137D01*
X27404Y45254D01*
X25009Y47649D01*
Y55750D01*
X24982Y55888D01*
X24904Y56004D01*
X11985Y68923D01*
X12022Y69050D01*
X12750D01*
Y70350D01*
X11650D01*
Y70084D01*
X11475D01*
Y70375D01*
X10375D01*
Y69075D01*
X11241D01*
Y68800D01*
X11268Y68662D01*
X11346Y68546D01*
X24291Y55601D01*
Y47500D01*
X24318Y47362D01*
X24396Y47246D01*
X26791Y44851D01*
Y41194D01*
X26747Y41161D01*
X26669Y41136D01*
X25857Y41948D01*
Y44675D01*
X25830Y44812D01*
X25752Y44927D01*
X5007Y65673D01*
Y66479D01*
X5114Y66561D01*
X5218Y66697D01*
X5283Y66855D01*
X5306Y67025D01*
X5283Y67195D01*
X5218Y67353D01*
X5114Y67489D01*
X4978Y67593D01*
X4820Y67658D01*
X4650Y67681D01*
X4480Y67658D01*
X4322Y67593D01*
X4186Y67489D01*
X4184Y67485D01*
X4057Y67528D01*
Y71575D01*
X4045Y71635D01*
X4030Y71712D01*
X4030Y71712D01*
X4030Y71712D01*
X3993Y71766D01*
X3952Y71827D01*
X3954Y71859D01*
X3961Y71864D01*
X4115Y72065D01*
X4212Y72299D01*
X4338D01*
X4435Y72065D01*
X4589Y71864D01*
X4790Y71710D01*
X5024Y71613D01*
X5275Y71580D01*
X5526Y71613D01*
X5760Y71710D01*
X5961Y71864D01*
X6115Y72065D01*
X6168Y72193D01*
X6452D01*
X8875Y69770D01*
Y69075D01*
X9975D01*
Y70375D01*
X9280D01*
X6852Y72802D01*
X6737Y72880D01*
X6600Y72907D01*
X6168D01*
X6115Y73035D01*
X5961Y73236D01*
X5760Y73390D01*
X5526Y73487D01*
Y73613D01*
X5760Y73710D01*
X5961Y73864D01*
X6115Y74065D01*
X6212Y74299D01*
X6245Y74550D01*
X6212Y74801D01*
X6115Y75035D01*
X5961Y75236D01*
X5760Y75390D01*
X5526Y75487D01*
X5275Y75520D01*
X5024Y75487D01*
X4790Y75390D01*
X4589Y75236D01*
X4435Y75035D01*
X4338Y74801D01*
X4305Y74550D01*
X4338Y74299D01*
X4435Y74065D01*
X4589Y73864D01*
X4790Y73710D01*
X5024Y73613D01*
Y73487D01*
X4790Y73390D01*
X4589Y73236D01*
X4435Y73035D01*
X4338Y72801D01*
X4212D01*
X4115Y73035D01*
X3961Y73236D01*
X3760Y73390D01*
X3526Y73487D01*
X3275Y73520D01*
X3024Y73487D01*
X2790Y73390D01*
X2589Y73236D01*
X2487Y73104D01*
X2360Y73147D01*
Y76974D01*
X14593Y89207D01*
X14786Y89457D01*
X14907Y89749D01*
X14948Y90062D01*
X14907Y90376D01*
X14786Y90668D01*
X14745Y90721D01*
X14967Y90944D01*
X27591D01*
D02*
G37*
G36*
X6052Y92457D02*
X6074Y92373D01*
X6073Y92372D01*
X6023Y92290D01*
X5784Y91900D01*
X5573Y91389D01*
X5444Y90851D01*
X5400Y90300D01*
X5444Y89749D01*
X5573Y89211D01*
X5784Y88700D01*
X6073Y88228D01*
X6433Y87808D01*
X6853Y87448D01*
X7325Y87159D01*
X7836Y86948D01*
X8298Y86837D01*
X8374Y86819D01*
X8423Y86815D01*
X8471Y86812D01*
X8599Y86838D01*
X8667Y86883D01*
X8748Y86785D01*
X5929Y83965D01*
X5913Y83967D01*
X5806Y84022D01*
Y84286D01*
X5792Y84356D01*
X5793Y84356D01*
X5781Y84414D01*
X5778Y84418D01*
X5763Y84479D01*
X5763Y84479D01*
X5707Y84714D01*
X5485Y85249D01*
X5183Y85742D01*
X4807Y86182D01*
X4367Y86558D01*
X3874Y86860D01*
X3339Y87082D01*
X2777Y87217D01*
X2200Y87262D01*
X1623Y87217D01*
X1061Y87082D01*
X526Y86860D01*
X313Y86730D01*
X306Y86728D01*
X261Y86698D01*
X261Y86698D01*
X198Y86656D01*
X165Y86623D01*
X127Y86585D01*
X32Y86611D01*
X0Y86633D01*
Y92500D01*
X6021D01*
X6052Y92457D01*
D02*
G37*
G36*
X2672Y86556D02*
X3133Y86446D01*
X3570Y86265D01*
X3974Y86017D01*
X4334Y85709D01*
X4642Y85349D01*
X4890Y84945D01*
X5071Y84508D01*
X5139Y84223D01*
Y84119D01*
X3891Y82871D01*
X3843Y82893D01*
X3785Y82945D01*
X3875Y83242D01*
X3908Y83575D01*
X3875Y83908D01*
X3778Y84229D01*
X3620Y84524D01*
X3408Y84783D01*
X3149Y84995D01*
X2854Y85153D01*
X2533Y85250D01*
X2200Y85283D01*
X1867Y85250D01*
X1546Y85153D01*
X1251Y84995D01*
X992Y84783D01*
X799Y84547D01*
X672Y84573D01*
Y86168D01*
X830Y86265D01*
X1267Y86446D01*
X1728Y86556D01*
X2200Y86594D01*
X2672Y86556D01*
D02*
G37*
G36*
X992Y82367D02*
X1251Y82155D01*
X1546Y81997D01*
X1867Y81900D01*
X2200Y81867D01*
X2533Y81900D01*
X2830Y81990D01*
X2882Y81932D01*
X2904Y81884D01*
X1873Y80854D01*
X1293D01*
X672Y81475D01*
Y82577D01*
X799Y82603D01*
X992Y82367D01*
D02*
G37*
G36*
X919Y80284D02*
X1027Y80212D01*
X1155Y80187D01*
X1970D01*
X2025Y80080D01*
X2027Y80064D01*
X294Y78331D01*
X127Y78113D01*
X0Y78154D01*
Y81028D01*
X32Y81051D01*
X127Y81076D01*
X919Y80284D01*
D02*
G37*
G36*
X92500Y0D02*
X0D01*
Y61046D01*
X127Y61087D01*
X294Y60869D01*
X7090Y54074D01*
Y41897D01*
X7077Y41880D01*
X6956Y41588D01*
X6915Y41275D01*
X6956Y40962D01*
X7077Y40670D01*
X7090Y40653D01*
Y29750D01*
X7131Y29437D01*
X7252Y29145D01*
X7444Y28894D01*
X8244Y28094D01*
X8495Y27902D01*
X8787Y27781D01*
X9100Y27740D01*
X20200D01*
X20513Y27781D01*
X20805Y27902D01*
X21056Y28094D01*
X21248Y28345D01*
X21369Y28637D01*
X21410Y28950D01*
X21369Y29263D01*
X21248Y29555D01*
X21056Y29806D01*
X21022Y29832D01*
X21051Y29965D01*
X21054Y29967D01*
X21175Y29943D01*
X33777D01*
X41698Y22023D01*
X41813Y21945D01*
X41950Y21918D01*
X46552D01*
X47425Y21045D01*
Y19925D01*
X47316Y19882D01*
X46298D01*
X45625Y20555D01*
Y21100D01*
X45080D01*
X44552Y21627D01*
X44437Y21705D01*
X44300Y21732D01*
X41498D01*
X36177Y27052D01*
X36062Y27130D01*
X35925Y27157D01*
X15446D01*
X15364Y27264D01*
X15228Y27368D01*
X15070Y27433D01*
X14900Y27456D01*
X14730Y27433D01*
X14572Y27368D01*
X14436Y27264D01*
X14332Y27128D01*
X14267Y26970D01*
X14244Y26800D01*
X14267Y26630D01*
X14332Y26472D01*
X14436Y26336D01*
X14570Y26234D01*
X14571Y26227D01*
X14543Y26107D01*
X13470D01*
X13389Y26214D01*
X13253Y26318D01*
X13095Y26383D01*
X12925Y26406D01*
X12755Y26383D01*
X12597Y26318D01*
X12461Y26214D01*
X12357Y26078D01*
X12292Y25920D01*
X12269Y25750D01*
X12292Y25580D01*
X12357Y25422D01*
X12461Y25286D01*
X12597Y25182D01*
X12755Y25117D01*
X12925Y25094D01*
X13095Y25117D01*
X13253Y25182D01*
X13389Y25286D01*
X13470Y25393D01*
X34777D01*
X35886Y24284D01*
X35834Y24157D01*
X10925D01*
Y24425D01*
X9625D01*
Y24157D01*
X9475D01*
X9338Y24130D01*
X9223Y24052D01*
X8945Y23775D01*
X8250D01*
Y22675D01*
X9550D01*
Y23229D01*
X9625Y23325D01*
X10925D01*
Y23443D01*
X16648D01*
X16696Y23326D01*
X16335Y22965D01*
X16250Y23000D01*
Y23000D01*
X15150D01*
Y21700D01*
X16250D01*
Y21978D01*
X16337Y21995D01*
X16452Y22073D01*
X17323Y22943D01*
X35352D01*
X35461Y22834D01*
X35409Y22707D01*
X20400D01*
Y22750D01*
X19300D01*
Y21450D01*
X20400D01*
Y21920D01*
X20473Y21993D01*
X27063D01*
X27089Y21866D01*
X26970Y21817D01*
X26751Y21649D01*
X26751Y21649D01*
X26151Y21049D01*
X26140Y21035D01*
X26126Y21024D01*
X21611Y16509D01*
X16800D01*
X16783Y16524D01*
Y18775D01*
X16764Y18922D01*
X16751Y19023D01*
X16751Y19023D01*
X16751Y19023D01*
X16703Y19137D01*
X16655Y19254D01*
X16655Y19254D01*
X16655Y19254D01*
X16591Y19337D01*
X16503Y19452D01*
X16028Y19928D01*
X16028Y19928D01*
X16028Y19928D01*
X15949Y19988D01*
X15829Y20080D01*
X15829Y20080D01*
X15829Y20080D01*
X15707Y20130D01*
X15598Y20176D01*
X15598Y20176D01*
X15598Y20176D01*
X15431Y20198D01*
X15350Y20208D01*
X15350Y20208D01*
X15350Y20208D01*
X13300D01*
X13052Y20176D01*
X12821Y20080D01*
X12684Y19975D01*
X12557Y20037D01*
Y20650D01*
X14225D01*
Y21650D01*
X14331Y21700D01*
X14750D01*
Y23000D01*
X13650D01*
Y22682D01*
X12500D01*
X12363Y22655D01*
X12248Y22577D01*
X11973Y22302D01*
X11895Y22187D01*
X11868Y22050D01*
Y21301D01*
X11843Y21175D01*
Y20805D01*
X11716Y20762D01*
X11628Y20878D01*
X11429Y21030D01*
X11198Y21126D01*
X10950Y21158D01*
X10702Y21126D01*
X10471Y21030D01*
X10272Y20878D01*
X10136Y20700D01*
X10025D01*
Y20449D01*
X10024Y20448D01*
X9992Y20200D01*
Y17358D01*
X6783D01*
Y18333D01*
X6795Y18425D01*
X6762Y18676D01*
X6665Y18910D01*
X6511Y19111D01*
X6310Y19265D01*
X6076Y19362D01*
Y19488D01*
X6310Y19585D01*
X6511Y19739D01*
X6665Y19940D01*
X6762Y20174D01*
X6795Y20425D01*
X6762Y20676D01*
X6665Y20910D01*
X6511Y21111D01*
X6310Y21265D01*
X6076Y21362D01*
X5825Y21395D01*
X5574Y21362D01*
X5340Y21265D01*
X5139Y21111D01*
X4985Y20910D01*
X4888Y20676D01*
X4762D01*
X4665Y20910D01*
X4511Y21111D01*
X4310Y21265D01*
X4076Y21362D01*
X3825Y21395D01*
X3574Y21362D01*
X3340Y21265D01*
X3139Y21111D01*
X2985Y20910D01*
X2888Y20676D01*
X2855Y20425D01*
X2888Y20174D01*
X2985Y19940D01*
X3139Y19739D01*
X3340Y19585D01*
X3574Y19488D01*
Y19362D01*
X3340Y19265D01*
X3139Y19111D01*
X2985Y18910D01*
X2888Y18676D01*
X2855Y18425D01*
X2888Y18174D01*
X2985Y17940D01*
X3139Y17739D01*
X3340Y17585D01*
X3574Y17488D01*
Y17362D01*
X3340Y17265D01*
X3139Y17111D01*
X2985Y16910D01*
X2888Y16676D01*
X2855Y16425D01*
X2888Y16174D01*
X2985Y15940D01*
X3139Y15739D01*
X3340Y15585D01*
X3574Y15488D01*
X3825Y15455D01*
X4076Y15488D01*
X4111Y15502D01*
X4177Y15474D01*
X4425Y15442D01*
X10735D01*
X10761Y15315D01*
X10647Y15268D01*
X10511Y15164D01*
X10407Y15028D01*
X10342Y14870D01*
X10319Y14700D01*
X10337Y14569D01*
X10235Y14497D01*
X10224Y14494D01*
X10070Y14558D01*
X9900Y14581D01*
X9730Y14558D01*
X9572Y14493D01*
X9436Y14389D01*
X9332Y14253D01*
X9267Y14095D01*
X9244Y13925D01*
X9267Y13755D01*
X9332Y13597D01*
X9436Y13461D01*
X9543Y13380D01*
Y12367D01*
X9522Y12335D01*
X9522Y12335D01*
X9522Y12335D01*
X9508Y12267D01*
X9494Y12199D01*
X9494Y12199D01*
X9494Y12199D01*
X9508Y12130D01*
X9522Y12062D01*
X9522Y12062D01*
X9522Y12062D01*
X9561Y12003D01*
X9599Y11946D01*
X10023Y11523D01*
X10023Y11523D01*
X10023Y11523D01*
X10076Y11487D01*
X10138Y11445D01*
X10138Y11445D01*
X10138Y11445D01*
X10203Y11433D01*
X10275Y11418D01*
X10275Y11418D01*
X10275Y11418D01*
X11383D01*
X11395Y11383D01*
X11414Y11291D01*
X11270Y11104D01*
X11174Y10873D01*
X11142Y10625D01*
X11174Y10377D01*
X11270Y10146D01*
X11422Y9947D01*
X11447Y9922D01*
X11600Y9805D01*
Y9700D01*
X11815D01*
X11877Y9674D01*
X12125Y9642D01*
X12315Y9667D01*
X13592D01*
Y6161D01*
X13588Y6151D01*
X13555Y5900D01*
X13588Y5649D01*
X13592Y5639D01*
Y4161D01*
X13588Y4151D01*
X13555Y3900D01*
X13588Y3649D01*
X13685Y3415D01*
X13839Y3214D01*
X14040Y3060D01*
X14274Y2963D01*
X14525Y2930D01*
X14776Y2963D01*
X15010Y3060D01*
X15018Y3065D01*
X15029Y3070D01*
X15228Y3222D01*
X15380Y3421D01*
X15476Y3652D01*
X15508Y3900D01*
Y9667D01*
X15875D01*
X16123Y9699D01*
X16124Y9700D01*
X16375D01*
Y9811D01*
X16553Y9947D01*
X16705Y10146D01*
X16801Y10377D01*
X16833Y10625D01*
X16801Y10873D01*
X16705Y11104D01*
X16553Y11303D01*
X16375Y11439D01*
Y11550D01*
X16124D01*
X16123Y11551D01*
X15875Y11583D01*
X15255D01*
X15202Y11710D01*
X15255Y11788D01*
X15282Y11925D01*
Y12050D01*
X15425D01*
Y13900D01*
X14425D01*
Y12132D01*
X13791D01*
X13751Y12252D01*
X13763Y12262D01*
X13923Y12471D01*
X14024Y12714D01*
X14059Y12975D01*
Y14441D01*
X15816D01*
Y12975D01*
X15851Y12714D01*
X15951Y12471D01*
X16112Y12262D01*
X16321Y12101D01*
X16325Y12100D01*
Y12050D01*
X16445D01*
X16564Y12001D01*
X16825Y11966D01*
X17086Y12001D01*
X17205Y12050D01*
X17325D01*
Y12100D01*
X17329Y12101D01*
X17538Y12262D01*
X17698Y12471D01*
X17799Y12714D01*
X17834Y12975D01*
Y14391D01*
X22050D01*
X22050Y14391D01*
X22324Y14427D01*
X22580Y14533D01*
X22799Y14701D01*
X25774Y17676D01*
X25891Y17628D01*
Y13600D01*
X25926Y13339D01*
X26027Y13096D01*
X26151Y12934D01*
X26091Y12807D01*
X25450D01*
Y14525D01*
X24450D01*
Y13832D01*
X22450D01*
Y14050D01*
X21150D01*
Y13832D01*
X20445D01*
X20364Y13939D01*
X20228Y14043D01*
X20070Y14108D01*
X19900Y14131D01*
X19730Y14108D01*
X19572Y14043D01*
X19436Y13939D01*
X19332Y13803D01*
X19267Y13645D01*
X19244Y13475D01*
X19267Y13305D01*
X19332Y13147D01*
X19436Y13011D01*
X19572Y12907D01*
X19730Y12842D01*
X19900Y12819D01*
X20070Y12842D01*
X20228Y12907D01*
X20364Y13011D01*
X20445Y13118D01*
X21150D01*
Y12950D01*
X22450D01*
Y13118D01*
X24450D01*
Y12675D01*
X24608D01*
X24620Y12613D01*
X24698Y12498D01*
X24998Y12198D01*
X25113Y12120D01*
X25169Y12109D01*
X25200Y11974D01*
X25187Y11963D01*
X25027Y11754D01*
X24926Y11511D01*
X24891Y11250D01*
X24916Y11060D01*
Y8184D01*
X24951Y7923D01*
X25051Y7679D01*
X25125Y7584D01*
X25064Y7454D01*
X24874Y7429D01*
X24746Y7376D01*
X23794Y8327D01*
X23679Y8405D01*
X23542Y8432D01*
X22500D01*
X22363Y8405D01*
X22248Y8327D01*
X21293Y7373D01*
X21216Y7257D01*
X21188Y7120D01*
Y4030D01*
X21216Y3893D01*
X21293Y3777D01*
X22772Y2298D01*
X22823Y2223D01*
X22938Y2145D01*
X23075Y2118D01*
X41841D01*
X41882Y1998D01*
X41837Y1963D01*
X41677Y1754D01*
X41576Y1511D01*
X41541Y1250D01*
X41576Y989D01*
X41677Y746D01*
X41837Y537D01*
X42046Y377D01*
X42289Y276D01*
X42550Y241D01*
X71836D01*
X71988Y178D01*
X72275Y141D01*
X82400D01*
X82687Y178D01*
X82955Y289D01*
X83185Y465D01*
X84010Y1290D01*
X84186Y1520D01*
X84297Y1788D01*
X84334Y2075D01*
Y4077D01*
X84461Y4092D01*
X84560Y3680D01*
X84763Y3190D01*
X85040Y2738D01*
X85385Y2335D01*
X85788Y1990D01*
X86240Y1713D01*
X86730Y1510D01*
X87246Y1386D01*
X87775Y1345D01*
X88304Y1386D01*
X88820Y1510D01*
X89310Y1713D01*
X89762Y1990D01*
X90165Y2335D01*
X90510Y2738D01*
X90787Y3190D01*
X90990Y3680D01*
X91114Y4196D01*
X91155Y4725D01*
X91114Y5254D01*
X90990Y5769D01*
X90787Y6260D01*
X90510Y6712D01*
X90165Y7115D01*
X89762Y7460D01*
X89310Y7737D01*
X88820Y7940D01*
X88304Y8064D01*
X87775Y8105D01*
X87246Y8064D01*
X86730Y7940D01*
X86240Y7737D01*
X85840Y7491D01*
X85761Y7592D01*
X86460Y8291D01*
X90375D01*
X90662Y8328D01*
X90930Y8439D01*
X91160Y8615D01*
X91785Y9240D01*
X91961Y9470D01*
X92072Y9738D01*
X92109Y10025D01*
Y12825D01*
Y25375D01*
Y38050D01*
Y51800D01*
X92072Y52087D01*
X91961Y52355D01*
X91785Y52585D01*
X88259Y56110D01*
X88030Y56286D01*
X87762Y56397D01*
X87475Y56434D01*
X85776D01*
X85732Y56549D01*
X85733Y56561D01*
X85864Y56661D01*
X85968Y56797D01*
X86033Y56955D01*
X86056Y57125D01*
X86033Y57295D01*
X85968Y57453D01*
X85864Y57589D01*
X85859Y57592D01*
Y58175D01*
X85824Y58351D01*
X85724Y58499D01*
X85299Y58924D01*
X85151Y59024D01*
X84975Y59059D01*
X84425D01*
Y59250D01*
X83325D01*
Y57950D01*
X84425D01*
Y58141D01*
X84785D01*
X84941Y57985D01*
Y57592D01*
X84936Y57589D01*
X84933Y57584D01*
X84425D01*
Y57775D01*
X83325D01*
X83325Y56475D01*
X83215Y56434D01*
X83035D01*
X82925Y56475D01*
Y57775D01*
X81825D01*
Y56475D01*
X81715Y56434D01*
X80475D01*
X80475Y56435D01*
X73550D01*
X73263Y56397D01*
X72995Y56286D01*
X72765Y56110D01*
X72589Y55880D01*
X72478Y55612D01*
X72440Y55325D01*
X72478Y55038D01*
X72589Y54770D01*
X72765Y54541D01*
X72995Y54364D01*
X73263Y54253D01*
X73550Y54216D01*
X74276D01*
X74319Y54089D01*
X74286Y54064D01*
X74182Y53928D01*
X74117Y53770D01*
X74094Y53600D01*
X74112Y53467D01*
X66898Y46252D01*
X66820Y46137D01*
X66793Y46000D01*
Y35673D01*
X62773Y31652D01*
X62695Y31537D01*
X62668Y31400D01*
Y29634D01*
X61749Y28715D01*
X61632Y28764D01*
Y45277D01*
X63249Y46894D01*
X63366Y46846D01*
Y37244D01*
X63261Y37164D01*
X63157Y37028D01*
X63092Y36870D01*
X63069Y36700D01*
X63092Y36530D01*
X63157Y36372D01*
X63261Y36236D01*
X63397Y36132D01*
X63555Y36067D01*
X63725Y36044D01*
X63895Y36067D01*
X64053Y36132D01*
X64189Y36236D01*
X64293Y36372D01*
X64358Y36530D01*
X64381Y36700D01*
X64358Y36870D01*
X64293Y37028D01*
X64284Y37039D01*
Y62345D01*
X64249Y62521D01*
X64149Y62670D01*
X50309Y76510D01*
Y76709D01*
X50436Y76734D01*
X50482Y76622D01*
X50586Y76486D01*
X50722Y76382D01*
X50880Y76317D01*
X51050Y76294D01*
X51078Y76298D01*
X55426Y71951D01*
X55574Y71851D01*
X55750Y71816D01*
X78968D01*
X81145Y69639D01*
X81144Y69633D01*
X81167Y69464D01*
X81232Y69305D01*
X81336Y69170D01*
X81472Y69065D01*
X81630Y69000D01*
X81800Y68978D01*
X81970Y69000D01*
X82128Y69065D01*
X82264Y69170D01*
X82368Y69305D01*
X82433Y69464D01*
X82456Y69633D01*
X82433Y69803D01*
X82368Y69961D01*
X82264Y70097D01*
X82128Y70201D01*
X81970Y70267D01*
X81800Y70289D01*
X81794Y70288D01*
X79483Y72599D01*
X79334Y72699D01*
X79158Y72734D01*
X55940D01*
X51703Y76971D01*
X51683Y77120D01*
X51618Y77278D01*
X51514Y77414D01*
X51378Y77518D01*
X51220Y77583D01*
X51050Y77606D01*
X50880Y77583D01*
X50722Y77518D01*
X50586Y77414D01*
X50482Y77278D01*
X50436Y77166D01*
X50309Y77191D01*
Y83058D01*
X50314Y83061D01*
X50418Y83197D01*
X50483Y83355D01*
X50506Y83525D01*
X50483Y83695D01*
X50418Y83853D01*
X50314Y83989D01*
X50178Y84093D01*
X50020Y84158D01*
X49850Y84181D01*
X49680Y84158D01*
X49522Y84093D01*
X49386Y83989D01*
X49282Y83853D01*
X49217Y83695D01*
X49194Y83525D01*
X49217Y83355D01*
X49282Y83197D01*
X49386Y83061D01*
X49391Y83058D01*
Y82308D01*
X49274Y82259D01*
X49034Y82499D01*
Y84107D01*
X50079Y85152D01*
X50157Y85268D01*
X50184Y85406D01*
Y85508D01*
X50310Y85560D01*
X50511Y85714D01*
X50665Y85915D01*
X50762Y86149D01*
X50888D01*
X50985Y85915D01*
X51139Y85714D01*
X51340Y85560D01*
X51574Y85463D01*
X51825Y85430D01*
X52076Y85463D01*
X52310Y85560D01*
X52511Y85714D01*
X52665Y85915D01*
X52762Y86149D01*
X52888D01*
X52985Y85915D01*
X53139Y85714D01*
X53340Y85560D01*
X53366Y85549D01*
Y84250D01*
X53401Y84074D01*
X53501Y83926D01*
X55366Y82060D01*
Y74819D01*
X55401Y74644D01*
X55501Y74495D01*
X56315Y73681D01*
X56314Y73675D01*
X56336Y73505D01*
X56402Y73347D01*
X56506Y73211D01*
X56642Y73107D01*
X56800Y73042D01*
X56969Y73019D01*
X57139Y73042D01*
X57297Y73107D01*
X57433Y73211D01*
X57537Y73347D01*
X57603Y73505D01*
X57625Y73675D01*
X57603Y73845D01*
X57537Y74003D01*
X57433Y74139D01*
X57297Y74243D01*
X57139Y74308D01*
X56969Y74331D01*
X56963Y74330D01*
X56284Y75009D01*
Y82250D01*
X56249Y82426D01*
X56149Y82574D01*
X54284Y84440D01*
Y85549D01*
X54310Y85560D01*
X54511Y85714D01*
X54665Y85915D01*
X54762Y86149D01*
X54888D01*
X54985Y85915D01*
X55139Y85714D01*
X55340Y85560D01*
X55574Y85463D01*
X55825Y85430D01*
X56076Y85463D01*
X56310Y85560D01*
X56485Y85694D01*
X56982D01*
X57165Y85718D01*
X57335Y85789D01*
X57481Y85901D01*
X57924Y86344D01*
X58036Y86490D01*
X58107Y86660D01*
X58131Y86843D01*
Y89200D01*
X58107Y89383D01*
X58036Y89553D01*
X57924Y89699D01*
X56852Y90771D01*
X56898Y90905D01*
X56963Y90914D01*
X58844Y89033D01*
Y73875D01*
X58868Y73692D01*
X58939Y73522D01*
X59051Y73376D01*
X59197Y73264D01*
X59367Y73193D01*
X59550Y73169D01*
X59733Y73193D01*
X59903Y73264D01*
X60049Y73376D01*
X60161Y73522D01*
X60232Y73692D01*
X60256Y73875D01*
Y89325D01*
X60232Y89508D01*
X60161Y89678D01*
X60049Y89824D01*
X57724Y92149D01*
X57578Y92261D01*
X57408Y92332D01*
X57225Y92356D01*
X14675Y92356D01*
X14492Y92332D01*
X14322Y92261D01*
X14176Y92149D01*
X13238Y91212D01*
X13174Y91128D01*
X13132Y91111D01*
X12882Y90918D01*
X11936Y89972D01*
X11837Y90053D01*
X11883Y90122D01*
X11908Y90250D01*
Y90896D01*
X11883Y91024D01*
X11811Y91132D01*
X10569Y92373D01*
X10622Y92500D01*
X92500D01*
Y0D01*
D02*
G37*
G36*
X3343Y70447D02*
Y64775D01*
X3370Y64638D01*
X3448Y64523D01*
X24393Y43577D01*
Y41475D01*
X24420Y41338D01*
X24498Y41223D01*
X41248Y24473D01*
X41363Y24395D01*
X41387Y24391D01*
X41475Y24300D01*
Y23421D01*
X41358Y23372D01*
X34177Y30552D01*
X34062Y30630D01*
X33925Y30657D01*
X21323D01*
X20588Y31392D01*
X20606Y31525D01*
X20583Y31695D01*
X20518Y31853D01*
X20414Y31989D01*
X20278Y32093D01*
X20120Y32158D01*
X19950Y32181D01*
X19780Y32158D01*
X19622Y32093D01*
X19486Y31989D01*
X19382Y31853D01*
X19317Y31695D01*
X19294Y31525D01*
X19317Y31355D01*
X19382Y31197D01*
X19486Y31061D01*
X19622Y30957D01*
X19780Y30892D01*
X19950Y30869D01*
X20083Y30887D01*
X20867Y30103D01*
X20805Y29998D01*
X20513Y30119D01*
X20200Y30160D01*
X9601D01*
X9510Y30251D01*
Y41100D01*
Y54575D01*
X9469Y54888D01*
X9348Y55180D01*
X9156Y55431D01*
X2360Y62226D01*
Y70278D01*
X2487Y70355D01*
X2580Y70317D01*
X2750Y70294D01*
X2920Y70317D01*
X3078Y70382D01*
X3214Y70486D01*
X3216Y70490D01*
X3343Y70447D01*
D02*
G37*
G36*
X63366Y62155D02*
Y62029D01*
X63249Y61981D01*
X54756Y70473D01*
X54772Y70581D01*
X54889Y70632D01*
X63366Y62155D01*
D02*
G37*
G36*
X54126Y71395D02*
X54066Y71276D01*
X53930Y71258D01*
X53772Y71193D01*
X53636Y71089D01*
X53532Y70953D01*
X53467Y70795D01*
X53444Y70625D01*
X53467Y70455D01*
X53532Y70297D01*
X53636Y70161D01*
X53772Y70057D01*
X53930Y69992D01*
X54100Y69969D01*
X54233Y69987D01*
X62868Y61352D01*
Y47523D01*
X61023Y45677D01*
X60945Y45562D01*
X60918Y45425D01*
Y25550D01*
X60945Y25413D01*
X61023Y25298D01*
X62168Y24152D01*
Y23538D01*
X62178Y23487D01*
Y22513D01*
X62168Y22462D01*
Y21458D01*
X62041Y21354D01*
X62025Y21357D01*
X61888Y21330D01*
X61775Y21254D01*
X61662Y21330D01*
X61525Y21357D01*
X61509Y21354D01*
X61382Y21458D01*
Y22102D01*
X61452Y22173D01*
X61530Y22288D01*
X61557Y22425D01*
Y22693D01*
X61614Y22736D01*
X61718Y22872D01*
X61783Y23030D01*
X61806Y23200D01*
X61783Y23370D01*
X61718Y23528D01*
X61614Y23664D01*
X61478Y23768D01*
X61320Y23833D01*
X61150Y23856D01*
X60980Y23833D01*
X60822Y23768D01*
X60709Y23681D01*
X60628Y23704D01*
X60582Y23736D01*
Y28800D01*
X60555Y28937D01*
X60477Y29052D01*
X55257Y34273D01*
Y43200D01*
X55230Y43337D01*
X55152Y43452D01*
X54900Y43705D01*
Y44750D01*
X53957D01*
Y57202D01*
X58392Y61637D01*
X58525Y61619D01*
X58695Y61642D01*
X58853Y61707D01*
X58989Y61811D01*
X59093Y61947D01*
X59158Y62105D01*
X59181Y62275D01*
X59158Y62445D01*
X59093Y62603D01*
X58989Y62739D01*
X58853Y62843D01*
X58695Y62908D01*
X58525Y62931D01*
X58355Y62908D01*
X58197Y62843D01*
X58061Y62739D01*
X57957Y62603D01*
X57892Y62445D01*
X57869Y62275D01*
X57887Y62142D01*
X53384Y57639D01*
X53257Y57690D01*
Y58552D01*
X56230Y61525D01*
X56800D01*
Y62095D01*
X57514Y62809D01*
X57625Y62794D01*
X57795Y62817D01*
X57953Y62882D01*
X58089Y62986D01*
X58193Y63122D01*
X58258Y63280D01*
X58281Y63450D01*
X58258Y63620D01*
X58193Y63778D01*
X58089Y63914D01*
X57953Y64018D01*
X57795Y64083D01*
X57625Y64106D01*
X57455Y64083D01*
X57297Y64018D01*
X57161Y63914D01*
X57057Y63778D01*
X56992Y63620D01*
X56969Y63450D01*
X56990Y63295D01*
X56420Y62725D01*
X55500D01*
Y61805D01*
X52648Y58952D01*
X52570Y58837D01*
X52543Y58700D01*
Y44000D01*
X52570Y43863D01*
X52648Y43748D01*
X53943Y42452D01*
Y33950D01*
X53970Y33813D01*
X54048Y33698D01*
X59343Y28402D01*
Y25343D01*
X59216Y25335D01*
X59208Y25395D01*
X59143Y25553D01*
X59039Y25689D01*
X58903Y25793D01*
X58745Y25858D01*
X58575Y25881D01*
X58405Y25858D01*
X58247Y25793D01*
X58111Y25689D01*
X58048Y25606D01*
X57903Y25593D01*
X57834Y25663D01*
Y26925D01*
X57799Y27101D01*
X57699Y27249D01*
X55004Y29945D01*
X55050Y30079D01*
X55099Y30085D01*
X55136Y30036D01*
X55272Y29932D01*
X55430Y29867D01*
X55600Y29844D01*
X55770Y29867D01*
X55928Y29932D01*
X56064Y30036D01*
X56168Y30172D01*
X56233Y30330D01*
X56256Y30500D01*
X56233Y30670D01*
X56168Y30828D01*
X56064Y30964D01*
X55928Y31068D01*
X55770Y31133D01*
X55600Y31156D01*
X55583Y31153D01*
X55493Y31270D01*
X55508Y31305D01*
X55531Y31475D01*
X55508Y31645D01*
X55443Y31803D01*
X55339Y31939D01*
X55203Y32043D01*
X55045Y32108D01*
X54875Y32131D01*
X54705Y32108D01*
X54547Y32043D01*
X54411Y31939D01*
X54310Y31807D01*
X49123D01*
X49106Y31841D01*
X49073Y31934D01*
X49133Y32080D01*
X49156Y32250D01*
X49133Y32420D01*
X49068Y32578D01*
X48964Y32714D01*
X48959Y32717D01*
Y35310D01*
X51946Y38297D01*
X52095Y38317D01*
X52253Y38382D01*
X52389Y38486D01*
X52493Y38622D01*
X52558Y38780D01*
X52581Y38950D01*
X52558Y39120D01*
X52493Y39278D01*
X52389Y39414D01*
X52384Y39417D01*
Y71758D01*
X52389Y71761D01*
X52493Y71897D01*
X52558Y72055D01*
X52581Y72225D01*
X52558Y72395D01*
X52493Y72553D01*
X52389Y72689D01*
X52253Y72793D01*
X52095Y72858D01*
X51925Y72881D01*
X51755Y72858D01*
X51597Y72793D01*
X51461Y72689D01*
X51357Y72553D01*
X51292Y72395D01*
X51269Y72225D01*
X51292Y72055D01*
X51357Y71897D01*
X51461Y71761D01*
X51466Y71758D01*
Y39417D01*
X51461Y39414D01*
X51357Y39278D01*
X51292Y39120D01*
X51269Y38950D01*
X51273Y38922D01*
X48176Y35824D01*
X48076Y35676D01*
X48041Y35500D01*
Y32717D01*
X48036Y32714D01*
X47932Y32578D01*
X47867Y32420D01*
X47844Y32250D01*
X47867Y32080D01*
X47927Y31934D01*
X47894Y31841D01*
X47877Y31807D01*
X47501D01*
X47109Y32199D01*
Y37051D01*
X49404Y39346D01*
X49482Y39463D01*
X49509Y39600D01*
X49509Y75833D01*
X49636Y75885D01*
X54126Y71395D01*
D02*
G37*
G36*
X80475Y54215D02*
X87015D01*
X89891Y51340D01*
Y38050D01*
Y25659D01*
X86275D01*
Y25850D01*
X85175D01*
Y24550D01*
X86275D01*
Y24741D01*
X89891D01*
Y23099D01*
X89799Y23087D01*
X89565Y22990D01*
X89364Y22836D01*
X89210Y22635D01*
X89113Y22401D01*
X88987D01*
X88890Y22635D01*
X88736Y22836D01*
X88663Y22893D01*
X88053Y23503D01*
X88053Y23503D01*
X88053Y23503D01*
X87965Y23569D01*
X87854Y23655D01*
X87854Y23655D01*
X87854Y23655D01*
X87745Y23700D01*
X87623Y23751D01*
X87623Y23751D01*
X87623Y23751D01*
X87445Y23774D01*
X87375Y23783D01*
X87375D01*
X87375Y23783D01*
X84375D01*
X84127Y23751D01*
X83896Y23655D01*
X83697Y23503D01*
X83470Y23275D01*
X83175D01*
Y22799D01*
X83174Y22798D01*
X83142Y22550D01*
Y18850D01*
X83174Y18602D01*
X83175Y18601D01*
Y18350D01*
X83286D01*
X83422Y18172D01*
X83621Y18020D01*
X83852Y17924D01*
X84100Y17892D01*
X84348Y17924D01*
X84579Y18020D01*
X84778Y18172D01*
X84914Y18350D01*
X85025D01*
Y18601D01*
X85026Y18602D01*
X85058Y18850D01*
Y21867D01*
X86978D01*
X87092Y21753D01*
Y20242D01*
X87080Y20150D01*
X87113Y19899D01*
X87210Y19665D01*
X87364Y19464D01*
X87565Y19310D01*
X87799Y19213D01*
X88050Y19180D01*
X88301Y19213D01*
X88535Y19310D01*
X88736Y19464D01*
X88890Y19665D01*
X88987Y19899D01*
X89113D01*
X89210Y19665D01*
X89364Y19464D01*
X89565Y19310D01*
X89799Y19213D01*
X89891Y19201D01*
Y12825D01*
Y10509D01*
X86000D01*
X85713Y10472D01*
X85445Y10361D01*
X85215Y10185D01*
X82440Y7410D01*
X82264Y7180D01*
X82213Y7056D01*
X82194Y7053D01*
X82053Y7156D01*
X82037Y7276D01*
X81940Y7510D01*
X81786Y7711D01*
X81585Y7865D01*
X81351Y7962D01*
X81100Y7995D01*
X80849Y7962D01*
X80615Y7865D01*
X80414Y7711D01*
X80260Y7510D01*
X80163Y7276D01*
X80037D01*
X79940Y7510D01*
X79786Y7711D01*
X79585Y7865D01*
X79351Y7962D01*
X79100Y7995D01*
X78849Y7962D01*
X78615Y7865D01*
X78414Y7711D01*
X78260Y7510D01*
X78163Y7276D01*
X78130Y7025D01*
X78163Y6774D01*
X78260Y6540D01*
X78414Y6339D01*
X78615Y6185D01*
X78849Y6088D01*
Y5962D01*
X78615Y5865D01*
X78414Y5711D01*
X78260Y5510D01*
X78163Y5276D01*
X78130Y5025D01*
X78163Y4774D01*
X78260Y4540D01*
X78414Y4339D01*
X78615Y4185D01*
X78849Y4088D01*
X79100Y4055D01*
X79351Y4088D01*
X79585Y4185D01*
X79786Y4339D01*
X79940Y4540D01*
X80037Y4774D01*
X80163D01*
X80260Y4540D01*
X80414Y4339D01*
X80615Y4185D01*
X80849Y4088D01*
X81100Y4055D01*
X81351Y4088D01*
X81585Y4185D01*
X81786Y4339D01*
X81940Y4540D01*
X81989Y4656D01*
X82116Y4631D01*
Y2535D01*
X81940Y2359D01*
X72275D01*
X71988Y2322D01*
X71836Y2259D01*
X57407D01*
Y2648D01*
X57531Y2744D01*
X57598Y2831D01*
X57608Y2836D01*
X57742D01*
X57752Y2831D01*
X57819Y2744D01*
X57960Y2635D01*
X58124Y2567D01*
X58300Y2544D01*
X58476Y2567D01*
X58640Y2635D01*
X58781Y2744D01*
X58848Y2831D01*
X58858Y2836D01*
X58992D01*
X59002Y2831D01*
X59069Y2744D01*
X59210Y2635D01*
X59374Y2567D01*
X59550Y2544D01*
X59726Y2567D01*
X59890Y2635D01*
X60031Y2744D01*
X60140Y2885D01*
X60208Y3049D01*
X60223Y3168D01*
X67750D01*
X67887Y3195D01*
X68002Y3273D01*
X71877Y7148D01*
X71955Y7263D01*
X71982Y7400D01*
Y11207D01*
X71955Y11344D01*
X71877Y11459D01*
X69761Y13576D01*
X69810Y13693D01*
X84232D01*
X84314Y13586D01*
X84450Y13482D01*
X84608Y13417D01*
X84778Y13394D01*
X84947Y13417D01*
X85105Y13482D01*
X85241Y13586D01*
X85345Y13722D01*
X85411Y13880D01*
X85433Y14050D01*
X85411Y14220D01*
X85345Y14378D01*
X85241Y14514D01*
X85105Y14618D01*
X84947Y14683D01*
X84778Y14706D01*
X84608Y14683D01*
X84450Y14618D01*
X84314Y14514D01*
X84232Y14407D01*
X69698D01*
X69602Y14502D01*
X69545Y14541D01*
X69487Y14580D01*
X69487Y14580D01*
X69487Y14580D01*
X69418Y14593D01*
X69350Y14607D01*
X68733D01*
X68629Y14734D01*
X68632Y14750D01*
X68629Y14766D01*
X68733Y14893D01*
X69616D01*
X69712Y14798D01*
X69828Y14720D01*
X69964Y14693D01*
X74875D01*
X75012Y14720D01*
X75127Y14798D01*
X77798Y17468D01*
X77925Y17416D01*
Y17275D01*
X79025D01*
Y18575D01*
X79125Y18600D01*
Y19700D01*
X77825D01*
Y18600D01*
X77925Y18575D01*
Y18232D01*
X77700D01*
X77563Y18205D01*
X77448Y18127D01*
X74727Y15407D01*
X71618D01*
X71610Y15534D01*
X71670Y15542D01*
X71828Y15607D01*
X71964Y15711D01*
X72068Y15847D01*
X72133Y16005D01*
X72156Y16175D01*
X72137Y16316D01*
X72191Y16390D01*
X72237Y16426D01*
X72275Y16418D01*
X72780D01*
X72861Y16311D01*
X72997Y16207D01*
X73155Y16142D01*
X73325Y16119D01*
X73495Y16142D01*
X73653Y16207D01*
X73789Y16311D01*
X73893Y16447D01*
X73958Y16605D01*
X73981Y16775D01*
X73958Y16945D01*
X73893Y17103D01*
X73789Y17239D01*
X73653Y17343D01*
X73495Y17408D01*
X73325Y17431D01*
X73155Y17408D01*
X72997Y17343D01*
X72861Y17239D01*
X72780Y17132D01*
X72423D01*
X72052Y17502D01*
X71937Y17580D01*
X71800Y17607D01*
X71502D01*
X71454Y17724D01*
X72305Y18575D01*
X72675D01*
Y19875D01*
X72675Y19875D01*
X72675D01*
X72748Y19968D01*
X78773Y25993D01*
X81955D01*
X82036Y25886D01*
X82172Y25782D01*
X82330Y25717D01*
X82500Y25694D01*
X82670Y25717D01*
X82828Y25782D01*
X82964Y25886D01*
X83068Y26022D01*
X83133Y26180D01*
X83156Y26350D01*
X83133Y26520D01*
X83068Y26678D01*
X82964Y26814D01*
X82828Y26918D01*
X82670Y26983D01*
X82615Y26990D01*
X82582Y27068D01*
X82573Y27124D01*
X82668Y27247D01*
X82733Y27405D01*
X82756Y27575D01*
X82733Y27745D01*
X82668Y27903D01*
X82564Y28039D01*
X82428Y28143D01*
X82270Y28208D01*
X82100Y28231D01*
X81930Y28208D01*
X81772Y28143D01*
X81636Y28039D01*
X81555Y27932D01*
X78700D01*
X78563Y27905D01*
X78448Y27827D01*
X70620Y20000D01*
X69875D01*
Y18730D01*
X69752Y18607D01*
X66475D01*
X66338Y18580D01*
X66223Y18502D01*
X66145Y18387D01*
X66118Y18250D01*
X66145Y18113D01*
X66221Y18000D01*
X66145Y17887D01*
X66118Y17750D01*
X66145Y17613D01*
X66221Y17500D01*
X66145Y17387D01*
X66118Y17250D01*
X66145Y17113D01*
X66221Y17000D01*
X66145Y16887D01*
X66118Y16750D01*
X66145Y16613D01*
X66221Y16500D01*
X66145Y16387D01*
X66118Y16250D01*
X66145Y16113D01*
X66221Y16000D01*
X66145Y15887D01*
X66118Y15750D01*
X66145Y15613D01*
X66221Y15500D01*
X66145Y15387D01*
X66118Y15250D01*
X66145Y15113D01*
X66221Y15000D01*
X66145Y14887D01*
X66118Y14750D01*
X66145Y14613D01*
X66221Y14500D01*
X66145Y14387D01*
X66118Y14250D01*
X66145Y14113D01*
X66221Y14000D01*
X66145Y13887D01*
X66118Y13750D01*
X66145Y13613D01*
X66221Y13500D01*
X66145Y13387D01*
X66118Y13250D01*
X66145Y13113D01*
X66221Y13000D01*
X66145Y12887D01*
X66118Y12750D01*
X66145Y12613D01*
X66221Y12500D01*
X66145Y12387D01*
X66118Y12250D01*
X66145Y12113D01*
X66221Y12000D01*
X66145Y11887D01*
X66118Y11750D01*
X66145Y11613D01*
X66223Y11498D01*
X66338Y11420D01*
X66475Y11393D01*
X68552D01*
X69290Y10656D01*
X69281Y10529D01*
X69261Y10514D01*
X69157Y10378D01*
X69092Y10220D01*
X69069Y10050D01*
X69092Y9880D01*
X69157Y9722D01*
X69261Y9586D01*
X69397Y9482D01*
X69555Y9417D01*
X69725Y9394D01*
X69895Y9417D01*
X70053Y9482D01*
X70189Y9586D01*
X70293Y9722D01*
X70358Y9880D01*
X70381Y10050D01*
X70358Y10220D01*
X70293Y10378D01*
X70189Y10514D01*
X70082Y10595D01*
Y10725D01*
X70055Y10862D01*
X69977Y10977D01*
X68952Y12002D01*
X68837Y12080D01*
X68700Y12107D01*
X68629Y12234D01*
X68632Y12250D01*
X68605Y12387D01*
X68529Y12500D01*
X68605Y12613D01*
X68632Y12750D01*
X68748Y12798D01*
X68818Y12803D01*
X70768Y10852D01*
Y8598D01*
X66877Y4707D01*
X59025D01*
X58888Y4680D01*
X58888Y4680D01*
X58888Y4680D01*
X58830Y4641D01*
X58773Y4602D01*
X58773Y4602D01*
X58773Y4602D01*
X58148Y3977D01*
X58148Y3977D01*
X58048Y3877D01*
X58048Y3877D01*
X58048Y3877D01*
X58023Y3841D01*
X57960Y3815D01*
X57819Y3706D01*
X57752Y3619D01*
X57742Y3614D01*
X57608D01*
X57598Y3619D01*
X57531Y3706D01*
X57390Y3815D01*
X57226Y3883D01*
X57050Y3906D01*
X56874Y3883D01*
X56710Y3815D01*
X56569Y3706D01*
X56502Y3619D01*
X56492Y3614D01*
X56358D01*
X56348Y3619D01*
X56281Y3706D01*
X56140Y3815D01*
X55976Y3883D01*
X55800Y3906D01*
X55624Y3883D01*
X55460Y3815D01*
X55319Y3706D01*
X55252Y3619D01*
X55242Y3614D01*
X55108D01*
X55098Y3619D01*
X55031Y3706D01*
X54890Y3815D01*
X54726Y3883D01*
X54550Y3906D01*
X54374Y3883D01*
X54210Y3815D01*
X54069Y3706D01*
X53960Y3565D01*
X53892Y3401D01*
X53869Y3225D01*
X53892Y3049D01*
X53960Y2885D01*
X54069Y2744D01*
X54210Y2635D01*
X54374Y2567D01*
X54550Y2544D01*
X54726Y2567D01*
X54890Y2635D01*
X55031Y2744D01*
X55098Y2831D01*
X55108Y2836D01*
X55242D01*
X55252Y2831D01*
X55319Y2744D01*
X55460Y2635D01*
X55624Y2567D01*
X55800Y2544D01*
X55976Y2567D01*
X56140Y2635D01*
X56281Y2744D01*
X56348Y2831D01*
X56358Y2836D01*
X56492D01*
X56502Y2831D01*
X56569Y2744D01*
X56693Y2648D01*
Y2259D01*
X46786D01*
X46738Y2376D01*
X47952Y3591D01*
X48030Y3706D01*
X48057Y3843D01*
Y5052D01*
X48673Y5668D01*
X53098D01*
X53146Y5551D01*
X51798Y4202D01*
X51720Y4087D01*
X51693Y3950D01*
Y3802D01*
X51569Y3706D01*
X51502Y3619D01*
X51492Y3614D01*
X51358D01*
X51348Y3619D01*
X51281Y3706D01*
X51140Y3815D01*
X50976Y3883D01*
X50800Y3906D01*
X50624Y3883D01*
X50460Y3815D01*
X50319Y3706D01*
X50210Y3565D01*
X50142Y3401D01*
X50119Y3225D01*
X50142Y3049D01*
X50210Y2885D01*
X50319Y2744D01*
X50460Y2635D01*
X50624Y2567D01*
X50800Y2544D01*
X50976Y2567D01*
X51140Y2635D01*
X51281Y2744D01*
X51348Y2831D01*
X51358Y2836D01*
X51492D01*
X51502Y2831D01*
X51569Y2744D01*
X51710Y2635D01*
X51874Y2567D01*
X52050Y2544D01*
X52226Y2567D01*
X52390Y2635D01*
X52531Y2744D01*
X52640Y2885D01*
X52708Y3049D01*
X52731Y3225D01*
X52708Y3401D01*
X52640Y3565D01*
X52531Y3706D01*
X52508Y3724D01*
X52497Y3893D01*
X53773Y5168D01*
X63400D01*
X63537Y5195D01*
X63652Y5273D01*
X65777Y7398D01*
X65855Y7513D01*
X65882Y7650D01*
Y8900D01*
Y9800D01*
X65855Y9937D01*
X65777Y10052D01*
X65662Y10130D01*
X65525Y10157D01*
X65388Y10130D01*
X65275Y10054D01*
X65162Y10130D01*
X65025Y10157D01*
X64888Y10130D01*
X64775Y10054D01*
X64662Y10130D01*
X64525Y10157D01*
X64388Y10130D01*
X64275Y10054D01*
X64162Y10130D01*
X64025Y10157D01*
X63888Y10130D01*
X63775Y10054D01*
X63662Y10130D01*
X63525Y10157D01*
X63388Y10130D01*
X63275Y10054D01*
X63162Y10130D01*
X63025Y10157D01*
X62888Y10130D01*
X62775Y10054D01*
X62662Y10130D01*
X62525Y10157D01*
X62388Y10130D01*
X62275Y10054D01*
X62162Y10130D01*
X62025Y10157D01*
X61888Y10130D01*
X61775Y10054D01*
X61662Y10130D01*
X61525Y10157D01*
X61388Y10130D01*
X61275Y10054D01*
X61162Y10130D01*
X61025Y10157D01*
X60888Y10130D01*
X60775Y10054D01*
X60662Y10130D01*
X60525Y10157D01*
X60388Y10130D01*
X60273Y10052D01*
X60195Y9937D01*
X60168Y9800D01*
Y8000D01*
X60195Y7863D01*
X60273Y7748D01*
X60388Y7670D01*
X60525Y7643D01*
X60662Y7670D01*
X60775Y7746D01*
X60888Y7670D01*
X61025Y7643D01*
X61162Y7670D01*
X61275Y7746D01*
X61388Y7670D01*
X61525Y7643D01*
X61662Y7670D01*
X61775Y7746D01*
X61888Y7670D01*
X62025Y7643D01*
X62162Y7670D01*
X62275Y7746D01*
X62388Y7670D01*
X62525Y7643D01*
X62662Y7670D01*
X62775Y7746D01*
X62888Y7670D01*
X63025Y7643D01*
X63162Y7670D01*
X63275Y7746D01*
X63388Y7670D01*
X63437Y7661D01*
X63479Y7523D01*
X62838Y6882D01*
X54059D01*
X53950Y6925D01*
Y7445D01*
X54755Y8250D01*
X55045D01*
X55548Y7748D01*
X55591Y7719D01*
X55663Y7670D01*
X55800Y7643D01*
X57700D01*
X57837Y7670D01*
X57863Y7688D01*
X57888Y7670D01*
X58025Y7643D01*
X58162Y7670D01*
X58277Y7748D01*
X58355Y7863D01*
X58382Y8000D01*
Y9800D01*
Y10227D01*
X58596Y10441D01*
X65215D01*
X65349Y10351D01*
X65525Y10316D01*
X65701Y10351D01*
X65764Y10393D01*
X68275D01*
X68412Y10420D01*
X68527Y10498D01*
X68605Y10613D01*
X68632Y10750D01*
X68605Y10887D01*
X68527Y11002D01*
X68412Y11080D01*
X68275Y11107D01*
X65984D01*
Y18125D01*
X65949Y18301D01*
X65882Y18401D01*
Y20100D01*
Y21375D01*
X66625D01*
Y22675D01*
X65425D01*
Y22080D01*
X65273Y21927D01*
X65242Y21881D01*
X65195Y21812D01*
X65195Y21812D01*
X65195Y21812D01*
X65168Y21675D01*
Y21000D01*
Y20100D01*
Y19200D01*
Y18584D01*
X59382D01*
Y18742D01*
X59509Y18846D01*
X59525Y18843D01*
X59662Y18870D01*
X59775Y18946D01*
X59888Y18870D01*
X60025Y18843D01*
X60162Y18870D01*
X60275Y18946D01*
X60388Y18870D01*
X60525Y18843D01*
X60662Y18870D01*
X60775Y18946D01*
X60888Y18870D01*
X61025Y18843D01*
X61162Y18870D01*
X61275Y18946D01*
X61388Y18870D01*
X61525Y18843D01*
X61662Y18870D01*
X61775Y18946D01*
X61888Y18870D01*
X62025Y18843D01*
X62162Y18870D01*
X62275Y18946D01*
X62388Y18870D01*
X62525Y18843D01*
X62662Y18870D01*
X62775Y18946D01*
X62888Y18870D01*
X63025Y18843D01*
X63162Y18870D01*
X63275Y18946D01*
X63388Y18870D01*
X63525Y18843D01*
X63662Y18870D01*
X63775Y18946D01*
X63888Y18870D01*
X64025Y18843D01*
X64162Y18870D01*
X64275Y18946D01*
X64388Y18870D01*
X64525Y18843D01*
X64662Y18870D01*
X64777Y18948D01*
X64855Y19063D01*
X64882Y19200D01*
Y21000D01*
Y21592D01*
X64892Y21643D01*
Y23313D01*
X65042Y23462D01*
X65175Y23444D01*
X65345Y23467D01*
X65503Y23532D01*
X65639Y23636D01*
X65743Y23772D01*
X65808Y23930D01*
X65831Y24100D01*
X65808Y24270D01*
X65743Y24428D01*
X65639Y24564D01*
X65503Y24668D01*
X65356Y24728D01*
X65314Y24818D01*
X65302Y24854D01*
X66130Y25681D01*
X66159Y25669D01*
X66329Y25646D01*
X66499Y25669D01*
X66657Y25734D01*
X66793Y25839D01*
X66897Y25974D01*
X66962Y26132D01*
X66985Y26302D01*
X66962Y26472D01*
X66897Y26630D01*
X66793Y26766D01*
X66657Y26870D01*
X66499Y26935D01*
X66491Y26936D01*
X66450Y27057D01*
X66841Y27448D01*
X66918Y27563D01*
X66945Y27700D01*
Y29683D01*
X66918Y29819D01*
X66841Y29935D01*
X65870Y30906D01*
X65878Y31031D01*
X65982Y31167D01*
X66048Y31325D01*
X66070Y31495D01*
X66048Y31665D01*
X65982Y31823D01*
X65878Y31958D01*
X65742Y32063D01*
X65584Y32128D01*
X65414Y32150D01*
X65245Y32128D01*
X65086Y32063D01*
X64951Y31958D01*
X64846Y31823D01*
X64781Y31665D01*
X64759Y31495D01*
X64781Y31325D01*
X64846Y31167D01*
X64951Y31031D01*
X65057Y30949D01*
Y30857D01*
X65085Y30720D01*
X65162Y30604D01*
X66232Y29535D01*
Y27848D01*
X63499Y25115D01*
X63382Y25164D01*
Y25425D01*
X63355Y25562D01*
X63277Y25677D01*
X62182Y26773D01*
Y28139D01*
X63277Y29234D01*
X63355Y29350D01*
X63382Y29486D01*
Y31252D01*
X67402Y35273D01*
X67480Y35388D01*
X67507Y35525D01*
Y45852D01*
X74617Y52962D01*
X74750Y52944D01*
X74920Y52967D01*
X75078Y53032D01*
X75214Y53136D01*
X75318Y53272D01*
X75383Y53430D01*
X75406Y53600D01*
X75383Y53770D01*
X75318Y53928D01*
X75214Y54064D01*
X75181Y54089D01*
X75224Y54216D01*
X80475D01*
X80475Y54215D01*
D02*
G37*
G36*
X4186Y66561D02*
X4293Y66479D01*
Y65525D01*
X4320Y65388D01*
X4398Y65273D01*
X25143Y44527D01*
Y43995D01*
X25016Y43957D01*
X25002Y43977D01*
X4057Y64923D01*
Y66522D01*
X4184Y66565D01*
X4186Y66561D01*
D02*
G37*
G36*
X54411Y31011D02*
X54447Y30984D01*
X54404Y30857D01*
X47448D01*
X47339Y30966D01*
X47339Y30973D01*
X47396Y31088D01*
X54352D01*
X54411Y31011D01*
D02*
G37*
G36*
X81636Y27111D02*
X81772Y27007D01*
X81930Y26942D01*
X81985Y26934D01*
X82018Y26857D01*
X82026Y26804D01*
X81947Y26707D01*
X78625D01*
X78488Y26680D01*
X78409Y26779D01*
X78848Y27218D01*
X81555D01*
X81636Y27111D01*
D02*
G37*
G36*
X42975Y24300D02*
Y23000D01*
X44075D01*
Y23243D01*
X44855D01*
X44936Y23136D01*
X45072Y23032D01*
X45230Y22967D01*
X45400Y22944D01*
X45570Y22967D01*
X45728Y23032D01*
X45864Y23136D01*
X45968Y23272D01*
X46033Y23430D01*
X46039Y23476D01*
X46173Y23522D01*
X48265Y21431D01*
X48223Y21293D01*
X48193Y21287D01*
X46952Y22527D01*
X46837Y22605D01*
X46700Y22632D01*
X42098D01*
X41847Y22883D01*
X41896Y23000D01*
X42575D01*
Y24300D01*
X42674Y24368D01*
X42876D01*
X42975Y24300D01*
D02*
G37*
G36*
X53100Y19145D02*
Y18375D01*
X53293D01*
Y18350D01*
X53320Y18213D01*
X53398Y18098D01*
X53998Y17498D01*
X54113Y17420D01*
X54250Y17393D01*
X54817D01*
X54921Y17266D01*
X54918Y17250D01*
X54945Y17113D01*
X55021Y17000D01*
X54945Y16887D01*
X54918Y16750D01*
X54945Y16613D01*
X55023Y16498D01*
X55138Y16420D01*
X55275Y16393D01*
X57282D01*
X57419Y16420D01*
X57534Y16498D01*
X57827Y16791D01*
X57842Y16812D01*
X58696Y17666D01*
X65066D01*
Y11359D01*
X58550D01*
X58374Y11324D01*
X58226Y11224D01*
X58126Y11076D01*
X58103Y10957D01*
X57773Y10627D01*
X57695Y10512D01*
X57668Y10375D01*
Y9800D01*
Y8473D01*
X57552Y8357D01*
X55948D01*
X55500Y8805D01*
Y9550D01*
X54300D01*
Y8805D01*
X53720Y8225D01*
X52850D01*
Y6925D01*
X52741Y6882D01*
X52559D01*
X52450Y6925D01*
Y8225D01*
X51350D01*
Y6925D01*
X51241Y6882D01*
X48225D01*
X48088Y6855D01*
X47973Y6777D01*
X46948Y5752D01*
X46870Y5637D01*
X46843Y5500D01*
Y4198D01*
X46127Y3482D01*
X45117D01*
X45074Y3609D01*
X45211Y3714D01*
X45365Y3915D01*
X45462Y4149D01*
X45495Y4400D01*
X45462Y4651D01*
X45365Y4885D01*
X45211Y5086D01*
X45010Y5240D01*
X44776Y5337D01*
Y5463D01*
X45010Y5560D01*
X45211Y5714D01*
X45365Y5915D01*
X45462Y6149D01*
X45495Y6400D01*
X45462Y6651D01*
X45365Y6885D01*
X45211Y7086D01*
X45010Y7240D01*
X44776Y7337D01*
X44525Y7370D01*
X44274Y7337D01*
X44040Y7240D01*
X43839Y7086D01*
X43685Y6885D01*
X43588Y6651D01*
X43555Y6400D01*
X43588Y6149D01*
X43685Y5915D01*
X43839Y5714D01*
X44040Y5560D01*
X44274Y5463D01*
Y5337D01*
X44040Y5240D01*
X43839Y5086D01*
X43685Y4885D01*
X43588Y4651D01*
X43555Y4400D01*
X43588Y4149D01*
X43685Y3915D01*
X43839Y3714D01*
X43976Y3609D01*
X43933Y3482D01*
X37117D01*
X37074Y3609D01*
X37211Y3714D01*
X37365Y3915D01*
X37462Y4149D01*
X37495Y4400D01*
X37483Y4492D01*
Y6308D01*
X37495Y6400D01*
X37483Y6492D01*
Y9892D01*
X44114D01*
X44277Y9824D01*
X44525Y9792D01*
X44773Y9825D01*
X45004Y9920D01*
X45203Y10073D01*
X45355Y10271D01*
X45451Y10502D01*
X45483Y10750D01*
X45450Y10998D01*
X45355Y11229D01*
X45202Y11428D01*
X45164Y11466D01*
X45217Y11593D01*
X46624D01*
X46632Y11572D01*
X46736Y11436D01*
X46872Y11332D01*
X47030Y11267D01*
X47200Y11244D01*
X47370Y11267D01*
X47528Y11332D01*
X47664Y11436D01*
X47789Y11414D01*
X47850Y11356D01*
Y10775D01*
X49150D01*
Y11716D01*
X49277Y11768D01*
X49548Y11498D01*
X49663Y11420D01*
X49800Y11393D01*
X51548D01*
X51596Y11276D01*
X50502Y10182D01*
X49150D01*
Y10375D01*
X47850D01*
Y9275D01*
X49150D01*
Y9468D01*
X50650D01*
X50787Y9495D01*
X50902Y9573D01*
X52223Y10893D01*
X54817D01*
X54921Y10766D01*
X54918Y10750D01*
X54945Y10613D01*
X55023Y10498D01*
X55138Y10420D01*
X55275Y10393D01*
X57075D01*
X57212Y10420D01*
X57327Y10498D01*
X57405Y10613D01*
X57432Y10750D01*
X57405Y10887D01*
X57329Y11000D01*
X57405Y11113D01*
X57432Y11250D01*
X57405Y11387D01*
X57329Y11500D01*
X57405Y11613D01*
X57432Y11750D01*
X57405Y11887D01*
X57329Y12000D01*
X57405Y12113D01*
X57432Y12250D01*
X57405Y12387D01*
X57329Y12500D01*
X57405Y12613D01*
X57432Y12750D01*
X57405Y12887D01*
X57329Y13000D01*
X57405Y13113D01*
X57432Y13250D01*
X57405Y13387D01*
X57329Y13500D01*
X57405Y13613D01*
X57432Y13750D01*
X57405Y13887D01*
X57329Y14000D01*
X57405Y14113D01*
X57432Y14250D01*
X57405Y14387D01*
X57329Y14500D01*
X57405Y14613D01*
X57432Y14750D01*
X57405Y14887D01*
X57329Y15000D01*
X57405Y15113D01*
X57432Y15250D01*
X57405Y15387D01*
X57329Y15500D01*
X57405Y15613D01*
X57432Y15750D01*
X57405Y15887D01*
X57327Y16002D01*
X57212Y16080D01*
X57075Y16107D01*
X54080D01*
X49586Y20601D01*
X49597Y20726D01*
X49709Y20781D01*
X49772Y20732D01*
X49930Y20667D01*
X50100Y20644D01*
X50270Y20667D01*
X50428Y20732D01*
X50564Y20836D01*
X50668Y20972D01*
X50733Y21130D01*
X50756Y21300D01*
X50754Y21312D01*
X50874Y21371D01*
X53100Y19145D01*
D02*
G37*
G36*
X41098Y21123D02*
X41213Y21045D01*
X41350Y21018D01*
X44152D01*
X44425Y20745D01*
Y19800D01*
X45370D01*
X45898Y19273D01*
X46013Y19195D01*
X46150Y19168D01*
X48552D01*
X50726Y16995D01*
X50655Y16886D01*
X50550Y16907D01*
X49300D01*
Y17300D01*
X48000D01*
Y16907D01*
X47651D01*
X45656Y18902D01*
X45540Y18980D01*
X45403Y19007D01*
X42173D01*
X35177Y26002D01*
X35062Y26080D01*
X34925Y26107D01*
X15257D01*
X15229Y26227D01*
X15230Y26234D01*
X15364Y26336D01*
X15446Y26443D01*
X35777D01*
X41098Y21123D01*
D02*
G37*
G36*
X40910Y16435D02*
X40858Y16308D01*
X40197D01*
X35140Y21366D01*
X35123Y21404D01*
X34963Y21613D01*
X34754Y21774D01*
X34511Y21874D01*
X34540Y21993D01*
X35352D01*
X40910Y16435D01*
D02*
G37*
G36*
X13052Y18324D02*
X13300Y18292D01*
X14867D01*
Y16459D01*
X13300D01*
X13039Y16424D01*
X12796Y16324D01*
X12587Y16163D01*
X12524Y16101D01*
X12407Y16149D01*
Y16850D01*
X14225D01*
Y17850D01*
X13305D01*
X12908Y18247D01*
X12980Y18354D01*
X13052Y18324D01*
D02*
G37*
G36*
X47251Y16298D02*
X47367Y16220D01*
X47503Y16193D01*
X48000D01*
Y16100D01*
X49300D01*
Y16193D01*
X50402D01*
X51564Y15031D01*
X51524Y14911D01*
X51505Y14908D01*
X51347Y14843D01*
X51211Y14739D01*
X51107Y14603D01*
X51042Y14445D01*
X51019Y14275D01*
X51042Y14105D01*
X51107Y13947D01*
X51211Y13811D01*
X51347Y13707D01*
X51505Y13642D01*
X51675Y13619D01*
X51808Y13637D01*
X51948Y13498D01*
X52063Y13420D01*
X52200Y13393D01*
X54817D01*
X54921Y13266D01*
X54918Y13250D01*
X54921Y13234D01*
X54817Y13107D01*
X50362D01*
X47667Y15802D01*
X47551Y15880D01*
X47414Y15907D01*
X47237D01*
X45242Y17902D01*
X45126Y17980D01*
X44989Y18007D01*
X42298D01*
X42139Y18166D01*
X42191Y18293D01*
X45256D01*
X47251Y16298D01*
D02*
G37*
G36*
X39122Y14672D02*
X39321Y14520D01*
X39552Y14424D01*
X39800Y14392D01*
X40717D01*
Y13200D01*
X40749Y12952D01*
X40845Y12721D01*
X40997Y12522D01*
X41113Y12434D01*
X41070Y12307D01*
X40275D01*
Y14125D01*
X39275D01*
Y12275D01*
X39294D01*
X39418Y12250D01*
X39434Y12172D01*
X39445Y12113D01*
X39445Y12113D01*
X39445Y12113D01*
X39488Y12049D01*
X39523Y11998D01*
X39523Y11998D01*
X39523Y11998D01*
X39595Y11926D01*
X39546Y11808D01*
X36525D01*
X36277Y11776D01*
X36046Y11680D01*
X36007Y11650D01*
X35800D01*
Y11466D01*
X35695Y11329D01*
X35599Y11098D01*
X35567Y10850D01*
Y6492D01*
X35555Y6400D01*
X35567Y6308D01*
Y4492D01*
X35555Y4400D01*
X35588Y4149D01*
X35685Y3915D01*
X35839Y3714D01*
X35976Y3609D01*
X35933Y3482D01*
X29532D01*
X29507Y3609D01*
X29610Y3652D01*
X29811Y3806D01*
X29965Y4007D01*
X30062Y4241D01*
X30095Y4492D01*
X30062Y4743D01*
X29965Y4977D01*
X29811Y5178D01*
X29610Y5332D01*
X29376Y5429D01*
Y5555D01*
X29610Y5652D01*
X29811Y5806D01*
X29965Y6007D01*
X30062Y6241D01*
X30095Y6492D01*
X30062Y6743D01*
X29965Y6977D01*
X29811Y7178D01*
X29610Y7332D01*
X29376Y7429D01*
X29125Y7462D01*
X28874Y7429D01*
X28640Y7332D01*
X28439Y7178D01*
X28285Y6977D01*
X28261Y6919D01*
X28134Y6944D01*
Y6984D01*
X28099Y7245D01*
X27998Y7488D01*
X27838Y7697D01*
X26934Y8602D01*
Y10241D01*
X29550D01*
X29811Y10276D01*
X30054Y10376D01*
X30150Y10450D01*
X30175D01*
Y10469D01*
X30263Y10537D01*
X30388Y10662D01*
X30548Y10871D01*
X30649Y11114D01*
X30684Y11375D01*
X30649Y11636D01*
X30548Y11879D01*
X30388Y12088D01*
X30179Y12248D01*
X30175Y12250D01*
Y12300D01*
X30055D01*
X29936Y12349D01*
X29675Y12384D01*
X29414Y12349D01*
X29295Y12300D01*
X29175D01*
Y12259D01*
X28929D01*
X28881Y12376D01*
X28977Y12473D01*
X29016Y12530D01*
X29055Y12588D01*
X29055Y12588D01*
X29055Y12588D01*
X29068Y12657D01*
X29082Y12725D01*
Y12800D01*
X29225D01*
Y14650D01*
X28225D01*
Y12807D01*
X27709D01*
X27649Y12934D01*
X27773Y13096D01*
X27874Y13339D01*
X27909Y13600D01*
Y19811D01*
X27939Y19841D01*
X29350D01*
X29539Y19866D01*
X29663Y19768D01*
X29666Y19760D01*
Y13725D01*
X29701Y13464D01*
X29802Y13221D01*
X29962Y13012D01*
X30125Y12887D01*
Y12800D01*
X30295D01*
X30414Y12751D01*
X30675Y12716D01*
X30936Y12751D01*
X31055Y12800D01*
X31125D01*
Y12829D01*
X31179Y12852D01*
X31388Y13012D01*
X31548Y13221D01*
X31649Y13464D01*
X31684Y13725D01*
Y19891D01*
X33904D01*
X39122Y14672D01*
D02*
G37*
G36*
X46423Y14298D02*
X46538Y14220D01*
X46675Y14193D01*
X46852D01*
X49043Y12002D01*
X48991Y11875D01*
X48405D01*
X48077Y12202D01*
X48077Y12202D01*
X48077Y12202D01*
X48020Y12241D01*
X47962Y12280D01*
X47962Y12280D01*
X47962Y12280D01*
X47825Y12307D01*
X47707D01*
X47664Y12364D01*
X47528Y12468D01*
X47370Y12533D01*
X47200Y12556D01*
X47030Y12533D01*
X46872Y12468D01*
X46736Y12364D01*
X46693Y12307D01*
X45980D01*
X45937Y12434D01*
X46053Y12522D01*
X46205Y12721D01*
X46301Y12952D01*
X46333Y13200D01*
Y13975D01*
X46301Y14223D01*
X46288Y14252D01*
X46396Y14324D01*
X46423Y14298D01*
D02*
G37*
G36*
X71268Y7923D02*
Y7548D01*
X67602Y3882D01*
X67116D01*
X67104Y4009D01*
X67162Y4020D01*
X67277Y4098D01*
X71151Y7971D01*
X71268Y7923D01*
D02*
G37*
G36*
X24241Y6871D02*
X24188Y6743D01*
X24155Y6492D01*
X24188Y6241D01*
X24285Y6007D01*
X24439Y5806D01*
X24640Y5652D01*
X24874Y5555D01*
Y5429D01*
X24640Y5332D01*
X24439Y5178D01*
X24285Y4977D01*
X24188Y4743D01*
X24155Y4492D01*
X24188Y4241D01*
X24285Y4007D01*
X24439Y3806D01*
X24640Y3652D01*
X24874Y3555D01*
X25125Y3522D01*
X25376Y3555D01*
X25504Y3608D01*
X26153Y2959D01*
X26101Y2832D01*
X23248D01*
X21902Y4177D01*
Y6972D01*
X22648Y7718D01*
X23394D01*
X24241Y6871D01*
D02*
G37*
G36*
X88199Y7403D02*
X88613Y7304D01*
X89006Y7141D01*
X89369Y6919D01*
X89692Y6642D01*
X89969Y6319D01*
X90191Y5956D01*
X90354Y5563D01*
X90453Y5149D01*
X90486Y4725D01*
X90453Y4301D01*
X90354Y3887D01*
X90191Y3494D01*
X89969Y3131D01*
X89692Y2808D01*
X89369Y2531D01*
X89006Y2309D01*
X88613Y2146D01*
X88199Y2047D01*
X87775Y2014D01*
X87351Y2047D01*
X86937Y2146D01*
X86544Y2309D01*
X86181Y2531D01*
X85858Y2808D01*
X85581Y3131D01*
X85359Y3494D01*
X85196Y3887D01*
X85097Y4301D01*
X85064Y4725D01*
X85097Y5149D01*
X85196Y5563D01*
X85359Y5956D01*
X85581Y6319D01*
X85858Y6642D01*
X86181Y6919D01*
X86544Y7141D01*
X86937Y7304D01*
X87351Y7403D01*
X87775Y7436D01*
X88199Y7403D01*
D02*
G37*
%LPC*%
G36*
X17825Y88695D02*
X17574Y88662D01*
X17340Y88565D01*
X17139Y88411D01*
X16985Y88210D01*
X16888Y87976D01*
X16855Y87725D01*
X16888Y87474D01*
X16985Y87240D01*
X17139Y87039D01*
X17340Y86885D01*
X17574Y86788D01*
X17825Y86755D01*
X18076Y86788D01*
X18310Y86885D01*
X18511Y87039D01*
X18665Y87240D01*
X18762Y87474D01*
X18795Y87725D01*
X18762Y87976D01*
X18665Y88210D01*
X18511Y88411D01*
X18310Y88565D01*
X18076Y88662D01*
X17825Y88695D01*
D02*
G37*
G36*
X11025Y78610D02*
X10774Y78577D01*
X10540Y78480D01*
X10339Y78326D01*
X10185Y78125D01*
X10088Y77891D01*
X10055Y77640D01*
X10088Y77389D01*
X10185Y77155D01*
X10339Y76954D01*
X10540Y76800D01*
X10774Y76703D01*
X11025Y76670D01*
X11276Y76703D01*
X11510Y76800D01*
X11711Y76954D01*
X11865Y77155D01*
X11962Y77389D01*
X11995Y77640D01*
X11962Y77891D01*
X11865Y78125D01*
X11711Y78326D01*
X11510Y78480D01*
X11276Y78577D01*
X11025Y78610D01*
D02*
G37*
G36*
Y76070D02*
X10774Y76037D01*
X10540Y75940D01*
X10339Y75786D01*
X10185Y75585D01*
X10088Y75351D01*
X10055Y75100D01*
X10088Y74849D01*
X10185Y74615D01*
X10339Y74414D01*
X10540Y74260D01*
X10774Y74163D01*
X11025Y74130D01*
X11276Y74163D01*
X11510Y74260D01*
X11711Y74414D01*
X11865Y74615D01*
X11962Y74849D01*
X11995Y75100D01*
X11962Y75351D01*
X11865Y75585D01*
X11711Y75786D01*
X11510Y75940D01*
X11276Y76037D01*
X11025Y76070D01*
D02*
G37*
G36*
X43300Y86381D02*
X43130Y86358D01*
X42972Y86293D01*
X42836Y86189D01*
X42732Y86053D01*
X42667Y85895D01*
X42644Y85725D01*
X42667Y85555D01*
X42732Y85397D01*
X42836Y85261D01*
X42841Y85258D01*
Y74050D01*
X42876Y73874D01*
X42891Y73852D01*
X42854Y73731D01*
X42822Y73718D01*
X42686Y73614D01*
X42582Y73478D01*
X42517Y73320D01*
X42494Y73150D01*
X42517Y72980D01*
X42582Y72822D01*
X42686Y72686D01*
X42822Y72582D01*
X42980Y72517D01*
X43150Y72494D01*
X43320Y72517D01*
X43478Y72582D01*
X43614Y72686D01*
X43718Y72822D01*
X43783Y72980D01*
X43806Y73150D01*
X43805Y73156D01*
X43999Y73351D01*
X44099Y73499D01*
X44134Y73675D01*
X44099Y73851D01*
X43999Y73999D01*
X43759Y74240D01*
Y85258D01*
X43764Y85261D01*
X43868Y85397D01*
X43933Y85555D01*
X43956Y85725D01*
X43933Y85895D01*
X43868Y86053D01*
X43764Y86189D01*
X43628Y86293D01*
X43470Y86358D01*
X43300Y86381D01*
D02*
G37*
G36*
X38825Y57531D02*
X38655Y57508D01*
X38497Y57443D01*
X38361Y57339D01*
X38257Y57203D01*
X38192Y57045D01*
X38169Y56875D01*
X38192Y56705D01*
X38257Y56547D01*
X38361Y56411D01*
X38497Y56307D01*
X38655Y56242D01*
X38825Y56219D01*
X38958Y56237D01*
X40898Y54298D01*
X41013Y54220D01*
X41150Y54193D01*
X42155D01*
X42236Y54086D01*
X42372Y53982D01*
X42530Y53917D01*
X42700Y53894D01*
X42870Y53917D01*
X43028Y53982D01*
X43164Y54086D01*
X43268Y54222D01*
X43333Y54380D01*
X43356Y54550D01*
X43333Y54720D01*
X43268Y54878D01*
X43164Y55014D01*
X43028Y55118D01*
X42870Y55183D01*
X42700Y55206D01*
X42530Y55183D01*
X42372Y55118D01*
X42236Y55014D01*
X42155Y54907D01*
X41298D01*
X39463Y56742D01*
X39481Y56875D01*
X39458Y57045D01*
X39393Y57203D01*
X39289Y57339D01*
X39153Y57443D01*
X38995Y57508D01*
X38825Y57531D01*
D02*
G37*
G36*
X70475Y89249D02*
X70224Y89216D01*
X69990Y89119D01*
X69789Y88965D01*
X69635Y88764D01*
X69538Y88530D01*
X69412D01*
X69315Y88764D01*
X69161Y88965D01*
X68960Y89119D01*
X68726Y89216D01*
X68475Y89249D01*
X68224Y89216D01*
X67990Y89119D01*
X67789Y88965D01*
X67635Y88764D01*
X67538Y88530D01*
X67505Y88279D01*
X67538Y88028D01*
X67635Y87794D01*
X67789Y87593D01*
X67990Y87438D01*
X68224Y87342D01*
Y87216D01*
X67990Y87119D01*
X67789Y86965D01*
X67635Y86764D01*
X67538Y86530D01*
X67505Y86279D01*
X67538Y86028D01*
X67635Y85794D01*
X67789Y85593D01*
X67990Y85438D01*
X68224Y85342D01*
X68475Y85308D01*
X68726Y85342D01*
X68960Y85438D01*
X69161Y85593D01*
X69315Y85794D01*
X69412Y86028D01*
X69538D01*
X69635Y85794D01*
X69789Y85593D01*
X69990Y85438D01*
X70224Y85342D01*
X70475Y85308D01*
X70726Y85342D01*
X70960Y85438D01*
X71161Y85593D01*
X71315Y85794D01*
X71412Y86028D01*
X71445Y86279D01*
X71412Y86530D01*
X71315Y86764D01*
X71161Y86965D01*
X70960Y87119D01*
X70726Y87216D01*
Y87342D01*
X70960Y87438D01*
X71161Y87593D01*
X71315Y87794D01*
X71412Y88028D01*
X71445Y88279D01*
X71412Y88530D01*
X71315Y88764D01*
X71161Y88965D01*
X70960Y89119D01*
X70726Y89216D01*
X70475Y89249D01*
D02*
G37*
G36*
X87750Y91130D02*
X87221Y91089D01*
X86705Y90965D01*
X86215Y90762D01*
X85763Y90485D01*
X85360Y90140D01*
X85015Y89737D01*
X84738Y89285D01*
X84535Y88795D01*
X84411Y88279D01*
X84370Y87750D01*
X84411Y87221D01*
X84535Y86705D01*
X84738Y86215D01*
X85015Y85763D01*
X85360Y85360D01*
X85763Y85015D01*
X86215Y84738D01*
X86705Y84535D01*
X87221Y84411D01*
X87750Y84370D01*
X88279Y84411D01*
X88795Y84535D01*
X89285Y84738D01*
X89737Y85015D01*
X90140Y85360D01*
X90485Y85763D01*
X90762Y86215D01*
X90965Y86705D01*
X91089Y87221D01*
X91130Y87750D01*
X91089Y88279D01*
X90965Y88795D01*
X90762Y89285D01*
X90485Y89737D01*
X90140Y90140D01*
X89737Y90485D01*
X89285Y90762D01*
X88795Y90965D01*
X88279Y91089D01*
X87750Y91130D01*
D02*
G37*
G36*
X60325Y70081D02*
X60155Y70058D01*
X59997Y69993D01*
X59861Y69889D01*
X59757Y69753D01*
X59692Y69595D01*
X59669Y69425D01*
X59692Y69255D01*
X59757Y69097D01*
X59861Y68961D01*
X59997Y68857D01*
X60155Y68792D01*
X60325Y68769D01*
X60495Y68792D01*
X60653Y68857D01*
X60789Y68961D01*
X60792Y68966D01*
X67174D01*
X67192Y68830D01*
X67257Y68672D01*
X67361Y68536D01*
X67497Y68432D01*
X67655Y68367D01*
X67825Y68344D01*
X67995Y68367D01*
X68153Y68432D01*
X68289Y68536D01*
X68393Y68672D01*
X68458Y68830D01*
X68481Y69000D01*
X68458Y69170D01*
X68393Y69328D01*
X68289Y69464D01*
X68153Y69568D01*
X67995Y69633D01*
X67825Y69656D01*
X67819Y69655D01*
X67724Y69749D01*
X67724Y69749D01*
X67724Y69749D01*
X67659Y69793D01*
X67576Y69849D01*
X67576Y69849D01*
X67576Y69849D01*
X67496Y69865D01*
X67400Y69884D01*
X67400Y69884D01*
X67400Y69884D01*
X60792D01*
X60789Y69889D01*
X60653Y69993D01*
X60495Y70058D01*
X60325Y70081D01*
D02*
G37*
G36*
X72250Y61281D02*
X72080Y61258D01*
X71922Y61193D01*
X71786Y61089D01*
X71682Y60953D01*
X71617Y60795D01*
X71594Y60625D01*
X71617Y60455D01*
X71682Y60297D01*
X71786Y60161D01*
X71922Y60057D01*
X72080Y59992D01*
X72250Y59969D01*
X72256Y59970D01*
X73951Y58276D01*
X74099Y58176D01*
X74275Y58141D01*
X81825D01*
Y57950D01*
X82925D01*
Y59250D01*
X81825D01*
Y59059D01*
X74465D01*
X72905Y60619D01*
X72906Y60625D01*
X72883Y60795D01*
X72818Y60953D01*
X72714Y61089D01*
X72578Y61193D01*
X72420Y61258D01*
X72250Y61281D01*
D02*
G37*
G36*
X5700Y36245D02*
X5449Y36212D01*
X5215Y36115D01*
X5014Y35961D01*
X4860Y35760D01*
X4763Y35526D01*
X4637D01*
X4540Y35760D01*
X4386Y35961D01*
X4185Y36115D01*
X3951Y36212D01*
X3700Y36245D01*
X3449Y36212D01*
X3215Y36115D01*
X3014Y35961D01*
X2860Y35760D01*
X2763Y35526D01*
X2730Y35275D01*
X2763Y35024D01*
X2860Y34790D01*
X3014Y34589D01*
X3215Y34435D01*
X3449Y34338D01*
Y34212D01*
X3215Y34115D01*
X3014Y33961D01*
X2860Y33760D01*
X2763Y33526D01*
X2730Y33275D01*
X2763Y33024D01*
X2860Y32790D01*
X3014Y32589D01*
X3215Y32435D01*
X3449Y32338D01*
X3700Y32305D01*
X3951Y32338D01*
X4185Y32435D01*
X4386Y32589D01*
X4540Y32790D01*
X4637Y33024D01*
X4763D01*
X4860Y32790D01*
X5014Y32589D01*
X5215Y32435D01*
X5449Y32338D01*
X5700Y32305D01*
X5951Y32338D01*
X6185Y32435D01*
X6386Y32589D01*
X6540Y32790D01*
X6637Y33024D01*
X6670Y33275D01*
X6637Y33526D01*
X6540Y33760D01*
X6386Y33961D01*
X6185Y34115D01*
X5951Y34212D01*
Y34338D01*
X6185Y34435D01*
X6386Y34589D01*
X6540Y34790D01*
X6637Y35024D01*
X6670Y35275D01*
X6637Y35526D01*
X6540Y35760D01*
X6386Y35961D01*
X6185Y36115D01*
X5951Y36212D01*
X5700Y36245D01*
D02*
G37*
G36*
X9550Y22275D02*
X8250D01*
Y21175D01*
X8543D01*
Y19020D01*
X8436Y18939D01*
X8332Y18803D01*
X8267Y18645D01*
X8244Y18475D01*
X8267Y18305D01*
X8332Y18147D01*
X8436Y18011D01*
X8572Y17907D01*
X8730Y17842D01*
X8900Y17819D01*
X9070Y17842D01*
X9228Y17907D01*
X9364Y18011D01*
X9468Y18147D01*
X9533Y18305D01*
X9556Y18475D01*
X9533Y18645D01*
X9468Y18803D01*
X9364Y18939D01*
X9257Y19020D01*
Y21175D01*
X9550D01*
Y22275D01*
D02*
G37*
G36*
X18900Y22750D02*
X17800D01*
Y21450D01*
X17943D01*
Y18120D01*
X17836Y18039D01*
X17732Y17903D01*
X17667Y17745D01*
X17644Y17575D01*
X17667Y17405D01*
X17732Y17247D01*
X17836Y17111D01*
X17972Y17007D01*
X18130Y16942D01*
X18300Y16919D01*
X18470Y16942D01*
X18628Y17007D01*
X18764Y17111D01*
X18868Y17247D01*
X18933Y17405D01*
X18956Y17575D01*
X18933Y17745D01*
X18868Y17903D01*
X18764Y18039D01*
X18657Y18120D01*
Y21450D01*
X18900D01*
Y22750D01*
D02*
G37*
G36*
X4750Y8024D02*
X4230Y7983D01*
X3723Y7861D01*
X3241Y7662D01*
X2796Y7389D01*
X2400Y7050D01*
X2061Y6654D01*
X1788Y6209D01*
X1589Y5727D01*
X1467Y5220D01*
X1426Y4700D01*
X1467Y4180D01*
X1589Y3673D01*
X1788Y3191D01*
X2061Y2746D01*
X2400Y2350D01*
X2796Y2011D01*
X3241Y1738D01*
X3723Y1539D01*
X4230Y1417D01*
X4750Y1376D01*
X5270Y1417D01*
X5777Y1539D01*
X6259Y1738D01*
X6704Y2011D01*
X7100Y2350D01*
X7439Y2746D01*
X7712Y3191D01*
X7911Y3673D01*
X8033Y4180D01*
X8074Y4700D01*
X8033Y5220D01*
X7911Y5727D01*
X7712Y6209D01*
X7439Y6654D01*
X7100Y7050D01*
X6704Y7389D01*
X6259Y7662D01*
X5777Y7861D01*
X5270Y7983D01*
X4750Y8024D01*
D02*
G37*
%LPD*%
G36*
X88174Y90428D02*
X88588Y90329D01*
X88981Y90166D01*
X89344Y89944D01*
X89667Y89667D01*
X89944Y89344D01*
X90166Y88981D01*
X90329Y88588D01*
X90428Y88174D01*
X90461Y87750D01*
X90428Y87326D01*
X90329Y86912D01*
X90166Y86519D01*
X89944Y86156D01*
X89667Y85833D01*
X89344Y85556D01*
X88981Y85334D01*
X88588Y85171D01*
X88174Y85072D01*
X87750Y85039D01*
X87326Y85072D01*
X86912Y85171D01*
X86519Y85334D01*
X86156Y85556D01*
X85833Y85833D01*
X85556Y86156D01*
X85334Y86519D01*
X85171Y86912D01*
X85072Y87326D01*
X85039Y87750D01*
X85072Y88174D01*
X85171Y88588D01*
X85334Y88981D01*
X85556Y89344D01*
X85833Y89667D01*
X86156Y89944D01*
X86519Y90166D01*
X86912Y90329D01*
X87326Y90428D01*
X87750Y90461D01*
X88174Y90428D01*
D02*
G37*
%LPC*%
G36*
X87775Y89458D02*
X87442Y89425D01*
X87121Y89328D01*
X86826Y89170D01*
X86567Y88958D01*
X86355Y88699D01*
X86197Y88404D01*
X86100Y88083D01*
X86067Y87750D01*
X86100Y87417D01*
X86197Y87096D01*
X86355Y86801D01*
X86567Y86542D01*
X86826Y86330D01*
X87121Y86172D01*
X87442Y86075D01*
X87775Y86042D01*
X88108Y86075D01*
X88429Y86172D01*
X88724Y86330D01*
X88983Y86542D01*
X89195Y86801D01*
X89353Y87096D01*
X89450Y87417D01*
X89483Y87750D01*
X89450Y88083D01*
X89353Y88404D01*
X89195Y88699D01*
X88983Y88958D01*
X88724Y89170D01*
X88429Y89328D01*
X88108Y89425D01*
X87775Y89458D01*
D02*
G37*
%LPD*%
G36*
X5165Y7323D02*
X5571Y7225D01*
X5956Y7066D01*
X6311Y6848D01*
X6628Y6578D01*
X6898Y6261D01*
X7116Y5905D01*
X7275Y5521D01*
X7373Y5115D01*
X7405Y4700D01*
X7373Y4285D01*
X7275Y3879D01*
X7116Y3494D01*
X6898Y3139D01*
X6628Y2822D01*
X6311Y2552D01*
X5956Y2334D01*
X5571Y2175D01*
X5165Y2077D01*
X4750Y2045D01*
X4335Y2077D01*
X3929Y2175D01*
X3545Y2334D01*
X3189Y2552D01*
X2872Y2822D01*
X2602Y3139D01*
X2384Y3494D01*
X2225Y3879D01*
X2127Y4285D01*
X2095Y4700D01*
X2127Y5115D01*
X2225Y5521D01*
X2384Y5905D01*
X2602Y6261D01*
X2872Y6578D01*
X3189Y6848D01*
X3545Y7066D01*
X3929Y7225D01*
X4335Y7323D01*
X4750Y7355D01*
X5165Y7323D01*
D02*
G37*
%LPC*%
G36*
X4725Y6433D02*
X4392Y6400D01*
X4071Y6303D01*
X3776Y6145D01*
X3517Y5933D01*
X3305Y5674D01*
X3147Y5379D01*
X3050Y5058D01*
X3017Y4725D01*
X3050Y4392D01*
X3147Y4071D01*
X3305Y3776D01*
X3517Y3517D01*
X3776Y3305D01*
X4071Y3147D01*
X4392Y3050D01*
X4725Y3017D01*
X5058Y3050D01*
X5379Y3147D01*
X5674Y3305D01*
X5933Y3517D01*
X6145Y3776D01*
X6303Y4071D01*
X6400Y4392D01*
X6433Y4725D01*
X6400Y5058D01*
X6303Y5379D01*
X6145Y5674D01*
X5933Y5933D01*
X5674Y6145D01*
X5379Y6303D01*
X5058Y6400D01*
X4725Y6433D01*
D02*
G37*
G36*
X18425Y46956D02*
X18255Y46933D01*
X18097Y46868D01*
X17961Y46764D01*
X17857Y46628D01*
X17792Y46470D01*
X17769Y46300D01*
X17792Y46130D01*
X17857Y45972D01*
X17961Y45836D01*
X18068Y45755D01*
Y37048D01*
X14752Y33732D01*
X14075D01*
Y34025D01*
X12975D01*
Y32725D01*
X14075D01*
Y33018D01*
X14900D01*
X15037Y33045D01*
X15152Y33123D01*
X18677Y36648D01*
X18755Y36763D01*
X18782Y36900D01*
Y45755D01*
X18889Y45836D01*
X18993Y45972D01*
X19058Y46130D01*
X19081Y46300D01*
X19058Y46470D01*
X18993Y46628D01*
X18889Y46764D01*
X18753Y46868D01*
X18595Y46933D01*
X18425Y46956D01*
D02*
G37*
G36*
X12575Y34025D02*
X11475D01*
Y33732D01*
X11350D01*
X11213Y33705D01*
X11098Y33627D01*
X10260Y32789D01*
X10147Y32743D01*
X10011Y32639D01*
X9907Y32503D01*
X9842Y32345D01*
X9819Y32175D01*
X9842Y32005D01*
X9907Y31847D01*
X9999Y31727D01*
X9985Y31665D01*
X9948Y31600D01*
X9825D01*
Y30500D01*
X11125D01*
Y31600D01*
X11002D01*
X10965Y31665D01*
X10951Y31727D01*
X11043Y31847D01*
X11108Y32005D01*
X11131Y32175D01*
X11108Y32345D01*
X11043Y32503D01*
X11017Y32537D01*
X11358Y32878D01*
X11475Y32829D01*
Y32725D01*
X12575D01*
Y34025D01*
D02*
G37*
G36*
X54775Y56631D02*
X54605Y56608D01*
X54447Y56543D01*
X54311Y56439D01*
X54207Y56303D01*
X54142Y56145D01*
X54119Y55975D01*
X54142Y55805D01*
X54207Y55647D01*
X54311Y55511D01*
X54447Y55407D01*
X54605Y55342D01*
X54747Y55323D01*
X55898Y54173D01*
X56013Y54095D01*
X56150Y54068D01*
X60230D01*
X60311Y53961D01*
X60447Y53857D01*
X60605Y53792D01*
X60775Y53769D01*
X60945Y53792D01*
X61103Y53857D01*
X61239Y53961D01*
X61343Y54097D01*
X61408Y54255D01*
X61431Y54425D01*
X61408Y54595D01*
X61343Y54753D01*
X61239Y54889D01*
X61103Y54993D01*
X60945Y55058D01*
X60775Y55081D01*
X60605Y55058D01*
X60447Y54993D01*
X60311Y54889D01*
X60230Y54782D01*
X56298D01*
X55369Y55711D01*
X55408Y55805D01*
X55431Y55975D01*
X55408Y56145D01*
X55343Y56303D01*
X55239Y56439D01*
X55103Y56543D01*
X54945Y56608D01*
X54775Y56631D01*
D02*
G37*
G36*
X77600Y54006D02*
X77430Y53983D01*
X77272Y53918D01*
X77136Y53814D01*
X77055Y53707D01*
X76425D01*
X76288Y53680D01*
X76173Y53602D01*
X67898Y45327D01*
X67820Y45212D01*
X67793Y45075D01*
Y25250D01*
X67807Y25181D01*
X67792Y25145D01*
X67769Y24975D01*
X67792Y24805D01*
X67857Y24647D01*
X67961Y24511D01*
X68097Y24407D01*
X68255Y24342D01*
X68425Y24319D01*
X68595Y24342D01*
X68753Y24407D01*
X68889Y24511D01*
X68993Y24647D01*
X69058Y24805D01*
X69081Y24975D01*
X69058Y25145D01*
X68993Y25303D01*
X68889Y25439D01*
X68753Y25543D01*
X68595Y25608D01*
X68507Y25620D01*
Y44927D01*
X76573Y52993D01*
X77055D01*
X77136Y52886D01*
X77272Y52782D01*
X77430Y52717D01*
X77600Y52694D01*
X77770Y52717D01*
X77928Y52782D01*
X78064Y52886D01*
X78168Y53022D01*
X78233Y53180D01*
X78256Y53350D01*
X78233Y53520D01*
X78168Y53678D01*
X78064Y53814D01*
X77928Y53918D01*
X77770Y53983D01*
X77600Y54006D01*
D02*
G37*
G36*
X88325Y46920D02*
X88074Y46887D01*
X87840Y46790D01*
X87639Y46636D01*
X87485Y46435D01*
X87388Y46201D01*
X87262D01*
X87165Y46435D01*
X87011Y46636D01*
X86810Y46790D01*
X86576Y46887D01*
X86325Y46920D01*
X86074Y46887D01*
X85840Y46790D01*
X85639Y46636D01*
X85485Y46435D01*
X85388Y46201D01*
X85355Y45950D01*
X85388Y45699D01*
X85485Y45465D01*
X85639Y45264D01*
X85840Y45110D01*
X86074Y45013D01*
Y44887D01*
X85840Y44790D01*
X85639Y44636D01*
X85485Y44435D01*
X85388Y44201D01*
X85355Y43950D01*
X85388Y43699D01*
X85485Y43465D01*
X85639Y43264D01*
X85840Y43110D01*
X86074Y43013D01*
X86325Y42980D01*
X86576Y43013D01*
X86810Y43110D01*
X87011Y43264D01*
X87165Y43465D01*
X87262Y43699D01*
X87388D01*
X87485Y43465D01*
X87639Y43264D01*
X87840Y43110D01*
X88074Y43013D01*
X88325Y42980D01*
X88576Y43013D01*
X88810Y43110D01*
X89011Y43264D01*
X89165Y43465D01*
X89262Y43699D01*
X89295Y43950D01*
X89262Y44201D01*
X89165Y44435D01*
X89011Y44636D01*
X88810Y44790D01*
X88576Y44887D01*
Y45013D01*
X88810Y45110D01*
X89011Y45264D01*
X89165Y45465D01*
X89262Y45699D01*
X89295Y45950D01*
X89262Y46201D01*
X89165Y46435D01*
X89011Y46636D01*
X88810Y46790D01*
X88576Y46887D01*
X88325Y46920D01*
D02*
G37*
G36*
X81325Y51056D02*
X81155Y51033D01*
X80997Y50968D01*
X80861Y50864D01*
X80757Y50728D01*
X80692Y50570D01*
X80669Y50400D01*
X80692Y50230D01*
X80757Y50072D01*
X80861Y49936D01*
X80866Y49933D01*
Y49475D01*
X80901Y49299D01*
X81001Y49151D01*
X83241Y46910D01*
Y35975D01*
X83276Y35799D01*
X83376Y35651D01*
X84319Y34707D01*
Y34245D01*
X84314Y34241D01*
X84210Y34105D01*
X84144Y33947D01*
X84122Y33778D01*
X84144Y33608D01*
X84210Y33450D01*
X84314Y33314D01*
X84450Y33210D01*
X84608Y33144D01*
X84778Y33122D01*
X84947Y33144D01*
X85105Y33210D01*
X85241Y33314D01*
X85345Y33450D01*
X85411Y33608D01*
X85433Y33778D01*
X85411Y33947D01*
X85345Y34105D01*
X85241Y34241D01*
X85236Y34245D01*
Y34897D01*
X85201Y35073D01*
X85102Y35222D01*
X84159Y36165D01*
Y47100D01*
X84124Y47276D01*
X84024Y47424D01*
X81784Y49665D01*
Y49933D01*
X81789Y49936D01*
X81893Y50072D01*
X81958Y50230D01*
X81981Y50400D01*
X81958Y50570D01*
X81893Y50728D01*
X81789Y50864D01*
X81653Y50968D01*
X81495Y51033D01*
X81325Y51056D01*
D02*
G37*
G36*
X78875Y40481D02*
X78705Y40458D01*
X78547Y40393D01*
X78411Y40289D01*
X78307Y40153D01*
X78242Y39995D01*
X78219Y39825D01*
X78242Y39655D01*
X78307Y39497D01*
X78411Y39361D01*
X78547Y39257D01*
X78705Y39192D01*
X78875Y39169D01*
X78881Y39170D01*
X81091Y36960D01*
Y32075D01*
X81126Y31899D01*
X81226Y31751D01*
X83766Y29210D01*
Y28700D01*
X83575D01*
Y27600D01*
X84875D01*
Y28700D01*
X84684D01*
Y29400D01*
X84649Y29576D01*
X84549Y29724D01*
X82009Y32265D01*
Y37150D01*
X81974Y37326D01*
X81874Y37474D01*
X79530Y39819D01*
X79531Y39825D01*
X79508Y39995D01*
X79443Y40153D01*
X79339Y40289D01*
X79203Y40393D01*
X79045Y40458D01*
X78875Y40481D01*
D02*
G37*
G36*
X84875Y27200D02*
X83575D01*
Y26100D01*
X83868D01*
Y25850D01*
X83675D01*
Y25532D01*
X79970D01*
X79834Y25505D01*
X79718Y25427D01*
X75495Y21205D01*
X75418Y21089D01*
X75391Y20952D01*
X75418Y20816D01*
X75495Y20700D01*
X76421Y19775D01*
X76367Y19645D01*
X76344Y19475D01*
X76367Y19305D01*
X76432Y19147D01*
X76536Y19011D01*
X76672Y18907D01*
X76830Y18842D01*
X77000Y18819D01*
X77170Y18842D01*
X77328Y18907D01*
X77464Y19011D01*
X77568Y19147D01*
X77633Y19305D01*
X77656Y19475D01*
X77633Y19645D01*
X77568Y19803D01*
X77464Y19939D01*
X77328Y20043D01*
X77170Y20108D01*
X77085Y20119D01*
X76252Y20952D01*
X80118Y24818D01*
X83675D01*
Y24550D01*
X84775D01*
Y25850D01*
X84582D01*
Y26100D01*
X84875D01*
Y27200D01*
D02*
G37*
G36*
X82675Y22325D02*
X80825D01*
Y22182D01*
X80700D01*
X80638Y22170D01*
X80563Y22155D01*
X80563Y22155D01*
X80448Y22077D01*
X79723Y21352D01*
X79723Y21352D01*
X79645Y21237D01*
X79645Y21237D01*
X79645Y21237D01*
X79618Y21100D01*
Y18575D01*
X79425D01*
Y17275D01*
X80525D01*
Y17568D01*
X80825D01*
Y17400D01*
X82675D01*
Y18400D01*
X80825D01*
Y18282D01*
X80525D01*
Y18575D01*
X80332D01*
Y20952D01*
X80740Y21360D01*
X80825Y21325D01*
Y21325D01*
X82675D01*
Y22325D01*
D02*
G37*
G36*
X59525Y10157D02*
X59388Y10130D01*
X59275Y10054D01*
X59162Y10130D01*
X59025Y10157D01*
X58888Y10130D01*
X58773Y10052D01*
X58695Y9937D01*
X58668Y9800D01*
Y8000D01*
X58695Y7863D01*
X58773Y7748D01*
X58888Y7670D01*
X59025Y7643D01*
X59162Y7670D01*
X59275Y7746D01*
X59388Y7670D01*
X59525Y7643D01*
X59662Y7670D01*
X59777Y7748D01*
X59855Y7863D01*
X59882Y8000D01*
Y9800D01*
X59855Y9937D01*
X59777Y10052D01*
X59662Y10130D01*
X59525Y10157D01*
D02*
G37*
G36*
X87775Y6433D02*
X87442Y6400D01*
X87121Y6303D01*
X86826Y6145D01*
X86567Y5933D01*
X86355Y5674D01*
X86197Y5379D01*
X86100Y5058D01*
X86067Y4725D01*
X86100Y4392D01*
X86197Y4071D01*
X86355Y3776D01*
X86567Y3517D01*
X86826Y3305D01*
X87121Y3147D01*
X87442Y3050D01*
X87775Y3017D01*
X88108Y3050D01*
X88429Y3147D01*
X88724Y3305D01*
X88983Y3517D01*
X89195Y3776D01*
X89353Y4071D01*
X89450Y4392D01*
X89483Y4725D01*
X89450Y5058D01*
X89353Y5379D01*
X89195Y5674D01*
X88983Y5933D01*
X88724Y6145D01*
X88429Y6303D01*
X88108Y6400D01*
X87775Y6433D01*
D02*
G37*
%LPD*%
D10*
X6363Y92196D02*
G03*
X8471Y87146I2562J-1896D01*
G01*
X5473Y84286D02*
G03*
X434Y86420I-3273J-711D01*
G01*
X7737Y4700D02*
G03*
X7737Y4700I-2987J0D01*
G01*
X90818Y4725D02*
G03*
X90818Y4725I-3043J0D01*
G01*
X90793Y87750D02*
G03*
X90793Y87750I-3043J0D01*
G01*
X6363Y92196D02*
X10275D01*
X11575Y90896D01*
Y90250D02*
Y90896D01*
X8471Y87146D02*
X11575Y90250D01*
X338Y81337D02*
Y86325D01*
Y81337D02*
X1155Y80520D01*
X2011D01*
X5473Y83981D01*
Y84286D01*
X338Y86325D02*
X434Y86420D01*
D15*
X10950Y16400D02*
D03*
X13300Y15450D02*
D03*
Y17350D02*
D03*
Y21150D02*
D03*
Y19250D02*
D03*
X10950Y20200D02*
D03*
X84100Y22775D02*
D03*
X81750Y23725D02*
D03*
Y21825D02*
D03*
X84100Y18850D02*
D03*
X81750Y19800D02*
D03*
Y17900D02*
D03*
D16*
X21800Y13500D02*
D03*
Y12000D02*
D03*
X48500Y11325D02*
D03*
Y9825D02*
D03*
X10275Y23875D02*
D03*
Y22375D02*
D03*
X78475Y19150D02*
D03*
Y20650D02*
D03*
X8900Y21725D02*
D03*
Y23225D02*
D03*
X10475Y29550D02*
D03*
Y31050D02*
D03*
X84225Y28150D02*
D03*
Y26650D02*
D03*
D19*
X12100Y10625D02*
D03*
X13050Y12975D02*
D03*
X11150D02*
D03*
X15875Y10625D02*
D03*
X16825Y12975D02*
D03*
X14925D02*
D03*
X28725Y13725D02*
D03*
X30625D02*
D03*
X29675Y11375D02*
D03*
X43475Y13200D02*
D03*
X45375D02*
D03*
X44425Y10850D02*
D03*
X24950Y13600D02*
D03*
X26850D02*
D03*
X25900Y11250D02*
D03*
X39775Y13200D02*
D03*
X41675D02*
D03*
X40725Y10850D02*
D03*
D21*
X14375Y8725D02*
D03*
X12875D02*
D03*
X24275Y9448D02*
D03*
X25775D02*
D03*
D23*
X14200Y22350D02*
D03*
X15700D02*
D03*
X43525Y23650D02*
D03*
X42025D02*
D03*
X18350Y22100D02*
D03*
X19850D02*
D03*
X13700Y69700D02*
D03*
X12200D02*
D03*
X10925Y69725D02*
D03*
X9425D02*
D03*
X78475Y17925D02*
D03*
X79975D02*
D03*
X51900Y7575D02*
D03*
X53400D02*
D03*
X82375Y58600D02*
D03*
X83875D02*
D03*
X82375Y57125D02*
D03*
X83875D02*
D03*
X13525Y33375D02*
D03*
X12025D02*
D03*
X85725Y25200D02*
D03*
X84225D02*
D03*
D24*
X48650Y18100D02*
D03*
Y16700D02*
D03*
X56150Y63525D02*
D03*
Y62125D02*
D03*
X41875Y42625D02*
D03*
Y41225D02*
D03*
D25*
X66025Y22025D02*
D03*
X67425D02*
D03*
X43625Y20450D02*
D03*
X45025D02*
D03*
X55700Y44100D02*
D03*
X54300D02*
D03*
X69075Y19350D02*
D03*
X70475D02*
D03*
X73475Y19225D02*
D03*
X72075D02*
D03*
X46625Y20575D02*
D03*
X48025D02*
D03*
X52300Y19025D02*
D03*
X53700D02*
D03*
X54900Y8900D02*
D03*
X53500D02*
D03*
X53575Y21950D02*
D03*
X52175D02*
D03*
X56325Y20550D02*
D03*
X54925D02*
D03*
D30*
X8400Y14750D02*
D03*
Y16250D02*
D03*
X20500Y17225D02*
D03*
Y15725D02*
D03*
X36700Y12400D02*
D03*
Y10900D02*
D03*
D40*
X46200Y90450D02*
X56175D01*
X57425Y89200D01*
X43775Y88025D02*
X46200Y90450D01*
X13738Y90062D02*
X13738Y90713D01*
X14675Y91650D01*
X57225Y91650D01*
X55825Y86400D02*
X56982D01*
X57425Y86843D01*
Y89200D01*
X59550Y73875D02*
Y89325D01*
X57225Y91650D02*
X59550Y89325D01*
X90900Y37950D02*
X91000Y38050D01*
X90950Y12875D02*
X91000Y12825D01*
D41*
X43300Y74050D02*
Y85725D01*
Y74050D02*
X43675Y73675D01*
X43150Y73150D02*
X43675Y73675D01*
X55750Y72275D02*
X79158D01*
X51225Y76800D02*
X55750Y72275D01*
X56400Y19875D02*
Y20550D01*
X48500Y35500D02*
X51937Y38938D01*
X67400Y69425D02*
X67825Y69000D01*
X49850Y76320D02*
Y83525D01*
Y76320D02*
X63825Y62345D01*
X79158Y72275D02*
X81800Y69633D01*
X63825Y36800D02*
Y62345D01*
X81325Y49475D02*
X83700Y47100D01*
X81325Y49475D02*
Y50400D01*
X83700Y35975D02*
Y47100D01*
Y35975D02*
X84778Y34897D01*
Y33778D02*
Y34897D01*
X81550Y32075D02*
Y37150D01*
Y32075D02*
X84225Y29400D01*
Y28150D02*
Y29400D01*
X53825Y84250D02*
Y86400D01*
Y84250D02*
X55825Y82250D01*
Y74819D02*
Y82250D01*
Y74819D02*
X56969Y73675D01*
X51875Y72275D02*
X51925Y72225D01*
Y38950D02*
Y72225D01*
X63725Y36700D02*
X63825Y36800D01*
X1150Y70950D02*
X2750D01*
X28050Y72950D02*
Y91550D01*
X90800Y25175D02*
X91000Y25375D01*
X78875Y39825D02*
X81550Y37150D01*
X58550Y10900D02*
X65400D01*
X45725Y29775D02*
X54525D01*
X57375Y26925D01*
Y25125D02*
Y26925D01*
X65525Y10775D02*
Y18125D01*
X58150D02*
X58650D01*
X59000D01*
X56400Y19875D02*
X58150Y18125D01*
X59000D02*
X65525D01*
X48500Y32250D02*
Y35500D01*
X74275Y58600D02*
X82200D01*
X72250Y60625D02*
X74275Y58600D01*
X82350Y55400D02*
Y57100D01*
X85350Y57175D02*
X85400Y57125D01*
X83875D02*
X85300D01*
X85400D02*
Y58175D01*
X84975Y58600D02*
X85400Y58175D01*
X83875Y58600D02*
X84975D01*
X85300Y57125D02*
X85350Y57175D01*
X60325Y69425D02*
X67400D01*
X85725Y25200D02*
X90775D01*
X90800Y25175D01*
X80475Y55325D02*
X80600Y55200D01*
X80875D01*
X1150Y70550D02*
X1550Y70950D01*
D42*
X53675Y23850D02*
X56325Y21200D01*
Y20550D02*
Y21200D01*
D43*
X65950Y22100D02*
X66075Y22225D01*
X65525Y21675D02*
X65950Y22100D01*
X53300Y7500D02*
X53500D01*
X43425Y23600D02*
X45400D01*
X26492Y3125D02*
X46275D01*
X46332Y2475D02*
X47700Y3843D01*
X23075Y2475D02*
X46332D01*
X61825Y28286D02*
X63025Y29486D01*
X61825Y26625D02*
Y28286D01*
Y26625D02*
X63025Y25425D01*
X61275Y25550D02*
X62525Y24300D01*
X63025Y23746D02*
Y25425D01*
Y29486D02*
Y31400D01*
X61275Y25550D02*
Y45425D01*
X78700Y27575D02*
X82100D01*
X79970Y25175D02*
X84225D01*
X68150Y25250D02*
Y45075D01*
X76425Y53350D01*
X67150Y46000D02*
X74750Y53600D01*
X67150Y35525D02*
Y46000D01*
X76425Y53350D02*
X77600D01*
X78625Y26350D02*
X82500D01*
X46053Y83128D02*
X46850Y83925D01*
X47503Y16550D02*
X50550D01*
X44300Y21375D02*
X46150Y19525D01*
X14900Y26800D02*
X35925D01*
X65414Y30857D02*
Y31495D01*
Y30857D02*
X66589Y29683D01*
X46053Y83128D02*
X46053Y31747D01*
X47300Y30500D01*
X55600D01*
X12925Y25750D02*
X34925D01*
X42025Y18650D02*
X45403D01*
X34925Y25750D02*
X42025Y18650D01*
X66246Y26302D02*
X66329D01*
X66589Y27700D02*
Y29683D01*
X63525Y24636D02*
X66589Y27700D01*
X63525Y23953D02*
Y24636D01*
Y23953D02*
X63535Y23942D01*
Y22058D02*
Y23942D01*
X63525Y22047D02*
X63535Y22058D01*
X63525Y20100D02*
Y22047D01*
X64035Y24092D02*
X66246Y26302D01*
X64035Y21851D02*
Y24092D01*
X64525Y20100D02*
Y21633D01*
X64535Y23460D02*
X65175Y24100D01*
X64535Y21643D02*
Y23460D01*
X64525Y21633D02*
X64535Y21643D01*
X64025Y21840D02*
X64035Y21851D01*
X64025Y21840D02*
Y21840D01*
X64025Y21840D02*
X64025Y21840D01*
X64025Y20100D02*
Y21840D01*
X62535Y22472D02*
Y23528D01*
X62525Y23538D02*
X62535Y23528D01*
X62525Y23538D02*
Y24300D01*
X63025Y23746D02*
X63035Y23735D01*
X65525Y18125D02*
Y20100D01*
X61275Y45425D02*
X63225Y47375D01*
X29275Y53475D02*
X42025Y40725D01*
X26325Y53500D02*
X39200Y40625D01*
X53600Y57350D02*
X58525Y62275D01*
X65525Y10775D02*
X65550Y10750D01*
X65400Y10900D02*
X65525Y10775D01*
X75748Y20952D02*
X77225Y19475D01*
X75748Y20952D02*
X79970Y25175D01*
X77000Y19475D02*
X77225D01*
X3375Y71900D02*
Y72550D01*
X41500Y24725D02*
X45475D01*
X12500Y22325D02*
X14200D01*
X43550Y11950D02*
X47825D01*
X48500Y11275D01*
X9475Y23800D02*
X36000D01*
X67375Y13750D02*
X68250D01*
X67375D02*
X68250D01*
X78475Y17925D02*
Y19200D01*
X72125Y18900D02*
Y19850D01*
X53650Y18350D02*
Y19100D01*
X52900Y58700D02*
X57638Y63437D01*
X46700Y22275D02*
X53725Y15250D01*
X53600Y44500D02*
X54900Y43200D01*
X47250Y26475D02*
X51975Y21750D01*
X52325D01*
X51950Y6550D02*
Y7575D01*
X18300Y17575D02*
Y22100D01*
X19900Y13475D02*
X24950D01*
X19825Y21850D02*
X20325Y22350D01*
X21545Y7120D02*
X22500Y8075D01*
X21545Y4030D02*
Y7120D01*
Y4030D02*
X23075Y2500D01*
X9900Y12247D02*
Y13925D01*
X9851Y12199D02*
X9900Y12247D01*
X9851Y12199D02*
X10275Y11775D01*
X10975Y14700D02*
Y14900D01*
X11375Y15300D01*
X11406D01*
X12050Y15944D01*
X11150Y11775D02*
X14775D01*
X10275D02*
X11150D01*
Y12975D01*
X14925Y11925D02*
Y12975D01*
X14775Y11775D02*
X14925Y11925D01*
X22500Y8075D02*
X23542D01*
X25125Y6492D01*
Y4492D02*
X26492Y3125D01*
X20325Y22350D02*
X35500D01*
X41200Y16650D01*
X17175Y23300D02*
X35500D01*
X16200Y22325D02*
X17175Y23300D01*
X35500D02*
X41650Y17150D01*
X8900Y23225D02*
X9475Y23800D01*
X36000D02*
X42150Y17650D01*
X43175Y26475D02*
X47250D01*
X39200Y30450D02*
X43175Y26475D01*
X39200Y30450D02*
Y40625D01*
X41150Y54550D02*
X42700D01*
X38825Y56875D02*
X41150Y54550D01*
X54775Y55800D02*
Y55975D01*
Y55800D02*
X56150Y54425D01*
X54100Y70625D02*
X63225Y61500D01*
Y47375D02*
Y61500D01*
X56150Y54425D02*
X60775D01*
X3375Y71900D02*
X3700Y71575D01*
Y64775D02*
X24750Y43725D01*
Y41475D02*
Y43725D01*
Y41475D02*
X41500Y24725D01*
X41200Y16650D02*
X44575D01*
X45403Y18650D02*
X47503Y16550D01*
X44989Y17650D02*
X47089Y15550D01*
X44782Y17150D02*
X46882Y15050D01*
X42150Y17650D02*
X44989D01*
X41650Y17150D02*
X44782D01*
X44575Y16650D02*
X46675Y14550D01*
X47089Y15550D02*
X47414D01*
X46882Y15050D02*
X47207D01*
X46675Y14550D02*
X47000D01*
X41350Y21375D02*
X44300D01*
X48700Y19525D02*
X52700Y15525D01*
X46150Y19525D02*
X48700D01*
X47000Y14550D02*
X49800Y11750D01*
X47414Y15550D02*
X50214Y12750D01*
X47207Y15050D02*
X50007Y12250D01*
X50550Y16550D02*
X52850Y14250D01*
X51975Y6525D02*
X62986D01*
X48225D02*
X51975D01*
X51950Y6550D02*
X51975Y6525D01*
X40075Y11950D02*
X43550D01*
X43475Y12025D02*
X43550Y11950D01*
X43475Y12025D02*
Y13200D01*
X12050Y15944D02*
Y18300D01*
X12200Y18450D01*
X61150Y23200D02*
X61200Y23150D01*
Y22425D02*
Y23150D01*
X61025Y22250D02*
X61200Y22425D01*
X61025Y20100D02*
Y22250D01*
X60225Y22904D02*
Y28800D01*
Y22904D02*
X60525Y22604D01*
X63035Y22265D02*
Y23735D01*
X63025Y22254D02*
X63035Y22265D01*
X63025Y20100D02*
Y22254D01*
X62525Y22462D02*
X62535Y22472D01*
X62525Y20100D02*
Y22462D01*
X54900Y34125D02*
X60225Y28800D01*
X59700Y22722D02*
X60025Y22397D01*
X54300Y33950D02*
X59700Y28550D01*
Y22722D02*
Y28550D01*
X58575Y25225D02*
X59150Y24650D01*
Y22565D02*
Y24650D01*
Y22565D02*
X59525Y22190D01*
X58575Y25225D02*
X58700D01*
X12225Y21150D02*
Y22050D01*
X12200Y21175D02*
X12225Y21150D01*
X13300D01*
X12200Y18450D02*
Y21175D01*
X12225Y22050D02*
X12500Y22325D01*
X12200Y18450D02*
X13300Y17350D01*
X33925Y30300D02*
X41950Y22275D01*
X21175Y30300D02*
X33925D01*
X19950Y31525D02*
X21175Y30300D01*
X5700Y72550D02*
X6600D01*
X9425Y69725D01*
X3700Y64775D02*
Y71575D01*
X42050Y23725D02*
Y24725D01*
X41950Y22275D02*
X46700D01*
X45475Y24725D02*
X49225Y20975D01*
X47700Y3843D02*
Y5200D01*
X48525Y6025D01*
X46275Y3125D02*
X47200Y4050D01*
Y5500D01*
X48225Y6525D01*
X74875Y15050D02*
X77700Y17875D01*
X50650Y9825D02*
X52075Y11250D01*
X49800Y11750D02*
X56175D01*
X50007Y12250D02*
X56175D01*
X50214Y12750D02*
X56175D01*
X52200Y13750D02*
X56175D01*
X51675Y14275D02*
X52200Y13750D01*
X52850Y14250D02*
X56175D01*
X53200Y14750D02*
X56175D01*
X52700Y15250D02*
X53200Y14750D01*
X53725Y15250D02*
X56175D01*
X53932Y15750D02*
X56175D01*
X49225Y20457D02*
X53932Y15750D01*
X52075Y11250D02*
X56175D01*
X39775Y12250D02*
Y13075D01*
X58025Y10375D02*
X58550Y10900D01*
X59550Y3225D02*
X59850Y3525D01*
X59000Y18125D02*
X59025Y18150D01*
X57700Y8000D02*
X58025Y8325D01*
Y8900D02*
Y10375D01*
X57575Y17043D02*
Y17050D01*
X55825Y18250D02*
X56175D01*
X52050Y3225D02*
Y3950D01*
X22100Y69300D02*
X23550D01*
X69725Y10050D02*
Y10725D01*
X70475Y18825D02*
Y19350D01*
X68150Y25250D02*
X68425Y24975D01*
X65525Y7650D02*
Y8900D01*
X64025Y7564D02*
Y8900D01*
X59025Y18150D02*
Y20100D01*
Y20975D01*
X57050Y1275D02*
Y3225D01*
X58025Y8325D02*
Y8900D01*
Y20100D02*
Y21300D01*
X57282Y16750D02*
X57575Y17043D01*
X54900Y8900D02*
X55800Y8000D01*
X4650Y65525D02*
Y67025D01*
X53600Y44500D02*
Y57350D01*
X25325Y70475D02*
Y77075D01*
X54900Y34125D02*
Y43200D01*
X42025Y30900D02*
Y40725D01*
X29275Y53475D02*
Y66525D01*
X26325Y53500D02*
Y66525D01*
X67375Y11750D02*
X68700D01*
X67375Y13250D02*
X68875D01*
X68250Y13750D02*
X69082D01*
X58400Y3725D02*
X59025Y4350D01*
X58300Y3625D02*
X58400Y3725D01*
X58300Y3225D02*
Y3625D01*
X55800Y8000D02*
X57700D01*
X57575Y17050D02*
X58650Y18125D01*
X53650Y18350D02*
X54250Y17750D01*
X65550Y10750D02*
X67375D01*
X64525Y7357D02*
Y8900D01*
X68700Y11750D02*
X69725Y10725D01*
X56175Y16750D02*
X57282D01*
X53500Y7500D02*
X54900Y8900D01*
X23550Y69300D02*
X26325Y66525D01*
X72125Y19850D02*
X78625Y26350D01*
X52050Y3950D02*
X53625Y5525D01*
X25325Y70475D02*
X29275Y66525D01*
X59850Y3525D02*
X67750D01*
X54250Y17750D02*
X56175D01*
X63025Y31400D02*
X67150Y35525D01*
X70475Y19350D02*
X78700Y27575D01*
X63400Y5525D02*
X65525Y7650D01*
X52325Y21750D02*
X55825Y18250D01*
X4650Y65525D02*
X25500Y44675D01*
X22250Y80150D02*
X25325Y77075D01*
X59025Y4350D02*
X67025D01*
X53625Y5525D02*
X63400D01*
X8900Y18475D02*
Y21725D01*
X48500Y9825D02*
X50650D01*
X15750Y22325D02*
X16200D01*
X39775Y12250D02*
X40075Y11950D01*
X62986Y6525D02*
X64025Y7564D01*
X48525Y6025D02*
X63193D01*
X64525Y7357D01*
X67750Y3525D02*
X71625Y7400D01*
Y11207D01*
X69082Y13750D02*
X71625Y11207D01*
X67025Y4350D02*
X71125Y8450D01*
Y11000D01*
X68875Y13250D02*
X71125Y11000D01*
X65525Y20100D02*
Y21675D01*
X59525Y20100D02*
Y22190D01*
X60025Y20100D02*
Y22397D01*
X60525Y20100D02*
Y22604D01*
X52900Y44000D02*
Y58700D01*
Y44000D02*
X54300Y42600D01*
Y33950D02*
Y42600D01*
X52700Y15250D02*
Y15525D01*
X49225Y20457D02*
Y20975D01*
X46875Y25875D02*
X53650Y19100D01*
X46125Y25275D02*
X50100Y21300D01*
X25500Y41800D02*
Y44675D01*
Y41800D02*
X42025Y25275D01*
X46125D01*
X42025Y30900D02*
X44500Y28425D01*
X50900D01*
X58025Y21300D01*
X77700Y17875D02*
X78425D01*
X78475Y17925D01*
X79975D02*
X81725D01*
X81750Y17900D01*
X79975Y17925D02*
Y21100D01*
X80700Y21825D01*
X81750D01*
X24950Y12750D02*
X25250Y12450D01*
X28450D01*
X28725Y12725D01*
Y13725D01*
X24950Y12750D02*
Y13475D01*
Y13600D01*
X72275Y16775D02*
X73325D01*
X71425Y16175D02*
X71500D01*
X71800Y17250D02*
X72275Y16775D01*
X70850Y16750D02*
X71425Y16175D01*
X67375Y18250D02*
X69900D01*
X70475Y18825D01*
X67375Y17750D02*
X70975D01*
X72125Y18900D01*
X67375Y17250D02*
X71800D01*
X67375Y16750D02*
X70850D01*
X69550Y14050D02*
X84778D01*
X69964Y15050D02*
X74875D01*
X67375Y14250D02*
X69350D01*
X69550Y14050D01*
X67375Y15250D02*
X69764D01*
X69964Y15050D01*
X67375Y16250D02*
X69300D01*
X69600Y15950D01*
X70325D01*
X35925Y26800D02*
X41350Y21375D01*
X14900Y33375D02*
X18425Y36900D01*
Y46300D01*
X13525Y33375D02*
X14900D01*
X11350D02*
X12025D01*
X10475Y32500D02*
X11350Y33375D01*
X10475Y31050D02*
Y32175D01*
Y32500D01*
X84225Y25200D02*
Y26650D01*
D44*
X16800Y15450D02*
X22050D01*
X26875Y20275D01*
X27500Y20900D02*
X29350D01*
X30575D02*
X30675Y20800D01*
X26900Y20300D02*
X27500Y20900D01*
D45*
X36525Y6400D02*
Y10850D01*
Y4400D02*
Y6400D01*
Y10850D02*
X40725D01*
X84375Y22825D02*
X87375D01*
X84100Y22550D02*
X84375Y22825D01*
X84100Y18850D02*
Y22550D01*
X14550Y3900D02*
Y10500D01*
X12100Y10625D02*
X12125Y10600D01*
X12100Y10625D02*
X15875D01*
X4425Y16400D02*
X10950D01*
X15825Y15475D02*
Y18775D01*
X39800Y15350D02*
X41700D01*
X34250Y20900D02*
X39800Y15350D01*
X15350Y19250D02*
X15825Y18775D01*
X13300Y19250D02*
X15350D01*
X5825Y16425D02*
Y18425D01*
X10950Y16400D02*
Y20200D01*
X44425Y10850D02*
X44525Y10750D01*
X40725Y10850D02*
X44425D01*
X88050Y20150D02*
Y22150D01*
X87375Y22825D02*
X88050Y22150D01*
X45375Y13200D02*
Y13975D01*
X44000Y15350D02*
X45375Y13975D01*
X41675Y13200D02*
Y15325D01*
X41700Y15350D01*
X44000D01*
D46*
X91000Y25375D02*
Y38050D01*
X80475Y55325D02*
X87475D01*
X91000Y12825D02*
Y25375D01*
X90375Y9400D02*
X91000Y10025D01*
X82400Y1250D02*
X83225Y2075D01*
Y6625D02*
X86000Y9400D01*
X91000Y38050D02*
Y51800D01*
X83225Y2075D02*
Y6625D01*
X72275Y1250D02*
X82400D01*
X86000Y9400D02*
X90375D01*
X73550Y55325D02*
X80475D01*
X91000Y10025D02*
Y12825D01*
X87475Y55325D02*
X91000Y51800D01*
D47*
X48675Y82350D02*
X49150Y81875D01*
X49150Y39600D01*
X46750Y37200D02*
X49150Y39600D01*
X48675Y84256D02*
X49825Y85406D01*
X48675Y82350D02*
Y84256D01*
X49825Y85406D02*
Y86400D01*
X46750Y32050D02*
Y37200D01*
Y32050D02*
X47352Y31448D01*
X54848D01*
X54875Y31475D01*
X42450Y25875D02*
X46875D01*
X27150Y41175D02*
X42450Y25875D01*
X27150Y41175D02*
Y45000D01*
X11600Y69725D02*
X12175D01*
X10925D02*
X11600D01*
Y68800D02*
Y69725D01*
X24650Y47500D02*
Y55750D01*
X11600Y68800D02*
X24650Y55750D01*
Y47500D02*
X27150Y45000D01*
D49*
X1150Y77475D02*
X13738Y90062D01*
X1150Y61725D02*
Y77475D01*
X9100Y28950D02*
X20200D01*
X8125Y41275D02*
X8300Y41100D01*
Y54575D01*
Y29750D02*
Y41100D01*
Y29750D02*
X9100Y28950D01*
X1150Y61725D02*
X8300Y54575D01*
D50*
X29350Y20900D02*
X30575D01*
X30675Y13725D02*
Y20800D01*
X26900Y13600D02*
Y20300D01*
X34100Y20900D02*
X34250D01*
X33075D02*
X34100D01*
X32125D02*
X33075D01*
X31250D02*
X32125D01*
X30575D02*
X31250D01*
X42550Y1250D02*
X72275D01*
X25925Y8184D02*
Y11250D01*
X13300Y15450D02*
X16800D01*
X13050Y12975D02*
Y15200D01*
X13300Y15450D01*
X16825Y12975D02*
Y15425D01*
X16800Y15450D02*
X16825Y15425D01*
X25925Y8184D02*
X27125Y6984D01*
Y6492D02*
Y6984D01*
Y4492D02*
Y6492D01*
X25925Y11250D02*
X29550D01*
X25900D02*
X25925D01*
X29550D02*
X29675Y11375D01*
D54*
X8925Y90300D02*
D03*
X4725Y4725D02*
D03*
X87775Y4725D02*
D03*
X87775Y87750D02*
D03*
X2200Y83575D02*
D03*
D55*
X36525Y4400D02*
D03*
Y6400D02*
D03*
X38525Y4400D02*
D03*
Y6400D02*
D03*
X40525Y4400D02*
D03*
Y6400D02*
D03*
X42525Y4400D02*
D03*
Y6400D02*
D03*
X44525Y4400D02*
D03*
Y6400D02*
D03*
X47825Y86400D02*
D03*
Y88400D02*
D03*
X49825Y86400D02*
D03*
Y88400D02*
D03*
X51825Y86400D02*
D03*
Y88400D02*
D03*
X53825Y86400D02*
D03*
Y88400D02*
D03*
X55825Y86400D02*
D03*
Y88400D02*
D03*
X23125Y4492D02*
D03*
Y6492D02*
D03*
X25125Y4492D02*
D03*
Y6492D02*
D03*
X27125Y4492D02*
D03*
Y6492D02*
D03*
X29125Y4492D02*
D03*
Y6492D02*
D03*
X31125Y4492D02*
D03*
Y6492D02*
D03*
X10525Y3900D02*
D03*
Y5900D02*
D03*
X12525Y3900D02*
D03*
Y5900D02*
D03*
X14525Y3900D02*
D03*
Y5900D02*
D03*
X16525Y3900D02*
D03*
Y5900D02*
D03*
X18525Y3900D02*
D03*
Y5900D02*
D03*
X5825Y14425D02*
D03*
X3825D02*
D03*
X5825Y16425D02*
D03*
X3825D02*
D03*
X5825Y18425D02*
D03*
X3825D02*
D03*
X5825Y20425D02*
D03*
X3825D02*
D03*
X5825Y22425D02*
D03*
X3825D02*
D03*
X5275Y72550D02*
D03*
Y74550D02*
D03*
X3275Y72550D02*
D03*
Y74550D02*
D03*
X11025Y72560D02*
D03*
Y75100D02*
D03*
Y77640D02*
D03*
X73100Y5025D02*
D03*
Y7025D02*
D03*
X75100Y5025D02*
D03*
Y7025D02*
D03*
X77100Y5025D02*
D03*
Y7025D02*
D03*
X79100Y5025D02*
D03*
Y7025D02*
D03*
X81100Y5025D02*
D03*
Y7025D02*
D03*
X3700Y33275D02*
D03*
Y35275D02*
D03*
Y39275D02*
D03*
X5700Y35275D02*
D03*
X3700Y37275D02*
D03*
X5700Y33275D02*
D03*
Y37275D02*
D03*
X3700Y41275D02*
D03*
X5700Y39275D02*
D03*
Y41275D02*
D03*
X88325Y37950D02*
D03*
X86325D02*
D03*
X88325Y39950D02*
D03*
X86325D02*
D03*
X88325Y41950D02*
D03*
X86325D02*
D03*
X88325Y43950D02*
D03*
X86325D02*
D03*
X88325Y45950D02*
D03*
X86325D02*
D03*
X17825Y87725D02*
D03*
X20350D02*
D03*
X68475Y86279D02*
D03*
Y88279D02*
D03*
X70475Y86279D02*
D03*
Y88279D02*
D03*
X72475Y86279D02*
D03*
Y88279D02*
D03*
X74475Y86279D02*
D03*
Y88279D02*
D03*
X76475Y86279D02*
D03*
Y88279D02*
D03*
X88050Y22150D02*
D03*
Y20150D02*
D03*
X90050Y22150D02*
D03*
Y20150D02*
D03*
D56*
X59550Y3225D02*
D03*
X58300D02*
D03*
X57050D02*
D03*
X55800D02*
D03*
X54550D02*
D03*
X52050D02*
D03*
X50800D02*
D03*
D57*
X53300D02*
D03*
D58*
X43300Y85725D02*
D03*
X75425Y70675D02*
D03*
X55200Y46725D02*
D03*
X43150Y73150D02*
D03*
X67825Y69000D02*
D03*
X51050Y76950D02*
D03*
X81800Y69633D02*
D03*
X81325Y50400D02*
D03*
X84778Y33778D02*
D03*
X82100Y27575D02*
D03*
X74750Y53600D02*
D03*
X82500Y26350D02*
D03*
X84778Y14050D02*
D03*
X49850Y83525D02*
D03*
X43775Y88025D02*
D03*
X46850Y83925D02*
D03*
X56969Y73675D02*
D03*
X51925Y72225D02*
D03*
X63725Y36700D02*
D03*
X65414Y31495D02*
D03*
X54875Y31475D02*
D03*
X55600Y30500D02*
D03*
X66329Y26302D02*
D03*
X58525Y62275D02*
D03*
X47352Y8000D02*
D03*
X43725Y32181D02*
D03*
X47950Y18275D02*
D03*
X77000Y19475D02*
D03*
X9900Y13925D02*
D03*
X10975Y14700D02*
D03*
X19900Y13475D02*
D03*
X34100Y20900D02*
D03*
X33075D02*
D03*
X30300Y20875D02*
D03*
X31250Y20900D02*
D03*
X29350D02*
D03*
X32125D02*
D03*
X72250Y60625D02*
D03*
X78875Y39825D02*
D03*
X54775Y55975D02*
D03*
X61150Y23200D02*
D03*
X58575Y25225D02*
D03*
X47200Y11900D02*
D03*
X2750Y70950D02*
D03*
X45400Y23600D02*
D03*
X45725Y29775D02*
D03*
X73325Y16775D02*
D03*
X57625Y63450D02*
D03*
X50100Y21300D02*
D03*
X42550Y1250D02*
D03*
X69725Y10050D02*
D03*
X57375Y25125D02*
D03*
X38825Y56875D02*
D03*
X22100Y69300D02*
D03*
X19950Y31525D02*
D03*
X28050Y72950D02*
D03*
X59550Y73875D02*
D03*
X73525Y55350D02*
D03*
X77600Y53350D02*
D03*
X4650Y67025D02*
D03*
X22250Y80150D02*
D03*
X68425Y24975D02*
D03*
X54100Y70625D02*
D03*
X51675Y14275D02*
D03*
X18300Y17575D02*
D03*
X12925Y25750D02*
D03*
X8900Y18475D02*
D03*
X65175Y24100D02*
D03*
X48500Y32250D02*
D03*
X51925Y38950D02*
D03*
X42700Y54550D02*
D03*
X60775Y54425D02*
D03*
X71500Y16175D02*
D03*
X70325Y15950D02*
D03*
X85400Y57125D02*
D03*
X60325Y69425D02*
D03*
X14900Y26800D02*
D03*
X18425Y46300D02*
D03*
X10475Y32175D02*
D03*
X80875Y55200D02*
D03*
X47000Y1250D02*
D03*
X45825D02*
D03*
X44750D02*
D03*
X43700D02*
D03*
X53675Y23850D02*
D03*
X55213Y22388D02*
D03*
X54450Y23100D02*
D03*
X16475Y28925D02*
D03*
X17650Y28950D02*
D03*
X18850Y28925D02*
D03*
X20200D02*
D03*
D59*
X67375Y17750D02*
D03*
Y18250D02*
D03*
Y16750D02*
D03*
Y17250D02*
D03*
Y14750D02*
D03*
Y15250D02*
D03*
Y14250D02*
D03*
Y16250D02*
D03*
Y15750D02*
D03*
Y13250D02*
D03*
Y13750D02*
D03*
Y11250D02*
D03*
Y11750D02*
D03*
Y10750D02*
D03*
Y12750D02*
D03*
Y12250D02*
D03*
X56175Y18250D02*
D03*
Y17750D02*
D03*
Y15750D02*
D03*
Y16250D02*
D03*
Y15250D02*
D03*
Y17250D02*
D03*
Y16750D02*
D03*
Y13250D02*
D03*
Y13750D02*
D03*
Y12750D02*
D03*
Y14750D02*
D03*
Y14250D02*
D03*
Y12250D02*
D03*
Y11750D02*
D03*
Y11250D02*
D03*
Y10750D02*
D03*
D60*
X65525Y20100D02*
D03*
X65025D02*
D03*
X64025D02*
D03*
X63525D02*
D03*
X64525D02*
D03*
X62525D02*
D03*
X63025D02*
D03*
X62025D02*
D03*
X61525D02*
D03*
X61025D02*
D03*
X62525Y8900D02*
D03*
X62025D02*
D03*
X63025D02*
D03*
X61025D02*
D03*
X61525D02*
D03*
X65025D02*
D03*
X64525D02*
D03*
X65525D02*
D03*
X63525D02*
D03*
X64025D02*
D03*
X60025Y20100D02*
D03*
X59525D02*
D03*
X60525D02*
D03*
X58025D02*
D03*
X59025D02*
D03*
X58525D02*
D03*
X60025Y8900D02*
D03*
X60525D02*
D03*
X59025D02*
D03*
X58525D02*
D03*
X59525D02*
D03*
X58025D02*
D03*
D61*
X53825Y88400D02*
Y89001D01*
X53301Y89525D02*
X53825Y89001D01*
X46753Y89525D02*
X53301D01*
X44353Y87125D02*
X46753Y89525D01*
X40725Y87125D02*
X44353D01*
X40675Y87175D02*
Y91725D01*
Y87175D02*
X40725Y87125D01*
%TF.MD5,bc5597760578aa9baf85fcfc48369f89*%
M02*
